<?xml version="1.0" encoding="utf-8"?>
<!-- Generator: Adobe Illustrator 25.2.0, SVG Export Plug-In . SVG Version: 6.00 Build 0)  -->
<svg version="1.1" baseProfile="tiny" id="Layer_1" xmlns="http://www.w3.org/2000/svg" xmlns:xlink="http://www.w3.org/1999/xlink"
	 x="0px" y="0px" viewBox="0 0 50 50" overflow="visible" xml:space="preserve">

<g>
	<path stroke="#000000" stroke-width="0.1" stroke-miterlimit="10" d="M37.9,25.7c-1-0.2-2.2-0.3-3.7-0.3c-0.6,0-1.2,0-1.7,0.1V13.7
		c0-0.8-0.6-1.4-1.4-1.4H15.4c-0.8,0-1.4,0.7-1.4,1.6v20.8c0,0.5,0.6,1.2,1.4,1.2h13.2v0.6c0,0.8,1.4,1.1,1.8,1.2
		c1,0.2,2.2,0.3,3.7,0.3s2.8-0.1,3.7-0.3c0.4-0.1,1.8-0.4,1.8-1.2v-9.5C39.7,26.1,38.4,25.8,37.9,25.7z M39,31.7
		c0,0-0.2,0.3-1.3,0.5c-0.9,0.2-2.1,0.3-3.4,0.3s-2.6-0.1-3.4-0.3c-1.2-0.2-1.3-0.5-1.3-0.5v-1.5c0.4,0.2,0.8,0.3,1.1,0.3
		c1,0.2,2.2,0.3,3.7,0.3s2.8-0.1,3.7-0.3c0.2,0,0.7-0.1,1.1-0.3V31.7z M23.7,31.8c-0.2,0-0.4,0.2-0.4,0.4v1h-5.7
		c-0.2,0-0.3-0.2-0.3-0.2v-3.7h6v1.3c0,0.2,0.2,0.4,0.4,0.4s0.4-0.2,0.4-0.4v-1.3h4.5v4h-4.5v-1C24.1,31.9,23.9,31.8,23.7,31.8z
		 M30.2,25.8c-0.6,0.1-1.5,0.5-1.5,1.2v1.4h-4.5v-4h5.7c0.2,0,0.3,0.1,0.3,0.3V25.8z M23.4,28.4h-6v-3.5c0-0.3,0.1-0.4,0.3-0.4h5.7
		V28.4z M39,29.3c0,0-0.2,0.3-1.3,0.5c-0.9,0.2-2.1,0.3-3.4,0.3s-2.6-0.1-3.4-0.3c-1.2-0.2-1.3-0.5-1.3-0.5v-1.5
		c0.4,0.2,0.8,0.3,1.1,0.3c1,0.2,2.2,0.3,3.7,0.3s2.8-0.1,3.7-0.3c0.2,0,0.7-0.1,1.1-0.3V29.3z M37.6,26.4c1.1,0.2,1.3,0.5,1.3,0.5
		c0,0-0.2,0.3-1.3,0.5c-0.9,0.2-2.1,0.3-3.4,0.3s-2.6-0.1-3.4-0.3c-1.1-0.2-1.3-0.5-1.3-0.5c0,0,0.2-0.3,1.3-0.5
		c0.9-0.2,2.1-0.3,3.4-0.3S36.7,26.3,37.6,26.4z M15.4,35.1c-0.4,0-0.6-0.3-0.6-0.4V22.4h12.4c0.2,0,0.4-0.2,0.4-0.4
		s-0.2-0.4-0.4-0.4H14.8v-7.8c0-0.5,0.2-0.8,0.6-0.8h15.6c0.3,0,0.6,0.3,0.6,0.6v8h-2.8c-0.2,0-0.4,0.2-0.4,0.4s0.2,0.4,0.4,0.4h2.8
		v3.1c-0.3,0-0.6,0.1-0.8,0.1v-0.9c0-0.6-0.5-1.1-1.1-1.1H17.7c-0.6,0-1.1,0.5-1.1,1.2v8c0,0.5,0.5,1,1.1,1h11v1.3H15.4z M37.6,36.9
		c-0.9,0.2-2.1,0.3-3.4,0.3s-2.6-0.1-3.4-0.3c-1.2-0.2-1.3-0.5-1.3-0.5v-1.5c0.4,0.2,0.8,0.3,1.1,0.3c1,0.2,2.2,0.3,3.7,0.3
		c0.7,0,1.4,0,2-0.1c0.2,0,0.4-0.2,0.3-0.4c0-0.2-0.2-0.4-0.4-0.3c-0.6,0-1.3,0.1-2,0.1c-1.4,0-2.6-0.1-3.4-0.3
		c-1.2-0.2-1.3-0.5-1.3-0.5v-1.5c0.4,0.2,0.8,0.3,1.1,0.3c1,0.2,2.2,0.3,3.7,0.3s2.8-0.1,3.7-0.3c0.2,0,0.7-0.1,1.1-0.3V34
		c0,0-0.1,0.3-1.1,0.5c-0.2,0-0.3,0.2-0.3,0.4c0,0.2,0.2,0.3,0.4,0.3c0.2,0,0.6-0.1,1-0.3v1.5C39,36.4,38.8,36.7,37.6,36.9z"/>
	<path stroke="#000000" stroke-width="0.1" stroke-miterlimit="10" d="M31,19.3v-4c0-0.6-0.5-1.1-1.1-1.1h-8.3
		c-0.2,0-0.4,0.2-0.4,0.4c0,0.2,0.2,0.4,0.4,0.4h8.3c0.2,0,0.3,0.1,0.3,0.3v4c0,0.2-0.1,0.3-0.3,0.3H17.7c-0.2,0-0.3-0.1-0.3-0.3v-4
		c0-0.2,0.1-0.3,0.3-0.3h2.2c0.2,0,0.4-0.2,0.4-0.4c0-0.2-0.2-0.4-0.4-0.4h-2.2c-0.6,0-1.1,0.5-1.1,1.1v4c0,0.6,0.5,1.1,1.1,1.1
		h12.2C30.5,20.4,31,19.9,31,19.3z"/>
	<path stroke="#000000" stroke-width="0.1" stroke-miterlimit="10" d="M22,30.7h-2.7c-0.2,0-0.4,0.2-0.4,0.4s0.2,0.4,0.4,0.4H22
		c0.2,0,0.4-0.2,0.4-0.4S22.2,30.7,22,30.7z"/>
	<path stroke="#000000" stroke-width="0.1" stroke-miterlimit="10" d="M19.5,26.8h0.7v0.7c0,0.2,0.2,0.4,0.4,0.4
		c0.2,0,0.4-0.2,0.4-0.4v-0.7h0.7c0.2,0,0.4-0.2,0.4-0.4S21.9,26,21.7,26H21v-0.7c0-0.2-0.2-0.4-0.4-0.4s-0.4,0.2-0.4,0.4V26h-0.7
		c-0.2,0-0.4,0.2-0.4,0.4S19.3,26.8,19.5,26.8z"/>
	<path stroke="#000000" stroke-width="0.1" stroke-miterlimit="10" d="M27.9,25.3c-0.1-0.1-0.4-0.1-0.5,0l-0.5,0.5l-0.5-0.5
		c-0.1-0.1-0.4-0.1-0.5,0c-0.1,0.1-0.1,0.4,0,0.5l0.5,0.5l-0.5,0.5c-0.1,0.1-0.1,0.4,0,0.5c0.1,0.1,0.4,0.1,0.5,0l0.5-0.5l0.5,0.5
		c0.1,0.1,0.4,0.1,0.5,0c0.1-0.1,0.1-0.4,0-0.5l-0.5-0.5l0.5-0.5C28.1,25.7,28.1,25.5,27.9,25.3z"/>
	<path stroke="#000000" stroke-width="0.1" stroke-miterlimit="10" d="M26.1,32.3c0.1,0,0.2,0,0.3-0.1l1.7-1.7
		c0.1-0.1,0.1-0.4,0-0.5c-0.1-0.1-0.4-0.1-0.5,0l-1.7,1.7c-0.1,0.1-0.1,0.4,0,0.5C25.9,32.3,26,32.3,26.1,32.3L26.1,32.3z"/>
	<g>
		<circle stroke="#000000" stroke-width="0.1" stroke-miterlimit="10" cx="26.2" cy="30.1" r="0.4"/>
		<circle stroke="#000000" stroke-width="0.1" stroke-miterlimit="10" cx="27.7" cy="32.1" r="0.4"/>
	</g>
	<path stroke="#000000" stroke-width="0.1" stroke-miterlimit="10" d="M28.6,19c0.5,0,0.9-0.4,0.9-0.9v-1.5c0-0.5-0.4-0.9-0.9-0.9
		h-0.7c-0.5,0-0.9,0.4-0.9,0.9v1.5c0,0.5,0.4,0.9,0.9,0.9H28.6z M27.8,18.1v-1.5c0-0.1,0.1-0.1,0.1-0.1h0.7c0.1,0,0.1,0.1,0.1,0.1
		v1.5c0,0.1-0.1,0.1-0.1,0.1h-0.7C27.9,18.2,27.8,18.1,27.8,18.1z"/>
</g>
</svg>
