<?xml version="1.0" encoding="utf-8"?>
<!-- Generator: Adobe Illustrator 25.2.0, SVG Export Plug-In . SVG Version: 6.00 Build 0)  -->
<svg version="1.1" id="Layer_1" xmlns="http://www.w3.org/2000/svg" xmlns:xlink="http://www.w3.org/1999/xlink" x="0px" y="0px"
	 viewBox="0 0 50 50" style="enable-background:new 0 0 50 50;" xml:space="preserve">

	
	
	
	
	
	
	
	
	
	
	
	
	
	
	
	
	
	
	
	

<circle fill="#FFC101" cx="25" cy="25.2" r="24.5"/>
<g>
	<path fill="#3B3B3C" d="M22.1,35.5h-4.9c-1.7-0.2-3-1.6-3-3.3V15.3c0-1.8,1.5-3.3,3.3-3.3H29c1.8,0,3.3,1.5,3.3,3.3c0,0,0,0.1,0,0.1v5
		c0,0.3,0.3,0.6,0.6,0.6H33c0.3,0,0.6-0.2,0.6-0.5l0,0v-0.1v-5v0c0-2.6-2.1-4.7-4.7-4.7H17.5c-2.6,0-4.7,2.1-4.7,4.7v16.9
		c0,2.3,1.8,4.3,4,4.6c0.1,0,0.2,0.1,0.3,0.1h0.4h4.4h0.2c0.3,0,0.6-0.3,0.6-0.6v-0.1C22.7,35.7,22.4,35.5,22.1,35.5z"/>
	<path fill="#3B3B3C" d="M16,16.1c-0.4,0-0.7,0.3-0.7,0.7c0,0.4,0.3,0.7,0.7,0.7h10.6c0.4,0,0.7-0.3,0.7-0.7c0-0.4-0.3-0.7-0.7-0.7H16z
		"/>
	<path fill="#3B3B3C" d="M23,20.1h-7.1c-0.3,0-0.6,0.3-0.6,0.6v0.1c0,0.3,0.3,0.6,0.6,0.6H23c0.3,0,0.6-0.3,0.6-0.6v-0.1
		C23.6,20.3,23.4,20.1,23,20.1z"/>
	<path fill="#3B3B3C" d="M15.8,25.4h5.5c0.3,0,0.5-0.2,0.5-0.5v-0.3c0-0.3-0.2-0.5-0.5-0.5h-5.5c-0.3,0-0.5,0.2-0.5,0.5v0.3
		C15.3,25.1,15.5,25.4,15.8,25.4z"/>
	<path fill="#3B3B3C" d="M35.7,21.6h-9.6c-1.3,0-2.3,1.1-2.3,2.3v12.9c0,1.3,1.1,2.3,2.3,2.3h9.6c1.3,0,2.3-1.1,2.3-2.3V24
		C38,22.7,37,21.6,35.7,21.6z M35.7,37.9h-9.6c-0.6,0-1-0.5-1-1V24c0-0.6,0.5-1,1-1h9.6c0.6,0,1,0.5,1,1v12.9
		C36.7,37.5,36.3,37.9,35.7,37.9z"/>
	<path fill="#3B3B3C" d="M27.9,34.5h-1c-0.4,0-0.8,0.3-0.8,0.8V36c0,0.4,0.3,0.8,0.8,0.8h1c0.4,0,0.8-0.3,0.8-0.8v-0.7
		C28.7,34.9,28.3,34.5,27.9,34.5z M27.8,35.4v0.5h-0.9v-0.5H27.8z"/>
	<path fill="#3B3B3C" d="M27.9,31.3h-1c-0.4,0-0.8,0.3-0.8,0.8v0.7c0,0.4,0.3,0.8,0.8,0.8h1c0.4,0,0.8-0.3,0.8-0.8v-0.7
		C28.7,31.7,28.3,31.3,27.9,31.3z M27.8,32.2v0.5h-0.9v-0.5H27.8z"/>
	<path fill="#3B3B3C" d="M27.9,28.1h-1c-0.4,0-0.8,0.3-0.8,0.8v0.7c0,0.4,0.3,0.8,0.8,0.8h1c0.4,0,0.8-0.3,0.8-0.8v-0.7
		C28.7,28.5,28.3,28.1,27.9,28.1z M27.8,29v0.5h-0.9V29H27.8z"/>
	<path fill="#3B3B3C" d="M31.2,34.5h-1c-0.4,0-0.8,0.3-0.8,0.8V36c0,0.4,0.3,0.8,0.8,0.8h1c0.4,0,0.8-0.3,0.8-0.8v-0.7
		C32,34.9,31.6,34.5,31.2,34.5z M31.1,35.4v0.5h-0.9v-0.5H31.1z"/>
	<path fill="#3B3B3C" d="M31.2,31.3h-1c-0.4,0-0.8,0.3-0.8,0.8v0.7c0,0.4,0.3,0.8,0.8,0.8h1c0.4,0,0.8-0.3,0.8-0.8v-0.7
		C32,31.7,31.6,31.3,31.2,31.3z M31.1,32.2v0.5h-0.9v-0.5H31.1z"/>
	<path fill="#3B3B3C" d="M31.2,28.1h-1c-0.4,0-0.8,0.3-0.8,0.8v0.7c0,0.4,0.3,0.8,0.8,0.8h1c0.4,0,0.8-0.3,0.8-0.8v-0.7
		C32,28.5,31.6,28.1,31.2,28.1z M31.1,29v0.5h-0.9V29H31.1z"/>
	<path fill="#3B3B3C" d="M34.5,31.3h-1c-0.4,0-0.8,0.3-0.8,0.8v4c0,0.4,0.3,0.8,0.8,0.8h1c0.4,0,0.8-0.3,0.8-0.8v-4
		C35.3,31.7,35,31.3,34.5,31.3z M34.4,32.2V36h-0.9v-3.9H34.4z"/>
	<path fill="#3B3B3C" d="M34.5,28.1h-1c-0.4,0-0.8,0.3-0.8,0.8v0.7c0,0.4,0.3,0.8,0.8,0.8h1c0.4,0,0.8-0.3,0.8-0.8v-0.7
		C35.3,28.5,35,28.1,34.5,28.1z M34.4,29v0.5h-0.9V29H34.4z"/>
	<path fill="#3B3B3C" d="M34.5,23.8h-7.1c-0.6,0-1,0.4-1,1v1.7c0,0.6,0.4,1,1,1h7.1c0.6,0,1-0.4,1-1v-1.7C35.5,24.2,35,23.8,34.5,23.8z
		 M34.3,25v1.3h-6.8V25H34.3z"/>
</g>
</svg>
