<?xml version="1.0" encoding="utf-8"?>
<!-- Generator: Adobe Illustrator 25.2.0, SVG Export Plug-In . SVG Version: 6.00 Build 0)  -->
<svg version="1.1" baseProfile="tiny" id="Layer_1" xmlns="http://www.w3.org/2000/svg" xmlns:xlink="http://www.w3.org/1999/xlink"
	 x="0px" y="0px" viewBox="0 0 50 50" overflow="visible" xml:space="preserve">
<g>
	<g>
		<path d="M45.8,21.4c-0.2,0-0.4,0-0.6,0H11.6l0.7-0.3c0.7-0.3,1.4-0.8,1.9-1.4l9.4-9.4c1.2-1.2,1.4-3.1,0.5-4.5
			c-1.1-1.5-3.2-1.8-4.8-0.7c-0.1,0.1-0.2,0.2-0.3,0.3l-17,17c-1.3,1.3-1.3,3.5,0,4.8c0,0,0,0,0,0l17,17c1.3,1.3,3.5,1.3,4.8,0
			c0.1-0.1,0.2-0.2,0.3-0.3c1-1.4,0.7-3.3-0.5-4.5l-9.4-9.4c-0.5-0.5-1.1-0.9-1.7-1.2l-1-0.5H45c1.7,0.1,3.3-1.1,3.6-2.9
			C48.9,23.5,47.6,21.7,45.8,21.4z"/>
	</g>
</g>
</svg>
