<?xml version="1.0" encoding="utf-8"?>
<!-- Generator: Adobe Illustrator 25.2.0, SVG Export Plug-In . SVG Version: 6.00 Build 0)  -->
<svg version="1.1" baseProfile="tiny" id="Layer_1" xmlns="http://www.w3.org/2000/svg" xmlns:xlink="http://www.w3.org/1999/xlink"
	 x="0px" y="0px" viewBox="0 0 50 50" overflow="visible" xml:space="preserve">
<g>
	<g>
		<circle fill="#FFC101" cx="25" cy="25" r="24.5"/>
	</g>
	<g>
		<g>
			<g>
				<path stroke="#FFC101" stroke-width="0.2" stroke-miterlimit="10" d="M35.5,16.6c-0.4-0.4-1-0.5-1.5-0.1
					c-1.8,1.2-10.6,7.2-11.5,8.2c-1.4,1.4-1.4,3.6,0,5c0.7,0.7,1.6,1,2.5,1c0.9,0,1.8-0.3,2.5-1c0.9-0.9,7-9.8,8.2-11.5
					C36,17.6,35.9,17,35.5,16.6z M25.8,28c-0.5,0.5-1.2,0.5-1.7,0c-0.5-0.5-0.5-1.2,0-1.7c0.4-0.4,2.9-2.2,6-4.3
					C28,25.1,26.2,27.6,25.8,28z"/>
				<path stroke="#FFC101" stroke-width="0.2" stroke-miterlimit="10" d="M15.4,32.6l-1.5,0.7c-1.1-1.9-1.6-4-1.6-6.2
					c0-1.6,0.3-3.1,0.8-4.5l1.7,0.8c0.2,0.1,0.3,0.1,0.5,0.1c0.4,0,0.9-0.2,1.1-0.7c0.3-0.6,0-1.3-0.6-1.6l-1.6-0.8
					c2-3.3,5.6-5.7,9.7-6v1.8c0,0.6,0.5,1.2,1.2,1.2s1.2-0.5,1.2-1.2v-1.8c1.4,0.1,2.8,0.5,4,1.1c0.6,0.3,1.3,0,1.6-0.6
					c0.3-0.6,0-1.3-0.6-1.6c-2-0.9-4-1.3-6.2-1.3c-4,0-7.8,1.6-10.6,4.4c-2.8,2.8-4.4,6.6-4.4,10.6c0,3,0.9,5.9,2.6,8.4
					c0.2,0.3,0.6,0.5,1,0.5c0.2,0,0.3,0,0.5-0.1l2.4-1.2c0.6-0.3,0.8-1,0.5-1.6C16.7,32.6,16,32.3,15.4,32.6z"/>
				<path stroke="#FFC101" stroke-width="0.2" stroke-miterlimit="10" d="M38.7,20.9c-0.3-0.6-1-0.9-1.6-0.6c-0.6,0.3-0.9,1-0.6,1.6
					c0.7,1.6,1.1,3.4,1.1,5.2c0,2.2-0.6,4.3-1.6,6.2l-1.5-0.7c-0.6-0.3-1.3,0-1.6,0.6c-0.3,0.6,0,1.3,0.6,1.6l2.5,1.2
					c0.2,0.1,0.3,0.1,0.5,0.1c0.4,0,0.8-0.2,1-0.5c1.7-2.5,2.6-5.4,2.6-8.4C40.1,25,39.6,22.9,38.7,20.9z"/>
			</g>
		</g>
	</g>
</g>
</svg>
