<svg id="Layer_1" data-name="Layer 1" xmlns="http://www.w3.org/2000/svg" viewBox="0 0 49.7 49.7"><defs><style>.cls-1{fill:#ffc101;}.cls-2{fill:#3b3b3c;stroke:#ffc101;stroke-miterlimit:10;stroke-width:0.5px;}</style></defs><circle class="cls-1" cx="24.85" cy="24.85" r="24.5"/><path class="cls-2" d="M35.35,16.45a1.09,1.09,0,0,0-1.5-.1c-1.8,1.2-10.6,7.2-11.5,8.2a3.54,3.54,0,0,0,5,5c.9-.9,7-9.8,8.2-11.5A1.34,1.34,0,0,0,35.35,16.45Zm-9.7,11.4a1.2,1.2,0,1,1-1.7-1.7c.4-.4,2.9-2.2,6-4.3C27.85,25,26.05,27.45,25.65,27.85Z"/><path class="cls-2" d="M15.25,32.45l-1.5.7a12.2,12.2,0,0,1-1.6-6.2,13.3,13.3,0,0,1,.8-4.5l1.7.8a.9.9,0,0,0,.5.1,1.17,1.17,0,0,0,1.1-.7,1.2,1.2,0,0,0-.6-1.6l-1.6-.8a12.54,12.54,0,0,1,9.7-6v1.8a1.22,1.22,0,0,0,1.2,1.2,1.16,1.16,0,0,0,1.2-1.2v-1.8a10.82,10.82,0,0,1,4,1.1,1.21,1.21,0,1,0,1-2.2,14.68,14.68,0,0,0-6.2-1.3,15,15,0,0,0-12.4,23.4,1.23,1.23,0,0,0,1,.5.9.9,0,0,0,.5-.1l2.4-1.2a1.17,1.17,0,0,0,.5-1.6A1.53,1.53,0,0,0,15.25,32.45Z"/><path class="cls-2" d="M38.55,20.75a1.21,1.21,0,1,0-2.2,1,13.1,13.1,0,0,1,1.1,5.2,13.3,13.3,0,0,1-1.6,6.2l-1.5-.7a1.21,1.21,0,0,0-1,2.2l2.5,1.2a.9.9,0,0,0,.5.1,1.23,1.23,0,0,0,1-.5,14.88,14.88,0,0,0,2.6-8.4A15.23,15.23,0,0,0,38.55,20.75Z"/></svg>