<?xml version="1.0" encoding="utf-8"?>
<!-- Generator: Adobe Illustrator 25.2.0, SVG Export Plug-In . SVG Version: 6.00 Build 0)  -->
<svg version="1.1" id="Layer_1" xmlns="http://www.w3.org/2000/svg" xmlns:xlink="http://www.w3.org/1999/xlink" x="0px" y="0px"
	 viewBox="0 0 50 50" style="enable-background:new 0 0 50 50;" xml:space="preserve">

	
	
	
	
	
	
	
	
	
	
	
	
	
	
	
	
	
	
	
	

<circle fill="#FFC101" cx="25" cy="25.2" r="24.5"/>
<g>
	<path fill="#3B3B3C" d="M36.7,28.3L36.7,28.3l0-9.7c0-1.5-1.2-2.7-2.7-2.7h-7.5h-0.8l0-1.1c0.6-0.1,1.1-0.7,1.1-1.3v-1.7
		c0-0.7-0.6-1.4-1.4-1.4h-7.1c-0.7,0-1.4,0.6-1.4,1.4v1.7c0,0.7,0.6,1.4,1.4,1.4h0.3l0,1.2c-1.2,0.3-2,1.4-2,2.6v17.9
		c0,1.5,1.2,2.7,2.7,2.7H34c1.5,0,2.7-1.2,2.7-2.7v-8L36.7,28.3z M20.8,14.7h2.6l0,1.1h-1.6h-1L20.8,14.7z M25.3,13.3h-6.9v-1.5h6.9
		V13.3z M23,17.3L23,17.3h0.1h1.5h1.1l9.5,11.5v1.3l-9.8-11.5l0,0c-0.1-0.2-0.2-0.3-0.2-0.4h-3.9c-1.2,0-2.2,1-2.2,2.3v14.1
		c0,1.3,1,2.3,2.2,2.3H32c1.2,0,2.2-1,2.2-2.3v-3.3l1.1,1.3v3.9c0,0.7-0.6,1.3-1.3,1.3H19.2c-0.7,0-1.3-0.6-1.3-1.3V18.6
		c0-0.7,0.6-1.3,1.3-1.3H23z M35.3,26.5l-1.5-1.9v-4.2c0-1.3-1-2.3-2.3-2.3h-3.1l-0.7-0.9H34c0.7,0,1.3,0.6,1.3,1.3V26.5z
		 M32.3,22.9l-2.7-3.3h1.9c0.5,0,0.9,0.4,0.9,0.9V22.9z M32.8,29.5v5c0,0.5-0.4,0.9-0.8,0.9H21.3c-0.4,0-0.8-0.4-0.8-0.9V20.5
		c0-0.5,0.4-0.9,0.8-0.9h3.5L32.8,29.5z"/>
	<path fill="#3B3B3C" d="M26.6,33.8l0.1,0l0,0c0.1,0,1.8-0.1,2.6-1.5c0.7-1.1,0.7-2.5-0.1-4.4l-2.6-4.7l-2.7,5l0,0.1
		c0,0.1-0.9,2.3,0,3.9C24.5,33.1,25.3,33.6,26.6,33.8z M25.3,28.9l1.4-2.6l1.3,2.3c0.5,1.4,0.6,2.4,0.2,3c-0.4,0.6-1.2,0.8-1.4,0.8
		c-0.7-0.1-1.2-0.4-1.5-0.9C24.7,30.6,25.2,29.1,25.3,28.9z"/>
</g>
</svg>
