<svg id="Layer_1" data-name="Layer 1" xmlns="http://www.w3.org/2000/svg" viewBox="0 0 49.7 49.7"><defs><style>.cls-1{fill:#ffc101;}.cls-2{fill:#3b3b3c;stroke:#ffc101;stroke-miterlimit:10;stroke-width:0.25px;}</style></defs><circle class="cls-1" cx="24.85" cy="24.85" r="24.5"/><path class="cls-2" d="M34.9,28.3h0V18.6a2.69,2.69,0,0,0-2.7-2.7H23.9V14.8A1.38,1.38,0,0,0,25,13.5V11.8a1.43,1.43,0,0,0-1.4-1.4H16.5a1.43,1.43,0,0,0-1.4,1.4v1.7a1.43,1.43,0,0,0,1.4,1.4h.3v1.2a2.67,2.67,0,0,0-2,2.6V36.6a2.69,2.69,0,0,0,2.7,2.7H32.2a2.69,2.69,0,0,0,2.7-2.7V28.3ZM19,14.7h2.6v1.1H19Zm4.5-1.4H16.6V11.8h6.9Zm-2.3,4h2.7l9.5,11.5v1.3L23.6,18.6h0c-.1-.2-.2-.3-.2-.4H19.5a2.24,2.24,0,0,0-2.2,2.3V34.6a2.24,2.24,0,0,0,2.2,2.3H30.2a2.24,2.24,0,0,0,2.2-2.3V31.3l1.1,1.3v3.9a1.32,1.32,0,0,1-1.3,1.3H17.4a1.32,1.32,0,0,1-1.3-1.3V18.6a1.32,1.32,0,0,1,1.3-1.3Zm12.3,9.2L32,24.6V20.4a2.26,2.26,0,0,0-2.3-2.3H26.6l-.7-.9h6.3a1.32,1.32,0,0,1,1.3,1.3Zm-3-3.6-2.7-3.3h1.9a.9.9,0,0,1,.9.9v2.4Zm.5,6.6v5a.88.88,0,0,1-.8.9H19.5a.88.88,0,0,1-.8-.9v-14a.88.88,0,0,1,.8-.9H23Z"/><path class="cls-2" d="M24.8,33.8h.1a3.31,3.31,0,0,0,2.6-1.5c.7-1.1.7-2.5-.1-4.4l-2.6-4.7-2.7,5v.1c0,.1-.9,2.3,0,3.9A3.59,3.59,0,0,0,24.8,33.8Zm-1.3-4.9,1.4-2.6,1.3,2.3c.5,1.4.6,2.4.2,3a2,2,0,0,1-1.4.8,2,2,0,0,1-1.5-.9A3.23,3.23,0,0,1,23.5,28.9Z"/></svg>