<svg id="Layer_1" data-name="Layer 1" xmlns="http://www.w3.org/2000/svg" viewBox="0 0 49.7 49.7"><defs/><path class="cls-2" d="M34.9 28.3v-9.7a2.69 2.69 0 00-2.7-2.7h-8.3v-1.1a1.38 1.38 0 001.1-1.3v-1.7a1.43 1.43 0 00-1.4-1.4h-7.1a1.43 1.43 0 00-1.4 1.4v1.7a1.43 1.43 0 001.4 1.4h.3v1.2a2.67 2.67 0 00-2 2.6v17.9a2.69 2.69 0 002.7 2.7h14.7a2.69 2.69 0 002.7-2.7v-8.3zM19 14.7h2.6v1.1H19zm4.5-1.4h-6.9v-1.5h6.9zm-2.3 4h2.7l9.5 11.5v1.3l-9.8-11.5c-.1-.2-.2-.3-.2-.4h-3.9a2.24 2.24 0 00-2.2 2.3v14.1a2.24 2.24 0 002.2 2.3h10.7a2.24 2.24 0 002.2-2.3v-3.3l1.1 1.3v3.9a1.32 1.32 0 01-1.3 1.3H17.4a1.32 1.32 0 01-1.3-1.3V18.6a1.32 1.32 0 011.3-1.3zm12.3 9.2L32 24.6v-4.2a2.26 2.26 0 00-2.3-2.3h-3.1l-.7-.9h6.3a1.32 1.32 0 011.3 1.3zm-3-3.6l-2.7-3.3h1.9a.9.9 0 01.9.9v2.4zm.5 6.6v5a.88.88 0 01-.8.9H19.5a.88.88 0 01-.8-.9v-14a.88.88 0 01.8-.9H23z"/><path class="cls-2" d="M24.8 33.8h.1a3.31 3.31 0 002.6-1.5c.7-1.1.7-2.5-.1-4.4l-2.6-4.7-2.7 5v.1c0 .1-.9 2.3 0 3.9a3.59 3.59 0 002.7 1.6zm-1.3-4.9l1.4-2.6 1.3 2.3c.5 1.4.6 2.4.2 3a2 2 0 01-1.4.8 2 2 0 01-1.5-.9 3.23 3.23 0 010-2.6z"/></svg>