<svg id="Layer_1" data-name="Layer 1" xmlns="http://www.w3.org/2000/svg" viewBox="0 0 49.7 49.7"><defs/><path class="cls-2" d="M27.9 29.8h-.4v-2.3a5.6 5.6 0 004.1-5.1v-3.1a2.61 2.61 0 00.4-5.1 7 7 0 00-14-.1 2.6 2.6 0 00-2.1 2.6 2.65 2.65 0 002.6 2.6h.1v3.1a5.57 5.57 0 003.6 4.9v2.5H22a8.6 8.6 0 00-8.6 8.6v3.3h1.4v-3.3a7.39 7.39 0 011.3-4.1 11.1 11.1 0 011.8 7.3l1.4.1a12.83 12.83 0 00-2.2-8.4l2.4-1.5 1.8 4.2H29l2-3.9 1.6 1.1c-.7 1.5-2.4 5.7-2.1 8.9l1.4-.1c-.2-2.6 1.1-6 1.8-7.7a7.47 7.47 0 011.2 3.9v3.3h1.4v-3.3a8.39 8.39 0 00-8.4-8.4zm-3.4-1.9v-1.4c-2.5-.3-4.4-1.9-4.4-4v-3.1h1.6V18h-3.1a1.2 1.2 0 010-2.4h1v-1.4a5.72 5.72 0 015.6-5.1 5.64 5.64 0 015.6 5.1v1.4h.7a1.2 1.2 0 110 2.4h-2.8v1.4h1.4v3.1c0 2-1.9 3.7-4.3 4a6.53 6.53 0 010 1.4h.2v1.9h-2.4v-2c.4 0 .6.1.9.1zm3.8 6.7h-5.8L21 31.4c.3 0 .7-.1 1-.1h5.8a6.45 6.45 0 012 .3z"/><path class="cls-2" d="M27.5 13.8a2.6 2.6 0 10-2.6 2.6 2.65 2.65 0 002.6-2.6zm-3.5 0a.9.9 0 11.9.9.9.9 0 01-.9-.9zM22.3 38.2h6.1v1.4h-6.1z"/></svg>