<svg id="Layer_1" data-name="Layer 1" xmlns="http://www.w3.org/2000/svg" viewBox="0 0 50 50"><defs><style>.cls-1{fill:#ffc101;}.cls-2{fill:#3b3b3c;}</style></defs><circle class="cls-1" cx="25" cy="25.2" r="24.5"/><path class="cls-2" d="M27.9,30h-.4V27.7a5.61,5.61,0,0,0,4.1-5.1V19.5a2.61,2.61,0,0,0,.4-5.1,7,7,0,1,0-14-.1,2.6,2.6,0,0,0-2.1,2.6,2.66,2.66,0,0,0,2.6,2.6h.1v3.1a5.58,5.58,0,0,0,3.6,4.9V30H22a8.6,8.6,0,0,0-8.6,8.6v3.3h1.4V38.6a7.41,7.41,0,0,1,1.3-4.1,11.09,11.09,0,0,1,1.8,7.3l1.4.1a12.79,12.79,0,0,0-2.2-8.4L19.5,32l1.8,4.2H29l2-3.9,1.6,1.1c-.7,1.5-2.4,5.7-2.1,8.9l1.4-.1c-.2-2.6,1.1-6,1.8-7.7a7.48,7.48,0,0,1,1.2,3.9v3.3h1.4V38.4A8.39,8.39,0,0,0,27.92,30Zm-3.4-1.9V26.7c-2.5-.3-4.4-1.9-4.4-4V19.6h1.6V18.2H18.6a1.2,1.2,0,0,1,0-2.4h1V14.4a5.71,5.71,0,0,1,5.6-5.1,5.64,5.64,0,0,1,5.6,5.1h0v.5h0v.9h.7a1.2,1.2,0,1,1,0,2.4H28.7v1.4h1.4v3.1c0,2-1.9,3.7-4.3,4a6.55,6.55,0,0,1,0,1.4H26V30H23.6V28C24,28,24.2,28.1,24.5,28.1Zm3.8,6.7H22.5L21,31.6c.3,0,.7-.1,1-.1h5.8a6.47,6.47,0,0,1,2,.3Z"/><path class="cls-2" d="M27.5,14a2.6,2.6,0,1,0-2.6,2.6A2.66,2.66,0,0,0,27.5,14ZM24,14a.9.9,0,1,1,.9.9h0A.9.9,0,0,1,24,14Z"/><rect class="cls-2" x="22.3" y="38.4" width="6.1" height="1.4"/></svg>