<?xml version="1.0" encoding="utf-8"?>
<!-- Generator: Adobe Illustrator 25.2.0, SVG Export Plug-In . SVG Version: 6.00 Build 0)  -->
<svg version="1.1" id="Layer_1" xmlns="http://www.w3.org/2000/svg" xmlns:xlink="http://www.w3.org/1999/xlink" x="0px" y="0px"
	 viewBox="0 0 50 50" style="enable-background:new 0 0 50 50;" xml:space="preserve">

<circle fill="#FFC101"  cx="25" cy="25.2" r="24.5"/>
<g>
	<path fill="#3B3B3C"  d="M27.9,30h-0.4v-2.3c2.4-0.8,4.1-2.8,4.1-5.1v-3.1c1.3-0.2,2.3-1.2,2.3-2.6c0-1.2-0.8-2.2-1.9-2.5
		c-0.2-3.7-3.3-6.6-7-6.6c-3.7,0-6.7,2.9-7,6.5c-1.2,0.2-2.1,1.3-2.1,2.6c0,1.4,1.2,2.6,2.6,2.6h0.1v3.1c0,2.1,1.5,4,3.6,4.9V30
		h-0.2c-4.7,0-8.6,3.8-8.6,8.6v3.3h1.4v-3.3c0-1.5,0.5-2.9,1.3-4.1c0.8,1.2,2.2,3.9,1.8,7.3l1.4,0.1c0.4-4-1.3-7.1-2.2-8.4l2.4-1.5
		l1.8,4.2h7.7l2-3.9l1.6,1.1c-0.7,1.5-2.4,5.7-2.1,8.9l1.4-0.1c-0.2-2.6,1.1-6,1.8-7.7c0.7,1.1,1.2,2.5,1.2,3.9v3.3h1.4v-3.3
		C36.4,33.9,32.6,30,27.9,30z M24.5,28.1c0-0.2,0-0.4,0-0.7c0-0.2,0-0.4,0-0.5c0-0.1,0-0.2,0-0.2c-2.5-0.3-4.4-1.9-4.4-4v-3.1h0.5
		h1.1c0-0.5,0-1,0-1.4h-1h-2h-0.1c-0.7,0-1.2-0.5-1.2-1.2c0-0.7,0.5-1.2,1.2-1.2h1c0-0.2,0-0.5,0-0.7c0-0.2,0-0.4,0-0.6
		c0,0,0,0,0-0.1c0.3-2.8,2.7-5.1,5.6-5.1c2.9,0,5.3,2.2,5.6,5.1h0c0,0,0,0,0,0c0,0.2,0,0.3,0,0.5h0v0.9h0.7c0.7,0,1.2,0.5,1.2,1.2
		c0,0.7-0.5,1.2-1.2,1.2h-0.7h-0.8H29h-0.3c0,0.5,0,1,0,1.4h0.2h1.2v3.1c0,2-1.9,3.7-4.3,4c0,0.5,0.1,1,0,1.4c0.1,0,0.1,0,0.2,0V30
		h-2.4v-2C24,28,24.2,28.1,24.5,28.1z M28.3,34.8h-5.8L21,31.6c0.3,0,0.7-0.1,1-0.1h5.8c0.7,0,1.4,0.1,2,0.3L28.3,34.8z"/>
	<path fill="#3B3B3C" d="M27.5,14c0-1.4-1.2-2.6-2.6-2.6c-1.4,0-2.6,1.2-2.6,2.6s1.2,2.6,2.6,2.6C26.3,16.6,27.5,15.4,27.5,14z M24,14
		c0-0.5,0.4-0.9,0.9-0.9s0.9,0.4,0.9,0.9s-0.4,0.9-0.9,0.9S24,14.5,24,14z"/>
	<rect x="22.3" y="38.4" fill="#3B3B3C"  width="6.1" height="1.4"/>
</g>
</svg>
