<?xml version="1.0" encoding="utf-8"?>
<!-- Generator: Adobe Illustrator 25.2.0, SVG Export Plug-In . SVG Version: 6.00 Build 0)  -->
<svg version="1.1" id="Layer_1" xmlns="http://www.w3.org/2000/svg" xmlns:xlink="http://www.w3.org/1999/xlink" x="0px" y="0px"
	 viewBox="0 0 50 50" style="enable-background:new 0 0 50 50;" xml:space="preserve">

	
	
	
	
	
	
	
	
	
	
	
	
	
	
	
	
	
	
	
	

<circle fill="#FFC101" cx="25" cy="25.2" r="24.5"/>
<g>
	<path fill="#3B3B3C" d="M15,15.6l4.2,17.1l1.9-0.5l-4.4-18.1l-0.2,0l0-0.1L12.8,13c-0.2-0.2-0.6-0.4-0.9-0.4H9.6
		c-0.7,0-1.3,0.6-1.3,1.3c0,0.7,0.6,1.3,1.3,1.3h2.3c0.3,0,0.6-0.1,0.8-0.3L15,15.6z"/>
	<path fill="#3B3B3C" d="M21.3,33.2c-2.2,0-4,1.8-4,4c0,2.2,1.8,4,4,4s4-1.8,4-4C25.3,35,23.5,33.2,21.3,33.2z M21.3,39.5
		c-1.3,0-2.3-1-2.3-2.3c0-1.3,1-2.3,2.3-2.3c1.3,0,2.3,1,2.3,2.3C23.6,38.5,22.6,39.5,21.3,39.5z"/>
	
		<rect x="25.9" y="33.3" transform="matrix(0.9616 -0.2743 0.2743 0.9616 -8.1481 10.2024)" fill="#3B3B3C" width="12.9" height="1.9"/>
	<path fill="#3B3B3C" d="M32.7,15.8l0.5-0.4l1.4-1.8l-1.2-2.2l-1.8-1.7l-2.2,1.3l-3.8-0.8L23,11.1l0,0.1l-2-1.5l-3,2.4l-0.5,2.1
		l1.4,0.3l0.4-1.7l1.7-1.4l1.8,1.4l0.2,0.7c-0.5-0.3-1.1-0.1-1.4,0l-0.2,0.1l-1,1.3L19,15.5l0.9,3.7l-0.2,0.1l3.6,12.7
		c0.8,0.3,1.4,0.7,2,1.2l11.4-3.2L32.7,15.8z M24,14.6L24,14.6l0.5-0.2L24,14.6C24,14.6,24,14.6,24,14.6z M29.7,15.7l-4.5,1.4
		l-0.1-1.5l2-1.3l2,0.3l0.6,0.8L29.7,15.7z M31.4,11.5l0.8,0.7l0.7,1.2l-0.6,0.9l-0.5,0.4l-0.4-0.7l-0.8-2L31.4,11.5z M25.6,11.8
		l3.3,0.7l0.3,0.7l-2.5-0.4l-2,1.4l-0.5-1.9L25.6,11.8z M21.3,16.2l0.9-1.3c0,0,0,0,0,0l0.6,0.7c0,0.1,0.1,0.1,0.2,0.2
		c0,0,0.1,0.1,0.1,0.1c0,0.4,0,0.8,0,0.8v0.8l-2.2,0.7l-0.4-1.7L21.3,16.2z M24.9,31.5l-3.2-11.1l9.7-2.8l3.2,11.1L24.9,31.5z"/>
</g>
</svg>
