<svg id="Layer_1" data-name="Layer 1" xmlns="http://www.w3.org/2000/svg" viewBox="0 0 50 50"><defs><style>.cls-1{fill:#ffc101;}.cls-2,.cls-3{fill:#3b3b3c;stroke-miterlimit:10;stroke-width:0.25px;}.cls-2{stroke:#ffc101;}.cls-3{stroke:#3b3b3c;}</style></defs><circle class="cls-1" cx="25" cy="25" r="24.5"/><path class="cls-2" d="M37.3,25.9v7.8a2.31,2.31,0,0,1-1.9,2.5c-4.1,1-8.2,2.1-12.2,3.1-1,.3-2,.5-3,.8a3.17,3.17,0,0,1-4-2.07,2.09,2.09,0,0,1-.11-.43c-.7-2.9-1.4-5.8-2.2-8.7l-2.4-9.6a3.08,3.08,0,0,1,2.2-3.6,3.09,3.09,0,0,1,.9-.2c.5-.1.6-.3.6-.8a3.08,3.08,0,0,1,2.3-3c.1,0,.3-.1.4-.1H31.1a.89.89,0,0,1,.7.3c1.7,1.8,3.5,3.6,5.3,5.4a.89.89,0,0,1,.3.7C37.3,20.6,37.3,23.3,37.3,25.9ZM16.8,24.1v9.5a1.47,1.47,0,0,0,1.33,1.6H34.3a1.54,1.54,0,0,0,1.5-1.5V19.5c0-.3-.1-.4-.4-.4H32.7A3.12,3.12,0,0,1,29.6,16V13.5c0-.3-.1-.4-.4-.4H18.4a1.47,1.47,0,0,0-1.6,1.33,1.22,1.22,0,0,0,0,.27Zm-1.7,3.2a.37.37,0,0,0,.1-.3V18c0-1.1,0-1.1-1.1-.8A1.52,1.52,0,0,0,13,19s0,0,0,.06l1.2,4.8A33.36,33.36,0,0,1,15.1,27.3Zm20.3-9.6c-1.5-1.6-2.9-3-4.5-4.6v3a1.52,1.52,0,0,0,1.4,1.5A16.08,16.08,0,0,0,35.4,17.7ZM17.6,36.8c.1,1.4.9,2.2,2.4,1.8,1.1-.3,2.2-.6,3.3-.8s2.2-.6,3.3-.8v-.1C23.5,36.8,20.6,36.8,17.6,36.8Z"/><path class="cls-2" d="M32.9,27.3H20a.67.67,0,0,1-.7-.66V26.3a.67.67,0,0,1,.66-.7H32.9a.67.67,0,0,1,.7.66v.34a.67.67,0,0,1-.66.7Z"/><path class="cls-2" d="M30.3,33.5H20.1a.9.9,0,0,1-.9-.9h0a.9.9,0,0,1,.9-.9H30.3a.9.9,0,0,1,.9.9h0a.9.9,0,0,1-.9.9Z"/><path class="cls-2" d="M27.9,30.4H20.1a.9.9,0,0,1-.9-.9h0a.9.9,0,0,1,.9-.9h7.8a.9.9,0,0,1,.9.9h0a.9.9,0,0,1-.9.9Z"/><path class="cls-3" d="M25,18h-.62a2.53,2.53,0,0,0-.63-1.35h1.08a.44.44,0,0,0,.36-.49.42.42,0,0,0-.36-.36H20.08a.43.43,0,0,0-.13.85.29.29,0,0,0,.13,0h1.78A1.68,1.68,0,0,1,23.51,18H20.25a.43.43,0,1,0-.13.85h3.35A1.7,1.7,0,0,1,21.86,20H20.78a.47.47,0,0,0-.31.12.43.43,0,0,0,0,.6l3,3a.42.42,0,1,0,.6-.6h0l-2.28-2.28h.08a2.54,2.54,0,0,0,2.48-2H25a.43.43,0,0,0,.33-.51A.44.44,0,0,0,25,18Z"/></svg>