<svg id="Layer_1" data-name="Layer 1" xmlns="http://www.w3.org/2000/svg" viewBox="0 0 49.7 49.7"><defs/><path class="cls-2" d="M37.15 25.75v7.8a2.31 2.31 0 01-1.9 2.5c-4.1 1-8.2 2.1-12.2 3.1-1 .3-2 .5-3 .8a3.18 3.18 0 01-4.1-2.5c-.7-2.9-1.4-5.8-2.2-8.7l-2.4-9.6a3.08 3.08 0 012.2-3.6 2.92 2.92 0 01.9-.2c.5-.1.6-.3.6-.8a3.09 3.09 0 012.3-3c.1 0 .3-.1.4-.1H31a.91.91 0 01.7.3c1.7 1.8 3.5 3.6 5.3 5.4a.91.91 0 01.3.7c-.15 2.6-.15 5.3-.15 7.9zM16.65 24v9.5a1.47 1.47 0 001.6 1.6h15.9a1.54 1.54 0 001.5-1.5V19.35c0-.3-.1-.4-.4-.4h-2.7a3.12 3.12 0 01-3.1-3.1v-2.5c0-.3-.1-.4-.4-.4h-10.8a1.47 1.47 0 00-1.6 1.6zM15 27.15a.37.37 0 00.1-.3v-9c0-1.1 0-1.1-1.1-.8a1.52 1.52 0 00-1.1 1.9l1.2 4.8a33.74 33.74 0 01.9 3.4zm20.3-9.6c-1.5-1.6-2.9-3-4.5-4.6v3a1.52 1.52 0 001.4 1.5 15.82 15.82 0 003.05.1zm-17.8 19.1c.1 1.4.9 2.2 2.4 1.8 1.1-.3 2.2-.6 3.3-.8s2.2-.6 3.3-.8v-.1c-3.15-.1-6.05-.1-9.05-.1z"/><path class="cls-2" d="M32.75 27.15h-12.9a.68.68 0 01-.7-.7v-.3a.68.68 0 01.7-.7h12.9a.68.68 0 01.7.7v.3a.68.68 0 01-.7.7zM30.15 33.35H20a.9.9 0 01-.9-.9.9.9 0 01.9-.9h10.2a.9.9 0 01.9.9.9.9 0 01-.95.9zM27.75 30.25H20a.9.9 0 01-.9-.9.9.9 0 01.9-.9h7.8a.9.9 0 01.9.9.9.9 0 01-.95.9z"/><path d="M24.84 17.81h-.62a2.46 2.46 0 00-.63-1.35h1.08a.43.43 0 000-.85h-4.74a.43.43 0 100 .85h1.78a1.68 1.68 0 011.65 1.35H20.1a.43.43 0 100 .85h3.22a1.7 1.7 0 01-1.61 1.18h0-1.08 0a.47.47 0 00-.31.12.43.43 0 000 .6l3 3a.42.42 0 00.6-.6l-2.28-2.28h.08a2.54 2.54 0 002.48-2h.65a.43.43 0 000-.85z" stroke="#3b3b3c" fill="#3b3b3c" stroke-miterlimit="10" stroke-width=".25"/></svg>