<?xml version="1.0" encoding="utf-8"?>
<!-- Generator: Adobe Illustrator 25.2.0, SVG Export Plug-In . SVG Version: 6.00 Build 0)  -->
<svg version="1.1" baseProfile="tiny" id="Layer_1" xmlns="http://www.w3.org/2000/svg" xmlns:xlink="http://www.w3.org/1999/xlink"
	 x="0px" y="0px" viewBox="0 0 50 50" overflow="visible" xml:space="preserve">
<g>
	<g>
		<path d="M3.7,29.4C3,21.9,6.2,15.1,11.6,10.8c2.1-1.7,5.2-0.2,5.2,2.4l0,0c0,1-0.5,1.9-1.2,2.5c-3.8,3.1-6,7.9-5.5,13.3
			c0.7,7,6.3,12.6,13.3,13.4c9.1,1,16.8-6.1,16.8-15c0-4.7-2.2-8.9-5.6-11.7c-0.8-0.6-1.2-1.5-1.2-2.5l0,0c0-2.6,3.1-4.1,5.1-2.5
			c4.9,3.9,8,9.9,8,16.7c0,12.3-10.4,22.2-22.9,21.3C13.1,48,4.7,39.7,3.7,29.4z M25,1.3c-1.7,0-3.1,1.4-3.1,3.1v14.5
			c0,1.7,1.4,3.1,3.1,3.1s3.1-1.4,3.1-3.1V4.4C28.1,2.7,26.7,1.3,25,1.3z"/>
	</g>
</g>
</svg>
