<?xml version="1.0" encoding="utf-8"?>
<!-- Generator: Adobe Illustrator 25.2.0, SVG Export Plug-In . SVG Version: 6.00 Build 0)  -->
<svg version="1.1" baseProfile="tiny" id="Layer_1" xmlns="http://www.w3.org/2000/svg" xmlns:xlink="http://www.w3.org/1999/xlink"
	 x="0px" y="0px" viewBox="0 0 50 50" overflow="visible" xml:space="preserve">
<g>
	<g>
		<circle fill="#FFC101" cx="25" cy="25" r="24.5"/>
	</g>
</g>
<g>
	<path stroke="#020202" stroke-width="0.6" stroke-miterlimit="10" d="M24.9,15.7c0.3,0.5,0.7,0.8,0.9,1.2c0.8,1.3,1.1,2.8,1.1,4.4
		c0,1,0,2.1-0.1,3.1c0,0.4-0.2,0.6-0.6,0.7c-3.3,1.2-5.7,3.5-7.4,6.6c-0.1,0.1-0.1,0.3-0.2,0.4c-0.2,0.3-0.2,0.5,0.3,0.6
		c0.2,0,0.5,0.1,0.7,0.3c0.5,0.5,1,0.4,1.6,0.1c1.9-0.9,4.5-0.5,5.8,0.9c0.2,0.2,0.3,0.4,0.5,0.6c0.2,0.2,0.2,0.5-0.1,0.7
		c-0.3,0.2-0.5,0.1-0.7-0.2c-0.9-1.3-2.2-1.7-3.7-1.6c-1.3,0.1-2.4,0.6-3,1.7c-0.1,0.3-0.3,0.4-0.6,0.3c-0.3-0.1-0.3-0.4-0.2-0.7
		c0.1-0.3,0.5-0.5,0.3-0.8c-0.2-0.3-0.6-0.4-1-0.5c-1-0.3-2,0.1-2.6,1c-0.2,0.2-0.4,0.4-0.6,0.2c-0.3-0.2-0.3-0.4-0.1-0.7
		c0.4-0.8,1.1-1.2,1.9-1.4c0.2,0,0.4,0,0.5-0.3c1-2.8,3-4.8,5.3-6.5c0.8-0.6,1.7-1,2.6-1.4c0.2-0.1,0.3-0.1,0.4-0.3
		c0-0.7,0.2-1.4,0.1-2.1c-0.2,0-0.2,0.1-0.3,0.2c-0.6,1-1.5,1.7-2.5,2.1c-4.2,1.7-8.3,3.3-12.5,5c-0.3,0.1-0.5,0.2-0.7-0.2
		c-0.2-0.5,0.1-0.5,0.4-0.6c4.2-1.7,8.3-3.3,12.5-5c1.6-0.7,2.7-2.1,2.7-3.8c0-1.8-0.8-3.1-2.5-3.8c-1.1-0.5-2.1-0.5-3.2-0.1
		c-3.6,1.4-7.2,2.9-10.8,4.3c-0.3,0.1-0.5,0.2-0.7-0.2c-0.1-0.3-0.1-0.5,0.3-0.6c3.1-1.2,6.2-2.5,9.3-3.7c1.2-0.5,2.3-1,3.6-1.1
		c4.5-0.4,8,1.8,9.6,6c0.4,1.1,0.7,2.2,0.8,3.3c0,0.3,0.1,0.4,0.4,0.6c3.6,1.5,5.9,4.2,7.3,7.7c0.1,0.3,0.3,0.6,0.6,0.8
		c0.6,0.2,1,0.7,1.3,1.2c0.1,0.3,0.2,0.6-0.1,0.7c-0.3,0.2-0.5,0-0.7-0.3c-1-1.5-3.4-1.6-4.6-0.2c-0.2,0.3-0.5,0.5-0.8,0.2
		c-0.3-0.3-0.1-0.6,0.1-0.8c0.7-0.9,1.7-1.3,2.8-1.3c0.5,0,0.5-0.2,0.3-0.5c-1.5-3.2-3.6-5.7-7-6.9c-0.4-0.2-0.5-0.4-0.5-0.8
		c-0.1-2.4-0.9-4.6-2.5-6.5C27.5,16.7,26.3,16,24.9,15.7z"/>
	<path stroke="#020202" stroke-width="0.6" stroke-miterlimit="10" d="M23.4,19.8c0,1.5-1.2,2.7-2.7,2.7c-1.5,0-2.7-1.2-2.7-2.6
		c0-1.5,1.2-2.7,2.7-2.7C22.2,17.2,23.4,18.4,23.4,19.8z M20.8,21.6c1,0,1.7-0.8,1.7-1.7c0-1-0.8-1.8-1.8-1.8c-1,0-1.8,0.8-1.7,1.8
		C19,20.8,19.8,21.6,20.8,21.6z"/>
	<path stroke="#020202" stroke-width="0.6" stroke-miterlimit="10" d="M15.3,23.3c0,1.5-1.2,2.6-2.7,2.6c-1.5,0-2.7-1.2-2.6-2.7
		c0-1.5,1.2-2.6,2.7-2.6C14.1,20.7,15.3,21.9,15.3,23.3z M14.4,23.3c0-1-0.8-1.8-1.8-1.8c-1,0-1.8,0.8-1.7,1.8
		c0,0.9,0.8,1.7,1.8,1.7C13.6,25.1,14.4,24.3,14.4,23.3z"/>
	<path stroke="#020202" stroke-width="0.6" stroke-miterlimit="10" d="M22.2,31.6c-0.4,0-0.5-0.3-0.3-0.8c0.6-1.4,1.5-2.6,2.7-3.5
		c0.6-0.4,1.2-0.8,1.9-1.1c0.3-0.1,0.6-0.2,0.7,0.2c0.1,0.3-0.1,0.5-0.4,0.6c-1.9,0.9-3.4,2.3-4.2,4.2
		C22.6,31.5,22.4,31.6,22.2,31.6z"/>
</g>
</svg>
