<svg id="Layer_1" data-name="Layer 1" xmlns="http://www.w3.org/2000/svg" viewBox="0 0 50 50"><defs><style>.cls-1{fill:#ffc101;}.cls-2{fill:#3b3b3c;stroke:#3b3b3c;stroke-miterlimit:10;stroke-width:0.25px;}</style></defs><circle class="cls-1" cx="25" cy="25" r="24.5"/><path class="cls-2" d="M37.4,23.5v.8a1.29,1.29,0,0,0,.4,1,1.61,1.61,0,0,1,0,2.28,1.71,1.71,0,0,1-.44.32,5.14,5.14,0,0,1-2.1.6c-.4,0-.5.2-.5.6a13.88,13.88,0,0,1-2.5,8.1c-3.9,5.6-10.8,5.5-14.6-.1a14,14,0,0,1-2.3-7.9c0-.5-.2-.7-.6-.7a4.7,4.7,0,0,1-2-.6,1.61,1.61,0,0,1-.4-2.7.83.83,0,0,0,.3-.6V22.5c0-.8.3-1.2,1.1-1.1.6,0,.7-.2.8-.7a9.75,9.75,0,0,1,4.5-6c.2-.1.5-.4.7.1s.2.6-.2.8a8.74,8.74,0,0,0-4.3,7.8c0,.8,0,.8.8.7a101,101,0,0,1,11-.3,44.67,44.67,0,0,1,7.4.4c.5.1.4-.2.4-.5a9,9,0,0,0-4.2-8.1c-.3-.2-.5-.3-.2-.7s.4-.4.7-.2a9.68,9.68,0,0,1,4.5,6.1c.1.5.3.7.8.6.8,0,1.1.3,1.1,1.1A2,2,0,0,0,37.4,23.5ZM25.3,24.8a43,43,0,0,0-5.2.2c-2.5.4-3.8,1.5-3.8,3.7a13.41,13.41,0,0,0,1,5.6,2.82,2.82,0,0,0,.8,1.1c.8.7,1.3.6,1.9-.3.1-.2.2-.3.3-.5a3.28,3.28,0,0,1,2.9-1.5,22.85,22.85,0,0,0,3.7,0,2.73,2.73,0,0,1,2.6,1.3,8.55,8.55,0,0,1,.7,1,.87.87,0,0,0,1.1.4,2.55,2.55,0,0,0,1.5-1.7,14.32,14.32,0,0,0,.9-5.1c0-2.3-.9-3.5-3.2-4A47.48,47.48,0,0,0,25.3,24.8ZM18.7,36.9a9.81,9.81,0,0,0,2.2,2.3c3.4,2.3,7.5,1.5,10.1-1.8.2-.2.3-.4-.1-.4a1.62,1.62,0,0,1-1.6-1.1,5.57,5.57,0,0,0-.7-.9,1.83,1.83,0,0,0-1.5-.7c-1.2,0-2.4.1-3.5,0a2.67,2.67,0,0,0-2.8,1.5A1.83,1.83,0,0,1,18.7,36.9ZM33,25.2a4.63,4.63,0,0,1,.7.7,4.4,4.4,0,0,1,.5.9c.5,1.1.5,1.1,1.7.8.1,0,.3-.1.4-.1a1,1,0,0,0,.9-.8c0-.5-.4-.7-.8-.9A7.94,7.94,0,0,0,33,25.2ZM17.1,25c-.6.1-1.1.1-1.5.2a6.63,6.63,0,0,0-2.4.6.63.63,0,0,0-.5.6c0,.4.2.5.5.7a6,6,0,0,0,1.8.5c.2,0,.3,0,.4-.2A4.9,4.9,0,0,1,17.1,25Zm-2.9-1.5h0v-.7c0-.2,0-.4-.3-.4s-.3.1-.3.3v1.5c0,.1-.1.4.2.3s.5,0,.5-.3A1.66,1.66,0,0,1,14.2,23.5Zm22.2,1.1V22.8c0-.2,0-.4-.3-.4s-.3.2-.3.4v1.1C35.7,24.4,35.9,24.6,36.4,24.6Z"/><path class="cls-2" d="M29.1,16.9a4.1,4.1,0,0,1-8.2-.1A4.2,4.2,0,0,1,25,12.7a4.14,4.14,0,0,1,4.1,4.18Zm-.9,0a3.2,3.2,0,0,0-3.1-3.2,3.15,3.15,0,0,0-3.2,3.08v0A3.2,3.2,0,0,0,25,20a3.07,3.07,0,0,0,3.2-2.94Z"/><path class="cls-2" d="M30.8,11.4c0,.1-.1.2-.2.3l-1.2,1.2c-.2.2-.5.3-.7,0a.49.49,0,0,1,0-.68l0,0,1.1-1.1a.46.46,0,0,1,.6-.1.37.37,0,0,1,.4.34Z"/><path class="cls-2" d="M21.3,12.6a.52.52,0,0,1-.2.4.45.45,0,0,1-.5,0l-1.3-1.3c-.2-.2-.1-.4,0-.6a.46.46,0,0,1,.6-.1,9.27,9.27,0,0,1,1.4,1.4Z"/><path class="cls-2" d="M25.5,9.8v.8a.47.47,0,0,1-.44.5H25c-.3,0-.4-.2-.4-.5V8.9c0-.3.2-.4.4-.5s.5.1.5.4Z"/><path class="cls-2" d="M20.9,28.9c0-.4,0-.8.5-.8s.5.4.5.8.1.9-.5.9S20.9,29.3,20.9,28.9Z"/><path class="cls-2" d="M29.1,29c0,.4,0,.8-.5.8s-.5-.4-.5-.8v-.4a.5.5,0,0,1,1,0Z"/><path class="cls-2" d="M25,36.9H23.9c-.3,0-.6-.1-.6-.5a.47.47,0,0,1,.44-.5H26.1a.5.5,0,0,1,0,1Z"/><path class="cls-2" d="M22.8,17a2.42,2.42,0,0,1,2.3-2.4c.3,0,.6.1.6.4a.47.47,0,0,1-.44.5H25.2A1.54,1.54,0,0,0,23.7,17a.47.47,0,0,1-.44.5H23.2C22.9,17.5,22.8,17.3,22.8,17Z"/></svg>