<svg id="Layer_1" data-name="Layer 1" xmlns="http://www.w3.org/2000/svg" viewBox="0 0 49.7 49.7"><defs/><path class="cls-2" d="M37.25 23.35v.8a1.28 1.28 0 00.4 1 1.61 1.61 0 01-.4 2.6 5.09 5.09 0 01-2.1.6c-.4 0-.5.2-.5.6a13.85 13.85 0 01-2.5 8.1c-3.9 5.6-10.8 5.5-14.6-.1a14 14 0 01-2.3-7.9c0-.5-.2-.7-.6-.7a4.66 4.66 0 01-2-.6 1.61 1.61 0 01-.4-2.7.86.86 0 00.3-.6v-2.1c0-.8.3-1.2 1.1-1.1.6 0 .7-.2.8-.7a9.75 9.75 0 014.5-6c.2-.1.5-.4.7.1s.2.6-.2.8a8.71 8.71 0 00-4.3 7.8c0 .8 0 .8.8.7a101.71 101.71 0 0111-.3 45.3 45.3 0 017.4.4c.5.1.4-.2.4-.5a9 9 0 00-4.2-8.1c-.3-.2-.5-.3-.2-.7s.4-.4.7-.2a9.69 9.69 0 014.5 6.1c.1.5.3.7.8.6.8 0 1.1.3 1.1 1.1a2 2 0 00-.2 1zm-12.1 1.3a42.67 42.67 0 00-5.2.2c-2.5.4-3.8 1.5-3.8 3.7a13.55 13.55 0 001 5.6 2.84 2.84 0 00.8 1.1c.8.7 1.3.6 1.9-.3.1-.2.2-.3.3-.5a3.27 3.27 0 012.9-1.5 22.85 22.85 0 003.7 0 2.73 2.73 0 012.6 1.3 8.65 8.65 0 01.7 1 .87.87 0 001.1.4 2.56 2.56 0 001.5-1.7 14.4 14.4 0 00.9-5.1c0-2.3-.9-3.5-3.2-4a47.87 47.87 0 00-5.2-.2zm-6.6 12.1a9.72 9.72 0 002.2 2.3c3.4 2.3 7.5 1.5 10.1-1.8.2-.2.3-.4-.1-.4a1.62 1.62 0 01-1.6-1.1 5.5 5.5 0 00-.7-.9 1.8 1.8 0 00-1.5-.7c-1.2 0-2.4.1-3.5 0a2.68 2.68 0 00-2.8 1.5 1.83 1.83 0 01-2.1 1.1zm14.3-11.7a4.62 4.62 0 01.7.7 4.05 4.05 0 01.5.9c.5 1.1.5 1.1 1.7.8.1 0 .3-.1.4-.1a1.06 1.06 0 00.9-.8c0-.5-.4-.7-.8-.9a7.89 7.89 0 00-3.4-.6zM17 24.85c-.6.1-1.1.1-1.5.2a6.53 6.53 0 00-2.4.6.63.63 0 00-.5.6c0 .4.2.5.5.7a6.07 6.07 0 001.8.5c.2 0 .3 0 .4-.2a4.87 4.87 0 011.7-2.4zm-2.9-1.5v-.7c0-.2 0-.4-.3-.4s-.3.1-.3.3v1.5c0 .1-.1.4.2.3s.5 0 .5-.3a1.7 1.7 0 01-.15-.7zm22.2 1.1v-1.8c0-.2 0-.4-.3-.4s-.3.2-.3.4v1.1c-.15.5.05.7.55.7z"/><path class="cls-2" d="M29 16.75a4.1 4.1 0 11-8.2-.1 4.19 4.19 0 014.1-4.1 4.14 4.14 0 014.1 4.2zm-.9 0a3.2 3.2 0 00-3.1-3.2 3.14 3.14 0 00-3.2 3.1 3.2 3.2 0 003.1 3.2 3.07 3.07 0 003.15-3.1zM30.65 11.25c0 .1-.1.2-.2.3l-1.2 1.2c-.2.2-.5.3-.7 0a.48.48 0 010-.7l1.1-1.1a.47.47 0 01.6-.1.37.37 0 01.4.4zM21.15 12.45a.52.52 0 01-.2.4.45.45 0 01-.5 0l-1.3-1.3c-.2-.2-.1-.4 0-.6a.47.47 0 01.6-.1 9.27 9.27 0 011.4 1.4zM25.35 9.65v.8a.47.47 0 01-.5.5c-.3 0-.4-.2-.4-.5v-1.7c0-.3.2-.4.4-.5s.5.1.5.4v1zM20.75 28.75c0-.4 0-.8.5-.8s.5.4.5.8.1.9-.5.9-.5-.5-.5-.9zM29 28.85c0 .4 0 .8-.5.8s-.5-.4-.5-.8v-.4a.5.5 0 011 0zM24.85 36.75h-1.1c-.3 0-.6-.1-.6-.5a.47.47 0 01.5-.5H26a.5.5 0 110 1z"/><path class="cls-2" d="M22.65 16.85a2.42 2.42 0 012.3-2.4c.3 0 .6.1.6.4a.47.47 0 01-.5.5 1.54 1.54 0 00-1.5 1.5.47.47 0 01-.5.5c-.3 0-.4-.2-.4-.5z"/></svg>