<?xml version="1.0" encoding="utf-8"?>
<!-- Generator: Adobe Illustrator 25.2.0, SVG Export Plug-In . SVG Version: 6.00 Build 0)  -->
<svg version="1.1" baseProfile="tiny" id="Layer_1" xmlns="http://www.w3.org/2000/svg" xmlns:xlink="http://www.w3.org/1999/xlink"
	 x="0px" y="0px" viewBox="0 0 50 50" overflow="visible" xml:space="preserve">
<g>
	<g>
		<circle fill="#FFC101" cx="25" cy="25" r="24.5"/>
	</g>
</g>
<g>
	<path stroke="#020202" stroke-width="0.6" stroke-miterlimit="10" d="M37.4,23.5c0,0.3,0,0.6,0,0.8c0,0.4,0.1,0.7,0.4,1
		c0.8,0.8,0.6,2-0.4,2.6c-0.6,0.4-1.4,0.5-2.1,0.6c-0.4,0-0.5,0.2-0.5,0.6c0,2.9-0.8,5.7-2.5,8.1c-3.9,5.6-10.8,5.5-14.6-0.1
		c-1.6-2.4-2.3-5.1-2.3-7.9c0-0.5-0.2-0.7-0.6-0.7c-0.7-0.1-1.4-0.2-2-0.6c-1.1-0.6-1.3-1.8-0.4-2.7c0.2-0.2,0.3-0.4,0.3-0.6
		c0-0.7,0-1.4,0-2.1c0-0.8,0.3-1.2,1.1-1.1c0.6,0,0.7-0.2,0.8-0.7c0.7-2.6,2.2-4.6,4.5-6c0.2-0.1,0.5-0.4,0.7,0.1
		c0.2,0.4,0.2,0.6-0.2,0.8c-2.9,1.8-4.3,4.5-4.3,7.8c0,0.8,0,0.8,0.8,0.7c3.7-0.4,7.4-0.3,11-0.3c2.5,0,5,0,7.4,0.4
		c0.5,0.1,0.4-0.2,0.4-0.5c0-3.5-1.3-6.2-4.2-8.1c-0.3-0.2-0.5-0.3-0.2-0.7c0.2-0.4,0.4-0.4,0.7-0.2c2.3,1.4,3.8,3.4,4.5,6.1
		c0.1,0.5,0.3,0.7,0.8,0.6c0.8,0,1.1,0.3,1.1,1.1C37.4,22.9,37.4,23.2,37.4,23.5z M25.3,24.8c-1.9,0-3.6,0-5.2,0.2
		c-2.5,0.4-3.8,1.5-3.8,3.7c-0.1,1.9,0.3,3.8,1,5.6c0.2,0.4,0.4,0.8,0.8,1.1c0.8,0.7,1.3,0.6,1.9-0.3c0.1-0.2,0.2-0.3,0.3-0.5
		c0.7-1,1.6-1.5,2.9-1.5c1.2,0.1,2.5,0.1,3.7,0c1.1-0.1,2,0.4,2.6,1.3c0.2,0.3,0.5,0.6,0.7,1c0.3,0.5,0.7,0.5,1.1,0.4
		c0.8-0.3,1.2-0.9,1.5-1.7c0.6-1.6,0.9-3.3,0.9-5.1c0-2.3-0.9-3.5-3.2-4C28.7,24.8,26.8,24.8,25.3,24.8z M18.7,36.9
		c0.7,1,1.4,1.7,2.2,2.3c3.4,2.3,7.5,1.5,10.1-1.8c0.2-0.2,0.3-0.4-0.1-0.4c-0.8,0-1.3-0.4-1.6-1.1c-0.2-0.3-0.4-0.6-0.7-0.9
		c-0.4-0.5-0.9-0.7-1.5-0.7c-1.2,0-2.4,0.1-3.5,0c-1.3-0.1-2.2,0.4-2.8,1.5C20.3,36.6,19.8,37.1,18.7,36.9z M33,25.2
		c0.2,0.2,0.5,0.4,0.7,0.7c0.2,0.3,0.4,0.6,0.5,0.9c0.5,1.1,0.5,1.1,1.7,0.8c0.1,0,0.3-0.1,0.4-0.1c0.4-0.1,0.8-0.3,0.9-0.8
		c0-0.5-0.4-0.7-0.8-0.9C35.3,25.3,34.2,25.2,33,25.2z M17.1,25c-0.6,0.1-1.1,0.1-1.5,0.2c-0.8,0.1-1.7,0.2-2.4,0.6
		c-0.3,0.1-0.5,0.3-0.5,0.6c0,0.4,0.2,0.5,0.5,0.7c0.6,0.3,1.2,0.4,1.8,0.5c0.2,0,0.3,0,0.4-0.2C15.7,26.5,16.2,25.7,17.1,25z
		 M14.2,23.5C14.2,23.5,14.2,23.5,14.2,23.5c0-0.2,0-0.5,0-0.7c0-0.2,0-0.4-0.3-0.4c-0.3,0-0.3,0.1-0.3,0.3c0,0.5,0,1,0,1.5
		c0,0.1-0.1,0.4,0.2,0.3c0.2,0,0.5,0,0.5-0.3C14.2,24,14.2,23.7,14.2,23.5z M36.4,24.6c0-0.6,0-1.2,0-1.8c0-0.2,0-0.4-0.3-0.4
		c-0.3,0-0.3,0.2-0.3,0.4c0,0.4,0,0.7,0,1.1C35.7,24.4,35.9,24.6,36.4,24.6z"/>
	<path stroke="#020202" stroke-width="0.6" stroke-miterlimit="10" d="M29.1,16.9c0,2.3-1.8,4.1-4.1,4.1c-2.3,0-4.2-1.9-4.1-4.2
		c0-2.2,1.9-4.1,4.1-4.1C27.3,12.7,29.1,14.6,29.1,16.9z M28.2,16.9c0-1.7-1.4-3.2-3.1-3.2c-1.8,0-3.2,1.4-3.2,3.1
		c0,1.7,1.4,3.2,3.1,3.2C26.7,20.1,28.2,18.7,28.2,16.9z"/>
	<path stroke="#020202" stroke-width="0.6" stroke-miterlimit="10" d="M30.8,11.4c0,0.1-0.1,0.2-0.2,0.3c-0.4,0.4-0.8,0.8-1.2,1.2
		c-0.2,0.2-0.5,0.3-0.7,0c-0.2-0.2-0.2-0.5,0-0.7c0.4-0.4,0.8-0.8,1.1-1.1c0.2-0.2,0.4-0.2,0.6-0.1C30.7,11,30.8,11.2,30.8,11.4z"/>
	<path stroke="#020202" stroke-width="0.6" stroke-miterlimit="10" d="M21.3,12.6c0,0.2-0.1,0.3-0.2,0.4c-0.2,0.1-0.4,0.1-0.5,0
		c-0.4-0.4-0.9-0.9-1.3-1.3c-0.2-0.2-0.1-0.4,0-0.6c0.2-0.2,0.4-0.2,0.6-0.1c0.5,0.4,1,0.9,1.4,1.4C21.3,12.4,21.3,12.5,21.3,12.6z"
		/>
	<path stroke="#020202" stroke-width="0.6" stroke-miterlimit="10" d="M25.5,9.8c0,0.3,0,0.6,0,0.8c0,0.3-0.2,0.5-0.5,0.5
		c-0.3,0-0.4-0.2-0.4-0.5c0-0.6,0-1.1,0-1.7c0-0.3,0.2-0.4,0.4-0.5c0.3,0,0.5,0.1,0.5,0.4C25.5,9.3,25.5,9.5,25.5,9.8
		C25.5,9.8,25.5,9.8,25.5,9.8z"/>
	<path stroke="#020202" stroke-width="0.6" stroke-miterlimit="10" d="M20.9,28.9c0-0.4,0-0.8,0.5-0.8c0.5,0,0.5,0.4,0.5,0.8
		c0,0.4,0.1,0.9-0.5,0.9C20.8,29.8,20.9,29.3,20.9,28.9z"/>
	<path stroke="#020202" stroke-width="0.6" stroke-miterlimit="10" d="M29.1,29c0,0.4,0,0.8-0.5,0.8c-0.5,0-0.5-0.4-0.5-0.8
		c0-0.1,0-0.3,0-0.4c0-0.3,0.2-0.5,0.5-0.5c0.3,0,0.5,0.2,0.5,0.5C29.1,28.8,29.1,28.9,29.1,29z"/>
	<path stroke="#020202" stroke-width="0.6" stroke-miterlimit="10" d="M25,36.9c-0.4,0-0.7,0-1.1,0c-0.3,0-0.6-0.1-0.6-0.5
		c0-0.3,0.2-0.5,0.5-0.5c0.8,0,1.5,0,2.3,0c0.3,0,0.5,0.2,0.5,0.5c0,0.3-0.2,0.5-0.5,0.5C25.8,36.9,25.4,36.9,25,36.9
		C25,36.9,25,36.9,25,36.9z"/>
	<path stroke="#020202" stroke-width="0.6" stroke-miterlimit="10" d="M22.8,17c0-1.3,1.1-2.4,2.3-2.4c0.3,0,0.6,0.1,0.6,0.4
		c0,0.3-0.2,0.5-0.5,0.5c-0.9,0.1-1.4,0.6-1.5,1.5c0,0.3-0.2,0.5-0.5,0.5C22.9,17.5,22.8,17.3,22.8,17z"/>
</g>
</svg>
