<?xml version="1.0" encoding="utf-8"?>
<!-- Generator: Adobe Illustrator 25.2.0, SVG Export Plug-In . SVG Version: 6.00 Build 0)  -->
<svg version="1.1" baseProfile="tiny" id="Layer_1" xmlns="http://www.w3.org/2000/svg" xmlns:xlink="http://www.w3.org/1999/xlink"
	 x="0px" y="0px" viewBox="0 0 50 50" overflow="visible" xml:space="preserve">

<g>
	<path d="M39.3,21c2.6,1.8,2.2,2.1,0.1,3.5c0,0.1,0,0.2,0.1,0.3c2.4,1.3,1.9,2.1-0.2,3.3c-5.4,3-10.7,6.1-16,9.3
		c-1.4,0.8-2.6,0.9-4,0c-2.9-1.8-5.9-3.4-8.9-5.2c-2-1.1-2-1.6,0-3c0.1-0.1,0.2-0.2,0.3-0.3c-1.9-1.5-2.6-1.7,0-3.5
		c-2.3-2.1-2.3-2.1,0.5-3.7c5.2-3,10.4-6,15.5-9c1.5-0.9,2.7-0.9,4.1,0c2.8,1.7,5.7,3.3,8.5,4.9C41.7,19,41.7,19.4,39.3,21z
		 M18.2,19.2c2.7,1.5,5.2,3.3,8,4.6c2.8,1.2,3.9,3,3.4,6c-0.1,0.7-0.4,1.8,0.2,2.1c0.6,0.3,1.4-0.6,2.1-1c0.6-0.3,0.5-0.7,0.5-1.2
		c0-1.5,0-3,0-4.5c0-0.8-0.2-1.2-0.9-1.6c-2.8-1.6-5.7-3.1-8.4-4.9C21.4,17.4,19.9,17.4,18.2,19.2z M28.3,30.9
		c-1.9,1.1-3.6,2-5.3,3.1c-1.2,0.7-2.2,0.7-3.4,0c-2-1.2-4.1-2.3-6.1-3.6c-1.2-0.8-2.1-0.6-3.1,0.4c3.4,2,6.8,3.9,10.2,5.9
		c0.6,0.4,1.2,0.1,1.8-0.2c1.5-0.9,3-1.9,4.6-2.7C28.2,33.2,28.8,32.4,28.3,30.9z M10.4,27.2c3.4,2,6.8,3.9,10.2,5.9
		c0.6,0.3,1.1,0.1,1.6-0.2c1.7-1,3.3-1.9,5-2.9c1.4-0.8,1.4-0.8,1-2.7c-1.8,1-3.6,2-5.4,3.1c-1.1,0.6-2.1,0.6-3.1,0
		c-2-1.2-4.1-2.3-6.1-3.6C12.4,26.1,11.4,26.1,10.4,27.2z M25.6,24.9c-0.2-0.1-0.2-0.2-0.3-0.3c-1.7-1-3.5-2-5.2-3.1
		c-0.8-0.5-1.5-0.5-2.3,0c-3.3,2-3.3,1.8-0.1,3.9C20.5,27.4,23.1,27.1,25.6,24.9z M24.2,17.9c2.2,1.3,4.3,2.5,6.3,3.7
		c0.4,0.2,0.8,0.3,1.2,0c0.8-0.5,1.6-0.9,2.4-1.4c0.7-0.4,0.7-1.3,0.3-1.6c-1.7-0.9-3.1-2.4-5.4-2.6C27.1,16,25.9,17,24.2,17.9z
		 M10.4,23.7c3.4,2,6.8,3.9,10.1,5.8c0.5,0.3,1,0.2,1.5,0c1.7-1,3.3-1.9,5-2.9c0.2-0.1,0.6-0.3,0.4-0.6c-0.2-0.3-0.5-0.3-0.8-0.1
		c-1,0.5-1.9,1.1-2.9,1.6c-1.5,0.8-3.1,0.7-4.6,0.2c-1.6-0.6-3-1.7-4.5-2.5c-0.4-0.3-0.5-0.6-0.6-1.1c-0.3-1.6,0.6-2.2,1.8-2.8
		c0.5-0.3,1.2-0.5,1.5-1C16.5,19.9,12.6,21.8,10.4,23.7z M22.3,16.6c0.9,0.9,1.5,0.2,1.9-0.2c3.1-2.2,6.1-2.2,9.1,0.1
		c0.3,0.3,0.7,0.5,1.1,0.6c1.5,0.4,1.5,1.6,1.5,2.8c0,1-0.9,1-1.5,1.4c-0.4,0.3-0.9,0.5-1.4,0.8c-0.2,0.1-0.6,0.3-0.3,0.6
		c0.1,0.2,0.4,0.2,0.7,0.1c2-1.2,4.1-2.3,6.3-3.6c-3.6-2.1-6.9-4-10.3-5.9c-0.5-0.3-1-0.3-1.5,0C26.1,14.4,24.2,15.5,22.3,16.6z
		 M39.6,22.9c-2.2-1.4-1-1.5-5.2,0.9c-1.1,0.6-0.5,1.5-0.6,2.5C35.9,25.1,37.7,24,39.6,22.9z M39.7,26.4c-0.8-0.4-1.4-1.1-1.9-0.9
		c-1.3,0.6-2.6,1.3-3.8,2.2c-0.5,0.4-0.3,1.2-0.1,1.8c0.1,0.3,0.4,0.1,0.6,0C36.1,28.5,37.8,27.5,39.7,26.4z"/>
	<path d="M20.5,23.1c0.6,0.1,1.1,0.2,1.1,0.9c0,0.7-0.5,1-1.2,1c-0.6,0-1-0.3-1-0.9C19.4,23.3,19.9,23.2,20.5,23.1z"/>
	<path d="M30.7,18.8c-0.1,0.6-0.5,1-1.1,1c-0.6,0-1.2-0.2-1.2-1c0-0.7,0.6-0.9,1.1-0.9C30.1,17.9,30.6,18.1,30.7,18.8z"/>
</g>
</svg>
