<?xml version="1.0" encoding="utf-8"?>
<!-- Generator: Adobe Illustrator 25.2.0, SVG Export Plug-In . SVG Version: 6.00 Build 0)  -->
<svg version="1.1" baseProfile="tiny" id="Layer_1" xmlns="http://www.w3.org/2000/svg" xmlns:xlink="http://www.w3.org/1999/xlink"
	 x="0px" y="0px" viewBox="0 0 50 50" overflow="visible" xml:space="preserve">
<g>
	<g>
		<circle fill="#FFC101" cx="25" cy="25" r="24.5"/>
	</g>
</g>
<g>
	<path stroke="#000000" stroke-width="0.2" stroke-miterlimit="10" d="M26.6,29.4c0.7,0,1.6-0.2,2.5-0.6c4-1.8,6.5-6.3,6.5-10.4
		c0-0.5-0.3-0.9-0.8-1.1c-4.4-1.9-8.8-3.8-13.2-5.7c-0.4-0.2-0.5-0.1-0.6,0.3c-0.2,0.4,0,0.5,0.3,0.6c0.8,0.3,1.5,0.7,2.3,1
		c3.5,1.5,7,3,10.6,4.6c0.3,0.1,0.6,0.2,0.5,0.7c-0.3,3.7-1.8,6.7-5,8.8c-1.3,0.9-2.8,1.3-4.5,0.9c-0.9-0.2-1.7-0.7-2.5-1.1
		c-3.4-1.7-6.8-3.4-10.2-5.1c-0.3-0.2-0.5-0.1-0.6,0.2c-0.2,0.3-0.1,0.5,0.2,0.6c1.7,0.8,3.3,1.6,5,2.5c2.1,1.1,4.2,2,6.2,3.2
		C24.3,29.2,25.3,29.4,26.6,29.4z"/>
	<path stroke="#000000" stroke-width="0.2" stroke-miterlimit="10" d="M32,21.7c0.3-0.7,0.5-1.4,0.6-2.1c0.1-0.3-0.2-0.3-0.4-0.4
		c-3.7-1.6-7.4-3.3-11.1-4.9c-0.6-0.3-1.3-0.6-1.9-0.8c-0.3-0.1-0.3-0.3-0.2-0.6c0.1-0.3,0.2-0.4,0.6-0.3c4.5,2,8.9,4,13.4,5.9
		c0.5,0.2,0.7,0.5,0.6,1c-0.4,2.9-1.6,5.3-4.2,6.9c-2.9,1.8-6.2,0.5-7.5-2.8c-0.3-0.8-0.5-1.7-0.6-2.6c0-0.5-0.2-0.6-0.6-0.8
		c-2.8-1.3-5.7-2.6-8.5-3.9c-0.4-0.2-0.5-0.3-0.3-0.7c0.2-0.3,0.3-0.3,0.6-0.2c1.4,0.6,2.8,1.3,4.1,1.9c0.3,0.2,0.5,0.2,0.8-0.1
		c1.2-1,3-1.1,4.4-0.3c0.2,0.1,0.4,0.1,0.6,0.1c2.1-0.4,4.1,0.6,5.1,2.5c0.1,0.2,0.2,0.3,0.4,0.3C30.4,20.1,30.4,20.1,32,21.7z
		 M18.1,18.1c1.1,0.5,2.1,1,3.2,1.5c0.6,0.3,0.9,0.7,0.9,1.3c0,1.1,0.3,2.1,0.8,3c0.9,1.8,2.5,2.7,4.3,2.4c1.9-0.3,3.2-1.6,4.1-3.2
		c0.1-0.2,0-0.4-0.1-0.6c-0.6-1.2-2-1.8-3.5-1.5c-0.4,0.1-0.7,0-0.8-0.4c-0.7-1.8-2.7-2.9-4.6-2.4c-0.3,0.1-0.6,0.1-0.9-0.1
		C20.6,17.1,19.2,17.2,18.1,18.1z"/>
	<path stroke="#000000" stroke-width="0.2" stroke-miterlimit="10" d="M26.6,29.4c-1.3,0-2.3-0.2-3.2-0.8c-2-1.2-4.2-2.1-6.2-3.2
		c-1.7-0.9-3.3-1.7-5-2.5c-0.3-0.2-0.4-0.3-0.2-0.6c0.2-0.3,0.3-0.4,0.6-0.2c3.4,1.7,6.8,3.4,10.2,5.1c0.8,0.4,1.6,1,2.5,1.1
		c1.6,0.3,3.1-0.1,4.5-0.9c3.2-2.1,4.7-5.1,5-8.8c0-0.4-0.2-0.5-0.5-0.7c-3.5-1.5-7-3-10.6-4.6c-0.8-0.3-1.5-0.7-2.3-1
		c-0.3-0.1-0.5-0.2-0.3-0.6c0.2-0.3,0.2-0.4,0.6-0.3c4.4,1.9,8.8,3.8,13.2,5.7c0.5,0.2,0.8,0.6,0.8,1.1c0,4.1-2.4,8.7-6.5,10.4
		C28.2,29.2,27.3,29.4,26.6,29.4z"/>
	<path stroke="#000000" stroke-width="0.2" stroke-miterlimit="10" d="M27,40.5c-1.7,0-3.7-0.2-5.6-0.8c-0.6-0.2-1.2-0.5-1.7-0.9
		c-0.7-0.7-0.7-1.5,0-2.2c0.5-0.4,1.1-0.7,1.7-0.9c0.2-0.1,0.4-0.1,0.5-0.3c0.5-0.8,1.3-1.2,2.1-1.4c0.2-0.1,0.3-0.1,0.5-0.3
		c1.2-1.4,4-1.4,5.2,0c0.2,0.2,0.4,0.2,0.6,0.3c0.8,0.3,1.6,0.6,2,1.4c0.1,0.2,0.2,0.2,0.4,0.2c0.3,0.1,0.6,0.2,0.9,0.4
		c0.7,0.4,1.4,0.8,1.4,1.7c0,0.9-0.7,1.4-1.5,1.7c-0.8,0.4-1.6,0.6-2.5,0.8C29.9,40.4,28.6,40.5,27,40.5z M27.1,39.6
		c1.6,0,3-0.1,4.4-0.4c0.9-0.2,1.7-0.4,2.4-1c0.5-0.4,0.5-0.7,0-1.1c-0.5-0.4-1.1-0.6-1.7-0.8c-0.2-0.1-0.4-0.1-0.5-0.3
		c-0.3-0.9-1.2-1.1-1.9-1.4c-0.2-0.1-0.5,0-0.6-0.3c-0.6-1.1-1.7-1-2.7-0.9c-0.4,0.1-0.9,0.2-1.1,0.6c-0.2,0.4-0.5,0.5-0.9,0.6
		c-0.6,0.2-1.3,0.4-1.6,1c-0.2,0.4-0.5,0.5-0.8,0.7c-0.2,0.1-0.5,0.2-0.7,0.3c-0.5,0.2-1.1,0.4-1.1,1c0,0.6,0.6,0.7,1,0.9
		C23.1,39.4,25.2,39.6,27.1,39.6z"/>
	<path stroke="#000000" stroke-width="0.2" stroke-miterlimit="10" d="M28.6,31.5c0-0.8,0.6-1.4,1.4-1.4c0.8,0,1.4,0.6,1.3,1.4
		c0,0.7-0.6,1.3-1.4,1.3C29.2,32.8,28.6,32.2,28.6,31.5z M30.4,31.5c-0.1-0.3-0.2-0.4-0.5-0.4c-0.3,0-0.4,0.2-0.4,0.5
		c0,0.3,0.2,0.4,0.4,0.4C30.2,31.9,30.4,31.7,30.4,31.5z"/>
	<path stroke="#000000" stroke-width="0.2" stroke-miterlimit="10" d="M26.3,29.7c0.7,0,1.2,0.5,1.2,1.2c0,0.7-0.5,1.2-1.2,1.2
		c-0.7,0-1.2-0.5-1.2-1.2C25.1,30.3,25.7,29.7,26.3,29.7z M26.3,31.3c0.2,0,0.3-0.1,0.3-0.3c0-0.2-0.1-0.3-0.3-0.3
		c-0.2,0-0.3,0.1-0.3,0.3C26,31.1,26.1,31.2,26.3,31.3z"/>
</g>
</svg>
