<?xml version="1.0" encoding="utf-8"?>
<!-- Generator: Adobe Illustrator 25.2.0, SVG Export Plug-In . SVG Version: 6.00 Build 0)  -->
<svg version="1.1" id="Layer_1" xmlns="http://www.w3.org/2000/svg" xmlns:xlink="http://www.w3.org/1999/xlink" x="0px" y="0px"
	 viewBox="0 0 50 50" style="enable-background:new 0 0 50 50;" xml:space="preserve">

	
	
	
	
	
	
	
	
	
	
	
	
	
	
	
	
	
	
	
	

<circle fill="#FFC101" cx="25" cy="25.2" r="24.5"/>
<g>
	<path class="st2" d="M36.8,22.3h-1.1l2.9-3.1l-1.7-2.8L32.8,15l-2,2.6l-2.5-1.8l-2,0.8l0.1-2.2l1.7-0.4l2,1.9l1.1-1.1l-2.6-2.5
		l-2.7,0.6l-3.2-2.4l-3.4,0.6l-3,2.2l0.9,1.3l2.7-2l2.5-0.4l2.4,1.8l0.1,0.6l-0.1,2.2c-0.7-0.6-2.1-1.3-4.5-2.4l-0.4-0.2L16.4,17
		L15,15.9l-4.3,2.7l2.9,1.9l-2.2,1.8c-0.9,0.2-1.6,1-1.6,1.9v0.4c0,1,0.7,1.8,1.6,1.9v6.7c0,1.7,1.3,3,2.9,3.1
		c0.4,1.6,1.9,2.8,3.6,2.8c1.7,0,3.2-1.2,3.6-2.8h6.1c0.3,1.7,1.8,3.1,3.7,3.1c1.9,0,3.5-1.4,3.7-3.3c1.2-0.5,2-1.6,2-2.9v-6.7
		c0.9-0.1,1.7-0.9,1.7-1.9v-0.4C38.7,23.1,37.8,22.3,36.8,22.3z M31.3,33.6c1.2,0,2.2,1,2.2,2.2s-1,2.2-2.2,2.2s-2.2-1-2.2-2.2
		S30.1,33.6,31.3,33.6z M31.3,32c-1.8,0-3.2,1.2-3.6,2.8h-6.1c-0.3-1.8-1.8-3.1-3.7-3.1c-1.8,0-3.4,1.3-3.7,3.1
		C13.5,34.6,13,34,13,33.3v-6.7h8.6l0-0.9c0-0.1,0-0.2,0-0.2l0.1-0.4h-9.9c-0.2,0-0.4-0.2-0.4-0.4v-0.4c0-0.2,0.2-0.4,0.4-0.4h0.2
		l0,0.1l0.1-0.1h10.1l0,0l0.1,0h14.6c0.2,0,0.4,0.2,0.4,0.4v0.4c0,0.2-0.2,0.4-0.4,0.4h-10l0.1,0.4l0,0.1c0,0.2,0,0.4,0,0.7l0,0.4
		h8.6v6.7c0,0.5-0.3,0.9-0.6,1.2C34.3,33,32.9,32,31.3,32z M14.9,17.9l3.8,3l1-1.3l-2-1.6l2.3-2c2.2,1,3.8,1.9,4.1,2.2
		c0.1,0.5,0.3,1,0.4,1.5l-2.9,2.5H14l2.3-1.9l-2.6-1.7L14.9,17.9z M30.5,19.3v3H24l2.3-2l-0.2-0.5c0,0-0.2-0.6-0.3-1.1l2.4-1
		L30.5,19.3z M17.9,37.6c-1.2,0-2.2-1-2.2-2.2s1-2.2,2.2-2.2s2.2,1,2.2,2.2S19.1,37.6,17.9,37.6z M32,22.3v-3.6l1.4-1.8l2.5,0.8
		l0.8,1.3l-3.1,3.2l0.1,0.1H32z"/>
	<circle class="st2" cx="31.3" cy="35.7" r="1.1"/>
	<circle class="st2" cx="17.9" cy="35.5" r="1.1"/>
</g>
</svg>
