<svg id="Layer_1" data-name="Layer 1" xmlns="http://www.w3.org/2000/svg" viewBox="0 0 50 50"><defs><style>.cls-1{fill:#ffc101;}.cls-2{fill:#3b3b3c;stroke:#ffc101;stroke-miterlimit:10;stroke-width:0.25px;}</style></defs><circle class="cls-1" cx="24.98" cy="25.22" r="24.5"/><circle class="cls-2" cx="32.02" cy="35.98" r="1.1"/><circle class="cls-2" cx="18.62" cy="35.68" r="1.1"/><path class="cls-2" d="M21.82,15l2-2.5,1.8,1.8.1.6-.1,2.2a22.34,22.34,0,0,0-4.5-2.4l-.4-.2-3.5,2.8-1.5-1.1-4.3,2.7,2.9,1.9-2.2,1.8a2,2,0,0,0-1.6,1.9v.4a1.86,1.86,0,0,0,1.6,1.9v6.7A3.06,3.06,0,0,0,15,36.57a3.71,3.71,0,0,0,7.2,0h6.1a3.76,3.76,0,0,0,3.7,3.1,3.68,3.68,0,0,0,3.7-3.3,3.12,3.12,0,0,0,2-2.9v-6.7a1.94,1.94,0,0,0,1.7-1.9v-.4a1.87,1.87,0,0,0-1.71-2H36.4l2.9-3.1-1.7-2.8-4-1.3-2,2.6-2.5-1.8-2,.8.1-2.2,1.7-.4,3.9,2.1,1.1-1.1-4.5-2.7-2.7.61-3.3-2.4-2.8,3.7m12.2,4.4,1.4-1.8,2.5.8.8,1.3-3.1,3.3H33ZM27,20.48l-.2-.5a10.52,10.52,0,0,1-.3-1.1l2.4-1,2.3,1.7v3H24.7Zm-11.4-2.4,6.7,4.3,1.3-1.1-5.2-3.1,2.3-2a22.78,22.78,0,0,1,4.1,2.2c.1.5.3,1,.4,1.5l-2.9,2.5H14.7l2.3-1.9-2.6-1.7Zm3,19.8a2.2,2.2,0,1,1,2.2-2.2,2.22,2.22,0,0,1-2.18,2.2Zm13.4.3A2.2,2.2,0,1,1,34.2,36,2.22,2.22,0,0,1,32,38.18Zm5.9-13.3a.43.43,0,0,1-.4.4H27.7v1.6h8.5v6.7a1.74,1.74,0,0,1-.6,1.2,3.79,3.79,0,0,0-3.6-2.5,3.65,3.65,0,0,0-3.6,2.8H22.3A3.69,3.69,0,0,0,18.6,32a3.75,3.75,0,0,0-3.7,3.1,1.59,1.59,0,0,1-1.2-1.5v-6.7H22v-1.6H12.4a.43.43,0,0,1-.4-.4v-.4a.43.43,0,0,1,.4-.4H37.5a.43.43,0,0,1,.4.4Z"/></svg>