<?xml version="1.0" encoding="utf-8"?>
<!-- Generator: Adobe Illustrator 25.2.0, SVG Export Plug-In . SVG Version: 6.00 Build 0)  -->
<svg version="1.1" baseProfile="tiny" id="Layer_1" xmlns="http://www.w3.org/2000/svg" xmlns:xlink="http://www.w3.org/1999/xlink"
	 x="0px" y="0px" viewBox="0 0 50 50" overflow="visible" xml:space="preserve">
<g>
	<g>
		<circle fill="#FFC101" cx="25" cy="25" r="24.5"/>
	</g>
</g>
<g>
	<circle fill="#010101" cx="32" cy="35.8" r="1.1"/>
	<circle fill="#010101" cx="18.6" cy="35.5" r="1.1"/>
	<path fill="#010101" d="M21.8,14.8l2-2.5l1.8,1.8l0.1,0.6l-0.1,2.2c-0.7-0.6-2.1-1.3-4.5-2.4l-0.4-0.2l-3.5,2.8L15.7,16l-4.3,2.7
		l2.9,1.9l-2.2,1.8c-0.9,0.2-1.6,1-1.6,1.9v0.4c0,1,0.7,1.8,1.6,1.9v6.7c0,1.7,1.3,3,2.9,3.1c0.4,1.6,1.9,2.8,3.6,2.8
		s3.2-1.2,3.6-2.8h6.1c0.3,1.7,1.8,3.1,3.7,3.1s3.5-1.4,3.7-3.3c1.2-0.5,2-1.6,2-2.9v-6.7c0.9-0.1,1.7-0.9,1.7-1.9v-0.4
		c0.1-1.1-0.8-2-1.9-2h-1.1l2.9-3.1l-1.7-2.8l-4-1.3l-2,2.6l-2.5-1.8l-2,0.8l0.1-2.2l1.7-0.4l3.9,2.1l1.1-1.1l-4.5-2.7L26.7,13
		l-3.3-2.4l-2.8,3.7 M32.8,18.7l1.4-1.8l2.5,0.8l0.8,1.3l-3.1,3.3H33L32.8,18.7L32.8,18.7z M27,20.3l-0.2-0.5c0,0-0.2-0.6-0.3-1.1
		l2.4-1l2.3,1.7v3h-6.5L27,20.3z M15.6,17.9l6.7,4.3l1.3-1.1L18.4,18l2.3-2c2.2,1,3.8,1.9,4.1,2.2c0.1,0.5,0.3,1,0.4,1.5l-2.9,2.5
		h-7.6l2.3-1.9l-2.6-1.7L15.6,17.9z M18.6,37.7c-1.2,0-2.2-1-2.2-2.2s1-2.2,2.2-2.2s2.2,1,2.2,2.2S19.8,37.7,18.6,37.7z M32,38
		c-1.2,0-2.2-1-2.2-2.2s1-2.2,2.2-2.2s2.2,1,2.2,2.2S33.2,38,32,38z M37.9,24.7c0,0.2-0.2,0.4-0.4,0.4h-9.8v1.6h8.5v6.7
		c0,0.5-0.3,0.9-0.6,1.2c-0.6-1.5-1.9-2.5-3.6-2.5c-1.8,0-3.2,1.2-3.6,2.8h-6.1c-0.3-1.8-1.8-3.1-3.7-3.1c-1.8,0-3.4,1.3-3.7,3.1
		c-0.7-0.2-1.2-0.8-1.2-1.5v-6.7H22v-1.6h-9.6c-0.2,0-0.4-0.2-0.4-0.4v-0.4c0-0.2,0.2-0.4,0.4-0.4h0.2l0,0h0.1h10.1l0,0h0.1h14.6
		c0.2,0,0.4,0.2,0.4,0.4V24.7z"/>
</g>
</svg>
