<?xml version="1.0" encoding="utf-8"?>
<!-- Generator: Adobe Illustrator 25.2.0, SVG Export Plug-In . SVG Version: 6.00 Build 0)  -->
<svg version="1.1" id="Layer_1" xmlns="http://www.w3.org/2000/svg" xmlns:xlink="http://www.w3.org/1999/xlink" x="0px" y="0px"
	 viewBox="0 0 50 50" style="enable-background:new 0 0 50 50;" xml:space="preserve">

	
	
	
	
	
	
	
	
	
	
	
	
	
	
	
	
	
	
	
	

<circle fill="#FFC101" cx="25" cy="25.2" r="24.5"/>
<g>
	<path fill="#3B3B3C" d="M23.6,36.3l-4.9,0c-1.7-0.2-3-1.6-3-3.3V16c0-1.8,1.5-3.3,3.3-3.3h11.6c1.8,0,3.3,1.5,3.3,3.3c0,0,0,0.1,0,0.1
		v5c0,0.3,0.3,0.6,0.6,0.6h0.1c0.3,0,0.6-0.3,0.6-0.6v-5c0-2.6-2.1-4.7-4.7-4.7H19c-2.6,0-4.7,2.1-4.7,4.7v17c0,2.3,1.7,4.3,4,4.6
		c0.1,0,0.2,0.1,0.3,0.1h5c0.3,0,0.6-0.3,0.6-0.6v-0.1C24.3,36.6,24,36.3,23.6,36.3z"/>
	<path fill="#3B3B3C" d="M30,18.7c0-0.4-0.3-0.7-0.7-0.7H18.7c-0.4,0-0.7,0.3-0.7,0.7c0,0.4,0.3,0.7,0.7,0.7h10.7
		C29.7,19.4,30,19.1,30,18.7z"/>
	<path fill="#3B3B3C" d="M18.6,22c-0.3,0-0.6,0.3-0.6,0.6v0.1c0,0.3,0.3,0.6,0.6,0.6h8.2c0.3,0,0.6-0.3,0.6-0.6v-0.1
		c0-0.3-0.3-0.6-0.6-0.6H18.6z"/>
	<path fill="#3B3B3C" d="M24.6,26.5c0-0.3-0.2-0.5-0.5-0.5h-5.5c-0.3,0-0.5,0.2-0.5,0.5v0.3c0,0.3,0.2,0.5,0.5,0.5H24
		c0.3,0,0.5-0.2,0.5-0.5V26.5z"/>
	<path fill="#3B3B3C" d="M40.6,23.7l0.6-0.6c0.5-0.5,0.5-1.4,0-2l-0.5-0.5c-0.5-0.5-1.5-0.5-2,0l-0.6,0.6c-0.2-0.1-0.6-0.1-0.8,0.1
		L27.2,31.5c-0.5,0.5-0.9,1.1-1.1,1.8l-0.7,2.3c-0.1,0.2,0,0.5,0.2,0.6c0.1,0.1,0.3,0.2,0.4,0.2c0.1,0,0.1,0,0.2,0l2.3-0.7
		c0.7-0.2,1.3-0.6,1.8-1.1l9.7-9.7c0.2,0.3,0.1,0.8-0.2,1L36.8,29c-0.1,0.1-0.2,0.3-0.2,0.4c0,0.2,0.1,0.3,0.2,0.4
		c0.2,0.2,0.6,0.2,0.9,0l3.1-3.1c0.4-0.4,0.6-1,0.6-1.5c0-0.6-0.2-1.1-0.6-1.5L40.6,23.7z M28.4,34.4c-0.1,0-0.2,0.1-0.3,0.1
		L27,34.8l0.4-1.1c0-0.1,0.1-0.2,0.1-0.3L28.4,34.4z M33.2,29.9l-3.7,3.7l-1.3-1.3l3.7-3.7L33.2,29.9z M34.5,28.6L34.1,29l-1.3-1.3
		l0.5-0.5L34.5,28.6z M40.3,22.1l-0.6,0.6L39,22.1l0.6-0.6c0,0,0.1,0,0.2,0l0.5,0.5C40.4,22,40.4,22.1,40.3,22.1z M39.1,24l-3.7,3.7
		l-1.3-1.3l3.7-3.7L39.1,24z"/>
</g>
</svg>
