<svg id="Layer_1" data-name="Layer 1" xmlns="http://www.w3.org/2000/svg" viewBox="0 0 49.7 49.7"><defs/><path class="cls-2" d="M34.7 16.65a3.81 3.81 0 00-3.85-3.85h-1.54a3.3 3.3 0 00-3.26-2.6h-3.4a3.3 3.3 0 00-3.26 2.6h-1.54A3.81 3.81 0 0014 16.65v16.4a3.81 3.81 0 003.85 3.85h13a.85.85 0 100-1.7h-13a2.1 2.1 0 01-2.15-2.15v-16.4a2.1 2.1 0 012.15-2.15h1.67a3.24 3.24 0 003.13 2.3h3.4a3.25 3.25 0 003.1-2.3h1.7A2.1 2.1 0 0133 16.65V24.55a.85.85 0 001.7 0v-7.8-.05-.05zm-8.65-1.55h-3.4a1.51 1.51 0 01-1.55-1.45.85.85 0 00-.1-.35 1.63 1.63 0 011.63-1.4h3.4a1.63 1.63 0 011.63 1.41.92.92 0 00-.08.27 1.57 1.57 0 01-1.53 1.52z"/><path class="cls-2" d="M28.25 20.5h-7.8a.85.85 0 100 1.7h7.8a.85.85 0 000-1.7zM28.25 25h-7.8a.85.85 0 000 1.7h7.8a.85.85 0 000-1.7zM28.25 29.5h-7.8a.85.85 0 100 1.7h7.8a.85.85 0 000-1.7z"/><path d="M39.69 27.19a5.67 5.67 0 00-.69-1.33 1.66 1.66 0 00-1.21-.44 1.6 1.6 0 00-1.21.54l-4.3 4.3c-.11.12-.14.16-.14.29l-.68 2.35c-.14.17 0 .44.12.58a.54.54 0 00.41.14h.12l2.42-.71.37-.33a.33.33 0 00.08-.22.65.65 0 00-.18-.4l-1.4-1.39 3.29-3.29 1 1L35 30.84a.54.54 0 00-.14.41.48.48 0 00.07.22.41.41 0 010 .08v.11a.54.54 0 00.41.14.64.64 0 00.22-.06.2.2 0 01.08 0h.06l3.35-3.24a1.79 1.79 0 00.54-1.21zm-1.19 0a.67.67 0 01-.25.48l-1-1.08a.6.6 0 011 0 .89.89 0 01.25.56zm-5.14 4.92l-.7.17.17-.7z" fill="#3b3b3c"/></svg>