<svg id="Layer_1" data-name="Layer 1" xmlns="http://www.w3.org/2000/svg" viewBox="0 0 50 50"><defs><style>.cls-1{fill:#ffc101;}.cls-2{fill:#3b3b3c;}</style></defs><circle class="cls-1" cx="24.96" cy="25.18" r="24.5"/><path class="cls-2" d="M36.73,28.27h0V18.58A2.75,2.75,0,0,0,34,15.83H25.65V14.69a1.35,1.35,0,0,0,1.1-1.33v-1.7a1.36,1.36,0,0,0-1.36-1.36H18.25a1.36,1.36,0,0,0-1.35,1.36v1.7a1.35,1.35,0,0,0,1.35,1.35h.26v1.22a2.75,2.75,0,0,0-2.05,2.65V36.47a2.75,2.75,0,0,0,2.75,2.75H34a2.75,2.75,0,0,0,2.75-2.75v-8.2Zm-16-13.56h2.63v1.12H20.77Zm4.52-1.45H18.35v-1.5h6.93Zm-2.3,4,.07.09.05-.09h2.65l9.52,11.51v1.32L25.44,18.59h0c-.07-.16-.23-.28-.25-.44H21.27a2.25,2.25,0,0,0-2.17,2.32V34.58a2.25,2.25,0,0,0,2.17,2.32H32a2.25,2.25,0,0,0,2.16-2.32V31.24l1.08,1.33v3.9a1.3,1.3,0,0,1-1.3,1.3H19.22a1.3,1.3,0,0,1-1.29-1.3V18.58a1.3,1.3,0,0,1,1.29-1.3Zm12.29,9.23-1.53-1.86V20.47a2.32,2.32,0,0,0-2.32-2.32H28.36l-.72-.87H34a1.3,1.3,0,0,1,1.3,1.3Zm-3-3.62L29.56,19.6h1.86a.87.87,0,0,1,.86.87Zm.53,6.65v5a.83.83,0,0,1-.78.87H21.27a.83.83,0,0,1-.78-.87V20.47a.83.83,0,0,1,.78-.87h3.45Z"/><path class="cls-2" d="M26.57,33.84h.15a3.59,3.59,0,0,0,2.64-1.46c.68-1.06.66-2.53-.08-4.39l-2.6-4.73-2.73,5,0,.06a5,5,0,0,0,0,3.9A3.39,3.39,0,0,0,26.57,33.84ZM25.26,28.9l1.42-2.61L28,28.59c.54,1.35.6,2.37.19,3a2.06,2.06,0,0,1-1.43.79,2,2,0,0,1-1.48-.88A3.54,3.54,0,0,1,25.26,28.9Z"/></svg>