<?xml version="1.0" encoding="utf-8"?>
<!-- Generator: Adobe Illustrator 25.2.0, SVG Export Plug-In . SVG Version: 6.00 Build 0)  -->
<svg version="1.1" baseProfile="tiny" id="Layer_1" xmlns="http://www.w3.org/2000/svg" xmlns:xlink="http://www.w3.org/1999/xlink"
	 x="0px" y="0px" viewBox="0 0 50 50" overflow="visible" xml:space="preserve">
<g>
	<g>
		<circle fill="#FFC101" cx="25" cy="25" r="24.5"/>
	</g>
</g>
<g>
	<g>
		
			<line fill="none" stroke="#010101" stroke-width="1.7" stroke-linecap="round" stroke-linejoin="round" stroke-miterlimit="10" x1="34" y1="16.9" x2="34" y2="24.7"/>
		<g>
			
				<path fill="none" stroke="#010101" stroke-width="1.7" stroke-linecap="round" stroke-linejoin="round" stroke-miterlimit="10" d="
				M34,16.8c0-1.7-1.3-3-3-3h-2.4c-0.1,1.3-1.1,2.3-2.4,2.3h-3.4c-1.3,0-2.4-1-2.4-2.3H18c-1.7,0-3,1.3-3,3v16.4c0,1.7,1.3,3,3,3h13
				"/>
			<path fill="none" stroke="#010101" stroke-width="1.7" stroke-miterlimit="10" d="M20.3,13.7L20.3,13.7c0-1.4,1.1-2.5,2.5-2.5
				h3.4c1.4,0,2.5,1.1,2.5,2.5v0"/>
			
				<line fill="none" stroke="#010101" stroke-width="1.7" stroke-linecap="round" stroke-linejoin="round" stroke-miterlimit="10" x1="20.6" y1="21.5" x2="28.4" y2="21.5"/>
			
				<line fill="none" stroke="#010101" stroke-width="1.7" stroke-linecap="round" stroke-linejoin="round" stroke-miterlimit="10" x1="20.6" y1="26" x2="28.4" y2="26"/>
			
				<line fill="none" stroke="#010101" stroke-width="1.7" stroke-linecap="round" stroke-linejoin="round" stroke-miterlimit="10" x1="20.6" y1="30.5" x2="28.4" y2="30.5"/>
		</g>
	</g>
	<path stroke="#000000" stroke-width="0.3" stroke-miterlimit="10" d="M39,26.1c-0.3-0.3-0.7-0.4-1.1-0.4c-0.4,0-0.9,0.2-1.1,0.5
		l-4.3,4.3c-0.1,0.1-0.1,0.1-0.1,0.2l-0.7,2.4c-0.1,0.1,0,0.3,0.1,0.4c0.1,0.1,0.2,0.1,0.3,0.1c0.1,0,0.1,0,0.1,0l2.4-0.7
		c0.1-0.1,0.2-0.2,0.3-0.3s0-0.3-0.1-0.4l-1.5-1.5l3.5-3.5l1.2,1.2l-2.7,2.7c-0.1,0.1-0.1,0.2-0.1,0.3c0,0.1,0.1,0.2,0.1,0.3
		c0.1,0.1,0.2,0.1,0.3,0.1c0.1,0,0.2-0.1,0.3-0.1l3.3-3.2c0.3-0.3,0.5-0.7,0.5-1.1C39.5,26.9,39.3,26.5,39,26.1z M38.8,27.3
		c0,0.2-0.1,0.4-0.3,0.6L38.4,28l-1.2-1.3l0.1-0.1c0.2-0.2,0.4-0.3,0.6-0.3c0.2,0,0.4,0.1,0.6,0.3C38.7,26.8,38.8,27.1,38.8,27.3z
		 M32.6,32.6l0.3-1.2l0.9,0.9L32.6,32.6z"/>
</g>
</svg>
