<svg id="Layer_1" data-name="Layer 1" xmlns="http://www.w3.org/2000/svg" viewBox="0 0 50 50"><defs><style>.cls-1{fill:#ffc101;}.cls-2,.cls-3{fill:#3b3b3c;}.cls-2{stroke:#ffc101;stroke-miterlimit:10;stroke-width:0.25px;}</style></defs><circle class="cls-1" cx="25" cy="25" r="24.5"/><path class="cls-2" d="M34.85,16.8A3.82,3.82,0,0,0,31,13H29.46a3.29,3.29,0,0,0-3.26-2.6H22.8A3.29,3.29,0,0,0,19.54,13H18a3.82,3.82,0,0,0-3.85,3.77V33.2a3.82,3.82,0,0,0,3.77,3.85H31a.85.85,0,0,0,0-1.7H18a2.1,2.1,0,0,1-2.15-2.05V16.8a2.1,2.1,0,0,1,2-2.15h1.77A3.23,3.23,0,0,0,22.8,17h3.4a3.25,3.25,0,0,0,3.1-2.3H31a2.1,2.1,0,0,1,2.15,2.05v.15h0v7.8a.85.85,0,1,0,1.7,0V16.9h0ZM26.2,15.25H22.8a1.51,1.51,0,0,1-1.55-1.45.85.85,0,0,0-.08-.35,1.63,1.63,0,0,1,1.63-1.4h3.4a1.63,1.63,0,0,1,1.63,1.41.92.92,0,0,0-.08.27A1.57,1.57,0,0,1,26.2,15.25Z"/><path class="cls-2" d="M28.4,20.65H20.6a.85.85,0,0,0,0,1.7h7.8a.85.85,0,0,0,0-1.7Z"/><path class="cls-2" d="M28.4,25.15H20.6a.85.85,0,0,0,0,1.7h7.8a.85.85,0,0,0,0-1.7Z"/><path class="cls-2" d="M28.4,29.65H20.6a.85.85,0,0,0,0,1.7h7.8a.85.85,0,0,0,0-1.7Z"/><path class="cls-3" d="M39.84,27.34A5.58,5.58,0,0,0,39.12,26h0a1.68,1.68,0,0,0-1.21-.44,1.61,1.61,0,0,0-1.21.54l-4.3,4.3c-.11.12-.14.16-.14.29L31.57,33c-.14.17,0,.44.12.58a.56.56,0,0,0,.41.14h.12L34.64,33l.37-.33a.35.35,0,0,0,.08-.22.67.67,0,0,0-.18-.4l-1.4-1.39,3.29-3.29,1,1L35.19,31a.56.56,0,0,0-.14.41.57.57,0,0,0,.07.22v.14h0a.56.56,0,0,0,.41.14.79.79,0,0,0,.22-.06H36l3.35-3.24a1.78,1.78,0,0,0,.54-1.21Zm-1.19,0a.65.65,0,0,1-.25.48l-1-1.08a.6.6,0,0,1,.83-.17.55.55,0,0,1,.17.17.85.85,0,0,1,.25.56Zm-5.14,4.92-.7.17.17-.7Z"/></svg>