<?xml version="1.0" encoding="utf-8"?>
<!-- Generator: Adobe Illustrator 25.2.0, SVG Export Plug-In . SVG Version: 6.00 Build 0)  -->
<svg version="1.1" id="Layer_1" xmlns="http://www.w3.org/2000/svg" xmlns:xlink="http://www.w3.org/1999/xlink" x="0px" y="0px"
	 viewBox="0 0 50 50" style="enable-background:new 0 0 50 50;" xml:space="preserve">
<style type="text/css">
	.st0{fill:#FFC101;}
	.st1{fill:#3B3B3C;}
	.st2{fill:#3B3B3B;}
	.st3{fill:#0A0A0A;}
	.st4{fill:#AAA9A9;}
	.st5{fill:#C9C9C9;}
	.st6{fill:#0C0C0C;}
	.st7{fill:#F0F2F2;}
	.st8{fill:#070707;}
	.st9{fill:#444348;}
	.st10{fill:#A4A3A3;}
	.st11{fill:#FFFFFF;}
	.st12{fill:#232323;}
	.st13{fill:#FFCF3E;}
	.st14{fill:#EAB43B;}
	.st15{fill:#74B0B1;}
	.st16{fill:#E0AB28;}
	.st17{fill:#FFCA55;}
	.st18{fill:#A66745;}
	.st19{fill:#F9924A;}
</style>
<circle class="st0" cx="25" cy="25.2" r="24.5"/>
<g>
	<path class="st1" d="M22.1,35.5l-4.9,0c-1.7-0.2-3-1.6-3-3.3v-17c0-1.8,1.5-3.3,3.3-3.3H29c1.8,0,3.3,1.5,3.3,3.3c0,0,0,0.1,0,0.1
		v5c0,0.3,0.3,0.6,0.6,0.6h0.1c0.3,0,0.6-0.3,0.6-0.6v-5c0-2.6-2.1-4.7-4.7-4.7H17.5c-2.6,0-4.7,2.1-4.7,4.7v17c0,2.3,1.7,4.3,4,4.6
		c0.1,0,0.2,0.1,0.3,0.1h5c0.3,0,0.6-0.3,0.6-0.6v-0.1C22.7,35.8,22.4,35.5,22.1,35.5z"/>
	<path class="st1" d="M28.4,17.9c0-0.4-0.3-0.7-0.7-0.7H17.1c-0.4,0-0.7,0.3-0.7,0.7c0,0.4,0.3,0.7,0.7,0.7h10.7
		C28.1,18.6,28.4,18.3,28.4,17.9z"/>
	<path class="st1" d="M17,21.2c-0.3,0-0.6,0.3-0.6,0.6V22c0,0.3,0.3,0.6,0.6,0.6h8.2c0.3,0,0.6-0.3,0.6-0.6v-0.1
		c0-0.3-0.3-0.6-0.6-0.6H17z"/>
	<path class="st1" d="M23,25.7c0-0.3-0.2-0.5-0.5-0.5H17c-0.3,0-0.5,0.2-0.5,0.5V26c0,0.3,0.2,0.5,0.5,0.5h5.5
		c0.3,0,0.5-0.2,0.5-0.5V25.7z"/>
	<path class="st1" d="M35,26.9c-1.5-1.6-2.3-3-2.8-3.9c-0.5-0.9-0.6-1.5-0.7-1.6l-0.2-0.7L30.7,21c-0.1,0-1.6,0.7-2.5,2.5
		c-0.4,0.9-0.5,1.8-0.5,2.5c0,0.3-0.2,0.6-0.5,0.6c-0.2,0-0.4,0-0.6-0.2l-1.1-1.1l-0.4,0.6c-0.1,0.1-0.9,1.2-1,1.5
		c-0.8,1.2-1.2,2.5-1.2,3.9c0,1.9,0.8,3.6,2.1,4.9s3.1,2,5,2c3.9,0,7-3.2,7-7C36.9,29.8,36.2,28.2,35,26.9z M25.7,27.2
		c0.5,0.5,1.1,0.7,1.7,0.5c0.9-0.2,1.6-1,1.6-1.9c0-0.5,0.1-1.3,0.4-1.9c0.4-0.7,0.9-1.2,1.3-1.5c0.4,1,1.4,3,3.5,5.3
		c0.5,0.5,1.6,1.9,1.6,3.5c0,3.2-2.6,5.8-5.8,5.8c-1.5,0-3-0.6-4.1-1.7c-1.1-1.1-1.7-2.5-1.7-4.1c0-1.2,0.3-2.3,1-3.2
		C25.1,27.9,25.3,27.6,25.7,27.2L25.7,27.2z"/>
	<polygon class="st1" points="28.8,34.4 32.5,29.1 31,29.1 27.3,34.4 	"/>
	<path class="st1" d="M30.3,32.9c0,0.9,0.6,1.5,1.5,1.5c0.9,0,1.5-0.6,1.5-1.5s-0.6-1.5-1.5-1.5C30.9,31.4,30.3,32,30.3,32.9z
		 M31.6,32.9c0-0.3,0.1-0.5,0.2-0.5s0.2,0.2,0.2,0.5c0,0.3-0.1,0.5-0.2,0.5S31.6,33.3,31.6,32.9z"/>
	<path class="st1" d="M28,32.1c0.9,0,1.5-0.6,1.5-1.5c0-0.9-0.6-1.5-1.5-1.5s-1.5,0.6-1.5,1.5C26.6,31.5,27.1,32.1,28,32.1z
		 M27.8,30.5c0-0.3,0.1-0.5,0.2-0.5s0.2,0.2,0.2,0.5c0,0.3-0.1,0.5-0.2,0.5S27.8,30.9,27.8,30.5z"/>
</g>
</svg>
