<svg id="Layer_1" data-name="Layer 1" xmlns="http://www.w3.org/2000/svg" viewBox="0 0 50 50"><defs><style>.cls-1{fill:#ffc101;}.cls-2,.cls-3{fill:#3b3b3c;}.cls-2{stroke:#ffc101;stroke-miterlimit:10;stroke-width:0.25px;}</style></defs><circle class="cls-1" cx="25" cy="25" r="24.5"/><path class="cls-2" d="M33.9,20.6A30.13,30.13,0,0,1,29,13.7a15.74,15.74,0,0,1-1.2-2.8l-.3-1-1,.4a9.79,9.79,0,0,0-4.2,4.2,10.43,10.43,0,0,0-.9,4.3,1.29,1.29,0,0,1-1.1,1.3,1.15,1.15,0,0,1-1.2-.4l-1.8-1.8-.6.8a22.27,22.27,0,0,0-1.8,2.6,12.34,12.34,0,0,0-2,6.8A12.1,12.1,0,0,0,37.1,28v0A11.87,11.87,0,0,0,33.9,20.6ZM25,38.4a10.49,10.49,0,0,1-7.3-3,10.8,10.8,0,0,1-3.1-7.3,10.56,10.56,0,0,1,1.7-5.8c.1-.2.7-1,1.2-1.7l.3.3a3.23,3.23,0,0,0,2.8.9,3.11,3.11,0,0,0,2.5-3.1,8.12,8.12,0,0,1,.7-3.5,8.32,8.32,0,0,1,2.5-2.9,34.07,34.07,0,0,0,6.1,9.4c.8.9,2.8,3.4,2.8,6.2a10.25,10.25,0,0,1-10,10.5Z"/><path class="cls-3" d="M27.5,26.8l-.1-.1h-1a2,2,0,0,0-.4-.8h1.3c.1,0,.1,0,.1-.1l.1-.1v-.6c0-.1,0-.1-.1-.1l-.1-.1H22.6c-.1,0-.1,0-.1.1l-.1.1v.8a.09.09,0,0,0,.1.1h0l.1.1h.8q1.2,0,1.5.6H22.6c-.1,0-.1,0-.1.1l-.1.1v.6c0,.1,0,.1.1.1l.1.1H25a1.33,1.33,0,0,1-.6.7,2.16,2.16,0,0,1-1.2.2h-.6a.09.09,0,0,0-.1.1h0l-.1.1v.7a.09.09,0,0,0,.1.1h0c.7.8,1.7,1.9,2.8,3.2l.1.1h1.1c.1,0,.1,0,.2-.1v-.2a35.38,35.38,0,0,0-2.6-3,3.85,3.85,0,0,0,1.6-.6,2.12,2.12,0,0,0,.7-1.3h1c.1,0,.1,0,.1-.1l.1-.1v-.6Z"/></svg>