<svg data-name="Layer 1" xmlns="http://www.w3.org/2000/svg" viewBox="0 0 49.7 49.7"><path d="M33.75 20.45a30.06 30.06 0 01-4.9-6.9 15.3 15.3 0 01-1.2-2.8l-.3-1-1 .4a9.72 9.72 0 00-4.2 4.2 10.38 10.38 0 00-.9 4.3 1.3 1.3 0 01-1.1 1.3 1.15 1.15 0 01-1.2-.4l-1.8-1.8-.6.8a22.75 22.75 0 00-1.8 2.6 12.32 12.32 0 00-2 6.8 12.12 12.12 0 0012.1 12A12.08 12.08 0 0037 27.85a11.86 11.86 0 00-3.25-7.4zm-8.9 17.8a10.46 10.46 0 01-7.3-3 10.81 10.81 0 01-3.1-7.3 10.64 10.64 0 011.7-5.8c.1-.2.7-1 1.2-1.7l.3.3a3.22 3.22 0 002.8.9 3.11 3.11 0 002.5-3.1 8.06 8.06 0 01.7-3.5 8.28 8.28 0 012.5-2.9 34.21 34.21 0 006.1 9.4c.8.9 2.8 3.4 2.8 6.2a10.25 10.25 0 01-10.2 10.5z" stroke="#ffc101" stroke-miterlimit="10" stroke-width=".25" fill="#3b3b3c"/><path d="M27.35 26.65l-.1-.1h-1a2 2 0 00-.4-.8h1.3c.1 0 .1 0 .1-.1l.1-.1V25c0-.1 0-.1-.1-.1l-.1-.1h-4.7c-.1 0-.1 0-.1.1l-.1.1v.8a.1.1 0 00.1.1l.1.1h.8q1.2 0 1.5.6h-2.3c-.1 0-.1 0-.1.1l-.1.1v.6c0 .1 0 .1.1.1l.1.1h2.4a1.34 1.34 0 01-.6.7 2.17 2.17 0 01-1.2.2h-.6a.1.1 0 00-.1.1l-.1.1v.7a.1.1 0 00.1.1c.7.8 1.7 1.9 2.8 3.2l.1.1h1.1c.1 0 .1 0 .2-.1v-.2a34.87 34.87 0 00-2.6-3 3.82 3.82 0 001.6-.6 2.09 2.09 0 00.7-1.3h1c.1 0 .1 0 .1-.1l.1-.1v-.6z" fill="#3b3b3c"/></svg>