<svg id="Layer_1" data-name="Layer 1" xmlns="http://www.w3.org/2000/svg" viewBox="0 0 50 50"><defs><style>.cls-1{fill:#ffc101;}.cls-2{fill:#3b3b3c;stroke:#3b3b3c;stroke-miterlimit:10;stroke-width:0.25px;}</style></defs><circle class="cls-1" cx="25.41" cy="25" r="24.5"/><g id="surface1"><path class="cls-2" d="M37.46,24.3l-1.1-.5V23A10.87,10.87,0,0,0,29,12.6V11.5a.65.65,0,0,0-.6-.6H22.2a.65.65,0,0,0-.6.6v1.1A11,11,0,0,0,14.16,23v.8l-1.1.5a.68.68,0,0,0-.4.5v3a.65.65,0,0,0,.6.6h.8v1.2a.65.65,0,0,0,.6.6h2.1a9.5,9.5,0,0,0,.9,2.1l-1.5,1.5a.61.61,0,0,0,0,.8l2.5,2.5a.61.61,0,0,0,.8,0L21,35.6a6.64,6.64,0,0,0,2.1.9v2.1a.65.65,0,0,0,.6.6h3.5a.65.65,0,0,0,.6-.6V36.5a9.5,9.5,0,0,0,2.1-.9l1.5,1.5a.61.61,0,0,0,.8,0l2.5-2.5a.61.61,0,0,0,0-.8l-1.5-1.5a6.64,6.64,0,0,0,.9-2.1h2.1a.65.65,0,0,0,.6-.6V28.4h.8a.65.65,0,0,0,.6-.6v-3C37.86,24.6,37.66,24.4,37.46,24.3ZM22.86,12.1h5v9.7h-5ZM35.36,29h-1.9a.63.63,0,0,0-.6.5,6.93,6.93,0,0,1-1.1,2.5.61.61,0,0,0,.1.7l1.4,1.4-1.7,1.6-1.4-1.4a.61.61,0,0,0-.7-.1A7.9,7.9,0,0,1,27,35.3a.63.63,0,0,0-.5.6v1.9H24.2v-2a.63.63,0,0,0-.5-.6,6.93,6.93,0,0,1-2.5-1.1.61.61,0,0,0-.7.1l-1.4,1.4L17.46,34l1.4-1.4a.61.61,0,0,0,.1-.7,7.88,7.88,0,0,1-1.1-2.5.63.63,0,0,0-.6-.5h-1.9v-.6h5.3A4.82,4.82,0,0,0,26,32.5a4.88,4.88,0,0,0,4.2-4.2h5.2Zm-13.6-.6h7.1a3.59,3.59,0,0,1-7.1,0Zm14.9-1.1H14.06V25.2l1.1-.5a.68.68,0,0,0,.4-.5V23a9.86,9.86,0,0,1,6.2-9.2v8.5a.65.65,0,0,0,.6.6h6.2a.65.65,0,0,0,.6-.6V13.8a9.76,9.76,0,0,1,6.2,9.2v1.2a.51.51,0,0,0,.4.5l1.1.5Z"/></g></svg>