<svg data-name="Layer 1" xmlns="http://www.w3.org/2000/svg" viewBox="0 0 49.7 49.7"><path d="M36.9 24.1l-1.1-.5v-.8a10.87 10.87 0 00-7.4-10.4v-1.1a.65.65 0 00-.6-.6h-6.2a.65.65 0 00-.6.6v1.1a11 11 0 00-7.4 10.4v.8l-1.1.5a.66.66 0 00-.4.5v3a.65.65 0 00.6.6h.8v1.2a.65.65 0 00.6.6h2.1a9.49 9.49 0 00.9 2.1l-1.5 1.5a.61.61 0 000 .8l2.5 2.5a.61.61 0 00.8 0l1.5-1.5a6.67 6.67 0 002.1.9v2.1a.65.65 0 00.6.6h3.5a.65.65 0 00.6-.6v-2.1a9.49 9.49 0 002.1-.9l1.5 1.5a.61.61 0 00.8 0l2.5-2.5a.61.61 0 000-.8l-1.5-1.5a6.67 6.67 0 00.9-2.1h2.1a.65.65 0 00.6-.6v-1.2h.8a.65.65 0 00.6-.6v-3c-.3-.2-.5-.4-.7-.5zM22.3 11.9h5v9.7h-5zm12.5 16.9h-1.9a.63.63 0 00-.6.5 7.07 7.07 0 01-1.1 2.5.62.62 0 00.1.7l1.4 1.4-1.7 1.6-1.4-1.4a.62.62 0 00-.7-.1 8 8 0 01-2.5 1.1.63.63 0 00-.5.6v1.9h-2.3v-2a.63.63 0 00-.5-.6 7.07 7.07 0 01-2.5-1.1.62.62 0 00-.7.1l-1.4 1.4-1.6-1.6 1.4-1.4a.62.62 0 00.1-.7 8 8 0 01-1.1-2.5.63.63 0 00-.6-.5h-1.9v-.6h5.3a4.81 4.81 0 005.3 4.2 4.88 4.88 0 004.2-4.2h5.2zm-13.6-.6h7.1a3.59 3.59 0 01-7.1 0zm14.9-1.1H13.5V25l1.1-.5a.66.66 0 00.4-.5v-1.2a9.87 9.87 0 016.2-9.2v8.5a.65.65 0 00.6.6H28a.65.65 0 00.6-.6v-8.5a9.77 9.77 0 016.2 9.2V24a.51.51 0 00.4.5l1.1.5-.2 2.1z" fill="#3b3b3c"/></svg>