<?xml version="1.0" encoding="utf-8"?>
<!-- Generator: Adobe Illustrator 16.0.0, SVG Export Plug-In . SVG Version: 6.00 Build 0)  -->
<svg version="1.1" id="Layer_1" xmlns="http://www.w3.org/2000/svg" xmlns:xlink="http://www.w3.org/1999/xlink" x="0px" y="0px"
	 width="50px" height="50px" viewBox="0 0 50 50" enable-background="new 0 0 50 50" xml:space="preserve">
<circle fill="#4AC673" cx="25" cy="25" r="25"/>
<g>
	<g>
		<g>
			<path fill="#1B1F32" d="M28.724,28.658h-0.587c-0.219,0.002-0.416-0.137-0.492-0.343c-0.064-0.171-0.134-0.337-0.209-0.502
				c-0.094-0.2-0.051-0.438,0.106-0.594l0.416-0.417c0.619-0.624,0.619-1.631-0.001-2.254l-1.504-1.502
				c-0.623-0.62-1.631-0.62-2.254,0l-0.417,0.417c-0.156,0.156-0.393,0.199-0.593,0.106c-0.165-0.075-0.332-0.145-0.502-0.212
				c-0.208-0.075-0.346-0.272-0.345-0.493v-0.585c0-0.881-0.714-1.595-1.596-1.595h-2.127c-0.881,0-1.595,0.714-1.595,1.595v0.585
				c0,0.22-0.137,0.417-0.344,0.492c-0.17,0.065-0.336,0.135-0.501,0.209c-0.2,0.093-0.438,0.05-0.593-0.106l-0.418-0.417
				c-0.624-0.62-1.63-0.62-2.254,0l-1.502,1.507c-0.621,0.624-0.621,1.631,0,2.256l0.416,0.415c0.157,0.156,0.2,0.394,0.106,0.594
				c-0.075,0.165-0.145,0.331-0.21,0.502c-0.076,0.209-0.275,0.346-0.496,0.343h-0.585c-0.881,0-1.595,0.715-1.595,1.595v2.129
				c0,0.881,0.714,1.595,1.595,1.595h0.585c0.22,0,0.417,0.137,0.492,0.344c0.065,0.17,0.135,0.337,0.21,0.501
				c0.093,0.201,0.051,0.438-0.106,0.594l-0.417,0.417c-0.62,0.624-0.62,1.63,0,2.255l1.503,1.503c0.624,0.619,1.63,0.619,2.254,0
				l0.417-0.417c0.156-0.156,0.393-0.198,0.594-0.106c0.165,0.075,0.331,0.145,0.502,0.214c0.208,0.073,0.348,0.271,0.348,0.493
				v0.585c0,0.881,0.714,1.595,1.595,1.595h2.127c0.881,0,1.596-0.714,1.596-1.595v-0.585c0-0.221,0.137-0.418,0.343-0.493
				c0.17-0.064,0.337-0.134,0.502-0.209c0.2-0.093,0.437-0.051,0.593,0.106l0.417,0.416c0.625,0.619,1.631,0.618,2.254-0.002
				l1.503-1.503c0.619-0.624,0.619-1.631,0-2.255l-0.417-0.417c-0.157-0.155-0.199-0.393-0.105-0.593
				c0.075-0.165,0.145-0.331,0.213-0.502c0.074-0.209,0.272-0.347,0.492-0.346h0.587c0.88,0,1.595-0.714,1.595-1.595v-2.129
				C30.318,29.373,29.604,28.658,28.724,28.658z M29.253,32.382c0,0.293-0.237,0.531-0.529,0.531h-0.587
				c-0.66,0.003-1.253,0.411-1.488,1.028c-0.056,0.148-0.117,0.296-0.183,0.44c-0.273,0.604-0.146,1.313,0.318,1.784l0.416,0.417
				c0.208,0.207,0.209,0.543,0.001,0.751c0,0,0,0-0.001,0.001l-1.502,1.503c-0.209,0.208-0.545,0.208-0.752,0l-0.417-0.417
				c-0.471-0.466-1.181-0.593-1.785-0.318c-0.144,0.064-0.291,0.126-0.439,0.183c-0.617,0.236-1.025,0.828-1.028,1.488v0.585
				c0,0.293-0.238,0.531-0.532,0.531h-2.127c-0.293,0-0.532-0.238-0.532-0.531v-0.585c-0.002-0.661-0.411-1.254-1.028-1.489
				c-0.149-0.056-0.295-0.117-0.44-0.184c-0.604-0.272-1.313-0.146-1.784,0.319l-0.417,0.416c-0.208,0.208-0.544,0.209-0.752,0
				c0,0,0,0,0,0l-1.503-1.501c-0.207-0.208-0.207-0.544,0-0.752l0.417-0.417c0.465-0.472,0.592-1.181,0.319-1.784
				c-0.065-0.145-0.126-0.292-0.183-0.438c-0.236-0.619-0.827-1.027-1.488-1.03h-0.585c-0.293,0-0.532-0.238-0.532-0.531v-2.129
				c0-0.292,0.239-0.529,0.532-0.529h0.585c0.661-0.003,1.253-0.412,1.489-1.029c0.057-0.149,0.118-0.296,0.183-0.439
				c0.273-0.604,0.146-1.313-0.319-1.785l-0.418-0.417c-0.208-0.207-0.208-0.543,0-0.751v0l1.503-1.503
				c0.208-0.208,0.544-0.208,0.752,0l0.417,0.417c0.471,0.466,1.181,0.593,1.785,0.319c0.144-0.065,0.29-0.126,0.438-0.183
				c0.618-0.236,1.027-0.827,1.03-1.488v-0.585c0-0.293,0.238-0.532,0.532-0.532h2.127c0.294,0,0.532,0.238,0.532,0.532v0.585
				c0.003,0.661,0.412,1.252,1.029,1.488c0.149,0.057,0.295,0.118,0.44,0.183c0.603,0.274,1.313,0.147,1.784-0.319l0.417-0.416
				c0.208-0.206,0.544-0.206,0.752,0l1.503,1.503c0.208,0.208,0.208,0.544,0,0.752l-0.416,0.416
				c-0.466,0.471-0.593,1.182-0.319,1.785c0.064,0.144,0.127,0.291,0.183,0.438c0.236,0.617,0.827,1.025,1.487,1.029h0.587
				c0.292,0,0.529,0.237,0.529,0.529V32.382z"/>
		</g>
	</g>
	<g>
		<g>
			<path fill="#1B1F32" d="M24.458,31.104c-0.005-0.127-0.015-0.255-0.03-0.381c-0.017-0.136-0.037-0.271-0.065-0.403
				c-0.019-0.086-0.043-0.172-0.067-0.258c-0.03-0.11-0.063-0.219-0.101-0.324c-0.026-0.074-0.053-0.147-0.081-0.22
				c-0.068-0.171-0.147-0.338-0.235-0.498c-0.007-0.013-0.011-0.026-0.018-0.038c-0.139-0.247-0.298-0.479-0.479-0.697
				c-0.016-0.02-0.033-0.037-0.049-0.057c-0.073-0.086-0.149-0.17-0.228-0.251c-0.042-0.042-0.085-0.083-0.129-0.124
				c-0.053-0.05-0.106-0.099-0.159-0.146c-0.065-0.056-0.131-0.11-0.198-0.163l-0.087-0.064c-0.822-0.617-1.823-0.949-2.851-0.948
				c-0.053,0-0.106,0.008-0.159,0.01c-0.113,0.003-0.228,0.009-0.341,0.021c-0.06,0.006-0.121,0.013-0.181,0.021
				c-0.173,0.023-0.345,0.057-0.515,0.098c-2.561,0.661-4.1,3.273-3.438,5.835c0.436,1.687,1.754,3.003,3.442,3.438
				c0.008,0,0.017,0.002,0.026,0.005c0.183,0.046,0.37,0.081,0.557,0.105c0.124,0.016,0.248,0.019,0.373,0.025
				c0.083,0.004,0.159,0.016,0.246,0.016c0.151,0,0.309-0.01,0.469-0.025c0.017,0,0.035-0.005,0.054-0.007
				c0.129-0.015,0.26-0.033,0.393-0.061c0.053-0.01,0.103-0.022,0.153-0.034c0.094-0.022,0.187-0.046,0.283-0.073
				c0.075-0.022,0.147-0.049,0.22-0.074s0.148-0.054,0.224-0.082c0.075-0.028,0.139-0.062,0.207-0.094
				c0.089-0.041,0.178-0.081,0.266-0.129h0.003c0.497-0.266,0.955-0.597,1.363-0.984c0.11-0.103,0.207-0.22,0.286-0.349
				c0.415-0.665,0.688-1.41,0.801-2.187c0.015-0.103,0.028-0.204,0.036-0.31c0.007-0.097,0.012-0.191,0.015-0.287
				c0-0.031,0.004-0.06,0.004-0.089C24.468,31.246,24.46,31.177,24.458,31.104z M23.398,31.453c0,0.044-0.004,0.088-0.006,0.132
				c-0.01,0.129-0.026,0.258-0.048,0.388c-0.198,1.104-0.885,2.063-1.868,2.604c-0.066,0.035-0.131,0.067-0.196,0.098l-0.044,0.021
				c-0.31,0.14-0.635,0.238-0.97,0.293c-0.023,0.003-0.047,0.008-0.071,0.011c-0.066,0.01-0.132,0.018-0.197,0.024
				c-0.085,0.007-0.172,0.011-0.259,0.013c-0.038,0-0.074,0-0.111,0c-0.126-0.002-0.251-0.01-0.376-0.023l-0.064-0.007
				c-0.146-0.02-0.292-0.047-0.435-0.083c-1.991-0.51-3.193-2.538-2.683-4.529c0.337-1.315,1.364-2.344,2.68-2.682l0,0
				c0.306-0.078,0.619-0.117,0.934-0.118c0.152,0.002,0.304,0.012,0.455,0.032c0.04,0.004,0.08,0.012,0.12,0.018
				c0.115,0.018,0.229,0.04,0.341,0.068c0.037,0.011,0.073,0.02,0.109,0.029c0.283,0.081,0.555,0.195,0.811,0.342
				c0.041,0.023,0.081,0.049,0.121,0.073c0.084,0.054,0.166,0.105,0.246,0.168c0.043,0.03,0.086,0.062,0.128,0.096
				c0.104,0.083,0.205,0.172,0.299,0.265c0.038,0.039,0.073,0.081,0.109,0.12c0.061,0.066,0.121,0.135,0.178,0.206
				c0.039,0.05,0.077,0.102,0.114,0.152c0.053,0.077,0.106,0.156,0.154,0.237c0.026,0.045,0.053,0.087,0.081,0.133
				c0.068,0.126,0.129,0.256,0.183,0.391c0.021,0.053,0.04,0.106,0.058,0.158c0.035,0.099,0.065,0.197,0.091,0.297
				c0.013,0.054,0.028,0.101,0.039,0.152c0.032,0.145,0.054,0.289,0.068,0.437c0.003,0.037,0.003,0.078,0.006,0.116
				C23.4,31.207,23.402,31.33,23.398,31.453z"/>
		</g>
	</g>
	<g>
		<g>
			<path fill="#1B1F32" d="M39.358,21.214h-1.673c-0.224,0.001-0.423-0.139-0.495-0.349c-0.166-0.494-0.365-0.976-0.598-1.441
				c-0.099-0.202-0.058-0.443,0.102-0.601l1.187-1.188c0.622-0.623,0.622-1.632,0-2.255l-2.262-2.257
				c-0.623-0.623-1.632-0.623-2.255,0l-1.186,1.185c-0.157,0.159-0.398,0.201-0.6,0.103c-0.466-0.234-0.947-0.435-1.442-0.601
				c-0.211-0.072-0.353-0.272-0.351-0.496v-1.672c0-0.881-0.715-1.595-1.596-1.595H25c-0.881,0-1.595,0.714-1.595,1.595v1.672
				c0.002,0.223-0.138,0.422-0.349,0.496c-0.494,0.166-0.976,0.366-1.441,0.6c-0.201,0.099-0.443,0.058-0.6-0.102l-1.188-1.186
				c-0.624-0.621-1.631-0.621-2.255,0l-2.257,2.257c-0.623,0.623-0.623,1.633,0,2.256l1.744,1.747
				c0.211,0.204,0.547,0.199,0.752-0.012c0.199-0.206,0.199-0.532,0.001-0.739l-1.746-1.747c-0.207-0.208-0.207-0.544,0-0.752
				l2.257-2.257c0.208-0.208,0.544-0.208,0.751,0l1.188,1.186c0.48,0.483,1.217,0.604,1.827,0.299
				c0.421-0.21,0.857-0.392,1.304-0.542c0.645-0.218,1.077-0.824,1.074-1.505v-1.672c0-0.293,0.238-0.532,0.532-0.532h3.19
				c0.294,0,0.533,0.239,0.533,0.532v1.672c-0.004,0.681,0.429,1.287,1.074,1.504c0.446,0.15,0.882,0.331,1.303,0.542
				c0.61,0.303,1.347,0.182,1.827-0.3l1.188-1.186c0.208-0.208,0.544-0.208,0.752,0l2.258,2.258c0.206,0.207,0.206,0.543,0,0.751
				l-1.187,1.188c-0.482,0.481-0.604,1.217-0.3,1.827c0.21,0.421,0.393,0.857,0.542,1.303c0.218,0.645,0.824,1.078,1.505,1.075
				h1.673c0.293,0,0.531,0.239,0.531,0.532V26c0,0.294-0.238,0.532-0.531,0.532h-1.673c-0.681-0.003-1.287,0.431-1.505,1.074
				c-0.149,0.447-0.331,0.883-0.542,1.304c-0.303,0.61-0.183,1.346,0.301,1.827l1.186,1.188c0.207,0.208,0.207,0.544,0,0.752
				l-2.258,2.257c-0.208,0.207-0.544,0.207-0.752,0l-1.746-1.743c-0.205-0.211-0.542-0.217-0.753-0.013
				c-0.212,0.204-0.216,0.541-0.012,0.753c0.004,0.003,0.009,0.009,0.014,0.013l1.746,1.743c0.623,0.622,1.632,0.622,2.255,0
				l2.257-2.256c0.623-0.623,0.623-1.633,0-2.256l-1.184-1.187c-0.16-0.157-0.201-0.399-0.103-0.6
				c0.233-0.466,0.435-0.948,0.601-1.442c0.072-0.212,0.271-0.353,0.495-0.352h1.673c0.881,0,1.595-0.714,1.595-1.595v-3.191
				C40.953,21.928,40.239,21.214,39.358,21.214z"/>
		</g>
	</g>
	<g>
		<g>
			<path fill="#1B1F32" d="M31.483,19.517c-2.701-2.696-7.075-2.696-9.776,0c-0.204,0.211-0.198,0.548,0.013,0.752
				c0.207,0.198,0.533,0.198,0.739,0c2.269-2.3,5.973-2.325,8.272-0.056c2.3,2.269,2.324,5.972,0.055,8.272
				c-0.017,0.019-0.036,0.037-0.055,0.056c-0.212,0.203-0.218,0.54-0.014,0.752c0.205,0.211,0.542,0.217,0.752,0.013
				c0.005-0.004,0.01-0.008,0.014-0.013C34.179,26.592,34.179,22.218,31.483,19.517z"/>
		</g>
	</g>
</g>
</svg>
