<?xml version="1.0" encoding="utf-8"?>
<!-- Generator: Adobe Illustrator 25.2.0, SVG Export Plug-In . SVG Version: 6.00 Build 0)  -->
<svg version="1.1" baseProfile="tiny" id="Layer_1" xmlns="http://www.w3.org/2000/svg" xmlns:xlink="http://www.w3.org/1999/xlink"
	 x="0px" y="0px" viewBox="0 0 50 50" overflow="visible" xml:space="preserve">
<g>
	<g>
		<circle fill="#FFC101" cx="25" cy="25" r="24.5"/>
	</g>
</g>
<g id="surface1_1_">
	<path stroke="#020202" stroke-width="0.4" stroke-miterlimit="10" d="M37.1,24.3L36,23.8V23c0-4.7-2.9-8.9-7.4-10.4v-1.1
		c0-0.3-0.3-0.6-0.6-0.6h-6.2c-0.3,0-0.6,0.3-0.6,0.6v1.1c-4.4,1.5-7.4,5.7-7.4,10.4v0.8l-1.1,0.5c-0.2,0.1-0.4,0.3-0.4,0.5v3
		c0,0.3,0.3,0.6,0.6,0.6h0.8v1.2c0,0.3,0.3,0.6,0.6,0.6h2.1c0.2,0.7,0.5,1.4,0.9,2.1l-1.5,1.5c-0.2,0.2-0.2,0.6,0,0.8l2.5,2.5
		c0.2,0.2,0.6,0.2,0.8,0l1.5-1.5c0.6,0.4,1.3,0.7,2.1,0.9v2.1c0,0.3,0.3,0.6,0.6,0.6h3.5c0.3,0,0.6-0.3,0.6-0.6v-2.1
		c0.7-0.2,1.4-0.5,2.1-0.9l1.5,1.5c0.2,0.2,0.6,0.2,0.8,0l2.5-2.5c0.2-0.2,0.2-0.6,0-0.8l-1.5-1.5c0.4-0.6,0.7-1.3,0.9-2.1h2.1
		c0.3,0,0.6-0.3,0.6-0.6v-1.2h0.8c0.3,0,0.6-0.3,0.6-0.6v-3C37.5,24.6,37.3,24.4,37.1,24.3z M22.5,12.1h5v9.7h-5L22.5,12.1z M35,29
		h-1.9c-0.3,0-0.5,0.2-0.6,0.5c-0.2,0.9-0.6,1.8-1.1,2.5c-0.1,0.2-0.1,0.5,0.1,0.7l1.4,1.4l-1.7,1.6l-1.4-1.4
		c-0.2-0.2-0.5-0.2-0.7-0.1c-0.8,0.5-1.6,0.9-2.5,1.1c-0.3,0.1-0.5,0.3-0.5,0.6v1.9h-2.3v-2c0-0.3-0.2-0.5-0.5-0.6
		c-0.9-0.2-1.8-0.6-2.5-1.1c-0.2-0.1-0.5-0.1-0.7,0.1l-1.4,1.4l-1.6-1.6l1.4-1.4c0.2-0.2,0.2-0.5,0.1-0.7c-0.5-0.8-0.9-1.6-1.1-2.5
		c-0.1-0.3-0.3-0.5-0.6-0.5H15v-0.6h5.3c0.3,2.6,2.7,4.5,5.3,4.2c2.2-0.3,3.9-2,4.2-4.2H35L35,29z M21.4,28.4h7.1
		c-0.3,2-2.2,3.3-4.1,3C22.9,31.2,21.7,30,21.4,28.4L21.4,28.4z M36.3,27.3H13.7v-2.1l1.1-0.5c0.2-0.1,0.4-0.3,0.4-0.5V23
		c0-4,2.4-7.7,6.2-9.2v8.5c0,0.3,0.3,0.6,0.6,0.6h6.2c0.3,0,0.6-0.3,0.6-0.6v-8.5c3.8,1.5,6.2,5.1,6.2,9.2v1.2
		c0,0.2,0.1,0.4,0.4,0.5l1.1,0.5L36.3,27.3L36.3,27.3z"/>
</g>
</svg>
