<?xml version="1.0" encoding="utf-8"?>
<!-- Generator: Adobe Illustrator 25.2.0, SVG Export Plug-In . SVG Version: 6.00 Build 0)  -->
<svg version="1.1" id="Layer_1" xmlns="http://www.w3.org/2000/svg" xmlns:xlink="http://www.w3.org/1999/xlink" x="0px" y="0px"
	 viewBox="0 0 50 50" style="enable-background:new 0 0 50 50;" xml:space="preserve">

	
	
	
	
	
	
	
	
	
	
	
	
	
	
	
	
	
	
	
	

<circle fill="#FFC101" cx="25" cy="25.2" r="24.5"/>
<g>
	<path fill="#3B3B3C" d="M32.9,24.6h-1.7c-0.1-0.4-0.3-0.8-0.5-1.2l1.2-1.2c0.3-0.3,0.5-0.8,0.5-1.2c0-0.5-0.2-0.9-0.5-1.2l-1.4-1.4
		c-0.3-0.3-0.8-0.5-1.2-0.5c0,0,0,0,0,0c-0.5,0-0.9,0.2-1.2,0.5l-1.2,1.2c-0.4-0.2-0.8-0.4-1.2-0.5v-1.7c0-1-0.8-1.7-1.7-1.7h-2
		c-1,0-1.7,0.8-1.7,1.7v1.7c-0.4,0.1-0.8,0.3-1.2,0.5l-1.2-1.2c-0.7-0.7-1.8-0.7-2.5,0L14,19.8c-0.3,0.3-0.5,0.8-0.5,1.2
		c0,0.5,0.2,0.9,0.5,1.2l1.2,1.2c-0.2,0.4-0.4,0.8-0.5,1.2H13c-1,0-1.7,0.8-1.7,1.7v2c0,1,0.8,1.7,1.7,1.7h1.7
		c0.1,0.4,0.3,0.8,0.5,1.2L14,32.5c-0.7,0.7-0.7,1.8,0,2.5l1.4,1.4c0.7,0.7,1.8,0.7,2.5,0l1.2-1.2c0.4,0.2,0.8,0.4,1.2,0.5v1.7
		c0,1,0.8,1.7,1.7,1.7h2c1,0,1.7-0.8,1.7-1.7v-1.7c0.4-0.1,0.8-0.3,1.2-0.5l1.2,1.2c0.7,0.7,1.8,0.7,2.5,0l1.4-1.4
		c0.3-0.3,0.5-0.8,0.5-1.2s-0.2-0.9-0.5-1.2l-1.2-1.2c0.2-0.4,0.4-0.8,0.5-1.2h1.7c1,0,1.7-0.8,1.7-1.7v-2
		C34.7,25.4,33.9,24.6,32.9,24.6z M30,29.2c-0.2,0.7-0.4,1.3-0.8,1.9c-0.2,0.3-0.1,0.7,0.1,0.9l1.6,1.6c0,0,0.1,0.1,0.1,0.2
		s0,0.1-0.1,0.2l-1.4,1.4c0,0-0.1,0.1-0.2,0.1c-0.1,0-0.1,0-0.2-0.1l-1.6-1.6c-0.2-0.2-0.6-0.3-0.9-0.1c-0.6,0.3-1.2,0.6-1.9,0.8
		c-0.3,0.1-0.6,0.4-0.6,0.7v2.2c0,0.1-0.1,0.2-0.2,0.2h-2c-0.1,0-0.2-0.1-0.2-0.2v-2.2c0-0.3-0.2-0.6-0.6-0.7
		c-0.7-0.2-1.3-0.4-1.9-0.8c-0.1-0.1-0.2-0.1-0.4-0.1c-0.2,0-0.4,0.1-0.5,0.2l-1.6,1.6c-0.1,0.1-0.3,0.1-0.4,0l-1.4-1.4
		c0,0-0.1-0.1-0.1-0.2c0-0.1,0-0.1,0.1-0.2l1.6-1.6c0.2-0.2,0.3-0.6,0.1-0.9c-0.3-0.6-0.6-1.2-0.8-1.9c-0.1-0.3-0.4-0.6-0.7-0.6H13
		c-0.1,0-0.2-0.1-0.2-0.2v-2c0-0.1,0.1-0.2,0.2-0.2h2.2c0.3,0,0.6-0.2,0.7-0.6c0.2-0.7,0.4-1.3,0.8-1.9c0.2-0.3,0.1-0.7-0.1-0.9
		l-1.6-1.6c-0.1-0.1-0.1-0.3,0-0.4l1.4-1.4c0.1-0.1,0.3-0.1,0.4,0l1.6,1.6c0.2,0.2,0.6,0.3,0.9,0.1c0.6-0.3,1.2-0.6,1.9-0.8
		c0.3-0.1,0.6-0.4,0.6-0.7v-2.2c0-0.1,0.1-0.2,0.2-0.2h2c0.1,0,0.2,0.1,0.2,0.2v2.2c0,0.3,0.2,0.6,0.6,0.7c0.7,0.2,1.3,0.4,1.9,0.8
		c0.3,0.2,0.7,0.1,0.9-0.1l1.6-1.6c0.1-0.1,0.3-0.1,0.4,0l1.4,1.4c0,0,0.1,0.1,0.1,0.2c0,0.1,0,0.1-0.1,0.2l-1.6,1.6
		c-0.2,0.2-0.3,0.6-0.1,0.9c0.3,0.6,0.6,1.2,0.8,1.9c0.1,0.3,0.4,0.6,0.7,0.6h2.2c0.1,0,0.2,0.1,0.2,0.2v2c0,0.1-0.1,0.2-0.2,0.2
		h-2.2C30.3,28.6,30,28.9,30,29.2z"/>
	<path fill="#3B3B3C" d="M23,21.9c-3.1,0-5.6,2.5-5.6,5.6c0,3.1,2.5,5.6,5.6,5.6c3.1,0,5.6-2.5,5.6-5.6C28.6,24.4,26.1,21.9,23,21.9z
		 M26.9,27.5c0,2.2-1.8,3.9-3.9,3.9S19,29.7,19,27.5c0-2.2,1.8-3.9,3.9-3.9S26.9,25.3,26.9,27.5z"/>
	<path fill="#3B3B3C" d="M40.8,18.6c-0.2-0.3-0.6-0.5-1-0.5l-1.3-0.1c-0.1-0.3-0.2-0.6-0.3-0.9l1-0.8c0.3-0.2,0.5-0.6,0.5-1
		c0-0.4-0.1-0.8-0.3-1.1l-1-1.3c-0.2-0.3-0.6-0.5-1-0.5c-0.4,0-0.8,0.1-1.1,0.3l-1,0.8c-0.3-0.2-0.6-0.3-0.9-0.5l0.1-1.3
		c0-0.4-0.1-0.8-0.3-1.1c-0.2-0.3-0.6-0.5-1-0.5l-1.6-0.2c-0.4,0-0.8,0.1-1.1,0.3c-0.3,0.2-0.5,0.6-0.5,1L30,12.5
		c-0.3,0.1-0.6,0.2-0.9,0.3l-0.8-1c-0.5-0.6-1.4-0.7-2.1-0.2l-1.3,1c-0.2,0.2-0.3,0.4-0.4,0.6l-0.1,0.3l1.3,0.2l1.4-1.1
		c0.1-0.1,0.2,0,0.2,0l1.1,1.4c0.2,0.2,0.5,0.3,0.8,0.2c0.5-0.2,1-0.4,1.6-0.5c0.3,0,0.5-0.3,0.6-0.6l0.2-1.8c0-0.1,0.1-0.1,0.2-0.1
		l1.6,0.2c0,0,0.1,0,0.1,0.1c0,0,0,0.1,0,0.1l-0.2,1.8c0,0.3,0.1,0.6,0.4,0.7c0.5,0.2,1,0.5,1.4,0.8c0.2,0.2,0.6,0.2,0.8,0l1.4-1.1
		c0,0,0.1,0,0.1,0c0,0,0.1,0,0.1,0.1l1,1.3c0,0,0,0.1,0,0.1c0,0,0,0.1-0.1,0.1L37,16.3c-0.2,0.2-0.3,0.5-0.2,0.8
		c0.2,0.5,0.4,1,0.5,1.6c0,0.3,0.3,0.5,0.6,0.6l1.8,0.2c0,0,0.1,0,0.1,0.1c0,0,0,0.1,0,0.1l-0.2,1.6c0,0,0,0.1-0.1,0.1
		c0,0-0.1,0-0.1,0l-1.8-0.2c-0.3,0-0.6,0.1-0.7,0.4c-0.2,0.5-0.5,1-0.8,1.4c-0.2,0.2-0.2,0.6,0,0.8l1.1,1.4c0,0,0,0.1,0,0.1
		c0,0,0,0.1-0.1,0.1L37,25.6l0.9,0.9l0.2-0.1c0.3-0.2,0.5-0.6,0.5-1c0-0.4-0.1-0.8-0.3-1.1l-0.8-1c0.2-0.3,0.3-0.6,0.5-0.9l1.3,0.1
		c0.4,0,0.8-0.1,1.1-0.3c0.3-0.2,0.5-0.6,0.5-1l0.2-1.6C41.1,19.3,41,18.9,40.8,18.6z"/>
	<path fill="#3B3B3C" d="M33.3,20.6l0.9,0.9l0.2-0.2c0.6-0.7,0.9-1.6,0.9-2.5c-0.1-2-1.8-3.6-3.9-3.5c-0.7,0-1.4,0.3-2,0.7l-0.2,0.2
		L30,17l0.2-0.1c0.4-0.3,0.8-0.4,1.3-0.4c0.6,0,1.3,0.2,1.7,0.6c0.5,0.4,0.8,1,0.8,1.7c0,0.6-0.2,1.1-0.5,1.6L33.3,20.6z"/>
</g>
</svg>
