<?xml version="1.0" encoding="utf-8"?>
<!-- Generator: Adobe Illustrator 25.2.0, SVG Export Plug-In . SVG Version: 6.00 Build 0)  -->
<svg version="1.1" baseProfile="tiny" id="Layer_1" xmlns="http://www.w3.org/2000/svg" xmlns:xlink="http://www.w3.org/1999/xlink"
	 x="0px" y="0px" viewBox="0 0 100 100" overflow="visible" xml:space="preserve">
<g>
	<path fill="#2D2D2D" d="M30.3,44.3h-9.6c-2.1,0-3.8,1.7-3.8,3.8v9.6c0,2.1,1.7,3.8,3.8,3.8h9.6c2.1,0,3.8-1.7,3.8-3.8v-9.6
		C34.1,46.1,32.4,44.3,30.3,44.3z M30.2,57.6h-9.4v-9.4h9.4V57.6z"/>
	<path fill="#2D2D2D" d="M54.8,44.3h-9.6c-2.1,0-3.8,1.7-3.8,3.8v9.6c0,2.1,1.7,3.8,3.8,3.8h9.6c2.1,0,3.8-1.7,3.8-3.8v-9.6
		C58.6,46.1,56.9,44.3,54.8,44.3z M54.7,57.6h-9.4v-9.4h9.4V57.6z"/>
	<path fill="#2D2D2D" d="M30.3,67.4h-9.6c-2.1,0-3.8,1.7-3.8,3.8v9.6c0,2.1,1.7,3.8,3.8,3.8h9.6c2.1,0,3.8-1.7,3.8-3.8v-9.6
		C34.1,69.1,32.4,67.4,30.3,67.4z M30.2,80.7h-9.4v-9.4h9.4V80.7z"/>
	<path fill="#2D2D2D" d="M54.8,67.4h-9.6c-2.1,0-3.8,1.7-3.8,3.8v9.6c0,2.1,1.7,3.8,3.8,3.8h9.6c2.1,0,3.8-1.7,3.8-3.8v-9.6
		C58.6,69.1,56.9,67.4,54.8,67.4z M54.7,80.7h-9.4v-9.4h9.4V80.7z"/>
	<path fill="#2D2D2D" d="M79.4,44.3h-9.6c-2.1,0-3.8,1.7-3.8,3.8v9.6c0,2.1,1.7,3.8,3.8,3.8h9.6c2.1,0,3.8-1.7,3.8-3.8v-9.6
		C83.2,46.1,81.5,44.3,79.4,44.3z M79.3,57.6h-9.4v-9.4h9.4V57.6z"/>
	<path fill="#2D2D2D" d="M73.3,21.2c1.9,0,3.4-1.5,3.4-3.4V6.3c0-1.9-1.5-3.4-3.4-3.4c-1.9,0-3.4,1.5-3.4,3.4v11.5
		C69.8,19.7,71.4,21.2,73.3,21.2z"/>
	<path fill="#2D2D2D" d="M26.6,21.2L26.6,21.2c1.9,0,3.4-1.5,3.4-3.4V6.3c0-1.9-1.5-3.4-3.4-3.4h0c-1.9,0-3.4,1.5-3.4,3.4v11.5
		C23.1,19.7,24.7,21.2,26.6,21.2z"/>
	<rect x="32.1" y="10.1" fill="#2D2D2D" width="35.6" height="3.9"/>
	<path fill="#2D2D2D" d="M87.8,10.1h-9V14h9c3.5,0,6.3,2.8,6.3,6.3V31H5.8V20.3c0-3.5,2.8-6.3,6.3-6.3H21v-3.9h-8.8
		c-5.7,0-10.2,4.6-10.2,10.2v66.6c0,5.7,4.6,10.2,10.2,10.2h75.6c5.7,0,10.2-4.6,10.2-10.2V20.3C98.1,14.7,93.5,10.1,87.8,10.1z
		 M87.8,93.2H12.2c-3.5,0-6.3-2.8-6.3-6.3v-52h88.3v52C94.2,90.4,91.3,93.2,87.8,93.2z"/>
</g>
</svg>
