<svg id="Layer_1" data-name="Layer 1" xmlns="http://www.w3.org/2000/svg" viewBox="0 0 100 100"><path d="M31,44.3h-9.6a3.8,3.8,0,0,0-3.8,3.8v9.6a3.8,3.8,0,0,0,3.8,3.8H31a3.8,3.8,0,0,0,3.8-3.8V48.1A3.86,3.86,0,0,0,31,44.3Zm-.1,13.3h-9.4V48.2h9.4Z"/><path d="M55.49,44.3h-9.6a3.8,3.8,0,0,0-3.8,3.8v9.6a3.8,3.8,0,0,0,3.8,3.8h9.6a3.8,3.8,0,0,0,3.8-3.8V48.1A3.86,3.86,0,0,0,55.49,44.3Zm-.1,13.3H46V48.2h9.4Z"/><path d="M31,67.4h-9.6a3.8,3.8,0,0,0-3.8,3.8v9.6a3.8,3.8,0,0,0,3.8,3.8H31a3.8,3.8,0,0,0,3.8-3.8V71.2A3.8,3.8,0,0,0,31,67.4Zm-.1,13.3h-9.4V71.3h9.4Z"/><path d="M55.49,67.4h-9.6a3.8,3.8,0,0,0-3.8,3.8v9.6a3.8,3.8,0,0,0,3.8,3.8h9.6a3.8,3.8,0,0,0,3.8-3.8V71.2A3.8,3.8,0,0,0,55.49,67.4Zm-.1,13.3H46V71.3h9.4Z"/><path d="M80.09,44.3h-9.6a3.8,3.8,0,0,0-3.8,3.8v9.6a3.8,3.8,0,0,0,3.8,3.8h9.6a3.8,3.8,0,0,0,3.8-3.8V48.1A3.86,3.86,0,0,0,80.09,44.3ZM80,57.6h-9.4V48.2H80Z"/><path d="M74,21.2a3.37,3.37,0,0,0,3.4-3.4V6.3a3.4,3.4,0,0,0-6.8,0V17.8A3.31,3.31,0,0,0,74,21.2Z"/><path d="M27.29,21.2h0a3.37,3.37,0,0,0,3.4-3.4V6.3a3.37,3.37,0,0,0-3.4-3.4h0a3.37,3.37,0,0,0-3.4,3.4V17.8A3.31,3.31,0,0,0,27.29,21.2Z"/><rect x="32.79" y="10.1" width="35.6" height="3.9"/><path d="M88.49,10.1h-9V14h9a6.27,6.27,0,0,1,6.3,6.3V31H6.49V20.3a6.27,6.27,0,0,1,6.3-6.3h8.9V10.1h-8.8A10.18,10.18,0,0,0,2.69,20.3V86.9a10.18,10.18,0,0,0,10.2,10.2h75.6a10.18,10.18,0,0,0,10.2-10.2V20.3A10.12,10.12,0,0,0,88.49,10.1Zm0,83.1H12.89a6.27,6.27,0,0,1-6.3-6.3v-52h88.3v52A6.36,6.36,0,0,1,88.49,93.2Z"/></svg>