<?xml version="1.0" encoding="utf-8"?>
<!-- Generator: Adobe Illustrator 16.0.0, SVG Export Plug-In . SVG Version: 6.00 Build 0)  -->
<!DOCTYPE svg PUBLIC "-//W3C//DTD SVG 1.1//EN" "http://www.w3.org/Graphics/SVG/1.1/DTD/svg11.dtd">
<svg version="1.1" id="Layer_1" xmlns="http://www.w3.org/2000/svg" xmlns:xlink="http://www.w3.org/1999/xlink" x="0px" y="0px"
	 width="130px" height="130px" viewBox="0 0 130 130" enable-background="new 0 0 130 130" xml:space="preserve">
<g>
	<g>
		<path fill="#FF0D37" d="M111.494,39.805c0.023-25.524-20.717-26.628-20.717-26.628l-48.135,2.547
			C5.373,20.392,6.676,39.126,6.676,39.126s-2.943,23.318,4.753,42.335c7.695,19.014,21.733,19.697,21.733,19.697l2.157,0.086
			l0.333,21.306c0.285,3.851,5.619,1.987,7.209,0.396l27.646-20.293l2.492,0.136l13.138-0.042
			C117.016,101.455,111.494,39.805,111.494,39.805z"/>
	</g>
	<g>
		<circle fill="#F2C351" cx="106.875" cy="22.875" r="17.875"/>
		<path fill="#FFFFFF" d="M106.875,42.25c-10.684,0-19.375-8.691-19.375-19.375S96.191,3.5,106.875,3.5s19.374,8.691,19.374,19.375
			S117.559,42.25,106.875,42.25z M106.875,6.501c-9.029,0-16.375,7.346-16.375,16.375s7.346,16.375,16.375,16.375
			c9.027,0,16.374-7.346,16.374-16.375S115.902,6.501,106.875,6.501z"/>
	</g>
	<g>
		<path fill="#FF0D37" d="M106.876,25.114c-0.146-0.137-0.229-0.336-0.258-0.597l-0.761-8.001l-0.021-0.206
			c0-0.425,0.146-0.764,0.441-1.018s0.668-0.381,1.121-0.381c0.479,0,0.871,0.147,1.172,0.442c0.303,0.295,0.426,0.689,0.371,1.183
			l-0.762,7.98c-0.027,0.261-0.113,0.459-0.258,0.597c-0.146,0.137-0.318,0.206-0.523,0.206
			C107.193,25.32,107.02,25.251,106.876,25.114z M106.311,29.197c-0.287-0.294-0.433-0.661-0.433-1.101
			c0-0.438,0.146-0.805,0.433-1.1s0.65-0.442,1.09-0.442c0.438,0,0.804,0.147,1.092,0.442c0.287,0.295,0.432,0.662,0.432,1.1
			c0,0.439-0.145,0.806-0.432,1.101c-0.288,0.295-0.651,0.442-1.092,0.442C106.961,29.639,106.598,29.492,106.311,29.197z"/>
	</g>
</g>
<g>
	<path fill="#F7D881" d="M57.957,43.815h26.564l2.044-3.065h4.087l-2.045,20.434h-30.65V43.815z"/>
	<path fill="#534F44" d="M51.827,56.075h3.064v8.173h-3.064V56.075z"/>
	<path fill="#9E968D" d="M88.606,64.277v6.122c0,1.121-0.902,2.033-2.022,2.043L65.108,72.45v-2.072H40.587v-2.042h-5.109v-4.087
		L88.606,64.277z"/>
	<path fill="#F2C351" d="M35.479,56.075l7.567-11.35c0.379-0.57,1.018-0.91,1.699-0.91h7.082v20.433H29.349v-6.13
		c0-1.129,0.916-2.043,2.044-2.043H35.479z"/>
	<path fill="#F7D881" d="M44.674,64.277l-15.326-0.028v-6.13c0-1.129,0.916-2.043,2.044-2.043h17.368v4.116
		C46.505,60.191,44.674,62.021,44.674,64.277z"/>
	<path fill="#E7E4DD" d="M29.349,60.162v-2.043c0-1.129,0.916-2.043,2.044-2.043h2.043v3.065c0,0.564-0.458,1.022-1.022,1.022
		H29.349z"/>
	<path fill="#C7E2FC" d="M35.479,56.075h13.282V46.88h-7.151L35.479,56.075z"/>
	<path fill="#7F786B" d="M35.479,70.378h-3.065c-1.693,0-3.065-1.371-3.065-3.064v-3.065h6.13V70.378z"/>
	<g>
		<circle fill="#534F44" cx="43.653" cy="72.451" r="5.109"/>
		<circle fill="#534F44" cx="70.217" cy="72.451" r="5.109"/>
		<circle fill="#534F44" cx="80.435" cy="72.451" r="5.109"/>
	</g>
	<g>
		<path fill="#CBC3B6" d="M43.653,74.492c-1.127,0-2.043-0.915-2.043-2.042c0-1.129,0.916-2.044,2.043-2.044
			c1.127,0,2.044,0.915,2.044,2.044C45.697,73.577,44.78,74.492,43.653,74.492z M43.653,72.448v0.002V72.448z"/>
	</g>
	<g>
		<path fill="#CBC3B6" d="M70.217,74.492c-1.127,0-2.043-0.915-2.043-2.042c0-1.129,0.916-2.044,2.043-2.044
			s2.044,0.915,2.044,2.044C72.259,73.577,71.343,74.492,70.217,74.492z"/>
	</g>
	<g>
		<path fill="#CBC3B6" d="M80.435,74.492c-1.127,0-2.044-0.915-2.044-2.042c0-1.129,0.917-2.044,2.044-2.044
			c1.126,0,2.042,0.915,2.042,2.044C82.477,73.577,81.561,74.492,80.435,74.492z M80.435,72.448v0.002V72.448z"/>
	</g>
	<path fill="#534F44" d="M29.349,67.313c0,0.36,0.074,0.7,0.188,1.021h5.942v-2.043h-6.129V67.313z"/>
	<path fill="#F2C351" d="M60,72.423h-6.13c-1.129,0-2.043-0.915-2.043-2.045c0-1.128,0.914-2.042,2.043-2.042H60
		c1.128,0,2.043,0.914,2.043,2.042C62.043,71.508,61.128,72.423,60,72.423z"/>
	<path fill="#F2C351" d="M54.891,40.75v23.499h35.761v-3.065H57.957V40.75H54.891z"/>
	<g>
		<path fill="#F2C351" d="M60,45.858h2.043V59.14H60V45.858z"/>
	</g>
	<g>
		<path fill="#F2C351" d="M64.086,45.858h2.043V59.14h-2.043V45.858z"/>
	</g>
	<g>
		<path fill="#F2C351" d="M68.174,45.858h2.043V59.14h-2.043V45.858z"/>
	</g>
	<g>
		<path fill="#F2C351" d="M72.261,45.858h2.043V59.14h-2.043V45.858z"/>
	</g>
	<g>
		<path fill="#F2C351" d="M76.347,45.858h2.044V59.14h-2.044V45.858z"/>
	</g>
	<g>
		<path fill="#F2C351" d="M80.435,45.858h2.042V59.14h-2.042V45.858z"/>
	</g>
	<g>
		<path fill="#F2C351" d="M84.521,45.858h2.044V59.14h-2.044V45.858z"/>
	</g>
	<path fill="#EBF7FE" d="M35.479,56.075h7.795c1.988-1.946,3.228-4.658,3.228-7.663c0-0.521-0.051-1.03-0.123-1.532h-4.77
		L35.479,56.075z"/>
</g>
</svg>
