<svg id="Layer_1" data-name="Layer 1" xmlns="http://www.w3.org/2000/svg" viewBox="0 0 100 100"><polygon points="5.13 84.43 58.65 93.82 58.65 8 5.13 17.39 5.13 84.43" fill="#006941"/><rect x="61.26" y="17.39" width="33.61" height="67.05" fill="#006941"/><rect x="61.26" y="24.19" width="8.45" height="9.2" fill="#fff"/><rect x="61.26" y="38.93" width="8.45" height="9.2" fill="#fff"/><rect x="61.26" y="53.68" width="8.45" height="9.2" fill="#fff"/><rect x="61.26" y="68.42" width="8.45" height="9.2" fill="#fff"/><rect x="74.03" y="24.19" width="14.74" height="9.2" fill="#fff"/><rect x="74.03" y="38.93" width="14.74" height="9.2" fill="#fff"/><rect x="74.03" y="53.68" width="14.74" height="9.2" fill="#fff"/><rect x="74.03" y="68.42" width="14.74" height="9.2" fill="#fff"/><path d="M42,69.12a2,2,0,0,1-1.71-1L20.07,35.84a2,2,0,0,1,3.36-2.25l.07.12L43.71,66a2,2,0,0,1-.65,2.79A2,2,0,0,1,42,69.12Z" fill="#fff"/><path d="M21.79,69.12A2,2,0,0,1,20.08,66L40.28,33.7a2,2,0,0,1,3.5,2l-.07.11L23.5,68.17A2,2,0,0,1,21.79,69.12Z" fill="#fff"/></svg>