<?xml version="1.0" encoding="utf-8"?>
<!-- Generator: Adobe Illustrator 16.0.0, SVG Export Plug-In . SVG Version: 6.00 Build 0)  -->
<!DOCTYPE svg PUBLIC "-//W3C//DTD SVG 1.1//EN" "http://www.w3.org/Graphics/SVG/1.1/DTD/svg11.dtd">
<svg version="1.1" id="Layer_1" xmlns="http://www.w3.org/2000/svg" xmlns:xlink="http://www.w3.org/1999/xlink" x="0px" y="0px"
	 width="200px" height="85.5px" viewBox="0 0 200 85.5" enable-background="new 0 0 200 85.5" xml:space="preserve">
<g>
	<ellipse fill="#FFFFFF" cx="45.516" cy="42.757" rx="37.361" ry="37.397"/>
	<g>
		<g>
			<g>
				<defs>
					<circle id="SVGID_1_" cx="45.802" cy="42.75" r="37.721"/>
				</defs>
				<clipPath id="SVGID_2_">
					<use xlink:href="#SVGID_1_"  overflow="visible"/>
				</clipPath>
				<path clip-path="url(#SVGID_2_)" fill="#353536" d="M6.324,12.27c0,0,22.619-0.266,24.944,3.963l0.317,5.761
					c0,0,0.582,0.581,0.688-0.634c0,0,1.215-6.606,6.764-7.663c0,0,4.281,1.902,2.801,12.524h5.497l0.317,5.973l4.122,5.813
					c0,0,5.919,0.952,8.72-0.475c0,0,0.211,3.805-2.325,6.605c0,0,8.879,3.383,18.973-3.753c0,0-0.423,9.884-17.229,15.327
					c0,0,1.005,10.039-10.887,11.256c0,0-8.773-8.35-15.062-8.297l-0.423-4.916l-2.377-4.016l-0.952-0.053l0.634,2.01l-0.211,3.434
					c0,0-7.875,9.988,0.687,18.92H6.482L6.324,12.27z"/>
			</g>
		</g>
		<path fill="#FFFFFF" d="M43.371,39.873c0,0,4.451,0.821,4.862,5.754C48.233,45.627,43.576,45.42,43.371,39.873z"/>
	</g>
	<g>
		<g>
			<path fill="#FFFFFF" d="M92.37,35.416V18.88c0-0.493,0.338-0.832,0.832-0.832h6.578c3.587,0,5.408,2.235,5.408,5.044
				c0,2.158-1.117,3.641-3.223,4.343c2.313,0.494,2.885,2.365,2.885,4.107c0,1.3,0.131,2.574,0.416,3.588
				c0.053,0.156,0.078,0.313,0.078,0.442c0,0.441-0.285,0.676-0.857,0.676h-0.754c-0.287,0-0.598-0.182-0.703-0.441
				c-1.43-3.381,0.808-7.357-4.159-7.357h-4.082v6.968c0,0.494-0.338,0.832-0.832,0.832h-0.754
				C92.708,36.248,92.37,35.91,92.37,35.416z M94.788,20.128v6.24h4.654c2.132,0,3.277-1.353,3.277-3.095s-1.092-3.146-3.277-3.146
				L94.788,20.128L94.788,20.128z"/>
			<path fill="#FFFFFF" d="M104.486,37.248h-0.754c-0.707,0-1.379-0.439-1.631-1.069c-0.535-1.265-0.611-2.565-0.681-3.713
				c-0.129-2.194-0.178-3.017-2.552-3.017h-3.082v5.968c0,1.044-0.788,1.832-1.832,1.832h-0.754c-1.044,0-1.832-0.788-1.832-1.832
				V18.88c0-1.044,0.788-1.832,1.832-1.832h6.578c3.833,0,6.409,2.43,6.409,6.044c0,1.822-0.695,3.297-1.998,4.3
				c1.084,0.891,1.66,2.307,1.66,4.15c0,1.271,0.135,2.449,0.379,3.317c0.069,0.205,0.114,0.468,0.114,0.713
				C106.344,36.406,105.77,37.248,104.486,37.248z M103.883,35.248h0.381c-0.275-1.063-0.414-2.325-0.414-3.706
				c0-1.938-0.774-2.661-1.547-2.969c0.951,0.992,1.039,2.477,1.115,3.774C103.477,33.322,103.535,34.328,103.883,35.248z
				 M93.37,35.248h0.418v-7.8h4.971l0.24-0.08h-5.211v-8.24h5.654c2.558,0,4.277,1.666,4.277,4.146c0,1.04-0.311,1.934-0.861,2.62
				c0.894-0.632,1.33-1.559,1.33-2.802c0-2.531-1.646-4.044-4.408-4.044h-6.41V35.248z M95.788,25.368h3.654
				c1.447,0,2.277-0.764,2.277-2.095c0-0.646-0.223-2.146-2.277-2.146h-3.654V25.368z"/>
		</g>
		<g>
			<path fill="#FFFFFF" d="M111.014,35.416V18.88c0-0.493,0.338-0.832,0.832-0.832h0.779c0.494,0,0.832,0.339,0.832,0.832v6.994
				h10.791V18.88c0-0.493,0.338-0.832,0.832-0.832h0.754c0.494,0,0.832,0.339,0.832,0.832v16.536c0,0.494-0.338,0.832-0.832,0.832
				h-0.754c-0.494,0-0.832-0.338-0.832-0.832v-7.437h-10.791v7.437c0,0.494-0.338,0.832-0.832,0.832h-0.779
				C111.352,36.248,111.014,35.91,111.014,35.416z"/>
			<path fill="#FFFFFF" d="M125.834,37.248h-0.754c-1.045,0-1.832-0.788-1.832-1.832v-6.437h-8.791v6.437
				c0,1.044-0.787,1.832-1.832,1.832h-0.779c-1.043,0-1.832-0.788-1.832-1.832V18.88c0-1.044,0.789-1.832,1.832-1.832h0.779
				c1.045,0,1.832,0.788,1.832,1.832v5.994h8.791V18.88c0-1.044,0.787-1.832,1.832-1.832h0.754c1.045,0,1.832,0.788,1.832,1.832
				v16.536C127.666,36.46,126.879,37.248,125.834,37.248z M125.834,35.249v1l0.004-1C125.836,35.248,125.836,35.248,125.834,35.249z
				 M112.014,35.248h0.443v-8.269h12.791v8.269h0.418v-16.2h-0.418v7.826h-12.791v-7.826h-0.443V35.248z"/>
		</g>
		<g>
			<path fill="#FFFFFF" d="M131.711,18.646c0-0.364,0.338-0.599,0.91-0.599h0.91c0.313,0,0.598,0.155,0.729,0.416l4.889,8.502
				l4.861-8.502c0.131-0.261,0.416-0.416,0.703-0.416h0.961c0.547,0,0.885,0.233,0.885,0.599c0,0.155-0.078,0.363-0.233,0.598
				l-5.979,9.751v6.422c0,0.494-0.339,0.832-0.832,0.832h-0.755c-0.493,0-0.831-0.338-0.831-0.832v-6.422l-5.98-9.751
				C131.789,19.01,131.711,18.827,131.711,18.646z"/>
			<path fill="#FFFFFF" d="M139.512,37.248h-0.754c-1.043,0-1.832-0.788-1.832-1.832v-6.14l-5.832-9.51
				c-0.166-0.247-0.383-0.633-0.383-1.121c0-0.771,0.598-1.599,1.91-1.599h0.91c0.701,0,1.324,0.371,1.623,0.968l3.992,6.939
				l3.996-6.988c0.266-0.538,0.893-0.919,1.569-0.919h0.961c1.295,0,1.886,0.828,1.886,1.599c0,0.366-0.136,0.754-0.402,1.153
				l-5.813,9.478v6.14C141.344,36.46,140.557,37.248,139.512,37.248z M139.512,35.249v1l0.004-1
				C139.514,35.248,139.514,35.248,139.512,35.249z M138.926,35.248h0.418v-6.536l5.928-9.664h-0.444l-5.677,9.929l-5.707-9.929
				h-0.444l5.928,9.664L138.926,35.248L138.926,35.248z"/>
		</g>
		<g>
			<path fill="#FFFFFF" d="M151.604,18.88c0-0.493,0.338-0.832,0.832-0.832h1.379c0.261,0,0.545,0.155,0.677,0.363l9.618,14.562
				V18.88c0-0.493,0.339-0.832,0.832-0.832h0.703c0.494,0,0.832,0.339,0.832,0.832v16.536c0,0.494-0.338,0.832-0.832,0.832h-1.379
				c-0.26,0-0.545-0.156-0.676-0.364l-9.621-14.533v14.065c0,0.494-0.338,0.832-0.832,0.832h-0.701
				c-0.494,0-0.832-0.338-0.832-0.832V18.88z"/>
			<path fill="#FFFFFF" d="M165.645,37.248h-1.379c-0.6,0-1.211-0.335-1.522-0.834l-7.772-11.742v10.744
				c0,1.044-0.787,1.832-1.832,1.832h-0.701c-1.045,0-1.832-0.788-1.832-1.832V18.88c0-1.044,0.787-1.832,1.832-1.832h1.379
				c0.6,0,1.213,0.335,1.522,0.833l7.771,11.764V18.88c0-1.044,0.787-1.832,1.832-1.832h0.703c1.043,0,1.832,0.788,1.832,1.832
				v16.536C167.477,36.46,166.688,37.248,165.645,37.248z M165.645,35.249v1l0.004-1C165.646,35.248,165.645,35.248,165.645,35.249z
				 M165.109,35.248h0.367v-16.2h-0.367V35.248z M164.369,35.248h0.047l-10.705-16.2h-0.066L164.369,35.248z M152.604,35.248h0.365
				v-16.2h-0.365V35.248z"/>
		</g>
		<g>
			<path fill="#FFFFFF" d="M181.377,17.579c5.459,0,9.541,4.004,9.541,9.568c0,5.563-4.082,9.517-9.541,9.567
				c-5.33,0.054-9.543-4.004-9.543-9.567C171.834,21.583,175.941,17.579,181.377,17.579z M181.377,34.662
				c4.107,0,7.072-3.225,7.072-7.515s-2.965-7.515-7.072-7.515c-4.109,0-7.072,3.225-7.072,7.515
				C174.305,31.412,177.242,34.662,181.377,34.662z"/>
			<path fill="#FFFFFF" d="M181.273,37.716c-5.951,0-10.439-4.543-10.439-10.568s4.533-10.568,10.543-10.568
				s10.541,4.543,10.541,10.568c0,6.065-4.43,10.51-10.531,10.567L181.273,37.716z M181.377,18.579
				c-4.949,0-8.543,3.604-8.543,8.568c0,4.885,3.629,8.568,8.439,8.568h0.094c4.955-0.047,8.551-3.649,8.551-8.567
				C189.918,22.184,186.326,18.579,181.377,18.579z M181.377,35.662c-4.602,0-8.072-3.661-8.072-8.515
				c0-4.854,3.471-8.515,8.072-8.515s8.072,3.66,8.072,8.515C189.449,32.001,185.979,35.662,181.377,35.662z M181.377,20.634
				c-3.52,0-6.072,2.739-6.072,6.515c0,3.774,2.553,6.515,6.072,6.515c3.518,0,6.072-2.74,6.072-6.515
				C187.449,23.373,184.895,20.634,181.377,20.634z"/>
		</g>
		<g>
			<path fill="#FFFFFF" d="M95.829,58.273c-2.106-0.572-3.953-1.795-3.953-4.629c0-2.34,1.795-4.861,5.929-4.861
				c2.938,0,5.694,1.455,6.134,4.498c0,0.52-0.231,0.832-0.778,0.832h-0.701c-0.494,0-0.78-0.313-0.885-0.779
				c-0.416-1.611-1.873-2.496-3.796-2.496c-2.496,0-3.432,1.377-3.432,2.809c0,1.352,0.962,2.209,2.288,2.574l3.666,0.986
				c2.391,0.65,4.499,1.951,4.499,5.33c0,2.834-2.235,5.383-6.5,5.383c-3.251,0-6.37-1.508-6.786-5.461
				c0-0.52,0.233-0.832,0.779-0.832h0.702c0.494,0,0.806,0.338,0.884,0.832c0.338,2.574,2.289,3.406,4.421,3.406
				c2.679,0,4.03-1.455,4.03-3.328c0-1.871-1.117-2.809-2.808-3.275L95.829,58.273z"/>
			<path fill="#FFFFFF" d="M98.298,68.92c-4.387,0-7.368-2.436-7.78-6.355l-0.006-0.104c0-1.096,0.715-1.832,1.779-1.832h0.702
				c0.961,0,1.713,0.672,1.871,1.676c0.087,0.652,0.337,2.563,3.434,2.563c1.926,0,3.03-0.848,3.03-2.328
				c0-1.234-0.602-1.904-2.075-2.313l-3.684-0.986c-3.881-1.051-4.694-3.623-4.694-5.594c0-2.822,2.168-5.861,6.929-5.861
				c3.856,0,6.653,2.102,7.125,5.354l0.01,0.145c0,1.096-0.715,1.832-1.779,1.832h-0.701c-0.934,0-1.646-0.6-1.861-1.564
				c-0.397-1.541-2.104-1.711-2.82-1.711c-1.591,0-2.432,0.625-2.432,1.809c0,0.977,0.845,1.416,1.553,1.609l3.662,0.986
				c3.525,0.957,5.238,3.016,5.238,6.295C105.799,65.611,103.451,68.92,98.298,68.92z M92.545,62.627
				c0.542,3.865,4.188,4.293,5.753,4.293c3.8,0,5.5-2.201,5.5-4.383c0-2.344-1.125-3.648-3.76-4.365l-3.665-0.986
				c-1.897-0.521-3.027-1.846-3.027-3.541c0-1.756,1.16-3.809,4.432-3.809c2.423,0,4.248,1.244,4.765,3.246l0.008,0.029h0.344
				c-0.487-2.432-2.927-3.33-5.089-3.33c-3.404,0-4.929,1.941-4.929,3.863c0,1.93,0.991,3.059,3.215,3.662l3.688,0.988
				c2.358,0.652,3.549,2.078,3.549,4.242c0,2.154-1.555,4.328-5.03,4.328c-3.068,0-5.037-1.545-5.407-4.238H92.545L92.545,62.627z"
				/>
		</g>
		<g>
			<path fill="#FFFFFF" d="M108.752,66.75c0-0.131,0.051-0.287,0.104-0.441l6.447-16.537c0.131-0.313,0.443-0.52,0.781-0.52h1.689
				c0.338,0,0.649,0.207,0.781,0.52l6.446,16.537c0.054,0.154,0.078,0.313,0.078,0.441c0,0.441-0.313,0.701-0.856,0.701h-0.832
				c-0.339,0-0.65-0.207-0.781-0.545l-1.586-4.213h-8.189l-1.561,4.213c-0.131,0.338-0.441,0.545-0.779,0.545h-0.859
				C109.063,67.451,108.752,67.191,108.752,66.75z M120.244,60.666l-3.25-8.789h-0.104l-3.277,8.789H120.244z"/>
			<path fill="#FFFFFF" d="M124.223,68.451h-0.832c-0.762,0-1.434-0.465-1.713-1.184l-1.346-3.574h-6.803l-1.318,3.559
				c-0.283,0.734-0.955,1.199-1.717,1.199h-0.859c-1.293,0-1.883-0.881-1.883-1.701c0-0.299,0.09-0.566,0.156-0.764l6.463-16.578
				c0.299-0.711,0.967-1.156,1.713-1.156h1.689c0.748,0,1.418,0.445,1.705,1.137l6.455,16.557c0.102,0.301,0.146,0.563,0.146,0.805
				C126.08,67.752,125.316,68.451,124.223,68.451z M123.508,66.451h0.479l-6.317-16.199h-1.479l-6.315,16.199h0.502l1.763-4.758
				h9.579L123.508,66.451z M121.682,61.666h-9.508l4.021-10.789h1.494L121.682,61.666z M115.055,59.666h3.754l-1.871-5.055
				L115.055,59.666z"/>
		</g>
		<g>
			<path fill="#FFFFFF" d="M129.971,50.084c0-0.494,0.338-0.832,0.832-0.832h1.377c0.26,0,0.547,0.154,0.676,0.363l9.621,14.561
				V50.084c0-0.494,0.338-0.832,0.832-0.832h0.701c0.494,0,0.832,0.338,0.832,0.832v16.535c0,0.494-0.338,0.832-0.832,0.832h-1.377
				c-0.26,0-0.547-0.156-0.676-0.363l-9.621-14.533v14.064c0,0.494-0.338,0.832-0.832,0.832h-0.701
				c-0.494,0-0.832-0.338-0.832-0.832V50.084z"/>
			<path fill="#FFFFFF" d="M144.01,68.451h-1.377c-0.6,0-1.213-0.334-1.525-0.834l-7.771-11.742v10.744
				c0,1.045-0.787,1.832-1.832,1.832h-0.7c-1.046,0-1.832-0.787-1.832-1.832V50.084c0-1.045,0.786-1.832,1.832-1.832h1.377
				c0.602,0,1.213,0.334,1.524,0.832l7.771,11.764V50.084c0-1.045,0.787-1.832,1.832-1.832h0.701c1.045,0,1.832,0.787,1.832,1.832
				v16.535C145.842,67.664,145.055,68.451,144.01,68.451z M144.01,66.453v1l0.004-1C144.012,66.451,144.012,66.451,144.01,66.453z
				 M143.477,66.451h0.365V50.252h-0.365V66.451z M142.734,66.451h0.049l-10.705-16.199h-0.066L142.734,66.451z M130.971,66.451
				h0.365V50.252h-0.365V66.451z"/>
		</g>
		<g>
			<path fill="#FFFFFF" d="M151.916,67.451c-0.494,0-0.832-0.338-0.832-0.832V50.084c0-0.494,0.338-0.832,0.832-0.832h6.787
				c5.33,0,8.736,3.482,8.736,9.1c0,5.592-3.406,9.102-8.736,9.102h-6.787V67.451z M153.502,65.371h4.811
				c4.342,0,6.656-2.807,6.656-7.02s-2.314-7.021-6.656-7.021h-4.811V65.371z"/>
			<path fill="#FFFFFF" d="M158.703,68.451h-6.787c-1.043,0-1.832-0.787-1.832-1.832V50.084c0-1.045,0.789-1.832,1.832-1.832h6.787
				c5.914,0,9.736,3.963,9.736,10.1C168.439,64.486,164.617,68.451,158.703,68.451z M152.084,66.451h6.619
				c4.771,0,7.736-3.104,7.736-8.1s-2.965-8.102-7.736-8.102h-6.619V66.451z M158.313,66.371h-5.811V50.332h5.811
				c4.724,0,7.656,3.072,7.656,8.02S163.035,66.371,158.313,66.371z M154.502,64.371h3.811c3.597,0,5.656-2.193,5.656-6.02
				s-2.061-6.021-5.656-6.021h-3.811V64.371z"/>
		</g>
		<g>
			<path fill="#FFFFFF" d="M176.254,58.273c-2.105-0.572-3.951-1.795-3.951-4.629c0-2.34,1.793-4.861,5.928-4.861
				c2.938,0,5.693,1.455,6.138,4.498c0,0.52-0.234,0.832-0.781,0.832h-0.701c-0.493,0-0.78-0.313-0.885-0.779
				c-0.416-1.611-1.871-2.496-3.795-2.496c-2.496,0-3.435,1.377-3.435,2.809c0,1.352,0.963,2.209,2.289,2.574l3.666,0.986
				c2.394,0.65,4.498,1.951,4.498,5.33c0,2.834-2.236,5.383-6.5,5.383c-3.25,0-6.371-1.508-6.787-5.461
				c0-0.52,0.234-0.832,0.781-0.832h0.701c0.494,0,0.807,0.338,0.885,0.832c0.338,2.574,2.287,3.406,4.42,3.406
				c2.678,0,4.029-1.455,4.029-3.328c0-1.871-1.117-2.809-2.809-3.275L176.254,58.273z"/>
			<path fill="#FFFFFF" d="M178.725,68.92c-4.387,0-7.369-2.436-7.781-6.355l-0.006-0.104c0-1.096,0.717-1.832,1.781-1.832h0.701
				c0.961,0,1.713,0.672,1.871,1.676c0.088,0.652,0.338,2.563,3.434,2.563c1.926,0,3.029-0.848,3.029-2.328
				c0-1.234-0.602-1.904-2.074-2.313l-3.684-0.986c-3.881-1.051-4.693-3.623-4.693-5.594c0-2.822,2.168-5.861,6.928-5.861
				c3.855,0,6.652,2.102,7.125,5.354l0.013,0.145c0,1.096-0.718,1.832-1.781,1.832h-0.7c-0.935,0-1.646-0.6-1.861-1.564
				c-0.398-1.541-2.104-1.711-2.818-1.711c-1.592,0-2.434,0.625-2.434,1.809c0,0.977,0.846,1.414,1.553,1.609l3.662,0.986
				c3.525,0.957,5.238,3.016,5.238,6.295C186.225,65.611,183.877,68.92,178.725,68.92z M172.971,62.627
				c0.543,3.865,4.188,4.293,5.754,4.293c3.799,0,5.5-2.201,5.5-4.383c0-2.344-1.125-3.648-3.76-4.365l-3.664-0.986
				c-1.898-0.521-3.029-1.846-3.029-3.541c0-1.756,1.162-3.809,4.435-3.809c2.422,0,4.246,1.244,4.765,3.246l0.008,0.029h0.346
				c-0.49-2.43-2.928-3.33-5.092-3.33c-3.404,0-4.928,1.941-4.928,3.863c0,1.93,0.989,3.059,3.213,3.662l3.688,0.988
				c2.356,0.652,3.549,2.078,3.549,4.242c0,2.154-1.555,4.328-5.028,4.328c-3.068,0-5.037-1.545-5.406-4.238H172.971L172.971,62.627
				z"/>
		</g>
	</g>
</g>
</svg>
