<?xml version="1.0" encoding="utf-8"?>
<!-- Generator: Adobe Illustrator 16.0.0, SVG Export Plug-In . SVG Version: 6.00 Build 0)  -->
<svg version="1.1" id="Layer_1" xmlns="http://www.w3.org/2000/svg" xmlns:xlink="http://www.w3.org/1999/xlink" x="0px" y="0px"
	 width="50px" height="50px" viewBox="0 0 50 50" enable-background="new 0 0 50 50" xml:space="preserve">


<path d="M34.63,27.564c-1.748-1.378-3.41-2.791-4.516-3.9c-1.439-1.438-2.722-2.833-3.836-4.161c1.737-5.37,2.501-8.139,2.501-9.614
	c0-6.271-2.267-7.556-5.667-7.556c-2.585,0-5.667,1.344-5.667,7.737c0,2.819,1.544,6.241,4.604,10.218
	c-0.751,2.286-1.629,4.921-2.617,7.893c-0.479,1.427-0.994,2.748-1.541,3.969c-0.442,0.196-0.875,0.398-1.292,0.607
	c-1.502,0.75-2.927,1.425-4.25,2.052c-6.032,2.856-10.016,4.744-10.016,8.474c0,2.71,2.943,4.385,5.667,4.385
	c3.513,0,8.815-4.689,12.69-12.593c4.02-1.585,9.021-2.761,12.966-3.497c3.161,2.432,6.652,4.757,8.344,4.757
	c4.685,0,5.667-2.706,5.667-4.979c0-4.466-5.104-4.466-7.555-4.466C39.35,26.892,37.306,27.114,34.63,27.564z M8,43.892
	c-1.081,0-1.81-0.51-1.888-0.609c0-1.339,3.992-3.229,7.856-5.061c0.244-0.117,0.494-0.232,0.747-0.352
	C11.878,41.982,9.071,43.892,8,43.892z M21.221,10.07c0-3.958,1.229-3.958,1.891-3.958c1.335,0,1.888,0,1.888,3.777
	c0,0.797-0.531,2.789-1.503,5.899C22.014,13.505,21.221,11.548,21.221,10.07z M22.669,30.373c0.119-0.33,0.234-0.661,0.344-0.995
	c0.701-2.104,1.332-3.992,1.895-5.694c0.783,0.863,1.629,1.748,2.536,2.653c0.354,0.354,1.231,1.151,2.401,2.148
	C27.517,28.993,25.039,29.622,22.669,30.373z M43.888,31.355c0,0.849,0,1.202-1.751,1.213c-0.516-0.111-1.705-0.811-3.172-1.813
	c0.531-0.057,0.925-0.088,1.147-0.088C42.903,30.667,43.693,30.941,43.888,31.355z"/>
</svg>
