<?xml version="1.0" encoding="utf-8"?>
<!-- Generator: Adobe Illustrator 25.2.0, SVG Export Plug-In . SVG Version: 6.00 Build 0)  -->
<svg version="1.1" id="Layer_1" xmlns="http://www.w3.org/2000/svg" xmlns:xlink="http://www.w3.org/1999/xlink" x="0px" y="0px"
	 viewBox="0 0 100 100" style="enable-background:new 0 0 100 100;" xml:space="preserve">

<polygon fill="#ED4139" points="5.1,84.4 58.7,93.8 58.7,8 5.1,17.4 "/>
<path fill="#FFFFFF" d="M38.3,53c-1.3-1-2.5-2-3.6-3.1c-1.1-1.1-2.1-2.2-3.1-3.3c1.4-4.3,2-6.5,2-7.7c0-5-1.8-6-4.5-6
	c-2.1,0-4.5,1-4.5,6.1c0,2.2,1.2,5,3.7,8.1c-0.6,1.8-1.3,3.9-2.1,6.3c-0.4,1.1-0.8,2.2-1.2,3.2l-1,0.5c-1.2,0.6-2.3,1.1-3.4,1.6
	c-4.8,2.3-8,3.8-8,6.7c0,2.2,2.3,3.5,4.5,3.5c2.8,0,7-3.7,10.1-10c3.4-1.2,6.8-2.2,10.3-2.8c2.5,1.9,5.3,3.8,6.6,3.8
	c3.7,0,4.5-2.2,4.5-4c0-3.6-4.1-3.6-6-3.6C41.2,52.5,39.7,52.7,38.3,53z M17.1,66c-0.5,0-1.1-0.2-1.5-0.5c0-1.1,3.2-2.6,6.2-4
	l0.6-0.3C20.2,64.5,17.9,66,17.1,66z M27.6,39.1c0-3.2,1-3.2,1.5-3.2c1.1,0,1.5,0,1.5,3c-0.2,1.6-0.6,3.2-1.2,4.7
	C28.4,42.3,27.8,40.8,27.6,39.1z M28.8,55.3l0.3-0.8l1.5-4.5c0.6,0.7,1.3,1.4,2,2.1c0.3,0.3,1,0.9,1.9,1.7
	C32.6,54.2,30.6,54.7,28.8,55.3z M45.6,56.1c0,0.7,0,1-1.4,1c-0.9-0.4-1.7-0.8-2.5-1.4c0.3,0,0.6-0.1,0.9-0.1
	C44.8,55.5,45.5,55.7,45.6,56.1z"/>
<path fill="#C9C9C9" d="M61.9,17.4h30.3c1.5,0,2.7,1.2,2.7,2.7v61.7c0,1.5-1.2,2.7-2.7,2.7H61.9"/>
</svg>
