<svg id="Layer_1" data-name="Layer 1" xmlns="http://www.w3.org/2000/svg" viewBox="0 0 100 100"><path d="M91.41,81.33a2.7,2.7,0,0,0,0-3.13c-.19-.27-.58-.82-.83-1.13a50.92,50.92,0,0,0-8.1-8.36c-5-4-10.22-6.07-15.37-6.07s-10.32,2-15.36,6.07a51.5,51.5,0,0,0-8.11,8.36c-.26.33-.69.93-.82,1.12a2.71,2.71,0,0,0,0,3.12c.15.22.56.8.82,1.13a52,52,0,0,0,8.11,8.36c10.05,8,20.68,8,30.73,0a51.82,51.82,0,0,0,8.1-8.35l.4.3h0l-.4-.3C90.85,82.11,91.27,81.53,91.41,81.33Zm-6.16-.91c-6.15,7.32-12.25,11-18.13,11s-12-3.72-18.13-11l-.56-.67.56-.66c6.16-7.32,12.26-11,18.13-11s12,3.72,18.13,11l.56.66Z"/><path d="M67.31,73.68a6.08,6.08,0,1,0,6.08,6.07A6.07,6.07,0,0,0,67.31,73.68Z"/><path d="M79.27,55.51a2.7,2.7,0,0,0,2.7-2.7V17.06A14,14,0,0,0,68,3.13H22A14,14,0,0,0,8.09,17.06V82.94A14,14,0,0,0,22,96.87H38.49a2.71,2.71,0,1,0,0-5.41H22a8.54,8.54,0,0,1-8.52-8.52V17.06A8.54,8.54,0,0,1,22,8.54H68a8.53,8.53,0,0,1,8.52,8.52V52.81A2.7,2.7,0,0,0,79.27,55.51Z"/><path d="M64.3,40.56H25.75a2.71,2.71,0,1,0,0,5.41H64.3a2.71,2.71,0,0,0,0-5.41Z"/><path d="M45.42,55.53H25.75a2.71,2.71,0,1,0,0,5.41H45.42a2.71,2.71,0,0,0,0-5.41Z"/><path d="M64.3,25.58H25.75a2.71,2.71,0,0,0,0,5.42H64.3a2.71,2.71,0,0,0,0-5.42Z"/></svg>