<?xml version="1.0" encoding="utf-8"?>
<!-- Generator: Adobe Illustrator 25.2.0, SVG Export Plug-In . SVG Version: 6.00 Build 0)  -->
<svg version="1.1" baseProfile="tiny" id="Layer_1" xmlns="http://www.w3.org/2000/svg" xmlns:xlink="http://www.w3.org/1999/xlink"
	 x="0px" y="0px" viewBox="0 0 100 100" overflow="visible" xml:space="preserve">
<g>
	<polygon fill="#FFC010" points="17.2,56 32.8,51 32.8,42.6 17.2,49.8 	"/>
	<polygon fill="#FFC010" points="17.2,68.4 32.8,65.9 32.8,57.4 17.2,62.2 	"/>
	<polygon fill="#FFC010" points="17.2,81.1 32.8,81.1 32.8,72.6 17.2,74.9 	"/>
	<polygon fill="#FFC010" points="17.2,94.6 32.8,94.6 32.8,87.7 17.2,87.6 	"/>
	<path fill="#FFC010" d="M93.4,91.3v-50L79.3,26.3L72,29.1l0-7.9L57.8,4.6L28,18.7v12.8L7,40.9v50.4H1.5v4.1h11V44.9l26.3-11.7v61.6
		H53v0h4.7h3.3h11h0h26.5v-3.5H93.4z M57.7,91.4H53V41.1L38.8,26.6l-6.5,2.9l-0.2-7.4L57.8,10L57.7,91.4z M79.2,91.3H72L72,36
		l7.2-3.2V91.3z"/>
</g>
</svg>
