<?xml version="1.0" encoding="utf-8"?>
<!-- Generator: Adobe Illustrator 25.2.0, SVG Export Plug-In . SVG Version: 6.00 Build 0)  -->
<svg version="1.1" baseProfile="tiny" id="Layer_1" xmlns="http://www.w3.org/2000/svg" xmlns:xlink="http://www.w3.org/1999/xlink"
	 x="0px" y="0px" viewBox="0 0 100 100" overflow="visible" xml:space="preserve">

<path d="M85.8,46H54V14.2c0-2.2-1.8-4-4-4c-2.2,0-4,1.8-4,4V46H14.2c-2.2,0-4,1.8-4,4c0,2.2,1.8,4,4,4H46v31.8c0,2.2,1.8,4,4,4
	c2.2,0,4-1.8,4-4V54h31.8c2.2,0,4-1.8,4-4C89.8,47.8,88,46,85.8,46z"/>
</svg>
