<?xml version="1.0" encoding="utf-8"?>
<!-- Generator: Adobe Illustrator 16.0.0, SVG Export Plug-In . SVG Version: 6.00 Build 0)  -->
<svg version="1.1" id="Layer_1" xmlns="http://www.w3.org/2000/svg" xmlns:xlink="http://www.w3.org/1999/xlink" x="0px" y="0px"
	 width="50px" height="50px" viewBox="0 0 50 50" enable-background="new 0 0 50 50" xml:space="preserve">
<g>
	<path d="M42.196,12.934h-1.33v-5.13c0-3.929-3.196-7.125-7.126-7.125H16.259c-3.929,0-7.125,3.197-7.125,7.125v5.13H7.803
		c-3.929,0-7.125,3.197-7.125,7.126v11.4c0,3.93,3.197,7.126,7.125,7.126h1.331v6.461c0,2.357,1.918,4.275,4.275,4.275h23.182
		c2.357,0,4.275-1.918,4.275-4.275v-6.461h1.33c3.93,0,7.126-3.196,7.126-7.126v-11.4C49.322,16.13,46.126,12.934,42.196,12.934z
		 M11.984,7.803c0-2.357,1.918-4.275,4.275-4.275H33.74c2.358,0,4.276,1.918,4.276,4.275v5.13H11.984V7.803z M38.017,45.047
		c0,0.786-0.64,1.425-1.426,1.425H13.409c-0.786,0-1.425-0.639-1.425-1.425V30.985h26.033V45.047z M46.472,31.46
		c0,2.358-1.918,4.276-4.275,4.276h-1.33v-4.751h0.855c0.787,0,1.425-0.638,1.425-1.425s-0.638-1.426-1.425-1.426H8.278
		c-0.787,0-1.425,0.639-1.425,1.426s0.638,1.425,1.425,1.425h0.855v4.751H7.803c-2.357,0-4.275-1.918-4.275-4.276v-11.4
		c0-2.357,1.918-4.275,4.275-4.275h34.393c2.357,0,4.275,1.918,4.275,4.275V31.46z"/>
	<path d="M28.801,34.216H21.2c-0.787,0-1.425,0.638-1.425,1.426c0,0.786,0.638,1.425,1.425,1.425h7.601
		c0.786,0,1.425-0.639,1.425-1.425C30.226,34.854,29.587,34.216,28.801,34.216z"/>
	<path d="M28.801,40.297H21.2c-0.787,0-1.425,0.638-1.425,1.425s0.638,1.425,1.425,1.425h7.601c0.786,0,1.425-0.638,1.425-1.425
		S29.587,40.297,28.801,40.297z"/>
	<path d="M12.839,19.015H8.278c-0.787,0-1.425,0.638-1.425,1.425s0.638,1.425,1.425,1.425h4.561c0.787,0,1.425-0.638,1.425-1.425
		S13.626,19.015,12.839,19.015z"/>
</g>
	
</svg>
