<svg id="Layer_1" data-name="Layer 1" xmlns="http://www.w3.org/2000/svg" viewBox="0 0 50 50"><defs><style>.cls-1{fill:#3b3b3c;}</style></defs><path class="cls-1" d="M30.34,39.39s.08,0,.11-.08l-9.61-.07-2-4.72a10.57,10.57,0,0,1,1.49-.12h8.35a10.41,10.41,0,0,1,2.25.26c.17-.22.31-.45.5-.66a8.08,8.08,0,0,1,1.19-1,12.24,12.24,0,0,0-3.94-.66h-.51V29.05c3.45-1.15,5.91-3.95,5.91-7.25V17.33A3.74,3.74,0,0,0,34.67,10a10.08,10.08,0,0,0-20.11-.1,3.76,3.76,0,0,0,.7,7.45h.2V21.8a7.79,7.79,0,0,0,5.17,7v3.56h-.32A12.35,12.35,0,0,0,8,44.68v4.69H10V44.68a10.21,10.21,0,0,1,1.88-5.91,16.77,16.77,0,0,1,2.61,10.5l2,.2a18.92,18.92,0,0,0-3.11-12.12l3.42-2.09,2.6,6,8.71.06C28.91,40.7,29.64,40.06,30.34,39.39Zm-6.52-9.82c0-.33,0-.65,0-1s0-.51,0-.77l0-.33c-3.54-.37-6.29-2.78-6.29-5.7V17.37h2.32c0-.68,0-1.37-.06-2.06H15.26a1.7,1.7,0,1,1,0-3.4h1.4c0-.34,0-.67,0-1a4.37,4.37,0,0,0,0-.81,8,8,0,0,1,16,.52h0v1.3h1a1.7,1.7,0,1,1,0,3.4H29.89c0,.69,0,1.38,0,2.06H32V21.8c0,2.89-2.68,5.28-6.16,5.69a18,18,0,0,1,0,2.07,2.07,2.07,0,0,0,.22,0v2.77h-3.4V29.38C23.06,29.45,23.43,29.53,23.82,29.57Z"/><path class="cls-1" d="M28.15,9.24A3.72,3.72,0,1,0,24.43,13,3.73,3.73,0,0,0,28.15,9.24Zm-5.09,0a1.37,1.37,0,1,1,1.37,1.36A1.37,1.37,0,0,1,23.06,9.24Z"/><path class="cls-1" d="M20.65,46.47h4.53a3.43,3.43,0,0,1,.08-.56,4.12,4.12,0,0,1,.91-1.5H20.65Z"/><path class="cls-1" d="M37.31,34.14a4.69,4.69,0,0,0-4.21,6.78h0l-5,4.47v2.54h2.65l.73-.7-.11-1.54h1.7V44.17h1.5l.94-1h0a4.51,4.51,0,0,0,1.77.35,4.7,4.7,0,1,0,0-9.4ZM39,39.66a1.24,1.24,0,1,1,1.23-1.23A1.23,1.23,0,0,1,39,39.66Z"/></svg>