<?xml version="1.0" encoding="utf-8"?>
<!-- Generator: Adobe Illustrator 25.2.0, SVG Export Plug-In . SVG Version: 6.00 Build 0)  -->
<svg version="1.1" id="Layer_1" xmlns="http://www.w3.org/2000/svg" xmlns:xlink="http://www.w3.org/1999/xlink" x="0px" y="0px"
	 viewBox="0 0 100 100" style="enable-background:new 0 0 100 100;" xml:space="preserve">

<g>
	<g>
		<path d="M85.5,22.5L65.5,2.4c-0.4-0.4-0.9-0.6-1.4-0.6H21.9c-4.4,0-8,3.6-8,8v80.3c0,4.4,3.6,8,8,8h56.2c4.4,0,8-3.6,8-8V23.9
			C86.1,23.4,85.9,22.9,85.5,22.5z M66.1,8.7l13.2,13.2h-9.2c-2.2,0-4-1.8-4-4V8.7z M82.1,90.1c0,2.2-1.8,4-4,4H21.9
			c-2.2,0-4-1.8-4-4V9.9c0-2.2,1.8-4,4-4H62v12c0,4.4,3.6,8,8,8h12V90.1z"/>
	</g>
	<path d="M65.3,51.1H51.9V37.7c0-1-0.9-1.9-1.9-1.9c-1,0-1.9,0.9-1.9,1.9v13.4H34.7c-1,0-1.9,0.9-1.9,1.9c0,1,0.9,1.9,1.9,1.9h13.4
		v13.4c0,1,0.9,1.9,1.9,1.9c1,0,1.9-0.9,1.9-1.9V54.9h13.4c1,0,1.9-0.9,1.9-1.9C67.2,51.9,66.3,51.1,65.3,51.1z"/>
</g>
</svg>
