<svg id="Layer_1" data-name="Layer 1" xmlns="http://www.w3.org/2000/svg" viewBox="0 0 50 39.26"><g id="Page-1"><g id="_007---Dump-Truck" data-name="007---Dump-Truck"><path id="Shape" d="M41.55,12.42a2.55,2.55,0,0,0-2-1.23H32.66a2.4,2.4,0,0,0-2.33,2.32V25.14h-1.5V9.68h5.33a1.51,1.51,0,0,0,1.51-1.5V6.67a1.51,1.51,0,0,0-1.51-1.5H28A3.82,3.82,0,0,0,24.18,9v3.69a4.74,4.74,0,0,0-2.87-2,4.3,4.3,0,0,0-3.56-1.91c-.41-.55-1.64-1.24-3.83-1.24a4.63,4.63,0,0,0-3.56,1.24,4.24,4.24,0,0,0-3.42,1.91,4.56,4.56,0,0,0-3.42,3.69H3.39a1.53,1.53,0,0,0-1.51,1.51v9.3a1.53,1.53,0,0,0,1.51,1.51h.82v1.5a1.37,1.37,0,0,0,1,1.37,5.41,5.41,0,0,0-1.51,5.61,5.46,5.46,0,0,0,4.51,3.69,5.39,5.39,0,0,0,5.2-2.6,5.29,5.29,0,0,0,4.52,2.6,5.35,5.35,0,0,0,4.65-2.6,1.85,1.85,0,0,0,.82.27h6.43a5.39,5.39,0,0,0,9.3-.68h6.7a2.4,2.4,0,0,0,2.33-2.33V25.41a5.65,5.65,0,0,0-.69-2.59Zm-1.37.68,5.48,9.58H38.13a.88.88,0,0,1-.82-.82v-9.3H39.5a1.31,1.31,0,0,1,.68.54ZM7.49,12A.59.59,0,0,0,8,11.46c0-.14.55-1.37,2.46-1.37a.73.73,0,0,0,.68-.41s.55-.82,2.6-.82,2.74.82,2.74.82a.74.74,0,0,0,.68.41c2.19,0,2.74,1.37,2.74,1.37a1.06,1.06,0,0,0,.55.55,3.47,3.47,0,0,1,2.73,2.19H5A3.1,3.1,0,0,1,7.49,12Zm-4.1,6.84H21.85a.82.82,0,0,0,0-1.64H3.39V15.7H25a.88.88,0,0,0,.82-.82V8.73A2.4,2.4,0,0,1,28.15,6.4H34.3V7.9H29a1.53,1.53,0,0,0-1.51,1.51V24.87H3.39Zm2.32,9.3v-1.5H21.85v3.14A5.18,5.18,0,0,0,18,28.15Zm8.62,1.5a3.48,3.48,0,0,0-.82,1.1,8.06,8.06,0,0,0-.82-1.1Zm-5.47,7.8A3.82,3.82,0,0,1,5,33.62a3.92,3.92,0,0,1,3.83-3.83,3.83,3.83,0,0,1,0,7.66Zm9.16,0a3.83,3.83,0,0,1-3.83-3.83,3.83,3.83,0,0,1,7.66,0A3.82,3.82,0,0,1,18,37.45Zm5.48-2.32V26.65h7v3.14a5.47,5.47,0,0,0-1.37,5.34Zm10.8,2.32a3.82,3.82,0,0,1-3.83-3.83,3.92,3.92,0,0,1,3.83-3.83,3.82,3.82,0,0,1,3.83,3.83A3.92,3.92,0,0,1,34.3,37.45Zm11.49-3.14H39.5a5.71,5.71,0,0,0-1.23-4.38A5.14,5.14,0,0,0,34.16,28a4.47,4.47,0,0,0-2.32.55v-15a.88.88,0,0,1,.82-.82h3.15V22a2.39,2.39,0,0,0,2.32,2.33h8.35a4,4,0,0,1,.13,1.23v.27h-.82a.83.83,0,0,0,0,1.65h.82V29h-.82a.82.82,0,0,0,0,1.64h.82v3.15C46.61,34,46.2,34.31,45.79,34.31Z" fill="#3b3b3d"/><path id="Shape-2" data-name="Shape" d="M34.3,31.3a2.33,2.33,0,1,0,2.33,2.32A2.39,2.39,0,0,0,34.3,31.3Zm0,3a.83.83,0,1,1,.82-.83A.88.88,0,0,1,34.3,34.31Z" fill="#3b3b3d"/><path id="Shape-3" data-name="Shape" d="M18,31.3a2.33,2.33,0,1,0,2.33,2.32A2.3,2.3,0,0,0,18,31.3Zm0,3a.83.83,0,1,1,.82-.83A.88.88,0,0,1,18,34.31Z" fill="#3b3b3d"/><path id="Shape-4" data-name="Shape" d="M8.86,31.3a2.33,2.33,0,1,0,0,4.65,2.33,2.33,0,0,0,0-4.65Zm0,3a.83.83,0,0,1,0-1.65.83.83,0,0,1,0,1.65Z" fill="#3b3b3d"/></g></g><circle cx="13.78" cy="7" r="6.38" fill="#3dc285"/><path d="M11.87,10.18h-.06a.65.65,0,0,1-.47-.28L10.06,8a.64.64,0,0,1,1.06-.72h0L12,8.55,16.52,4a.63.63,0,0,1,.9,0,.65.65,0,0,1,0,.91L12.32,10a.63.63,0,0,1-.45.18Z" fill="#e9eef2"/></svg>