<svg id="Layer_1" data-name="Layer 1" xmlns="http://www.w3.org/2000/svg" viewBox="0 0 100 100"><path d="M86.83,27.32,69.47,10a1.73,1.73,0,0,0-1.23-.51H31.77a7,7,0,0,0-6.95,7v3.84l-5.27,1.06a7,7,0,0,0-5.44,8.18L25,84a7,7,0,0,0,8.18,5.44L80.9,79.89a6.85,6.85,0,0,0,4.4-3,6.94,6.94,0,0,0,2-4.92V28.54A1.69,1.69,0,0,0,86.83,27.32ZM70,15.37,81.41,26.81h-8A3.47,3.47,0,0,1,70,23.33Zm-41.69,1a3.48,3.48,0,0,1,3.48-3.48H66.5V23.33a7,7,0,0,0,7,7H83.87V72a3.48,3.48,0,0,1-3.47,3.48H31.77A3.48,3.48,0,0,1,28.29,72V16.39Zm-8,8.31,4.58-.92V65.22L17.51,28.78A3.48,3.48,0,0,1,20.24,24.7Zm12.3,61.35a3.49,3.49,0,0,1-4.09-2.72l-1.21-6.06A6.9,6.9,0,0,0,31.77,79H67.89Z"/><rect x="36.15" y="48.05" width="39.86" height="4.05" rx="2.02"/><rect x="36.15" y="65.67" width="39.86" height="4.05" rx="2.02"/><rect x="36.15" y="56.86" width="29.26" height="4.05" rx="2.02"/><path d="M54,24.72a.45.45,0,0,0-.34-.13H51.17a5.08,5.08,0,0,0-.94-2.11h3.42a.46.46,0,0,0,.34-.14.47.47,0,0,0,.13-.33v-1.5a.45.45,0,0,0-.47-.47H41.45a.49.49,0,0,0-.34.13.45.45,0,0,0-.13.34v1.95a.42.42,0,0,0,.14.33.45.45,0,0,0,.33.14h2.12c2.07,0,3.38.55,3.93,1.66h-6a.45.45,0,0,0-.47.47v1.49a.45.45,0,0,0,.47.47h6.26a2.89,2.89,0,0,1-1.5,1.84,6.65,6.65,0,0,1-3.12.63H41.45A.48.48,0,0,0,41,30v1.86a.41.41,0,0,0,.13.32q2.82,3,7.3,8.38a.43.43,0,0,0,.37.18h2.86a.43.43,0,0,0,.43-.27.42.42,0,0,0-.06-.5q-4.29-5.25-6.74-7.86a7.43,7.43,0,0,0,4-1.61A5.45,5.45,0,0,0,51.21,27h2.47a.45.45,0,0,0,.34-.13.49.49,0,0,0,.13-.34V25.06A.49.49,0,0,0,54,24.72Z"/><path d="M22.19,11.39a1.49,1.49,0,0,0-.57-1l-5-3.94a1.54,1.54,0,0,0-.93-.32,1.49,1.49,0,0,0-1.18.58,1.47,1.47,0,0,0-.31,1.11,1.52,1.52,0,0,0,.56,1l2.18,1.7L9,11.49a6.66,6.66,0,0,0-5.81,7.42L4.89,33a1.46,1.46,0,0,0,.56,1,1.57,1.57,0,0,0,1.11.31,1.51,1.51,0,0,0,1.31-1.68L6.15,18.55a3.66,3.66,0,0,1,3.19-4.08l7.93-1-1.7,2.17a1.47,1.47,0,0,0-.31,1.11,1.49,1.49,0,0,0,.57,1,1.51,1.51,0,0,0,2.11-.26l3.94-5A1.57,1.57,0,0,0,22.19,11.39Z"/><path d="M77.81,88.61a1.49,1.49,0,0,0,.57,1l5,3.94a1.54,1.54,0,0,0,.93.32,1.49,1.49,0,0,0,1.18-.58,1.47,1.47,0,0,0,.31-1.11,1.52,1.52,0,0,0-.56-1l-2.18-1.7,7.93-1a6.66,6.66,0,0,0,5.81-7.42L95.11,67a1.46,1.46,0,0,0-.56-1,1.57,1.57,0,0,0-1.11-.31,1.51,1.51,0,0,0-1.31,1.68l1.72,14.09a3.66,3.66,0,0,1-3.19,4.08l-7.93,1,1.7-2.17a1.47,1.47,0,0,0,.31-1.11,1.49,1.49,0,0,0-.57-1,1.51,1.51,0,0,0-2.11.26l-3.94,5A1.57,1.57,0,0,0,77.81,88.61Z"/></svg>