<svg xmlns="http://www.w3.org/2000/svg" viewBox="0 0 52.17 68.62"><g style="isolation:isolate"><g id="Layer_1" data-name="Layer 1"><rect x="6.97" y="7.36" width="37.59" height="55.26" fill="#5c5c5c"/><path d="M12.89,57.19c0,1.53-.45,2.77-1,2.77H10.57c-.54,0-1-1.24-1-2.77V12.64c0-1.53.45-2.76,1-2.76H11.9c.54,0,1,1.23,1,2.76Z" fill="#fff"/><path d="M46.65,6A1.74,1.74,0,0,0,44.9,4.25H6.63A1.74,1.74,0,0,0,4.88,6h0A1.75,1.75,0,0,0,6.63,7.74H44.9A1.75,1.75,0,0,0,46.65,6Z" fill="#3b3b3b"/><path d="M46.65,62.62a1.75,1.75,0,0,0-1.75-1.75H6.63a1.75,1.75,0,0,0-1.75,1.75h0a1.75,1.75,0,0,0,1.75,1.75H44.9a1.75,1.75,0,0,0,1.75-1.75Z" fill="#3b3b3b"/><path d="M46.65,43.75A1.75,1.75,0,0,0,44.9,42H6.63a1.75,1.75,0,0,0-1.75,1.75h0A1.75,1.75,0,0,0,6.63,45.5H44.9a1.75,1.75,0,0,0,1.75-1.75Z" fill="#494949"/><path d="M46.65,24.87a1.75,1.75,0,0,0-1.75-1.75H6.63a1.75,1.75,0,0,0-1.75,1.75h0a1.75,1.75,0,0,0,1.75,1.75H44.9a1.75,1.75,0,0,0,1.75-1.75Z" fill="#494949"/><rect x="19.15" y="27.69" width="13.23" height="13.23" rx="4.91" transform="translate(-16.71 28.27) rotate(-45)" fill="silver"/><path d="M26.72,35.93a2.77,2.77,0,0,1-5.53,0c0-1.53,2.77-4.88,2.77-4.88S26.72,34.4,26.72,35.93Z" fill="#1a1a1a" opacity="0.82" style="mix-blend-mode:multiply"/><path d="M28.39,31.28a1.35,1.35,0,1,1-2.69,0c0-.74,1.34-2.37,1.34-2.37S28.39,30.54,28.39,31.28Z" fill="#1a1a1a" opacity="0.82" style="mix-blend-mode:multiply"/><path d="M30.06,34.21a.85.85,0,0,1-1.7,0c0-.47.85-1.5.85-1.5S30.06,33.74,30.06,34.21Z" fill="#1a1a1a" opacity="0.82" style="mix-blend-mode:multiply"/></g></g></svg>