<svg id="Layer_1" data-name="Layer 1" xmlns="http://www.w3.org/2000/svg" viewBox="0 0 73.57 68.62"><path d="M34.54,3.28,32,2.1a4.44,4.44,0,0,0-6.26.12L14,14a4.44,4.44,0,0,0-.12,6.26L15,22.89a14.73,14.73,0,0,0-.83,4.33H9.69V26A.71.71,0,0,0,9,25.24H6.14a.69.69,0,0,0-.7.71v1.72h0v8.14a.72.72,0,0,0,.71.71H9a.71.71,0,0,0,.71-.71V34.55h4.4c.15,3.22.56,6,1.26,6.68L39.71,65.59a4.53,4.53,0,0,0,6.39,0L71.2,40.48a4.51,4.51,0,0,0,0-6.39L40.63,3.52A4.5,4.5,0,0,0,34.54,3.28ZM17.82,19.94l-.58-1.24a3.82,3.82,0,0,0-.75-1.07.69.69,0,0,1,.12-.94L28.42,4.88a.69.69,0,0,1,.94-.12,3.82,3.82,0,0,0,1.07.75l1.24.58Z" fill="#d12832"/><path d="M59.84,35.41a1.14,1.14,0,0,1-.23,2.26L45.7,36.26l-3.82,3.82L43.29,54a1.14,1.14,0,0,1-2.26.23L39.58,40l-4.87-4.87L20.51,33.7a1.14,1.14,0,0,1,.23-2.27l13.9,1.42L38.47,29l-1.42-13.9a1.14,1.14,0,1,1,2.26-.23l1.45,14.2L45.63,34Z" fill="#8e0715"/><path d="M14.06,27.22H9.69V26A.71.71,0,0,0,9,25.24H6.14a.69.69,0,0,0-.7.71v1.72h0v8.14a.72.72,0,0,0,.71.71H9a.71.71,0,0,0,.71-.71V34.55h4.4l.12-7.32Z" fill="#3d4c66"/><path d="M9.69,26A.71.71,0,0,0,9,25.24H6.14a.69.69,0,0,0-.7.71v1.72h0v8.14a.72.72,0,0,0,.71.71H9a.71.71,0,0,0,.71-.71V26Z" fill="#252e3e"/><path d="M32,2.1a4.44,4.44,0,0,0-6.26.12L14,14a4.44,4.44,0,0,0-.12,6.26L15,22.89l2.78-2.95-.58-1.24a3.82,3.82,0,0,0-.75-1.07.69.69,0,0,1,.12-.94L28.42,4.88a.69.69,0,0,1,.94-.12,3.82,3.82,0,0,0,1.07.75l1.24.58,2.87-2.81Z" fill="#3d4c66"/><path d="M34.89,55.8c.55.55.84,1.15.64,1.35l-.47.47c-.2.2-.8-.09-1.35-.63l-16-16c-.55-.54-.84-1.15-.64-1.34l.48-.48c.19-.19.79.09,1.34.64Z" fill="#fff"/><path d="M25.33,14.53c.55-.55,1.15-.84,1.35-.64l.47.48c.2.19-.09.79-.63,1.34l-8.9,8.9c-.55.55-1.15.83-1.35.64l-.47-.48c-.2-.19.08-.8.63-1.34Z" fill="#fff"/><path d="M48.45,34.19a4.39,4.39,0,0,1-1.16,3.18l-3.68,4a4.43,4.43,0,0,1-6.26.27l-4-3.68a4.42,4.42,0,0,1-.28-6.26l3.68-4A4.43,4.43,0,0,1,43,27.43l4,3.68A4.37,4.37,0,0,1,48.45,34.19Z" fill="#ffc010"/><rect x="33.84" y="28.22" width="12.66" height="12.66" rx="4.91" transform="translate(46.47 87.16) rotate(-137.53)" fill="#ffc010"/><path d="M41.9,35.3a2.65,2.65,0,1,1-3.57,3.91c-1.08-1-1.66-5.1-1.66-5.1S40.82,34.32,41.9,35.3Z" fill="#252e3e"/><path d="M39.7,31.13A1.29,1.29,0,1,1,38,33a6.38,6.38,0,0,1-.8-2.48A6.33,6.33,0,0,1,39.7,31.13Z" fill="#252e3e"/><path d="M42.84,31.84A.81.81,0,0,1,42.9,33a.82.82,0,0,1-1.15,0,4,4,0,0,1-.51-1.57A4,4,0,0,1,42.84,31.84Z" fill="#252e3e"/><path d="M6.41,64.58a3.2,3.2,0,0,1-1.9,3.27,3,3,0,0,1-3.27-.42A3.06,3.06,0,0,1,.1,64.17,13.44,13.44,0,0,1,3,59c.15-.18.31-.27.48-.06C4.83,60.73,6.13,62.56,6.41,64.58ZM2.86,66.24c0-.79-.78-1.79-1.37-1.8s-.59.35-.6.73c0,.75.85,1.8,1.43,1.78S2.8,66.54,2.86,66.24Z" fill="#fbaf14"/><path d="M12.25,54.16a2.86,2.86,0,0,1-2.83,2.92,2.76,2.76,0,0,1-2.89-2.69,5.31,5.31,0,0,1,.78-2.76A18.13,18.13,0,0,1,9,49c.15-.19.34-.52.63-.12a12.94,12.94,0,0,1,2.52,4.6A4.63,4.63,0,0,1,12.25,54.16Zm-4.88.09c0,.73.72,1.7,1.3,1.71s.55-.28.56-.65c0-.68-.76-1.72-1.3-1.73S7.38,53.88,7.37,54.25Z" fill="#fbaf14"/><path d="M5.45,45a1.77,1.77,0,0,1-1.71,1.88,1.68,1.68,0,0,1-1.87-1.63c-.07-1.44.88-2.44,1.6-3.53.13-.21.28-.1.39,0A6.46,6.46,0,0,1,5.45,45ZM3.28,46.39a.46.46,0,0,0,.42-.63c-.14-.51-.37-1-1-1.06-.28,0-.38.29-.33.57A1.31,1.31,0,0,0,3.28,46.39Z" fill="#fbaf14"/></svg>