<svg id="Layer_1" data-name="Layer 1" xmlns="http://www.w3.org/2000/svg" viewBox="0 0 100 100"><path d="M89.29,58.48V74.66A14.63,14.63,0,0,1,74.66,89.29H25.34A14.63,14.63,0,0,1,10.71,74.66V25.34A14.63,14.63,0,0,1,25.34,10.71H43.88" fill="none" stroke="#000" stroke-linecap="round" stroke-linejoin="round" stroke-width="4"/><path d="M52.05,30.71l16.19-.15L47,50.65a2.68,2.68,0,0,0,3.68,3.89L71.92,34.45l-1,16.16a2.67,2.67,0,1,0,5.33.33l1.44-23A2.65,2.65,0,0,0,75,25.15l-23,.18A2.66,2.66,0,0,0,49.33,28,2.72,2.72,0,0,0,52.05,30.71Z"/></svg>