<svg id="Layer_1" data-name="Layer 1" xmlns="http://www.w3.org/2000/svg" viewBox="0 0 100 60.23"><rect x="4.41" y="40.62" width="83.97" height="3.82" rx="1.72" transform="translate(92.79 85.06) rotate(-180)" fill="#a9a9a9" stroke="#212121" stroke-miterlimit="10"/><polygon points="85.28 40.46 95.59 30.35 95.59 17.23 39.53 17 37.73 6.91 28.39 6.91 28.41 9.4 34.37 10.77 38.65 40.62 85.28 40.46" fill="#9a9a9a" stroke="#212121" stroke-miterlimit="10"/><circle cx="74.12" cy="45.32" r="8" fill="#585858" stroke="#212121" stroke-miterlimit="10"/><circle cx="74.12" cy="45.32" r="3.75" fill="#a9a9a9" stroke="#212121" stroke-miterlimit="10"/><circle cx="55.53" cy="45.32" r="8" fill="#585858" stroke="#212121" stroke-miterlimit="10"/><circle cx="55.53" cy="45.32" r="3.75" fill="#a9a9a9" stroke="#212121" stroke-miterlimit="10"/><polyline points="83.9 21.76 78.36 21.76 80.44 35.79" fill="none" stroke="#363636" stroke-linecap="round" stroke-miterlimit="10"/><polyline points="73.68 21.76 68.14 21.76 70.22 35.79" fill="none" stroke="#363636" stroke-linecap="round" stroke-miterlimit="10"/><polyline points="63.35 21.76 57.8 21.76 59.89 35.79" fill="none" stroke="#363636" stroke-linecap="round" stroke-miterlimit="10"/><polyline points="51.78 21.76 46.23 21.76 48.32 35.79" fill="none" stroke="#363636" stroke-linecap="round" stroke-miterlimit="10"/><path d="M6.49,40.62H31.36a1,1,0,0,0,1-1V15.13a1,1,0,0,0-1-1H10.92c-.55,0-.8.51-1,1L5.48,28.58v11A1,1,0,0,0,6.49,40.62Z" fill="#c9c9c9" stroke="#212121" stroke-miterlimit="10"/><circle cx="18.73" cy="45.32" r="8" fill="#585858" stroke="#212121" stroke-miterlimit="10"/><circle cx="18.73" cy="45.32" r="3.75" fill="#a9a9a9" stroke="#212121" stroke-miterlimit="10"/><path d="M11.63,27.9H25.92A1.9,1.9,0,0,0,27.82,26V19.72a1.9,1.9,0,0,0-1.9-1.89H13.84c-1,0-1.54.83-1.89,1.89L9.73,26C9.32,27.77,10.52,27.9,11.63,27.9Z" fill="#fff" stroke="#212121" stroke-miterlimit="10"/></svg>