<?xml version="1.0" encoding="utf-8"?>
<!-- Generator: Adobe Illustrator 25.2.0, SVG Export Plug-In . SVG Version: 6.00 Build 0)  -->
<svg version="1.1" id="Layer_1" xmlns="http://www.w3.org/2000/svg" xmlns:xlink="http://www.w3.org/1999/xlink" x="0px" y="0px"
	 viewBox="0 0 100 60.2" style="enable-background:new 0 0 100 60.2;" xml:space="preserve">
<style type="text/css">
	.st0{fill:#A9A9A9;stroke:#212121;stroke-miterlimit:10;}
	.st1{fill:#9A9A9A;stroke:#212121;stroke-miterlimit:10;}
	.st2{fill:#585858;stroke:#212121;stroke-miterlimit:10;}
	.st3{fill:none;stroke:#363636;stroke-linecap:round;stroke-miterlimit:10;}
	.st4{fill:#C9C9C9;stroke:#212121;stroke-miterlimit:10;}
	.st5{fill:#FFFFFF;stroke:#212121;stroke-miterlimit:10;}
</style>
<path fill="#A9A9A9" stroke="#212121" d="M11.6,42.7v-0.4c0-0.9,0.8-1.7,1.7-1.7h80.5c0.9,0,1.7,0.8,1.7,1.7v0.4c0,0.9-0.8,1.7-1.7,1.7H13.3
	C12.4,44.4,11.6,43.7,11.6,42.7z"/>
<polygon fill="#9A9A9A" stroke="#212121" points="61.3,40.6 65.6,10.8 71.6,9.4 71.6,6.9 62.3,6.9 60.5,17 4.4,17.2 4.4,30.4 14.7,40.5 "/>
<circle fill="#585858" stroke="#212121" cx="25.9" cy="45.3" r="8"/>
<circle fill="#A9A9A9" stroke="#212121" cx="25.9" cy="45.3" r="3.8"/>
<circle fill="#585858" stroke="#212121" cx="44.5" cy="45.3" r="8"/>
<circle fill="#A9A9A9" stroke="#212121" cx="44.5" cy="45.3" r="3.8"/>
<polyline fill="none" stroke="#363636"  points="19.6,35.8 21.6,21.8 16.1,21.8 "/>
<polyline fill="none" stroke="#363636"  points="29.8,35.8 31.9,21.8 26.3,21.8 "/>
<polyline fill="none" stroke="#363636"  points="40.1,35.8 42.2,21.8 36.6,21.8 "/>
<polyline fill="none" stroke="#363636"  points="51.7,35.8 53.8,21.8 48.2,21.8 "/>
<path fill="#C9C9C9" stroke="#212121" d="M93.6,40.6c0.6,0,1-0.5,1-1v-11l-4.4-13.4c-0.2-0.5-0.5-1-1-1H68.6c-0.6,0-1,0.4-1,1v24.5c0,0.6,0.4,1,1,1
	L93.6,40.6C93.5,40.6,93.5,40.6,93.6,40.6z"/>
<circle fill="#585858" stroke="#212121" cx="81.3" cy="45.3" r="8"/>
<circle fill="#A9A9A9" stroke="#212121" cx="81.3" cy="45.3" r="3.8"/>
<path fill="#FFFFFF" stroke="#212121" d="M90.3,26L88,19.7c-0.4-1.1-0.9-1.9-1.9-1.9H74.1c-1,0-1.9,0.8-1.9,1.9V26c0,1,0.9,1.9,1.9,1.9h14.3
	C89.5,27.9,90.7,27.8,90.3,26z"/>
</svg>
