<svg id="Layer_1" data-name="Layer 1" xmlns="http://www.w3.org/2000/svg" viewBox="0 0 100 60.23"><path d="M57.14,21.46c-.27.53-1,.63-1.53.7-.1,0-.2,0-.3,0a41.17,41.17,0,0,1-10.1.17c-.63-.1-1.27-.24-1.9-.3-.4-.07-.8-.1-1.2-.14a31.48,31.48,0,0,0-6.06.8,14,14,0,0,1-2.34.14c-1.4-.07-2.79-.5-4.19-.47a25,25,0,0,0-3.2.5,4.92,4.92,0,0,1-1,.1c-1.87.07-3.67-.63-5.5-.83a8.47,8.47,0,0,0-1-.07,32.1,32.1,0,0,0-4,.57,29.47,29.47,0,0,1-3,.1h-.43c-1.3,0-2.57,0-3.87-.07-.43,0-.86,0-1.29,0-1.6,0-2,0-2-.1s1.3-.7,1.54-.8a42.48,42.48,0,0,0,11.49-7.27c1.3-1.23,2.3-2.76,3.57-4,.8-.8,1.7-1.46,2.53-2.2a26.8,26.8,0,0,0,3.9-4.53c1-1.36,1.3-2.16,2.36-1.66a4.58,4.58,0,0,1,.94.6c.86.66,2.06.59,3,1,1.46.63,2.23,2.2,3.26,3.4,2,2.3,5.07,3.4,7.47,5.26,2.13,1.67,3.76,4,6.16,5.3a32.91,32.91,0,0,0,5.13,1.73,3,3,0,0,1,1.27.7A1.2,1.2,0,0,1,57.14,21.46Z" fill="#6d6e70"/><path d="M60.5,21.66c-.06.3-1.43.13-4.89.5-.14,0-.24,0-.3,0s.06,0,.06-.07c.2-.26-.1-.63-.36-.83-2-1.33-4.67-1.37-6.7-2.7-.73-.5-1.33-1.13-2.07-1.63-1.9-1.4-4.43-1.9-6-3.7-.54-.63-.9-1.37-1.44-2C37.51,9.73,35.38,9,34.25,7.4c-.7-1-1-2.37-2.1-3-.53-.34-1.2-.4-1.67-.84a4.87,4.87,0,0,1-.76-1.36.45.45,0,0,1-.1-.17,5.39,5.39,0,0,1,.93.6c.87.67,2.06.6,3,1,1.47.64,2.23,2.2,3.27,3.4,2,2.3,5.06,3.4,7.46,5.27,2.13,1.66,3.77,4,6.16,5.3,1,.53,2.44.7,5.14,1.73l2.49,1C60.24,21.36,60.5,21.52,60.5,21.66Z" fill="#58595b"/><path d="M43.31,22.06c-.4-.07-.8-.1-1.2-.14a8.07,8.07,0,0,0-1.3,0c-.86.06-1.7.23-2.53.36s-1.47.3-2.2.4a2.74,2.74,0,0,0,.87-.63,3.26,3.26,0,0,0,.26-3.26A18.85,18.85,0,0,1,36,15.63a4.25,4.25,0,0,0-.47-1.84c-.23-.3-.6-.56-.53-1,.67,0,1.17.66,1.53,1.23,1.1,1.73,2.24,3.47,3.34,5.17a8.56,8.56,0,0,0,1.26,1.63,7.34,7.34,0,0,0,2,1.1A1.62,1.62,0,0,0,43.31,22.06Z" fill="#58595b"/><path d="M27,10.36a14.66,14.66,0,0,1-.57,3.4,10.51,10.51,0,0,0-.67,1.93c-.13.74,0,1.5-.06,2.27a16.17,16.17,0,0,0-.17,1.83c.07,1.07.77,2.1.8,3.1a4.85,4.85,0,0,1-1,.1,10.39,10.39,0,0,1-2-.17c-.53-.1-1.06-.23-1.6-.33a17.27,17.27,0,0,0-1.86-.33c.26-.4.5-.77.6-.9.66-1.2,1.36-2.4,2-3.6a10,10,0,0,0,.8-1.6c.13-.4.23-.87.4-1.27a10.14,10.14,0,0,1,.73-1.33c.5-.8,1-1.6,1.47-2.4a3,3,0,0,1,.76-.93c.1-.07.2-.13.3-.07S27,10.23,27,10.36Z" fill="#58595b"/><path d="M15.62,18.06c-1.16,1.13-2.3,2.26-3.46,3.36a2.38,2.38,0,0,0-.7,1,.78.78,0,0,0,0,.3H9.29c-.57,0-1.13,0-1.73,0,1.53-1,3.1-2,4.63-3a30.4,30.4,0,0,0,2.53-1.8c.54-.4.93-1.06,1.67-1.1A2.05,2.05,0,0,1,15.62,18.06Z" fill="#58595b"/><path d="M31.45,10.76c.17.6.47,1.13.7,1.73a3,3,0,0,1,.2,1.84,18.18,18.18,0,0,1-1.3-3.1c-.23-.77-.47-1.57-.67-2.37a4.61,4.61,0,0,1-.33-2.16C31.25,7.46,31.12,9.6,31.45,10.76Z" fill="#404041"/><path d="M24.32,8.8a3.71,3.71,0,0,0-.9,1.16.74.74,0,0,0,.6-.3c.46-.43.93-.86,1.36-1.3a3.19,3.19,0,0,0,.44-.46,2.8,2.8,0,0,0,.43-1.5,2.37,2.37,0,0,0-.63,1A4.58,4.58,0,0,1,24.32,8.8Z" fill="#404041"/><path d="M24.38,16.26c-.06.47-.13.9-.2,1.37-.26,1.63-.49,3.26-.76,4.86,0,.1-.07.23-.1.3l-1.6-.33a4.15,4.15,0,0,1,.5-1,14.66,14.66,0,0,0,.7-1.69c.4-1,.8-2.07,1.16-3.1A.68.68,0,0,1,24.38,16.26Z" fill="#404041"/><path d="M38.38,21.92a3.56,3.56,0,0,0,0-1,9.34,9.34,0,0,0-.63-2c-.4-1-.84-2.1-1.24-3.13a.78.78,0,0,1,.34.26c1.33,1.84,1.83,4.27,3.63,5.67.1.1.23.16.33.26-.86.07-1.7.24-2.53.37C38.31,22.19,38.35,22,38.38,21.92Z" fill="#404041"/><path d="M12.39,20.46a20.62,20.62,0,0,0-1.67,1.7,2.08,2.08,0,0,1-.43.53h-1c.13-.3.9-.67,1.1-.83l.6-.5c.53-.47,1.06-.9,1.56-1.37C12.62,20.16,12.52,20.32,12.39,20.46Z" fill="#404041"/><path d="M38.91,10.4c.74.83,1.37,1.83,2.4,2.19A22.45,22.45,0,0,0,35.25,7c-.07.5,1.4,1.3,1.76,1.6A17.83,17.83,0,0,1,38.91,10.4Z" fill="#404041"/><path d="M27.15,5.13a.7.7,0,0,0-.17.43c0,.14.1.24.14.37a1.17,1.17,0,0,1-.1.73,16.36,16.36,0,0,0-.64,2.17.77.77,0,0,0,0,.37.28.28,0,0,0,.27.23c.2,0,.26-.23.33-.43.33-.9,1.47-1.34,1.63-2.27.07-.4,0-.8,0-1.17s.26-.73.36-1.13.34-2.16-.5-1.56C28,3.23,27.48,4.56,27.15,5.13Z" fill="#a0a0a0"/><path d="M22,11.2c-.93,1.06-1.86,2.16-2.83,3.23a5.88,5.88,0,0,0-.9,1.2c-.33.63-.43,1.33-.77,2-.53,1.07-1.7,1.84-2,3a.18.18,0,0,0,0,.23.3.3,0,0,0,.37,0,9.23,9.23,0,0,0,2.4-2.73c.86-1.13,1.93-2.1,2.83-3.2a7,7,0,0,0,1.77-3.83c0-.06,0-.13,0-.16s-.2,0-.26,0a5.47,5.47,0,0,0-.64.23Z" fill="#a0a0a0"/><path d="M27.62,13.73a5.82,5.82,0,0,0-.24,1,6.29,6.29,0,0,0,.07,1.06c.13,1.5-.33,3-.2,4.53,0,.34.13.7.43.77s.7-.4.94-.8a8.6,8.6,0,0,1,1.43-1.53A2.7,2.7,0,0,0,31,17c0-.87-.67-1.57-.94-2.4a5.78,5.78,0,0,1-.16-1.3c0-.43-.57-3.46-1.2-3.23-.24.07-.47,1.4-.5,1.6A21.45,21.45,0,0,1,27.62,13.73Z" fill="#a0a0a0"/><path d="M35.88,12.06c2,1.57,2.7,4.5,4.9,5.83a2.07,2.07,0,0,0-.4-1.36c-.67-1.1-1.3-2.17-2-3.27a5.28,5.28,0,0,0-1.73-2c-.5-.3-1.07-.43-1.57-.73-1.53-1-1.4-3.54-3-4.37.13,1,0,2.57.53,3.5C33.28,10.8,34.85,11.26,35.88,12.06Z" fill="#a0a0a0"/><rect x="11.84" y="45.62" width="83.97" height="3.82" rx="1.72" fill="#a8a9ae" stroke="#212121" stroke-miterlimit="10"/><polygon points="14.94 45.45 4.63 35.34 4.63 22.23 60.69 22 62.5 11.9 71.83 11.9 71.82 14.39 65.85 15.77 61.57 45.62 14.94 45.45" fill="#f88700" stroke="#212121" stroke-miterlimit="10"/><circle cx="26.1" cy="50.31" r="8" fill="#56585a" stroke="#212121" stroke-miterlimit="10"/><circle cx="26.1" cy="50.31" r="3.75" fill="#a8a9ae" stroke="#212121" stroke-miterlimit="10"/><circle cx="44.69" cy="50.31" r="8" fill="#56585a" stroke="#212121" stroke-miterlimit="10"/><circle cx="44.69" cy="50.31" r="3.75" fill="#a8a9ae" stroke="#212121" stroke-miterlimit="10"/><polyline points="16.32 26.75 21.87 26.75 19.78 40.78" fill="none" stroke="#582f01" stroke-linecap="round" stroke-miterlimit="10"/><polyline points="26.54 26.75 32.09 26.75 30 40.78" fill="none" stroke="#582f01" stroke-linecap="round" stroke-miterlimit="10"/><polyline points="36.87 26.75 42.42 26.75 40.33 40.78" fill="none" stroke="#582f01" stroke-linecap="round" stroke-miterlimit="10"/><polyline points="48.44 26.75 53.99 26.75 51.9 40.78" fill="none" stroke="#582f01" stroke-linecap="round" stroke-miterlimit="10"/><path d="M93.73,45.61H68.86a1,1,0,0,1-1-1V20.12a1,1,0,0,1,1-1H89.3c.55,0,.8.51,1,1l4.44,13.45v11A1,1,0,0,1,93.73,45.61Z" fill="#ffce1c" stroke="#212121" stroke-miterlimit="10"/><circle cx="81.49" cy="50.31" r="8" fill="#56585a" stroke="#212121" stroke-miterlimit="10"/><circle cx="81.49" cy="50.31" r="3.75" fill="#a8a9ae" stroke="#212121" stroke-miterlimit="10"/><path d="M88.59,32.89H74.3A1.88,1.88,0,0,1,72.41,31V24.72a1.88,1.88,0,0,1,1.89-1.89H86.38c1,0,1.54.83,1.89,1.89L90.49,31C90.9,32.76,89.7,32.89,88.59,32.89Z" fill="#fff" stroke="#212121" stroke-miterlimit="10"/></svg>