<svg id="Layer_1" data-name="Layer 1" xmlns="http://www.w3.org/2000/svg" viewBox="0 0 100 100"><path d="M40.36,82.08H13a1.84,1.84,0,0,1-1.84-1.84V70.71A1.85,1.85,0,0,1,13,68.87H40.36a1.85,1.85,0,0,1,1.84,1.84v9.53A1.84,1.84,0,0,1,40.36,82.08ZM14.84,78.4H38.52V72.55H14.84Z"/><path d="M97.1,16.42a1.81,1.81,0,0,0-.57-1.29l-7-6.76a1.85,1.85,0,0,0-2.61,0L50.45,46.13V26.46A10.14,10.14,0,0,0,40.32,16.32H13A10.15,10.15,0,0,0,2.9,26.46V90.31a1.84,1.84,0,0,0,1.84,1.84H62.06a1.84,1.84,0,0,0,0-3.68H50.45V55.05a4.89,4.89,0,0,1,4.65-4.88h.23a4.89,4.89,0,0,1,4.89,4.89V73.57a1.84,1.84,0,1,0,3.68,0V55.05a8.43,8.43,0,0,0-.54-3L96.58,17.73A1.87,1.87,0,0,0,97.1,16.42ZM78.72,30.9l-2.85,2.94L78.33,22.6l4.18-4.31L80.05,29.53ZM64.53,45.57,67,34.33l6.48-6.69L71,38.87ZM6.58,26.46A6.47,6.47,0,0,1,13,20H40.32a6.46,6.46,0,0,1,6.45,6.46V58.8H43.09V25.52a1.84,1.84,0,0,0-1.84-1.84H12.1a1.84,1.84,0,0,0-1.84,1.84V58.8H6.58ZM39.42,58.8H13.94V27.36H39.42ZM6.58,62.48H46.77v26H6.58ZM57.29,46.71l.66-3,4.17-4.32L60.23,48A8.58,8.58,0,0,0,57.29,46.71ZM84.91,24.49l2.47-11.23.93-1,4.34,4.2Z"/><path d="M55.33,61.8A1.84,1.84,0,0,1,53.5,60V56.89a1.84,1.84,0,1,1,3.67,0V60A1.84,1.84,0,0,1,55.33,61.8Z"/><path d="M62.06,84a2.2,2.2,0,0,1-.36,0,2,2,0,0,1-.35-.11,1.41,1.41,0,0,1-.32-.17,2.69,2.69,0,0,1-.28-.22,1.93,1.93,0,0,1-.22-.28,1.41,1.41,0,0,1-.17-.32,2,2,0,0,1-.11-.35,2,2,0,0,1,0-.35,2.19,2.19,0,0,1,0-.36,2,2,0,0,1,.11-.35,1.41,1.41,0,0,1,.17-.32,1.44,1.44,0,0,1,.22-.27,1.89,1.89,0,0,1,.28-.23,1.41,1.41,0,0,1,.32-.17,2,2,0,0,1,.35-.11,1.86,1.86,0,0,1,1.66.51,2,2,0,0,1,.23.27,3.24,3.24,0,0,1,.17.32,2,2,0,0,1,.1.35,2.09,2.09,0,0,1,0,.36,2,2,0,0,1,0,.35,2,2,0,0,1-.1.35,3.24,3.24,0,0,1-.17.32,3.11,3.11,0,0,1-.23.28,1.93,1.93,0,0,1-.28.22,1.41,1.41,0,0,1-.32.17,1.5,1.5,0,0,1-.34.11A2.2,2.2,0,0,1,62.06,84Z"/></svg>