<?xml version="1.0" encoding="utf-8"?>
<!-- Generator: Adobe Illustrator 25.2.0, SVG Export Plug-In . SVG Version: 6.00 Build 0)  -->
<svg version="1.1" id="Layer_1" xmlns="http://www.w3.org/2000/svg" xmlns:xlink="http://www.w3.org/1999/xlink" x="0px" y="0px"
	 viewBox="0 0 100 100" style="enable-background:new 0 0 100 100;" xml:space="preserve">
<style type="text/css">
	.st0{fill:#6D6E70;}
	.st1{fill:#58595B;}
	.st2{fill:#404041;}
	.st3{fill:#A0A0A0;}
	.st4{fill:#A8A9AE;stroke:#212121;stroke-miterlimit:10;}
	.st5{fill:#F88700;stroke:#212121;stroke-miterlimit:10;}
	.st6{fill:#56585A;stroke:#212121;stroke-miterlimit:10;}
	.st7{fill:none;stroke:#582F01;stroke-linecap:round;stroke-miterlimit:10;}
	.st8{fill:#FFCE1C;stroke:#212121;stroke-miterlimit:10;}
	.st9{fill:#FFFFFF;stroke:#212121;stroke-miterlimit:10;}
	.st10{fill:#6E6E6E;}
	.st11{fill:#595959;}
	.st12{fill:#404040;}
	.st13{fill:#A9A9A9;stroke:#212121;stroke-miterlimit:10;}
	.st14{fill:#9A9A9A;stroke:#212121;stroke-miterlimit:10;}
	.st15{fill:#585858;stroke:#212121;stroke-miterlimit:10;}
	.st16{fill:none;stroke:#363636;stroke-linecap:round;stroke-miterlimit:10;}
	.st17{fill:#C9C9C9;stroke:#212121;stroke-miterlimit:10;}
	.st18{fill:#FF0000;}
	.st19{fill:#FFFFFF;}
	.st20{fill:#010101;}
	.st21{fill:#F44336;}
</style>
<g>
	<g>
		<g>
			<path class="st19" d="M7.8,29.7v22c0,1,0.7,1.7,1.7,1.7h16.2c2.2,3.5,6.2,6.5,11,6.5c0.5,0,1,0,1.5,0L56,77.6
				c0.7,0.7,2,0.5,2.5,0l33.2-33.2c0.7-0.7,0.7-1.7,0-2.5l-20-19.5c-0.7-0.7-1.7-0.7-2.5,0l-6,6l-7-2.5c-5-2.2-9.5-1-11.5-0.2l0,0
				c-5.5,2.5-8.5,4.2-10.5,5.2c-2.5,1.5-3.5,2-6.2,2.2v-0.5c0-1-0.7-1.7-1.7-1.7h-4.7v-1.5c0-1-0.7-1.7-1.7-1.7H9.5
				C8.5,28,7.8,28.7,7.8,29.7z M74.4,30.2c-1.2,0.7-2.5,1-4,1c-1.5,0-2.7-0.5-4-1l4-4L74.4,30.2z M82.4,43.2c0-1.5,0.5-2.7,1-4l4,4
				l-4,4C82.9,45.9,82.4,44.4,82.4,43.2z M53,69.9c2.5-1.5,5.5-1.5,8,0l-4,4L53,69.9z M46.5,63.4c1.7-2.5,2.5-5.7,1.7-8.7l6-2
				c0.5,1.7,1.2,3.2,2.5,4.5c2,2,4.5,3,7,3s5-1,7-3c4-4,4-10.2,0-14c-1.5-1.5-3.2-2.5-5.2-2.7c-0.5-1.2-1.5-2.2-2.7-3
				c-0.7-0.5-1.5-0.7-2.2-0.7l3.7-3.7c1.7,1.2,4,2,6.5,2c2.5,0,4.5-0.7,6.5-2l4,4c-1.2,1.7-2,4-2,6.5c0,2.2,0.7,4.5,2,6.5l-18,17.5
				c-3.7-2.7-9-2.7-13,0L46.5,63.4z M66.2,43.9c0.7,0.2,1.5,0.7,2,1.5c2.5,2.5,2.5,6.5,0,9.2c-2.5,2.5-6.5,2.5-9.2,0
				c-1-1-1.5-2-1.7-3.2l3.5-1.2l0,0C63.9,49.2,65.9,46.7,66.2,43.9z M42,58.9c1.2-0.5,2.2-1,3-1.7c0,1.2-0.5,2.5-1,3.7L42,58.9z
				 M28.2,36.7c4-0.2,5.2-1,8-2.7c2-1.2,4.7-2.7,10.2-5.2c1.5-0.5,5-1.5,8.7,0.2l0,0l0,0l0,0l5.5,2l-6.5,6.5l0,0l0,0l-12.5,4
				c-1,0.2-1.5,1.2-1.2,2.2s1.2,1.5,2.2,1.2l15.7-5c0.7-0.2,1.7-0.2,2.5,0.2c0.7,0.5,1.2,1.2,1.5,2l0,0l0,0c0.5,2-0.7,3.7-2.7,4.5
				L46,51.4c-0.5,0.2-0.7,0.5-1,0.7l-0.2,0.2c-0.7,0.7-2.7,3-6.5,3.5l0,0c-0.5,0-1.2,0.2-1.7,0.2c-3.5,0-6.7-2.7-8.2-5.5V36.7z
				 M21.5,34.4h3.2v15.2h-3V34.4H21.5z M11.3,31.2h7v18.5h-7V31.2z"/>
		</g>
	</g>
	<circle class="st19" cx="35.2" cy="45.5" r="1.7"/>
</g>
</svg>
