<svg id="Layer_1" data-name="Layer 1" xmlns="http://www.w3.org/2000/svg" viewBox="0 0 73.57 68.62"><path d="M26,52a1.83,1.83,0,0,0-.08-.25,1.19,1.19,0,0,0-.12-.22,1,1,0,0,0-.16-.2,1.08,1.08,0,0,0-.2-.16.94.94,0,0,0-.22-.12,1.35,1.35,0,0,0-.75-.07,1,1,0,0,0-.24.07,1.16,1.16,0,0,0-.42.28,1.63,1.63,0,0,0-.17.2l-.12.22a1.82,1.82,0,0,0-.07.25,1.07,1.07,0,0,0,0,.25,1,1,0,0,0,0,.25,1.82,1.82,0,0,0,.07.25l.12.22a1.63,1.63,0,0,0,.17.2,1.16,1.16,0,0,0,.42.28,1,1,0,0,0,.24.07,1.07,1.07,0,0,0,.25,0,1.15,1.15,0,0,0,.26,0,1.09,1.09,0,0,0,.24-.07.94.94,0,0,0,.22-.12,1.08,1.08,0,0,0,.2-.16,1,1,0,0,0,.16-.2.94.94,0,0,0,.12-.22,1.83,1.83,0,0,0,.08-.25,2,2,0,0,0,0-.25A2.11,2.11,0,0,0,26,52Z"/><path d="M63.27,52.36v0c-1.2-2.8-4-3.83-7.32-2.7l-9,2.5a5.94,5.94,0,0,0-3.68-3.61l0,0-9.95-3.37A10.24,10.24,0,0,0,25,41.31c-3.4,0-6.4,2.33-8.11,4.87h-12a1.3,1.3,0,0,0-1.3,1.29V63.85a1.3,1.3,0,0,0,1.3,1.3h7.72a1.31,1.31,0,0,0,1.3-1.3V62.73h3.62a1.31,1.31,0,0,0,1.3-1.3v-.38a9.25,9.25,0,0,1,4.74,1.71,79.53,79.53,0,0,0,7.8,4l.06,0a11.57,11.57,0,0,0,4.18.79,10.33,10.33,0,0,0,4.3-.92l20-7.16.1,0C61.87,58.55,64.72,56.07,63.27,52.36Zm-52,10.19H6.14V48.77h5.12Zm4.92-2.42H13.86V48.77h2.32ZM58.92,57l-20,7.16-.06,0-.06,0a8.41,8.41,0,0,1-6.46.11,77.17,77.17,0,0,1-7.54-3.85,11.68,11.68,0,0,0-6-2.06V48C20,46,22.39,43.91,25,43.91a7.54,7.54,0,0,1,6.36,3,1.23,1.23,0,0,0,.68.55L42.33,51c1.65.62,2.52,2,2.12,3.44a2.53,2.53,0,0,1-3.1,1.74L29.71,52.44a1.31,1.31,0,0,0-1.63.85,1.3,1.3,0,0,0,.85,1.63l11.65,3.69,0,0a5.21,5.21,0,0,0,1.41.19,5.14,5.14,0,0,0,2.49-.65A5.08,5.08,0,0,0,47,55.1c0-.11.06-.21.08-.32l9.75-2.7c1.41-.48,3.26-.66,4.08,1.24C61.71,55.55,59.5,56.77,58.92,57Z"/><path d="M50.17,18.15a1,1,0,0,0-.08-.25.94.94,0,0,0-.12-.22,1,1,0,0,0-.16-.2,1.56,1.56,0,0,0-.2-.16.94.94,0,0,0-.22-.12,1.35,1.35,0,0,0-.75-.07,1,1,0,0,0-.24.07,1,1,0,0,0-.23.12,1.16,1.16,0,0,0-.36.36l-.12.22a1.82,1.82,0,0,0-.07.25,1.06,1.06,0,0,0,0,.5,1.82,1.82,0,0,0,.07.25l.12.22a1.16,1.16,0,0,0,.36.36,1,1,0,0,0,.23.12,1,1,0,0,0,.24.07,1.07,1.07,0,0,0,.25,0,1.15,1.15,0,0,0,.26,0,1.09,1.09,0,0,0,.24-.07.94.94,0,0,0,.22-.12,1.56,1.56,0,0,0,.2-.16,1,1,0,0,0,.16-.2,1.19,1.19,0,0,0,.12-.22,1,1,0,0,0,.08-.25,1.57,1.57,0,0,0,0-.5Z"/><path d="M68.73,5.46H61a1.3,1.3,0,0,0-1.3,1.3V7.88H56.09a1.3,1.3,0,0,0-1.3,1.3v.38a9.21,9.21,0,0,1-4.74-1.71,80.07,80.07,0,0,0-7.81-4l-.05,0A11,11,0,0,0,33.71,4L28.48,5.85l-4.4-4.4a1.3,1.3,0,0,0-1.84,0L7.78,15.91a1.28,1.28,0,0,0,0,1.83L32.49,42.46a1.42,1.42,0,0,0,1.84,0l13.2-13.21c.34,0,.7.05,1.07.05C52,29.3,55,27,56.71,24.44h12a1.3,1.3,0,0,0,1.3-1.3V6.76A1.3,1.3,0,0,0,68.73,5.46ZM23.16,4.2l3,3a5.64,5.64,0,0,1-5.92,0ZM13.49,19.79l-3-3,3-3a5.64,5.64,0,0,1,0,5.92ZM33.41,39.7l-3-3a5.68,5.68,0,0,1,5.92,0Zm4.83-4.83a8.26,8.26,0,0,0-9.66,0L15.36,21.66a8.21,8.21,0,0,0,0-9.66l3-3A8.26,8.26,0,0,0,28,9l2.81,2.81a5.06,5.06,0,0,0-1.75.6,5.13,5.13,0,0,0-2.12,2.23,7.41,7.41,0,1,0,8.51,9.17l4.39,1.48a8.33,8.33,0,0,0,1.37,6.59ZM30.34,22.1l0,0L33,23a4.76,4.76,0,0,1-1.29,2.35,4.8,4.8,0,1,1-5.23-7.84A5.75,5.75,0,0,0,30.34,22.1ZM43.08,30a5.52,5.52,0,0,1-.83-2.7,10,10,0,0,0,2.29,1.24Zm11.71-7.41c-1.23,2-3.62,4.08-6.19,4.08a9.81,9.81,0,0,1-1.36-.09h0A7.44,7.44,0,0,1,42.43,24l-.16-.21a1.26,1.26,0,0,0-.71-.59L31.23,19.66c-1.65-.62-2.52-2-2.12-3.43h0a2.54,2.54,0,0,1,3.11-1.74l11.64,3.69a1.3,1.3,0,0,0,.78-2.48l-9.25-2.93-.08-.08h0L30.51,7.88l4.12-1.47,0,0h0l.05,0a8.44,8.44,0,0,1,6.47-.11,77.17,77.17,0,0,1,7.54,3.85,11.65,11.65,0,0,0,6,2.06Zm4.92-.78H57.39V10.48h2.32Zm7.72,0H62.31V8.06h5.12Z"/></svg>