<svg id="Layer_1" data-name="Layer 1" xmlns="http://www.w3.org/2000/svg" viewBox="0 0 100 100"><path d="M85.54,23.39,65.47,3.32a2,2,0,0,0-1.42-.59H21.9a8,8,0,0,0-8,8V91.05a8,8,0,0,0,8,8H78.1a8,8,0,0,0,8-8V24.81A2,2,0,0,0,85.54,23.39ZM66.06,9.58,79.28,22.8H70.07a4,4,0,0,1-4-4ZM82.12,91.05a4,4,0,0,1-4,4H21.9a4,4,0,0,1-4-4V10.76a4,4,0,0,1,4-4H62v12a8,8,0,0,0,8,8H82.12Z"/><path d="M61.09,57.28a23.64,23.64,0,0,1,7.82,1.26,7.75,7.75,0,0,1,2.63,1.51c2.22,2,1.78,4.93-1,6.14a7.62,7.62,0,0,1-6.4-.26,21.36,21.36,0,0,1-6.46-5,1.82,1.82,0,0,0-1.59-.65A62.07,62.07,0,0,0,45,62.17a2.76,2.76,0,0,0-1.84,1.4A52.35,52.35,0,0,1,37.56,72a8.35,8.35,0,0,1-4.44,3.08,3.36,3.36,0,0,1-4.25-4.3,11.29,11.29,0,0,1,3.43-5.26,23.15,23.15,0,0,1,8.34-5A2.91,2.91,0,0,0,42.37,59c1.59-3.13,3.07-6.3,4.42-9.54a2.22,2.22,0,0,0-.12-2.16A17.94,17.94,0,0,1,44.4,35.62a6.37,6.37,0,0,1,1.43-3.32,3.3,3.3,0,0,1,5.66.73,11.79,11.79,0,0,1,.9,5.15,23.35,23.35,0,0,1-1.57,8.74,1.46,1.46,0,0,0,.27,1.64c2,2.44,4.07,4.9,6,7.42A2.79,2.79,0,0,0,60,57.29,6.72,6.72,0,0,1,61.09,57.28Zm-6.6.2-5.14-6.37-3.57,7.8A70.91,70.91,0,0,1,54.49,57.48ZM39,64.83a.59.59,0,0,0-.69,0,15.79,15.79,0,0,0-5.57,4.69c-.56.78-1.66,1.9-.83,2.62s1.85-.42,2.57-1.14A34,34,0,0,0,39,64.83Zm9.46-20.39a19.18,19.18,0,0,0,.75-8.75c-.07-.59-.07-1.57-.8-1.58s-.91,1-1.06,1.6C46.71,38.65,47.35,41.44,48.49,44.44Zm13,15.93c2,1.79,3.89,3.62,6.87,3.38.61,0,1.37-.1,1.53-.77s-.58-1-1.11-1.26A15.5,15.5,0,0,0,61.48,60.37Z" fill="#ed4139"/></svg>