<?xml version="1.0" encoding="utf-8"?>
<!-- Generator: Adobe Illustrator 25.2.0, SVG Export Plug-In . SVG Version: 6.00 Build 0)  -->
<svg version="1.1" id="Layer_1" xmlns="http://www.w3.org/2000/svg" xmlns:xlink="http://www.w3.org/1999/xlink" x="0px" y="0px"
	 viewBox="0 0 100 100" style="enable-background:new 0 0 100 100;" xml:space="preserve">
<style type="text/css">
	.st0{fill:#FF0000;}
	.st1{fill:#9A9A9A;}
	.st2{fill:#6D6E70;}
	.st3{fill:#58595B;}
	.st4{fill:#404041;}
	.st5{fill:#A0A0A0;}
	.st6{fill:#A8A9AE;stroke:#212121;stroke-miterlimit:10;}
	.st7{fill:#F88700;stroke:#212121;stroke-miterlimit:10;}
	.st8{fill:#56585A;stroke:#212121;stroke-miterlimit:10;}
	.st9{fill:none;stroke:#582F01;stroke-linecap:round;stroke-miterlimit:10;}
	.st10{fill:#FFCE1C;stroke:#212121;stroke-miterlimit:10;}
	.st11{fill:#FFFFFF;stroke:#212121;stroke-miterlimit:10;}
	.st12{fill:#6E6E6E;}
	.st13{fill:#595959;}
	.st14{fill:#404040;}
	.st15{fill:#A9A9A9;stroke:#212121;stroke-miterlimit:10;}
	.st16{fill:#9A9A9A;stroke:#212121;stroke-miterlimit:10;}
	.st17{fill:#585858;stroke:#212121;stroke-miterlimit:10;}
	.st18{fill:none;stroke:#363636;stroke-linecap:round;stroke-miterlimit:10;}
	.st19{fill:#C9C9C9;stroke:#212121;stroke-miterlimit:10;}
	.st20{fill:#FFFFFF;}
	.st21{fill:#010101;}
	.st22{fill:#F44336;}
	.st23{fill:#006941;}
	.st24{fill:none;stroke:#000000;stroke-width:4;stroke-linecap:round;stroke-linejoin:round;stroke-miterlimit:10;}
</style>
<g>
	<path d="M85.5,23.4L65.5,3.3c-0.4-0.4-0.9-0.6-1.4-0.6H21.9c-4.4,0-8,3.6-8,8v80.3c0,4.4,3.6,8,8,8h56.2c4.4,0,8-3.6,8-8V24.8
		C86.1,24.3,85.9,23.8,85.5,23.4z M66.1,9.6l13.2,13.2h-9.2c-2.2,0-4-1.8-4-4V9.6z M82.1,91.1c0,2.2-1.8,4-4,4H21.9
		c-2.2,0-4-1.8-4-4V10.8c0-2.2,1.8-4,4-4H62v12c0,4.4,3.6,8,8,8h12V91.1z"/>
</g>
<g>
	<path d="M61.1,57.3c2.7,0,5.3,0.3,7.8,1.3c1,0.4,1.9,0.8,2.6,1.5c2.2,2,1.8,4.9-1,6.1c-2.2,0.9-4.3,0.7-6.4-0.3
		c-2.5-1.1-4.6-3-6.5-5c-0.5-0.5-0.9-0.7-1.6-0.7c-3.7,0.3-7.5,0.9-11.1,1.9c-0.8,0.2-1.4,0.6-1.8,1.4c-1.6,3-3.4,5.8-5.6,8.4
		c-1.2,1.4-2.6,2.6-4.4,3.1c-2.9,0.7-5-1.4-4.3-4.3c0.5-2.1,1.9-3.8,3.4-5.3c2.4-2.3,5.2-3.9,8.3-5c0.8-0.3,1.3-0.8,1.7-1.6
		c1.6-3.1,3.1-6.3,4.4-9.5c0.3-0.8,0.3-1.4-0.1-2.2c-2-3.6-2.9-7.5-2.3-11.7c0.2-1.2,0.6-2.4,1.4-3.3c1.7-2,4.5-1.6,5.7,0.7
		c0.8,1.6,0.9,3.4,0.9,5.1c0.1,3-0.5,5.9-1.6,8.7c-0.2,0.6-0.2,1.1,0.3,1.6c2,2.4,4.1,4.9,6,7.4c0.8,1,1.6,1.5,2.9,1.3
		C60.3,57.2,60.7,57.3,61.1,57.3z M54.5,57.5c-1.8-2.2-3.4-4.2-5.1-6.4c-1.2,2.7-2.3,5.1-3.6,7.8C48.7,58.2,51.5,57.8,54.5,57.5z
		 M39,64.8c-0.3-0.2-0.5-0.1-0.7,0c-2.2,1.2-4.1,2.7-5.6,4.7c-0.6,0.8-1.7,1.9-0.8,2.6c0.7,0.6,1.9-0.4,2.6-1.1
		C36.3,69.2,37.7,67,39,64.8z M48.5,44.4c1-3.1,1.1-5.9,0.8-8.7c-0.1-0.6-0.1-1.6-0.8-1.6c-0.8,0-0.9,1-1.1,1.6
		C46.7,38.6,47.3,41.4,48.5,44.4z M61.5,60.4c2,1.8,3.9,3.6,6.9,3.4c0.6,0,1.4-0.1,1.5-0.8c0.2-0.7-0.6-1-1.1-1.3
		C66.5,60.6,64,60.3,61.5,60.4z"/>
</g>
</svg>
