<svg id="Layer_1" data-name="Layer 1" xmlns="http://www.w3.org/2000/svg" viewBox="0 0 100 100"><path d="M59.86,95.46H30.05a3,3,0,0,1-3-3V71.54a3,3,0,0,1,3-3H59.86a3,3,0,0,1,3,3V92.47A3,3,0,0,1,59.86,95.46Zm0-23.92H30.05V92.47h29.8Z"/><path d="M38.87,41.54h-10a2.3,2.3,0,0,1-2.3-2.29V31.88a2.3,2.3,0,0,1,2.3-2.29h10a2.3,2.3,0,0,1,2.3,2.29v7.37A2.3,2.3,0,0,1,38.87,41.54Zm-9.3-3h8.6V32.59h-8.6Z"/><path d="M38.87,61.35h-10a2.3,2.3,0,0,1-2.3-2.29V51.69a2.3,2.3,0,0,1,2.3-2.29h10a2.3,2.3,0,0,1,2.3,2.29v7.37A2.3,2.3,0,0,1,38.87,61.35Zm-9.3-3h8.6v-6h-8.6Z"/><path d="M61,61.35H51a2.3,2.3,0,0,1-2.29-2.29V51.69A2.3,2.3,0,0,1,51,49.4H61a2.3,2.3,0,0,1,2.29,2.29v7.37A2.3,2.3,0,0,1,61,61.35Zm-9.3-3h8.59v-6H51.74Z"/><path d="M57.21,38.17h-5.1V33h2.72l-1.21-2a16.93,16.93,0,0,1-1-1.78H51.23a2.86,2.86,0,0,0-2.86,2.86v7a2.86,2.86,0,0,0,2.86,2.86H59.5"/><rect x="43.45" y="70.05" width="3" height="24.5"/><path d="M71.8,3.54A18,18,0,0,0,56.49,31L70.28,53.23a2.07,2.07,0,0,0,3.54,0L87.27,30.76A18,18,0,0,0,71.8,3.54Zm13.87,18a13.84,13.84,0,0,1-2,7.09L72,48.16,60,28.82a13.87,13.87,0,1,1,25.66-7.28Z"/><path d="M71.8,12.22a9.32,9.32,0,1,0,9.31,9.32A9.33,9.33,0,0,0,71.8,12.22ZM77,21.54a5.19,5.19,0,1,1-5.18-5.19A5.19,5.19,0,0,1,77,21.54Z"/><path d="M72.06,57.53a2.08,2.08,0,0,1-1.78-1L69.93,56V92.44H20V26.64A4.08,4.08,0,0,1,24,22.57h26v-.1a18.27,18.27,0,0,1,.37-3.64H24a7.83,7.83,0,0,0-7.81,7.81V96.46H20v0h50v0h3.74V56.71A2.1,2.1,0,0,1,72.06,57.53Z"/></svg>