<?xml version="1.0" encoding="utf-8"?>
<!-- Generator: Adobe Illustrator 25.2.0, SVG Export Plug-In . SVG Version: 6.00 Build 0)  -->
<svg version="1.1" id="Layer_1" xmlns="http://www.w3.org/2000/svg" xmlns:xlink="http://www.w3.org/1999/xlink" x="0px" y="0px"
	 viewBox="0 0 100 100" style="enable-background:new 0 0 100 100;" xml:space="preserve">
<style type="text/css">
	.st0{fill:#6D6E70;}
	.st1{fill:#58595B;}
	.st2{fill:#404041;}
	.st3{fill:#A0A0A0;}
	.st4{fill:#A8A9AE;stroke:#212121;stroke-miterlimit:10;}
	.st5{fill:#F88700;stroke:#212121;stroke-miterlimit:10;}
	.st6{fill:#56585A;stroke:#212121;stroke-miterlimit:10;}
	.st7{fill:none;stroke:#582F01;stroke-linecap:round;stroke-miterlimit:10;}
	.st8{fill:#FFCE1C;stroke:#212121;stroke-miterlimit:10;}
	.st9{fill:#FFFFFF;stroke:#212121;stroke-miterlimit:10;}
	.st10{fill:#6E6E6E;}
	.st11{fill:#595959;}
	.st12{fill:#404040;}
	.st13{fill:#A9A9A9;stroke:#212121;stroke-miterlimit:10;}
	.st14{fill:#9A9A9A;stroke:#212121;stroke-miterlimit:10;}
	.st15{fill:#585858;stroke:#212121;stroke-miterlimit:10;}
	.st16{fill:none;stroke:#363636;stroke-linecap:round;stroke-miterlimit:10;}
	.st17{fill:#C9C9C9;stroke:#212121;stroke-miterlimit:10;}
	.st18{fill:#FF0000;}
	.st19{fill:#FFFFFF;}
	.st20{fill:#010101;}
	.st21{fill:#F44336;}
</style>
<g>
	<g>
		<path fill="#FFFFFF" d="M52.8,48c8.9,0,16.3-7.4,16.3-16.3s-7.1-16.3-16.3-16.3c-3.8,0-7.1,1.3-10.2,3.6c-0.8,0.5-1.3,1-1.8,1.8
			c-0.8,1-1.5,2-2.3,3.1c-1.5,2.5-2,5.3-2,8.1C36.5,40.6,43.9,48,52.8,48z M41.3,25.1c0.5-0.8,1-1.8,1.8-2.5c0.5-0.5,1-1,1.5-1.3
			c2.3-1.8,5.1-2.8,8.1-2.8c7.4,0,13.2,5.9,13.2,13.2s-5.9,13.2-13.2,13.2s-13.2-5.9-13.2-13.2C39.6,29.4,40.1,27.1,41.3,25.1z"/>
		<g>
			<g>
				<path fill="#FFFFFF" d="M90.4,64L90.4,64c-1.5-3.8-5.3-5.3-9.9-3.8l-12.2,3.3c-0.8-2-2.5-4.1-5.1-4.8l0,0l-13.5-4.6
					c-1-1.5-4.6-5.1-11.2-5.1c-4.6,0-8.6,3.1-10.9,6.6H10.8c-1,0-1.8,0.8-1.8,1.8v22.4c0,1,0.8,1.8,1.8,1.8h10.4
					c1,0,1.8-0.8,1.8-1.8v-1.5h4.8c1,0,1.8-0.8,1.8-1.8v-0.5c2.8,0.3,3.8,0.8,6.4,2.3c2,1.3,5.1,3.1,10.7,5.3l0,0c1,0.5,3.1,1,5.6,1
					c1.8,0,3.8-0.3,5.9-1.3l27.2-9.7c0,0,0,0,0.3,0C88.4,72.4,92.5,69.1,90.4,64z M19.5,77.7h-6.9V58.9h6.9V77.7z M26.3,74.4h-3.1
					V58.9h3.1V74.4z M84.6,70.3L57.4,80l0,0l0,0c-3.8,1.8-7.4,0.8-8.9,0.3c-5.3-2.3-8.1-4.1-10.2-5.3c-2.8-1.8-4.3-2.5-8.1-2.8V57.9
					c1.8-2.8,4.8-5.6,8.4-5.6c6.1,0,8.6,3.8,8.6,4.1c0.3,0.3,0.5,0.5,1,0.8l14,4.8c2.3,0.8,3.3,2.8,2.8,4.6c-0.3,0.8-0.8,1.5-1.5,2
					c-0.8,0.5-1.8,0.5-2.5,0.3l-15.8-5.1c-1-0.3-2,0.3-2.3,1.3s0.3,2,1.3,2.3l15.8,5.1l0,0c0.5,0.3,1.3,0.3,2,0.3
					c1.3,0,2.3-0.3,3.3-0.8c1.5-1,2.8-2.3,3.3-4.1c0-0.3,0-0.3,0-0.5l13.2-3.6c2-0.8,4.3-1,5.6,1.8C88.1,68.3,85.3,69.8,84.6,70.3z"
					/>
			</g>
		</g>
		<circle fill="#FFFFFF" cx="37.9" cy="63.7" r="1.7"/>
	</g>
	<g>
		<path fill="#FFFFFF" d="M58,28.6c-0.1-0.1-0.2-0.1-0.3-0.1h-2c-0.1-0.7-0.4-1.2-0.8-1.7h2.8c0.1,0,0.2,0,0.3-0.1
			c0.1-0.1,0.1-0.2,0.1-0.3v-1.2c0-0.1,0-0.2-0.1-0.3c-0.1-0.1-0.2-0.1-0.3-0.1h-9.9c-0.1,0-0.2,0-0.3,0.1c-0.1,0.1-0.1,0.2-0.1,0.3
			v1.6c0,0.1,0,0.2,0.1,0.3c0.1,0.1,0.2,0.1,0.3,0.1h1.7c1.7,0,2.7,0.4,3.2,1.3h-4.9c-0.1,0-0.2,0-0.3,0.1c-0.1,0.1-0.1,0.2-0.1,0.3
			v1.2c0,0.1,0,0.2,0.1,0.3c0.1,0.1,0.2,0.1,0.3,0.1h5.1c-0.2,0.6-0.6,1.1-1.2,1.5c-0.6,0.3-1.5,0.5-2.5,0.5h-1.3
			c-0.1,0-0.2,0-0.3,0.1c-0.1,0.1-0.1,0.2-0.1,0.3v1.5c0,0.1,0,0.2,0.1,0.3c1.5,1.6,3.5,3.9,5.9,6.8c0.1,0.1,0.2,0.1,0.3,0.1h2.3
			c0.2,0,0.3-0.1,0.3-0.2c0.1-0.1,0.1-0.3,0-0.4c-2.3-2.8-4.1-4.9-5.4-6.4c1.3-0.2,2.4-0.6,3.3-1.3c0.8-0.7,1.3-1.6,1.5-2.8h2
			c0.1,0,0.2,0,0.3-0.1c0.1-0.1,0.1-0.2,0.1-0.3v-1.2C58.1,28.8,58.1,28.7,58,28.6z"/>
	</g>
</g>
</svg>
