<?xml version="1.0" encoding="utf-8"?>
<!-- Generator: Adobe Illustrator 25.2.0, SVG Export Plug-In . SVG Version: 6.00 Build 0)  -->
<svg version="1.1" id="Layer_1" xmlns="http://www.w3.org/2000/svg" xmlns:xlink="http://www.w3.org/1999/xlink" x="0px" y="0px"
	 viewBox="0 0 512 512" style="enable-background:new 0 0 512 512;" xml:space="preserve">
<style type="text/css">
	.st0{fill:#F7991F;}
	.st1{fill:#3D3D3D;}
</style>
<circle class="st0" cx="256" cy="256" r="28.5"/>
<path class="st1" d="M83.9,133.4c-5.4-3.4-12.6-1.8-16.1,3.6c-65.6,104-34.5,241.5,69.5,307.1c87.9,55.5,202.6,42.7,276.2-30.8
	c86.8-86.8,86.8-228,0-314.8c-73.5-73.5-188-86.3-276-31c-5.3,3.6-6.8,10.8-3.2,16.2c3.4,5.1,10.3,6.7,15.6,3.5
	c79.2-49.9,180.8-38.5,247.1,27.8c77.7,77.7,77.7,204.1,0,281.9s-204.1,77.7-281.9,0c-65.4-65.4-77-169.4-27.6-247.4
	C90.9,144.2,89.3,137,83.9,133.4C83.9,133.5,83.9,133.5,83.9,133.4z"/>
<path class="st1" d="M407.5,267.9h14.4c6.4,0.2,11.8-4.9,12-11.3c0.2-6.4-4.9-11.8-11.3-12c-0.2,0-0.5,0-0.7,0h-14.4
	c-6.4,0.2-11.5,5.6-11.3,12C396.4,262.7,401.3,267.7,407.5,267.9z"/>
<path class="st1" d="M78.5,255.8c0,6.4,5.2,11.6,11.7,11.6h14.4c6.4,0.2,11.8-4.9,12-11.3c0.2-6.4-4.9-11.8-11.3-12
	c-0.2,0-0.5,0-0.7,0H90.1C83.7,244.2,78.5,249.4,78.5,255.8L78.5,255.8z"/>
<path class="st1" d="M267.9,104.5V90.1c0.2-6.4-4.9-11.8-11.3-12c-6.4-0.2-11.8,4.9-12,11.3c0,0.2,0,0.5,0,0.7v14.4
	c-0.2,6.4,4.9,11.8,11.3,12c6.4,0.2,11.8-4.9,12-11.3C267.9,104.9,267.9,104.7,267.9,104.5z"/>
<path class="st1" d="M244.2,407.5v14.4c-0.2,6.4,4.9,11.8,11.3,12c6.4,0.2,11.8-4.9,12-11.3c0-0.2,0-0.5,0-0.7v-14.4
	c-0.2-6.4-5.6-11.5-12-11.3C249.3,396.4,244.3,401.3,244.2,407.5z"/>
<path class="st1" d="M197.6,181.1c-4.6-4.6-11.9-4.6-16.5,0s-4.6,11.9,0,16.5l39.5,39.5c-10.5,19.6-3.1,43.9,16.4,54.4
	s43.9,3.1,54.4-16.4c6.3-11.8,6.3-26.1,0-37.9l79.7-79.7c4.7-4.4,4.8-11.8,0.4-16.5c-4.4-4.7-11.8-4.8-16.5-0.4
	c-0.1,0.1-0.3,0.3-0.4,0.4l-79.7,79.7c-11.8-6.3-26-6.3-37.8,0L197.6,181.1z M272.9,256c0,9.3-7.5,16.8-16.8,16.9
	c-9.3,0-16.8-7.5-16.8-16.8c0-9.3,7.5-16.8,16.8-16.8C265.3,239.2,272.8,246.7,272.9,256z"/>
<path class="st1" d="M115.1,115.1c4.6-4.6,4.6-11.9,0-16.5c-4.6-4.6-11.9-4.6-16.5,0c-4.6,4.6-4.6,11.9,0,16.5
	c2.2,2.2,5.2,3.4,8.2,3.4C109.9,118.5,112.9,117.3,115.1,115.1z"/>
</svg>
