<?xml version="1.0" encoding="utf-8"?>
<!-- Generator: Adobe Illustrator 25.2.0, SVG Export Plug-In . SVG Version: 6.00 Build 0)  -->
<svg version="1.1" baseProfile="tiny" id="Layer_1" xmlns="http://www.w3.org/2000/svg" xmlns:xlink="http://www.w3.org/1999/xlink"
	 x="0px" y="0px" viewBox="0 0 50 50" overflow="visible" xml:space="preserve">

<g>
	<path stroke="#020202" stroke-width="0.4" stroke-miterlimit="10" d="M19.6,28.6c0.2,0,0.3-0.2,0.3-0.3V28c0-0.2-0.2-0.3-0.3-0.3
		s-0.3,0.2-0.3,0.3v0.3C19.3,28.5,19.4,28.6,19.6,28.6z"/>
	<path stroke="#020202" stroke-width="0.4" stroke-miterlimit="10" d="M19.6,35.1c0.2,0,0.3-0.2,0.3-0.3l0,0v-5.1
		c0-0.2-0.2-0.3-0.3-0.3s-0.3,0.2-0.3,0.3v5.1C19.3,34.9,19.4,35.1,19.6,35.1L19.6,35.1z"/>
	<path stroke="#020202" stroke-width="0.4" stroke-miterlimit="10" d="M32,12.2c-0.1-0.2-0.3-0.2-0.5-0.1c-0.1,0-0.1,0.1-0.1,0.1
		l-2.1,3.6c-0.8,1.3-0.3,3,1,3.8c1.1,0.6,2.5,0.5,3.4-0.4c0.9-0.9,1.1-2.3,0.4-3.4L32,12.2z M33.1,18.7c-0.8,0.8-2.1,0.8-3,0
		c-0.7-0.7-0.8-1.7-0.3-2.5l1.8-3.1l1.8,3.1C33.9,17,33.8,18,33.1,18.7L33.1,18.7z"/>
	<path stroke="#020202" stroke-width="0.4" stroke-miterlimit="10" d="M32.6,16.7c-0.2,0-0.4,0.1-0.4,0.3c0,0,0,0,0,0
		c0,0.2-0.1,0.4-0.3,0.5c-0.1,0.1-0.2,0.2-0.4,0.2c-0.2,0.1-0.3,0.3-0.2,0.4c0.1,0.2,0.3,0.3,0.4,0.2c0.6-0.2,1-0.7,1.1-1.3
		C32.9,16.9,32.8,16.7,32.6,16.7C32.6,16.7,32.6,16.7,32.6,16.7L32.6,16.7z"/>
	<path stroke="#020202" stroke-width="0.4" stroke-miterlimit="10" d="M31.7,10.3c-1.8,0-3.6,0.9-4.7,2.4H16.5
		c-0.7,0-1.3,0.6-1.3,1.3c0,0.7,0.6,1.3,1.3,1.3h0.4v8.8h-0.4c-0.7,0-1.3,0.6-1.3,1.3c0,0.7,0.6,1.3,1.3,1.3c0,0,0,0,0,0h0.4v8.8
		h-0.4c-0.7,0-1.3,0.6-1.3,1.3c0,0.7,0.6,1.3,1.3,1.3h16.1c0.7,0,1.3-0.6,1.3-1.3c0-0.7-0.6-1.3-1.3-1.3h-0.4v-8.8h0.4
		c0.7,0,1.3-0.6,1.3-1.3c0-0.7-0.6-1.3-1.3-1.3h-0.4v-2.4c3.2-0.3,5.4-3.2,5.1-6.3C37.1,12.5,34.6,10.3,31.7,10.3L31.7,10.3z
		 M16.5,14.7c-0.4,0-0.6-0.3-0.6-0.6c0-0.4,0.3-0.6,0.6-0.6c0,0,0,0,0,0h10.1c-0.2,0.4-0.4,0.8-0.5,1.3H16.5z M32.6,36.4
		c0.4,0,0.6,0.3,0.6,0.6c0,0.4-0.3,0.6-0.6,0.6c0,0,0,0,0,0H16.5c-0.4,0-0.6-0.3-0.6-0.6c0-0.2,0.1-0.3,0.2-0.5
		c0.1-0.1,0.3-0.2,0.5-0.2h1.5c0.2,0,0.3-0.2,0.3-0.3c0-0.2-0.2-0.3-0.3-0.3h-0.4v-8.8h14.1v8.8H19.3c-0.2,0-0.3,0.2-0.3,0.3
		c0,0.2,0.2,0.3,0.3,0.3H32.6z M32.6,24.9c0.4,0,0.6,0.3,0.6,0.6c0,0.4-0.3,0.6-0.6,0.6c0,0,0,0,0,0H16.5c-0.4,0-0.6-0.3-0.6-0.6
		c0-0.4,0.3-0.6,0.6-0.6h11.4c0.2,0,0.3-0.2,0.3-0.3c0-0.2-0.2-0.3-0.3-0.3H17.5v-8.8H26c-0.4,3.2,1.9,6,5,6.4c0.2,0,0.4,0,0.6,0
		v2.4h-2.1c-0.2,0-0.3,0.2-0.3,0.3c0,0.2,0.2,0.3,0.3,0.3H32.6z M31.9,21.1c-0.1,0-0.2,0-0.2,0c-2.8,0-5.1-2.3-5.1-5.1
		c0-0.3,0-0.6,0.1-1c0.1-0.7,0.4-1.3,0.8-1.8c1.5-2.3,4.7-3,7-1.4s3,4.7,1.4,7C35,20.2,33.5,21,31.9,21.1L31.9,21.1z"/>
</g>
</svg>
