<?xml version="1.0" encoding="utf-8"?>
<!-- Generator: Adobe Illustrator 25.2.0, SVG Export Plug-In . SVG Version: 6.00 Build 0)  -->
<svg version="1.1" baseProfile="tiny" id="Layer_1" xmlns="http://www.w3.org/2000/svg" xmlns:xlink="http://www.w3.org/1999/xlink"
	 x="0px" y="0px" viewBox="0 0 50 50" overflow="visible" xml:space="preserve">

<g>
	<path stroke="#000000" stroke-width="0.2" stroke-miterlimit="10" d="M29.5,40.8c-0.9-0.2-1.5-0.2-2.2-0.4
		c-0.7-0.2-1.5-0.4-2.2-0.7c-0.4-0.2-0.8-0.5-0.8-1c0-0.5,0.4-0.8,0.8-1c1-0.5,2.1-0.7,3.3-0.8c2.2-0.3,4.4-0.4,6.6-0.2
		c0.5,0,0.7-0.1,0.7-0.6c0-3.4,0-6.8,0-10.2c0-0.6-0.3-0.7-0.7-0.6c-0.8,0.2-1.7,0.3-2,1.4c-0.4,1.2-1.4,1.9-2.3,2.8
		c-2.7,2.8-5.5,5.5-8.3,8.3c-0.7,0.7-1.1,0.7-1.9,0c-0.6-0.6-2.8-2.8-3.4-3.4c-0.2-0.2-0.5-0.5-0.2-0.8c0.3-0.3,0.6-0.1,0.8,0.2
		c0.6,0.6,2.7,2.7,3.3,3.3c0.3,0.3,0.5,0.4,0.8,0c3.1-3.1,6.3-6.2,9.4-9.4c2.1-2.2,2.1-5.2,0.2-7.5c-0.3-0.4-0.3-0.7-0.1-1.1
		c0.8-1.3,0.6-2.4-0.5-3.5c-1.6-1.6-3.3-3.3-4.9-4.9c-0.4-0.5-0.7-0.4-1.1,0c-2.3,2.3-4.6,4.7-7,7c-0.2,0.2-1.9,1.9-2.1,2.1
		c-0.2,0.2-0.5,0.4-0.7,0.1c-0.3-0.3-0.1-0.6,0.1-0.8c0.1-0.1,0.1-0.1,0.2-0.2c2.4-2.4,6.4-6.4,8.8-8.8c1.1-1.1,1.5-1.1,2.5,0
		c1.6,1.6,3.2,3.2,4.8,4.8c1.3,1.3,1.6,2.6,0.9,4.2c-0.2,0.5,1.1,2.6,1.6,2.8c0.8,0.3,1.7,0.4,2.6,0.6c1.2,0.4,2.1,1.6,2.1,3
		c0,3.6,0,7.2,0,10.8c0,0.6,0.2,0.9,0.8,1c0.4,0.1,0.8,0.3,1.2,0.5c0.9,0.5,0.9,1.3,0,1.8c-1,0.6-2.2,0.7-3.4,0.9
		c-0.4,0.1-0.6,0.3-1.4,0.3c-1.5,0-3.1,0-4.6,0c-0.2-0.1-0.4-0.2-0.6,0C30.2,40.8,29.8,40.8,29.5,40.8z M37.7,31.9
		c0-1.4,0-2.8,0-4.2c0-0.9,0.1-1.8-0.1-2.7c-0.2-1-1.1-1.8-2-1.8c-0.2,0-0.5,0-0.4,0.3c0,0.3-0.3,0.7,0.2,0.8c1,0.2,1.1,0.9,1.1,1.8
		c0,3.8,0,7.6,0,11.4c0,0.2,0,0.4,0,0.5c0,0.3-0.1,0.5-0.5,0.5c-0.3,0-0.4-0.2-0.4-0.4c0-0.5-0.3-0.6-0.7-0.6
		c-2.8-0.1-5.6-0.1-8.3,0.6c-0.5,0.1-1.3,0.1-1.3,0.6c0,0.5,0.8,0.5,1.3,0.6c3.4,0.8,6.9,0.7,10.4,0.4c0.9-0.1,1.9-0.3,2.7-0.7
		c0.2-0.1,0.5-0.2,0.4-0.3c-0.2-0.4-0.8-0.4-1.2-0.6c-0.3-0.1-0.4,0.1-0.4,0.4c0,0.3-0.1,0.5-0.4,0.5c-0.3,0-0.4-0.3-0.4-0.6
		c0-0.2,0-0.4,0-0.5C37.7,35.9,37.7,33.9,37.7,31.9z M33.7,23.4c0,0.2,0,0.4-0.1,0.7c0,0.2-0.1,0.5,0.2,0.5c0.3,0,0.3-0.3,0.3-0.5
		c0-0.2,0-0.5,0-0.7c0-0.3,0.1-0.6-0.3-0.6C33.4,22.8,33.7,23.2,33.7,23.4z"/>
	<path stroke="#000000" stroke-width="0.2" stroke-miterlimit="10" d="M8.8,25.4c2-2.2,4.1-4.1,6.1-6.2c0.2-0.2,0.5-0.4,0.7-0.1
		c0.3,0.3,0.1,0.6-0.2,0.8c-1.7,1.7-3.4,3.4-5.1,5.1c-0.6,0.5-0.5,0.8,0,1.3c2.3,2.3,4.6,4.6,6.9,6.9c0.1,0.1,0.3,0.3,0.4,0.5
		c0.1,0.2,0.1,0.4-0.1,0.5c-0.1,0.1-0.3,0.2-0.5,0.1c-0.2-0.1-0.4-0.3-0.5-0.4c-2.4-2.4-4.8-4.8-7.1-7.1c-0.2-0.2-0.5-0.5-0.7-0.8"
		/>
	<path stroke="#000000" stroke-width="0.2" stroke-miterlimit="10" d="M31.3,23.8c0,0.6-0.2,1-0.6,1.3c-2.9,2.9-5.8,5.8-8.7,8.6
		c-0.7,0.7-1.7,0.7-2.5,0c-2.1-2.1-4.2-4.2-6.3-6.3c-0.8-0.8-0.8-1.7,0-2.5c2.9-2.9,5.8-5.8,8.6-8.6c0.9-0.9,1.7-0.8,2.6,0
		c0.6,0.6,1.2,1.2,1.8,1.8c0.2,0.2,0.4,0.5,0.2,0.8c-0.3,0.3-0.6,0.1-0.8-0.1c-0.6-0.6-1.2-1.2-1.8-1.8c-0.5-0.5-0.9-0.5-1.4,0
		c-2.9,2.9-5.7,5.7-8.6,8.6c-0.4,0.4-0.4,0.8,0,1.3c2.1,2,4.1,4.1,6.1,6.1c0.4,0.4,0.9,0.5,1.3,0c2.8-2.9,5.7-5.7,8.5-8.5
		c0.5-0.5,0.5-0.9,0-1.4c-0.8-0.8-1.6-1.6-2.4-2.5c-0.2-0.2-0.5-0.5-0.2-0.8c0.3-0.3,0.6,0,0.8,0.2c0.9,0.8,1.7,1.7,2.6,2.6
		C31.2,22.9,31.4,23.3,31.3,23.8z"/>
	<path stroke="#000000" stroke-width="0.2" stroke-miterlimit="10" d="M23.6,18.4c-0.3,1.7-0.6,3.5-0.9,5.2
		c-0.1,0.8-0.1,0.8,0.7,0.7c1.7-0.3,3.4-0.5,5.1-0.8c0.3,0,0.8-0.2,0.9,0.3c0.1,0.5-0.4,0.5-0.8,0.5c-1.7,0.3-3.5,0.6-5.2,0.8
		c-0.6,0.1-1,0.3-1,1c-0.2,1.8-0.6,3.6-0.9,5.4c-0.1,0.3-0.1,0.7-0.6,0.7c-0.4-0.1-0.4-0.5-0.3-0.8c0.3-1.7,0.6-3.4,0.9-5.1
		c0.1-0.6,0-0.8-0.7-0.7c-1.7,0.3-3.4,0.6-5.1,0.9c-0.4,0.1-0.7,0.1-0.8-0.3c-0.1-0.4,0.3-0.5,0.6-0.5c1.8-0.3,3.6-0.6,5.4-0.9
		c0.5-0.1,0.8-0.2,0.9-0.9c0.2-1.8,0.6-3.5,0.9-5.3c0-0.1,0-0.2,0-0.3c0.1-0.3,0.2-0.6,0.6-0.6C23.6,17.8,23.6,18.1,23.6,18.4z"/>
	<path stroke="#000000" stroke-width="0.2" stroke-miterlimit="10" d="M30.5,16.7c0,0.7-0.3,1-0.7,1.2c-0.4,0.2-0.8,0.2-1.1-0.1
		c-1.4-1.3-2.7-2.7-4.1-4.1c-0.4-0.5-0.4-1,0.1-1.5c0.4-0.5,1.1-0.5,1.6-0.1c1.4,1.3,2.7,2.7,4,4C30.4,16.4,30.5,16.7,30.5,16.7z
		 M25.6,12.9c-0.2,0-0.3,0-0.3,0.2c0,0.2,0.1,0.3,0.2,0.4c1.1,1.1,2.3,2.3,3.4,3.4c0.1,0.1,0.3,0.4,0.5,0.2c0.3-0.2,0-0.4-0.1-0.6
		c-1.1-1.1-2.3-2.3-3.4-3.4C25.8,13,25.6,12.9,25.6,12.9z"/>
	<path stroke="#000000" stroke-width="0.2" stroke-miterlimit="10" d="M31.8,39.2c-0.5,0-1,0-1.5,0c-0.3,0-0.5-0.1-0.5-0.4
		c0-0.4,0.2-0.5,0.6-0.5c1,0.1,2.1,0.2,3.1,0.1c0.3,0,0.5,0.1,0.5,0.4c0,0.3-0.2,0.5-0.5,0.5c-0.6,0-1.1,0-1.7,0
		C31.8,39.3,31.8,39.3,31.8,39.2z"/>
</g>
</svg>
