<?xml version="1.0" encoding="utf-8"?>
<!-- Generator: Adobe Illustrator 25.2.0, SVG Export Plug-In . SVG Version: 6.00 Build 0)  -->
<svg version="1.1" baseProfile="tiny" id="Layer_1" xmlns="http://www.w3.org/2000/svg" xmlns:xlink="http://www.w3.org/1999/xlink"
	 x="0px" y="0px" viewBox="0 0 50 50" overflow="visible" xml:space="preserve">
<g>
	<g>
		<circle fill="#FFC101" cx="25" cy="25" r="24.5"/>
	</g>
</g>
<g>
	<g>
		<g>
			<path d="M18.8,25.1c0,0,0,0.1,0,0.1c0,0,0,0.1,0,0.1c0,0,0,0.1,0.1,0.1c0,0,0.1,0.1,0.1,0.1s0.1,0.1,0.1,0.1c0,0,0.1,0,0.1,0.1
				c0,0,0.1,0,0.1,0c0,0,0.1,0,0.1,0c0,0,0.1,0,0.1,0c0,0,0.1,0,0.1,0c0,0,0.1,0,0.1-0.1c0,0,0.1-0.1,0.1-0.1c0,0,0.1-0.1,0.1-0.1
				c0,0,0-0.1,0.1-0.1c0,0,0-0.1,0-0.1c0,0,0-0.1,0-0.1s0-0.1,0-0.1c0,0,0-0.1,0-0.1c0,0,0-0.1-0.1-0.1c0,0-0.1-0.1-0.1-0.1
				c0,0-0.1-0.1-0.1-0.1c0,0-0.1,0-0.1-0.1c0,0-0.1,0-0.1,0c-0.1,0-0.2,0-0.3,0c0,0-0.1,0-0.1,0c0,0-0.1,0-0.1,0.1
				c0,0-0.1,0.1-0.1,0.1c0,0-0.1,0.1-0.1,0.1c0,0,0,0.1-0.1,0.1c0,0,0,0.1,0,0.1C18.8,25,18.8,25.1,18.8,25.1z"/>
		</g>
	</g>
	<g>
		<g>
			<path d="M8.2,18.9v8.8c0,0.4,0.3,0.7,0.7,0.7h6.5c0.9,1.4,2.5,2.6,4.4,2.6c0.2,0,0.4,0,0.6,0l7.1,7.1c0.3,0.3,0.8,0.2,1,0
				l13.3-13.3c0.3-0.3,0.3-0.7,0-1L33.8,16c-0.3-0.3-0.7-0.3-1,0l-2.4,2.4l-2.8-1c-2-0.9-3.8-0.4-4.6-0.1c0,0,0,0,0,0
				c-2.2,1-3.4,1.7-4.2,2.1c-1,0.6-1.4,0.8-2.5,0.9v-0.2c0-0.4-0.3-0.7-0.7-0.7h-1.9v-0.6c0-0.4-0.3-0.7-0.7-0.7H8.9
				C8.5,18.2,8.2,18.5,8.2,18.9z M34.9,19.1c-0.5,0.3-1,0.4-1.6,0.4c-0.6,0-1.1-0.2-1.6-0.4l1.6-1.6L34.9,19.1z M38.1,24.3
				c0-0.6,0.2-1.1,0.4-1.6l1.6,1.6l-1.6,1.6C38.3,25.4,38.1,24.8,38.1,24.3z M26.3,35c1-0.6,2.2-0.6,3.2,0l-1.6,1.6L26.3,35z
				 M23.7,32.4c0.7-1,1-2.3,0.7-3.5l2.4-0.8c0.2,0.7,0.5,1.3,1,1.8c0.8,0.8,1.8,1.2,2.8,1.2c1,0,2-0.4,2.8-1.2
				c1.6-1.6,1.6-4.1,0-5.6c-0.6-0.6-1.3-1-2.1-1.1c-0.2-0.5-0.6-0.9-1.1-1.2c-0.3-0.2-0.6-0.3-0.9-0.3l1.5-1.5
				c0.7,0.5,1.6,0.8,2.6,0.8s1.8-0.3,2.6-0.8l1.6,1.6c-0.5,0.7-0.8,1.6-0.8,2.6c0,0.9,0.3,1.8,0.8,2.6L30.4,34
				c-1.5-1.1-3.6-1.1-5.2,0L23.7,32.4z M31.6,24.6c0.3,0.1,0.6,0.3,0.8,0.6c1,1,1,2.6,0,3.7c-1,1-2.6,1-3.7,0
				c-0.4-0.4-0.6-0.8-0.7-1.3l1.4-0.5c0,0,0,0,0,0C30.7,26.7,31.5,25.7,31.6,24.6z M21.9,30.6c0.5-0.2,0.9-0.4,1.2-0.7
				c0,0.5-0.2,1-0.4,1.5L21.9,30.6z M16.4,21.7c1.6-0.1,2.1-0.4,3.2-1.1c0.8-0.5,1.9-1.1,4.1-2.1c0.6-0.2,2-0.6,3.5,0.1c0,0,0,0,0,0
				c0,0,0,0,0,0c0,0,0,0,0,0l2.2,0.8L26.8,22c0,0,0,0,0,0l0,0l-5,1.6c-0.4,0.1-0.6,0.5-0.5,0.9c0.1,0.4,0.5,0.6,0.9,0.5l6.3-2
				c0.3-0.1,0.7-0.1,1,0.1c0.3,0.2,0.5,0.5,0.6,0.8c0,0,0,0,0,0c0,0,0,0,0,0c0.2,0.8-0.3,1.5-1.1,1.8l-5.5,1.9
				c-0.2,0.1-0.3,0.2-0.4,0.3c0,0-0.1,0.1-0.1,0.1c-0.3,0.3-1.1,1.2-2.6,1.4c0,0,0,0,0,0c-0.2,0-0.5,0.1-0.7,0.1
				c-1.4,0-2.7-1.1-3.3-2.2V21.7z M13.7,20.8H15v6.1h-1.2V20.8z M9.6,19.5h2.8v7.4H9.6V19.5z"/>
		</g>
	</g>
</g>
</svg>
