<?xml version="1.0" encoding="utf-8"?>
<!-- Generator: Adobe Illustrator 25.2.0, SVG Export Plug-In . SVG Version: 6.00 Build 0)  -->
<svg version="1.1" baseProfile="tiny" id="Layer_1" xmlns="http://www.w3.org/2000/svg" xmlns:xlink="http://www.w3.org/1999/xlink"
	 x="0px" y="0px" viewBox="0 0 50 50" overflow="visible" xml:space="preserve">
<g>

	<g>
		<path stroke="#020202" stroke-width="0.3" stroke-miterlimit="10" d="M27.6,30.5c0.7,0,1.3,0,1.8,0c0.2,0,0.3,0,0.3,0.2
			c0,0.2-0.1,0.2-0.3,0.2c-3.1,0-6.3,0-9.4,0c-0.1,0-0.2,0-0.2-0.2c0-0.2,0.1-0.2,0.2-0.2c0.5,0,1,0,1.5,0c0.1,0,0.2,0,0.3,0
			c-0.4-0.3-0.6-0.6-0.7-1.1c0-0.1-0.1-0.1-0.2-0.1c-0.3,0-0.5,0-0.8,0c-0.4,0-0.7-0.2-0.7-0.6c-0.2-1.6-0.4-3.2-0.6-4.8
			c0-0.3,0.1-0.6,0.4-0.7c0.1-0.1,0.1-0.1,0.2-0.2c0.1-0.9,0.9-1.5,1.8-1.5c0.2,0,0.2,0,0.3-0.2c0.4-0.6,1.1-0.9,1.8-0.7
			c0.1,0,0.3,0,0.4,0c0.5-0.2,1-0.2,1.5,0c0.1,0,0.2,0.1,0.4,0c0.8-0.3,1.6-0.1,2.2,0.6c0.1,0.1,0.2,0.1,0.3,0.1
			c1.1-0.1,1.9,0.6,2,1.7c0,0.1,0,0.2,0.2,0.2c0.3,0.1,0.4,0.4,0.4,0.7c-0.2,1.6-0.4,3.2-0.6,4.7c-0.1,0.4-0.3,0.7-0.7,0.7
			c-0.2,0-0.5,0-0.7,0c-0.1,0-0.2,0-0.2,0.1C28.1,30.1,28.1,30.1,27.6,30.5z M28.9,28.9c0.1,0,0.1,0,0.2,0c0.4,0,0.5,0,0.5-0.5
			c0.2-1.5,0.4-2.9,0.6-4.4c0.1-0.5,0-0.5-0.5-0.5c-3.3,0-6.5,0-9.8,0c-0.5,0-0.7-0.1-0.6,0.7c0.2,1.5,0.4,2.9,0.6,4.4
			c0,0.2,0.1,0.3,0.4,0.3c0.2,0,0.4,0,0.6,0c0.2,0,0.3,0,0.3-0.2c0.2-0.6,0.7-1.1,1.4-1.1c0.7,0,1.4,0.3,1.6,1
			c0.1,0.4,0.3,0.5,0.7,0.4c0,0,0,0,0.1,0c0.2,0,0.3,0,0.3-0.2c0.2-0.7,0.8-1.1,1.4-1.2c0.7,0,1.3,0.3,1.6,1
			C28.4,28.9,28.4,28.9,28.9,28.9C28.8,28.9,28.8,28.9,28.9,28.9z M24.7,23.1c1.6,0,3.1,0,4.7,0c0.2,0,0.3-0.1,0.3-0.3
			c-0.1-0.8-0.9-1.3-1.7-1.1c-0.2,0.1-0.3,0-0.4-0.2c-0.4-0.7-1.2-0.9-2-0.5c-0.1,0.1-0.3,0.1-0.4,0c-0.5-0.2-1-0.2-1.5,0
			c-0.2,0.1-0.3,0.1-0.4,0c-0.6-0.3-1.2,0-1.5,0.6c-0.1,0.2-0.2,0.3-0.4,0.2c-0.7-0.1-1.3,0.3-1.5,1c-0.1,0.2,0,0.3,0.2,0.3
			C21.6,23.1,23.1,23.1,24.7,23.1z M27.9,29.1c0-0.7-0.5-1.2-1.2-1.2c-0.7,0-1.2,0.5-1.2,1.2c0,0.7,0.5,1.2,1.2,1.2
			C27.4,30.3,27.9,29.8,27.9,29.1z M21.5,29.1c0,0.6,0.5,1.2,1.2,1.2c0.7,0,1.2-0.6,1.2-1.2c0-0.6-0.6-1.2-1.2-1.2
			C22,27.9,21.5,28.5,21.5,29.1z M23.5,30.5c0.8,0,1.6,0,2.4,0c-0.4-0.3-0.6-0.6-0.7-1c0-0.1-0.1-0.2-0.2-0.1
			c-0.2,0-0.6-0.2-0.7,0.1C24.1,29.8,23.9,30.2,23.5,30.5z"/>
	</g>
	<g>
		<g>
			
				<line fill="none" stroke="#010101" stroke-width="1.7" stroke-linecap="round" stroke-linejoin="round" stroke-miterlimit="10" x1="34.8" y1="17.2" x2="34.8" y2="25.3"/>
			<g>
				
					<path fill="none" stroke="#010101" stroke-width="1.7" stroke-linecap="round" stroke-linejoin="round" stroke-miterlimit="10" d="
					M34.8,17.2c0-1.7-1.4-3.1-3.1-3.1h-2.5c-0.1,1.3-1.2,2.4-2.5,2.4h-3.5c-1.4,0-2.4-1.1-2.5-2.4h-2.5c-1.7,0-3.1,1.4-3.1,3.1v17
					c0,1.7,1.4,3.1,3.1,3.1h13.5"/>
				<path fill="none" stroke="#010101" stroke-width="1.7" stroke-miterlimit="10" d="M20.6,13.9L20.6,13.9c0-1.4,1.1-2.5,2.5-2.5
					h3.5c1.4,0,2.5,1.1,2.5,2.5v0"/>
			</g>
		</g>
	</g>
</g>
<g>
	<g>
		<path fill="none" stroke="#FFC101" stroke-width="1.5" stroke-miterlimit="10" d="M28.6,24.8c3.2,0,5.5,3.2,4.4,6.3
			c-0.1,0.2-0.4,0.5,0,0.7c0.5,0.2,0.7,0.9,1.4,0.6c0.5-0.3,1-0.2,1.5,0.1c1.3,0.8,1.5,1,2.8,1.8c0.7,0.5,0.9,1.4,0.5,2.1
			c-0.5,0.7-1.3,0.9-2.1,0.4c-1.3-0.8-1.6-1-2.9-1.9c-0.4-0.3-0.7-0.7-0.7-1.2c0-0.4-0.8-1.2-1.2-1.3c-0.3,0-0.4,0.3-0.5,0.4
			c-1.9,1.8-4.9,1.8-6.7-0.1c-1.8-1.9-1.7-4.9,0.2-6.7C26.2,25.2,27.3,24.8,28.6,24.8z M24.7,29.5c0,2.1,1.7,3.8,3.8,3.8
			c2.1,0,3.9-1.7,3.9-3.8c0-2.1-1.7-3.9-3.8-3.9C26.4,25.7,24.7,27.4,24.7,29.5z M35.1,33.1c-0.4,0-0.6,0.2-0.7,0.4
			c-0.1,0.4,0.1,0.6,0.4,0.8c1.2,0.8,1.4,0.9,2.6,1.7c0.4,0.2,0.7,0.4,1,0c0.3-0.5,0-0.7-0.4-1c-1.2-0.7-1.3-0.9-2.5-1.6
			C35.4,33.2,35.2,33.1,35.1,33.1z"/>
	</g>
</g>
<g>
	<path stroke="#000000" stroke-width="0.4" stroke-miterlimit="10" d="M28.6,25c3.2,0,5.5,3.2,4.4,6.3c-0.1,0.2-0.4,0.5,0,0.7
		c0.5,0.2,0.7,0.9,1.4,0.6c0.5-0.3,1-0.2,1.5,0.1c1.3,0.8,1.5,1,2.8,1.8c0.7,0.5,0.9,1.4,0.5,2.1c-0.5,0.7-1.3,0.9-2.1,0.4
		c-1.3-0.8-1.6-1-2.9-1.9c-0.4-0.3-0.7-0.7-0.7-1.2c0-0.4-0.8-1.2-1.2-1.3c-0.3,0-0.4,0.3-0.5,0.4c-1.9,1.8-4.9,1.8-6.7-0.1
		c-1.8-1.9-1.7-4.9,0.2-6.7C26.2,25.4,27.3,25,28.6,25z M24.7,29.7c0,2.1,1.7,3.8,3.8,3.8c2.1,0,3.9-1.7,3.9-3.8
		c0-2.1-1.7-3.9-3.8-3.9C26.4,25.9,24.7,27.6,24.7,29.7z M35.1,33.2c-0.4,0-0.6,0.2-0.7,0.4c-0.1,0.4,0.1,0.6,0.4,0.8
		c1.2,0.8,1.4,0.9,2.6,1.7c0.4,0.2,0.7,0.4,1,0c0.3-0.5,0-0.7-0.4-1c-1.2-0.7-1.3-0.9-2.5-1.6C35.4,33.4,35.2,33.3,35.1,33.2z"/>
</g>
</svg>
