<?xml version="1.0" encoding="utf-8"?>
<!-- Generator: Adobe Illustrator 25.2.0, SVG Export Plug-In . SVG Version: 6.00 Build 0)  -->
<svg version="1.1" baseProfile="tiny" id="Layer_1" xmlns="http://www.w3.org/2000/svg" xmlns:xlink="http://www.w3.org/1999/xlink"
	 x="0px" y="0px" viewBox="0 0 50 50" overflow="visible" xml:space="preserve">
<g>
	<g>
		<circle fill="#FFC101" cx="25" cy="25" r="24.5"/>
	</g>
</g>
<g>
	<path d="M26.1,22.8c3.5,0,6.4-2.9,6.4-6.4S29.7,10,26.1,10c-1.5,0-2.8,0.5-4,1.4c-0.3,0.2-0.5,0.4-0.7,0.7
		c-0.3,0.4-0.6,0.8-0.9,1.2c-0.6,1-0.8,2.1-0.8,3.2C19.7,19.9,22.6,22.8,26.1,22.8z M21.6,13.8c0.2-0.3,0.4-0.7,0.7-1
		c0.2-0.2,0.4-0.4,0.6-0.5c0.9-0.7,2-1.1,3.2-1.1c2.9,0,5.2,2.3,5.2,5.2c0,2.9-2.3,5.2-5.2,5.2c-2.9,0-5.2-2.3-5.2-5.2
		C20.9,15.5,21.1,14.6,21.6,13.8z"/>
	<g>
		<g>
			<path d="M20.9,28.9c0,0,0-0.1,0-0.1c0,0,0-0.1-0.1-0.1c0,0-0.1-0.1-0.1-0.1c0,0-0.1-0.1-0.1-0.1c0,0-0.1,0-0.1-0.1
				c0,0-0.1,0-0.1,0c-0.1,0-0.2,0-0.3,0c0,0-0.1,0-0.1,0c0,0-0.1,0-0.1,0.1c0,0-0.1,0.1-0.1,0.1c0,0-0.1,0.1-0.1,0.1
				c0,0,0,0.1-0.1,0.1c0,0,0,0.1,0,0.1c0,0,0,0.1,0,0.1s0,0.1,0,0.1c0,0,0,0.1,0,0.1c0,0,0,0.1,0.1,0.1c0,0,0.1,0.1,0.1,0.1
				c0,0,0.1,0.1,0.1,0.1c0,0,0.1,0,0.1,0.1c0,0,0.1,0,0.1,0c0,0,0.1,0,0.1,0c0,0,0.1,0,0.1,0c0,0,0.1,0,0.1,0c0,0,0.1,0,0.1-0.1
				c0,0,0.1-0.1,0.1-0.1c0,0,0.1-0.1,0.1-0.1c0,0,0-0.1,0.1-0.1c0,0,0-0.1,0-0.1c0,0,0-0.1,0-0.1C20.9,28.9,20.9,28.9,20.9,28.9z"/>
		</g>
	</g>
	<g>
		<g>
			<path d="M40.9,29.1C40.9,29.1,40.9,29.1,40.9,29.1c-0.6-1.5-2.1-2.1-3.9-1.5l-4.8,1.3c-0.3-0.8-1-1.6-2-1.9c0,0,0,0,0,0l-5.3-1.8
				c-0.4-0.6-1.8-2-4.4-2c-1.8,0-3.4,1.2-4.3,2.6H9.6c-0.4,0-0.7,0.3-0.7,0.7v8.8c0,0.4,0.3,0.7,0.7,0.7h4.1c0.4,0,0.7-0.3,0.7-0.7
				v-0.6h1.9c0.4,0,0.7-0.3,0.7-0.7v-0.2c1.1,0.1,1.5,0.3,2.5,0.9c0.8,0.5,2,1.2,4.2,2.1c0,0,0,0,0,0c0.4,0.2,1.2,0.4,2.2,0.4
				c0.7,0,1.5-0.1,2.3-0.5l10.7-3.8c0,0,0,0,0.1,0C40.1,32.4,41.7,31.1,40.9,29.1z M13,34.5h-2.7v-7.4H13V34.5z M15.7,33.2h-1.2
				v-6.1h1.2V33.2z M38.6,31.6l-10.7,3.8c0,0,0,0,0,0c0,0,0,0,0,0c-1.5,0.7-2.9,0.3-3.5,0.1c-2.1-0.9-3.2-1.6-4-2.1
				c-1.1-0.7-1.7-1-3.2-1.1v-5.6c0.7-1.1,1.9-2.2,3.3-2.2c2.4,0,3.4,1.5,3.4,1.6c0.1,0.1,0.2,0.2,0.4,0.3l5.5,1.9
				c0.9,0.3,1.3,1.1,1.1,1.8c-0.1,0.3-0.3,0.6-0.6,0.8c-0.3,0.2-0.7,0.2-1,0.1l-6.2-2c-0.4-0.1-0.8,0.1-0.9,0.5
				c-0.1,0.4,0.1,0.8,0.5,0.9l6.2,2c0,0,0,0,0,0c0.2,0.1,0.5,0.1,0.8,0.1c0.5,0,0.9-0.1,1.3-0.3c0.6-0.4,1.1-0.9,1.3-1.6
				c0-0.1,0-0.1,0-0.2l5.2-1.4c0.8-0.3,1.7-0.4,2.2,0.7C40,30.8,38.9,31.4,38.6,31.6z"/>
		</g>
	</g>
	<g>
		<path d="M27.6,15.4C27.6,15.4,27.6,15.4,27.6,15.4l-0.7,0c0-0.2-0.1-0.4-0.2-0.5h0.8c0,0,0.1,0,0.1,0c0,0,0,0,0-0.1v-0.3
			c0,0,0-0.1,0-0.1c0,0,0,0-0.1,0h-2.8c0,0-0.1,0-0.1,0c0,0,0,0,0,0.1v0.5c0,0,0,0.1,0,0.1c0,0,0,0,0.1,0h0.5c0.5,0,0.8,0.1,0.9,0.4
			h-1.4c0,0-0.1,0-0.1,0c0,0,0,0,0,0.1v0.3c0,0,0,0.1,0,0.1c0,0,0,0,0.1,0h1.5c0,0.2-0.2,0.3-0.3,0.4c-0.2,0.1-0.4,0.1-0.7,0.1h-0.4
			c0,0-0.1,0-0.1,0c0,0,0,0,0,0.1v0.4c0,0,0,0.1,0,0.1c0.4,0.5,1,1.1,1.7,1.9c0,0,0,0,0.1,0h0.7c0,0,0.1,0,0.1-0.1c0,0,0-0.1,0-0.1
			c-0.7-0.8-1.2-1.4-1.6-1.8c0.4,0,0.7-0.2,0.9-0.4c0.2-0.2,0.4-0.5,0.4-0.8h0.6c0,0,0.1,0,0.1,0c0,0,0,0,0-0.1L27.6,15.4
			C27.6,15.5,27.6,15.4,27.6,15.4z"/>
	</g>
</g>
</svg>
