<?xml version="1.0" encoding="utf-8"?>
<!-- Generator: Adobe Illustrator 25.2.0, SVG Export Plug-In . SVG Version: 6.00 Build 0)  -->
<svg version="1.1" baseProfile="tiny" id="Layer_1" xmlns="http://www.w3.org/2000/svg" xmlns:xlink="http://www.w3.org/1999/xlink"
	 x="0px" y="0px" viewBox="0 0 50 50" overflow="visible" xml:space="preserve">
<g>
	<g>
		<circle fill="#FFC101" cx="25" cy="25" r="24.5"/>
	</g>
</g>
<g>
	<g>
		<path d="M30.7,29.8C30.7,29.7,30.6,29.7,30.7,29.8l-0.5,0c0-0.1-0.1-0.3-0.2-0.4h0.6c0,0,0,0,0.1,0c0,0,0,0,0-0.1V29
			c0,0,0,0,0-0.1c0,0,0,0-0.1,0h-2.2c0,0,0,0-0.1,0c0,0,0,0,0,0.1v0.4c0,0,0,0,0,0.1c0,0,0,0,0.1,0h0.4c0.4,0,0.6,0.1,0.7,0.3h-1.1
			c0,0,0,0-0.1,0c0,0,0,0,0,0.1v0.3c0,0,0,0,0,0.1c0,0,0,0,0.1,0h1.1c0,0.1-0.1,0.3-0.3,0.3c-0.1,0.1-0.3,0.1-0.6,0.1h-0.3
			c0,0,0,0-0.1,0c0,0,0,0,0,0.1V31c0,0,0,0,0,0.1c0.3,0.4,0.8,0.9,1.3,1.5c0,0,0,0,0.1,0h0.5c0,0,0.1,0,0.1,0c0,0,0-0.1,0-0.1
			c-0.5-0.6-0.9-1.1-1.2-1.4c0.3,0,0.5-0.1,0.7-0.3c0.2-0.2,0.3-0.4,0.3-0.6h0.4c0,0,0,0,0.1,0c0,0,0,0,0-0.1L30.7,29.8
			C30.7,29.8,30.7,29.8,30.7,29.8z"/>
	</g>
	<g>
		<path stroke="#000000" stroke-width="0.4" stroke-miterlimit="10" d="M29.5,25.8c3.2,0,5.5,3.2,4.4,6.2c-0.1,0.2-0.4,0.5,0,0.7
			c0.5,0.2,0.7,0.9,1.4,0.6c0.5-0.3,1-0.2,1.5,0.1c1.3,0.8,1.5,1,2.8,1.8c0.7,0.5,0.9,1.4,0.5,2.1c-0.5,0.7-1.3,0.9-2.1,0.4
			c-1.3-0.8-1.6-1-2.9-1.9c-0.4-0.3-0.7-0.7-0.7-1.2c0-0.4-0.8-1.2-1.2-1.3c-0.3,0-0.4,0.3-0.5,0.4c-1.9,1.8-4.9,1.8-6.7-0.1
			c-1.8-1.9-1.7-4.9,0.2-6.7C27.2,26.2,28.3,25.8,29.5,25.8z M25.7,30.5c0,2.1,1.7,3.8,3.8,3.8c2.1,0,3.9-1.7,3.9-3.8
			c0-2.1-1.7-3.9-3.8-3.9C27.4,26.7,25.7,28.4,25.7,30.5z M36.1,34c-0.4,0-0.6,0.2-0.7,0.4c-0.1,0.4,0.1,0.6,0.4,0.7
			c1.2,0.8,1.4,0.9,2.6,1.7c0.4,0.2,0.7,0.4,1,0c0.3-0.5,0-0.7-0.4-1c-1.2-0.7-1.3-0.9-2.5-1.6C36.4,34.1,36.2,34.1,36.1,34z"/>
	</g>
	<path d="M28.3,23.6h-8.7c-0.4,0-0.8-0.4-0.8-0.8v-0.1c0-0.4,0.4-0.8,0.8-0.8h8.7c0.4,0,0.8,0.4,0.8,0.8v0.1
		C29.1,23.3,28.7,23.6,28.3,23.6z"/>
	<path d="M23,27.7h-3.5c-0.5,0-0.8-0.4-0.8-0.8v0c0-0.5,0.4-0.8,0.8-0.8H23c0.5,0,0.8,0.4,0.8,0.8v0C23.9,27.4,23.5,27.7,23,27.7z"
		/>
	<path d="M22,31.8h-2.4c-0.5,0-0.8-0.4-0.8-0.8v0c0-0.5,0.4-0.8,0.8-0.8H22c0.5,0,0.8,0.4,0.8,0.8v0C22.8,31.4,22.5,31.8,22,31.8z"
		/>
	<g>
		
			<line fill="none" stroke="#010101" stroke-width="1.7" stroke-linecap="round" stroke-linejoin="round" stroke-miterlimit="10" x1="34.8" y1="17.9" x2="34.8" y2="26"/>
		<g>
			
				<path fill="none" stroke="#010101" stroke-width="1.7" stroke-linecap="round" stroke-linejoin="round" stroke-miterlimit="10" d="
				M34.8,17.8c0-1.7-1.4-3.1-3.1-3.1h-2.5c-0.1,1.3-1.2,2.4-2.5,2.4h-3.5c-1.4,0-2.4-1.1-2.5-2.4h-2.5c-1.7,0-3.1,1.4-3.1,3.1v17
				c0,1.7,1.4,3.1,3.1,3.1h13.5"/>
			<path fill="none" stroke="#010101" stroke-width="1.7" stroke-miterlimit="10" d="M20.6,14.6L20.6,14.6c0-1.4,1.1-2.5,2.5-2.5
				h3.5c1.4,0,2.5,1.1,2.5,2.5v0"/>
		</g>
	</g>
</g>
</svg>
