<?xml version="1.0" encoding="utf-8"?>
<!-- Generator: Adobe Illustrator 25.2.0, SVG Export Plug-In . SVG Version: 6.00 Build 0)  -->
<svg version="1.1" baseProfile="tiny" id="Layer_1" xmlns="http://www.w3.org/2000/svg" xmlns:xlink="http://www.w3.org/1999/xlink"
	 x="0px" y="0px" viewBox="0 0 50 50" overflow="visible" xml:space="preserve">
<g>
	<g>
		<circle fill="#FFC101" cx="25" cy="25" r="24.5"/>
	</g>
</g>
<g id="Page-1">
	<g id="_x30_07---Dump-Truck">
		<path id="Shape" d="M8.1,25c0,0.6,0.5,1.1,1.1,1.1h0.6v1.1c0,0.5,0.3,0.9,0.7,1c-1.1,1-1.6,2.7-1.1,4.1c0.5,1.5,1.8,2.5,3.3,2.7
			c1.5,0.2,3-0.6,3.8-1.9c0.7,1.2,2,1.9,3.3,1.9c1.4,0,2.7-0.7,3.4-1.9c0.2,0.1,0.4,0.2,0.6,0.2h4.7c0.8,1.2,2.2,1.8,3.6,1.7
			c1.4-0.1,2.6-1,3.2-2.2h4.9c0.9,0,1.7-0.8,1.7-1.7v-5.9c0-0.7-0.2-1.3-0.5-1.9l-4.3-7.7c-0.3-0.5-0.9-0.9-1.5-0.9h-5
			c-0.9,0-1.7,0.8-1.7,1.7V25h-1.1 M36.1,16.3l4,7h-5.5c-0.3,0-0.6-0.3-0.6-0.6V16h1.6C35.8,16,36,16.1,36.1,16.3L36.1,16.3z
			 M26.7,25H9.2 M10.9,27.3v-1.1h11.8v2.3c-0.7-0.8-1.8-1.2-2.8-1.2H10.9z M17.2,28.4c-0.2,0.2-0.5,0.5-0.6,0.8
			c-0.2-0.3-0.4-0.6-0.6-0.8H17.2z M13.2,34c-1.6,0-2.8-1.3-2.8-2.8s1.3-2.8,2.8-2.8s2.8,1.3,2.8,2.8C16,32.8,14.7,34,13.2,34z
			 M19.9,34c-1.6,0-2.8-1.3-2.8-2.8s1.3-2.8,2.8-2.8s2.8,1.3,2.8,2.8C22.7,32.8,21.5,34,19.9,34z M23.9,32.3v-6.2h5.1v2.3
			c-1,1-1.4,2.5-1,3.9H23.9z M31.8,34c-1.6,0-2.8-1.3-2.8-2.8s1.3-2.8,2.8-2.8c1.6,0,2.8,1.3,2.8,2.8C34.6,32.8,33.3,34,31.8,34z
			 M40.2,31.8h-4.6c0.2-1.1-0.2-2.3-0.9-3.2s-1.8-1.4-3-1.4c-0.6,0-1.2,0.1-1.7,0.4V16.5c0-0.3,0.3-0.6,0.6-0.6h2.3v6.8
			c0,0.9,0.8,1.7,1.7,1.7h6.1c0.1,0.3,0.1,0.6,0.1,0.9v0.2h-0.6c-0.3,0-0.6,0.3-0.6,0.6s0.3,0.6,0.6,0.6h0.6v1.1h-0.6
			c-0.3,0-0.6,0.3-0.6,0.6s0.3,0.6,0.6,0.6h0.6v2.3C40.8,31.5,40.5,31.8,40.2,31.8z"/>
		<path id="Shape_1_" d="M31.8,29.5c-0.9,0-1.7,0.8-1.7,1.7c0,0.9,0.8,1.7,1.7,1.7s1.7-0.8,1.7-1.7C33.5,30.3,32.7,29.5,31.8,29.5z
			 M31.8,31.8c-0.3,0-0.6-0.3-0.6-0.6c0-0.3,0.3-0.6,0.6-0.6s0.6,0.3,0.6,0.6C32.3,31.5,32.1,31.8,31.8,31.8z"/>
		<path id="Shape_2_" d="M19.9,29.5c-0.9,0-1.7,0.8-1.7,1.7c0,0.9,0.8,1.7,1.7,1.7s1.7-0.8,1.7-1.7C21.6,30.3,20.9,29.5,19.9,29.5z
			 M19.9,31.8c-0.3,0-0.6-0.3-0.6-0.6c0-0.3,0.3-0.6,0.6-0.6s0.6,0.3,0.6,0.6C20.5,31.5,20.2,31.8,19.9,31.8z"/>
		<path id="Shape_3_" d="M13.2,29.5c-0.9,0-1.7,0.8-1.7,1.7c0,0.9,0.8,1.7,1.7,1.7s1.7-0.8,1.7-1.7C14.9,30.3,14.1,29.5,13.2,29.5z
			 M13.2,31.8c-0.3,0-0.6-0.3-0.6-0.6c0-0.3,0.3-0.6,0.6-0.6s0.6,0.3,0.6,0.6C13.7,31.5,13.5,31.8,13.2,31.8z"/>
	</g>
</g>
<g id="surface1">
	<path stroke="#020202" stroke-width="0.4" stroke-miterlimit="10" d="M26.2,20.3c-0.1-0.5-0.3-1-0.6-1.4l1.2-1.2L24,14.8L22.8,16
		c-0.5-0.3-0.9-0.5-1.4-0.6v-1.7h-4v1.7c-0.5,0.1-1,0.3-1.4,0.6l-1.2-1.2l-2.8,2.8l1.2,1.2c-0.3,0.5-0.5,0.9-0.6,1.4h-1.7v4h1.7
		c0.1,0.2,0.2,0.5,0.3,0.7h0.6c-0.2-0.4-0.3-0.7-0.4-1.1l-0.1-0.2h-1.6v-2.9h1.6l0.1-0.2c0.2-0.6,0.4-1.2,0.7-1.7l0.1-0.2l-1.1-1.1
		l2-2l1.1,1.1l0.2-0.1c0.5-0.3,1.1-0.6,1.7-0.7l0.2-0.1v-1.6h2.9v1.6l0.2,0.1c0.6,0.2,1.2,0.4,1.7,0.7l0.2,0.1l1.1-1.1l2,2l-1.1,1.1
		l0.1,0.2c0.3,0.5,0.6,1.1,0.7,1.7l0.1,0.2h1.6v2.9h-1.6l-0.1,0.2c-0.1,0.4-0.2,0.7-0.4,1.1H26c0.1-0.2,0.2-0.5,0.3-0.7H28v-4H26.2z
		"/>
	<g>
		<path stroke="#020202" stroke-width="0.4" stroke-miterlimit="10" d="M14.5,22.3c0,1,0.3,2,0.8,2.7h0.7c-1.1-1.3-1.3-3.2-0.5-4.7
			c1.1-2.1,3.7-2.9,5.8-1.8s2.9,3.7,1.8,5.8c-0.1,0.3-0.3,0.5-0.5,0.7h0.7c0.7-1,1-2.3,0.8-3.6c-0.4-2.3-2.4-4-4.8-4
			C16.7,17.4,14.5,19.6,14.5,22.3z"/>
		<path stroke="#020202" stroke-width="0.4" stroke-miterlimit="10" d="M17.9,25v-1.5l-0.1-0.1c-0.9-0.8-1-2.3-0.2-3.2
			c0.4-0.5,1.1-0.8,1.7-0.8c0.1,0,0.2,0,0.3,0l-1.3,1.3l0.3,1.8l1.8,0.3l1.3-1.3c0,0.1,0,0.2,0,0.3c0,1.1-0.7,2-1.8,2.2L19.6,24v1
			h0.6v-0.6c1.2-0.4,2-1.5,2-2.7c0-0.3,0-0.6-0.2-0.9l-0.1-0.4l-1.8,1.8L19,22l-0.2-1.1l1.8-1.8L20.3,19c-0.3-0.1-0.6-0.2-0.9-0.1
			c-1.6,0-2.9,1.3-2.9,2.9c0,0.8,0.3,1.5,0.9,2V25H17.9z"/>
	</g>
</g>
</svg>
