<svg id="Layer_1" data-name="Layer 1" xmlns="http://www.w3.org/2000/svg" viewBox="0 0 240 197"><path d="M70.00044,127.18834a10.89767,10.89767,0,0,1,.17833-9.84444l19.63862-.0021a10.985,10.985,0,0,1-.08055,10.20966,3.88378,3.88378,0,0,0-1.90176-.44374Q78.91788,127.16474,70.00044,127.18834Z" fill="#e09e16"/><path d="M70.00044,127.18834q8.91735-.03631,17.83464-.08062a3.88378,3.88378,0,0,1,1.90176.44374c-1.79763,4.2526-5.30653,5.96114-9.62016,6.14715A10.46477,10.46477,0,0,1,70.00044,127.18834Z" fill="#e5aa15"/><path d="M89.81739,117.3418l-19.63862.0021c.87416-3.37176,5.94338-6.55935,10.57224-6.17485A10.625,10.625,0,0,1,89.81739,117.3418Z" fill="#d78a1a"/><path d="M162.42449,65.28867q-.59161-.47382-1.18317-.94788a1.01926,1.01926,0,0,0-1.3749-.86837l-.00668-.0198a.431.431,0,0,0-.5319-.41076q-.55211-.33973-1.10416-.67924a1.93992,1.93992,0,0,0-2.27016-1.64771l-.00589-.00421c-.05876-1.23567-.83925-1.42448-1.85173-1.27678q-.37-.31829-.74-.63636c-.10272-.61337-.48308-.79547-1.05551-.67908q-.36247-.303-.725-.60584c-.10028-.65612-.49215-.84071-1.09814-.679a.33247.33247,0,0,1-.25021-.16318c-.12751-.87409-.55194-1.36925-1.51005-1.18318-8.81923-6.26862-17.66384-12.50215-26.43215-18.8412-1.424-1.02947-2.2047-1.2735-3.33277.36384-.84339,1.22413-1.65752,2.65106-3.2059,3.25743a6.28339,6.28339,0,0,0-1.85128-3.57813l-.00855-1.7112q.02691-.21395.0437-.42894c1.97126-2.89385,3.33764.526,5.16639.5823-.35205-1.307-1.41769-1.70361-2.25636-2.32142-.64179-.47278-1.4845-.90249-1.06715-1.90433.8589-2.06173-.39342-4.02984-.20974-6.06478a1.02852,1.02852,0,0,0-.96205-1.16079c.3494,3.6015.78744,7.11768-1.19714,10.35521C107.33365,43.021,101.592,52.22583,95.32243,61.08073c-.99626,1.40706-2.42123,2.60739-2.743,4.45018a5.66719,5.66719,0,0,0-1.78658,1.86225c-.831,1.3354-1.36295,2.87392-2.61623,3.92821-.68276-3.08718,1.66011-5.32352,2.31387-8.047.38585-1.60738-.0051-3.507,1.77421-4.76313,2.26561-1.59948,2.1172-4.13611,1.93506-6.57174-.05987-.8005-.18537-1.5961-.28069-2.39341.42947-1.72043,2.15292-2.44775,2.96415-3.94736,1.37193-2.53609,3.32386-4.67967,4.67008-7.32649,1.197-2.35347,2.68435-4.91473,5.42719-6.324,1.68175-.864,3.9716-2.995,3.37674-4.279-.88479-1.90995.29476-2.65356.79009-3.91314-.80822-.45981-2.35.58254-2.27645-1.19807.33673-1.19174,2.35494-1.02714,2.14283-2.65943l-.03107.0046c.39783.89114,1.07293.49217,1.69.36322l.10389.04714.09284-.06632c2.82479.848,5.42968,2.00419,6.81688,4.86668-.06987.80467-.06973,1.57228.94741,1.80615l-.0201.01333c-.0773.577-.17849,1.16541.63088,1.31786l.12153.02376.03952.11736.39065.80359a.28512.28512,0,0,1,.121.31751c-.04541.44429.006.83667.52444.97881l.41492.71148c.09182,2.52447,1.13679,3.90015,3.14941,4.14612l1.236,1.20833c-.0383.698.1861,1.10815.97988.89433l-.05148.15486.06791-.14841c-.24428,1.156.52586,1.03054,1.2371.97943l-.00738-.02123c.52672,2.07939,1.99157,2.94369,4.00733,3.09444l.013-.017c-.09693,1.35635.70292,1.52291,1.77031,1.33453l.01367-.01568c-.17848,1.28926.66472,1.44741,1.62818,1.47244a2.15423,2.15423,0,0,0,2.33168,1.27483l.38487.413c.01418,1.25651.81451,1.45617,1.83244,1.36331l.42063.28873c.28466,1.85463,1.58548,2.32057,3.20755,2.34748l.34326.2609c.0305.31944.1743.53061.52231.5466l.00939-.04936c-.01869.57721.39543.60271.80615.63255a36.0808,36.0808,0,0,0,3.36077,2.43574c1.4111.80627,2.37948,2.47775,4.31364,2.2961a4.14889,4.14889,0,0,0,.63342.16089c.93681.09058,1.72939,2.13678,2.39459.87167.54015-1.02725-1.24116-1.73621-2.33816-2.20316a1.19916,1.19916,0,0,0-.43271-.00812.13339.13339,0,0,1-.12033-.18038,9.53483,9.53483,0,0,0-5.69426-3.81391l.02118.018c-.03948-1.45907-1.35561-1.842-2.25624-2.4265-1.99516-1.29493-3.41168-3.531-6.04224-3.80852q-.49419-.16568-.98831-.32983c.11612-1.05011-.883-1.27808-1.38458-1.87351-.31661-.49445-.80894-.44566-1.2942-.41868l-.03019-.02225c-.07123-1.14273-.80418-1.37485-1.77-1.28646l-.02159-.0119c.04139-.94766-.67145-1.43134-1.27951-1.91076-1.59-1.25356-3.2179-2.46073-4.86077-3.64462-.75882-.54683-1.03665-1.916-2.40586-1.455l-1.163-1.38665c-.16713-3.20411-2.09714-5.71079-3.40046-8.45709a2.39668,2.39668,0,0,0-1.88-1.39372q-.23784-1.09707-.47565-2.19394a15.17178,15.17178,0,0,1,2.14138,1.45727c1.13092.81457,1.97093,2.20165,3.63692,2.10378l.42207-.42091.02166-.01572a8.55384,8.55384,0,0,1,3.09108.43413.93137.93137,0,0,1,.87834.46015c.08718.537.16361,1.09375.87777.47714a48.78621,48.78621,0,0,1,7.53716,5.29835c.05351.8598.67184.87382,1.30223.86979l.473.44726a34.09541,34.09541,0,0,0,8.03927,8.21,94.74455,94.74455,0,0,1,10.03646,8.61988,6.21921,6.21921,0,0,0,4.05134,2.222l-.02309.86778c-1.5651,1.46489.17857,2.50514.504,3.71427.17584.65333.28336,1.7173,1.25349,1.45044.98794-.27177.18526-1.09269.13012-1.6691-.0592-.61879-.0654-1.27934.62257-1.46974.6778-.18758.903.51158.95494.9542.46531,3.96388,1.53054,7.85337,1.5864,11.86037.01972,1.41477.75714,1.27155,1.51814.89551,1.19014-.58811,1.08346-1.53606.52162-2.60072-.55974-1.06073-1.44548-2.14931-.35108-3.40541,1.24019.7973,2.02552,2.19377,3.512,2.6666l.31969.43a.52678.52678,0,0,0,.28911.84132l.10066.95462a2.0957,2.0957,0,0,0-.67014,1.35226l-1.45644,1.34843q-.90069.06561-.65355.93428l-.03047.09554-1.642-.00613q-.60253-.45657-1.20494-.91335a1.06033,1.06033,0,0,0-1.38892-.91663q-.36927-.30112-.73852-.60211c-.08266-.81945-.67972-.8449-1.29658-.83974l-.493-.44667C163.4438,65.29061,163.06155,65.08847,162.42449,65.28867ZM132.3516,29.47377c1.00166,2.887,23.40222,21.77894,26.228,22.28033C150.26389,43.831,141.33954,36.62029,132.3516,29.47377Z" fill="#e5aa15"/><path d="M170.96487,68.67545q.72822-.67422,1.45615-1.34836a20.46611,20.46611,0,0,1,11.00646-.42131,40.8797,40.8797,0,0,1,4.25085,1.67885c2.22852,1.16535,4.811,1.76643,6.48323,3.86882a1.83487,1.83487,0,0,0,.90942,2.03123c2.63878,1.739,3.75479,4.67888,5.69544,7.18976-4.102-.36809-4.102-.36809-7.239-3.15079a2.29836,2.29836,0,0,0-3.90335,1.27866c-2.59007-.32746-5.0005-1.63558-8.01207-1.7484.75552,1.01522,1.55442.97617,2.17606,1.28652,3.27618,1.63564,7.05557,1.73945,10.3226,3.39946.1343.45174.4913.52994.89329.5327l-.00822-.01238-.01315,1.78519c-2.18347-1.16168-2.18223.78411-2.7438,1.92936-.48432-.22358-1.31868.14642-1.36827-.80844.07152-.12494.46584-.122.15884-.39511l-.25657.30009c-2.92645-.02826-5.438-1.53193-8.13143-2.36326-2.07766-.64128-4.19242-1.08677-6.2872-1.625a4.645,4.645,0,0,1-3.33143-2.28991c-1.397-2.90768-2.86047-5.81812-2.9755-9.153q.11677-.468.23364-.9348l.029-.09587A1.27742,1.27742,0,0,0,170.96487,68.67545Zm14.18234.056c-.57771-.01705-.7415.2836-.71848.83023a4.17016,4.17016,0,0,0,3.60769,3.32218c1.05228-.0147,1.09989-.8568,1.12908-1.55059C189.2039,70.42026,186.44287,68.68883,185.14721,68.73144Z" fill="#59595b"/><path d="M215.73057,61.459c1.9757,2.88415,4.233,5.59679,5.44717,8.94473-.76528.81186-.55606,1.22337.52453,1.27688l-.04611-.03928c-.35566,1.07581.34553,2.00087.42894,3.0139-.684-.2626-1.2803-.338-1.37969.64676-2.48382,1.75356-4.22781,4.20847-6.13065,6.50707-1.59871,1.93121-3.44043,2.30524-5.582,1.0669-.817-.47241-1.46239-1.25847-2.47808-1.37169-.669-2.23131-2.21406-3.92463-3.53445-5.75591l-.89969-2.66274c2.10065-.59632,2.23073-3.16926,4.09078-4.04308,2.5444-1.19532,3.63731-3.63136,4.77528-5.962.49372-1.01119.7217-2.05044,2.11315-.98842.64132.48946.91128.10421.984-.54233Z" fill="#59595b"/><path d="M93.91888,49.54561c.09549.79783.221,1.59343.28086,2.39393.18214,2.43563.33055,4.97226-1.93506,6.57174-1.77931,1.25615-1.38836,3.15575-1.77421,4.76313-.65376,2.72344-2.99663,4.95978-2.31388,8.04687.09166.80588-.39672,1.32948-.81041,1.95728-3.18457,4.8329-6.623,9.58144-6.28384,15.81891a13.68068,13.68068,0,0,1-3.801.24778q.091-.5194.17913-1.0367c.0674-.4221.05565-.81059-.42459-1.00017l-.03731.02612c.16077-.67184-.40592-1.06051-.60347-1.59048-.3908-1.04847-.31939-2.50424.685-2.68326,1.86514-.33243,1.56028-.98358.98536-2.22825-.23868-.51676.07711-1.2819.11471-1.93558.10213-1.77509,1.79436-2.9979,1.8892-4.61118.15666-2.66446.708-5.03187,2.701-6.80795-.54764-.96394-1.52741.43774-1.98007-.7808,1.27344-.25514,1.80272-1.50943,2.93394-2.05838,1.65526-.80325,1.55781-1.76321.01068-2.6559a.91823.91823,0,0,1,.49374-.86348l.39074-.38134.071-.0729.38442-.42568.00614-.00342c1.10978-.06553,1.35638-.79555,1.33378-1.73283l.465-.47735c.46359-.13637,1.49681.25306.84364-.91413A.89986.89986,0,0,1,88.217,56.243l.40257-.40146C90.309,53.678,91.674,51.2415,93.91888,49.54561Z" fill="#e09e16"/><path d="M113.93,34.54906q-.01679.215-.04376.42884a1.01561,1.01561,0,0,0,.00861,1.7113,6.28339,6.28339,0,0,1,1.85128,3.57813q-7.1365,10.68246-14.28127,21.36172c-.40264.60082-.8959,1.14089-1.347,1.709a7.833,7.833,0,0,1-1.55326-1.51181c-1.12533-1.96021-1.86057-.89952-2.626.24672-.809,1.21143-1.58131,2.44829-2.42058,3.63811-.34255.48561-.80022.782-.93863-.1802.32179-1.84279,1.74676-3.04312,2.743-4.45018,6.26958-8.8549,12.01122-18.05972,18.08181-27.04505Q113.6674,34.2928,113.93,34.54906Z" fill="#d17b1f"/><path d="M86.87967,58.02572q-.2325.23866-.4651.47693a2.089,2.089,0,0,0-1.33365,1.73325l-.00614.00336-.38442.42574-.07077.0723q-.19524.19037-.391.38194a.91818.91818,0,0,0-.49367.86375,19.62251,19.62251,0,0,0-4.01018,4.635,88.07757,88.07757,0,0,1-6.61194,8.42038c-1.63188,1.79589-2.83217,3.56332-2.562,5.54935.48181,3.54128.10861,7.04711.32278,10.558-.46792.541-1.12182.63093-2.07223.81277a57.0286,57.0286,0,0,1,1.54442-14.59786c1.4499-5.44289,5.47987-9.19155,8.70206-13.41494,5.16988-6.77629,10.75856-13.23235,16.146-19.8435,3.52428-4.3248,7.11664-8.60132,10.46237-13.06163,1.83481-2.44607,3.36482-5.18431,2.6787-8.51671q.26706.017.53474.035c-.0724,1.7799,1.4694.73755,2.27762,1.19736-.49533,1.25958-1.67488,2.00319-.79009,3.91314.59486,1.28407-1.695,3.415-3.37674,4.279-2.74284,1.40922-4.23019,3.97048-5.42719,6.324-1.34622,2.64682-3.29815,4.7904-4.67008,7.32649-.81123,1.49961-2.53468,2.22693-2.96416,3.94736-2.245,1.69537-3.61008,4.13187-5.2994,6.295q-.20126.20054-.40264.40186a.89978.89978,0,0,0-.49361.86887A1.50159,1.50159,0,0,0,86.87967,58.02572Z" fill="#dabe51"/><path d="M209.00127,54.22715a.14823.14823,0,0,1,.15123.20163c.4558,1.24732-.677,2.06534-.84929,3.143q-.23153.23205-.4626.464a2.61159,2.61159,0,0,0-2.17494,2.17472c-.344.37247-.70321.73212-1.02975,1.11933-5.00485,5.9349-5.00387,5.93579-12.44718,4.12476-.07059-.01719-.142-.08143-.205-.07172-.71893.11083-2.71272-1.46787-1.54063,1.19161.242.54907-.337.69812-.82674.50019a.97733.97733,0,0,0-1.34685.30959c-1.2942.18588-2.28521-.72614-3.46437-.95687.00066-2.84058.262-3.12877,3.02465-2.423a6.05567,6.05567,0,0,0,7.05828-2.69027c1.34668-1.91148,2.75592-3.77946,4.15993-5.64983,1.39548-1.859,4.87793-2.86111,6.82165-1.74187A3.80285,3.80285,0,0,0,209.00127,54.22715Z" fill="#59595b"/><path d="M70.87362,91.14572c-.21417-3.51087.159-7.0167-.32278-10.558-.27021-1.986.93008-3.75346,2.562-5.54935A88.07757,88.07757,0,0,0,79.72474,66.618a19.62251,19.62251,0,0,1,4.01018-4.635c1.54706.89242,1.64451,1.85238-.01075,2.65563-1.13122.54895-1.6605,1.80324-2.93394,2.05838.45266,1.21854,1.43243-.18314,1.98007.7808-1.99293,1.77608-2.5443,4.14349-2.701,6.80795-.09484,1.61328-1.78707,2.83609-1.8892,4.61118-.0376.65368-.35339,1.41882-.11471,1.93558.57492,1.24467.87978,1.89582-.98536,2.22825-1.00439.179-1.0758,1.63479-.685,2.68326.19755.53.76424.91864.604,1.5902-.91832-.578-1.85235.2183-2.77482-.031l-.6542.4915-.33217.40966c-1.64491.27584-.80027,1.48307-.87733,2.34547A1.85965,1.85965,0,0,1,70.87362,91.14572Z" fill="#d78a1a"/><path d="M206.51479,81.5042c1.01562.11326,1.661.89932,2.478,1.37173,2.14153,1.23834,3.98325.86431,5.582-1.0669,1.90284-2.2986,3.64683-4.75351,6.13051-6.50708.9963.35473,1.4503,1.70179,2.74924,1.50312-.05056.61626-.11831,1.21791-.97594,1.14787-.25679-.39422-.584-.66139-1.06324-.4018a1.01161,1.01161,0,0,0-.442,1.30373c.22909.74977.5176,1.48137.78048,2.22065q-.31053.00732-.62046.01475c-1.278-.80215-1.30868.29857-1.28013.97908a2.735,2.735,0,0,0,.85738,2.09452c-.08393,1.15729.71717,2.05256.92461,3.12359l-.59925.0524c-.62757-1.23955-1.221-2.49821-1.899-3.70955-.28412-.50764-.31483-1.5492-1.22929-1.21055-.88164.32651-.69079,1.16436-.38414,1.89518.11394.27151.19793.55558.29511.83383-.75906-.20737-1.068.46342-1.55117.7941-1.14184-.004-1.33911.96708-1.76114,1.70616-2.37125.24-1.75169,1.74505-1.33767,3.16315a5.561,5.561,0,0,0-1.65465-.22437c-.427.06882-1.15383.053-1.23251.64413-.10295.77334.57873.84974,1.15905.92275-.35232,1.3428.49569,2.53475.48188,3.835l-.21532.86913c-1.09277-.8907-1.09208-2.88036-2.98318-2.96874q-.44251-1.74969-.885-3.49961a4.648,4.648,0,0,0-.58883-2.27338c-1.38721-2.90693-3.86394-5.19167-4.732-8.37958,1.11985-.43271,2.09111-.42361,2.65646.86447A1.3852,1.3852,0,0,0,206.51479,81.5042Zm12.65677-3.22754a2.35564,2.35564,0,0,0-.3903.46458c-.167.36093-.39631.91638.34312.67894C219.4938,79.30157,219.44505,78.71862,219.17156,78.27666Z" fill="#474955"/><path d="M92.57941,65.53091c.13841.96223.59608.66581.93863.1802.83927-1.18982,1.61158-2.42668,2.42058-3.63811.76545-1.14624,1.50069-2.20693,2.626-.24672a7.83324,7.83324,0,0,0,1.55325,1.51181C97.4,67.646,94.70114,71.966,91.95238,76.254A16.76367,16.76367,0,0,1,89.55862,79.89a6.52756,6.52756,0,0,0-.12105-1.75238,3.30147,3.30147,0,0,0-1.88789-2.26015c-.98382-.28877-1.20687.9099-1.62613,1.52316a31.59823,31.59823,0,0,0-2.08573,3.59071c-1.18436,2.34432-1.15548,2.3515,1.54722,2.28941.95554-.022,1.91215.00259,2.86777.0059a1.62792,1.62792,0,0,1-.6726,1.64565c-5.13411.42617-5.13411.42617-5.18807,4.21471a1.40725,1.40725,0,0,1-1.30986-.04954c-.33913-6.23749,3.09933-10.986,6.2839-15.81893.41369-.6278.90207-1.1514.81041-1.95728,1.25329-1.0542,1.78524-2.59272,2.61624-3.92812A5.66719,5.66719,0,0,1,92.57941,65.53091Z" fill="#d78a1a"/><path d="M209.00127,54.22715a3.80285,3.80285,0,0,1-3.13161-.30476c-1.94372-1.11924-5.42617-.11714-6.82165,1.74187-1.404,1.87037-2.81325,3.73835-4.15993,5.64983a6.05567,6.05567,0,0,1-7.05828,2.69027c-2.76263-.70573-3.024-.41754-3.02476,2.42314-.49842.04721-1.04655-.04923-1.378.47849a20.46255,20.46255,0,0,0-11.006.4211,2.103,2.103,0,0,1,.669-1.35244c2.39059-.41365-.09577-1.94641.62768-2.74277a18.19307,18.19307,0,0,1,2.94964,1.6c.56823.49867,2.34252,1.14594,2.33815-1.00611a1.68814,1.68814,0,0,0,1.83549-.7095,9.87244,9.87244,0,0,1,2.56974-2.91352c1.45536,3.39454,1.90014,3.50417,4.97088,1.01823a7.1797,7.1797,0,0,0,1.74034-1.96964,8.037,8.037,0,0,1,4.73236-3.59064c1.21534-.43609,3.27491-.77617,3.38837-2.00906.18227-1.98041,1.22915-1.93079,2.43943-1.755.9529.13839.99349-.244.94924-.92174q.42128.1422.84258.28374c.75908,1.25677.93461,1.33044,1.37408.576Q206.42464,53.03089,209.00127,54.22715Z" fill="#7d7c80"/><path d="M201.63132,50.97488c.04425.67777.00366,1.06014-.94924.92175-1.21028-.17576-2.25716-.22538-2.43943,1.755-.11346,1.23289-2.173,1.573-3.38837,2.00906a8.037,8.037,0,0,0-4.73236,3.59064,7.1797,7.1797,0,0,1-1.74034,1.96964c-3.07074,2.48594-3.51552,2.37631-4.97074-1.01814q.26164-.59154.523-1.18321.59679-.93946,1.19356-1.87895a.63585.63585,0,0,0,.13973-.37608l.44265-.478.48156-.91145.465-.38418c1.064-.59481,2.28145-1.06965,2.07654-2.65651,2.6128.01632,4.58648-2.05533,7.24223-2.11205C197.93758,50.18049,199.82565,50.09585,201.63132,50.97488Z" fill="#959498"/><path d="M207.83894,90.39069q.44247,1.74969.885,3.49939c-.93417,1.03963-1.78653.23718-2.65877-.11814-1.93391-1.79569-2.40351-4.49165-3.99452-6.49815-.25888-.41238-.29811-1.14005-.90927-1.09053-.59309.04806-.34195.69-.40368,1.09173q1.45567,3.75823,2.91137,7.51645c-.76678.04664-1.32887-.47111-1.98806-.72112.24639-1.62831-.977-2.68367-1.57836-3.97778a.839.839,0,0,0-.69147-.38085c-.50512.08229-.41713.53708-.2978.86855.36551,1.01538.77432,2.01517,1.16629,3.021l-1.29415-.17307c-.04561-.52884-.17559-1.15381-.6641-1.27934-.29362-.07546-.18741.57263-.23658.90193-1.28106.13878-1.319-.99093-1.63041-1.71579-.86166-2.00572-1.96006-3.72693-4.21566-4.36028.56157-1.14521.56033-3.091,2.74384-1.92922a15.83013,15.83013,0,0,1,2.32779.48178c1.43416.51975,1.8445-.03509,1.65856-1.382,1.65108.31544,3.12382,1.31567,4.86951,1.26883C205.7719,86.59106,205.83236,89.27327,207.83894,90.39069Z" fill="#3b3b46"/><path d="M172.382,63.74882c-1.48651-.47283-2.27184-1.8693-3.51233-2.66616-.38634-2.36539-1.33877-4.56306-1.736-6.98108-.52449-3.19289,1.1667-4.89993,2.63415-6.97875.60719-.86012,2.025-.42209,2.5371-1.49337,1.00955,3.07152,3.99194,4.26015,6.065,6.31354.50451.49972,1.188.81882,1.49658,1.51672q.13206.49928.26329.99892c-.99662,1.00822-1.48279,2.46823-2.81725,3.1758a3.6821,3.6821,0,0,1,.08709-1.08072c.99879-2.49632.516-3.31144-2.34717-3.87427-.44373-2.02133-2.29115-1.54058-3.59993-2.02.3-.76357,1.13571-1.78626.01172-2.2262-.982-.38438-1.313.9312-1.75819,1.62918-.67265,1.05448.03767,1.24951.909,1.26792a6.56743,6.56743,0,0,0,2.37373,7.5258,1.74648,1.74648,0,0,1,.71425,1.51392c-.41666.32606-1.27482.23735-1.0785,1.14283Z" fill="#d17b1f"/><path d="M172.305,45.62946c-.51209,1.07128-1.92991.63325-2.5371,1.49337-1.46745,2.07882-3.15864,3.78586-2.63415,6.97875.39719,2.418,1.34962,4.61569,1.736,6.98108-1.0941,1.25566-.20836,2.34424.35138,3.405.56184,1.06466.66852,2.01261-.52162,2.60072-.761.376-1.49842.51926-1.51814-.89551-.05586-4.007-1.12109-7.89649-1.5864-11.86037-.052-.44262-.27714-1.14178-.95494-.9542-.688.1904-.68177.85095-.62257,1.46974.05514.57641.85782,1.39733-.13012,1.6691-.97013.26686-1.07765-.79711-1.25349-1.45044-.32543-1.20913-2.0691-2.24938-.50329-3.71413q.13625.26925.2711.53822c.8199-1.16485,2.45-1.75667,2.46737-3.48912,1.93246.91891,1.79128-1.403,2.86168-1.83136.64049-.05824.70784-.63243.9692-1.04875C169.96357,43.50838,170.83192,43.53907,172.305,45.62946Z" fill="#e09e16"/><path d="M119.64414,20.32123q.23783,1.09708.4754,2.19445l-.152.136c-2.0829-1.52091-3.95111-3.49208-6.86358-3.2731a1.09918,1.09918,0,0,0-1.75043.12628l-.3709.39842.031-.00465c-.95877-.28848-1.63534.43939-2.44731.67965-1.03366-1.07159-1.04038-2.469-1.21029-3.81463.49677-.44756.17538-.69224-.22742-.91672a7.48472,7.48472,0,0,1-.72544-3.0457c1.49448-1.06711,3.01891-1.2934,4.51191-.04334a1.16837,1.16837,0,0,0,1.56407.07765,3.301,3.301,0,0,0,1.64711,2.175,7.19779,7.19779,0,0,1,2.86206,3.11021c-.48222.12365-1.15412.22478-.40416.85012.51374.42837,1.15925.68924,1.28661-.40175Z" fill="#e09e16"/><path d="M112.47921,12.83553a1.16837,1.16837,0,0,1-1.56407-.07765c-1.493-1.25006-3.01743-1.02377-4.51191.04334-.70075-1.66259.74245-2.26883,1.56684-3.18a15.36169,15.36169,0,0,1,3.5057-.869c.70561-.00093,1.64136.37964,2.00092-.70591a2.22649,2.22649,0,0,1,2.03535.64251c-.29217,1.62171,1.22068,1.93443,2.0711,2.45173,2.54365,1.54728,4.33847,4.50078,7.82463,4.33465-.275.97482-1.24995,1.59616-1.34445,2.662-1.01735.01129-1.394-1.03068-2.2124-1.34645-2.44784-2.59154-6.02077-3.2853-8.859-5.22528-.28667-.19594-.99891-.26346-1.06546.31813-.07306.63855.86408.38122,1.079.87287Z" fill="#d78a1a"/><path d="M214.04374,61.54978c-.07267.64653-.34263,1.03178-.984.54232-1.39145-1.062-1.61943-.02277-2.11315.98842-1.138,2.33063-2.23088,4.76667-4.77528,5.962-1.86005.87382-1.99013,3.44676-4.09081,4.04309-.95374-1.309-.35232-2.50779.29679-3.67419,1.69228-3.04083,4.12975-5.50527,6.41084-8.0769A4.23669,4.23669,0,0,1,212.72,59.77834l.21678-.00112.21679.00154.72644-.04111c-.00312-.281.1316-.38722.39928-.31665A4.612,4.612,0,0,0,214.04374,61.54978Z" fill="#454754"/><path d="M164.86894,48.40164c-.01739,1.73245-1.64747,2.32427-2.46737,3.48912q-.13519-.269-.2711-.53822.01049-.4341.0228-.868c.98645-.87823.14567-1.45347-.40257-1.95611-2.25275-2.06531-4.64451-3.98823-6.794-6.15327-1.20392-1.2126-3.49765-1.55408-3.38775-3.91151l1.42515-.22814.09541-.09507c.44408,2.29083,2.21205,3.36749,3.95068,4.59937,2.10471,1.49125,2.01672,1.61545,2.55886-.684l.20653-.00258.20625.01094c.24542,1.71075,1.78978,2.15864,2.95134,2.92612.54037.35705.92374-.11375.97355-.73468l.02826-.00977.63844.10037q.07329.626.14628,1.25186C164.99028,46.5239,161.05645,47.628,164.86894,48.40164Z" fill="#d17b1f"/><path d="M88.25331,83.28668c-.95612-.00332-1.91273-.02787-2.86827-.00591-2.7027.06209-2.73158.05491-1.54722-2.28941a31.59823,31.59823,0,0,1,2.08573-3.59071c.41926-.61326.64231-1.81193,1.62613-1.52316a3.30147,3.30147,0,0,1,1.88789,2.26015A6.52756,6.52756,0,0,1,89.55862,79.89q-.10032.49769-.20157.99339Q88.80438,82.08394,88.25331,83.28668Z" fill="#e09e16"/><path d="M129.90363,18.88177c.80458,2.23242,3.043,2.85384,4.70255,4.089,3.64365,2.71175,7.39723,5.27578,11.10315,7.90044-.249.1394-.49515.27848-.7413.41889-1.30431-.32153-2.06377-1.82347-3.59313-1.65943l.00227-.0032a2.09982,2.09982,0,0,0-1.23782-1.70455c-2.51477-1.63278-4.996-3.32079-7.55848-4.875-1.1578-.70224-2.076-1.95816-3.66062-1.82253-.91818-1.01142-3.50544-1.11321-1.90551-3.497l.9688.28838C128.51211,18.55258,129.04815,19.07179,129.90363,18.88177Z" fill="#dabe51"/><path d="M211.92244,95.98969c.01381-1.30025-.8342-2.4922-.48241-3.83509a3.06619,3.06619,0,0,1,2.237-.38151c1.88816,2.46136,2.22049,5.32994,2.16431,8.29762a1.08472,1.08472,0,0,1-.66176,1.04679C213.70524,99.6548,213.776,97.21111,211.92244,95.98969Z" fill="#959498"/><path d="M125.40783,15.47527c-3.48622.16605-5.281-2.78745-7.82469-4.33473-.85042-.5173-2.36327-.83-2.0711-2.45173,4.0118,2.31715,8.33838,4.05389,12.16328,6.7017q-.28041.3955-.56076.792Q126.26153,15.83012,125.40783,15.47527Z" fill="#59595b"/><path d="M82.39214,89.147c.054-3.78854.054-3.78854,5.18625-4.21428.10109.17.204.33955.30691.50911-.6214,1.30492.56408,3.28832-.77745,3.98447-1.04149.54046-2.68837-.08414-4.06585-.19483C82.82452,89.214,82.60871,89.17571,82.39214,89.147Z" fill="#e09e16"/><path d="M216.26748,85.94287c.48314-.33068.79211-1.00147,1.55117-.7941.91385.61477.504,1.82129,1.14422,2.55806-.46636.05-.82264.21213-.91182.74609-.40018,2.39612-.62156,4.74647,1.49916,6.56492-.13064.483-.18422,1.07646-.77676,1.18419-.5434.09876-.65249-.44444-.8266-.81711-.76046-1.62772-1.5116-3.25978-2.26608-4.89031.40643-.24228.693-.62572.47338-1.05436C215.53575,88.23332,215.92021,87.09708,216.26748,85.94287Z" fill="#7d7c80"/><path d="M221.63524,87.28746c-.20744-1.071-1.00854-1.9663-.92475-3.12356,1.139-.88714-.484-2.1545.42289-3.07363q.31008-.0074.62046-.01475a14.65,14.65,0,0,1,2.40685,6.79532c.10187,1.06754-.26169,2.18735-1.07012,2.4266-1.05863.31331-1.21844-.91137-1.43509-1.738C222.138,88.12768,222.15733,87.70327,221.63524,87.28746Z" fill="#959498"/><path d="M222.47857,77.95294c.85763.07.92538-.53161.97563-1.14921l.20987.02488.2118-.00333c.78112-.36152.88154.32367,1.01025.74559.66024,2.16418,1.27992,4.34109,1.885,6.52154.18715.67442.10645,1.50382-.56776,1.696-.74643.21278-.78139-.73036-.98336-1.20434a6.23022,6.23022,0,0,1-.97153-2.63963c1.16864-1.02085.06573-1.12964-.57214-1.42515l.10113-.0845c-.00536-.70074.22522-1.534-.90146-1.60469A.858.858,0,0,1,222.47857,77.95294Z" fill="#7d7c80"/><path d="M202.07065,87.27378c1.591,2.00651,2.06061,4.70247,3.99452,6.49816-1.35174.22033-.2175,1.16167-.519,1.72954-.80733.30407-1.26725-.41481-1.87716-.7102q-1.45559-3.758-2.91141-7.51636Q201.414,87.27431,202.07065,87.27378Z" fill="#59595b"/><path d="M219.55021,95.01784c-2.12072-1.81845-1.89934-4.1688-1.49916-6.56492.08918-.534.44546-.69613.91182-.74609A7.33452,7.33452,0,0,1,219.55021,95.01784Z" fill="#959498"/><path d="M159.599,42.05579c-.54214,2.29949-.45415,2.17529-2.55886.684-1.73863-1.23188-3.5066-2.30854-3.95068-4.59937,1.81482.35862,2.9854,1.78508,4.44233,2.73074.62045.40272,1.10414.98158,1.94339.77075A2.08026,2.08026,0,0,0,159.599,42.05579Z" fill="#959498"/><path d="M144.968,31.28875c.24619-.13908.49237-.27816.74134-.41756.29935.0006.74808.1835.57158.39612-1.47785,1.78042.26167,2.25751,1.18191,3.07012a.80313.80313,0,0,0,.97649.63441.76849.76849,0,0,1,.35438.23859.84944.84944,0,0,0,.90086.69056q.68247.50218,1.365,1.00386a1.13767,1.13767,0,0,0,1.33118.755q.30072.28724.60238.57507-.7111.11494-1.42425.2291c-2.21309-1.82381-5.03346-2.76722-7.05683-4.86645l.1329-1.60509A.62425.62425,0,0,0,144.968,31.28875Z" fill="#59595b"/><path d="M180.13066,54.45842l-.26415-.9987c2.31849.08343,4.291-1.80137,6.7043-1.1784-.16573.41527.53975.90354-.17671,1.30288-1.19541.66632-.298,1.02291.26218,1.40675q-.23248.19209-.46542.38405c-1.445.11331-2.50426-1.5681-4.07321-.875q-.2295.0117-.45931.024Z" fill="#59595b"/><path d="M213.15358,59.77876l-.21679-.00154-.21683.00124c-1.38241-3.1783-1.73015-3.35206-4.41652-2.20673.17207-1.07761,1.30486-1.89563.84906-3.14295,2.57251.79416,4.66549,3.09663,4.755,5.23218A.51093.51093,0,0,0,213.15358,59.77876Z" fill="#2e2e36"/><path d="M73.23787,88.20437q.16608-.20482.33211-.41.32709-.24592.65426-.49111c.92247.24931,1.8565-.547,2.77482.031l.03713-.026a1.16639,1.16639,0,0,0,.42425,1.0003q-.08884.51782-.17913,1.0367c-1.32772.908-2.88209.82133-4.37451,1.0049Q73.07227,89.27728,73.23787,88.20437Z" fill="#e09e16"/><path d="M159.599,42.05579a2.08026,2.08026,0,0,1-.12382-.41384c.66332-1.443,1.569-1.69079,2.91218-.75013a9.2577,9.2577,0,0,1,2.46151,2.04768l-.88394,1.30632-.028.01a4.84606,4.84606,0,0,0-3.92512-2.19171l-.20625-.01094Z" fill="#dabe51"/><path d="M164.86894,48.40164c-3.81249-.77367.12134-1.87774-.11928-2.80359a7.79645,7.79645,0,0,0,2.98017.97211C166.66022,46.99865,166.8014,49.32055,164.86894,48.40164Z" fill="#e09e16"/><path d="M211.92244,95.98969c1.85358,1.22142,1.7828,3.66511,3.25711,5.12781-.5606.64929-1.086,1.01224-1.57011-.08842-.61516-1.39855-1.26644-2.78122-1.90224-4.17049Z" fill="#59595b"/><path d="M127.11425,16.18135q.28059-.39538.56107-.79084a2.70533,2.70533,0,0,1,2.22777,3.49271c-.85494.18857-1.391-.33064-1.91828-.86584.06376-.50651.17976-1.03827-.544-1.18321Z" fill="#3b3b46"/><path d="M200.27967,93.60127c-.392-1.00586-.80078-2.00565-1.16629-3.021-.11933-.33147-.20732-.78626.2978-.86855a.839.839,0,0,1,.69147.38085c.60133,1.29411,1.82475,2.34947,1.57836,3.97778A1.22863,1.22863,0,0,1,200.27967,93.60127Z" fill="#59595b"/><path d="M113.47669,8.0463c-.35956,1.08555-1.29531.705-2.00092.70591a15.36169,15.36169,0,0,0-3.5057.869c.2964-1.48656,1.33255-1.78385,2.65139-1.68711C111.57083,8.00372,112.52478,8.01113,113.47669,8.0463Z" fill="#dabe51"/><path d="M186.65628,54.991c-.56016-.38384-1.45759-.74043-.26218-1.40675.71646-.39934.011-.88761.17671-1.30288l2.162.05312C188.93773,53.9213,187.72028,54.39614,186.65628,54.991Z" fill="#454754"/><path d="M108.56638,20.57827c.812-.24026,1.48854-.96813,2.44731-.67965.2121,1.63233-1.80611,1.46773-2.14284,2.65947-.17952-.0111-.35787-.02291-.53591-.03424A1.90925,1.90925,0,0,1,108.56638,20.57827Z" fill="#59595b"/><path d="M216.26748,85.94287c-.34727,1.15421-.73173,2.29045-.11333,3.49738.2196.42864-.06695.81208-.47339,1.05436q-.58723-1.42271-1.17441-2.84556C214.92837,86.91,215.12564,85.93882,216.26748,85.94287Z" fill="#59595b"/><path d="M222.0851,74.6552c-.08341-1.013-.7846-1.93809-.42894-3.0139,1.38092,1.02,1.59226,2.64231,2.11367,4.105Q222.92746,75.20079,222.0851,74.6552Z" fill="#3b3b46"/><path d="M222.0851,74.6552q.84237.54558,1.68473,1.09112c.02915.36043.682.65975.10592,1.07925l-.21168.003-.20987-.02488c-1.29863.2-1.75263-1.14705-2.74893-1.50178C220.8048,74.3172,221.40108,74.3926,222.0851,74.6552Z" fill="#2e2e36"/><path d="M213.677,91.77309a3.06619,3.06619,0,0,0-2.237.38151c-.57979-.07292-1.26147-.14932-1.15852-.92266.07868-.59115.80555-.57531,1.23251-.64413a5.561,5.561,0,0,1,1.65465.22437Z" fill="#59595b"/><path d="M214.04374,61.54977a4.612,4.612,0,0,1,.23556-2.12877c.87872.40063,1.12308,1.24893,1.45033,2.03861Q214.88764,61.504,214.04374,61.54977Z" fill="#3b3b46"/><path d="M155.95352,60.71491a1.93992,1.93992,0,0,1,2.27016,1.64771A4.99,4.99,0,0,1,155.95352,60.71491Z" fill="#dabe51"/><path d="M154.0959,59.43392c1.01248-.1477,1.793.04111,1.85173,1.27678A3.01315,3.01315,0,0,1,154.0959,59.43392Z" fill="#dabe51"/><path d="M73.23787,88.20437q-.16557,1.07289-.33107,2.14578-.27338.09957-.54658.19943C72.4376,89.68744,71.593,88.48021,73.23787,88.20437Z" fill="#dabe51"/><path d="M203.848,51.83465c-.43947.75442-.615.68075-1.37408-.576C203.17305,50.87507,203.51132,51.35294,203.848,51.83465Z" fill="#959498"/><path d="M163.96494,44.24582l.88394-1.30632c.31214.04387.8377-.19034.65387.50065-.30671.15089-.279.42257-.24859.69521l-.65112.21089Q164.28434,44.296,163.96494,44.24582Z" fill="#e09e16"/><path d="M148.717,55.48726c.95811-.18607,1.38254.30909,1.51005,1.18318A2.14434,2.14434,0,0,1,148.717,55.48726Z" fill="#dabe51"/><path d="M165.25416,44.13536c-.03042-.27264-.05812-.54432.24859-.69521.304.077.80613-.03483.704.47493C166.18038,44.04684,165.58706,44.065,165.25416,44.13536Z" fill="#dabe51"/><path d="M170.28085,69.70527q-.11685.46709-.23364.9348a2.0102,2.0102,0,0,1-1.40794-.94141Q169.45964,69.70244,170.28085,69.70527Z" fill="#dabe51"/><path d="M221.70227,71.68058c-1.08059-.05351-1.28981-.465-.52453-1.27688Z" fill="#3b3b46"/><path d="M198.08484,93.05079c.04917-.3293-.057-.97739.23658-.90193.48851.12553.61849.7505.6641,1.27934A.83653.83653,0,0,1,198.08484,93.05079Z" fill="#59595b"/><path d="M223.67633,80.51929c.63787.29551,1.74078.4043.57214,1.42515Z" fill="#474955"/><path d="M164.00989,66.42731c.61686-.00516,1.21392.02029,1.29658.83974A1.27808,1.27808,0,0,1,164.00989,66.42731Z" fill="#dabe51"/><path d="M222.876,78.8301c1.12668.07068.8961.90395.90146,1.60469C223.15146,80.0828,223.05678,79.43226,222.876,78.8301Z" fill="#474955"/><path d="M152.3907,37.65987a1.13767,1.13767,0,0,1-1.33118-.755C151.67994,36.845,152.30751,36.77216,152.3907,37.65987Z" fill="#959498"/><path d="M221.63524,87.28746c.52209.41581.50272.84022.02024,1.272-.306-.356-.70207-.66619-.61946-1.21959Z" fill="#7d7c80"/><path d="M166.045,67.86916a1.06033,1.06033,0,0,1,1.38892.91663A1.63956,1.63956,0,0,1,166.045,67.86916Z" fill="#dabe51"/><path d="M159.86642,63.47242a1.01926,1.01926,0,0,1,1.3749.86837A1.46992,1.46992,0,0,1,159.86642,63.47242Z" fill="#dabe51"/><path d="M162.42449,65.28867c.63706-.2002,1.01931.00194,1.09238.692A1.176,1.176,0,0,1,162.42449,65.28867Z" fill="#dabe51"/><path d="M150.47721,56.83362c.606-.16169.99786.0229,1.09814.679A1.1868,1.1868,0,0,1,150.47721,56.83362Z" fill="#dabe51"/><path d="M148.43931,34.97184a.80313.80313,0,0,1-.97649-.63441C148.03166,34.17425,148.34094,34.41061,148.43931,34.97184Z" fill="#959498"/><path d="M149.69455,35.901a.84944.84944,0,0,1-.90086-.69056C149.33513,35.126,149.72349,35.24114,149.69455,35.901Z" fill="#959498"/><path d="M107.12867,15.84692c.4028.22448.72419.46916.22742.91672A.64246.64246,0,0,1,107.12867,15.84692Z" fill="#dabe51"/><path d="M152.30039,58.11848c.57243-.11639.95279.06571,1.05551.67908A1.00873,1.00873,0,0,1,152.30039,58.11848Z" fill="#dabe51"/><path d="M213.15358,59.77876a.51093.51093,0,0,1,.754-.1178l-.02827.07657Q213.51717,59.75826,213.15358,59.77876Z" fill="#3b3b46"/><path d="M159.32784,63.04186a.431.431,0,0,1,.5319.41076Q159.59342,63.24781,159.32784,63.04186Z" fill="#dabe51"/><path d="M144.512,33.59759c2.02337,2.09923,4.84374,3.04264,7.05683,4.86645-.10982,2.35706,2.18391,2.69854,3.38783,3.91114,2.14953,2.165,4.54129,4.088,6.794,6.15327.54824.50264,1.389,1.07788.40257,1.95611a6.21883,6.21883,0,0,1-4.05176-2.222,94.74455,94.74455,0,0,0-10.03646-8.61988,34.09285,34.09285,0,0,1-8.03923-8.21015C141.74,31.70088,142.66946,33.59532,144.512,33.59759Z" fill="#e09e16"/><path d="M132.3516,29.47377c8.98794,7.14652,17.91229,14.35718,26.228,22.28033C155.75382,51.25271,133.35326,32.36072,132.3516,29.47377Z" fill="#dabe51"/><path d="M144.512,33.59759c-1.84254-.00227-2.772-1.89671-4.48618-2.165q-.23658-.22344-.47268-.44721a1.24646,1.24646,0,0,0-1.30261-.86972,48.82613,48.82613,0,0,0-7.537-5.29878.87188.87188,0,0,0-.878-.47671.93123.93123,0,0,0-.87842-.46008c-.57349-1.36395-1.80908-1.82583-3.06978-2.2535.23142-1.60205-.96366-2.45818-1.82423-3.48922.09465-1.066,1.06958-1.68733,1.3446-2.66215q.8536.35436,1.70679.70736c.10855.21641.21742.434.32359.65069-.27382.23631-.56594.46369-.42341.89517-1.59993,2.38378.98733,2.48557,1.90586,3.497,3.52488,3.36835,7.8736,5.57822,11.80232,8.37839.14835.10574.43307.02008.65425.02362l-.00232.00329a5.74462,5.74462,0,0,0,3.27,2.36176Z" fill="#d17b1f"/><path d="M154.56989,54.73683a.13327.13327,0,0,0,.12005.1803q-.12873.58932-.25686,1.1788c-1.93416.18165-2.90254-1.48983-4.31364-2.2961a36.12659,36.12659,0,0,1-3.36113-2.43578.79528.79528,0,0,0-.80579-.63251l-.01061.05q-.26176-.273-.52109-.54729-.17163-.13046-.34376-.26088a9.554,9.554,0,0,0-3.207-2.3475q-.2103-.14436-.42075-.28865a3.14273,3.14273,0,0,0-1.83232-1.36339q-.19243-.2065-.385-.41294.18888-.59313.378-1.18639l.988.3312a53.26826,53.26826,0,0,0,8.29886,6.23515l-.02111-.01795A17.81665,17.81665,0,0,0,154.56989,54.73683Z" fill="#2e2e36"/><path d="M112.47921,12.83553q.26315-.03954.52632-.07865a12.512,12.512,0,0,1,4.42189,3.15245c1.581,2.29211,4.04726,3.59349,6.03863,5.42434a3.09172,3.09172,0,0,0,2.36639.82982l.03374,1.28237-.02158.01553q-.211.21036-.42217.4211c-1.666.09787-2.506-1.28921-3.6369-2.10378a15.17178,15.17178,0,0,0-2.14138-1.45727q-.88666-.87639-1.77332-1.75237a.92228.92228,0,0,0-.88245-.44835,7.19779,7.19779,0,0,0-2.86206-3.11021A3.301,3.301,0,0,1,112.47921,12.83553Z" fill="#d17b1f"/><path d="M127.24188,36.55828q-.618-.60417-1.23646-1.2083c-.21742-.99146-2.60762-1.54246-.60517-2.98379q.58152.69333,1.16351,1.38628c2.306,2.99841,5.39919,5.0371,8.54567,7.01078l.0216.01164a2.56762,2.56762,0,0,0,1.77,1.28672l.03.02206a.72271.72271,0,0,0,.74754.48118c.36132.79752.1229,1.24943-.76471,1.32725a2.87415,2.87415,0,0,0-1.641-1.07935l-.0151.01735a2.53063,2.53063,0,0,0-1.76959-1.33536l-.0136.01768a13.99554,13.99554,0,0,0-4.00672-3.09516l.00688.02167a1.58092,1.58092,0,0,0-1.2366-.97987l-.06791.14841.05046-.15363C128.12313,36.906,127.71005,36.70211,127.24188,36.55828Z" fill="#2e2e36"/><path d="M125.40025,32.36619c-2.00245,1.44133.38775,1.99233.60517,2.98379-2.01215-.246-3.05712-1.62168-3.14927-4.14546.77429.03675,1.81669.06451,1.07056-1.08186-1.1248-1.72818-1.54391-3.82809-2.96022-5.37931l-.99894-2.09167.152-.136a2.39576,2.39576,0,0,1,1.88025,1.39342C123.30311,26.6554,125.23312,29.16208,125.40025,32.36619Z" fill="#e09e16"/><path d="M119.96755,22.65168q.49947,1.04583.99908,2.09189c-.47219.26268-.42842.71729-.42975,1.1551l-.85053-.78509c-1.38733-2.86209-3.99222-4.01824-6.81558-4.86615l-.10825-.14874-.08991.16779c-.61707.12895-1.29217.52792-1.69-.36322q.18551-.1992.37007-.39877.87477-.06331,1.75129-.12592C116.01644,19.15959,117.88465,21.13076,119.96755,22.65168Z" fill="#3b3b46"/><path d="M113.93,34.54906q-.26274-.25647-.52576-.51338c1.98429-3.238,1.54625-6.75414,1.19685-10.35564a1.02852,1.02852,0,0,1,.96205,1.16079c-.18368,2.03494,1.06864,4.003.20974,6.06478-.41735,1.00184.42536,1.43155,1.06715,1.90433.83867.61781,1.90431,1.01444,2.25636,2.32142C117.26764,35.07508,115.90126,31.65521,113.93,34.54906Z" fill="#d78a1a"/><path d="M120.53688,25.89867c.00133-.43781-.04244-.89242.42976-1.1551,1.41616,1.551,1.83527,3.65091,2.96007,5.37909.74613,1.14637-.29627,1.11861-1.07056,1.08186q-.207-.35677-.41486-.71212a1.201,1.201,0,0,0-.52417-.97886.28512.28512,0,0,0-.12083-.31743.68659.68659,0,0,0-.39083-.80367l-.03952-.11736-.12225-.02383c-.07753-.50285-.09389-1.03452-.63016-1.31779l.01941-.013Q120.58424,26.41,120.53688,25.89867Z" fill="#2e2e36"/><path d="M135.10943,40.76325c-3.14648-1.97368-6.23964-4.01237-8.54567-7.01078,1.36874-.46058,1.64657.90857,2.40539,1.4554,1.64287,1.18389,3.2708,2.39106,4.86077,3.64462C134.438,39.33191,135.15082,39.81559,135.10943,40.76325Z" fill="#d17b1f"/><path d="M148.89681,50.9409a53.26826,53.26826,0,0,1-8.29886-6.23515c2.63094.27769,4.04746,2.51372,6.04262,3.80865C147.5412,49.09893,148.85733,49.48183,148.89681,50.9409Z" fill="#dabe51"/><path d="M172.382,63.74882q.12131-1.11794.24029-2.23516c.37046.0289.7432.0571,1.11593.0853l-.02053,1.63292c-.72345.79636,1.76291,2.32912-.62768,2.74277q-.04817-.47715-.09957-.9538c.38158-.44383.0646-.64915-.28875-.842Z" fill="#59595b"/><path d="M136.91391,43.8921c.88761-.07782,1.126-.52973.76516-1.32746q.27363-.03127.54637-.0621c.50159.59543,1.5007.8234,1.38458,1.87351q-.18916.591-.37808,1.18489a2.15371,2.15371,0,0,1-2.33127-1.275Q136.91144,44.089,136.91391,43.8921Z" fill="#d78a1a"/><path d="M154.56989,54.73683A17.81665,17.81665,0,0,1,148.8757,50.923,9.5347,9.5347,0,0,1,154.56989,54.73683Z" fill="#dabe51"/><path d="M154.43308,56.09593q.12828-.58944.25686-1.1788a1.20227,1.20227,0,0,1,.433.0082c1.097.46695,2.87831,1.17591,2.33816,2.20316-.6652,1.26511-1.45778-.78109-2.39459-.87167A4.14889,4.14889,0,0,1,154.43308,56.09593Z" fill="#d78a1a"/><path d="M129.46791,38.41726a13.99554,13.99554,0,0,1,4.00672,3.09516C131.45948,41.361,129.99463,40.49665,129.46791,38.41726Z" fill="#e09e16"/><path d="M125.86618,23.44586q-.01686-.64119-.03356-1.283.02755-.26877.05478-.53634c1.2607.42767,2.49629.88955,3.06978,2.2535A8.5517,8.5517,0,0,0,125.86618,23.44586Z" fill="#e09e16"/><path d="M141.87,47.62592a9.554,9.554,0,0,1,3.207,2.3475C143.45549,49.94649,142.15467,49.48055,141.87,47.62592Z" fill="#e09e16"/><path d="M133.48823,41.49474a2.53063,2.53063,0,0,1,1.76959,1.33536C134.19115,43.01765,133.3913,42.85109,133.48823,41.49474Z" fill="#e09e16"/><path d="M136.90105,42.06161a2.56762,2.56762,0,0,1-1.77-1.28672C136.09687,40.68676,136.82982,40.91888,136.90105,42.06161Z" fill="#d17b1f"/><path d="M136.91391,43.8921q-.00259.197-.01324.39383c-.96374-.02493-1.80694-.18308-1.62846-1.47234A2.86815,2.86815,0,0,1,136.91391,43.8921Z" fill="#e09e16"/><path d="M139.61694,45.97388a3.14273,3.14273,0,0,1,1.83232,1.36339C140.43145,47.43005,139.63112,47.23039,139.61694,45.97388Z" fill="#e09e16"/><path d="M138.25053,30.11563a1.24646,1.24646,0,0,1,1.30261.86972C138.92237,30.98945,138.304,30.97543,138.25053,30.11563Z" fill="#e09e16"/><path d="M120.53688,25.89867q.04769.5111.09606,1.02182c-1.01645-.23423-1.01659-1.00184-.94672-1.80652Q120.11168,25.50592,120.53688,25.89867Z" fill="#e09e16"/><path d="M128.23819,37.45906a1.58092,1.58092,0,0,1,1.2366.97987C128.76405,38.4896,127.99391,38.61508,128.23819,37.45906Z" fill="#e09e16"/><path d="M172.70168,64.17882c.35335.19288.67033.3982.28875.842A.52753.52753,0,0,1,172.70168,64.17882Z" fill="#7d7c80"/><path d="M129.8356,24.34014a.87188.87188,0,0,1,.878.47671C129.99921,25.43389,129.92278,24.87714,129.8356,24.34014Z" fill="#e09e16"/><path d="M127.24188,36.55828c.46817.14383.88125.34776.97886.89556C127.428,37.66643,127.20358,37.25629,127.24188,36.55828Z" fill="#e09e16"/><path d="M113.89485,36.6892a1.01561,1.01561,0,0,1-.00861-1.7113Q113.89059,35.83365,113.89485,36.6892Z" fill="#e09e16"/><path d="M170.96487,68.67545a1.27742,1.27742,0,0,1-.655.93395Q170.06467,68.74107,170.96487,68.67545Z" fill="#dabe51"/><path d="M138.22544,42.50254q-.273.03094-.54637.0621a.72251.72251,0,0,1-.748-.481C137.4165,42.05688,137.90883,42.00809,138.22544,42.50254Z" fill="#d17b1f"/><path d="M120.61353,26.93346c.53627.28327.55263.81494.63016,1.31779C120.435,28.09887,120.53623,27.51044,120.61353,26.93346Z" fill="#e09e16"/><path d="M145.95252,50.73154a.79528.79528,0,0,1,.80579.63251C146.348,51.33425,145.93383,51.30875,145.95252,50.73154Z" fill="#e09e16"/><path d="M121.91712,29.51354a1.201,1.201,0,0,1,.52417.97886C121.92314,30.35021,121.87171,29.95783,121.91712,29.51354Z" fill="#e09e16"/><path d="M121.40546,28.39244a.68659.68659,0,0,1,.39083.80367Q121.60071,28.79419,121.40546,28.39244Z" fill="#e09e16"/><polygon points="112.673 20.266 112.763 20.099 112.871 20.247 112.777 20.314 112.673 20.266" fill="#59595b"/><path d="M145.42082,50.2343q.25994.274.52109.54729C145.59512,50.76491,145.45132,50.55374,145.42082,50.2343Z" fill="#e09e16"/><path d="M125.42245,23.88249q.21111-.21065.42215-.4211Q125.63345,23.67214,125.42245,23.88249Z" fill="#e09e16"/><path d="M189.62406,79.80231a2.29836,2.29836,0,0,1,3.90335-1.27866c3.137,2.7827,3.137,2.7827,7.239,3.15079-1.94065-2.51088-3.05666-5.45076-5.69544-7.18976a1.83441,1.83441,0,0,1-.90982-2.02959c1.41164.44116,2.30665,1.59717,3.41105,2.46324a12.47962,12.47962,0,0,0,3.17947,4.01042c-.19973,1.005.50678,1.68317,1.02527,2.314a1.31814,1.31814,0,0,1-.17716,2.16671C197.59484,82.25038,193.50173,81.384,189.62406,79.80231Z" fill="#474955"/><path d="M189.62406,79.80231c3.87767,1.58172,7.97078,2.44807,11.976,3.60609.2616,1.20848,2.33866.39193,2.23834,2.005-1.74557.04748-3.21831-.95275-4.86932-1.268a7.856,7.856,0,0,0-3.97331-.88527l.0081.01243q-.44673-.26634-.89317-.53275c-3.267-1.66-7.04642-1.76382-10.3226-3.39946-.62164-.31035-1.42054-.2713-2.17606-1.28652C184.62356,78.16673,187.034,79.47485,189.62406,79.80231Z" fill="#7d7c80"/><path d="M197.57175,74.91871c-1.10394-.86645-1.999-2.02246-3.41059-2.46362-1.67188-2.104-4.25431-2.70511-6.48283-3.87046a40.8797,40.8797,0,0,0-4.25085-1.67885c.331-.52751.87914-.43107,1.37756-.47828,1.17927.23063,2.17028,1.14265,3.46516.95641.90123.4833,1.7991.97208,2.70287,1.44967a21.7066,21.7066,0,0,1,7.65964,6.01813Q198.10162,74.88519,197.57175,74.91871Z" fill="#959498"/><path d="M185.14848,68.73253c1.29439-.0437,4.05542,1.68773,4.017,2.60073-.02919.69379-.0768,1.53589-1.12908,1.55059a4.17016,4.17016,0,0,1-3.60769-3.32218C184.40571,69.015,184.5695,68.71439,185.14848,68.73253Z" fill="#7d7c80"/><path d="M194.99572,83.26021a7.856,7.856,0,0,1,3.97331.88527c.18587,1.34671-.22447,1.90155-1.65863,1.3818a15.83013,15.83013,0,0,0-2.32779-.48178Q194.98912,84.15276,194.99572,83.26021Z" fill="#454754"/><path d="M194.11065,82.73989q.44652.26638.89317.53275C194.60195,83.26983,194.245,83.19163,194.11065,82.73989Z" fill="#454754"/><path d="M190.77277,86.0713l.25657-.30009c.307.27307-.08732.27017-.15884.39511Z" fill="#3b3b46"/><path d="M198.63329,74.85172a21.71366,21.71366,0,0,0-7.66022-6.01814c-.90377-.47759-1.80164-.96637-2.70287-1.44967a.97661.97661,0,0,1,1.34617-.30923c.48974.19793,1.06873.04888.82674-.50019-1.17209-2.65948.8217-1.08078,1.54063-1.19161.063-.00971.13441.05453.205.07172,7.44331,1.811,7.44233,1.81014,12.44718-4.12476.32654-.38721.68574-.74686,1.02921-1.119a2.61206,2.61206,0,0,0,2.17548-2.175q.23118-.232.4626-.464c2.6866-1.14537,3.03434-.97161,4.41675,2.20669a4.2363,4.2363,0,0,0-3.93178,1.556c-2.28109,2.57163-4.71856,5.03607-6.41084,8.0769-.64911,1.1664-1.25053,2.36515-.29679,3.67419q.4499,1.33136.89955,2.66267c-.77986.21961-1.23789-.51065-1.89039-.68742-.46548.49706.42661,1.34936-.487,1.66553Q199.61934,75.78815,198.63329,74.85172Z" fill="#3b3b46"/><path d="M200.60139,76.72729c.91493-.31708.02284-1.16938.48832-1.66644.6525.17677,1.11053.907,1.89039.68742,1.32056,1.83134,2.8656,3.52466,3.53462,5.756a1.38527,1.38527,0,0,1-1.34015-.90226c-.56535-1.28808-1.53661-1.29718-2.65642-.8645-.77472-.19419-.80154-1.334-1.71306-1.35521Z" fill="#454754"/><path d="M85.08092,60.2359a2.089,2.089,0,0,1,1.33365-1.73325C86.4373,59.44035,86.1907,60.17037,85.08092,60.2359Z" fill="#d78a1a"/><path d="M86.87967,58.02572a1.50159,1.50159,0,0,1,.84372-.9139C88.37648,58.27878,87.34326,57.88935,86.87967,58.02572Z" fill="#d78a1a"/><path d="M77.46044,88.30855a1.16639,1.16639,0,0,1-.42425-1.0003C77.51609,87.498,77.52784,87.88645,77.46044,88.30855Z" fill="#d78a1a"/><path d="M88.217,56.243q.20135-.20114.40264-.40186Q88.41825,56.04242,88.217,56.243Z" fill="#d78a1a"/><path d="M84.69036,60.665l.38442-.42574Z" fill="#d78a1a"/><path d="M84.22859,61.11924q.19563-.19128.391-.38194Q84.42384,60.92888,84.22859,61.11924Z" fill="#d78a1a"/><path d="M207.84061,58.03579a2.61208,2.61208,0,0,1-2.17546,2.175A2.61273,2.61273,0,0,1,207.84061,58.03579Z" fill="#2e2e36"/><path d="M74.22424,87.30321q-.32715.24537-.65425.49112Q73.89717,87.54914,74.22424,87.30321Z" fill="#dabe51"/><path d="M200.80509,78.38227c.91152.02124.93834,1.161,1.71306,1.35521.868,3.18794,3.34475,5.47268,4.732,8.37961a4.648,4.648,0,0,1,.58883,2.27338c-2.00658-1.1172-2.067-3.79941-4.00047-4.97639.1002-1.61375-1.97686-.7972-2.23846-2.00568a1.31721,1.31721,0,0,0,.17694-2.16568c-.51849-.6308-1.225-1.30893-1.0253-2.31492Q200.77835,78.65408,200.80509,78.38227Z" fill="#59595b"/><path d="M221.13338,81.09027c-.90691.91913.7161,2.18649-.42289,3.07363a2.7355,2.7355,0,0,1-.85724-2.09455C219.8247,81.38884,219.85536,80.28812,221.13338,81.09027Z" fill="#7d7c80"/><path d="M219.17156,78.27666c.27349.442.32224,1.02491-.04718,1.14352-.73943.23744-.51011-.318-.34312-.67894A2.35564,2.35564,0,0,1,219.17156,78.27666Z" fill="#59595b"/><path d="M173.71768,63.23188q.01026-.81645.02029-1.63332c1.26705.20575,2.23373,1.3876,3.86608,1.14484-.80588-.93264-1.04131-1.68917.50324-1.6603a4.33389,4.33389,0,0,0,3.11494-3.09673,1.40017,1.40017,0,0,0,1.2447-.77038l.149-.51a5.58592,5.58592,0,0,1,2.51149.43475q-.59677.93948-1.19326,1.87863c-.62092-.55674-1.11812-1.09741-1.89819-.02715a17.39206,17.39206,0,0,1-3.34606,3.69842c-.72385.55553.02473.80556.3156,1.13519.00437,2.15205-1.76992,1.50478-2.33815,1.00611A18.19307,18.19307,0,0,0,173.71768,63.23188Z" fill="#3b3b46"/><path d="M179.00547,63.82579c-.29087-.32963-1.03945-.57966-.3156-1.13519a17.39206,17.39206,0,0,0,3.34606-3.69842c.78007-1.07026,1.27727-.52959,1.89819.02715q-.26187.59213-.52328,1.18353a9.86948,9.86948,0,0,0-2.56988,2.91343A1.68814,1.68814,0,0,1,179.00547,63.82579Z" fill="#7d7c80"/><path d="M185.12738,57.1407a5.58961,5.58961,0,0,0-2.51192-.435q-.01965-.4539-.0384-.90739l-.45954-1.29808c1.56908-.69338,2.62831.988,4.07334.87472q-.24009.45593-.48121.91147c-.1433-.22438-.31516-.5363-.58445-.25272-.09921.10448.08628.47933.14191.73087A.63585.63585,0,0,1,185.12738,57.1407Z" fill="#454754"/><path d="M185.26711,56.76462c-.05563-.25154-.24112-.62639-.14191-.73087.26929-.28358.44115.02834.58444.25272Q185.48846,56.52565,185.26711,56.76462Z" fill="#3b3b46"/><path d="M202.07065,87.27378q-.65658.00056-1.31306.00114c.06184-.40162-.1893-1.0436.40379-1.09166C201.77254,86.13374,201.81177,86.86141,202.07065,87.27378Z" fill="#454754"/><path d="M173.703,60.37151a1.747,1.747,0,0,0-.71415-1.51531,6.56735,6.56735,0,0,1-2.37376-7.52566q.41872-.33539.83748-.671c1.30878.47937,3.1562-.00138,3.59982,2.02018-1.701.26152-2.198,1.72612-2.44831,2.99006-.21216,1.07155,1.10789,1.52078,1.89943,2.12845a3.33733,3.33733,0,0,0,1.993.74385A2.43834,2.43834,0,0,1,173.703,60.37151Z" fill="#d78a1a"/><path d="M176.49646,58.542a3.33733,3.33733,0,0,1-1.993-.74385c-.79154-.60767-2.11159-1.0569-1.89943-2.12845.25026-1.26394.74733-2.72854,2.44831-2.99006,2.86324.5626,3.34607,1.37772,2.34728,3.874a3.69643,3.69643,0,0,0-.08756,1.08035q-.01911.41859-.03726.83791Z" fill="#e09e16"/><path d="M176.49646,58.542q.38917-.035.77818-.07013c.46223.62592,1.14084.3523,1.738.41777.10177.89775-.93836,1.32383-.9057,2.193-1.54416-.02849-1.30873.728-.50285,1.66068-1.63235.24276-2.599-.93909-3.86608-1.14484-.37249-.0278-.74523-.056-1.11569-.0849-.194-.90619.66413-.81748,1.08079-1.14354A2.43616,2.43616,0,0,0,176.49646,58.542Z" fill="#7d7c80"/><path d="M179.0126,58.88968c-.59712-.06547-1.27573.20815-1.738-.41777q.01866-.419.03744-.83784c1.33493-.7072,1.8211-2.16721,2.81772-3.17543q.76515.03246,1.52883.06485.01113.63023.0218,1.26164a1.4099,1.4099,0,0,1-.093.41369c-1.01178.13123-.74887,1.20129-1.25533,1.7047Z" fill="#959498"/><path d="M171.45254,50.6595q-.41875.33558-.83748.671c-.87132-.01855-1.58164-.21358-.909-1.26806.44524-.698.77616-2.01356,1.75819-1.62918C172.58825,48.87324,171.75257,49.89593,171.45254,50.6595Z" fill="#d17b1f"/><path d="M116.98838,18.12072a.92228.92228,0,0,1,.88245.44835c-.12736,1.091-.77287.83014-1.28661.40177C115.83426,18.3455,116.50616,18.24437,116.98838,18.12072Z" fill="#e5aa15"/><path d="M113.104,19.37857q-.87608.06279-1.75129.12592A1.10025,1.10025,0,0,1,113.104,19.37857Z" fill="#59595b"/><path d="M125.8874,21.62656q-.02732.26787-.05478.53634a3.08916,3.08916,0,0,1-2.36657-.82923c-1.99137-1.83085-4.45765-3.13223-6.03864-5.42435,1.516.08546,2.79561,1.35757,4.42351.88142.81842.31577,1.195,1.35774,2.2124,1.34645C124.92374,19.16838,126.11882,20.02451,125.8874,21.62656Z" fill="#e5aa15"/><path d="M121.85092,16.79074c-1.6279.47615-2.9075-.796-4.42351-.88142a12.512,12.512,0,0,0-4.42188-3.15244c-.215-.49207-1.15213-.23474-1.07907-.87329.06655-.58159.77879-.51407,1.06546-.31813C115.83015,13.50544,119.40308,14.1992,121.85092,16.79074Z" fill="#e09e16"/><path d="M160.01179,42.06415a4.84606,4.84606,0,0,1,3.92512,2.19171c-.05.62066-.43341,1.09146-.97378.73441C161.80157,44.22279,160.25721,43.7749,160.01179,42.06415Z" fill="#e09e16"/><path d="M141.37717,29.62745c-.22118-.00354-.5059.08212-.65425-.02362-3.92872-2.80017-8.27744-5.01-11.80232-8.37839,1.58427-.13567,2.50247,1.12025,3.66027,1.82249,2.56243,1.55418,5.04371,3.24219,7.55848,4.875A2.09982,2.09982,0,0,1,141.37717,29.62745Z" fill="#e09e16"/><path d="M144.6449,31.9925a5.74462,5.74462,0,0,1-3.27-2.36176c1.52941-.16413,2.28887,1.33781,3.59318,1.65934A.62335.62335,0,0,1,144.6449,31.9925Z" fill="#e09e16"/><path d="M127.01474,17.72841c-.14253-.43148.14959-.65886.42341-.89517.72642.14587.61042.67763.54666,1.18414Q127.4985,17.87232,127.01474,17.72841Z" fill="#59595b"/><path d="M181.68032,55.785q-.01071-.631-.02169-1.26148.22929-.0114.459-.0235.22956.64949.45941,1.29839Z" fill="#7d7c80"/><path d="M200.80509,78.38227q-.02673.27229-.05344.54553a12.46616,12.46616,0,0,1-3.17944-4.00947q.5295-.03294,1.0605-.06662.98625.9369,1.97,1.87467Q200.70257,77.55523,200.80509,78.38227Z" fill="#7d7c80"/><path d="M179.0126,58.88968q.65973-.49308,1.31962-.985.44515.042.89.08168a4.33389,4.33389,0,0,1-3.11494,3.09673C178.07424,60.21351,179.11437,59.78743,179.0126,58.88968Z" fill="#59595b"/><path d="M181.22223,57.98637q-.44491-.04025-.89-.08168c.5063-.50458.24339-1.57464,1.25629-1.7056a1.09947,1.09947,0,0,0,.87842,1.0169A1.40017,1.40017,0,0,1,181.22223,57.98637Z" fill="#7d7c80"/><path d="M182.46693,57.216a1.09947,1.09947,0,0,1-.87842-1.0169,1.44865,1.44865,0,0,0,.09192-.414q.44822.00646.89663.01325.019.45357.0384.90737Q182.54163,56.96107,182.46693,57.216Z" fill="#59595b"/><path d="M34.54987,164.22918a2.60071,2.60071,0,0,1-2.432-.66245c-2.21593-1.66176-4.44834-3.30152-6.72446-4.987.84354-.95762,1.97958-1.10032,2.94944-1.55551.93161.09065,1.72029-.03825,1.83866-1.197.69972-2.10221,2.86958-3.07348,3.83424-4.95727a5.80032,5.80032,0,0,0-2.56311-7.54748c-4.296-2.15544-8.06877-5.1285-12.15341-7.61084a2.36857,2.36857,0,0,1-.97989-.85747,72.28206,72.28206,0,0,1-3.49086-8.56121,12.0195,12.0195,0,0,1,3.69879.15384c1.22443.11953,2.508.535,3.22155-1.07315.271-.61082,1.0711-.323,1.6286-.43278,4.009-.78944,5.928-4.52112,4.12845-8.103-2.05338-4.08726-4.08589-8.18635-6.22861-12.22664a6.67246,6.67246,0,0,1-.8418-4.22918c.35113-2.47287.64671-4.95363.96372-7.41536.98554-.17443,1.34128,1.00537,2.34486.79113.31026-.90236-.48941-1.19956-.98466-1.628a1.14459,1.14459,0,0,1-.18712-1.74793c.476-.603.99538-.26948,1.55384.00082a6.06078,6.06078,0,0,1,2.80346,3.27c-.7749,2.45419-2.089-.8186-2.99986.30158.00265.84368,1.05634.91431,1.24465,1.63244-.66731.4007-1.05685-.1377-1.55159-.41814-.469-.26588-.83493-.00754-1.06093.4446-.12405.24816-.3553.74531-.13685.7434.92469-.00811,1.61931.59436,2.45439.76256.68877.13873.8365-.43239,1.01925-.91495,1.07206.80831,1.55077-.01651,2.0628-.7496,3.78747,2.073,6.83859,1.031,9.36874-2.215.8452-.09348.83756-.7136.82525-1.3366l-.00115-4.89233c1.10352-3.11879.86266-6.36162.8855-9.58041.00675-.95066-.17949-1.96488.44352-2.78229,1.5771-2.06919,2.86441-4.40509,5.18846-5.80895l1.40479,2.69106a2.141,2.141,0,0,0,2.75087,1.60435c2.624,4.44647,7.18415,4.59777,9.94452.36479,2.00539-3.07521,4.08023-6.10513,6.12434-9.15518.63629.01748,1.32388.2328,1.58557-.69464.59917-2.12348,2.3586-2.97437,4.18-3.77891.657-.2902,1.71934-.24865,1.55663-1.45485,1.19251-.81968,2.92561-2.00522,3.80989-1.4814,1.02583.60766-.21721,2.53644-.06515,3.83634.2813,2.40486-1.38728,3.56417-2.699,5.00125l-.49446.52294.04987-.03778c-1.88214.18238-2.1774,1.55722-2.30039,3.06152l.0116-.01644c-1.886.78647-2.28795,1.2652-2.22773,2.65316-2.31987,3.51433-4.765,6.97319-4.45237,11.51576.06207.90179-.69246,1.14672-1.38324,1.48927a43.35072,43.35072,0,0,0-14.15232,11.124,42.80588,42.80588,0,0,0-7.45779,13.66508c-2.62149,7.52284-2.452,15.22187-.71,22.8018a39.00131,39.00131,0,0,0,5.27113,11.80944c4.62511,7.36519,11.17591,12.373,18.94634,15.96872-.10322.93466-.54648,1.37587-1.45883.86927a21.614,21.614,0,0,1-2.32328-1.1649c-1.23886-.886-2.5527-1.22951-3.26465.74044a2.15173,2.15173,0,0,1-1.46887,1.52053c-2.14469.45983-1.86818,1.76284-1.36349,3.32705.20732.64258,1.24937,1.653-.35607,2.06729l-.913-.9006c.13283-1.02787-.37259-1.40519-1.33837-1.3133l.00639.00638c-.05989-1.01115-.66261-1.36205-1.59906-1.34571-.94213.01643-1.88479.00316-2.82722.00292.89376-1.09523,1.81482-2.11294,3.46018-1.80094a.89515.89515,0,0,0,.77537-.28035,5.21406,5.21406,0,0,1,4.22942-3.08292.953.953,0,0,0,.73556-1.361c-.34088-.84783-.90487-.45737-1.42128-.14089-1.59075.975-2.40347.22413-2.974-1.27342-.20907-.54873-.13573-1.3263-.90211-1.59388-1.017,2.15061-1.64683,4.35316-4.09428,5.60969-1.15481.59291-3.38163,1.16714-2.90709,3.48934-.73815.7371-1.488-.76343-2.22592.01169C39.60878,163.92574,37.01253,163.09,34.54987,164.22918Z" fill="#8e8e8e"/><path d="M114.09044,144.20433c-.03647-.95624-.10415-1.91246-.10473-2.86872-.008-13.28729.01908-26.57472-.04222-39.86172-.00723-1.56585.24327-2.26748,2.014-2.15937,2.93978.1795,6.39761-.81919,8.69807.42088,2.19606,1.1838,3.22113,4.57506,4.71121,7.02621,2.68074,4.40972,5.32253,8.84312,7.98413,13.26451,1.23339,2.04889,1.25245,2.04271,2.43806.07393,3.84069-6.37772,7.72358-12.73052,11.50111-19.14539a2.88,2.88,0,0,1,3.00707-1.63456c2.28189.11972,4.5773.09705,6.86184.00606,1.30295-.0519,1.79891.25557,1.79323,1.69606q-.08333,21.14863-.018,42.29773c.00211,1.15191-.19137,1.78427-1.55666,1.72423-2.2101-.09719-4.42844-.06375-6.64159-.01177-1.14871.027-1.51975-.40531-1.5161-1.55866.0261-8.26684-.00006-16.53389-.03622-24.80076-.00292-.66711.5235-1.684-.41729-1.91323-.70245-.17118-.85459.86654-1.179,1.4112-3.50775,5.8889-6.98655,11.79512-10.509,17.67518-1.49691,2.49881-3.50873,2.45875-4.96854-.01586q-5.16957-8.76335-10.37937-17.50277a3.87654,3.87654,0,0,0-1.95443-2.1253c0,9.48969,0,18.72677,0,27.96385l-.604.68185a45.092,45.092,0,0,1-7.83137.00046C115.13224,144.22827,114.62022,144.199,114.09044,144.20433Z" fill="#8e8e8e"/><path d="M79.82951,98.71764c11.47352-.46123,20.1303,6.318,22.93651,14.8654,3.92711,11.96147-.14192,26.66025-14.763,31.21034-.558.17364-1.163.19075-1.73077.33941-.68913.18043-1.7092.17694-1.78162.99881-.06186.70193.74535,1.22339,1.39482,1.58685,3.47117,1.94236,7.02827,1.39148,10.43824.00215,1.77261-.7222,2.39059-.31649,2.67818,1.37455a9.01353,9.01353,0,0,0,.49856,1.46c1.3421,3.76244,1.3951,4.0076-2.48382,4.84147-4.95493,1.06516-9.96837,1.11849-14.66288-1.29449a13.53788,13.53788,0,0,1-6.39813-6.8046,3.47888,3.47888,0,0,0-2.5637-2.17915C62.962,142.61235,56.4256,135.09228,55.628,124.682c-.87921-11.47584,4.316-20.51541,14.07028-24.35382a26.18177,26.18177,0,0,1,5.272-1.55625A30.29928,30.29928,0,0,1,79.82951,98.71764Zm-.025,38.31351c8.21468-.01257,14.50436-6.47132,14.49808-14.88779a14.52472,14.52472,0,1,0-29.04534.01145C65.30052,130.55217,71.64838,137.04363,79.80448,137.03115Z" fill="#8e8e8e"/><path d="M187.69777,98.5989a27.91809,27.91809,0,0,1,17.95437,4.655c1.39794.92737,1.99647,1.68492.63355,3.20189-1.27509,1.41919-1.96048,3.61915-3.47363,4.50807-1.76554,1.0372-3.22063-1.34766-5.014-1.86528-4.1365-1.19391-8.195-2.32072-12.51264-1.07374-1.85713.53634-3.4592,1.279-3.71161,3.52442-.274,2.43722,1.25027,3.566,3.19574,4.11094,4.08868,1.14526,8.23457,2.08509,12.3499,3.13691a23.57773,23.57773,0,0,1,5.748,2.181c4.95979,2.776,6.87622,7.0683,6.33811,12.59307a12.043,12.043,0,0,1-7.13643,10.17441c-5.33528,2.6339-11.01721,2.45794-16.634,1.65666a29.61436,29.61436,0,0,1-13.32281-5.51259c-.97981-.71363-1.24737-1.20775-.37989-2.23949,1.37551-1.636,2.25765-3.99667,3.96432-4.96349,1.99517-1.13025,3.58595,1.52558,5.54362,2.14956,4.522,1.44136,9.00356,2.71036,13.80548,1.58948,2.72916-.637,4.211-1.96449,4.34076-4.00934.12849-2.02426-1.1339-3.45157-3.95247-4.33678-4.616-1.44971-9.44992-2.03517-14.04237-3.62059-6.8958-2.38058-10.02056-6.35422-9.73726-12.705.27163-6.08914,4.53228-10.85908,10.98839-12.44168A20.7565,20.7565,0,0,1,187.69777,98.5989Z" fill="#8e8e8e"/><path d="M84.39109,181.367c-.95588-.15408-.96725-.85531-1.0644-1.62837a5.88617,5.88617,0,0,0-8.73891-4.672c-4.43188,2.23445-8.91254,4.37331-13.32154,6.65139-1.47052.75983-2.907.29159-4.28516.10988a36.48122,36.48122,0,0,0-5.00509-.46567c-.98162.00682-1.30232-.42128-1.38149-1.2595l-.02224.01958c.80692-.53775,1.97308-.86195,1.34037-2.2554l-.02694.04062c.096.30651.42931.58933.60013.39376.87054-.9968,2.054-1.86166,1.80232-3.45186.68228-.03292,1.29774.147.99483.9654-.34059.92021-.37683,1.98678-1.47517,2.59424-.65578.36269-1.5488,1.55182-.388,1.90345a4.97038,4.97038,0,0,0,3.18336.11991c1.23152-.53612-.46857-1.15739-.136-1.793a2.32163,2.32163,0,0,1,.606-.90466c1.6661-1.07011,2.31413-2.934,3.43553-4.41541a2.63465,2.63465,0,0,1,2.36813-1.21813c1.79482.00265,2.83248-.98807,3.74041-2.55756,1.3014-2.24964,1.36357-6.04038,5.588-5.256a1.68457,1.68457,0,0,0,.14749-.36713c-.64132-.62521-2.09715.4012-2.28656-1.131,1.9741-.46277,3.8228.46629,5.75053.51827.036,1.35989-1.73677.33266-2.01871,1.45061,2.448-.28629,2.448-.28629,2.91609-1.42714l2.637.3331a1.03981,1.03981,0,0,0,1.8047-.00337q.64881-.07137,1.29761-.14278c1.05936.93725,2.17886,1.53079,3.561.62306,1.78-.3121,3.53312-.94512,5.26267-1.20428,4.45688-.66792,8.12749-2.81682,11.7389-5.2186.27973-.186.04874-.51819-.21664-.69532a69.8558,69.8558,0,0,0,8.94962-8.21241c.27989-.329.56256-.6797,1.09431-.61727a113.53159,113.53159,0,0,0,12.93059.26106c-3.49071,1.80241-2.33966,5.08871-2.78716,7.80049-.47934,2.90482.03217,5.8941-.55112,8.80743-1.05657-1.62341-.36695-3.42527-.48888-5.13946-.088-1.23751.01169-2.368-1.70815-2.51849-.78725-.0689-1.05007-.62327-.565-1.45145a34.43094,34.43094,0,0,0,3.02829-5.57567c.398-1.096.32668-1.293-.71-1.29594-2.06556-.00589-4.13255.04207-6.19618-.02188-1.23342-.03824-1.9854.20639-1.877,1.67717.12861,1.74436-1.81365,2.30412-2.32489,3.78447-.23115.66931-1.34-.02585-2.01654.0148-1.15488.06937-2.66172-.041-2.12171,2.067.3319,1.29561-2.61361,5.90825-3.87535,6.12953-2.26134.39658-3.51017,2.02089-4.49311,3.73161-2.55408,4.44513-7.44037,6.74749-10.00318,11.14868-.06175.106-.24958.14729-.38588.2-2.09219.80831-2.70037,2.45132-2.70851,4.544-.00477,1.22529.35922,2.5368-.53172,3.67321a27.25439,27.25439,0,0,0,.11718-3.87752C85.5892,181.24855,85.28272,180.87991,84.39109,181.367Z" fill="#8e8e8e"/><path d="M84.39109,181.367c.89163-.48712,1.19811-.11848,1.184.78537a27.25439,27.25439,0,0,1-.11718,3.87752c.89094-1.13641.52695-2.44792.53172-3.67321.00814-2.09266.61632-3.73567,2.70851-4.544.1363-.05266.32413-.09391.38588-.2,2.56281-4.40119,7.4491-6.70355,10.00318-11.14868.98294-1.71072,2.23177-3.335,4.49311-3.73161,1.26174-.22128,4.20725-4.83392,3.87535-6.12953-.54-2.108.96683-1.99765,2.12171-2.067.67655-.04065,1.78539.65451,2.01654-.0148.51124-1.48035,2.4535-2.04011,2.32489-3.78447-.10843-1.47078.64355-1.71541,1.877-1.67717,2.06363.06395,4.13062.016,6.19618.02188,1.03664.003,1.10793.2.71,1.29594a34.43094,34.43094,0,0,1-3.02829,5.57567c-.48508.82818-.22226,1.38255.565,1.45145,1.71984.15054,1.62013,1.281,1.70815,2.51849.12193,1.71419-.56769,3.516.48886,5.13946l-.0324.83373c-.87057,1.726-1.123,3.73976-2.41914,5.26412a3.29846,3.29846,0,0,0-1.08214,2.54294c-.45049.51415-.57234,1.29713-1.29759,1.58649-.69389-.43857-1.375-.9329-2.26435-.51953-.328-.7291-.61367-1.48127-.99489-2.18139-.461-.84669-.9653-1.72285-2.194-1.13559-.97467-.87816-1.59794-2.10361-2.79419-2.76757-2.50461-1.39015-6.20634-1.33833-8.465,2.898-2.04137,3.82875-4.51111,7.43254-6.86727,11.087a5.04637,5.04637,0,0,1-1.91618,1.73384c-2.23814,1.09426-4.5431,2.05535-6.84462,3.014-.60678.25273-1.7625.70588-1.37579-.63226C84.41141,184.97525,83.89654,183.13549,84.39109,181.367Z" fill="#8e8e8e"/><path d="M125.43775,80.10405A3.015,3.015,0,0,1,128.681,81.1762a.92616.92616,0,0,0-.538.97919c-.95633-.00445-1.917.04724-2.868-.02607-1.55236-.11966-2.45279.24182-2.58664,2.08618a5.35519,5.35519,0,0,1-1.49869,3.81442c-1.93442,1.68359-3.42,3.95474-6.06477,4.73122-.63134.18535-1.33294.31975-1.58084,1.04256-.61628,1.79692-1.3938.95064-2.18355.16132-1.39858-1.39785-2.77019-2.82466-4.21459-4.17348-.42523-.39709-.82782-1.51215-1.69574-.43739-4.0272-2.59224-8.06111-5.1689-12.7405-6.48259-.87513-.2457-.92921-.69969-.43054-1.46227,3.83355-5.86238,7.61808-11.75681,11.45195-17.619.58725-.89793,4.72339-1.12157,5.53938-.39172.37931.33925.18158.63554-.04284.94526-.42258.58314-1.08741,1.026-1.08538,1.85753l.02492-.02131c-1.16317.98479-2.43981,1.8757-1.35452,3.74178.40061.68881-.35482,1.34432-.57291,2.01044a5.448,5.448,0,0,0,4.88752,7.289,28.6725,28.6725,0,0,1,5.88524.60571c.07474.88254.68636.97887,1.39339.97641q2.93312-.01023,5.86631.00877C124.82065,80.8158,125.28687,80.73219,125.43775,80.10405Z" fill="#8e8e8e"/><path d="M70.06619,162.78954c.18941,1.53223,1.64524.50582,2.28656,1.131a1.68457,1.68457,0,0,1-.14749.36713c-4.22448-.78435-4.28665,3.00639-5.588,5.256-.90793,1.56949-1.94559,2.56021-3.74041,2.55756a2.63465,2.63465,0,0,0-2.36813,1.21813c-1.1214,1.48143-1.76943,3.3453-3.43553,4.41541a2.32163,2.32163,0,0,0-.606.90466c-.33252.63561,1.36757,1.25688.136,1.793a4.97038,4.97038,0,0,1-3.18336-.11991c-1.16085-.35163-.26783-1.54076.388-1.90345,1.09834-.60746,1.13458-1.674,1.47517-2.59424.30291-.81845-.31255-.99832-.99482-.9654-.83483-.29531-.15541-.95565-.33931-1.40787a8.43119,8.43119,0,0,0,.18093-5.75262c1.60544-.41428.56339-1.42471.35607-2.06729-.50469-1.56421-.7812-2.86722,1.36349-3.32705a2.15173,2.15173,0,0,0,1.46887-1.52053c.712-1.97,2.02579-1.62643,3.26465-.74044a21.614,21.614,0,0,0,2.32328,1.1649c.91235.5066,1.35561.06539,1.45883-.86927q.85172.37662,1.70336.75342c.10947.61867.2234,1.33247.87674,1.521.56318.16253.76976-.44737.96531-.893C68.64745,162.03342,69.7772,161.57129,70.06619,162.78954Z" fill="#8e8e8e"/><path d="M105.45016,89.35415c.86792-1.07476,1.27051.0403,1.69574.43739,1.4444,1.34882,2.816,2.77563,4.21459,4.17348.78975.78932,1.56727,1.6356,2.18355-.16132.2479-.72281.9495-.85721,1.58084-1.04256,2.64481-.77648,4.13035-3.04763,6.06477-4.73122a5.35519,5.35519,0,0,0,1.49869-3.81442c.13385-1.84436,1.03428-2.20584,2.58664-2.08618.951.07331,1.91168.02162,2.86766.02595.51508.62337,1.21413.38146,1.8591.39444a.33648.33648,0,0,1,.33453.04326.80633.80633,0,0,0,1.00384.83963l.36559.3454c.052.25935.10254.52219.3987.15558,1.05742.30945,2.4798.94177,2.41077,1.80172-.10451,1.3019-1.96063,1.2935-2.868,2.13114-1.491.2663-2.646.81713-2.26246,2.67132a9.12313,9.12313,0,0,0-3.79813,4.63322c-.27178.85-.69217.6863-1.27784.70792-3.81544.14079-7.64985-.30738-11.4439.31713a.97676.97676,0,0,1-1.09487-.4129C110.028,93.278,107.54767,91.505,105.45016,89.35415Z" fill="#8e8e8e"/><path d="M44.36031,163.70439c-.47461-2.32228,1.75221-2.89651,2.907-3.48942,2.44745-1.25653,3.0773-3.45908,4.09428-5.60969.76638.26758.693,1.04515.90211,1.59388.57058,1.49755,1.3833,2.24841,2.974,1.27342.51641-.31648,1.0804-.70694,1.42128.14089a.953.953,0,0,1-.73556,1.361,5.21406,5.21406,0,0,0-4.22942,3.08292.89515.89515,0,0,1-.77537.28035c-1.64536-.312-2.56642.70571-3.46019,1.801-.56716.019-1.19922-.0782-1.32011.73853l-.90824-.0913C45.24493,164.18032,45.10317,163.70059,44.36031,163.70439Z" fill="#8e8e8e"/><path d="M44.67177,68.83907c-2.324,1.40386-3.61136,3.73976-5.18846,5.80895-.623.81741-.43677,1.83163-.44352,2.78229-.02284,3.21879.218,6.46162-.88555,9.58049q-.24437.00951-.48862.01884c.14287-3.75238.30114-7.50427.41838-11.25744.03142-1.00582.77383-1.56092,1.277-2.25906,1.495-2.07419,3.03653-4.1149,4.73563-6.40566Z" fill="#8e8e8e"/><path d="M102.79941,157.02309c.26538.17713.49637.50929.21664.69532-3.61141,2.40178-7.282,4.55068-11.7389,5.2186-1.72955.25916-3.48271.89218-5.26266,1.20428a.87717.87717,0,0,1-.43567-.86647A48.91716,48.91716,0,0,0,102.79941,157.02309Z" fill="#8e8e8e"/><path d="M30.18154,155.82725c-.11837,1.15874-.907,1.28764-1.83866,1.197.07291-.28982.88843-.67944-.09706-.82882a4.65445,4.65445,0,0,0-2.49271.67351,2.45751,2.45751,0,0,1-3.29258-.70423C25.79244,153.73524,28.43638,153.303,30.18154,155.82725Z" fill="#8e8e8e"/><path d="M114.48722,175.343c.08826,1.57735,1.08335,3.2088-.44883,5.14569-.72268-2.897-3.57278-4.81516-1.87708-7.96954C114.05308,172.54066,113.51412,174.56465,114.48722,175.343Z" fill="#8e8e8e"/><path d="M13.14154,122.40019c2.344.4097,4.73865.06228,6.65342,1.81057.3097.28276.87084.3902.703.96073-.184.62548-.69368.35793-1.10122.29978-1.23675-.17652-2.46845-.39462-3.70894-.53715A2.57576,2.57576,0,0,1,13.14154,122.40019Z" fill="#8e8e8e"/><path d="M108.14223,66.20138c.95013-.07594,1.00982-.02886,2.111-1.42529.85859-1.08877,1.73322-1.43471,3.07-.58344-1.19424,1.67712-1.90452,3.68548-4.07452,4.37263-.44192.13994-.89618.68263-1.37944.15229-.49409-.54223.11167-.9.29567-1.336.16157-.38287.875-.8051.00255-1.20185Z" fill="#8e8e8e"/><path d="M50.5945,180.10279c-1.15546-.01754-2.17909,1.28244-3.5396.212,1.49726-2.29524,2.7907-4.82838,6.11433-4.97467l-1.28354,2.56743.027-.0407c-.81.5359-1.7154,1.01517-1.3404,2.25548Z" fill="#8e8e8e"/><path d="M132.55071,88.34735c1.87365-.60326,3.74139-2.16186,5.77018.04-2.5377,1.27443-4.95695,2.55407-7.86269,2.12579-.19628-.83579.06213-1.48467.96682-1.47573A1.02934,1.02934,0,0,0,132.55071,88.34735Z" fill="#8e8e8e"/><path d="M46.13571,68.84129c-.95918-1.53012-1.32527-3.034.3064-4.47137a10.90412,10.90412,0,0,1,1.86027,7.49618c-1.42594.48311-1.20029-.68483-1.41341-1.41413a5.93861,5.93861,0,0,0-.01534-2.65051Z" fill="#8e8e8e"/><path d="M82.91428,182.71463a18.52971,18.52971,0,0,1-.253,5.147,1.45045,1.45045,0,0,1-1.61128,1.2001c-.79977-.142-.38061-.9661-.35835-1.466C80.7731,185.76549,80.68409,183.82208,82.91428,182.71463Z" fill="#8e8e8e"/><path d="M79.80946,55.05788a5.95476,5.95476,0,0,1-2.691,6.01467C77.99706,59.12679,76.35054,56.17765,79.80946,55.05788Z" fill="#8e8e8e"/><path d="M72.21853,58.41569c.16271,1.2062-.89961,1.16465-1.55663,1.45485-1.82144.80454-3.58087,1.65543-4.18,3.77891-.26169.92744-.94928.71212-1.58557.69464C66.07677,60.81122,68.83842,59.23145,72.21853,58.41569Z" fill="#8e8e8e"/><path d="M118.902,173.70318a3.29846,3.29846,0,0,1,1.08214-2.54294c1.29611-1.52436,1.54857-3.53817,2.41914-5.26412C122.97288,169.2775,120.992,171.51482,118.902,173.70318Z" fill="#8e8e8e"/><path d="M125.43775,80.10405c-.15088.62814-.6171.71175-1.16557.70813q-2.93307-.01936-5.86631-.00877c-.707.00246-1.31865-.09387-1.39339-.97641A56.24247,56.24247,0,0,1,125.43775,80.10405Z" fill="#8e8e8e"/><path d="M25.17455,95.58675c-.18848-.71813-1.24217-.78876-1.24482-1.63244.91083-1.12018,2.225,2.15261,2.99986-.30158.83962.31677.5847,1.26039,1.03186,1.80189-.512.73309-.99074,1.55791-2.0628.7496l-.02626.012c-.11845-.33819-.26374-.64623-.702-.6252Z" fill="#8e8e8e"/><path d="M34.54987,164.22918c2.46266-1.1392,5.05891-.30344,7.58449-.5134q.00142.19548.00017.39138c-.452.09376-.97714-.045-1.31459.41333A28.38578,28.38578,0,0,1,34.54987,164.22918Z" fill="#8e8e8e"/><path d="M114.48722,175.343c-.9731-.77833-.43414-2.80232-2.32591-2.82385l-.01017-1.066c1.22868-.58726,1.73294.2889,2.194,1.13559.38122.70012.66689,1.45229.99489,2.18139l-.11818.45476Z" fill="#8e8e8e"/><path d="M46.1384,164.87725c.12089-.81673.753-.71957,1.32011-.73853.94244.00021,1.8851.01348,2.82723-.00295.93645-.01634,1.53917.33456,1.59906,1.34571C50.0248,164.75252,48.01741,165.42547,46.1384,164.87725Z" fill="#8e8e8e"/><path d="M51.88569,177.90759l1.28354-2.56743c.157-.67508-.32357-1.61205.77961-1.89854.1839.45222-.49552,1.11256.33931,1.40787.25167,1.5902-.93179,2.45506-1.80233,3.45186C52.315,178.49692,51.98173,178.2141,51.88569,177.90759Z" fill="#8e8e8e"/><path d="M132.55071,88.34735a1.02934,1.02934,0,0,1-1.12569.69c-.90469-.00894-1.1631.63994-.96682,1.47572l-1.07351.02465c-.38356-1.85419.77151-2.405,2.26247-2.67132A.9996.9996,0,0,0,132.55071,88.34735Z" fill="#8e8e8e"/><path d="M46.889,70.452c.21312.7293-.01253,1.89724,1.41341,1.41413l.52505,1.26838a2.141,2.141,0,0,1-2.75087-1.60435c.51428-.24845.464-.72825.48326-1.17959A.531.531,0,0,1,46.889,70.452Z" fill="#8e8e8e"/><path d="M115.22183,175.2249l.11818-.45476c.88934-.41337,1.57046.081,2.26435.51953-.14615.631-.3602,1.47739-.95115,1.52915C115.73947,176.89885,115.824,175.67012,115.22183,175.2249Z" fill="#8e8e8e"/><path d="M85.57882,163.27482a.87717.87717,0,0,0,.43567.86647c-1.38218.90773-2.50168.31419-3.561-.62306A6.33717,6.33717,0,0,1,85.57882,163.27482Z" fill="#8e8e8e"/><path d="M70.51933,69.31856c.123-1.5043.41825-2.87914,2.30039-3.06152A8.5603,8.5603,0,0,1,70.51933,69.31856Z" fill="#8e8e8e"/><path d="M68.3032,71.95528c-.06022-1.388.34175-1.86669,2.22773-2.65316A8.28129,8.28129,0,0,1,68.3032,71.95528Z" fill="#8e8e8e"/><path d="M42.13453,164.10716q.00123-.1958-.00017-.39138c.73783-.7749,1.48773.72563,2.22588-.01147.74293-.00372.88469.476.86992,1.08164l-2.64969-.20241Z" fill="#8e8e8e"/><path d="M37.66562,87.02964q.24428-.00937.48862-.01884.00065,2.446.00113,4.89214-.33532-.01651-.67053-.03281A18.471,18.471,0,0,1,37.66562,87.02964Z" fill="#8e8e8e"/><path d="M76.7141,163.33128c-.46812,1.14085-.46812,1.14085-2.91609,1.42714.28194-1.118,2.05472-.09072,2.01871-1.45061Z" fill="#8e8e8e"/><path d="M67.91037,161.71073c-.19555.44567-.40213,1.05557-.96531.893-.65334-.18856-.76727-.90236-.87674-1.521Z" fill="#8e8e8e"/><path d="M130.00174,82.54971c-.645-.013-1.344.22893-1.8591-.39444a.92679.92679,0,0,1,.53836-.97907A2.15022,2.15022,0,0,1,130.00174,82.54971Z" fill="#8e8e8e"/><path d="M46.889,70.452a.531.531,0,0,0-.32915-.10143l-.42412-1.50925.73793-1.03983A5.93861,5.93861,0,0,1,46.889,70.452Z" fill="#8e8e8e"/><path d="M81.15584,163.661a1.03981,1.03981,0,0,1-1.8047.00337A2.82858,2.82858,0,0,1,81.15584,163.661Z" fill="#8e8e8e"/><path d="M42.13453,164.10716l.44594.47638a1.95074,1.95074,0,0,1-1.76055-.06305C41.15739,164.06221,41.6825,164.20092,42.13453,164.10716Z" fill="#8e8e8e"/><path d="M37.48484,91.87013q.33523.01634.67053.03281c.01238.62311.02,1.24323-.82518,1.33671Z" fill="#8e8e8e"/><path d="M51.87841,165.4751c.96578-.09189,1.4712.28543,1.33837,1.3133C52.4931,166.63353,52.28146,165.95676,51.87841,165.4751Z" fill="#8e8e8e"/><path d="M114.09044,144.20433c.52978-.00529,1.0418.02394,1.25013.644C114.765,144.94265,114.05705,145.29271,114.09044,144.20433Z" fill="#8e8e8e"/><path d="M131.34011,83.4326a.80633.80633,0,0,1-1.00384-.83963C130.97283,82.5118,131.13847,82.99371,131.34011,83.4326Z" fill="#8e8e8e"/><path d="M72.76985,66.29482l.49446-.52294Z" fill="#8e8e8e"/><path d="M123.17194,144.84791l.604-.68185C123.82832,144.61809,123.69152,144.90257,123.17194,144.84791Z" fill="#8e8e8e"/><path d="M132.1044,83.93358c-.29616.36661-.34675.10377-.3987-.15558A2.35365,2.35365,0,0,1,132.1044,83.93358Z" fill="#8e8e8e"/><path d="M25.89865,96.20422c-.18275.48256-.33048,1.05368-1.01925.91495-.83508-.1682-1.5297-.77067-2.45439-.76256-.21845.00191.0128-.49524.13685-.7434.226-.45214.59188-.71048,1.06093-.4446.49474.28044.88428.81884,1.55159.41814l-.00791.00722c-.24724.75959.26164.6539.70592.62224Z" fill="#8e8e8e"/><path d="M50.57226,180.12237c-.375-1.24031.53042-1.71958,1.3404-2.25548C52.54534,179.26042,51.37918,179.58462,50.57226,180.12237Z" fill="#8e8e8e"/><path d="M189.05586,88.479l.25656-.30009c.307.27307-.08732.27017-.15884.3951Z" fill="#8e8e8e"/><path d="M25.87239,96.21621c-.44428.03166-.95316.13735-.70592-.62224C25.60865,95.57,25.75394,95.878,25.87239,96.21621Z" fill="#8e8e8e"/></svg>