<svg id="Layer_1" data-name="Layer 1" xmlns="http://www.w3.org/2000/svg" viewBox="0 0 717 455.5"><defs><style>.cls-1{fill:#a66745;}.cls-2{fill:#f9924a;}.cls-3{fill:#edb506;}.cls-4{fill:#212121;}.cls-5{fill:#373737;}.cls-6{fill:#474747;}.cls-7{fill:#fdca00;}.cls-8{fill:#eee;}.cls-9{fill:#333;}.cls-10{fill:#4f4745;}.cls-11{fill:#e5931c;}.cls-12{fill:#d07016;}.cls-13{fill:#ffbe17;}.cls-14{fill:#db8f15;}.cls-15{fill:#ffd200;}.cls-16{fill:#1f1e21;}.cls-17{fill:#2f2e34;}.cls-18{fill:#abfdff;}.cls-19{opacity:0.8;}.cls-20{fill:#fff;}.cls-21{fill:#d6a51e;}.cls-22{fill:#38312f;}.cls-23{opacity:0.2;}.cls-24{fill:#3a3231;}.cls-25{fill:#d3831a;}.cls-26{fill:#deb827;}</style></defs><polygon class="cls-1" points="412.3 75.3 464.4 0 521.6 42.8 569.7 34.3 623.4 62 657.1 37.1 688.9 62 703.5 62 716.8 80.9 412.3 75.3"/><polygon class="cls-2" points="417.5 83.2 466.9 13.8 517.3 53.6 568.7 45.5 623.5 70.7 658.3 46.4 687.1 68.5 701.2 68.5 716.8 80.9 417.5 83.2"/><rect class="cls-3" x="315.6" y="137" width="8.4" height="28.9"/><rect class="cls-4" x="585.3" y="135.79" width="10.9" height="6.7" transform="translate(-11.67 212.87) rotate(-20.23)"/><polygon class="cls-4" points="623.9 244.5 634.1 240.8 631.8 234.5 619.5 239.4 623.9 244.5"/><polygon class="cls-4" points="654.5 166.9 658.3 177.1 664.6 174.8 660.9 164.6 654.5 166.9"/><rect class="cls-4" x="555.71" y="202.51" width="6.7" height="10.8" transform="translate(-37.41 206.91) rotate(-20.3)"/><polygon class="cls-4" points="625.4 141.6 635.2 146.1 638.1 140 628.2 135.5 625.4 141.6"/><polygon class="cls-4" points="580.5 238.7 590.4 243.2 593.2 237.1 583.3 232.6 580.5 238.7"/><polygon class="cls-4" points="657.2 205.4 652.6 215.2 658.8 218.1 663.3 208.2 657.2 205.4"/><polygon class="cls-4" points="559.8 160.7 555.3 170.5 561.4 173.3 566 163.5 559.8 160.7"/><polygon class="cls-4" points="642.3 151.2 649.7 159.2 654.7 154.6 647.3 146.7 642.3 151.2"/><polygon class="cls-4" points="563.9 224.1 571.3 232.1 576.3 227.5 568.9 219.5 563.9 224.1"/><polygon class="cls-4" points="647.5 222.3 639.5 229.7 644.1 234.6 652.1 227.2 647.5 222.3"/><polygon class="cls-4" points="574.5 144.1 566.5 151.5 571.1 156.4 579.1 149 574.5 144.1"/><rect class="cls-4" x="657.35" y="188.68" width="10.8" height="6.7" transform="translate(437.79 844.34) rotate(-87.13)"/><rect class="cls-4" x="550.32" y="183.41" width="10.8" height="6.7" transform="translate(341.41 732.46) rotate(-87.13)"/><polygon class="cls-4" points="612.2 239.7 597.7 238.9 598.7 245.9 611.9 246.4 612.2 239.7"/><rect class="cls-4" x="608.57" y="130.49" width="6.7" height="10.9" transform="translate(445.9 740.4) rotate(-87.17)"/><path class="cls-4" d="M662.2,186.9c1.4,29.5-21.1,54.6-50.3,55.9s-53.9-21.5-55.3-51,21.1-54.6,50.3-55.9S660.8,157.4,662.2,186.9Z"/><path class="cls-4" d="M659.6,187.1c1.3,28.3-20.1,52.3-47.8,53.6s-51.3-20.6-52.6-48.8,20.1-52.3,47.8-53.6S658.3,158.9,659.6,187.1Z"/><path class="cls-4" d="M651.1,188.3c1.1,23.8-16.9,43.9-40.2,45s-43.1-17.3-44.2-41,16.9-43.9,40.2-45S649.9,164.6,651.1,188.3Z"/><path class="cls-4" d="M641.4,188a33,33,0,0,1-31.1,34.8c-18,.8-33.3-13.4-34.2-31.7a33,33,0,0,1,31.1-34.8C625.2,155.4,640.5,169.6,641.4,188Z"/><path class="cls-4" d="M626.9,188.4a18.48,18.48,0,1,1-19.3-17.9A18.69,18.69,0,0,1,626.9,188.4Z"/><path class="cls-4" d="M616.3,188.6a8.06,8.06,0,1,1-8.4-7.8A8.17,8.17,0,0,1,616.3,188.6Z"/><polygon class="cls-5" points="579 143.2 589.3 140 587.3 133.6 576.9 136.8 579 143.2"/><polygon class="cls-5" points="611.3 245.2 621.7 241.9 619.6 235.5 609.3 238.7 611.3 245.2"/><polygon class="cls-5" points="645.5 169.1 648.8 179.4 655.2 177.4 652 167 645.5 169.1"/><polygon class="cls-5" points="543.4 201.3 546.6 211.7 553.1 209.6 549.8 199.3 543.4 201.3"/><polygon class="cls-5" points="617.6 142.4 627.3 147.4 630.4 141.4 620.7 136.4 617.6 142.4"/><polygon class="cls-5" points="568.2 237.3 577.9 242.3 581 236.3 571.4 231.3 568.2 237.3"/><polygon class="cls-5" points="646.4 207.6 641.4 217.2 647.4 220.3 652.4 210.7 646.4 207.6"/><polygon class="cls-5" points="551.2 158.4 546.2 168 552.2 171.1 557.2 161.5 551.2 158.4"/><polygon class="cls-5" points="634.1 152.8 641.1 161.1 646.3 156.8 639.2 148.5 634.1 152.8"/><polygon class="cls-5" points="552.3 222 559.4 230.2 564.5 225.9 557.5 217.6 552.3 222"/><polygon class="cls-5" points="635.9 224.1 627.6 231.1 632 236.2 640.3 229.2 635.9 224.1"/><polygon class="cls-5" points="566.6 142.5 558.3 149.5 562.7 154.6 571 147.6 566.6 142.5"/><rect class="cls-5" x="647.2" y="191.14" width="10.8" height="6.7" transform="translate(396.37 825.41) rotate(-84.49)"/><rect class="cls-5" x="540.5" y="180.83" width="10.8" height="6.7" transform="translate(309.7 709.67) rotate(-84.44)"/><rect class="cls-5" x="590.83" y="237.03" width="6.7" height="10.9" transform="translate(295.63 810.56) rotate(-84.48)"/><rect class="cls-5" x="601.11" y="130.7" width="6.7" height="10.9" transform="translate(410.86 724.73) rotate(-84.49)"/><path class="cls-5" d="M652.3,189.4c0,29.6-23.7,53.5-52.9,53.5s-52.9-24-52.9-53.5,23.7-53.5,52.9-53.5S652.3,159.8,652.3,189.4Z"/><path class="cls-5" d="M649.7,189.5c0,28.3-22.5,51.3-50.3,51.3s-50.3-23-50.3-51.3,22.5-51.3,50.3-51.3S649.7,161.2,649.7,189.5Z"/><path class="cls-6" d="M641.1,190.3c0,23.8-18.9,43.1-42.2,43.1s-42.2-19.3-42.2-43.1,18.9-43.1,42.2-43.1S641.1,166.5,641.1,190.3Z"/><path class="cls-7" d="M631.4,189.5c0,18.4-14.6,33.3-32.7,33.3S566,207.9,566,189.5s14.6-33.3,32.7-33.3S631.4,171.1,631.4,189.5Z"/><path class="cls-8" d="M616.9,189.2a18.5,18.5,0,1,1-18.5-18.8A18.65,18.65,0,0,1,616.9,189.2Z"/><path class="cls-6" d="M606.3,189a8.1,8.1,0,1,1-8.1-8.2A8.15,8.15,0,0,1,606.3,189Z"/><polygon class="cls-9" points="655.2 177.4 664.6 174.8 660.9 164.6 652 167 655.2 177.4"/><polygon class="cls-9" points="656.5 189.4 666.5 186.8 665.9 197.6 655.5 200.2 656.5 189.4"/><polygon class="cls-9" points="652.4 210.7 663.3 208.2 658.8 218.1 647.4 220.3 652.4 210.7"/><polygon class="cls-9" points="632 236.2 644.1 234.6 652.1 227.2 640.3 229.2 632 236.2"/><polygon class="cls-9" points="611.3 245.2 623.9 244.5 634.1 240.8 621.7 241.9 611.3 245.2"/><polygon class="cls-4" points="599.2 246.4 611.9 246.4 601 245.8 599.2 245.7 599.2 246.4"/><polygon class="cls-9" points="639.2 148.5 647.3 146.7 654.7 154.6 646.3 156.8 639.2 148.5"/><polygon class="cls-9" points="620.7 136.4 628.2 135.5 638.1 140 630.4 141.4 620.7 136.4"/><polygon class="cls-9" points="610.2 133.3 617.6 132.9 606.7 132.3 599.4 132.3 610.2 133.3"/><polygon class="cls-9" points="587.3 133.6 594.7 134.2 588.2 136.6 587.3 133.6"/><rect class="cls-10" x="419.5" y="130.1" width="26.9" height="12.2"/><rect class="cls-10" x="411.4" y="114.4" width="26.3" height="12.2"/><rect class="cls-11" x="324" y="154.3" width="117.6" height="38.3"/><rect class="cls-11" x="323.7" y="137.3" width="119.2" height="18.5"/><polygon class="cls-12" points="717 113.4 716.9 111 716.9 81.6 704.3 81.6 704.3 81.7 480.3 83.2 440.3 163.3 439.6 182.1 697.8 121.8 716.9 116.7 716.9 113.4 717 113.4"/><polygon class="cls-13" points="427.3 95.2 624.2 91.6 445.7 131.3 427.3 95.2"/><path class="cls-14" d="M413.1,68.1H321.2l6.4,5.2L393,74.4a54.73,54.73,0,0,1,21.2,20.9l25-1.4Z"/><path class="cls-15" d="M408,55.5H321.2V68.1l70.4.2s7-1.2,15,14.2l26.5.2Z"/><polygon class="cls-14" points="420.1 130.1 339.6 129.6 339.6 110.1 411.2 110.1 420.1 130.1"/><polygon class="cls-13" points="407.7 130.1 327.7 129.6 327.7 110.1 398.9 110.1 407.7 130.1"/><polygon class="cls-16" points="339 110.1 355.8 80.2 398.5 80.5 411.4 110.1 339 110.1"/><polygon class="cls-17" points="327.8 110.1 344.3 80.2 386.4 80.5 399 110.1 327.8 110.1"/><polygon class="cls-18" points="382.1 83.3 390.9 105.7 336.3 105.3 348.1 83 382.1 83.3"/><g class="cls-19"><polygon class="cls-20" points="355.9 105.4 367.9 83.2 355.6 83.1 343.5 105.3 355.9 105.4"/><polygon class="cls-20" points="367.7 105.5 378.1 83.3 372.6 83.3 361.5 105.5 367.7 105.5"/></g><rect class="cls-3" x="308" y="129.6" width="112" height="7.8"/><rect class="cls-21" x="308" y="133.8" width="112" height="3.6"/><polygon class="cls-14" points="450.5 98.8 463.3 128.5 472.7 126.3 460.5 98.5 450.5 98.8"/><polygon class="cls-14" points="480.4 96.4 493.2 126.1 502.6 123.9 490.4 96.1 480.4 96.4"/><polygon class="cls-14" points="512.7 95.2 525.5 124.9 535 122.7 522.7 94.9 512.7 95.2"/><polygon class="cls-14" points="541.4 95.2 554.2 124.9 563.7 122.7 551.5 94.9 541.4 95.2"/><polygon class="cls-14" points="573.7 94 586.5 123.7 596 121.5 583.8 93.7 573.7 94"/><polygon class="cls-15" points="406.6 82.5 641.5 80.9 641.7 92.3 414.6 96.5 406.6 82.5"/><polygon class="cls-15" points="406.6 82.5 439.5 141.4 450.4 139 421.5 82.5 406.6 82.5"/><polyline class="cls-15" points="516.7 114.7 629.8 90.3 641.9 91.1 642.5 97.8 450.4 139 445.8 130 516.7 114.7"/><polygon class="cls-13" points="440.3 163.3 631.9 115.8 633 102.4 438.9 149.5 440.3 163.3"/><polygon class="cls-14" points="439.5 141.4 438.9 149.5 632.1 107.6 631.3 99.8 439.5 141.4"/><polygon class="cls-14" points="428.6 96.2 621.2 92 607 95 431.1 101.2 428.6 96.2"/><rect class="cls-15" x="630.6" y="81" width="12.6" height="34.9"/><rect class="cls-14" x="641.5" y="80.9" width="75.3" height="35.2"/><polygon class="cls-11" points="436.4 175.8 613.7 131.4 614 202.3 439.4 207.6 436.4 175.8"/><polygon class="cls-14" points="657 198.5 613.7 198.5 613.7 131.4 657.3 131.4 657 198.5"/><polygon class="cls-10" points="656.9 207.9 347.8 207.8 347.8 192.6 657 191.8 656.9 207.9"/><polygon class="cls-22" points="656.9 207.9 347.8 207.8 347.8 199.8 657 199.5 656.9 207.9"/><g class="cls-23"><rect x="613.7" y="131.4" width="43.6" height="76.7"/></g><polygon class="cls-4" points="356.3 141.4 366.9 137.5 364.5 130.9 353.8 134.8 356.3 141.4"/><polygon class="cls-4" points="395.1 246.3 405.7 242.4 403.3 235.8 390.4 240.9 395.1 246.3"/><polygon class="cls-4" points="427.1 165.2 431 175.8 437.6 173.3 433.7 162.7 427.1 165.2"/><rect class="cls-4" x="323.7" y="202.29" width="7.1" height="11.3" transform="translate(-51.86 126.64) rotate(-20.33)"/><polygon class="cls-4" points="396.6 138.7 406.9 143.4 409.9 137 399.5 132.3 396.6 138.7"/><polygon class="cls-4" points="349.7 240.2 360 245 363 238.6 352.6 233.8 349.7 240.2"/><polygon class="cls-4" points="429.8 205.4 425.1 215.7 431.5 218.6 436.2 208.3 429.8 205.4"/><polygon class="cls-4" points="328.1 158.6 323.3 168.9 329.7 171.9 334.5 161.6 328.1 158.6"/><polygon class="cls-4" points="414.3 148.8 422.1 157.1 427.2 152.3 419.5 144 414.3 148.8"/><polygon class="cls-4" points="332.3 225 340.1 233.3 345.2 228.5 337.5 220.2 332.3 225"/><polygon class="cls-4" points="419.7 223.1 411.4 230.8 416.2 236 424.5 228.2 419.7 223.1"/><polygon class="cls-4" points="343.3 141.3 335 149 339.8 154.2 348.1 146.4 343.3 141.3"/><rect class="cls-4" x="430.15" y="187.77" width="11.3" height="7.1" transform="translate(223.19 617.14) rotate(-87.17)"/><rect class="cls-4" x="318.12" y="182.29" width="11.3" height="7.1" transform="translate(122.02 499.94) rotate(-87.14)"/><polygon class="cls-4" points="382.8 241.2 367.7 240.5 368.6 247.8 382.5 248.2 382.8 241.2"/><rect class="cls-4" x="379.02" y="127.1" width="7" height="11.4" transform="translate(231.13 508.36) rotate(-87.19)"/><path class="cls-4" d="M435.1,186c1.5,30.9-22.1,57.1-52.6,58.5s-56.4-22.4-57.9-53.3,22.1-57.1,52.6-58.5S433.7,155.2,435.1,186Z"/><path class="cls-4" d="M432.4,186.3c1.4,29.6-21,54.7-50,56s-53.7-21.5-55-51.1,21-54.7,50-56S431,156.7,432.4,186.3Z"/><path class="cls-4" d="M423.4,187.6c1.2,24.9-17.6,45.9-42,47.1s-45.1-18.1-46.2-42.9,17.6-45.9,42-47.1S422.3,162.7,423.4,187.6Z"/><path class="cls-4" d="M413.3,187.2c.9,19.2-13.6,35.5-32.5,36.4s-34.8-14-35.7-33.2,13.6-35.5,32.5-36.4S412.4,168,413.3,187.2Z"/><path class="cls-4" d="M398.2,187.6A19.33,19.33,0,1,1,378,168.8,19.51,19.51,0,0,1,398.2,187.6Z"/><path class="cls-4" d="M387,187.9a8.58,8.58,0,0,1-8,9,8.43,8.43,0,0,1-8.8-8.2,8.58,8.58,0,0,1,8-9A8.37,8.37,0,0,1,387,187.9Z"/><rect class="cls-5" x="346.7" y="131.8" width="11.4" height="7" transform="translate(-24.38 112.39) rotate(-17.52)"/><polygon class="cls-5" points="381.9 247 392.7 243.5 390.6 236.8 379.8 240.3 381.9 247"/><rect class="cls-5" x="419.19" y="166.1" width="7.1" height="11.3" transform="translate(-32.16 136.12) rotate(-17.63)"/><polygon class="cls-5" points="310.8 201.2 314.2 212 321 209.8 317.5 199 310.8 201.2"/><polygon class="cls-5" points="388.5 139.5 398.5 144.7 401.8 138.5 391.7 133.3 388.5 139.5"/><polygon class="cls-5" points="336.8 238.7 346.9 244 350.2 237.7 340.1 232.5 336.8 238.7"/><polygon class="cls-5" points="418.5 207.7 413.3 217.8 419.6 221 424.8 211 418.5 207.7"/><polygon class="cls-5" points="319.1 156.2 313.8 166.3 320.1 169.5 325.3 159.5 319.1 156.2"/><polygon class="cls-5" points="405.7 150.4 413 159.1 418.4 154.5 411.1 145.9 405.7 150.4"/><polygon class="cls-5" points="320.2 222.7 327.5 231.4 332.9 226.8 325.6 218.2 320.2 222.7"/><polygon class="cls-5" points="407.6 224.9 398.9 232.2 403.5 237.6 412.2 230.3 407.6 224.9"/><polygon class="cls-5" points="335.1 139.6 326.5 146.9 331 152.3 339.7 145 335.1 139.6"/><rect class="cls-5" x="419.46" y="190.5" width="11.3" height="7.1" transform="translate(190.91 598.43) rotate(-84.46)"/><rect class="cls-5" x="307.93" y="179.69" width="11.3" height="7.1" transform="translate(100.87 477.63) rotate(-84.45)"/><rect class="cls-5" x="360.51" y="238.52" width="7" height="11.4" transform="translate(85.93 583.07) rotate(-84.48)"/><rect class="cls-5" x="371.26" y="127.31" width="7" height="11.4" transform="translate(206.33 493.24) rotate(-84.48)"/><path class="cls-5" d="M424.7,188.6c0,30.9-24.8,56-55.3,56s-55.3-25.1-55.3-56,24.8-56,55.3-56S424.7,157.7,424.7,188.6Z"/><path class="cls-5" d="M422,188.8c0,29.6-23.5,53.6-52.6,53.6s-52.6-24-52.6-53.6,23.5-53.6,52.6-53.6S422,159.2,422,188.8Z"/><path class="cls-6" d="M413,189.6c0,24.9-19.8,45-44.2,45s-44.2-20.2-44.2-45,19.8-45,44.2-45S413,164.7,413,189.6Z"/><path class="cls-11" d="M368.8,235.4c-24.8,0-44.9-20.5-44.9-45.8s20.1-45.8,44.9-45.8,44.9,20.5,44.9,45.8S393.6,235.4,368.8,235.4Zm0-90.1c-24,0-43.5,19.9-43.5,44.3s19.5,44.3,43.5,44.3,43.5-19.9,43.5-44.3S392.8,145.3,368.8,145.3Z"/><path class="cls-7" d="M402.9,188.8c0,19.2-15.3,34.8-34.2,34.8s-34.1-15.6-34.1-34.8S349.9,154,368.7,154,402.9,169.5,402.9,188.8Z"/><path class="cls-8" d="M387.8,188.5a19.3,19.3,0,1,1-19.3-19.7A19.46,19.46,0,0,1,387.8,188.5Z"/><path class="cls-6" d="M376.6,188.2a8.4,8.4,0,1,1-8.4-8.6A8.56,8.56,0,0,1,376.6,188.2Z"/><polygon class="cls-9" points="427.8 176.1 437.6 173.3 433.7 162.7 424.4 165.3 427.8 176.1"/><polygon class="cls-9" points="429.1 188.7 439.5 185.9 439 197.2 428.1 200 429.1 188.7"/><polygon class="cls-9" points="424.8 211 436.2 208.3 431.5 218.6 419.6 221 424.8 211"/><polygon class="cls-9" points="403.5 237.6 416.2 236 424.5 228.2 412.2 230.3 403.5 237.6"/><polygon class="cls-9" points="381.9 247 395.1 246.3 405.7 242.4 392.7 243.5 381.9 247"/><polygon class="cls-4" points="369.2 248.3 382.5 248.2 371.1 247.7 369.2 247.6 369.2 248.3"/><polygon class="cls-9" points="411.1 145.9 419.5 144 427.2 152.3 418.4 154.5 411.1 145.9"/><polygon class="cls-9" points="391.7 133.3 399.5 132.3 409.9 137 401.8 138.5 391.7 133.3"/><polygon class="cls-9" points="380.7 130 388.4 129.6 377.1 129 369.4 128.9 380.7 130"/><polygon class="cls-9" points="356.7 130.3 364.5 130.9 357.8 133.4 356.7 130.3"/><path class="cls-6" d="M392.5,169.6a4.6,4.6,0,1,1-4.6-4.6A4.59,4.59,0,0,1,392.5,169.6Z"/><path class="cls-6" d="M353.7,168.2a4.6,4.6,0,1,1-9.2,0,4.6,4.6,0,1,1,9.2,0Z"/><path class="cls-6" d="M391.1,208.4a4.6,4.6,0,1,1-4.6-4.6A4.72,4.72,0,0,1,391.1,208.4Z"/><path class="cls-6" d="M373.8,215.6a4.6,4.6,0,1,1-4.6-4.6A4.65,4.65,0,0,1,373.8,215.6Z"/><path class="cls-6" d="M372.4,160.5a4.6,4.6,0,1,1-4.6-4.6A4.65,4.65,0,0,1,372.4,160.5Z"/><path class="cls-6" d="M400.7,187.8a4.6,4.6,0,1,1-4.6-4.6A4.72,4.72,0,0,1,400.7,187.8Z"/><path class="cls-6" d="M346,187.8a4.6,4.6,0,1,1-4.6-4.6A4.65,4.65,0,0,1,346,187.8Z"/><path class="cls-6" d="M353.7,208.4a4.6,4.6,0,1,1-4.6-4.6A4.65,4.65,0,0,1,353.7,208.4Z"/><path class="cls-17" d="M393.1,124.8H336.4V107.7h56.7Zm-55.6-1H392v-15H337.5Z"/><rect class="cls-17" x="339.3" y="115.4" width="8.4" height="1.7"/><rect class="cls-24" x="318.9" y="95.8" width="1.6" height="33"/><rect class="cls-24" x="335.7" y="95.8" width="1.6" height="33"/><rect class="cls-24" x="352.4" y="95.8" width="1.6" height="33"/><rect class="cls-24" x="371" y="95.8" width="1.6" height="33"/><rect class="cls-24" x="389.5" y="95.8" width="1.6" height="33"/><rect class="cls-24" x="407.1" y="95.8" width="1.6" height="33.6"/><rect class="cls-24" x="319.3" y="95.8" width="88.2" height="1.6"/><rect class="cls-24" x="318.8" y="126.7" width="89.9" height="3"/><rect class="cls-10" x="317.5" y="95.8" width="1.6" height="33"/><rect class="cls-10" x="334.2" y="95.8" width="1.6" height="33"/><rect class="cls-10" x="351" y="95.8" width="1.6" height="33"/><rect class="cls-10" x="369.5" y="95.8" width="1.6" height="33"/><rect class="cls-10" x="388.1" y="95.8" width="1.6" height="33"/><rect class="cls-10" x="405.6" y="95.8" width="1.6" height="33.6"/><rect class="cls-10" x="317.9" y="95.8" width="88.2" height="1.6"/><rect class="cls-10" x="317.3" y="126.7" width="89.9" height="3"/><polygon class="cls-25" points="439.9 175.1 508.8 197.9 612.8 196.4 613.7 131.4 439.9 175.1"/><rect class="cls-4" x="535.73" y="135.2" width="11.8" height="7.3" transform="translate(-14.6 195.91) rotate(-20.24)"/><polygon class="cls-4" points="577.5 252.9 588.5 248.8 586 242 572.7 247.3 577.5 252.9"/><rect class="cls-4" x="612.41" y="167.21" width="7.3" height="11.7" transform="translate(-21.77 224.52) rotate(-20.3)"/><polygon class="cls-4" points="501.8 208.9 505.8 219.9 512.7 217.4 508.6 206.4 501.8 208.9"/><polygon class="cls-4" points="579.1 141.4 589.7 146.3 592.8 139.7 582.1 134.8 579.1 141.4"/><polygon class="cls-4" points="530.5 246.5 541.2 251.4 544.2 244.8 533.6 239.9 530.5 246.5"/><polygon class="cls-4" points="613.5 210.5 608.6 221.1 615.2 224.2 620.1 213.5 613.5 210.5"/><polygon class="cls-4" points="508.1 162.1 503.2 172.7 509.8 175.8 514.7 165.1 508.1 162.1"/><polygon class="cls-4" points="597.4 151.9 605.4 160.4 610.8 155.5 602.8 146.9 597.4 151.9"/><polygon class="cls-4" points="512.5 230.8 520.5 239.4 525.9 234.4 517.9 225.8 512.5 230.8"/><polygon class="cls-4" points="603 228.8 594.4 236.8 599.4 242.1 608 234.1 603 228.8"/><polygon class="cls-4" points="523.9 144.1 515.3 152.1 520.3 157.5 528.9 149.4 523.9 144.1"/><rect class="cls-4" x="613.76" y="192.34" width="11.7" height="7.3" transform="translate(393.1 805.12) rotate(-87.15)"/><rect class="cls-4" x="497.9" y="186.51" width="11.7" height="7.3" transform="translate(288.82 683.86) rotate(-87.16)"/><polygon class="cls-4" points="564.8 247.6 549.1 246.8 550.1 254.4 564.5 254.8 564.8 247.6"/><polygon class="cls-4" points="570.6 132 558.8 131.4 558.5 138.7 570.2 139.3 570.6 132"/><path class="cls-4" d="M618.9,190.5c1.5,32-22.9,59.1-54.5,60.6s-58.4-23.2-59.9-55.2,22.9-59.1,54.5-60.6S617.4,158.5,618.9,190.5Z"/><path class="cls-4" d="M616.1,190.7c1.4,30.6-21.7,56.6-51.8,58s-55.5-22.3-57-52.9,21.7-56.6,51.8-58S614.7,160.1,616.1,190.7Z"/><path class="cls-4" d="M606.9,192c1.2,25.7-18.3,47.5-43.5,48.7s-46.7-18.7-47.9-44.4,18.3-47.5,43.5-48.7S605.7,166.3,606.9,192Z"/><path class="cls-4" d="M596.4,191.7c.9,19.9-14.1,36.8-33.6,37.7s-36.1-14.5-37-34.3,14.1-36.7,33.6-37.7S595.4,171.8,596.4,191.7Z"/><path class="cls-4" d="M580.7,192.1c.5,11.2-8,20.8-19,21.3A20.19,20.19,0,0,1,540.8,194c-.5-11.2,8-20.8,19-21.3A20.06,20.06,0,0,1,580.7,192.1Z"/><path class="cls-4" d="M569.2,192.3a8.71,8.71,0,1,1-9.1-8.5A8.84,8.84,0,0,1,569.2,192.3Z"/><rect class="cls-5" x="527.42" y="134.31" width="11.8" height="7.3" transform="translate(-16.79 167.04) rotate(-17.53)"/><polygon class="cls-5" points="563.8 253.5 575.1 250 572.8 243 561.6 246.6 563.8 253.5"/><polygon class="cls-5" points="600.9 171.2 604.4 182.3 611.4 180.1 607.8 169 600.9 171.2"/><polygon class="cls-5" points="490.3 206.1 493.8 217.3 500.8 215.1 497.2 203.9 490.3 206.1"/><polygon class="cls-5" points="570.6 142.3 581.1 147.7 584.5 141.2 574 135.8 570.6 142.3"/><polygon class="cls-5" points="517.2 245 527.6 250.4 531 244 520.6 238.5 517.2 245"/><polygon class="cls-5" points="601.8 212.9 596.4 223.3 602.9 226.7 608.3 216.2 601.8 212.9"/><polygon class="cls-5" points="498.8 159.6 493.4 170 499.9 173.4 505.3 162.9 498.8 159.6"/><polygon class="cls-5" points="588.5 153.6 596.1 162.5 601.7 157.8 594.1 148.9 588.5 153.6"/><polygon class="cls-5" points="500 228.4 507.6 237.4 513.2 232.7 505.6 223.7 500 228.4"/><polygon class="cls-5" points="590.5 230.7 581.5 238.3 586.2 243.8 595.2 236.3 590.5 230.7"/><polygon class="cls-5" points="515.5 142.4 506.5 150 511.2 155.5 520.2 148 515.5 142.4"/><rect class="cls-5" x="602.75" y="195.09" width="11.7" height="7.3" transform="translate(352.12 785.34) rotate(-84.47)"/><rect class="cls-5" x="487.26" y="184.02" width="11.7" height="7.3" transform="translate(258.77 660.38) rotate(-84.47)"/><rect class="cls-5" x="541.52" y="244.81" width="7.3" height="11.8" transform="translate(243.06 769.16) rotate(-84.47)"/><rect class="cls-5" x="552.71" y="129.68" width="7.3" height="11.8" transform="translate(367.78 676.28) rotate(-84.47)"/><ellipse class="cls-5" cx="550.9" cy="193.1" rx="57.2" ry="57.9"/><ellipse class="cls-5" cx="550.9" cy="193.3" rx="54.4" ry="55.5"/><path class="cls-6" d="M596,194.2c0,25.8-20.5,46.6-45.7,46.6s-45.7-20.9-45.7-46.6,20.5-46.6,45.7-46.6S596,168.4,596,194.2Z"/><path class="cls-11" d="M550.3,241.5c-25.6,0-46.5-21.2-46.5-47.4s20.8-47.4,46.5-47.4,46.5,21.2,46.5,47.4S575.9,241.5,550.3,241.5Zm0-93.3c-24.8,0-45,20.6-45,45.9s20.2,45.9,45,45.9,45-20.6,45-45.9S575.1,148.2,550.3,148.2Z"/><path class="cls-7" d="M585.6,193.3c0,19.9-15.8,36-35.4,36s-35.4-16.1-35.4-36,15.8-36,35.4-36S585.6,173.4,585.6,193.3Z"/><path class="cls-8" d="M569.9,193a20,20,0,1,1-20-20.4A20.15,20.15,0,0,1,569.9,193Z"/><path class="cls-6" d="M558.4,192.7a8.7,8.7,0,1,1-8.7-8.9A8.81,8.81,0,0,1,558.4,192.7Z"/><polygon class="cls-9" points="611.4 180.1 621.5 177.3 617.5 166.3 607.8 169 611.4 180.1"/><polygon class="cls-9" points="612.8 193.2 623.5 190.3 622.9 202 611.6 204.9 612.8 193.2"/><polygon class="cls-9" points="608.3 216.2 620.1 213.5 615.2 224.2 602.9 226.7 608.3 216.2"/><polygon class="cls-9" points="586.2 243.8 599.4 242.1 608 234.1 595.2 236.3 586.2 243.8"/><polygon class="cls-9" points="563.8 253.5 577.5 252.9 588.5 248.8 575.1 250 563.8 253.5"/><polygon class="cls-4" points="550.7 254.9 564.5 254.8 552.7 254.3 550.7 254.1 550.7 254.9"/><polygon class="cls-9" points="594.1 148.9 602.8 146.9 610.8 155.5 601.7 157.8 594.1 148.9"/><polygon class="cls-9" points="574 135.8 582.1 134.8 592.8 139.7 584.5 141.2 574 135.8"/><polygon class="cls-9" points="562.6 132.5 570.6 132 558.8 131.4 550.9 131.3 562.6 132.5"/><polygon class="cls-9" points="537.8 132.7 545.8 133.4 538.9 136 537.8 132.7"/><path class="cls-6" d="M574.9,173.4a4.7,4.7,0,1,1-4.7-4.7A4.76,4.76,0,0,1,574.9,173.4Z"/><path class="cls-6" d="M534.7,171.9a4.7,4.7,0,1,1-4.7-4.7A4.69,4.69,0,0,1,534.7,171.9Z"/><path class="cls-6" d="M573.4,213.6a4.7,4.7,0,1,1-4.7-4.7A4.69,4.69,0,0,1,573.4,213.6Z"/><path class="cls-6" d="M555.5,221.1a4.7,4.7,0,1,1-4.7-4.7A4.69,4.69,0,0,1,555.5,221.1Z"/><path class="cls-6" d="M554,164a4.7,4.7,0,1,1-4.7-4.7A4.69,4.69,0,0,1,554,164Z"/><path class="cls-6" d="M583.3,192.3a4.7,4.7,0,1,1-4.7-4.7A4.69,4.69,0,0,1,583.3,192.3Z"/><path class="cls-6" d="M526.7,192.3a4.7,4.7,0,1,1-4.7-4.7A4.69,4.69,0,0,1,526.7,192.3Z"/><path class="cls-6" d="M534.7,213.6a4.7,4.7,0,1,1-4.7-4.7A4.69,4.69,0,0,1,534.7,213.6Z"/><path class="cls-26" d="M251.9,329.8c22.3-28.4,35.9-66.1,35.9-107.4,0-88.3-62-159.9-138.4-159.9S11,134,11,222.3,73,382.2,149.4,382.2c28,0,54-9.6,75.7-26.1,5.6,11.2,7.9,26.3-2.6,44.3,0,0-9.9,24.3-53,32.9,0,0-71.3,10.9-89.9-23.7a50.18,50.18,0,0,0,.3-8.3v-.5c0-14.6-10-26.4-22.3-26.4a20,20,0,0,0-8.1,1.8c-6.1,1.8-15,7.1-14.1,22.6,0,.7-.1,1.4-.1,2,0,9,3.8,16.9,9.6,21.7,10.7,11.3,37.4,28.6,102.6,32.7,0,0,84.2,6.1,113.5-64.6.1.2,11.7-34.4-9.1-60.8ZM59.4,222.8c0-73.8,40.3-133.7,90-133.7s90,59.9,90,133.7c0,31.8-7.5,61-19.9,83.9-16.3-7.4-38.5-12.7-66.5-8.5,0,0-48,13.3-23.3,55.1h0C89.5,339.9,59.4,286.6,59.4,222.8Zm93.2,130.5c-6-3.7-11.9-9.7-8.3-17.7,0,0,2.5-12.4,36.1-11.6,0,0,13.2,1.1,21.8,6.3-13,12.7-28.7,20.9-45.7,22.7Z"/><path class="cls-26" d="M331.4,268.2l50.4,125.9,50.4-125.9h26.4V422.5H438.3V362.4l1.9-64.8L389.6,422.5H374L323.5,297.9l2,64.5v60.1H305.2V268.2Z"/><path class="cls-26" d="M540,353.7c-17.4-5-30.1-11.2-38.1-18.5A35.41,35.41,0,0,1,490,308.1c0-12.1,4.9-22.2,14.6-30.1s22.3-11.9,37.9-11.9c10.6,0,20,2,28.3,6.1a46.38,46.38,0,0,1,19.3,17,43,43,0,0,1,6.8,23.6H576.4c0-9.4-3-16.7-8.9-22.1s-14.3-8-25.1-8c-10,0-17.9,2.2-23.5,6.6s-8.4,10.6-8.4,18.4c0,6.3,2.7,11.6,8,16s14.4,8.3,27.2,11.9,22.9,7.6,30.1,11.9,12.6,9.4,16.1,15.2,5.2,12.6,5.2,20.5c0,12.5-4.9,22.5-14.6,30s-22.8,11.3-39.1,11.3a72.09,72.09,0,0,1-29.7-6.1c-9.2-4.1-16.3-9.6-21.2-16.7a40.77,40.77,0,0,1-7.5-24.1h20.5c0,9.3,3.4,16.7,10.3,22.1s16.1,8.1,27.6,8.1c10.7,0,19-2.2,24.7-6.6s8.6-10.3,8.6-17.9-2.6-13.4-7.9-17.5S554,357.7,540,353.7Z"/></svg>