<?xml version="1.0" encoding="utf-8"?>
<!-- Generator: Adobe Illustrator 16.0.0, SVG Export Plug-In . SVG Version: 6.00 Build 0)  -->
<svg version="1.1" id="Layer_1" xmlns="http://www.w3.org/2000/svg" xmlns:xlink="http://www.w3.org/1999/xlink" x="0px" y="0px"
	 width="923.752px" height="253.449px" viewBox="0 0 923.752 253.449" enable-background="new 0 0 923.752 253.449"
	 xml:space="preserve">
<g>
	<path fill="#FFFFFF" d="M29.361,207.653h26.09c0,0-15.84-13.743-9.085-33.776c6.755-20.034,6.29-14.909,6.29-14.909l0.466-5.125
		l-2.795-1.397l0.233-5.357c0,0,6.29,1.164,7.455,10.249v12.347c0,0,26.556,4.659,35.641,20.732l8.852-0.466
		c0,0,20.732-4.893,23.062-27.954c0,0,34.942-13.045,40.533-37.038c0,0-23.761,16.306-45.191,9.551l5.125-16.772
		c0,0-16.073,2.563-21.198,1.864c0,0-14.209-18.636-10.482-30.05H80.61l-0.233-16.306c0,0-2.563-11.647-8.619-13.977
		c0,0-9.551,2.795-15.607,19.102h-3.96l0.466-12.812c0,0-8.852-9.784-37.504-9.318c0,0,68.253-64.992,140,6.29
		c0,0,35.874,36.805,18.17,95.974C173.322,158.502,133.722,264.26,29.361,207.653z"/>
	
		<ellipse transform="matrix(0.7455 0.6665 -0.6665 0.7455 105.0352 -26.8129)" fill="#FFFFFF" cx="87.627" cy="124.13" rx="9.789" ry="4.916"/>
</g>
<g>
	<path fill="#FFFFFF" d="M204.956,84.771c6.371-1.04,15.861-1.82,26.391-1.82c13,0,22.101,1.95,28.341,6.891
		c5.2,4.16,8.06,10.27,8.06,18.331c0,11.18-7.93,18.851-15.47,21.581v0.39c6.11,2.471,9.49,8.32,11.7,16.381
		c2.73,9.881,5.46,21.321,7.15,24.701h-20.281c-1.43-2.471-3.51-9.62-6.11-20.41c-2.34-10.921-6.11-13.911-14.17-14.041h-5.98
		v34.451h-19.631V84.771z M224.587,122.473h7.8c9.88,0,15.731-4.94,15.731-12.61c0-8.061-5.46-12.09-14.561-12.221
		c-4.811,0-7.541,0.39-8.971,0.65V122.473z"/>
	<path fill="#FFFFFF" d="M279.184,78.921h19.761v36.271h0.26c2.08-2.73,4.68-4.81,7.8-6.5c2.86-1.56,6.63-2.47,10.27-2.47
		c12.611,0,22.231,8.71,22.231,27.821v37.182h-19.761v-34.971c0-8.32-2.86-14.041-10.27-14.041c-5.2,0-8.451,3.38-9.881,6.891
		c-0.52,1.3-0.65,2.99-0.65,4.42v37.701h-19.761V78.921z"/>
	<path fill="#FFFFFF" d="M364.465,107.652l9.49,31.201c1.04,3.77,2.34,8.45,3.12,11.83h0.39c0.91-3.38,1.95-8.189,2.86-11.83
		l7.8-31.201h21.191l-14.82,41.861c-9.101,25.221-15.211,35.361-22.361,41.731c-6.89,5.98-14.17,8.061-19.11,8.71l-4.16-16.77
		c2.47-0.391,5.59-1.561,8.58-3.381c2.99-1.56,6.24-4.68,8.19-7.93c0.65-0.91,1.04-1.95,1.04-2.86c0-0.65-0.13-1.69-0.91-3.25
		l-23.271-58.112H364.465z"/>
	<path fill="#FFFFFF" d="M414.383,127.934c0-7.931-0.26-14.691-0.52-20.281h17.161l0.91,8.71h0.39c2.6-4.03,9.1-10.14,19.631-10.14
		c13,0,22.751,8.581,22.751,27.301v37.701h-19.761v-35.231c0-8.19-2.86-13.78-10.01-13.78c-5.46,0-8.71,3.77-10.01,7.41
		c-0.52,1.17-0.78,3.12-0.78,4.94v36.661h-19.761V127.934z"/>
	<path fill="#FFFFFF" d="M550.105,138.724c0,23.271-16.511,33.931-33.541,33.931c-18.591,0-32.892-12.221-32.892-32.761
		c0-20.541,13.521-33.671,33.932-33.671C537.104,106.222,550.105,119.613,550.105,138.724z M504.084,139.373
		c0,10.921,4.55,19.111,13,19.111c7.671,0,12.61-7.67,12.61-19.111c0-9.49-3.64-19.11-12.61-19.11
		C507.594,120.263,504.084,130.014,504.084,139.373z"/>
	<path fill="#FFFFFF" d="M583.382,150.814c5.33,2.729,13.521,5.459,21.971,5.459c9.101,0,13.911-3.77,13.911-9.49
		c0-5.46-4.16-8.58-14.69-12.35c-14.561-5.07-24.051-13.131-24.051-25.871c0-14.951,12.48-26.391,33.15-26.391
		c9.881,0,17.161,2.08,22.361,4.42l-4.42,15.991c-3.51-1.69-9.75-4.16-18.331-4.16c-8.58,0-12.74,3.9-12.74,8.45
		c0,5.59,4.94,8.061,16.251,12.351c15.471,5.72,22.75,13.78,22.75,26.131c0,14.69-11.311,27.171-35.361,27.171
		c-10.01,0-19.891-2.6-24.83-5.33L583.382,150.814z"/>
	<path fill="#FFFFFF" d="M686.212,171.225l-1.17-6.37h-0.39c-4.16,5.07-10.661,7.8-18.2,7.8c-12.871,0-20.541-9.359-20.541-19.5
		c0-16.511,14.82-24.441,37.311-24.312v-0.909c0-3.381-1.819-8.191-11.57-8.191c-6.5,0-13.391,2.21-17.551,4.81l-3.64-12.74
		c4.42-2.47,13.13-5.59,24.701-5.59c21.19,0,27.95,12.48,27.95,27.431v22.101c0,6.11,0.261,11.961,0.91,15.471H686.212z
		 M683.872,141.193c-10.4-0.13-18.461,2.34-18.461,10.011c0,5.069,3.381,7.54,7.801,7.54c4.939,0,8.971-3.25,10.271-7.28
		c0.26-1.04,0.39-2.21,0.39-3.38V141.193z"/>
	<path fill="#FFFFFF" d="M715.46,127.934c0-7.931-0.26-14.691-0.52-20.281h17.16l0.91,8.71h0.391c2.6-4.03,9.1-10.14,19.631-10.14
		c13,0,22.75,8.581,22.75,27.301v37.701h-19.76v-35.231c0-8.19-2.86-13.78-10.011-13.78c-5.46,0-8.71,3.77-10.011,7.41
		c-0.52,1.17-0.779,3.12-0.779,4.94v36.661H715.46V127.934z"/>
	<path fill="#FFFFFF" d="M850.013,78.921v73.323c0,7.15,0.26,14.69,0.521,18.98h-17.551l-0.91-9.36h-0.26
		c-4.03,7.15-11.7,10.79-19.891,10.79c-15.081,0-27.171-12.87-27.171-32.631c-0.131-21.451,13.26-33.801,28.471-33.801
		c7.801,0,13.91,2.73,16.771,7.15h0.261V78.921H850.013z M830.253,134.563c0-1.04-0.131-2.47-0.261-3.511
		c-1.17-5.33-5.46-9.75-11.57-9.75c-8.97,0-13.65,8.061-13.65,18.07c0,10.791,5.33,17.551,13.521,17.551
		c5.721,0,10.271-3.9,11.44-9.49c0.39-1.43,0.521-2.859,0.521-4.55V134.563z"/>
	<path fill="#FFFFFF" d="M862.489,153.934c3.641,2.211,11.181,4.811,17.031,4.811c5.98,0,8.45-2.08,8.45-5.33s-1.95-4.811-9.36-7.28
		c-13.131-4.421-18.201-11.57-18.07-19.111c0-11.831,10.141-20.801,25.871-20.801c7.41,0,14.04,1.69,17.94,3.64l-3.511,13.65
		c-2.859-1.56-8.32-3.64-13.78-3.64c-4.81,0-7.54,1.95-7.54,5.2c0,2.99,2.47,4.55,10.271,7.281
		c12.091,4.16,17.16,10.27,17.29,19.631c0,11.83-9.359,20.54-27.561,20.54c-8.32,0-15.73-1.819-20.541-4.42L862.489,153.934z"/>
</g>
</svg>
