<svg xmlns="http://www.w3.org/2000/svg" xmlns:xlink="http://www.w3.org/1999/xlink" viewBox="0 0 3710 3710"><defs><linearGradient id="linear-gradient" x1="1835.82" y1="3042.25" x2="1701.49" y2="-933.94" gradientUnits="userSpaceOnUse"><stop offset="0" stop-color="#2b3582"/><stop offset="1" stop-color="#150e42"/></linearGradient><linearGradient id="linear-gradient-2" x1="569.17" y1="2680.44" x2="2091.59" y2="3647.63" gradientUnits="userSpaceOnUse"><stop offset="0" stop-color="#a737d5"/><stop offset="1" stop-color="#ef497a"/></linearGradient><linearGradient id="linear-gradient-3" x1="696.96" y1="2479.29" x2="2219.38" y2="3446.48" xlink:href="#linear-gradient-2"/><linearGradient id="linear-gradient-4" x1="2668.87" y1="720.06" x2="746.28" y2="3487.19" gradientUnits="userSpaceOnUse"><stop offset="0" stop-color="#53d8ff"/><stop offset="1" stop-color="#3840f7"/></linearGradient><linearGradient id="linear-gradient-5" x1="2046.31" y1="268.98" x2="1374.52" y2="1152.71" xlink:href="#linear-gradient"/><linearGradient id="linear-gradient-6" x1="2120" y1="325" x2="1448.21" y2="1208.73" xlink:href="#linear-gradient"/><linearGradient id="linear-gradient-7" x1="2035.35" y1="379.05" x2="1571.48" y2="1230.79" xlink:href="#linear-gradient-4"/><linearGradient id="linear-gradient-8" x1="1905.41" y1="2666.6" x2="2503.64" y2="2666.6" xlink:href="#linear-gradient"/><linearGradient id="linear-gradient-9" x1="2639.71" y1="723.45" x2="2539.82" y2="1706.86" xlink:href="#linear-gradient-2"/><linearGradient id="linear-gradient-10" x1="2245.35" y1="938.5" x2="2983.95" y2="938.5" gradientUnits="userSpaceOnUse"><stop offset="0" stop-color="#b37cff"/><stop offset="1" stop-color="#f895e7"/></linearGradient><linearGradient id="linear-gradient-11" x1="2288.87" y1="734.82" x2="2407" y2="469.85" xlink:href="#linear-gradient-2"/><linearGradient id="linear-gradient-12" x1="2336.6" y1="756.1" x2="2454.73" y2="491.13" xlink:href="#linear-gradient-2"/><linearGradient id="linear-gradient-13" x1="2378.75" y1="774.9" x2="2496.89" y2="509.93" xlink:href="#linear-gradient-2"/><linearGradient id="linear-gradient-14" x1="2426.48" y1="796.17" x2="2544.61" y2="531.21" xlink:href="#linear-gradient-2"/><linearGradient id="linear-gradient-15" x1="2468.64" y1="814.97" x2="2586.77" y2="550" xlink:href="#linear-gradient-2"/><linearGradient id="linear-gradient-16" x1="2516.37" y1="836.25" x2="2634.5" y2="571.28" xlink:href="#linear-gradient-2"/><linearGradient id="linear-gradient-17" x1="2558.53" y1="855.05" x2="2676.66" y2="590.08" xlink:href="#linear-gradient-2"/><linearGradient id="linear-gradient-18" x1="2606.26" y1="876.32" x2="2724.39" y2="611.36" xlink:href="#linear-gradient-2"/><linearGradient id="linear-gradient-19" x1="2648.42" y1="895.12" x2="2766.55" y2="630.15" xlink:href="#linear-gradient-2"/><linearGradient id="linear-gradient-20" x1="2696.14" y1="916.4" x2="2814.28" y2="651.43" xlink:href="#linear-gradient-2"/><linearGradient id="linear-gradient-21" x1="2738.3" y1="935.2" x2="2856.44" y2="670.23" xlink:href="#linear-gradient-2"/><linearGradient id="linear-gradient-22" x1="2786.03" y1="956.47" x2="2904.16" y2="691.51" xlink:href="#linear-gradient-2"/><linearGradient id="linear-gradient-23" x1="1583.85" y1="286.64" x2="2527.74" y2="983.93" gradientUnits="userSpaceOnUse"><stop offset="0" stop-color="#fdf53f"/><stop offset="0.66" stop-color="#e57a58"/><stop offset="1" stop-color="#d93c65"/></linearGradient><linearGradient id="linear-gradient-24" x1="3076.08" y1="612.71" x2="1800.56" y2="714.75" xlink:href="#linear-gradient-23"/><linearGradient id="linear-gradient-25" x1="3076.49" y1="617.75" x2="1800.97" y2="719.79" xlink:href="#linear-gradient-23"/><linearGradient id="linear-gradient-26" x1="3076.82" y1="621.94" x2="1801.3" y2="723.98" xlink:href="#linear-gradient-23"/><linearGradient id="linear-gradient-27" x1="3077.17" y1="626.26" x2="1801.64" y2="728.3" xlink:href="#linear-gradient-23"/><linearGradient id="linear-gradient-28" x1="3077.48" y1="630.25" x2="1801.96" y2="732.29" xlink:href="#linear-gradient-23"/><linearGradient id="linear-gradient-29" x1="3077.83" y1="634.56" x2="1802.31" y2="736.6" xlink:href="#linear-gradient-23"/><linearGradient id="linear-gradient-30" x1="3078.17" y1="638.75" x2="1802.64" y2="740.8" xlink:href="#linear-gradient-23"/><linearGradient id="linear-gradient-31" x1="3078.54" y1="643.43" x2="1803.02" y2="745.47" xlink:href="#linear-gradient-23"/><linearGradient id="linear-gradient-32" x1="3078.82" y1="646.99" x2="1803.3" y2="749.03" xlink:href="#linear-gradient-23"/><linearGradient id="linear-gradient-33" x1="3079.16" y1="651.18" x2="1803.64" y2="753.22" xlink:href="#linear-gradient-23"/><linearGradient id="linear-gradient-34" x1="3079.92" y1="660.7" x2="1804.4" y2="762.74" xlink:href="#linear-gradient-23"/><linearGradient id="linear-gradient-35" x1="3079.53" y1="655.86" x2="1804.01" y2="757.9" xlink:href="#linear-gradient-23"/><linearGradient id="linear-gradient-36" x1="661.3" y1="1697.56" x2="532.13" y2="2114.88" gradientTransform="translate(1290.1)" xlink:href="#linear-gradient-4"/><linearGradient id="linear-gradient-37" x1="192.17" y1="3264.96" x2="198.79" y2="2814.52" gradientTransform="translate(1290.1)" xlink:href="#linear-gradient"/><linearGradient id="linear-gradient-38" x1="163.62" y1="3052.36" x2="139.62" y2="3261.77" gradientTransform="translate(1290.1)" gradientUnits="userSpaceOnUse"><stop offset="0" stop-color="#f9b776"/><stop offset="1" stop-color="#f47960"/></linearGradient><linearGradient id="linear-gradient-39" x1="410.32" y1="3268.17" x2="416.95" y2="2817.73" gradientTransform="translate(1290.1)" xlink:href="#linear-gradient"/><linearGradient id="linear-gradient-40" x1="862.26" y1="1759.76" x2="733.09" y2="2177.08" gradientTransform="translate(1290.1)" xlink:href="#linear-gradient-4"/><linearGradient id="linear-gradient-41" x1="462.16" y1="3043.87" x2="438.17" y2="3253.28" gradientTransform="translate(993.21 65.77) rotate(-3.61)" xlink:href="#linear-gradient-38"/><linearGradient id="linear-gradient-42" x1="1084.09" y1="2879.78" x2="2451.78" y2="1202.08" gradientTransform="matrix(-1, 0, 0, 1, 2705.84, 0)" xlink:href="#linear-gradient"/><linearGradient id="linear-gradient-43" x1="635.08" y1="2022.77" x2="902.42" y2="2022.77" xlink:href="#linear-gradient-38"/><linearGradient id="linear-gradient-44" x1="995.54" y1="1812.86" x2="1011.26" y2="2214.41" gradientTransform="translate(1290.1)" gradientUnits="userSpaceOnUse"><stop offset="0" stop-color="#cb236d"/><stop offset="1" stop-color="#4c246d"/></linearGradient><linearGradient id="linear-gradient-45" x1="1593.75" y1="1945.14" x2="1106.87" y2="2614.19" gradientUnits="userSpaceOnUse"><stop offset="0" stop-color="#fdf53f"/><stop offset="1" stop-color="#d93c65"/></linearGradient><linearGradient id="linear-gradient-46" x1="800.98" y1="1766.64" x2="381.57" y2="1975.28" xlink:href="#linear-gradient-38"/><linearGradient id="linear-gradient-47" x1="794.84" y1="1714.32" x2="732.98" y2="1778.92" xlink:href="#linear-gradient-38"/><linearGradient id="linear-gradient-48" x1="802.97" y1="1764.17" x2="383.57" y2="1972.8" xlink:href="#linear-gradient-38"/><linearGradient id="linear-gradient-49" x1="1620.88" y1="1964.89" x2="1134" y2="2633.93" xlink:href="#linear-gradient-45"/><linearGradient id="linear-gradient-50" x1="259.34" y1="1831.79" x2="315.07" y2="1679.61" xlink:href="#linear-gradient-38"/><linearGradient id="linear-gradient-51" x1="535.51" y1="2008.77" x2="121.18" y2="2728.7" xlink:href="#linear-gradient-38"/><linearGradient id="linear-gradient-52" x1="1661.28" y1="1610.2" x2="1399.62" y2="2236.19" xlink:href="#linear-gradient-45"/><linearGradient id="linear-gradient-53" x1="1674.78" y1="1615.84" x2="1413.13" y2="2241.83" xlink:href="#linear-gradient-45"/><linearGradient id="linear-gradient-54" x1="396.32" y1="1603.51" x2="64.27" y2="1867.97" xlink:href="#linear-gradient-38"/><linearGradient id="linear-gradient-55" x1="268.13" y1="1516.51" x2="420.33" y2="1712.45" gradientTransform="translate(1290.1)" xlink:href="#linear-gradient"/><linearGradient id="linear-gradient-56" x1="362.9" y1="1589.02" x2="199.49" y2="1714.05" xlink:href="#linear-gradient-38"/><linearGradient id="linear-gradient-57" x1="630.24" y1="2090.37" x2="696.12" y2="2090.37" xlink:href="#linear-gradient-38"/><linearGradient id="linear-gradient-58" x1="1116.38" y1="1950.22" x2="1670.63" y2="2245.29" xlink:href="#linear-gradient-44"/><linearGradient id="linear-gradient-59" x1="1233.25" y1="1755.38" x2="1190.38" y2="1626.77" xlink:href="#linear-gradient-38"/><linearGradient id="linear-gradient-60" x1="1224.04" y1="2130.55" x2="1674.87" y2="2130.55" gradientTransform="translate(1290.1)" gradientUnits="userSpaceOnUse"><stop offset="0" stop-color="#9cfffb"/><stop offset="1" stop-color="#9bfffa"/></linearGradient><linearGradient id="linear-gradient-61" x1="1245.08" y1="2127.08" x2="1675.31" y2="2127.08" xlink:href="#linear-gradient-60"/><linearGradient id="linear-gradient-62" x1="1466.96" y1="2084.34" x2="1558.42" y2="2494.46" gradientTransform="translate(1290.1)" xlink:href="#linear-gradient-45"/><linearGradient id="linear-gradient-63" x1="1195.48" y1="1814.93" x2="1791.36" y2="2132.16" xlink:href="#linear-gradient-44"/><linearGradient id="linear-gradient-64" x1="2991.23" y1="1639.45" x2="2577.21" y2="2113.09" gradientTransform="matrix(1, 0, 0, 1, 0, 0)" xlink:href="#linear-gradient-44"/><linearGradient id="linear-gradient-65" x1="1493.52" y1="2129.99" x2="1354.2" y2="2397.92" xlink:href="#linear-gradient-38"/><linearGradient id="linear-gradient-66" x1="4818.98" y1="5486.66" x2="4664.89" y2="5690.5" gradientTransform="matrix(-0.69, -0.73, -0.73, 0.69, 9787.37, 1318.79)" xlink:href="#linear-gradient-38"/><linearGradient id="linear-gradient-67" x1="4701.3" y1="5535.61" x2="4885.36" y2="5535.61" gradientTransform="matrix(-0.69, -0.73, -0.73, 0.69, 9787.37, 1318.79)" xlink:href="#linear-gradient"/><linearGradient id="linear-gradient-68" x1="4593.3" y1="5648.09" x2="4716.89" y2="5521.28" gradientTransform="matrix(-0.69, -0.73, -0.73, 0.69, 9787.37, 1318.79)" xlink:href="#linear-gradient-38"/><linearGradient id="linear-gradient-69" x1="2133.69" y1="2897.18" x2="2133.69" y2="3285.8" gradientTransform="matrix(-1, 0, 0, 1, 4753.76, 0)" xlink:href="#linear-gradient"/><linearGradient id="linear-gradient-70" x1="2037.94" y1="3208.21" x2="2224.03" y2="3208.21" gradientTransform="matrix(-1, 0, 0, 1, 4753.76, 0)" xlink:href="#linear-gradient-44"/><linearGradient id="linear-gradient-71" x1="2055.63" y1="3155.81" x2="2109.57" y2="3155.81" gradientTransform="matrix(-1, 0, 0, 1, 4753.76, 0)" xlink:href="#linear-gradient-38"/><linearGradient id="linear-gradient-72" x1="1692.89" y1="2897.18" x2="1692.89" y2="3285.8" gradientTransform="matrix(-1, 0, 0, 1, 4753.76, 0)" xlink:href="#linear-gradient"/><linearGradient id="linear-gradient-73" x1="1656.73" y1="3185.11" x2="1764.44" y2="3185.11" gradientTransform="matrix(-1, 0, 0, 1, 4753.76, 0)" xlink:href="#linear-gradient-44"/><linearGradient id="linear-gradient-74" x1="1712.72" y1="3110.85" x2="1777.18" y2="3110.85" gradientTransform="matrix(-1, 0, 0, 1, 4753.76, 0)" xlink:href="#linear-gradient-38"/><linearGradient id="linear-gradient-75" x1="3371.21" y1="1209.45" x2="2655.83" y2="3067.44" gradientUnits="userSpaceOnUse"><stop offset="0" stop-color="#53d8ff"/><stop offset="0.21" stop-color="#4db9fd"/><stop offset="1" stop-color="#3840f7"/></linearGradient></defs><g id="Background"><rect width="3710" height="3710" fill="#fff"/></g><g id="Illustration"><path d="M3097.73,2341.66c-263.21,619.75-964.33,966.93-1572.35,873.28-98.93-15.24-370.17-60.63-610.31-274.79-462.3-412.27-561.16-1228.62-188.24-1803.92,271.41-418.71,758-656.07,1220.27-644.2,99.58,2.56,481.22,18.32,816.62,294.88,49.26,40.62,157.91,137.15,255.84,290.28C3249.5,1436.78,3269.26,1937.76,3097.73,2341.66Z" fill="#c1c1c1" opacity="0.3"/><path d="M588.85,1564.2c2.82-12.86,19.73-13.09,22.79-.29,29.55,123.72,116.44,445.51,256.25,618.35,227.65,281.43,374.13,733.45,220.55,962.48C1088.44,3144.74,281.86,2965.53,588.85,1564.2Z" fill="#727272"/><path d="M608,1740.22c.21,4,.68,7.34,1,10.91l1.27,10.53,2.77,21c1.94,14,4.07,27.92,6.2,41.86q6.54,41.81,14,83.42c9.92,55.5,21.23,110.69,33.3,165.69s25.43,109.69,39.92,164,29.78,108.43,46.66,162c33.57,107.13,72.56,212.38,118.25,314.24,23.34,50.65,47.92,100.67,75.12,149,27.52,48.15,56.94,95,89.39,139.41a2,2,0,0,0,2.89.37,2.37,2.37,0,0,0,.39-3.06l0,0q-46.08-68.31-85.33-141.42c-26.33-48.57-50-98.75-72.48-149.53s-43-102.57-62.43-154.81-36.85-105.37-54-158.56C731,2288.68,702.37,2180.18,676.54,2071q-19.21-82-35.49-164.75-8.22-41.35-15.66-82.89l-7.1-41.59-3.35-20.83-1.57-10.42c-.46-3.42-1-7.09-1.3-10.1l-.05-.5a2.09,2.09,0,0,0-2.24-2A2.16,2.16,0,0,0,608,1740.22Z" fill="#c1c1c1" opacity="0.3"/><path d="M792.07,1237.19c3.08-13.71,20.8-13.74,23.87,0,29.73,132.51,117.53,477.26,262.26,663.54,235.64,303.31,384.56,787.89,221.41,1030.69C1299.61,2931.38,456.55,2730.36,792.07,1237.19Z" fill="#adadad"/><path d="M810.29,1425.43c.18,4.32.64,7.85,1,11.68l1.23,11.25,2.69,22.46c1.88,15,4,29.87,6.06,44.79q6.43,44.73,13.77,89.28c9.83,59.4,21.12,118.49,33.21,177.39s25.53,117.46,40.16,175.67,30.11,116.17,47.26,173.56c34.09,114.84,73.89,227.73,120.75,337.07,23.95,54.38,49.2,108.11,77.22,160.1,28.35,51.74,58.71,102.18,92.28,150a2.06,2.06,0,0,0,3.08.43,2.6,2.6,0,0,0,.44-3.32l0,0q-47.55-73.53-87.92-152.09c-27.09-52.2-51.4-106.08-74.41-160.59s-44-110.08-63.83-166.1-37.55-113-55-170C933.83,2012.69,905,1896.47,879,1779.49q-19.32-87.79-35.55-176.39-8.22-44.26-15.6-88.72l-7-44.51-3.31-22.28-1.54-11.15c-.45-3.66-1-7.59-1.27-10.8l0-.54a2.25,2.25,0,0,0-2.37-2.17A2.33,2.33,0,0,0,810.29,1425.43Z" fill="#fff" opacity="0.43"/><path d="M890.76,947.45A171.75,171.75,0,0,1,1062.51,775.7H2523.05a151.32,151.32,0,0,1,151.11,143.62L2782,3036.82a111.59,111.59,0,0,1-109.41,117.24l-1674,30.42a105.91,105.91,0,0,1-107.84-105.89Z" fill="url(#linear-gradient)"/><path d="M1243.26,3148.48h-.06l-187.3-2.42c-62.63-.81-113.59-52.43-113.59-115.06V2748.2a4,4,0,0,1,8,0V3031c0,58.28,47.41,106.31,105.69,107.07l187.3,2.42a4,4,0,0,1,0,8Z" fill="url(#linear-gradient-2)"/><path d="M946.31,2664.6a4,4,0,0,1-4-4v-45.79a4,4,0,0,1,8,0v45.79A4,4,0,0,1,946.31,2664.6Z" fill="url(#linear-gradient-3)"/><path d="M1010.42,808.29A49.88,49.88,0,0,1,1067,758.54c199.45,27,885.31,110.7,1452.36,67.17a46.12,46.12,0,0,1,49.68,43.5l113,2127a53.08,53.08,0,0,1-49.87,55.82c-238.49,14.12-1220.68,68.68-1571,32a42.05,42.05,0,0,1-37.63-41.62Z" fill="url(#linear-gradient-4)"/><path d="M1033.91,861.59a48,48,0,0,1,54.45-47.88c191.94,26,852,106.53,1397.68,64.64a44.39,44.39,0,0,1,47.8,41.87l108.79,2046.85a51.09,51.09,0,0,1-48,53.73c-229.51,13.58-1174.71,66.08-1511.85,30.77a40.47,40.47,0,0,1-36.22-40.05Z" fill="#fff" opacity="0.6"/><path d="M1211.59,1019.4,1232,1458.23a27.9,27.9,0,0,0,27.07,26.61c81.27,2.29,334.52,8.47,477.51,1a31.14,31.14,0,0,0,29.5-30.11c2.73-82.3,8.7-321.83-10.06-422a35.16,35.16,0,0,0-33.37-28.6l-480.37-16.8A29.67,29.67,0,0,0,1211.59,1019.4Z" fill="#fff" opacity="0.78"/><g opacity="0.6"><path d="M2415,1057.6c8.52,0,15.29-6.62,15-14.72s-7.39-14.84-15.9-15l-530-9.44c-8.51-.15-13.16,6.29-10.34,14.32l3.61,10.24c2.83,8,12.11,14.6,20.62,14.6Z" fill="#fff"/></g><g opacity="0.6"><path d="M1884.15,1155.15c-8.51-.15-13.16,6.3-10.34,14.33l3.61,10.24c2.83,8,12.11,14.6,20.62,14.6h517c8.52,0,15.29-6.63,15-14.72s-7.39-14.85-15.9-15Z" fill="#fff"/></g><g opacity="0.6"><path d="M1884.15,1304.86c-8.51-.15-13.16,6.3-10.34,14.33l3.61,10.24c2.83,8,12.11,14.6,20.62,14.6h517c8.52,0,15.29-6.63,15-14.72s-7.39-14.85-15.9-15Z" fill="#fff"/></g><g opacity="0.6"><path d="M2466.2,1622.66c8.51,0,15-6.63,14.5-14.72s-7.93-14.78-16.45-14.85l-1237.32-9.75c-8.51-.07-11.14,5.33-5.84,12l12.12,15.22c5.31,6.66,16.61,12.11,25.12,12.11Z" fill="#fff"/></g><path d="M1355.77,2192.16h-.29l-104.15-1c-14.88-.15-27.16-10.39-28.57-23.82L1213.6,2080a19,19,0,0,1,4.49-14.29,22.88,22.88,0,0,1,15.94-7.86h0c8.77-.6,21.13-1.65,34.21-2.77,27.55-2.34,61.83-5.26,81.12-5.5,14-.07,25.87,8.21,29.16,20.4,5.43,20.06,5,58,3.92,98.48C1382.11,2181.56,1370.17,2192.16,1355.77,2192.16Zm-121.2-126.37a14.84,14.84,0,0,0-10.36,5,11,11,0,0,0-2.65,8.3l9.15,87.39c1,9.38,9.89,16.54,20.7,16.65l104.15,1h.21c10.09,0,18.45-7.11,18.68-15.94,1-39.84,1.5-77.17-3.65-96.2-2.3-8.52-11.17-14.45-21.34-14.48-19,.23-53.12,3.14-80.54,5.47-13.12,1.12-25.51,2.18-34.35,2.78Z" fill="#fff"/><path d="M1245.78,2074.81c21.88-1.5,69.43-6.32,92-6.6,9.55-.12,17.93,5.65,20.18,13.94,4.35,16.09,3.77,48.17,3,77.78-.23,8.87-8.37,16-18.32,15.85l-83.23-.79c-10.24-.1-18.73-7.08-19.69-16.17l-7.31-69.83C1231.66,2081.76,1237.67,2075.36,1245.78,2074.81Z" fill="#fff" opacity="0.6"/><g opacity="0.6"><path d="M1447.25,2134.13a25.87,25.87,0,0,0,25.23,19.27l963.66-8.22a19.56,19.56,0,0,0-.08-39.11l-963.69-4.4A25.86,25.86,0,0,0,1447.25,2134.13Z" fill="#fff"/></g><path d="M1349,1963.39h-.29l-104.15-1c-14.88-.14-27.16-10.38-28.57-23.81l-9.16-87.39a19,19,0,0,1,4.49-14.28,22.84,22.84,0,0,1,15.93-7.86h0c8.78-.6,21.14-1.65,34.22-2.77,27.54-2.34,61.83-5.26,81.12-5.5,14-.07,25.86,8.21,29.16,20.4,5.43,20.06,5,58,3.92,98.48C1375.29,1952.8,1363.36,1963.39,1349,1963.39ZM1227.76,1837a14.82,14.82,0,0,0-10.36,5,11,11,0,0,0-2.65,8.3l9.15,87.39c1,9.38,9.88,16.54,20.7,16.65l104.15,1h.21c10.09,0,18.45-7.11,18.67-15.94,1-39.84,1.51-77.17-3.64-96.2-2.3-8.52-11.17-14.45-21.34-14.49-19,.24-53.13,3.15-80.54,5.48-13.12,1.12-25.51,2.17-34.35,2.78Z" fill="#fff"/><path d="M1239,1846.05c21.88-1.5,69.44-6.33,92-6.61,9.56-.12,17.94,5.66,20.18,14,4.36,16.09,3.78,48.17,3,77.78-.22,8.87-8.37,15.95-18.31,15.85l-83.23-.8c-10.24-.09-18.74-7.07-19.69-16.16l-7.32-69.84C1224.85,1853,1230.85,1846.6,1239,1846.05Z" fill="#fff" opacity="0.6"/><g opacity="0.6"><path d="M1440.44,1905.37a25.85,25.85,0,0,0,25.22,19.26l963.67-8.21a19.56,19.56,0,0,0-.08-39.11l-963.69-4.4A25.86,25.86,0,0,0,1440.44,1905.37Z" fill="#fff"/></g><path d="M1355.77,2415.38h-.29l-104.15-1c-14.88-.14-27.16-10.38-28.57-23.81l-9.16-87.39a19,19,0,0,1,4.49-14.28A22.89,22.89,0,0,1,1234,2281h0c8.77-.59,21.13-1.65,34.21-2.76,27.55-2.35,61.83-5.26,81.12-5.51h.42c13.7,0,25.48,8.34,28.74,20.4,5.43,20.06,5,58,3.92,98.49C1382.11,2404.79,1370.17,2415.38,1355.77,2415.38ZM1234.57,2289a14.8,14.8,0,0,0-10.36,5,11,11,0,0,0-2.65,8.29l9.15,87.39c1,9.39,9.89,16.55,20.7,16.65l104.15,1h.21c10.09,0,18.45-7.11,18.68-15.93,1-39.84,1.5-77.18-3.65-96.2-2.3-8.52-11.3-14.65-21.34-14.49-19,.24-53.12,3.14-80.54,5.48-13.12,1.12-25.51,2.17-34.35,2.78Z" fill="#fff"/><path d="M1245.78,2298c21.88-1.5,69.43-6.33,92-6.61,9.55-.12,17.93,5.66,20.18,13.94,4.35,16.1,3.77,48.18,3,77.79-.23,8.87-8.37,16-18.32,15.85l-83.23-.8c-10.24-.1-18.73-7.08-19.69-16.17l-7.31-69.83C1231.66,2305,1237.67,2298.59,1245.78,2298Z" fill="#fff" opacity="0.6"/><g opacity="0.6"><path d="M1447.25,2357.36a25.86,25.86,0,0,0,25.23,19.26l963.66-8.22a19.56,19.56,0,0,0-.08-39.11l-963.69-4.39A25.86,25.86,0,0,0,1447.25,2357.36Z" fill="#fff"/></g><path d="M1355.77,2638.61h-.29l-104.15-1c-14.88-.14-27.16-10.38-28.57-23.81l-9.16-87.39a19.05,19.05,0,0,1,4.49-14.29,22.88,22.88,0,0,1,15.94-7.86h0c8.77-.6,21.13-1.65,34.21-2.76,27.55-2.35,61.83-5.27,81.12-5.51h.42c13.7,0,25.48,8.34,28.74,20.4,5.43,20.06,5,58,3.92,98.49C1382.11,2628,1370.17,2638.61,1355.77,2638.61Zm-121.2-126.37a14.84,14.84,0,0,0-10.36,5,11,11,0,0,0-2.65,8.3l9.15,87.39c1,9.39,9.89,16.55,20.7,16.65l104.15,1h.21c10.09,0,18.45-7.11,18.68-15.94,1-39.84,1.5-77.17-3.65-96.2-2.3-8.52-11.3-14.67-21.34-14.48-19,.23-53.12,3.14-80.54,5.48-13.12,1.11-25.51,2.17-34.35,2.77Z" fill="#fff"/><path d="M1245.78,2521.26c21.88-1.49,69.43-6.32,92-6.6,9.55-.12,17.93,5.65,20.18,13.94,4.35,16.09,3.77,48.17,3,77.78-.23,8.87-8.37,15.95-18.32,15.86l-83.23-.8c-10.24-.1-18.73-7.08-19.69-16.17l-7.31-69.83C1231.66,2528.21,1237.67,2521.82,1245.78,2521.26Z" fill="#fff" opacity="0.6"/><g opacity="0.6"><path d="M1447.25,2580.58a25.87,25.87,0,0,0,25.23,19.27l963.66-8.22a19.56,19.56,0,0,0-.08-39.11l-963.69-4.4A25.86,25.86,0,0,0,1447.25,2580.58Z" fill="#fff"/></g><g opacity="0.6"><path d="M1851.5,2811.73h0c1.93,11.43,8.61,19.36,16.21,19.26l619.34-8.22c7-.09,12.61-9.08,12.46-20-.15-10.59-5.7-19.08-12.51-19.13l-619.36-4.39C1856.71,2779.19,1848.71,2795.28,1851.5,2811.73Z" fill="#fff"/></g><path d="M1883.36,487c-52.75-36.7-98.63-36-130.92-26.45a64.42,64.42,0,0,0-45.75,67.72l13.93,152L1886.33,695S1986.83,559,1883.36,487Zm-72.87,122.63a41.32,41.32,0,1,1,41.32-41.32A41.32,41.32,0,0,1,1810.49,609.62Z" fill="url(#linear-gradient-5)"/><path d="M1737.17,616.32a4,4,0,0,1-4-3.63L1731,588.48a4,4,0,1,1,8-.73l2.22,24.21a4,4,0,0,1-3.62,4.35Zm-4.34-47.44a4,4,0,0,1-4-3.63l-1.69-18.38a61.5,61.5,0,0,1,43.59-64.51,123.92,123.92,0,0,1,60.57-2.48,4,4,0,1,1-1.61,7.83A116.07,116.07,0,0,0,1773,490a53.47,53.47,0,0,0-37.89,56.12l1.68,18.37a4,4,0,0,1-3.62,4.35Z" fill="#fff"/><path d="M1494.45,778.5V702.07a46.62,46.62,0,0,1,48.23-46.6l526.9,18a45.36,45.36,0,0,1,43.72,42.61l4.4,73.44Z" fill="url(#linear-gradient-6)"/><path d="M1690.91,684.26h-22.65a4,4,0,1,1,0-8h22.65a4,4,0,1,1,0,8Z" fill="#fff"/><path d="M1523,754.5a4,4,0,0,1-4-4V719.58a43.36,43.36,0,0,1,43.32-43.31h83.3a4,4,0,1,1,0,8h-83.3A35.37,35.37,0,0,0,1527,719.58V750.5A4,4,0,0,1,1523,754.5Z" fill="#fff"/><path d="M1279.76,797.8a49.64,49.64,0,0,1,49.59-47.27l921.39,0a68.1,68.1,0,0,1,67.1,56.49l.78,4.5A58.48,58.48,0,0,1,2261,880H1315.7a38,38,0,0,1-38-39.85Z" fill="url(#linear-gradient-7)"/><path d="M2060.48,2973.49c-10.1,0-20.3-4.86-31.15-14.82-42.33-38.89-52.22-99.64-54.69-156.58-20.33,22.9-41.22,45.15-61.85,67.14l-7.38-6.92c23-24.49,46.27-49.31,68.73-75a1651,1651,0,0,1,10.44-230.06c5.38-46.36,13.11-95.41,33.17-140.07,6.31-14.08,16.79-34.25,34.69-46.76,18.39-12.86,42.45-14.31,58.5-3.54,18.12,12.18,23,35.59,25.18,52.14,12.75,99.25-26,190.3-60.79,249.2-26,44.06-57.55,84.4-91,122.77,1.67,57.81,9.55,121.38,51.81,160.2,9.19,8.44,17.39,12.46,25.07,12.14,12.68-.46,22.59-12.27,30.61-23.76a627.17,627.17,0,0,0,81.65-163,168.78,168.78,0,0,1,14.29-49.79l9.5,3.33q-6,24.71-13.87,48.7a158.93,158.93,0,0,0,1.88,50.09c1.8,8.94,9.38,38.46,31.71,42.71,16.81,3.19,33.4-8.6,52.19-37.16l66.59-101.22-6.4,27.57c-3.42,14.72-9.06,49.91,12.32,58.71,12.25,5,25.18-2.24,38.87-9.95,13.35-7.51,27.14-15.26,42.46-13.26l5.21.7-.89,5.18c-3.52,20.41-1.78,45.53,14.73,49.18,10.8,2.42,19.66-5.8,29.92-15.28,8.7-8,17.7-16.36,29.24-19.16l2.38,9.84c-9,2.18-17,9.59-24.75,16.75-11.31,10.46-23,21.27-39,17.74-21.74-4.82-26.38-30.65-23.36-55.11-10.19.53-20.34,6.24-31,12.24-15.19,8.55-30.89,17.39-47.69,10.49-15.54-6.4-23.06-23.17-21.77-47.28L2277.67,2840c-13.42,20.39-34.49,46.9-62.54,41.54-19.26-3.67-34.12-22.61-39.74-50.66a167.56,167.56,0,0,1-2.86-21.51,637.33,637.33,0,0,1-72.37,136c-9.45,13.54-21.42,27.46-38.55,28.08C2061.23,2973.49,2060.85,2973.49,2060.48,2973.49Zm25.32-603.72a48.73,48.73,0,0,0-27.56,9c-15.85,11.08-25.43,29.63-31.26,42.61-19.5,43.41-27.07,91.54-32.34,137.1A1640.51,1640.51,0,0,0,1984,2775.93c30.37-35.46,58.87-72.63,82.6-112.83,34-57.53,71.85-146.35,59.46-242.76-3-23.19-9.59-37.51-20.79-45A34.78,34.78,0,0,0,2085.8,2369.77Z" fill="url(#linear-gradient-8)"/><path d="M2245.35,664.49h738.59a0,0,0,0,1,0,0V1275a16.76,16.76,0,0,1-16.76,16.76H2262.11a16.76,16.76,0,0,1-16.76-16.76V664.49A0,0,0,0,1,2245.35,664.49Z" fill="url(#linear-gradient-9)"/><path d="M2245.35,662.81h738.59a0,0,0,0,1,0,0v534.63a16.76,16.76,0,0,1-16.76,16.76H2262.11a16.76,16.76,0,0,1-16.76-16.76V662.81A0,0,0,0,1,2245.35,662.81Z" fill="url(#linear-gradient-10)"/><rect x="2287.87" y="686.92" width="25.43" height="43.23" fill="url(#linear-gradient-11)"/><rect x="2345.09" y="686.92" width="25.43" height="43.23" fill="url(#linear-gradient-12)"/><rect x="2395.63" y="686.92" width="25.43" height="43.23" fill="url(#linear-gradient-13)"/><rect x="2452.84" y="686.92" width="25.43" height="43.23" fill="url(#linear-gradient-14)"/><rect x="2503.38" y="686.92" width="25.43" height="43.23" fill="url(#linear-gradient-15)"/><rect x="2560.59" y="686.92" width="25.43" height="43.23" fill="url(#linear-gradient-16)"/><rect x="2611.13" y="686.92" width="25.43" height="43.23" fill="url(#linear-gradient-17)"/><rect x="2668.35" y="686.92" width="25.43" height="43.23" fill="url(#linear-gradient-18)"/><rect x="2718.89" y="686.92" width="25.43" height="43.23" fill="url(#linear-gradient-19)"/><rect x="2776.1" y="686.92" width="25.43" height="43.23" fill="url(#linear-gradient-20)"/><rect x="2826.64" y="686.92" width="25.43" height="43.23" fill="url(#linear-gradient-21)"/><rect x="2883.86" y="686.92" width="25.43" height="43.23" fill="url(#linear-gradient-22)"/><rect x="2574.07" y="752.52" width="76.75" height="76.75" fill="#fff"/><rect x="2667.35" y="752.52" width="76.75" height="76.75" fill="#fff"/><rect x="2759.68" y="752.52" width="76.75" height="76.75" fill="#fff"/><rect x="2851.25" y="752.52" width="76.75" height="76.75" fill="#fff"/><rect x="2296.99" y="849.03" width="76.75" height="76.75" fill="#fff"/><rect x="2389.32" y="849.03" width="76.75" height="76.75" fill="#fff"/><rect x="2480.89" y="849.03" width="76.75" height="76.75" fill="#fff"/><rect x="2573.98" y="849.03" width="76.75" height="76.75" fill="#fff"/><rect x="2667.26" y="849.03" width="76.75" height="76.75" fill="#fff"/><rect x="2759.58" y="849.03" width="76.75" height="76.75" fill="#fff"/><rect x="2851.15" y="849.03" width="76.75" height="76.75" fill="#fff"/><rect x="2299.27" y="940.98" width="76.75" height="76.75" fill="#fff"/><rect x="2391.6" y="940.98" width="76.75" height="76.75" fill="#fff"/><rect x="2483.17" y="940.98" width="76.75" height="76.75" fill="url(#linear-gradient-23)"/><rect x="2576.26" y="940.98" width="76.75" height="76.75" fill="#fff"/><rect x="2669.53" y="940.98" width="76.75" height="76.75" fill="#fff"/><rect x="2761.86" y="940.98" width="76.75" height="76.75" fill="#fff"/><rect x="2853.43" y="940.98" width="76.75" height="76.75" fill="#fff"/><rect x="2301.55" y="1031.78" width="76.75" height="76.75" fill="#fff"/><rect x="2393.88" y="1031.78" width="76.75" height="76.75" fill="#fff"/><rect x="2485.45" y="1031.78" width="76.75" height="76.75" fill="#fff"/><rect x="2578.54" y="1031.78" width="76.75" height="76.75" fill="#fff"/><rect x="2671.81" y="1031.78" width="76.75" height="76.75" fill="#fff"/><rect x="2764.14" y="1031.78" width="76.75" height="76.75" fill="#fff"/><rect x="2855.71" y="1031.78" width="76.75" height="76.75" fill="#fff"/><rect x="2301.55" y="1122.39" width="76.75" height="76.75" fill="#fff"/><rect x="2393.88" y="1122.39" width="76.75" height="76.75" fill="#fff"/><rect x="2485.45" y="1122.39" width="76.75" height="76.75" fill="#fff"/><path d="M2338.08,652.51h-32.65a13.71,13.71,0,0,0-13.67,13.67v30.37h9.87V676.81a13.71,13.71,0,0,1,13.67-13.67H2348a13.46,13.46,0,0,1,3.55.49A13.72,13.72,0,0,0,2338.08,652.51Z" fill="url(#linear-gradient-24)"/><path d="M2401.51,652.51h-32.65a13.71,13.71,0,0,0-13.67,13.67v30.37h9.87V676.81a13.71,13.71,0,0,1,13.67-13.67h32.65a13.39,13.39,0,0,1,3.54.49A13.71,13.71,0,0,0,2401.51,652.51Z" fill="url(#linear-gradient-25)"/><path d="M2454.22,652.51h-32.64a13.71,13.71,0,0,0-13.67,13.67v30.37h9.87V676.81a13.71,13.71,0,0,1,13.67-13.67h32.64a13.4,13.4,0,0,1,3.55.49A13.71,13.71,0,0,0,2454.22,652.51Z" fill="url(#linear-gradient-26)"/><path d="M2508.53,652.51h-32.65a13.71,13.71,0,0,0-13.66,13.67v30.37h9.87V676.81a13.71,13.71,0,0,1,13.67-13.67h32.64a13.4,13.4,0,0,1,3.55.49A13.71,13.71,0,0,0,2508.53,652.51Z" fill="url(#linear-gradient-27)"/><path d="M2558.74,652.51h-32.65a13.71,13.71,0,0,0-13.67,13.67v30.37h9.87V676.81A13.71,13.71,0,0,1,2536,663.14h32.65a13.46,13.46,0,0,1,3.55.49A13.72,13.72,0,0,0,2558.74,652.51Z" fill="url(#linear-gradient-28)"/><path d="M2613.05,652.51H2580.4a13.71,13.71,0,0,0-13.67,13.67v30.37h9.87V676.81a13.71,13.71,0,0,1,13.67-13.67h32.65a13.46,13.46,0,0,1,3.55.49A13.72,13.72,0,0,0,2613.05,652.51Z" fill="url(#linear-gradient-29)"/><path d="M2665.77,652.51h-32.65a13.71,13.71,0,0,0-13.67,13.67v30.37h9.87V676.81A13.71,13.71,0,0,1,2643,663.14h32.65a13.46,13.46,0,0,1,3.55.49A13.72,13.72,0,0,0,2665.77,652.51Z" fill="url(#linear-gradient-30)"/><path d="M2724.64,652.51H2692a13.71,13.71,0,0,0-13.67,13.67v30.37h9.87V676.81a13.71,13.71,0,0,1,13.67-13.67h32.65a13.39,13.39,0,0,1,3.54.49A13.71,13.71,0,0,0,2724.64,652.51Z" fill="url(#linear-gradient-31)"/><path d="M2775.4,652h-32.65a13.71,13.71,0,0,0-13.67,13.66v30.37H2739V676.32a13.71,13.71,0,0,1,13.67-13.66h32.65a13.46,13.46,0,0,1,3.55.48A13.72,13.72,0,0,0,2775.4,652Z" fill="url(#linear-gradient-32)"/><path d="M2828.12,652h-32.65a13.71,13.71,0,0,0-13.67,13.66v30.37h9.87V676.32a13.71,13.71,0,0,1,13.67-13.66H2838a13.38,13.38,0,0,1,3.54.48A13.7,13.7,0,0,0,2828.12,652Z" fill="url(#linear-gradient-33)"/><path d="M2932.52,653.26h-32.65a13.71,13.71,0,0,0-13.66,13.67V697.3h9.87V677.56a13.71,13.71,0,0,1,13.66-13.67h32.65a13.4,13.4,0,0,1,3.55.49A13.71,13.71,0,0,0,2932.52,653.26Z" fill="url(#linear-gradient-34)"/><path d="M2887,652h-32.65a13.71,13.71,0,0,0-13.67,13.66v30.37h9.87V676.32a13.71,13.71,0,0,1,13.67-13.66h32.65a13.38,13.38,0,0,1,3.54.48A13.7,13.7,0,0,0,2887,652Z" fill="url(#linear-gradient-35)"/><g opacity="0.3"><path d="M3086.77,1453.11c-20.12,64-57.77,87.56-88.39,77.94-31.3-9.85-46.48-50.55-28.46-109,18.06-57.45,54.38-87.6,88.78-76.78C3094.13,1356.37,3104,1398.47,3086.77,1453.11ZM2959,1658.77l228.39-273.08,24.08,7.57-228.39,273.08Zm43.87-228.46c-11.36,34.92-10.15,63.53,6.71,68.83s32.74-16.39,44.35-53.29c10.57-33.63,12.21-62.88-6-68.61C3030.68,1371.83,3013.56,1396.21,3002.84,1430.31Zm198.38,197.37c-20,63.52-57.43,87.67-88.39,77.93s-46.47-50.54-28-109.39c17.92-57,54.39-87.6,88.44-76.89C3208.74,1530.48,3218.41,1573,3201.22,1627.68Zm-83.92-22.8c-11.22,34.45-10.16,63.53,6.7,68.83,17.2,5.41,32.75-16.39,44.35-53.28,10.72-34.1,12.22-62.89-6-68.62C3145.14,1546.4,3128,1570.79,3117.3,1604.88Z" fill="#727272"/><path d="M2849.71,1531.61h-38.09v-31h38.09v-55.93h29.54v55.93h38.09v31h-38.09v55.18h-29.54Z" fill="#727272"/></g><path d="M1544.4,3240.1a11,11,0,0,0-.28-2.84c-14.15-56.09-84.38-91-84.38-91l-27.82,2.18c-16,49.44-14,79.76-11.38,93.27.07.37.19.73.29,1.1C1443.78,3244.83,1491,3246.17,1544.4,3240.1Z" fill="url(#linear-gradient-36)"/><path d="M1420.83,3242.78a12.08,12.08,0,0,0,8.83,8.92c32.65,6.86,84.55,1.34,106.34-1.51,4.81-.63,8.32-5.07,8.4-10.09C1491,3246.17,1443.78,3244.83,1420.83,3242.78Z" fill="url(#linear-gradient-37)"/><path d="M1420.73,3107l11.78,56.74a9.27,9.27,0,0,0,7.93,7.63,78.14,78.14,0,0,0,18.26-.29c6.08-.89,10.31-7.07,9.24-13.7l-8.2-50.38Z" fill="url(#linear-gradient-38)"/><path d="M1664.92,3242.06c-30.74-.86-46.63-4.48-54.85-7.84,0,3.06,0,6.17.1,9.39.1,3.44,2.65,6.19,5.79,6.17l168.74-1.09c5.38,0,8.53-6.28,6.2-11.22C1768.77,3239.3,1712.42,3243.39,1664.92,3242.06Z" fill="url(#linear-gradient-39)"/><path d="M1790.9,3237.47a8.6,8.6,0,0,0-.67-1.27c-14.9-20.82-52.86-62.28-127.86-80.27l-36-1.13s-16,27.84-16.32,79.42c8.22,3.36,24.11,7,54.85,7.84C1712.42,3243.39,1768.77,3239.3,1790.9,3237.47Z" fill="url(#linear-gradient-40)"/><path d="M1618.12,3101.94c.57,2.65,8.05,43,11,58.68a7.83,7.83,0,0,0,7,6.64c6.16.34,16.1.38,24.64-1.94,4.61-1.25,7.71-6,7.38-11.16l-4-63.86Z" fill="url(#linear-gradient-41)"/><path d="M1590.86,2356.55s49.49,340.1,85.21,744.81c.66,7.54-5.34,14.1-12.75,15.66-10.91,2.3-27,5-40.23,4.65a14.9,14.9,0,0,1-14.2-12.44c-12.17-71.36-99-454.32-121.78-538.61,0,0-26.18,358-17.81,543.78a8.81,8.81,0,0,1-7.77,9.15,147.33,147.33,0,0,1-32.29-.09,11.78,11.78,0,0,1-10.5-10c-8.67-60.39-58.55-419.86-56.43-678.81.12-14.6,17.13-134.58,17.13-134.58Z" fill="url(#linear-gradient-42)"/><path d="M2015.1,2031.4s-13.85-36.47-30-33.13-33.89,15.77-33.89,15.77l-26,35.16s73,28.75,98.65,12.28c0,0,74.55,12.88,168.69-2.57-13.63-28.77-21.75-57.58-26.52-79.93C2118.32,2006,2067,2026.12,2015.1,2031.4Z" fill="url(#linear-gradient-43)"/><path d="M2410,1766.85S2303.26,1901.28,2166,1979c4.77,22.35,12.89,51.16,26.52,79.93,71.2-11.68,153.61-39.57,223.47-101.53Z" fill="url(#linear-gradient-44)"/><path d="M1610,1784.63l6.62,178a488.08,488.08,0,0,0,53.8,15.28c10.68-34.36,34.18-76.54,53.42-107.89C1653.18,1845,1610,1784.63,1610,1784.63Z" fill="url(#linear-gradient-45)"/><path d="M1963,1781.6c-97,104.72-175.5,110.88-239.16,88.38-19.24,31.35-42.74,73.53-53.42,107.89,259,57.1,320-181,320-181Z" fill="url(#linear-gradient-46)"/><path d="M1982.71,1770.48s11.17-12,31.85-8.23,39.08,11,52,0,17.42,3.75,17.42,3.75l-38.58,29.32Z" fill="url(#linear-gradient-47)"/><path d="M1959.63,1791s7.66-32,30.73-27.63,75.44,32.87,88.94,27.63,30.75-17.81,39.61-13.37l-15.6,19.39s40.1-23.13,47-8.92l-66.72,37.55S1986,1815.86,1959.63,1791Z" fill="url(#linear-gradient-48)"/><path d="M1372,2376.16a14,14,0,0,1-9.19-11.8c-6.58-63.85-38.45-459.77,162.74-622.64,0,0,11.54-30.19,106.37,44s44.06,152,21.36,259.26c-27.48,129.81-75.68,235.92-54.35,315.81a11.07,11.07,0,0,1-6.78,13.27C1518.48,2401.23,1445.09,2402.13,1372,2376.16Z" fill="url(#linear-gradient-49)"/><path d="M1604,1623.09c-.07,5.64-80.4,119.75-80.4,119.75s14.42,28.4,83.26,51.45l59.42-122.17Z" fill="url(#linear-gradient-50)"/><path d="M1572.43,2014.87s152.42,127.65,317,72a39.14,39.14,0,0,1,30.9,2.33l47.32,25a42.24,42.24,0,0,0,56-15.68c6.57-11,12.18-23.55,13.3-35.59l-92.59-37.48,6.83-11.35s-45.21-3.83-57,28.57c0,0-86.1,35.81-231.31-123.9C1662.83,1918.71,1596.94,1974.73,1572.43,2014.87Z" fill="url(#linear-gradient-51)"/><path d="M1564.23,2013.55a2.64,2.64,0,0,1-1.46-.45c-64.18-43.36-94.37-113.35-94.66-114a2.61,2.61,0,1,1,4.8-2c.29.69,29.92,69.29,92.78,111.77a2.61,2.61,0,0,1-1.46,4.77Z" fill="url(#linear-gradient-52)"/><path d="M1659.82,1916.54a2.6,2.6,0,0,1-2.19-1.2c-.2-.3-19.8-30.82-57.15-97.69-11.48-20.56-26.57-33.58-44.85-38.69-30.28-8.46-59.45,7.77-59.74,7.93a2.61,2.61,0,1,1-2.58-4.53c1.26-.72,31.27-17.51,63.68-8.44,19.69,5.49,35.86,19.35,48,41.19,37.25,66.7,56.78,97.11,57,97.41a2.59,2.59,0,0,1-.77,3.6A2.55,2.55,0,0,1,1659.82,1916.54Z" fill="url(#linear-gradient-53)"/><path d="M1667.28,1557.71s28.58,65.66,30.5,100.13,9.35,56.83-30.5,63.77-73.42-12.91-91.61-47.25c0,0-28.5-52.9-22.1-74.56S1667.28,1557.71,1667.28,1557.71Z" fill="url(#linear-gradient-54)"/><path d="M1589.29,1649.68l2.27-1a5.47,5.47,0,0,0,2.67-7.51c-5.62-10.86-16.58-35.74-2.42-41.55,18.24-7.48,90.48-22.21,106.07-47.85,15-24.63,1.71-56.44-18.24-65.48a2.75,2.75,0,0,0-3.6,1.17l-1.66,3.14a2.7,2.7,0,0,1-5-.51h0a2.7,2.7,0,0,0-4.88-.7c-4.79,7.67-17.73,20.11-52.32,26.49-49.16,9.07-81.67,29-82.48,62.94a2.71,2.71,0,0,1-4.19,2.24c-3.63-2.22-9.44-3.25-17.2,3.27-13.5,11.36-8,40.81,21.62,65a2.69,2.69,0,0,1-.13,4.34c-5.36,3.49-13.36,11.8,7.37,22.88,21.43,11.46,37.44,10.52,43.61,9.51a2.7,2.7,0,0,0,2.18-3.26L1576.4,1653a2.7,2.7,0,0,1,2.64-3.29Z" fill="url(#linear-gradient-55)"/><path d="M1590.53,1656s-10.91-41.94-29.72-30.18,9.76,47,24.88,48.56Z" fill="url(#linear-gradient-56)"/><path d="M1920.34,2089.15s38.73,37.88,46.21,32.37c2.66-2,9.37-9.09,15.88-17a16.62,16.62,0,0,0,1.13-19.59l-9.14-14.1a26.4,26.4,0,0,0-39.41-5.74C1928.92,2070.36,1923.39,2078,1920.34,2089.15Z" fill="url(#linear-gradient-57)"/><path d="M2543.1,2362.69c-20.87-99.15-41.75-156.55-111.64-344.48-22-59.14-42-119-32.31-181.33l10.84-70s135.83-46,286.38-1.94c0,0,205.41,89.24,65.89,529.94C2699.38,2365.21,2625.78,2385.26,2543.1,2362.69Z" fill="url(#linear-gradient-58)"/><path d="M2433.11,1677.47l35.22,84.61a16.88,16.88,0,0,0,12.74,10.13c20.31,3.48,69.42,8.92,101.67-12.28a8.2,8.2,0,0,0,2.19-11.53L2519.86,1655Z" fill="url(#linear-gradient-59)"/><path d="M2520,2075.11a7.82,7.82,0,0,0-4.94,11.17l101.89,195.38a7.82,7.82,0,0,0,9.1,3.9l333.29-96.23a7.84,7.84,0,0,0,5.35-9.69l-57.42-198.75a7.81,7.81,0,0,0-9.5-5.39Z" fill="url(#linear-gradient-60)"/><path d="M2541.48,2052.15a8.19,8.19,0,0,0-5.79,10.79l81.56,221.55a8.2,8.2,0,0,0,10,5l332.28-95.94a8.17,8.17,0,0,0,5.73-9.59l-46-213.24a8.18,8.18,0,0,0-9.9-6.23Z" fill="url(#linear-gradient-61)"/><path d="M2570.42,2029.79a10.11,10.11,0,0,0-8.34,12.28l55.4,239.18a10.11,10.11,0,0,0,12.66,7.43l327.25-94.48a10.12,10.12,0,0,0,7-12.25l-50.32-195.23a10.12,10.12,0,0,0-11.32-7.48Z" fill="url(#linear-gradient-62)"/><path d="M2835.32,2121c25.4-191.86-122.45-339.39-122.45-339.39l-88,102.55c66.79,83.25,98.54,159.54,113,219.46C2757.17,2098,2803.48,2089.16,2835.32,2121Z" fill="url(#linear-gradient-63)"/><path d="M2737.93,2109.05a5.44,5.44,0,0,1-5.29-4.16c-17.88-73.86-55.56-147-112-217.33a5.45,5.45,0,1,1,8.49-6.82c57.45,71.61,95.83,146.16,114.09,221.58a5.45,5.45,0,0,1-4,6.58A5.22,5.22,0,0,1,2737.93,2109.05Z" fill="url(#linear-gradient-64)"/><path d="M2737.93,2103.61c13.48,55.69,12.07,97.23,10,117.07a15.47,15.47,0,0,1-14.29,13.85c-8.52.59-20.11,1.37-30.47,2-11.4.66-24-6.54-32.49-12.56a5.09,5.09,0,0,0-7.49,6.43c6.31,12.35,22.32,23.33,33.36,29.8a5.27,5.27,0,0,1-1.21,9.62l-47.21,13.38c77.56,73.07,128.77-8.69,128.77-8.69,34.24-52.9,51.94-104.63,58.4-153.49C2803.48,2089.16,2757.17,2098,2737.93,2103.61Z" fill="url(#linear-gradient-65)"/><path d="M2469.53,1548c-1.47,1.39-62.42,121.08-62.42,121.08l69.08,33.35,74.61-104.86S2494.3,1524.7,2469.53,1548Z" fill="url(#linear-gradient-66)"/><path d="M2519.41,1610.16,2485,1667.59a10.77,10.77,0,0,1-1.89,2.36c-4.1,3.81-18.13,14.92-29-.2-9.25-12.89-17.92-24.6-27.22-29.43a11,11,0,0,0-14.86,4.89c-5.68,11.25-16.67,34.19-23.58,55.93a11,11,0,0,0,6.38,13.45c14,5.67,41.64,15.92,66.17,19.3a11,11,0,0,0,10.41-4.42c10.56-14.46,40.3-54.87,50.46-65,9.43-9.4,26.84-5.86,34.68-3.6a11.09,11.09,0,0,0,8.8-1.16c8-4.79,21.85-16.73,9.15-36.94a11,11,0,0,1,3.41-15c8.88-5.84,18.52-16.81,9.34-34.58-9.3-18-25.91-19.6-37.22-18.22a11.43,11.43,0,0,1-12-6.68,7.29,7.29,0,0,0-5.69-4.47,10.69,10.69,0,0,1-8.65-12.56c2-10.18.49-23.4-15.76-32.34-29.81-16.38-55.92,10.32-62.55,32.86s26.68,38.47,47.64,41.12c15.4,2,23.84,18.76,27.24,27.55A11,11,0,0,1,2519.41,1610.16Z" fill="url(#linear-gradient-67)"/><path d="M2508.91,1685.58s13.25-38.78,30.22-37.36,30.31,18.33,9.29,37.33C2522.26,1709.18,2508.91,1685.58,2508.91,1685.58Z" fill="url(#linear-gradient-68)"/><path d="M2529.73,3236.48c32.8,2.83,89.74,7.44,134.62,9.41,27,1.19,42.51-1.45,51.46-5,0,1,0,2-.08,2.84a9.28,9.28,0,0,1-8.82,8.77,1576,1576,0,0,1-176.28.18,6.61,6.61,0,0,1-5.38-9.93A53.83,53.83,0,0,1,2529.73,3236.48Z" fill="url(#linear-gradient-69)"/><path d="M2664.35,3245.89c-44.88-2-101.82-6.58-134.62-9.41,32.25-39.57,134.62-66.24,134.62-66.24h28.91c19.89,28.66,22.77,56,22.55,70.62C2706.86,3244.44,2691.33,3247.08,2664.35,3245.89Z" fill="url(#linear-gradient-70)"/><path d="M2698.13,3123l-2.7,53.55a12.25,12.25,0,0,1-10.44,11.5,47.66,47.66,0,0,1-21.72-1.8,14.48,14.48,0,0,1-9.73-11.12l-9.35-52.13Z" fill="url(#linear-gradient-71)"/><path d="M3073.67,3245.49c14.22-2,20.66-9.37,23.36-17.27a1.6,1.6,0,0,0,0,.21c2.09,8.33-2.76,17-12.46,21.08-11.73,5-24.54,5.81-34.5,5.4-10.67-.44-20.47-4.86-25.86-11.93l-.08-.11C3034.9,3248.18,3049.94,3248.8,3073.67,3245.49Z" fill="url(#linear-gradient-72)"/><path d="M3006.59,3122.69h23.85c36.31-.74,59.12,75.86,66.59,105.53-2.7,7.9-9.14,15.29-23.36,17.27-23.73,3.31-38.77,2.69-49.49-2.62-19.62-25.82-29.35-63.63-34-85.7C2984.83,3132.07,3006.59,3122.69,3006.59,3122.69Z" fill="url(#linear-gradient-73)"/><path d="M3027.37,3073l13.24,52.66a14.31,14.31,0,0,1-7.44,16.2c-7.4,3.8-17.83,7.79-27.41,6.63a11.92,11.92,0,0,1-9.74-8l-19.44-55.4Z" fill="url(#linear-gradient-74)"/><path d="M3043.16,3088.22c-16.47,14.61-70,16.54-70,16.54-193-463.22-273.46-590.75-273.46-590.75,27.86,174.85,6,623.64,6,623.64-31.85,14-72.91,0-72.91,0-2.58-286.24-42.89-593.82-94.86-790.62,130.45-2.93,201.34-31.37,224-49.28C2870.61,2473.05,3043.16,3088.22,3043.16,3088.22Z" fill="url(#linear-gradient-75)"/><path d="M1955,802.16c61,103.14,26.83,236.21-76.32,297.2A216.87,216.87,0,0,1,1581.42,1023c-61-103.15-26.82-236.21,76.33-297.21A217,217,0,0,1,1955,802.16Z" fill="#f0cd00"/><path d="M1955,802.16c59.63,100.82,28.33,230.22-69.44,293-102.09,55.45-230.56,20.52-290.18-80.3s-28.33-230.22,69.44-293C1766.86,666.41,1895.33,701.33,1955,802.16Z" fill="#ffde50"/><path d="M1813.35,700.39l-107.84,419.93a217.68,217.68,0,0,1-42.52-17.91l104.48-406.82A217.14,217.14,0,0,1,1813.35,700.39Z" fill="#ffea94"/><path d="M1901.69,741.49l-99,385.38a216.4,216.4,0,0,1-63.35.79l107.19-417.4A216.24,216.24,0,0,1,1901.69,741.49Z" fill="#ffea94"/><path d="M1913.32,826.78a168.6,168.6,0,0,1-289.19,173.41c-.37-.58-.72-1.18-1.07-1.77a168.6,168.6,0,0,1,59.31-230.95c.59-.35,1.19-.71,1.8-1a168.54,168.54,0,0,1,229.15,60.35Z" fill="#faa300"/><path d="M1810.12,749.3l-83.87,326.6a168,168,0,0,1-102.12-75.71c-.37-.58-.72-1.18-1.07-1.77a168.6,168.6,0,0,1,59.31-230.95c.59-.35,1.19-.71,1.8-1a168.25,168.25,0,0,1,125.95-17.13Z" fill="#ffbd00"/><path d="M1913.31,826.78a168.61,168.61,0,0,1-59.3,231c-2.76,1.63-5.53,3.16-8.33,4.62a168.61,168.61,0,0,0-171.38-289.8q3.95-2.64,8.06-5.08A168.61,168.61,0,0,1,1913.31,826.78Z" fill="#f68e00"/><path d="M1799.56,834.06l-25.41,15a71.18,71.18,0,0,0-16-12.06l32-18.92a17.72,17.72,0,0,0-18-30.5L1686.9,838l-58.84,34.79a17.71,17.71,0,0,0,18,30.49l58.84-34.79a36.28,36.28,0,0,1,36.64-.14l-86,50.89a17.71,17.71,0,0,0,18,30.49l86.06-50.88a36.28,36.28,0,0,1-17.78,32L1683,965.69a17.71,17.71,0,0,0,4.1,32.26l135,39a17.72,17.72,0,0,0,9.83-34l-95.55-27.59,23.53-13.92a71.78,71.78,0,0,0,32.32-81.8l25.42-15a17.71,17.71,0,1,0-18-30.49Z" fill="#f68e00"/><path d="M1818.62,822.79l-25.41,15a71.18,71.18,0,0,0-16-12.06l32-18.92a17.72,17.72,0,0,0-18-30.5L1706,826.72l-58.84,34.8a17.71,17.71,0,1,0,18,30.49L1724,857.22a36.28,36.28,0,0,1,36.64-.14L1674.58,908a17.71,17.71,0,0,0,18,30.49l86.05-50.88a36.25,36.25,0,0,1-17.77,32l-58.84,34.8a17.71,17.71,0,0,0,4.1,32.26l135,39a17.72,17.72,0,0,0,9.83-34L1755.39,964l23.53-13.92a71.79,71.79,0,0,0,32.32-81.8l25.42-15a17.71,17.71,0,1,0-18-30.49Z" fill="#ffea94"/><path d="M1571.07,1082.45a134.28,134.28,0,1,1-87.49-62.88A134.07,134.07,0,0,1,1571.07,1082.45Z" fill="#f0cd00"/><path d="M1571.07,1082.45a129.16,129.16,0,1,1-179.29-49.62A134.06,134.06,0,0,1,1571.07,1082.45Z" fill="#ffde50"/><path d="M1483.58,1019.57,1416.94,1279a135,135,0,0,1-26.27-11.07l64.56-251.36A134.12,134.12,0,0,1,1483.58,1019.57Z" fill="#ffea94"/><path d="M1538.16,1045,1477,1283.08a133.79,133.79,0,0,1-39.14.49l66.23-257.9A133.43,133.43,0,0,1,1538.16,1045Z" fill="#ffea94"/><path d="M1545.34,1097.66a104.15,104.15,0,0,1-115.58,153.93,105.5,105.5,0,0,1-16.85-5.89,103.65,103.65,0,0,1-46.25-40.89l-.66-1.09a104.18,104.18,0,0,1,36.65-142.7c.36-.22.74-.44,1.11-.64a104.14,104.14,0,0,1,141.58,37.28Z" fill="#faa300"/><path d="M1481.58,1049.79l-51.82,201.8a105.5,105.5,0,0,1-16.85-5.89,103.65,103.65,0,0,1-46.25-40.89l-.66-1.09a104.18,104.18,0,0,1,36.65-142.7c.36-.22.74-.44,1.11-.64a104,104,0,0,1,77.82-10.59Z" fill="#ffbd00"/><path d="M1545.34,1097.67a104.17,104.17,0,0,1-36.64,142.69q-2.55,1.52-5.15,2.86a104.18,104.18,0,0,0-105.89-179.06c1.63-1.09,3.28-2.13,5-3.14A104.18,104.18,0,0,1,1545.34,1097.67Z" fill="#f68e00"/><path d="M1475.06,1102.16l-15.7,9.29a44.24,44.24,0,0,0-9.91-7.45l19.78-11.69a10.94,10.94,0,0,0-11.14-18.84l-52.64,31.13-36.36,21.49a10.95,10.95,0,0,0,11.14,18.85l36.36-21.5a22.4,22.4,0,0,1,22.64-.09l-53.17,31.44a10.94,10.94,0,1,0,11.14,18.84l53.17-31.44a22.39,22.39,0,0,1-11,19.8l-36.36,21.5a11,11,0,0,0,2.54,19.94l83.38,24.08a10.95,10.95,0,0,0,6.08-21l-59-17,14.54-8.6a44.36,44.36,0,0,0,20-50.54l15.7-9.28a10.95,10.95,0,0,0-11.14-18.85Z" fill="#f68e00"/><path d="M1486.83,1095.2l-15.7,9.29a43.89,43.89,0,0,0-9.9-7.45l19.77-11.7a10.94,10.94,0,0,0-11.14-18.84l-52.64,31.13-36.35,21.5A10.94,10.94,0,1,0,1392,1138l36.35-21.5a22.42,22.42,0,0,1,22.64-.08l-53.16,31.44a10.94,10.94,0,1,0,11.14,18.84l53.17-31.44a22.44,22.44,0,0,1-11,19.8l-36.35,21.5a10.94,10.94,0,0,0,2.53,19.93l83.39,24.09a10.94,10.94,0,0,0,6.07-21l-59-17,14.54-8.6a44.37,44.37,0,0,0,20-50.54L1498,1114a10.95,10.95,0,1,0-11.15-18.84Z" fill="#ffea94"/><path d="M2254.55,1311c14.77,123.2-73.13,235.06-196.34,249.83a224.59,224.59,0,0,1-249.83-196.34c-14.77-123.21,73.13-235.07,196.34-249.84A224.72,224.72,0,0,1,2254.55,1311Z" fill="#f0cd00"/><path d="M2254.55,1311c14.44,120.43-69.21,230-188.05,248.68-119.89,9.95-227.08-76.75-241.51-197.18s69.21-230,188-248.69C2132.93,1103.83,2240.11,1190.53,2254.55,1311Z" fill="#ffde50"/><path d="M2162.81,1155.42l-277.42,353a225.38,225.38,0,0,1-32.82-34.72l268.75-342A225,225,0,0,1,2162.81,1155.42Z" fill="#ffea94"/><path d="M2229.39,1231.24l-254.59,324a224.69,224.69,0,0,1-60.38-25.68l275.75-350.87A224.13,224.13,0,0,1,2229.39,1231.24Z" fill="#ffea94"/><path d="M2204.82,1316.92a174.59,174.59,0,0,1-346.43,43.69c-.11-.71-.19-1.42-.28-2.13a174.59,174.59,0,0,1,152.57-194.13c.71-.09,1.43-.17,2.14-.24a174.54,174.54,0,0,1,192,152.81Z" fill="#faa300"/><path d="M2139.34,1200.43,1923.58,1475a175.13,175.13,0,0,1-21.86-20.42,173.71,173.71,0,0,1-43.33-93.94c-.11-.71-.19-1.42-.28-2.13a174.59,174.59,0,0,1,152.57-194.13c.71-.09,1.43-.17,2.14-.24a174.14,174.14,0,0,1,126.52,36.32Z" fill="#ffbd00"/><path d="M2204.81,1316.92a174.58,174.58,0,0,1-152.57,194.13c-3.28.4-6.56.7-9.82.91a174.6,174.6,0,0,0-41.5-346.16c3.22-.57,6.47-1.06,9.76-1.45A174.59,174.59,0,0,1,2204.81,1316.92Z" fill="#f68e00"/><path d="M2094,1276.36l-30.36,3.64a73.77,73.77,0,0,0-10.16-18.12l38.24-4.58a18.34,18.34,0,0,0-4.37-36.42l-101.77,12.2-70.29,8.42a18.35,18.35,0,0,0,4.37,36.43l70.29-8.43a37.56,37.56,0,0,1,34.78,15.16L1921.92,1297a18.34,18.34,0,0,0,4.36,36.42l102.79-12.32a37.57,37.57,0,0,1-30.22,23l-70.28,8.43a18.35,18.35,0,0,0-9.58,32.29L2030.64,1478a18.34,18.34,0,0,0,23.51-28.16l-79-66,28.11-3.37a74.35,74.35,0,0,0,64.76-64l30.36-3.64a18.34,18.34,0,0,0-4.37-36.42Z" fill="#f68e00"/><path d="M2116.73,1273.63l-30.35,3.64a73.52,73.52,0,0,0-10.16-18.11l38.23-4.59a18.34,18.34,0,1,0-4.37-36.42l-101.76,12.2-70.29,8.43a18.34,18.34,0,1,0,4.37,36.42l70.28-8.43a37.58,37.58,0,0,1,34.79,15.16l-102.79,12.33a18.34,18.34,0,1,0,4.37,36.42l102.78-12.32a37.54,37.54,0,0,1-30.21,23l-70.29,8.43a18.34,18.34,0,0,0-9.57,32.29l111.64,93.25a18.35,18.35,0,0,0,23.52-28.16l-79-66,28.11-3.37a74.34,74.34,0,0,0,64.76-64l30.35-3.64a18.34,18.34,0,1,0-4.37-36.42Z" fill="#ffea94"/><path d="M2382.27,924a162.5,162.5,0,1,1-87.2-96.85A162.16,162.16,0,0,1,2382.27,924Z" fill="#f0cd00"/><path d="M2382.27,924a156.23,156.23,0,1,1-199.1-104.84A162.15,162.15,0,0,1,2382.27,924Z" fill="#ffde50"/><path d="M2295.07,827.17l-145.6,289.45a162.58,162.58,0,0,1-28.2-19.85l141.06-280.41A161.33,161.33,0,0,1,2295.07,827.17Z" fill="#ffea94"/><path d="M2353,871.25l-133.63,265.63a162,162,0,0,1-46.38-9.5l144.73-287.71A161.71,161.71,0,0,1,2353,871.25Z" fill="#ffea94"/><path d="M2347.94,935.37A126,126,0,0,1,2109.17,1016l-.5-1.47a126,126,0,0,1,80.08-159.19l1.48-.47a125.34,125.34,0,0,1,74.66-.48,126.52,126.52,0,0,1,44.55,24.16A125.42,125.42,0,0,1,2347.94,935.37Z" fill="#faa300"/><path d="M2284.93,862.36l-113.25,225.13a126.78,126.78,0,0,1-18.39-11.31,125.53,125.53,0,0,1-44.12-60.23l-.5-1.47a126,126,0,0,1,80.08-159.19l1.48-.47a125.34,125.34,0,0,1,74.66-.48A126.76,126.76,0,0,1,2284.93,862.36Z" fill="#ffbd00"/><path d="M2347.94,935.37a126,126,0,0,1-80.08,159.19q-3.41,1.13-6.82,2a126,126,0,0,0-79-238.89q3.29-1.31,6.69-2.43A126,126,0,0,1,2347.94,935.37Z" fill="#f68e00"/><path d="M2263.72,922.58l-20.95,6.92a53.36,53.36,0,0,0-9.78-11.35l26.38-8.73a13.23,13.23,0,1,0-8.31-25.13l-70.23,23.22-48.5,16a13.23,13.23,0,1,0,8.31,25.13l48.5-16a27.09,27.09,0,0,1,26.78,5.73L2145,961.84A13.23,13.23,0,1,0,2153.3,987l70.93-23.45a27.11,27.11,0,0,1-18.08,20.57l-48.5,16a13.25,13.25,0,0,0-2.15,24.22l92.34,50a13.24,13.24,0,0,0,12.6-23.29l-65.38-35.36,19.4-6.42a53.65,53.65,0,0,0,36.62-54.58l21-6.93a13.23,13.23,0,1,0-8.31-25.13Z" fill="#f68e00"/><path d="M2279.43,917.38l-20.95,6.93A53.41,53.41,0,0,0,2248.7,913l26.39-8.72a13.24,13.24,0,0,0-8.32-25.14l-70.23,23.22-48.5,16a13.24,13.24,0,1,0,8.31,25.14l48.5-16a27.12,27.12,0,0,1,26.78,5.74l-70.93,23.45a13.24,13.24,0,1,0,8.31,25.14l70.93-23.46a27.11,27.11,0,0,1-18.08,20.57l-48.5,16a13.24,13.24,0,0,0-2.15,24.21l92.34,49.95a13.24,13.24,0,0,0,12.6-23.29l-65.37-35.36,19.39-6.41a53.67,53.67,0,0,0,36.63-54.59l20.95-6.92a13.24,13.24,0,1,0-8.32-25.14Z" fill="#ffea94"/></g></svg>