<svg id="Layer_1" data-name="Layer 1" xmlns="http://www.w3.org/2000/svg" viewBox="0 0 390.14 349.7"><g id="Background_Complete" data-name="Background Complete"><polygon points="380.25 299.89 380.25 253.07 376.25 253.07 376.25 230.77 370.39 230.77 370.39 153.2 361.93 153.2 361.93 143.19 343.87 134.77 343.87 124.67 341.37 124.67 341.37 153.2 337.87 153.2 337.87 230.77 334.36 230.77 334.36 189.98 324.86 189.98 324.86 168.96 322.2 168.96 322.2 230.77 314.98 230.77 314.98 207.24 310.23 207.24 310.23 201.24 299.22 201.24 299.22 180.72 293.19 180.72 293.19 166.21 285.78 166.21 285.78 145.07 283.13 145.07 283.13 166.21 275.72 166.21 275.72 180.72 269.69 180.72 269.69 201.24 258.68 201.24 258.68 207.24 253.93 207.24 253.93 230.77 248.29 230.77 248.29 201.24 237.28 201.24 237.28 137.69 233.78 137.69 233.78 130.68 210.26 130.68 210.26 137.69 205.25 137.69 205.25 183.72 185.24 183.72 185.24 188.23 177.73 188.23 177.73 191.73 185.24 191.73 185.24 209.75 164.22 209.75 164.22 149.7 159.71 149.7 159.71 136.94 149.96 136.94 149.96 91.65 147.2 91.65 147.2 136.94 140.2 136.94 140.2 149.7 99.12 149.7 99.12 145.5 96.62 145.5 96.62 174.02 93.12 174.02 93.12 174.52 91.01 174.52 91.01 203.04 87.51 203.04 87.51 210.8 80.11 210.8 80.11 189.78 77.46 189.78 77.46 239.83 74.5 239.83 74.5 218.81 71.85 218.81 71.85 251.59 70.23 251.59 70.23 228.07 65.48 228.07 65.48 222.06 54.47 222.06 54.47 201.54 48.44 201.54 48.44 187.03 41.03 187.03 41.03 165.89 38.39 165.89 38.39 187.03 30.97 187.03 30.97 201.54 24.94 201.54 24.94 222.06 13.94 222.06 13.94 228.07 9.18 228.07 9.18 251.09 8.33 251.09 8.33 251.59 5.97 251.59 5.97 299.89 380.25 299.89" fill="#e6e6e6" opacity="0.3" style="isolation:isolate"/><g opacity="0.3"><rect x="122.04" y="152.5" width="2.84" height="2.84" fill="#afafaf"/><rect x="122.04" y="157.26" width="2.84" height="2.84" fill="#afafaf"/><rect x="122.04" y="176.27" width="2.84" height="2.84" fill="#afafaf"/><rect x="122.04" y="181.03" width="2.84" height="2.84" fill="#afafaf"/><rect x="122.04" y="185.78" width="2.84" height="2.84" fill="#afafaf"/><rect x="122.04" y="200.04" width="2.84" height="2.84" fill="#afafaf"/><rect x="122.04" y="204.8" width="2.84" height="2.84" fill="#afafaf"/><rect x="126.55" y="171.52" width="2.84" height="2.84" fill="#afafaf"/><rect x="126.55" y="176.27" width="2.84" height="2.84" fill="#afafaf"/><rect x="126.55" y="181.03" width="2.84" height="2.84" fill="#afafaf"/><rect x="126.55" y="185.78" width="2.84" height="2.84" fill="#afafaf"/><rect x="126.55" y="190.53" width="2.84" height="2.84" fill="#afafaf"/><rect x="126.55" y="200.04" width="2.84" height="2.84" fill="#afafaf"/><rect x="126.55" y="204.8" width="2.84" height="2.84" fill="#afafaf"/><rect x="131.05" y="152.5" width="2.84" height="2.84" fill="#afafaf"/><rect x="131.05" y="157.26" width="2.84" height="2.84" fill="#afafaf"/><rect x="131.05" y="162.01" width="2.84" height="2.84" fill="#afafaf"/><rect x="131.05" y="166.76" width="2.84" height="2.84" fill="#afafaf"/><rect x="131.05" y="171.52" width="2.84" height="2.84" fill="#afafaf"/><rect x="131.05" y="176.27" width="2.84" height="2.84" fill="#afafaf"/><rect x="131.05" y="181.03" width="2.84" height="2.84" fill="#afafaf"/><rect x="131.05" y="185.78" width="2.84" height="2.84" fill="#afafaf"/><rect x="131.05" y="190.53" width="2.84" height="2.84" fill="#afafaf"/><rect x="131.05" y="195.29" width="2.84" height="2.84" fill="#afafaf"/><rect x="131.05" y="204.8" width="2.84" height="2.84" fill="#afafaf"/><rect x="135.55" y="152.5" width="2.84" height="2.84" fill="#afafaf"/><rect x="135.55" y="157.26" width="2.84" height="2.84" fill="#afafaf"/><rect x="135.55" y="162.01" width="2.84" height="2.84" fill="#afafaf"/><rect x="135.55" y="166.76" width="2.84" height="2.84" fill="#afafaf"/><rect x="135.55" y="171.52" width="2.84" height="2.84" fill="#afafaf"/><rect x="135.55" y="176.27" width="2.84" height="2.84" fill="#afafaf"/><rect x="135.55" y="181.03" width="2.84" height="2.84" fill="#afafaf"/><rect x="135.55" y="223.81" width="2.84" height="2.84" fill="#afafaf"/><rect x="140.06" y="152.5" width="2.84" height="2.84" fill="#afafaf"/><rect x="140.06" y="157.26" width="2.84" height="2.84" fill="#afafaf"/><rect x="140.06" y="162.01" width="2.84" height="2.84" fill="#afafaf"/><rect x="140.06" y="166.76" width="2.84" height="2.84" fill="#afafaf"/><rect x="140.06" y="171.52" width="2.84" height="2.84" fill="#afafaf"/><rect x="140.06" y="176.27" width="2.84" height="2.84" fill="#afafaf"/><rect x="140.06" y="181.03" width="2.84" height="2.84" fill="#afafaf"/><rect x="140.06" y="185.78" width="2.84" height="2.84" fill="#afafaf"/><rect x="140.06" y="214.3" width="2.84" height="2.84" fill="#afafaf"/><rect x="140.06" y="219.06" width="2.84" height="2.84" fill="#afafaf"/><rect x="140.06" y="223.81" width="2.84" height="2.84" fill="#afafaf"/><rect x="140.06" y="228.57" width="2.84" height="2.84" fill="#afafaf"/><rect x="140.06" y="247.58" width="2.84" height="2.84" fill="#afafaf"/><rect x="144.56" y="152.5" width="2.84" height="2.84" fill="#afafaf"/><rect x="144.56" y="157.26" width="2.84" height="2.84" fill="#afafaf"/><rect x="144.56" y="162.01" width="2.84" height="2.84" fill="#afafaf"/><rect x="144.56" y="166.76" width="2.84" height="2.84" fill="#afafaf"/><rect x="144.56" y="171.52" width="2.84" height="2.84" fill="#afafaf"/><rect x="144.56" y="176.27" width="2.84" height="2.84" fill="#afafaf"/><rect x="144.56" y="181.03" width="2.84" height="2.84" fill="#afafaf"/><rect x="144.56" y="185.78" width="2.84" height="2.84" fill="#afafaf"/><rect x="144.56" y="190.53" width="2.84" height="2.84" fill="#afafaf"/><rect x="144.56" y="195.29" width="2.84" height="2.84" fill="#afafaf"/><rect x="144.56" y="209.55" width="2.84" height="2.84" fill="#afafaf"/><rect x="144.56" y="214.3" width="2.84" height="2.84" fill="#afafaf"/><rect x="144.56" y="219.06" width="2.84" height="2.84" fill="#afafaf"/><rect x="144.56" y="223.81" width="2.84" height="2.84" fill="#afafaf"/><rect x="144.56" y="228.57" width="2.84" height="2.84" fill="#afafaf"/><rect x="144.56" y="247.58" width="2.84" height="2.84" fill="#afafaf"/><rect x="149.06" y="152.5" width="2.84" height="2.84" fill="#afafaf"/><rect x="149.06" y="157.26" width="2.84" height="2.84" fill="#afafaf"/><rect x="149.06" y="162.01" width="2.84" height="2.84" fill="#afafaf"/><rect x="149.06" y="166.76" width="2.84" height="2.84" fill="#afafaf"/><rect x="149.06" y="171.52" width="2.84" height="2.84" fill="#afafaf"/><rect x="149.06" y="176.27" width="2.84" height="2.84" fill="#afafaf"/><rect x="149.06" y="181.03" width="2.84" height="2.84" fill="#afafaf"/><rect x="149.06" y="185.78" width="2.84" height="2.84" fill="#afafaf"/><rect x="149.06" y="190.53" width="2.84" height="2.84" fill="#afafaf"/><rect x="149.06" y="195.29" width="2.84" height="2.84" fill="#afafaf"/><rect x="149.06" y="200.04" width="2.84" height="2.84" fill="#afafaf"/><rect x="149.06" y="204.8" width="2.84" height="2.84" fill="#afafaf"/><rect x="149.06" y="209.55" width="2.84" height="2.84" fill="#afafaf"/><rect x="149.06" y="214.3" width="2.84" height="2.84" fill="#afafaf"/><rect x="149.06" y="219.06" width="2.84" height="2.84" fill="#afafaf"/><rect x="149.06" y="223.81" width="2.84" height="2.84" fill="#afafaf"/><rect x="149.06" y="228.57" width="2.84" height="2.84" fill="#afafaf"/><rect x="149.06" y="233.32" width="2.84" height="2.84" fill="#afafaf"/><rect x="153.57" y="152.5" width="2.84" height="2.84" fill="#afafaf"/><rect x="153.57" y="157.26" width="2.84" height="2.84" fill="#afafaf"/><rect x="153.57" y="162.01" width="2.84" height="2.84" fill="#afafaf"/><rect x="153.57" y="166.76" width="2.84" height="2.84" fill="#afafaf"/><rect x="153.57" y="171.52" width="2.84" height="2.84" fill="#afafaf"/><rect x="153.57" y="176.27" width="2.84" height="2.84" fill="#afafaf"/><rect x="153.57" y="181.03" width="2.84" height="2.84" fill="#afafaf"/><rect x="153.57" y="185.78" width="2.84" height="2.84" fill="#afafaf"/><rect x="153.57" y="190.53" width="2.84" height="2.84" fill="#afafaf"/><rect x="153.57" y="195.29" width="2.84" height="2.84" fill="#afafaf"/><rect x="153.57" y="209.55" width="2.84" height="2.84" fill="#afafaf"/><rect x="153.57" y="214.3" width="2.84" height="2.84" fill="#afafaf"/><rect x="153.57" y="219.06" width="2.84" height="2.84" fill="#afafaf"/><rect x="153.57" y="223.81" width="2.84" height="2.84" fill="#afafaf"/><rect x="158.07" y="152.5" width="2.84" height="2.84" fill="#afafaf"/><rect x="158.07" y="157.26" width="2.84" height="2.84" fill="#afafaf"/><rect x="158.07" y="162.01" width="2.84" height="2.84" fill="#afafaf"/><rect x="158.07" y="166.76" width="2.84" height="2.84" fill="#afafaf"/><rect x="158.07" y="171.52" width="2.84" height="2.84" fill="#afafaf"/><rect x="158.07" y="176.27" width="2.84" height="2.84" fill="#afafaf"/><rect x="158.07" y="181.03" width="2.84" height="2.84" fill="#afafaf"/><rect x="158.07" y="185.78" width="2.84" height="2.84" fill="#afafaf"/><rect x="158.07" y="190.53" width="2.84" height="2.84" fill="#afafaf"/><rect x="158.07" y="195.29" width="2.84" height="2.84" fill="#afafaf"/><rect x="158.07" y="209.55" width="2.84" height="2.84" fill="#afafaf"/><rect x="158.07" y="214.3" width="2.84" height="2.84" fill="#afafaf"/><rect x="158.07" y="219.06" width="2.84" height="2.84" fill="#afafaf"/><rect x="208.78" y="140.16" width="2.84" height="2.84" fill="#afafaf"/><rect x="208.78" y="144.91" width="2.84" height="2.84" fill="#afafaf"/><rect x="208.78" y="149.67" width="2.84" height="2.84" fill="#afafaf"/><rect x="208.78" y="154.42" width="2.84" height="2.84" fill="#afafaf"/><rect x="208.78" y="159.17" width="2.84" height="2.84" fill="#afafaf"/><rect x="208.78" y="163.93" width="2.84" height="2.84" fill="#afafaf"/><rect x="208.78" y="168.68" width="2.84" height="2.84" fill="#afafaf"/><rect x="208.78" y="173.44" width="2.84" height="2.84" fill="#afafaf"/><rect x="208.78" y="187.7" width="2.84" height="2.84" fill="#afafaf"/><rect x="208.78" y="192.45" width="2.84" height="2.84" fill="#afafaf"/><rect x="213.29" y="140.16" width="2.84" height="2.84" fill="#afafaf"/><rect x="213.29" y="144.91" width="2.84" height="2.84" fill="#afafaf"/><rect x="213.29" y="149.67" width="2.84" height="2.84" fill="#afafaf"/><rect x="213.29" y="154.42" width="2.84" height="2.84" fill="#afafaf"/><rect x="213.29" y="159.17" width="2.84" height="2.84" fill="#afafaf"/><rect x="213.29" y="163.93" width="2.84" height="2.84" fill="#afafaf"/><rect x="213.29" y="168.68" width="2.84" height="2.84" fill="#afafaf"/><rect x="213.29" y="173.44" width="2.84" height="2.84" fill="#afafaf"/><rect x="213.29" y="192.45" width="2.84" height="2.84" fill="#afafaf"/><rect x="217.79" y="140.16" width="2.84" height="2.84" fill="#afafaf"/><rect x="217.79" y="144.91" width="2.84" height="2.84" fill="#afafaf"/><rect x="217.79" y="149.67" width="2.84" height="2.84" fill="#afafaf"/><rect x="217.79" y="154.42" width="2.84" height="2.84" fill="#afafaf"/><rect x="217.79" y="159.17" width="2.84" height="2.84" fill="#afafaf"/><rect x="217.79" y="163.93" width="2.84" height="2.84" fill="#afafaf"/><rect x="217.79" y="168.68" width="2.84" height="2.84" fill="#afafaf"/><rect x="217.79" y="173.44" width="2.84" height="2.84" fill="#afafaf"/><rect x="222.29" y="140.16" width="2.84" height="2.84" fill="#afafaf"/><rect x="222.29" y="144.91" width="2.84" height="2.84" fill="#afafaf"/><rect x="222.29" y="149.67" width="2.84" height="2.84" fill="#afafaf"/><rect x="222.29" y="154.42" width="2.84" height="2.84" fill="#afafaf"/><rect x="222.29" y="159.17" width="2.84" height="2.84" fill="#afafaf"/><rect x="222.29" y="163.93" width="2.84" height="2.84" fill="#afafaf"/><rect x="222.29" y="173.44" width="2.84" height="2.84" fill="#afafaf"/><rect x="222.29" y="178.19" width="2.84" height="2.84" fill="#afafaf"/><rect x="222.29" y="192.45" width="2.84" height="2.84" fill="#afafaf"/><rect x="222.29" y="197.21" width="2.84" height="2.84" fill="#afafaf"/><rect x="222.29" y="201.96" width="2.84" height="2.84" fill="#afafaf"/><rect x="222.29" y="206.71" width="2.84" height="2.84" fill="#afafaf"/><rect x="222.29" y="211.47" width="2.84" height="2.84" fill="#afafaf"/><rect x="222.29" y="216.22" width="2.84" height="2.84" fill="#afafaf"/><rect x="222.29" y="220.98" width="2.84" height="2.84" fill="#afafaf"/><rect x="226.8" y="140.16" width="2.84" height="2.84" fill="#afafaf"/><rect x="226.8" y="144.91" width="2.84" height="2.84" fill="#afafaf"/><rect x="226.8" y="149.67" width="2.84" height="2.84" fill="#afafaf"/><rect x="226.8" y="154.42" width="2.84" height="2.84" fill="#afafaf"/><rect x="226.8" y="159.17" width="2.84" height="2.84" fill="#afafaf"/><rect x="226.8" y="163.93" width="2.84" height="2.84" fill="#afafaf"/><rect x="226.8" y="178.19" width="2.84" height="2.84" fill="#afafaf"/><rect x="226.8" y="182.94" width="2.84" height="2.84" fill="#afafaf"/><rect x="226.8" y="187.7" width="2.84" height="2.84" fill="#afafaf"/><rect x="226.8" y="192.45" width="2.84" height="2.84" fill="#afafaf"/><rect x="226.8" y="197.21" width="2.84" height="2.84" fill="#afafaf"/><rect x="226.8" y="201.96" width="2.84" height="2.84" fill="#afafaf"/><rect x="226.8" y="206.71" width="2.84" height="2.84" fill="#afafaf"/><rect x="226.8" y="211.47" width="2.84" height="2.84" fill="#afafaf"/><rect x="226.8" y="216.22" width="2.84" height="2.84" fill="#afafaf"/><rect x="226.8" y="220.98" width="2.84" height="2.84" fill="#afafaf"/><rect x="226.8" y="225.73" width="2.84" height="2.84" fill="#afafaf"/><rect x="226.8" y="235.24" width="2.84" height="2.84" fill="#afafaf"/><rect x="231.3" y="140.16" width="2.84" height="2.84" fill="#afafaf"/><rect x="231.3" y="144.91" width="2.84" height="2.84" fill="#afafaf"/><rect x="231.3" y="149.67" width="2.84" height="2.84" fill="#afafaf"/><rect x="231.3" y="154.42" width="2.84" height="2.84" fill="#afafaf"/><rect x="231.3" y="159.17" width="2.84" height="2.84" fill="#afafaf"/><rect x="231.3" y="163.93" width="2.84" height="2.84" fill="#afafaf"/><rect x="231.3" y="178.19" width="2.84" height="2.84" fill="#afafaf"/><rect x="231.3" y="182.94" width="2.84" height="2.84" fill="#afafaf"/><rect x="231.3" y="187.7" width="2.84" height="2.84" fill="#afafaf"/><rect x="231.3" y="192.45" width="2.84" height="2.84" fill="#afafaf"/><rect x="231.3" y="206.71" width="2.84" height="2.84" fill="#afafaf"/><rect x="231.3" y="211.47" width="2.84" height="2.84" fill="#afafaf"/><rect x="231.3" y="216.22" width="2.84" height="2.84" fill="#afafaf"/><rect x="231.3" y="220.98" width="2.84" height="2.84" fill="#afafaf"/><rect x="231.3" y="225.73" width="2.84" height="2.84" fill="#afafaf"/><rect x="231.3" y="235.24" width="2.84" height="2.84" fill="#afafaf"/><rect x="231.3" y="239.99" width="2.84" height="2.84" fill="#afafaf"/><rect x="272.17" y="184.36" width="2.84" height="2.84" fill="#afafaf"/><rect x="272.17" y="189.12" width="2.84" height="2.84" fill="#afafaf"/><rect x="272.17" y="193.87" width="2.84" height="2.84" fill="#afafaf"/><rect x="272.17" y="198.62" width="2.84" height="2.84" fill="#afafaf"/><rect x="272.17" y="203.38" width="2.84" height="2.84" fill="#afafaf"/><rect x="272.17" y="208.13" width="2.84" height="2.84" fill="#afafaf"/><rect x="272.17" y="212.89" width="2.84" height="2.84" fill="#afafaf"/><rect x="272.17" y="227.15" width="2.84" height="2.84" fill="#afafaf"/><rect x="272.17" y="231.9" width="2.84" height="2.84" fill="#afafaf"/><rect x="272.17" y="236.66" width="2.84" height="2.84" fill="#afafaf"/><rect x="276.67" y="184.36" width="2.84" height="2.84" fill="#afafaf"/><rect x="276.67" y="189.12" width="2.84" height="2.84" fill="#afafaf"/><rect x="276.67" y="193.87" width="2.84" height="2.84" fill="#afafaf"/><rect x="276.67" y="198.62" width="2.84" height="2.84" fill="#afafaf"/><rect x="276.67" y="203.38" width="2.84" height="2.84" fill="#afafaf"/><rect x="276.67" y="208.13" width="2.84" height="2.84" fill="#afafaf"/><rect x="276.67" y="212.89" width="2.84" height="2.84" fill="#afafaf"/><rect x="281.18" y="184.36" width="2.84" height="2.84" fill="#afafaf"/><rect x="281.18" y="189.12" width="2.84" height="2.84" fill="#afafaf"/><rect x="281.18" y="193.87" width="2.84" height="2.84" fill="#afafaf"/><rect x="281.18" y="198.62" width="2.84" height="2.84" fill="#afafaf"/><rect x="281.18" y="203.38" width="2.84" height="2.84" fill="#afafaf"/><rect x="281.18" y="208.13" width="2.84" height="2.84" fill="#afafaf"/><rect x="281.18" y="212.89" width="2.84" height="2.84" fill="#afafaf"/><rect x="285.68" y="184.36" width="2.84" height="2.84" fill="#afafaf"/><rect x="285.68" y="189.12" width="2.84" height="2.84" fill="#afafaf"/><rect x="285.68" y="193.87" width="2.84" height="2.84" fill="#afafaf"/><rect x="285.68" y="198.62" width="2.84" height="2.84" fill="#afafaf"/><rect x="285.68" y="203.38" width="2.84" height="2.84" fill="#afafaf"/><rect x="285.68" y="208.13" width="2.84" height="2.84" fill="#afafaf"/><rect x="285.68" y="212.89" width="2.84" height="2.84" fill="#afafaf"/><rect x="285.68" y="217.64" width="2.84" height="2.84" fill="#afafaf"/><rect x="285.68" y="222.39" width="2.84" height="2.84" fill="#afafaf"/><rect x="285.68" y="227.15" width="2.84" height="2.84" fill="#afafaf"/><rect x="285.68" y="231.9" width="2.84" height="2.84" fill="#afafaf"/><rect x="290.18" y="184.36" width="2.84" height="2.84" fill="#afafaf"/><rect x="290.18" y="189.12" width="2.84" height="2.84" fill="#afafaf"/><rect x="290.18" y="193.87" width="2.84" height="2.84" fill="#afafaf"/><rect x="290.18" y="198.62" width="2.84" height="2.84" fill="#afafaf"/><rect x="290.18" y="203.38" width="2.84" height="2.84" fill="#afafaf"/><rect x="290.18" y="208.13" width="2.84" height="2.84" fill="#afafaf"/><rect x="290.18" y="212.89" width="2.84" height="2.84" fill="#afafaf"/><rect x="290.18" y="217.64" width="2.84" height="2.84" fill="#afafaf"/><rect x="290.18" y="222.39" width="2.84" height="2.84" fill="#afafaf"/><rect x="290.18" y="227.15" width="2.84" height="2.84" fill="#afafaf"/><rect x="290.18" y="231.9" width="2.84" height="2.84" fill="#afafaf"/><rect x="290.18" y="236.66" width="2.84" height="2.84" fill="#afafaf"/><rect x="290.18" y="250.92" width="2.84" height="2.84" fill="#afafaf"/><rect x="290.18" y="255.67" width="2.84" height="2.84" fill="#afafaf"/><rect x="294.69" y="184.36" width="2.84" height="2.84" fill="#afafaf"/><rect x="294.69" y="189.12" width="2.84" height="2.84" fill="#afafaf"/><rect x="294.69" y="193.87" width="2.84" height="2.84" fill="#afafaf"/><rect x="294.69" y="208.13" width="2.84" height="2.84" fill="#afafaf"/><rect x="294.69" y="212.89" width="2.84" height="2.84" fill="#afafaf"/><rect x="294.69" y="217.64" width="2.84" height="2.84" fill="#afafaf"/><rect x="294.69" y="222.39" width="2.84" height="2.84" fill="#afafaf"/><rect x="294.69" y="227.15" width="2.84" height="2.84" fill="#afafaf"/><rect x="294.69" y="231.9" width="2.84" height="2.84" fill="#afafaf"/><rect x="294.69" y="236.66" width="2.84" height="2.84" fill="#afafaf"/><rect x="294.69" y="250.92" width="2.84" height="2.84" fill="#afafaf"/><rect x="294.69" y="255.67" width="2.84" height="2.84" fill="#afafaf"/><rect x="294.69" y="260.43" width="2.84" height="2.84" fill="#afafaf"/><rect x="341.9" y="155.84" width="2.84" height="2.84" fill="#afafaf"/><rect x="341.9" y="160.59" width="2.84" height="2.84" fill="#afafaf"/><rect x="341.9" y="165.35" width="2.84" height="2.84" fill="#afafaf"/><rect x="341.9" y="170.1" width="2.84" height="2.84" fill="#afafaf"/><rect x="341.9" y="174.85" width="2.84" height="2.84" fill="#afafaf"/><rect x="341.9" y="179.61" width="2.84" height="2.84" fill="#afafaf"/><rect x="341.9" y="184.36" width="2.84" height="2.84" fill="#afafaf"/><rect x="341.9" y="189.12" width="2.84" height="2.84" fill="#afafaf"/><rect x="341.9" y="193.87" width="2.84" height="2.84" fill="#afafaf"/><rect x="341.9" y="198.62" width="2.84" height="2.84" fill="#afafaf"/><rect x="341.9" y="203.38" width="2.84" height="2.84" fill="#afafaf"/><rect x="341.9" y="208.13" width="2.84" height="2.84" fill="#afafaf"/><rect x="341.9" y="212.89" width="2.84" height="2.84" fill="#afafaf"/><rect x="341.9" y="217.64" width="2.84" height="2.84" fill="#afafaf"/><rect x="341.9" y="222.39" width="2.84" height="2.84" fill="#afafaf"/><rect x="341.9" y="227.15" width="2.84" height="2.84" fill="#afafaf"/><rect x="341.9" y="231.9" width="2.84" height="2.84" fill="#afafaf"/><rect x="341.9" y="236.66" width="2.84" height="2.84" fill="#afafaf"/><rect x="341.9" y="241.41" width="2.84" height="2.84" fill="#afafaf"/><rect x="341.9" y="246.16" width="2.84" height="2.84" fill="#afafaf"/><rect x="341.9" y="250.92" width="2.84" height="2.84" fill="#afafaf"/><rect x="341.9" y="255.67" width="2.84" height="2.84" fill="#afafaf"/><rect x="341.9" y="260.43" width="2.84" height="2.84" fill="#afafaf"/><rect x="346.4" y="155.84" width="2.84" height="2.84" fill="#afafaf"/><rect x="346.4" y="160.59" width="2.84" height="2.84" fill="#afafaf"/><rect x="346.4" y="165.35" width="2.84" height="2.84" fill="#afafaf"/><rect x="346.4" y="170.1" width="2.84" height="2.84" fill="#afafaf"/><rect x="346.4" y="174.85" width="2.84" height="2.84" fill="#afafaf"/><rect x="346.4" y="179.61" width="2.84" height="2.84" fill="#afafaf"/><rect x="346.4" y="184.36" width="2.84" height="2.84" fill="#afafaf"/><rect x="346.4" y="189.12" width="2.84" height="2.84" fill="#afafaf"/><rect x="346.4" y="193.87" width="2.84" height="2.84" fill="#afafaf"/><rect x="346.4" y="198.62" width="2.84" height="2.84" fill="#afafaf"/><rect x="346.4" y="203.38" width="2.84" height="2.84" fill="#afafaf"/><rect x="346.4" y="208.13" width="2.84" height="2.84" fill="#afafaf"/><rect x="346.4" y="212.89" width="2.84" height="2.84" fill="#afafaf"/><rect x="346.4" y="217.64" width="2.84" height="2.84" fill="#afafaf"/><rect x="346.4" y="222.39" width="2.84" height="2.84" fill="#afafaf"/><rect x="346.4" y="227.15" width="2.84" height="2.84" fill="#afafaf"/><rect x="346.4" y="231.9" width="2.84" height="2.84" fill="#afafaf"/><rect x="346.4" y="236.66" width="2.84" height="2.84" fill="#afafaf"/><rect x="346.4" y="241.41" width="2.84" height="2.84" fill="#afafaf"/><rect x="350.9" y="155.84" width="2.84" height="2.84" fill="#afafaf"/><rect x="350.9" y="160.59" width="2.84" height="2.84" fill="#afafaf"/><rect x="350.9" y="165.35" width="2.84" height="2.84" fill="#afafaf"/><rect x="350.9" y="170.1" width="2.84" height="2.84" fill="#afafaf"/><rect x="350.9" y="174.85" width="2.84" height="2.84" fill="#afafaf"/><rect x="350.9" y="179.61" width="2.84" height="2.84" fill="#afafaf"/><rect x="350.9" y="184.36" width="2.84" height="2.84" fill="#afafaf"/><rect x="350.9" y="189.12" width="2.84" height="2.84" fill="#afafaf"/><rect x="350.9" y="193.87" width="2.84" height="2.84" fill="#afafaf"/><rect x="350.9" y="198.62" width="2.84" height="2.84" fill="#afafaf"/><rect x="350.9" y="203.38" width="2.84" height="2.84" fill="#afafaf"/><rect x="350.9" y="208.13" width="2.84" height="2.84" fill="#afafaf"/><rect x="350.9" y="212.89" width="2.84" height="2.84" fill="#afafaf"/><rect x="350.9" y="217.64" width="2.84" height="2.84" fill="#afafaf"/><rect x="350.9" y="222.39" width="2.84" height="2.84" fill="#afafaf"/><rect x="350.9" y="227.15" width="2.84" height="2.84" fill="#afafaf"/><rect x="350.9" y="231.9" width="2.84" height="2.84" fill="#afafaf"/><rect x="350.9" y="236.66" width="2.84" height="2.84" fill="#afafaf"/><rect x="350.9" y="241.41" width="2.84" height="2.84" fill="#afafaf"/><rect x="355.41" y="155.84" width="2.84" height="2.84" fill="#afafaf"/><rect x="355.41" y="160.59" width="2.84" height="2.84" fill="#afafaf"/><rect x="355.41" y="165.35" width="2.84" height="2.84" fill="#afafaf"/><rect x="355.41" y="170.1" width="2.84" height="2.84" fill="#afafaf"/><rect x="355.41" y="174.85" width="2.84" height="2.84" fill="#afafaf"/><rect x="355.41" y="179.61" width="2.84" height="2.84" fill="#afafaf"/><rect x="355.41" y="184.36" width="2.84" height="2.84" fill="#afafaf"/><rect x="355.41" y="189.12" width="2.84" height="2.84" fill="#afafaf"/><rect x="355.41" y="193.87" width="2.84" height="2.84" fill="#afafaf"/><rect x="355.41" y="198.62" width="2.84" height="2.84" fill="#afafaf"/><rect x="355.41" y="203.38" width="2.84" height="2.84" fill="#afafaf"/><rect x="355.41" y="208.13" width="2.84" height="2.84" fill="#afafaf"/><rect x="355.41" y="212.89" width="2.84" height="2.84" fill="#afafaf"/><rect x="355.41" y="217.64" width="2.84" height="2.84" fill="#afafaf"/><rect x="355.41" y="222.39" width="2.84" height="2.84" fill="#afafaf"/><rect x="359.91" y="155.84" width="2.84" height="2.84" fill="#afafaf"/><rect x="359.91" y="160.59" width="2.84" height="2.84" fill="#afafaf"/><rect x="359.91" y="165.35" width="2.84" height="2.84" fill="#afafaf"/><rect x="359.91" y="170.1" width="2.84" height="2.84" fill="#afafaf"/><rect x="359.91" y="174.85" width="2.84" height="2.84" fill="#afafaf"/><rect x="359.91" y="179.61" width="2.84" height="2.84" fill="#afafaf"/><rect x="359.91" y="184.36" width="2.84" height="2.84" fill="#afafaf"/><rect x="359.91" y="189.12" width="2.84" height="2.84" fill="#afafaf"/><rect x="359.91" y="193.87" width="2.84" height="2.84" fill="#afafaf"/><rect x="359.91" y="198.62" width="2.84" height="2.84" fill="#afafaf"/><rect x="359.91" y="203.38" width="2.84" height="2.84" fill="#afafaf"/><rect x="359.91" y="208.13" width="2.84" height="2.84" fill="#afafaf"/><rect x="359.91" y="212.89" width="2.84" height="2.84" fill="#afafaf"/><rect x="364.41" y="155.84" width="2.84" height="2.84" fill="#afafaf"/><rect x="364.41" y="160.59" width="2.84" height="2.84" fill="#afafaf"/><rect x="364.41" y="165.35" width="2.84" height="2.84" fill="#afafaf"/><rect x="364.41" y="170.1" width="2.84" height="2.84" fill="#afafaf"/><rect x="364.41" y="174.85" width="2.84" height="2.84" fill="#afafaf"/><rect x="364.41" y="179.61" width="2.84" height="2.84" fill="#afafaf"/><rect x="364.41" y="184.36" width="2.84" height="2.84" fill="#afafaf"/><rect x="364.41" y="189.12" width="2.84" height="2.84" fill="#afafaf"/><rect x="364.41" y="193.87" width="2.84" height="2.84" fill="#afafaf"/><rect x="364.41" y="198.62" width="2.84" height="2.84" fill="#afafaf"/><rect x="364.41" y="203.38" width="2.84" height="2.84" fill="#afafaf"/><rect x="364.41" y="208.13" width="2.84" height="2.84" fill="#afafaf"/><rect x="33.47" y="190.53" width="2.84" height="2.84" fill="#afafaf"/><rect x="33.47" y="195.29" width="2.84" height="2.84" fill="#afafaf"/><rect x="33.47" y="200.04" width="2.84" height="2.84" fill="#afafaf"/><rect x="33.47" y="204.8" width="2.84" height="2.84" fill="#afafaf"/><rect x="33.47" y="209.55" width="2.84" height="2.84" fill="#afafaf"/><rect x="33.47" y="214.3" width="2.84" height="2.84" fill="#afafaf"/><rect x="33.47" y="219.06" width="2.84" height="2.84" fill="#afafaf"/><rect x="33.47" y="223.81" width="2.84" height="2.84" fill="#afafaf"/><rect x="33.47" y="228.57" width="2.84" height="2.84" fill="#afafaf"/><rect x="33.47" y="233.32" width="2.84" height="2.84" fill="#afafaf"/><rect x="33.47" y="238.07" width="2.84" height="2.84" fill="#afafaf"/><rect x="33.47" y="242.83" width="2.84" height="2.84" fill="#afafaf"/><rect x="33.47" y="247.58" width="2.84" height="2.84" fill="#afafaf"/><rect x="33.47" y="252.34" width="2.84" height="2.84" fill="#afafaf"/><rect x="33.47" y="257.09" width="2.84" height="2.84" fill="#afafaf"/><rect x="33.47" y="261.84" width="2.84" height="2.84" fill="#afafaf"/><rect x="33.47" y="266.6" width="2.84" height="2.84" fill="#afafaf"/><rect x="33.47" y="271.35" width="2.84" height="2.84" fill="#afafaf"/><rect x="33.47" y="276.11" width="2.84" height="2.84" fill="#afafaf"/><rect x="33.47" y="280.86" width="2.84" height="2.84" fill="#afafaf"/><rect x="37.97" y="190.53" width="2.84" height="2.84" fill="#afafaf"/><rect x="37.97" y="195.29" width="2.84" height="2.84" fill="#afafaf"/><rect x="37.97" y="200.04" width="2.84" height="2.84" fill="#afafaf"/><rect x="37.97" y="204.8" width="2.84" height="2.84" fill="#afafaf"/><rect x="37.97" y="209.55" width="2.84" height="2.84" fill="#afafaf"/><rect x="37.97" y="214.3" width="2.84" height="2.84" fill="#afafaf"/><rect x="37.97" y="219.06" width="2.84" height="2.84" fill="#afafaf"/><rect x="37.97" y="223.81" width="2.84" height="2.84" fill="#afafaf"/><rect x="37.97" y="228.57" width="2.84" height="2.84" fill="#afafaf"/><rect x="37.97" y="233.32" width="2.84" height="2.84" fill="#afafaf"/><rect x="37.97" y="238.07" width="2.84" height="2.84" fill="#afafaf"/><rect x="37.97" y="242.83" width="2.84" height="2.84" fill="#afafaf"/><rect x="37.97" y="247.58" width="2.84" height="2.84" fill="#afafaf"/><rect x="37.97" y="252.34" width="2.84" height="2.84" fill="#afafaf"/><rect x="37.97" y="257.09" width="2.84" height="2.84" fill="#afafaf"/><rect x="37.97" y="261.84" width="2.84" height="2.84" fill="#afafaf"/><rect x="37.97" y="266.6" width="2.84" height="2.84" fill="#afafaf"/><rect x="37.97" y="271.35" width="2.84" height="2.84" fill="#afafaf"/><rect x="42.47" y="190.53" width="2.84" height="2.84" fill="#afafaf"/><rect x="42.47" y="195.29" width="2.84" height="2.84" fill="#afafaf"/><rect x="42.47" y="200.04" width="2.84" height="2.84" fill="#afafaf"/><rect x="42.47" y="204.8" width="2.84" height="2.84" fill="#afafaf"/><rect x="42.47" y="209.55" width="2.84" height="2.84" fill="#afafaf"/><rect x="42.47" y="214.3" width="2.84" height="2.84" fill="#afafaf"/><rect x="42.47" y="219.06" width="2.84" height="2.84" fill="#afafaf"/><rect x="42.47" y="223.81" width="2.84" height="2.84" fill="#afafaf"/><rect x="42.47" y="228.57" width="2.84" height="2.84" fill="#afafaf"/><rect x="42.47" y="233.32" width="2.84" height="2.84" fill="#afafaf"/><rect x="42.47" y="238.07" width="2.84" height="2.84" fill="#afafaf"/><rect x="42.47" y="242.83" width="2.84" height="2.84" fill="#afafaf"/><rect x="42.47" y="247.58" width="2.84" height="2.84" fill="#afafaf"/><rect x="42.47" y="252.34" width="2.84" height="2.84" fill="#afafaf"/><rect x="42.47" y="257.09" width="2.84" height="2.84" fill="#afafaf"/><rect x="42.47" y="261.84" width="2.84" height="2.84" fill="#afafaf"/><rect x="42.47" y="266.6" width="2.84" height="2.84" fill="#afafaf"/><rect x="42.47" y="271.35" width="2.84" height="2.84" fill="#afafaf"/><rect x="16.62" y="225.23" width="2.84" height="2.84" fill="#afafaf"/><rect x="16.62" y="229.98" width="2.84" height="2.84" fill="#afafaf"/><rect x="16.62" y="234.74" width="2.84" height="2.84" fill="#afafaf"/><rect x="16.62" y="239.49" width="2.84" height="2.84" fill="#afafaf"/><rect x="16.62" y="244.25" width="2.84" height="2.84" fill="#afafaf"/><rect x="16.62" y="249" width="2.84" height="2.84" fill="#afafaf"/><rect x="16.62" y="253.75" width="2.84" height="2.84" fill="#afafaf"/><rect x="16.62" y="258.51" width="2.84" height="2.84" fill="#afafaf"/><rect x="16.62" y="263.26" width="2.84" height="2.84" fill="#afafaf"/><rect x="16.62" y="268.02" width="2.84" height="2.84" fill="#afafaf"/><rect x="16.62" y="272.77" width="2.84" height="2.84" fill="#afafaf"/><rect x="16.62" y="277.52" width="2.84" height="2.84" fill="#afafaf"/><rect x="16.62" y="282.28" width="2.84" height="2.84" fill="#afafaf"/><rect x="21.12" y="225.23" width="2.84" height="2.84" fill="#afafaf"/><rect x="21.12" y="229.98" width="2.84" height="2.84" fill="#afafaf"/><rect x="21.12" y="234.74" width="2.84" height="2.84" fill="#afafaf"/><rect x="21.12" y="239.49" width="2.84" height="2.84" fill="#afafaf"/><rect x="21.12" y="244.25" width="2.84" height="2.84" fill="#afafaf"/><rect x="21.12" y="249" width="2.84" height="2.84" fill="#afafaf"/><rect x="21.12" y="253.75" width="2.84" height="2.84" fill="#afafaf"/><rect x="21.12" y="258.51" width="2.84" height="2.84" fill="#afafaf"/><rect x="21.12" y="263.26" width="2.84" height="2.84" fill="#afafaf"/><rect x="21.12" y="268.02" width="2.84" height="2.84" fill="#afafaf"/><rect x="21.12" y="272.77" width="2.84" height="2.84" fill="#afafaf"/><rect x="21.12" y="277.52" width="2.84" height="2.84" fill="#afafaf"/><rect x="21.12" y="282.28" width="2.84" height="2.84" fill="#afafaf"/><rect x="25.63" y="225.23" width="2.84" height="2.84" fill="#afafaf"/><rect x="25.63" y="229.98" width="2.84" height="2.84" fill="#afafaf"/><rect x="25.63" y="234.74" width="2.84" height="2.84" fill="#afafaf"/><rect x="25.63" y="239.49" width="2.84" height="2.84" fill="#afafaf"/><rect x="25.63" y="244.25" width="2.84" height="2.84" fill="#afafaf"/><rect x="25.63" y="249" width="2.84" height="2.84" fill="#afafaf"/><rect x="25.63" y="253.75" width="2.84" height="2.84" fill="#afafaf"/><rect x="25.63" y="258.51" width="2.84" height="2.84" fill="#afafaf"/><rect x="25.63" y="263.26" width="2.84" height="2.84" fill="#afafaf"/><rect x="25.63" y="268.02" width="2.84" height="2.84" fill="#afafaf"/><rect x="25.63" y="272.77" width="2.84" height="2.84" fill="#afafaf"/><rect x="25.63" y="277.52" width="2.84" height="2.84" fill="#afafaf"/><rect x="25.63" y="282.28" width="2.84" height="2.84" fill="#afafaf"/><rect x="25.63" y="287.03" width="2.84" height="2.84" fill="#afafaf"/><rect x="50.65" y="226.65" width="2.84" height="2.84" fill="#afafaf"/><rect x="50.65" y="231.4" width="2.84" height="2.84" fill="#afafaf"/><rect x="50.65" y="236.16" width="2.84" height="2.84" fill="#afafaf"/><rect x="50.65" y="240.91" width="2.84" height="2.84" fill="#afafaf"/><rect x="50.65" y="245.66" width="2.84" height="2.84" fill="#afafaf"/><rect x="50.65" y="250.42" width="2.84" height="2.84" fill="#afafaf"/><rect x="50.65" y="255.17" width="2.84" height="2.84" fill="#afafaf"/><rect x="50.65" y="259.93" width="2.84" height="2.84" fill="#afafaf"/><rect x="50.65" y="264.68" width="2.84" height="2.84" fill="#afafaf"/><rect x="50.65" y="269.43" width="2.84" height="2.84" fill="#afafaf"/><rect x="50.65" y="283.7" width="2.84" height="2.84" fill="#afafaf"/><rect x="55.15" y="226.65" width="2.84" height="2.84" fill="#afafaf"/><rect x="55.15" y="231.4" width="2.84" height="2.84" fill="#afafaf"/><rect x="55.15" y="236.16" width="2.84" height="2.84" fill="#afafaf"/><rect x="55.15" y="240.91" width="2.84" height="2.84" fill="#afafaf"/><rect x="55.15" y="245.66" width="2.84" height="2.84" fill="#afafaf"/><rect x="55.15" y="250.42" width="2.84" height="2.84" fill="#afafaf"/><rect x="55.15" y="255.17" width="2.84" height="2.84" fill="#afafaf"/><rect x="55.15" y="259.93" width="2.84" height="2.84" fill="#afafaf"/><rect x="55.15" y="264.68" width="2.84" height="2.84" fill="#afafaf"/><rect x="55.15" y="278.94" width="2.84" height="2.84" fill="#afafaf"/><rect x="55.15" y="283.7" width="2.84" height="2.84" fill="#afafaf"/><rect x="59.65" y="226.65" width="2.84" height="2.84" fill="#afafaf"/><rect x="59.65" y="231.4" width="2.84" height="2.84" fill="#afafaf"/><rect x="59.65" y="236.16" width="2.84" height="2.84" fill="#afafaf"/><rect x="59.65" y="240.91" width="2.84" height="2.84" fill="#afafaf"/><rect x="59.65" y="245.66" width="2.84" height="2.84" fill="#afafaf"/><rect x="59.65" y="250.42" width="2.84" height="2.84" fill="#afafaf"/><rect x="59.65" y="255.17" width="2.84" height="2.84" fill="#afafaf"/><rect x="59.65" y="259.93" width="2.84" height="2.84" fill="#afafaf"/><rect x="59.65" y="274.19" width="2.84" height="2.84" fill="#afafaf"/><rect x="59.65" y="278.94" width="2.84" height="2.84" fill="#afafaf"/><rect x="59.65" y="283.7" width="2.84" height="2.84" fill="#afafaf"/><rect x="101.52" y="154.42" width="2.84" height="2.84" fill="#afafaf"/><rect x="101.52" y="159.17" width="2.84" height="2.84" fill="#afafaf"/><rect x="101.52" y="163.93" width="2.84" height="2.84" fill="#afafaf"/><rect x="101.52" y="168.68" width="2.84" height="2.84" fill="#afafaf"/><rect x="101.52" y="173.44" width="2.84" height="2.84" fill="#afafaf"/><rect x="101.52" y="178.19" width="2.84" height="2.84" fill="#afafaf"/><rect x="101.52" y="182.94" width="2.84" height="2.84" fill="#afafaf"/><rect x="101.52" y="187.7" width="2.84" height="2.84" fill="#afafaf"/><rect x="101.52" y="192.45" width="2.84" height="2.84" fill="#afafaf"/><rect x="101.52" y="197.21" width="2.84" height="2.84" fill="#afafaf"/><rect x="101.52" y="201.96" width="2.84" height="2.84" fill="#afafaf"/><rect x="101.52" y="206.71" width="2.84" height="2.84" fill="#afafaf"/><rect x="101.52" y="211.47" width="2.84" height="2.84" fill="#afafaf"/><rect x="101.52" y="216.22" width="2.84" height="2.84" fill="#afafaf"/><rect x="101.52" y="220.98" width="2.84" height="2.84" fill="#afafaf"/><rect x="101.52" y="225.73" width="2.84" height="2.84" fill="#afafaf"/><rect x="101.52" y="230.48" width="2.84" height="2.84" fill="#afafaf"/><rect x="101.52" y="239.99" width="2.84" height="2.84" fill="#afafaf"/><rect x="101.52" y="244.75" width="2.84" height="2.84" fill="#afafaf"/><rect x="101.52" y="249.5" width="2.84" height="2.84" fill="#afafaf"/><rect x="101.52" y="254.25" width="2.84" height="2.84" fill="#afafaf"/><rect x="101.52" y="259.01" width="2.84" height="2.84" fill="#afafaf"/><rect x="106.03" y="154.42" width="2.84" height="2.84" fill="#afafaf"/><rect x="106.03" y="159.17" width="2.84" height="2.84" fill="#afafaf"/><rect x="106.03" y="163.93" width="2.84" height="2.84" fill="#afafaf"/><rect x="106.03" y="168.68" width="2.84" height="2.84" fill="#afafaf"/><rect x="106.03" y="173.44" width="2.84" height="2.84" fill="#afafaf"/><rect x="106.03" y="178.19" width="2.84" height="2.84" fill="#afafaf"/><rect x="106.03" y="182.94" width="2.84" height="2.84" fill="#afafaf"/><rect x="106.03" y="187.7" width="2.84" height="2.84" fill="#afafaf"/><rect x="106.03" y="192.45" width="2.84" height="2.84" fill="#afafaf"/><rect x="106.03" y="197.21" width="2.84" height="2.84" fill="#afafaf"/><rect x="106.03" y="201.96" width="2.84" height="2.84" fill="#afafaf"/><rect x="106.03" y="206.71" width="2.84" height="2.84" fill="#afafaf"/><rect x="106.03" y="211.47" width="2.84" height="2.84" fill="#afafaf"/><rect x="106.03" y="216.22" width="2.84" height="2.84" fill="#afafaf"/><rect x="106.03" y="220.98" width="2.84" height="2.84" fill="#afafaf"/><rect x="106.03" y="225.73" width="2.84" height="2.84" fill="#afafaf"/><rect x="106.03" y="254.25" width="2.84" height="2.84" fill="#afafaf"/><rect x="106.03" y="259.01" width="2.84" height="2.84" fill="#afafaf"/><rect x="110.53" y="154.42" width="2.84" height="2.84" fill="#afafaf"/><rect x="110.53" y="159.17" width="2.84" height="2.84" fill="#afafaf"/><rect x="110.53" y="163.93" width="2.84" height="2.84" fill="#afafaf"/><rect x="110.53" y="168.68" width="2.84" height="2.84" fill="#afafaf"/><rect x="110.53" y="173.44" width="2.84" height="2.84" fill="#afafaf"/><rect x="110.53" y="178.19" width="2.84" height="2.84" fill="#afafaf"/><rect x="110.53" y="182.94" width="2.84" height="2.84" fill="#afafaf"/><rect x="110.53" y="187.7" width="2.84" height="2.84" fill="#afafaf"/><rect x="110.53" y="192.45" width="2.84" height="2.84" fill="#afafaf"/><rect x="110.53" y="197.21" width="2.84" height="2.84" fill="#afafaf"/><rect x="110.53" y="201.96" width="2.84" height="2.84" fill="#afafaf"/><rect x="110.53" y="206.71" width="2.84" height="2.84" fill="#afafaf"/><rect x="110.53" y="211.47" width="2.84" height="2.84" fill="#afafaf"/><rect x="110.53" y="216.22" width="2.84" height="2.84" fill="#afafaf"/><rect x="110.53" y="220.98" width="2.84" height="2.84" fill="#afafaf"/><rect x="110.53" y="225.73" width="2.84" height="2.84" fill="#afafaf"/><rect x="110.53" y="235.24" width="2.84" height="2.84" fill="#afafaf"/><rect x="110.53" y="239.99" width="2.84" height="2.84" fill="#afafaf"/><rect x="110.53" y="244.75" width="2.84" height="2.84" fill="#afafaf"/><rect x="110.53" y="249.5" width="2.84" height="2.84" fill="#afafaf"/><rect x="110.53" y="259.01" width="2.84" height="2.84" fill="#afafaf"/><rect x="85.18" y="214.3" width="2.84" height="2.84" fill="#afafaf"/><rect x="85.18" y="219.06" width="2.84" height="2.84" fill="#afafaf"/><rect x="85.18" y="223.81" width="2.84" height="2.84" fill="#afafaf"/><rect x="85.18" y="228.57" width="2.84" height="2.84" fill="#afafaf"/><rect x="85.18" y="233.32" width="2.84" height="2.84" fill="#afafaf"/><rect x="85.18" y="238.07" width="2.84" height="2.84" fill="#afafaf"/><rect x="85.18" y="242.83" width="2.84" height="2.84" fill="#afafaf"/><rect x="85.18" y="252.34" width="2.84" height="2.84" fill="#afafaf"/><rect x="85.18" y="257.09" width="2.84" height="2.84" fill="#afafaf"/><rect x="85.18" y="261.84" width="2.84" height="2.84" fill="#afafaf"/><rect x="85.18" y="266.6" width="2.84" height="2.84" fill="#afafaf"/><rect x="85.18" y="271.35" width="2.84" height="2.84" fill="#afafaf"/><rect x="85.18" y="276.11" width="2.84" height="2.84" fill="#afafaf"/><rect x="85.18" y="280.86" width="2.84" height="2.84" fill="#afafaf"/><rect x="85.18" y="285.61" width="2.84" height="2.84" fill="#afafaf"/><rect x="89.68" y="214.3" width="2.84" height="2.84" fill="#afafaf"/><rect x="89.68" y="219.06" width="2.84" height="2.84" fill="#afafaf"/><rect x="89.68" y="223.81" width="2.84" height="2.84" fill="#afafaf"/><rect x="89.68" y="228.57" width="2.84" height="2.84" fill="#afafaf"/><rect x="89.68" y="233.32" width="2.84" height="2.84" fill="#afafaf"/><rect x="89.68" y="238.07" width="2.84" height="2.84" fill="#afafaf"/><rect x="89.68" y="252.34" width="2.84" height="2.84" fill="#afafaf"/><rect x="89.68" y="257.09" width="2.84" height="2.84" fill="#afafaf"/><rect x="89.68" y="261.84" width="2.84" height="2.84" fill="#afafaf"/><rect x="89.68" y="266.6" width="2.84" height="2.84" fill="#afafaf"/><rect x="89.68" y="271.35" width="2.84" height="2.84" fill="#afafaf"/><rect x="89.68" y="276.11" width="2.84" height="2.84" fill="#afafaf"/><rect x="89.68" y="280.86" width="2.84" height="2.84" fill="#afafaf"/><rect x="89.68" y="285.61" width="2.84" height="2.84" fill="#afafaf"/><rect x="94.18" y="214.3" width="2.84" height="2.84" fill="#afafaf"/><rect x="94.18" y="219.06" width="2.84" height="2.84" fill="#afafaf"/><rect x="94.18" y="223.81" width="2.84" height="2.84" fill="#afafaf"/><rect x="94.18" y="228.57" width="2.84" height="2.84" fill="#afafaf"/><rect x="94.18" y="233.32" width="2.84" height="2.84" fill="#afafaf"/><rect x="94.18" y="238.07" width="2.84" height="2.84" fill="#afafaf"/><rect x="94.18" y="247.58" width="2.84" height="2.84" fill="#afafaf"/><rect x="94.18" y="252.34" width="2.84" height="2.84" fill="#afafaf"/><rect x="94.18" y="257.09" width="2.84" height="2.84" fill="#afafaf"/><rect x="94.18" y="261.84" width="2.84" height="2.84" fill="#afafaf"/><rect x="94.18" y="266.6" width="2.84" height="2.84" fill="#afafaf"/><rect x="94.18" y="271.35" width="2.84" height="2.84" fill="#afafaf"/><rect x="94.18" y="276.11" width="2.84" height="2.84" fill="#afafaf"/><rect x="94.18" y="280.86" width="2.84" height="2.84" fill="#afafaf"/><rect x="94.18" y="285.61" width="2.84" height="2.84" fill="#afafaf"/><rect x="189.1" y="187.7" width="2.84" height="2.84" fill="#afafaf"/><rect x="189.1" y="192.45" width="2.84" height="2.84" fill="#afafaf"/><rect x="189.1" y="197.21" width="2.84" height="2.84" fill="#afafaf"/><rect x="189.1" y="201.96" width="2.84" height="2.84" fill="#afafaf"/><rect x="189.1" y="206.71" width="2.84" height="2.84" fill="#afafaf"/><rect x="189.1" y="211.47" width="2.84" height="2.84" fill="#afafaf"/><rect x="189.1" y="216.22" width="2.84" height="2.84" fill="#afafaf"/><rect x="189.1" y="220.98" width="2.84" height="2.84" fill="#afafaf"/><rect x="189.1" y="225.73" width="2.84" height="2.84" fill="#afafaf"/><rect x="189.1" y="230.48" width="2.84" height="2.84" fill="#afafaf"/><rect x="189.1" y="235.24" width="2.84" height="2.84" fill="#afafaf"/><rect x="189.1" y="239.99" width="2.84" height="2.84" fill="#afafaf"/><rect x="189.1" y="244.75" width="2.84" height="2.84" fill="#afafaf"/><rect x="189.1" y="254.25" width="2.84" height="2.84" fill="#afafaf"/><rect x="189.1" y="259.01" width="2.84" height="2.84" fill="#afafaf"/><rect x="189.1" y="263.76" width="2.84" height="2.84" fill="#afafaf"/><rect x="189.1" y="268.52" width="2.84" height="2.84" fill="#afafaf"/><rect x="189.1" y="278.03" width="2.84" height="2.84" fill="#afafaf"/><rect x="189.1" y="282.78" width="2.84" height="2.84" fill="#afafaf"/><rect x="189.1" y="287.53" width="2.84" height="2.84" fill="#afafaf"/><rect x="193.6" y="187.7" width="2.84" height="2.84" fill="#afafaf"/><rect x="193.6" y="192.45" width="2.84" height="2.84" fill="#afafaf"/><rect x="193.6" y="197.21" width="2.84" height="2.84" fill="#afafaf"/><rect x="193.6" y="201.96" width="2.84" height="2.84" fill="#afafaf"/><rect x="193.6" y="206.71" width="2.84" height="2.84" fill="#afafaf"/><rect x="193.6" y="211.47" width="2.84" height="2.84" fill="#afafaf"/><rect x="193.6" y="216.22" width="2.84" height="2.84" fill="#afafaf"/><rect x="193.6" y="220.98" width="2.84" height="2.84" fill="#afafaf"/><rect x="193.6" y="225.73" width="2.84" height="2.84" fill="#afafaf"/><rect x="193.6" y="230.48" width="2.84" height="2.84" fill="#afafaf"/><rect x="193.6" y="235.24" width="2.84" height="2.84" fill="#afafaf"/><rect x="193.6" y="239.99" width="2.84" height="2.84" fill="#afafaf"/><rect x="193.6" y="244.75" width="2.84" height="2.84" fill="#afafaf"/><rect x="193.6" y="259.01" width="2.84" height="2.84" fill="#afafaf"/><rect x="193.6" y="263.76" width="2.84" height="2.84" fill="#afafaf"/><rect x="193.6" y="273.27" width="2.84" height="2.84" fill="#afafaf"/><rect x="193.6" y="278.03" width="2.84" height="2.84" fill="#afafaf"/><rect x="193.6" y="282.78" width="2.84" height="2.84" fill="#afafaf"/><rect x="193.6" y="287.53" width="2.84" height="2.84" fill="#afafaf"/><rect x="198.11" y="187.7" width="2.84" height="2.84" fill="#afafaf"/><rect x="198.11" y="192.45" width="2.84" height="2.84" fill="#afafaf"/><rect x="198.11" y="197.21" width="2.84" height="2.84" fill="#afafaf"/><rect x="198.11" y="201.96" width="2.84" height="2.84" fill="#afafaf"/><rect x="198.11" y="206.71" width="2.84" height="2.84" fill="#afafaf"/><rect x="198.11" y="211.47" width="2.84" height="2.84" fill="#afafaf"/><rect x="198.11" y="216.22" width="2.84" height="2.84" fill="#afafaf"/><rect x="198.11" y="220.98" width="2.84" height="2.84" fill="#afafaf"/><rect x="198.11" y="225.73" width="2.84" height="2.84" fill="#afafaf"/><rect x="198.11" y="230.48" width="2.84" height="2.84" fill="#afafaf"/><rect x="198.11" y="235.24" width="2.84" height="2.84" fill="#afafaf"/><rect x="198.11" y="239.99" width="2.84" height="2.84" fill="#afafaf"/><rect x="198.11" y="244.75" width="2.84" height="2.84" fill="#afafaf"/><rect x="198.11" y="249.5" width="2.84" height="2.84" fill="#afafaf"/><rect x="198.11" y="259.01" width="2.84" height="2.84" fill="#afafaf"/><rect x="198.11" y="268.52" width="2.84" height="2.84" fill="#afafaf"/><rect x="198.11" y="273.27" width="2.84" height="2.84" fill="#afafaf"/><rect x="198.11" y="278.03" width="2.84" height="2.84" fill="#afafaf"/><rect x="198.11" y="282.78" width="2.84" height="2.84" fill="#afafaf"/><rect x="198.11" y="287.53" width="2.84" height="2.84" fill="#afafaf"/><rect x="170.75" y="214.8" width="2.84" height="2.84" fill="#afafaf"/><rect x="170.75" y="219.56" width="2.84" height="2.84" fill="#afafaf"/><rect x="170.75" y="224.31" width="2.84" height="2.84" fill="#afafaf"/><rect x="170.75" y="229.07" width="2.84" height="2.84" fill="#afafaf"/><rect x="170.75" y="233.82" width="2.84" height="2.84" fill="#afafaf"/><rect x="170.75" y="238.58" width="2.84" height="2.84" fill="#afafaf"/><rect x="170.75" y="252.84" width="2.84" height="2.84" fill="#afafaf"/><rect x="170.75" y="257.59" width="2.84" height="2.84" fill="#afafaf"/><rect x="170.75" y="262.35" width="2.84" height="2.84" fill="#afafaf"/><rect x="170.75" y="267.1" width="2.84" height="2.84" fill="#afafaf"/><rect x="170.75" y="271.85" width="2.84" height="2.84" fill="#afafaf"/><rect x="170.75" y="276.61" width="2.84" height="2.84" fill="#afafaf"/><rect x="170.75" y="281.36" width="2.84" height="2.84" fill="#afafaf"/><rect x="175.25" y="214.8" width="2.84" height="2.84" fill="#afafaf"/><rect x="175.25" y="219.56" width="2.84" height="2.84" fill="#afafaf"/><rect x="175.25" y="224.31" width="2.84" height="2.84" fill="#afafaf"/><rect x="175.25" y="229.07" width="2.84" height="2.84" fill="#afafaf"/><rect x="175.25" y="233.82" width="2.84" height="2.84" fill="#afafaf"/><rect x="175.25" y="238.58" width="2.84" height="2.84" fill="#afafaf"/><rect x="175.25" y="252.84" width="2.84" height="2.84" fill="#afafaf"/><rect x="175.25" y="257.59" width="2.84" height="2.84" fill="#afafaf"/><rect x="175.25" y="262.35" width="2.84" height="2.84" fill="#afafaf"/><rect x="175.25" y="267.1" width="2.84" height="2.84" fill="#afafaf"/><rect x="175.25" y="271.85" width="2.84" height="2.84" fill="#afafaf"/><rect x="175.25" y="276.61" width="2.84" height="2.84" fill="#afafaf"/><rect x="175.25" y="286.12" width="2.84" height="2.84" fill="#afafaf"/><rect x="324.88" y="193.87" width="2.84" height="2.84" fill="#afafaf"/><rect x="324.88" y="198.62" width="2.84" height="2.84" fill="#afafaf"/><rect x="324.88" y="203.38" width="2.84" height="2.84" fill="#afafaf"/><rect x="324.88" y="208.13" width="2.84" height="2.84" fill="#afafaf"/><rect x="324.88" y="212.89" width="2.84" height="2.84" fill="#afafaf"/><rect x="324.88" y="217.64" width="2.84" height="2.84" fill="#afafaf"/><rect x="324.88" y="222.39" width="2.84" height="2.84" fill="#afafaf"/><rect x="324.88" y="227.15" width="2.84" height="2.84" fill="#afafaf"/><rect x="324.88" y="231.9" width="2.84" height="2.84" fill="#afafaf"/><rect x="324.88" y="236.66" width="2.84" height="2.84" fill="#afafaf"/><rect x="324.88" y="241.41" width="2.84" height="2.84" fill="#afafaf"/><rect x="324.88" y="250.92" width="2.84" height="2.84" fill="#afafaf"/><rect x="324.88" y="255.67" width="2.84" height="2.84" fill="#afafaf"/><rect x="324.88" y="260.43" width="2.84" height="2.84" fill="#afafaf"/><rect x="324.88" y="265.18" width="2.84" height="2.84" fill="#afafaf"/><rect x="324.88" y="269.94" width="2.84" height="2.84" fill="#afafaf"/><rect x="324.88" y="274.69" width="2.84" height="2.84" fill="#afafaf"/><rect x="324.88" y="279.44" width="2.84" height="2.84" fill="#afafaf"/><rect x="324.88" y="284.2" width="2.84" height="2.84" fill="#afafaf"/><rect x="329.38" y="193.87" width="2.84" height="2.84" fill="#afafaf"/><rect x="329.38" y="198.62" width="2.84" height="2.84" fill="#afafaf"/><rect x="329.38" y="203.38" width="2.84" height="2.84" fill="#afafaf"/><rect x="329.38" y="208.13" width="2.84" height="2.84" fill="#afafaf"/><rect x="329.38" y="212.89" width="2.84" height="2.84" fill="#afafaf"/><rect x="329.38" y="217.64" width="2.84" height="2.84" fill="#afafaf"/><rect x="329.38" y="222.39" width="2.84" height="2.84" fill="#afafaf"/><rect x="329.38" y="227.15" width="2.84" height="2.84" fill="#afafaf"/><rect x="329.38" y="231.9" width="2.84" height="2.84" fill="#afafaf"/><rect x="329.38" y="236.66" width="2.84" height="2.84" fill="#afafaf"/><rect x="329.38" y="241.41" width="2.84" height="2.84" fill="#afafaf"/><rect x="329.38" y="246.16" width="2.84" height="2.84" fill="#afafaf"/><rect x="329.38" y="250.92" width="2.84" height="2.84" fill="#afafaf"/><rect x="329.38" y="255.67" width="2.84" height="2.84" fill="#afafaf"/><rect x="329.38" y="260.43" width="2.84" height="2.84" fill="#afafaf"/><rect x="329.38" y="265.18" width="2.84" height="2.84" fill="#afafaf"/><rect x="329.38" y="269.94" width="2.84" height="2.84" fill="#afafaf"/><rect x="329.38" y="274.69" width="2.84" height="2.84" fill="#afafaf"/><rect x="329.38" y="279.44" width="2.84" height="2.84" fill="#afafaf"/><rect x="329.38" y="284.2" width="2.84" height="2.84" fill="#afafaf"/><rect x="302.7" y="212.39" width="2.84" height="2.84" fill="#afafaf"/><rect x="302.7" y="217.14" width="2.84" height="2.84" fill="#afafaf"/><rect x="302.7" y="221.89" width="2.84" height="2.84" fill="#afafaf"/><rect x="302.7" y="226.65" width="2.84" height="2.84" fill="#afafaf"/><rect x="302.7" y="231.4" width="2.84" height="2.84" fill="#afafaf"/><rect x="302.7" y="236.16" width="2.84" height="2.84" fill="#afafaf"/><rect x="302.7" y="240.91" width="2.84" height="2.84" fill="#afafaf"/><rect x="302.7" y="245.66" width="2.84" height="2.84" fill="#afafaf"/><rect x="302.7" y="250.42" width="2.84" height="2.84" fill="#afafaf"/><rect x="302.7" y="255.17" width="2.84" height="2.84" fill="#afafaf"/><rect x="307.2" y="212.39" width="2.84" height="2.84" fill="#afafaf"/><rect x="307.2" y="217.14" width="2.84" height="2.84" fill="#afafaf"/><rect x="307.2" y="221.89" width="2.84" height="2.84" fill="#afafaf"/><rect x="307.2" y="226.65" width="2.84" height="2.84" fill="#afafaf"/><rect x="307.2" y="231.4" width="2.84" height="2.84" fill="#afafaf"/><rect x="307.2" y="236.16" width="2.84" height="2.84" fill="#afafaf"/><rect x="307.2" y="240.91" width="2.84" height="2.84" fill="#afafaf"/><rect x="307.2" y="245.66" width="2.84" height="2.84" fill="#afafaf"/><rect x="307.2" y="250.42" width="2.84" height="2.84" fill="#afafaf"/></g><path d="M83.25,94.75a8.8,8.8,0,0,0-8.76-8.82,9.07,9.07,0,0,0-2.59.38A18.68,18.68,0,0,0,50,65.25,16.32,16.32,0,0,0,19.72,73.5h-.27a15,15,0,0,0,0,30.08H74.69A8.81,8.81,0,0,0,83.25,94.75Z" fill="#e6e6e6" opacity="0.3" style="isolation:isolate"/><path d="M315.91,75.36a5.63,5.63,0,0,1,5.63-5.63h0a5.91,5.91,0,0,1,1.61.23,12.32,12.32,0,0,1-.12-1.72,11.92,11.92,0,0,1,11.91-11.93h0a12.49,12.49,0,0,1,2.19.21,10.42,10.42,0,0,1,19.32,5.27h.18a9.6,9.6,0,0,1,0,19.2H321.38A5.62,5.62,0,0,1,315.91,75.36Z" fill="#e6e6e6" opacity="0.3" style="isolation:isolate"/><path d="M203.79,14.61a3.45,3.45,0,0,1,3.45-3.45h0a3.46,3.46,0,0,1,1,.15,6.23,6.23,0,0,1-.08-1.06,7.3,7.3,0,0,1,7.3-7.3,6.86,6.86,0,0,1,1.35.13A6.38,6.38,0,0,1,228.66,6.3h.1a5.88,5.88,0,0,1,0,11.76h-21.6A3.45,3.45,0,0,1,203.79,14.61Z" fill="#e6e6e6" opacity="0.3" style="isolation:isolate"/></g><g id="Shadow"><ellipse id="_Path_" data-name=" Path " cx="196.25" cy="335.34" rx="193.89" ry="11.32" fill="#f5f5f5"/></g><g id="Street"><path d="M0,304.27V318H386v-13.7a4.08,4.08,0,0,0-3.86-4.29H4.05a4.08,4.08,0,0,0-4,4.12A1.09,1.09,0,0,0,0,304.27Z" fill="#afafaf"/><rect x="340.01" y="299.97" width="24" height="18" fill="#9e9e9e"/><rect x="295.01" y="299.97" width="23" height="18" fill="#9e9e9e"/><rect x="249.01" y="299.97" width="24" height="18" fill="#9e9e9e"/><rect x="204.01" y="299.97" width="23" height="18" fill="#9e9e9e"/><rect x="159.01" y="299.97" width="23" height="18" fill="#9e9e9e"/><rect x="113.01" y="299.97" width="24" height="18" fill="#9e9e9e"/><rect x="68.01" y="299.97" width="23" height="18" fill="#9e9e9e"/><rect x="22.01" y="299.97" width="24" height="18" fill="#9e9e9e"/></g><g id="Device"><path d="M135.47,239.71l29.88-.13c4.24-.78,8.5-.3,12.75-.27,2.83,0,4.22,1.5,4.29,4.37s-.29,5.51.5,8.2A9.15,9.15,0,0,1,183,255c-1,10.87-.25,21.76-.44,32.64,0,1.5.29,3-.26,4.5-1.45,1.41-3.31,1.23-5.09,1.26-4.28.06-8.58.15-12.86,0-5.21-.2-9.67,1.49-14,4.33-5.61,3.69-11.68,3.15-17.75,1-.65-5.11-.19-10.24-.2-15.36,0-12.2.11-24.41,0-36.61C132.39,244,132.16,241.1,135.47,239.71Z" fill="#afafaf"/><path d="M135.47,239.71c-1.78,1.52-1.8,3.55-1.8,5.68q.06,24.28,0,48.57c0,1.63.34,3.35-.86,4.77a3,3,0,0,1-1.32,1,15.91,15.91,0,0,1-5,.48H84.05c-2.15,0-4.5.46-6.23-1.49,1.59-2.94-.1-5.89,0-8.83C78.44,277,77,264,78.5,251.1c.23-2-.6-4.08-.65-6.13-.1-3.4,1.17-5.36,5.13-5.32C100.51,239.75,118,239.69,135.47,239.71Z" fill="#ebebeb"/><path d="M181.94,252.23c-1.19-2.79-.46-5.71-.52-8.57,0-2.47-1-3.28-3.48-3.38-4.19-.17-8.48,1-12.59-.7a111,111,0,0,1,5.73-14.14c2.84-3.25,7-3.81,10.76-4.93q22.08-6.62,44.32-12.69c4.82-1.33,7,.72,5.65,5.62-2.11,7.77-5.67,15-8.39,22.58-.88,2.44-1,5.21-3,7.22a3,3,0,0,1-1.42.25c-10.52-.16-21,0-31.54-.06-3,0-4.26,1.25-4.17,4.22C183.37,249.27,183.44,251,181.94,252.23Z" fill="#d7a126"/><path d="M178.45,207c2-7.17,5.47-13.74,7.91-20.73.68-1.92,1.85-3.7,1.71-5.86,1.73-1.61,3.89-1.19,5.91-1.2h44.88c-1.25-1.68-3.29-2.39-4-4.29-.32-3,.38-5.21,4.11-4.7,3.33,2.14,6.56,4.47,10,6.34,2.27,1.21,2.5,2.43,1.59,4.62-2.72,6.5-5.19,13.11-7.9,19.61-1,2.44-1.33,4.23,1.53,5.7a73.3,73.3,0,0,1,7.09,4.78c-.94,2.72-2.81,3.58-5.46,2.59a15.23,15.23,0,0,0-3.57-.8c-1.43-.11-2.66-1.07-4.14-1-4.1.3-4.89-.48-4.45-4.5.39-3.61,2.18-6.86,2.81-10.41.76-4.32.08-5.12-4.19-4-10.32,2.67-20.43,6.05-30.72,8.83-6.41,1.73-12.88,3.3-19.22,5.29C181.09,207.73,179.66,208.26,178.45,207Z" fill="#e8be2d"/><path d="M178.45,207c16-4.28,32-8.27,47.72-13.54,3-1,6.17-1.43,9.22-2.29,2-.57,2.45.39,2.56,2a21,21,0,0,1-1.7,8.84c-1.14,3-2.09,6-1.49,9.25,1.56.34,2.77-.4,4-.88.85,1.36.21,2.47-.59,3.56a7.13,7.13,0,0,0-2.19,3.43c-1.47,5.45-3.27,10.8-5.21,16.12-2.18,6-2,6,3.17,9.7,1.36,1,3.9,1.45,2.89,4.19a3.51,3.51,0,0,1-3.57,0c-3.5-1.87-7.37-2.14-11.18-2.69-.87-.31-1.85-.51-1.72-1.77,1.21-7.61,4.86-14.37,7.42-21.5,1.12-3.13,2.4-6.22,3.24-9.42s-.6-4.34-3.75-3.45c-15.15,4.28-30.32,8.51-45.44,12.89-3.68,1.06-7.22,2.59-10.82,3.91C173.33,219.22,175.13,212.82,178.45,207Z" fill="#e0b22b"/><path d="M77.83,298.67l48.85.12c1.79,0,3.58.1,5.37.15-.35,4.93-.85,9.85.07,14.79a3.61,3.61,0,0,1-1.47,3.66,2.59,2.59,0,0,1-2.58.13c-1.38-1.52.43-5.2-3.51-5.06-2,.07-3.63.2-4,2.63a3.25,3.25,0,0,1-1.59,2.77c-.55.12.15.15-.4.14-10.5-.23-21,.21-31.51,0-.48-.25-1-.49-1.13-1.1-.29-2.15,0-4.37-3.43-4.48s-3.46,2.4-4.15,4.52c-2,2-.19,5.12-2.23,7.06-1.68-2.4-.67-5.09-.75-7.64-.14-4.44,0-8.89,0-13.33C75.31,301,75.85,299.45,77.83,298.67Z" fill="#6f6f6f"/><path d="M127.68,317.1l2.66.07.5.47c.41,4.64,2.86,6.6,7.55,6.1,1.07-.11,3.27-.28,2.52,2.23-3.74,1.57-7.67.62-11.5.81-2.63.13-5.27.07-7.89.21a11,11,0,0,0-9.26,2.22c-3.13,2.39-6.74,2.07-10-.2a17.66,17.66,0,0,0-2.3-1.75c-1-.47-2.18-1-3,.07s.06,1.84.55,2.63a12.16,12.16,0,0,0,5.31,5.05c1,.47,2.61.39,2.63,2.14a29,29,0,0,1-10-.7,12.08,12.08,0,0,1-8.12-7.67c-1.12-3.21-3-3.7-5.86-3.52-1.8.11-3.93.78-5.29-1.26,0-1.78.11-3.57,0-5.35-.09-1.59.67-1.87,2-1.61a7.47,7.47,0,0,1,7.92.09q16.88-.79,33.75-.07A7.46,7.46,0,0,1,127.68,317.1Z" fill="#585858"/><path d="M299.47,243l22.61,14.3c1,.52,2.16.57,3.1,1.21,4.5,2.07,7.87,5.07,8.55,10.3V305.5c-3.58,1.91-4.11-.67-4.26-3.14-.33-5.08-.1-10.17-.13-15.26s0-10.45,0-15.93c-1.47.67-1.92,2.17-3.11,2.78-2.32,1.08-4.14-.49-6.12-1.17-1.5-1.15-.73-2.38-.08-3.58.5-.94,1.29-1.79.82-3-4.06-4.25-9.33-6.77-14.15-9.91-1.52-1-1.82.48-2.26,1.45-2.07,5-3.9,10.06-5.89,15.07-.59,1.47-.85,3.3-2.86,3.74-1.64-1.19-3.69-1.55-5.39-2.64-.64-3.7,1.65-6.6,2.73-9.81,1.46-4.31,3.82-8.31,4.54-12.87-1.44-2.75-4.5-3.5-6.6-5.41-1-.86-3-1.29-1.71-3.35C292.68,241.66,296.08,242.2,299.47,243Z" fill="#d69f27"/><path d="M299.47,243c-3.56,1.36-7.1-.29-10.65,0-1.56.73-2.63-.43-3.82-1-1.54-.78-1.95.23-2.35,1.36-1.27,1.88-.9,4.83-3.71,5.7-1.46-1.73-1.23-4.93-4.46-5.11-1.21-2.69,1.89-4.84.91-7.49-3.26-4-8-5.86-12.12-8.59-1.59-1.06-2.16.32-2.65,1.53-2.87,5.55-4.8,11.49-7.21,17.23-.58,1.37-.76,3-2.69,3.28a1.44,1.44,0,0,1-.76-1.74c.74-2.75-1-3.64-3.1-4.27-.91-1.52-.18-2.91.37-4.29,1.71-4.33,3.33-8.68,5.23-12.93.61-1.37,1.34-2.71,1-4.3-1.77-3.14-5.22-4.15-7.82-6.21-1.4-1.1-3.71-1.45-3.53-4,.95.07,2.17-.21,2.81.27,2.65,2,4.52.53,6.43-1.13C267.44,221.76,283.79,231.88,299.47,243Z" fill="#e0b22b"/><path d="M325.46,273.8l4.2-6.1c1.41.83.78,2.06.79,3,.07,10.47.13,20.95.05,31.42,0,2.38.53,3.76,3.19,3.37,0,.29-.07.59-.1.89-9,.82-18,.27-27,.3-3.16,0-3.68-2.84-4-5.42.49-2.1,2.55-1.52,3.84-2.26,1.53-.54,2.33-1.81,3.22-3.07,4.37-6.22,8.45-12.62,12.64-18.95A9.83,9.83,0,0,1,325.46,273.8Z" fill="#ad6519"/><path d="M293,336.5a22.11,22.11,0,0,1-7.64.6c-7.72-2.4-12.27-11.43-10.47-20,1.58-7.52,10-15.62,18.23-12.93a22.73,22.73,0,0,1,7,5.1,11.2,11.2,0,0,1,2.73,8.74C303.82,327.49,300.62,333.47,293,336.5Z" fill="#575857"/><path d="M235.42,174.57l7.38,5.88H188.07l-7.69-5.08c.57-2.23,2.51-2,4.06-2q23.55-.21,47.1,0A5.51,5.51,0,0,1,235.42,174.57Z" fill="#c1791d"/><path d="M235.42,174.57H184.69c-1.45,0-3.08-.62-4.31.76-.42-3.29,1.53-6.21,4.36-6.22,17.17-.11,34.35-.15,51.53-.21,1.11,0,2.29-.13,2.7,1.31C236.68,170.78,235.37,172.1,235.42,174.57Z" fill="#f4e171"/><path d="M303.17,300.51c.7,4.65,3.25,6.21,8,5.94,7.45-.41,14.95-.08,22.42-.07-2.55,1.51-5.34.61-8,.69-5.38.16-10.77.17-16.15,0-3.29-.1-3.36,1.06-2.18,3.63,2.79,6.11,2.71,6.15-4.17,6.64l-.23-.35c4.5-2.15,1.29-4.52.4-7.09-2.05-5.92-6.15-7.59-11.9-6.54-12.63.09-25.25.13-37.86,0-4-.05-6.4,1.46-8.18,5-1.62,3.2-2.44,7.24-6.67,8.45a1.51,1.51,0,0,1-1.26-1.73,1.42,1.42,0,0,1,.19-.52c2.28-5.56,3.94-11.42,7.91-16.16a10.83,10.83,0,0,1,4.3-1c15.66.36,31.33,0,47,.21C299.25,297.61,302.31,296.81,303.17,300.51Z" fill="#afadab"/><path d="M76.25,272.15c-5.82,2.63-7.46,1.67-7.46-4.38v-4.14c0-6.13,1.31-7,7.39-4.8A55,55,0,0,1,76.25,272.15Z" fill="#707070"/><path d="M292.16,302.16c9.06-.05,10.58,1.32,15.21,13.67-1.14,1.31-3.4-.5-4.28,1.51a2.06,2.06,0,0,1-.17.69c-.84-6.26-5-10.08-9.83-13.43C292.25,304,291.56,303.32,292.16,302.16Z" fill="#858585"/><path d="M333.73,268.83c-1.16-1.23-3.65-1.63-2.16-4.4.56-1-1-1.77-2-2.16a10.76,10.76,0,0,1-5-3.38c.87-3,3.46-3.88,5.89-5,4.88,0,6.55,2.21,4.08,6.17C332.76,263,334.68,266,333.73,268.83Z" fill="#e5bb2e"/><path d="M330.53,253.89l-5.89,5a3.27,3.27,0,0,1-2.56-1.57C325.17,256.85,326.74,252.64,330.53,253.89Z" fill="#f3e174"/><path d="M76.25,272.15q0-6.66-.07-13.32A24,24,0,0,1,76.25,272.15Z" fill="#ebebeb"/><path d="M182.14,292.1c3.42,1.26,1.93,4.34,2.46,6.67,2.17,5.22,1.21,10.61.63,15.92-.22,1.93-2,2.93-4,3.08-1.79.13-2.78-1-3.44-2.51-.5-1.14-.88-2.33-1.46-3.44-2.85-5.42-7.08-9.12-13.42-9a14.18,14.18,0,0,0-13.34,9.69c-1.82,4.88-4.65,6.41-9.38,5.83-3.24-.41-6.67.86-9.74-1.09l-.13-.13c2.08-3.86-.61-7.7-.06-11.62.33-2.32.44-4.58,1.77-6.58a3.24,3.24,0,0,1,.77-.21c2.08,0,4.15,0,6.22.08,4.57.18,8.81,0,12.7-3.35,3.12-2.73,7.41-3.46,11.72-3.37C169.68,292.21,175.91,292.1,182.14,292.1Z" fill="#585858"/><path d="M151,248.88c3.88,0,7.76.09,11.64,0,3-.1,4.38,1,4.32,4.09-.08,5.13,0,10.26,0,15.38,0,2.34-1,3.48-3.42,3.8-7.66,1-15.31,2.14-23,3.28-2.85.42-4.68.2-4.49-3.62.31-6.36.26-12.75,0-19.11-.13-3.31,1.16-4,4.11-3.84C143.77,249.1,147.38,248.88,151,248.88Z" fill="#51527e"/><path d="M197.9,264.64l-15.79-10.1c-.06-.77-.11-1.54-.17-2.31.47-10.08.47-10.08,10.85-10.08H215.3c1.46,0,3.09-.55,4.32.82a2.24,2.24,0,0,1-2.15,1.64c-4.1.12-6.15,3-8.48,5.77C205.15,255,201.94,260.16,197.9,264.64Z" fill="#c17a1d"/><path d="M131.13,255.47V258c-3.72.09-6.3,2.71-9.35,4.26-7,3.57-13.48,8.17-20.5,11.9,4.87.36,9.66.31,14.47.2,3.58,0,7.15-.22,10.72-.11,1.64.05,3.33,0,4.66,1.22-1,1.41-2.55.8-3.85.8-15.36,0-30.73.23-46.08-.78-1.2-3.12.15-4.37,3-5.87,8.34-4.34,16.36-9.3,24.62-13.83a10.15,10.15,0,0,1,2.62-1.24c5.41-.43,10.82-.15,16.23-.18A4.62,4.62,0,0,1,131.13,255.47Z" fill="#a0aadc"/><path d="M80.56,254.42c.11-6.24-.85-5.48,5.5-5.5h39.79c5.43,0,5.43,0,5.23,5.67-.24.15-.48.42-.71.41-15.65-.28-31.27,1.48-46.93.78a6,6,0,0,1-1.63-.31A3.26,3.26,0,0,1,80.56,254.42Z" fill="#51537e"/><path d="M80.56,254.42a1.89,1.89,0,0,1,.63.25c7.81.93,15.65.14,23.47.44,1.9.07,3.85-.45,5.7.4-4.86,4.33-11,6.58-16.5,9.8-3.74,2.18-7,5.28-11.5,6.23-2,.42-.86,2.58-1.18,3.94-1.66-3.79-.53-7.76-.74-11.64C80.25,260.71,80.51,257.56,80.56,254.42Z" fill="#b0bdeb"/><path d="M114.65,275.42H97.79c4.23-3.92,8.9-5.42,12.92-7.95,5.39-3.38,11-6.41,16.53-9.54,1.25-.71,2.61-1.92,3.86.06v11.66c-4.07-1.82-6.76,1.3-9.67,3A21.7,21.7,0,0,1,114.65,275.42Z" fill="#8e96ca"/><path d="M105.86,285.64h13.72c1.06,0,2.43-.24,2.53,1.38s-1.22,1.93-2.55,1.93H92.12c-1.37,0-2.62-.29-2.53-2s1.52-1.31,2.54-1.32C96.71,285.62,101.25,285.64,105.86,285.64Z" fill="#737373"/><path d="M105.7,295.59H92.39c-1.3,0-2.66-.12-2.77-1.78-.14-2.08,1.58-1.52,2.67-1.53q13.51-.06,27,0c1.13,0,2.76-.46,2.77,1.51,0,1.76-1.39,1.81-2.67,1.81Z" fill="#727272"/><path d="M114.65,275.42c4.11-2.35,8.4-4.46,12.28-7.14,2.51-1.72,3.26-.57,4.15,1.37v5.81Z" fill="#787cb4"/><path d="M110.36,255.51c-8.28,0-16.57,0-24.85-.08-1.45,0-3.07.54-4.32-.76l49.89-.09v.89Z" fill="#8e96ca"/><path d="M197.9,264.64c5.73-8.73,9.58-19.35,21.72-21.66h.81a1.71,1.71,0,0,0,1.64.85c5.53,2.31,10.29,5.92,15.23,9.21a3.76,3.76,0,0,1,2,2.54c-.15,2.67-2.11,4.4-3.52,6.35-1.83,2.52-4.18,4.63-5.69,7.44-.74,1.4-2,2.24-3.78,1.39-1.41-1.57.37-3.38-.31-5.47-2.54,2.92-3.49,6.18-4.83,9.24-.67,1.52-.73,3.67-3.23,3.54C211.59,273.1,204.08,269.84,197.9,264.64Z" fill="#b86f1b"/><path d="M242.08,212.16c2.77,3.08,6.84,4.33,9.83,7.05.79.71,3,.78,1.86,2.85a2.14,2.14,0,0,1-1.62.86A30.59,30.59,0,0,1,238,213.79l.84-3.28C240,211,240.68,212.25,242.08,212.16Z" fill="#c17b1f"/><path d="M238.78,255.5a133.69,133.69,0,0,0-13.26-8.87c-1.23-.75-2.79-1.25-3.45-2.78,4.07.41,8.24.23,11.85,2.79.79.56,2.12.36,3.2.51,1.51-.68,2.52.47,3.71,1,.91.42,1.78,1.45,2.85.28,1.2-1.5.6-4.32,3.39-4.64,4.51-.83,4.94-.09,3.4,5.86,1.32,8.44,8.61,10.2,14.78,13.17,3.05-4.93,4.38-10.58,6.8-15.76.59-1.25.46-3.13,2.52-3.27,5.4-1.68,4,2.36,4.24,5,1,1.19.26,2.34-.13,3.46-1.45,4.14-2.86,8.32-4.68,12.31-1.19,2.6-1,4.31,1.52,5.86,1.26.77,3.12,1.49,2.31,3.69-3.08,1.52-6.32.09-9.46.54a9.31,9.31,0,0,1-3-1c-8.14-5-15.84-10.68-24-15.58A5.27,5.27,0,0,1,238.78,255.5Z" fill="#d7a126"/><path d="M244.59,249.6c-3.49,2.21-4.81-2.16-7.47-2.45-1.8-2.38-4.57-3.45-6.92-5.09-2-1.38-2.67-2.83-1.7-5.25a160.84,160.84,0,0,0,6.72-20.3c.41-1.64.71-3,2.77-2.72,4.83,2.7,9,6.41,14.18,8.62,0,4.43-2.34,8.12-3.87,12-1.25,3.2-2.38,6.46-3.65,9.65C244,245.79,243.3,247.76,244.59,249.6Z" fill="#e8bf2d"/><path d="M130.47,317.27c4.3,0,8.6-.17,12.89-.07,2.21,0,3.34-.39,4.06-2.85a17.18,17.18,0,0,1,9.92-11.51c10-4.22,18.07,2.41,21.2,10.84.56,1.51.28,3.67,2.75,3.27s3.4-1.93,3.32-4.46c-.14-4.57,0-9.14,0-13.72l24.67-.08c2.17-1.38,4.57-1.18,7-1.06,6.63.06,13.28-.56,19.89.37,2.45,1.17,1.43,3,.69,4.56-1.42,3-2.62,6.11-4.13,9.06-1.36,2.66-.92,3.86,2.21,3.69a4.5,4.5,0,0,1,3.12.93c2.05.71,2.26-1.13,2.88-2.2,1.87-3.23,3.65-6.52,5.4-9.82a3.56,3.56,0,0,1,3.5-2.3c14.13.14,28.25.18,42.37.24l.93,2.44c-10.37.54-15.8,4.52-17.25,14-1.25,8.12,2.43,14.39,9.56,18.54a22.56,22.56,0,0,1-8.22-.69c-3.93,0-6.36-2.06-7.75-5.58-.55-1.87.31-3.53.82-5.24,1.89-6.36.07-11.91-4.32-16.45-5.08-5.25-14.17-3.45-18.08,3.26a16.89,16.89,0,0,0,3.85,21.45c1.09.9,2.94,1.24,2.81,3.22a23.74,23.74,0,0,1-8.27-.59,46.25,46.25,0,0,0-8.32-.06,19,19,0,0,1-6.62.67c-4.16-.37-7-2.69-9.15-6.09-3.61-5.78-3.93-5.77-7.54.09-2.26,2.54-4,5.85-8.22,5.44-2,.13-3.9,1-5.94.55-3.83-.15-7.2-1.51-8.78-5.06-2-4.42-5.12-6.11-9.73-5.64a9.47,9.47,0,0,1-1.2-.26c-3.34-.2-5.41-1.31-5-5.33a13.37,13.37,0,0,0-1.4-6.46c-2.27-5.24-7.79-8.92-12.34-8.26-5.83.84-10.73,6.17-11.35,12.24-.7,6.74,1.09,12.36,7,16.28.86.57,2.07,1,1.81,2.49a26.4,26.4,0,0,1-8.36-.55,11,11,0,0,1-9.84-11.1c-1.06-1.3-2.53-.77-3.83-.79C130.32,324.53,130.32,324.55,130.47,317.27Z" fill="#363636"/><path d="M254.51,337.1c-9.71-6.41-12.57-15.16-8.1-24.38a13.24,13.24,0,0,1,11.47-7.79c4.7-.29,8.78,2,11.27,6.44,2.86,5.05,4.14,10.24,1.7,15.82a4.63,4.63,0,0,0-.5,3.56c-2.18,3.11-4.28,6.33-8.83,5.84A17.3,17.3,0,0,1,254.51,337.1Z" fill="#575757"/><path d="M159.46,337.1c-7.23-4-10.68-9.92-10-18.39.57-6.82,6.32-13.3,13.13-14,5.45-.53,12.47,5.62,13.64,11.93.17.95.73,1.94.57,2.81-.65,3.66,1,5.48,4.45,6a12.18,12.18,0,0,0-6.94,6.33c-1.59,3-4.14,5-7.9,4.72C164.12,336.88,161.83,337.52,159.46,337.1Z" fill="#575857"/><path d="M120.43,326.43a13.82,13.82,0,0,1-9.17,10.1c-2,.13-3.86,1-5.88.58a13.66,13.66,0,0,1-9.16-7c-.71-1.35-2.37-3.16-.68-4.24a5,5,0,0,1,5.46.37c6.31,4.87,6.86,4.86,13,.3A5,5,0,0,1,120.43,326.43Z" fill="#363636"/><path d="M191.13,336.55c-5.57-1.65-8.38-5.75-9.84-11.06a28.88,28.88,0,0,0,4.16,0c2.77-.38,4.33.69,5.39,3.29a13.74,13.74,0,0,0,9.61,8.32A30.7,30.7,0,0,1,191.13,336.55Z" fill="#585858"/><path d="M213.79,330.58a25.4,25.4,0,0,0,1.69-3.23c.59-1.64,1.8-1.83,3.26-1.86a2.42,2.42,0,0,1,2.71,1.86,15.8,15.8,0,0,0,9.85,9.74,27.27,27.27,0,0,1-9.27-.63C217.61,336.85,215.69,333.73,213.79,330.58Z" fill="#585858"/><path d="M127.68,317.1H119.8c-.31-1.86-1.2-4.37.3-5.39,2-1.34,5.05-1.12,7.11-.22C129.63,312.47,128.63,315,127.68,317.1Z" fill="#f3f3f3"/><path d="M86.05,317.1,78.13,317c-.3-1.87-1.24-4.39.37-5.41a8,8,0,0,1,7.18-.19C88,312.5,87.14,315.1,86.05,317.1Z" fill="#eaeaea"/><path d="M103.18,315.57H97.82a1.47,1.47,0,0,1-1.58-1.35.49.49,0,0,1,0-.17,1.52,1.52,0,0,1,1.17-1.81,1.39,1.39,0,0,1,.5,0h10.73a1.45,1.45,0,0,1,1.57,1.34.91.91,0,0,1,0,.17,1.56,1.56,0,0,1-1.23,1.84,1.36,1.36,0,0,1-.45,0C106.75,315.61,105,315.58,103.18,315.57Z" fill="#a8a8a8"/><path d="M124.14,308h-3.27c-1,0-1.39-.68-1.36-1.64a1.37,1.37,0,0,1,1.18-1.55,1.06,1.06,0,0,1,.31,0,14,14,0,0,1,2.89,0c1.55.3,4.3-1.17,4.36,1.52C128.31,309.58,125.25,307.26,124.14,308Z" fill="#ebebeb"/><path d="M81.88,308.2a14.48,14.48,0,0,1-3.53-.59c-.83-.35-.64-1.49-.23-2.21.54-.94,7.61-.95,8.31,0a1.53,1.53,0,0,1,0,2.16l0,.06C85.07,308.61,83.43,307.76,81.88,308.2Z" fill="#ebebeb"/><path d="M267.89,273.89c3.36-1,6.73.29,10.09-.07,2-.66,3.41.74,4.9,1.66,1.29.8,2.36,2,4,2,1.83-.62,1.59-3.29,3.64-3.69,2,.16,4.57-.79,5,2.52a2,2,0,0,1,.41,1.92c-.36,2-1.85,4.29.38,5.73,3.21,2.06,5.61,5.79,10.13,5.37q4.92-6.57,9.18-13.6c1-1.53,1.49-3.68,3.94-3.66,2.29-.56,3.87,1.35,5.91,1.69-5.26,8-10.54,16.06-15.76,24.13a3.17,3.17,0,0,1-2.58,1.77c-1.61.91-2.58-.44-3.66-1.12-10.84-6.84-21.41-14.1-32.3-20.88C269.74,276.83,267.77,276.19,267.89,273.89Z" fill="#ca8a21"/><path d="M307.14,290.52c-1.11,1.55-2.26.5-3.26-.06-1.44-.81-2.77-1.82-4.15-2.74-6.32-4.23-6.32-4.23-4.22-11.36,3.41-5.58,4.67-12.06,7.48-17.89a11.94,11.94,0,0,1,.87-1.35c1.3-.95,2.37-.1,3.35.56,4.18,2.81,8.48,5.44,12.55,8.43-.86,4.76-4.55,7.93-6.83,11.88-1.37,2.35-3,4.59-4.53,6.85C307.25,286.5,306.07,288.3,307.14,290.52Z" fill="#e8bf2d"/><path d="M290.52,273.84c-1.49,1.43-.72,4.35-3.36,5a5.18,5.18,0,0,1-.84-5.47c2.91-7.54,4.9-15.48,9.4-22.36.93-.76,1.89-1.37,3.09-.51-.21,4.71-3,8.54-4.4,12.86C293.25,266.91,291.83,270.35,290.52,273.84Z" fill="#f4e170"/><path d="M307.14,290.52c-2.94-1.18-1.55-3.11-.57-4.59,4.3-6.54,8.74-13,13.13-19.46a1.11,1.11,0,0,1,1.54-.31l.09.07c1.11.18,1.31.62.65,1.62-.9,1.36-1.62,2.84-2.42,4.27Z" fill="#f4e170"/><path d="M321.33,266.23l-1.63.24c-4.47-1.57-7.92-4.84-11.92-7.2-1.27-.76-2.29-2-3.92-2.15.25-2.11.66-3.44,3.22-1.73,4.55,3,9.28,5.84,13.94,8.73C322,264.72,321.73,265.46,321.33,266.23Z" fill="#c07c1e"/><path d="M298.81,250.5l-2.51.87a2.12,2.12,0,0,1-2.67,0c-3.79-2.83-8.25-4.76-11.42-8.43-.34-2.7.36-3.84,3.07-2.1,1.16.75,2.36,1.45,3.53,2.17C291.82,245.93,296,247.26,298.81,250.5Z" fill="#c27b1e"/><path d="M282.25,242.92c3.71,1.6,6.83,4.13,10.08,6.44a9.51,9.51,0,0,0,4,2c-3.7,6.79-5.67,14.31-8.81,21.34-.78,1.75-.26,4.07-.33,6.13-3.66-.57-5.76-4-9.18-5-1.35-2.88-6.58-2.54-6.14-6.42.35-3.05,2.23-5.91,3.37-8.88,1.24-3.21,2.4-6.46,3.6-9.69C280.83,247.37,280.14,244.35,282.25,242.92Z" fill="#e8bf2d"/><path d="M265.56,264.59c-5.11-2.2-9.51-5.56-14.12-8.6-2.88-1.9-.85-4.2-1-6.33,2.55-3.13,3.19-7.13,4.84-10.67s2-7.54,5.22-10.22c5.78,1,10,4.52,13.77,8.62-.06,3.57-2,6.56-3.24,9.69C268.73,252.78,266.17,258.36,265.56,264.59Z" fill="#e8bf2d"/><path d="M265.56,264.59c-1.93-5.12,1.25-9.27,2.73-13.68,1.57-4.67,3.65-9.18,5.51-13.75.55-1.15,1.31-1.67,2.52-.85,1.27,2.93-1.52,4.91-1.75,7.49-2.46,6-5,12.06-7.35,18.13C266.82,263,266.66,264,265.56,264.59Z" fill="#f4e170"/><path d="M244.59,249.6c-3.13-1.24-1.84-3.79-1.18-5.54,2.74-7.28,5.81-14.45,8.76-21.65l1.6-.35c2.64,1.3.45,2.85,0,4-2.23,5.91-5.16,11.55-6.71,17.72C245.49,245.42,245.25,247.61,244.59,249.6Z" fill="#f4e171"/><path d="M276.32,236.31l-2.52.85-13.27-8.39c-.64-1.82-.77-4,1.88-2.58a158.16,158.16,0,0,1,13.41,8.62C276.16,235,276.16,235.79,276.32,236.31Z" fill="#c07c1f"/><path d="M267.89,273.89c4.49,4.38,10.28,6.85,15.36,10.35,7.81,5.38,15.9,10.33,23.87,15.47-1.1,1.32-2.62.6-3.95.8-1.06-2-2.91-1.71-4.71-1.7H253.64c-1.65,0-3.33.18-4.86-.68a3.75,3.75,0,0,1-3.92-2.66c.1-3.7,3.64-5.37,5-8.4,2-4.45,5.21-8.18,8.37-11.88,1.91-2.23,4.19-3.68,7.3-2.23Z" fill="#9e5516"/><path d="M297.11,321.1c-.06,4.91-3.4,8.72-7.65,8.72-4.46,0-7.61-3.87-7.5-9.2.1-4.93,3.51-8.65,7.78-8.51S297.16,316.25,297.11,321.1Z" fill="#cbcbcb"/><path d="M237,299h8.36L238,316.25c-8.48.45-8.49.45-5.32-7C234.13,305.79,235.59,302.38,237,299Z" fill="#858585"/><path d="M222.86,281.18c-1.71,6-5.14,11.43-6.46,17.6l-7.13-.09c2.58-6.79,4.45-13.88,8.62-20a3.52,3.52,0,0,1,4.18.21A2,2,0,0,1,222.86,281.18Z" fill="#4f4f4f"/><path d="M222,279.81a6.41,6.41,0,0,0-4.14-1.1,1.3,1.3,0,0,1,0-.62c3-3.23,3.41-7.66,5.43-11.35.82-1.49,1-4,3.46-2.85,2.29,1,.36,2.83.12,4.27a23.92,23.92,0,0,1-.66,2.34C225.89,274.1,225.15,277.48,222,279.81Z" fill="#d7d5d4"/><path d="M138.69,265.42q.09-1.87,0-3.75c-.25-2.56.5-3.84,3.41-3.73,2.65.1,4.3.65,4.1,3.74a61.65,61.65,0,0,0,0,6.66c.13,2.82-.21,4.69-3.9,4.82-4.12.14-3.62-2.32-3.59-4.83C138.7,267.36,138.69,266.39,138.69,265.42Z" fill="#363637"/><path d="M222,279.81l4.22-9.31c1,0,2,.09,2.54-1,2.47-5.28,7.59-8.67,10-14,9.15,5.46,18.09,11.24,26.75,17.46-4-.28-6,2.4-8.34,5.18-4.52,5.43-7.55,11.81-11.77,17.4l-22.56-14.36Z" fill="#a96018"/><path d="M204.25,317.15h-9.57c-1.77,0-2.39-.4-2-2.44a15.31,15.31,0,0,0,.11-6.6c-.74-3,.21-3.55,2.94-3.48q8.73.22,17.47,0c4.43-.11,4.86,2.53,4.78,6s.33,6.69-4.6,6.54C210.33,317.1,207.25,317.15,204.25,317.15Z" fill="#575757"/><path d="M209.46,324.89c-3.71,6.54-8.6,6.78-12.72.84C200.88,325.1,205,326.1,209.46,324.89Z" fill="#60605f"/><path d="M231.94,325.54c2.52-.1,5.17-.41,5.37,2.7.13,2-2,1.43-3.25,1.48-2.52.09-5.3-.68-5.6-3.2C228.25,324.59,230.94,326.1,231.94,325.54Z" fill="#5e5e5d"/><path d="M265.72,320.81c.08,5.09-3,8.91-7.23,9.06s-8-3.84-8-8.85c0-4.78,3.44-8.83,7.56-8.89C262.36,312.1,265.64,315.8,265.72,320.81Z" fill="#c8c8c8"/><path d="M170.56,321.19c-.05,4.93-3.3,8.7-7.52,8.69s-7.74-4-7.68-9c.06-4.83,3.43-8.68,7.6-8.7C167.34,312.1,170.61,316,170.56,321.19Z" fill="#c7c8c7"/><path d="M291.34,328.1c-3.27,1.91-5-.39-6.71-2.52a2,2,0,0,1,.44-.67c3.88-3.75,3.68-5.1-1.13-7.57,1-2,2.33-3.56,4.84-3.47,4.38,2.82,5.48,6.46,3.37,11.2C291.72,326,290.82,326.84,291.34,328.1Z" fill="#aeaeae"/><path d="M291.34,328.1c-.53-.46-3.2.72-1.42-1.45,3.93-4.77,2.38-8.8-1.14-12.78,3.63-.29,5.94,1.61,6.57,4.91C296.08,322.54,295.78,326.3,291.34,328.1Z" fill="#868686"/><path d="M283.94,317.3c2.17-.16,4.47-.68,4.89,2.6s-.87,5.2-4.2,5.64C282.83,322.92,282.39,320.2,283.94,317.3Z" fill="#878787"/><path d="M257.18,313.88c4.16-.63,6.19,1.67,7.16,5.29,1,3.91-.58,6.91-4.69,9-1.16.49-2.32,0-1.69-1.11C260.53,322.39,258.78,318.17,257.18,313.88Z" fill="#878787"/><path d="M257.18,313.88c3.89,4,4.8,8.25,1.49,13.07-.66,1,.42,1,1,1.18-2.8,1-4.85.38-5.86-2.62a1.24,1.24,0,0,1,.19-.36c3.93-4.5,3.88-4.9-1-7.94C254,315.6,255,314,257.18,313.88Z" fill="#afafaf"/><path d="M253,317.21c2.46-.28,4.52.33,4.89,3.09.4,2.95-1.38,4.52-4.08,5.21C250.93,323,251.89,320.1,253,317.21Z" fill="#868686"/><path d="M164.62,328.1c-3.24,1.6-5.06-.2-6.57-2.74,5-4,5-4.92-.17-8.22,1.06-1.54,2.08-3.13,4.22-3.28,4.33,2.67,5.59,6.79,3.52,11.33C165.19,326.1,163.86,326.77,164.62,328.1Z" fill="#afafaf"/><path d="M164.62,328.1c-.39-.48-2.64.56-1.33-1.15,3.7-4.85,2.68-9-1.19-13.09,4.31-.48,6.33,2,7,5.75S168.48,326.53,164.62,328.1Z" fill="#868686"/><path d="M157.88,317.15c2.56-.15,4.83.41,4.91,3.46s-1.53,4.8-4.74,4.76A6.9,6.9,0,0,1,157.88,317.15Z" fill="#878787"/></g></svg>