<svg xmlns="http://www.w3.org/2000/svg" viewBox="0 0 500 500"><g id="Background_Complete" data-name="Background Complete"><polygon points="434 380.79 434 333.97 430 333.97 430 311.67 424.14 311.67 424.14 234.1 415.68 234.1 415.68 224.09 397.62 215.67 397.62 205.57 395.12 205.57 395.12 234.1 391.62 234.1 391.62 311.67 388.11 311.67 388.11 270.88 378.61 270.88 378.61 249.86 375.95 249.86 375.95 311.67 368.73 311.67 368.73 288.14 363.98 288.14 363.98 282.14 352.97 282.14 352.97 261.62 346.94 261.62 346.94 247.11 339.53 247.11 339.53 225.97 336.88 225.97 336.88 247.11 329.47 247.11 329.47 261.62 323.44 261.62 323.44 282.14 312.43 282.14 312.43 288.14 307.68 288.14 307.68 311.67 302.04 311.67 302.04 282.14 291.03 282.14 291.03 218.59 287.53 218.59 287.53 211.58 264.01 211.58 264.01 218.59 259 218.59 259 264.62 238.99 264.62 238.99 269.13 231.48 269.13 231.48 272.63 238.99 272.63 238.99 290.65 217.97 290.65 217.97 230.6 213.46 230.6 213.46 217.84 203.71 217.84 203.71 172.55 200.95 172.55 200.95 217.84 193.95 217.84 193.95 230.6 152.87 230.6 152.87 226.4 150.37 226.4 150.37 254.92 146.87 254.92 146.87 255.42 144.76 255.42 144.76 283.94 141.26 283.94 141.26 291.7 133.86 291.7 133.86 270.68 131.21 270.68 131.21 320.73 128.25 320.73 128.25 299.71 125.6 299.71 125.6 332.49 123.98 332.49 123.98 308.97 119.23 308.97 119.23 302.96 108.22 302.96 108.22 282.44 102.19 282.44 102.19 267.93 94.78 267.93 94.78 246.79 92.14 246.79 92.14 267.93 84.72 267.93 84.72 282.44 78.69 282.44 78.69 302.96 67.69 302.96 67.69 308.97 62.93 308.97 62.93 331.99 62.08 331.99 62.08 332.49 59.72 332.49 59.72 380.79 434 380.79" fill="#e6e6e6" opacity="0.3"/><g opacity="0.3"><rect x="175.79" y="233.4" width="2.84" height="2.84" fill="#afafaf"/><rect x="175.79" y="238.16" width="2.84" height="2.84" fill="#afafaf"/><rect x="175.79" y="257.17" width="2.84" height="2.84" fill="#afafaf"/><rect x="175.79" y="261.93" width="2.84" height="2.84" fill="#afafaf"/><rect x="175.79" y="266.68" width="2.84" height="2.84" fill="#afafaf"/><rect x="175.79" y="280.94" width="2.84" height="2.84" fill="#afafaf"/><rect x="175.79" y="285.7" width="2.84" height="2.84" fill="#afafaf"/><rect x="180.3" y="252.42" width="2.84" height="2.84" fill="#afafaf"/><rect x="180.3" y="257.17" width="2.84" height="2.84" fill="#afafaf"/><rect x="180.3" y="261.93" width="2.84" height="2.84" fill="#afafaf"/><rect x="180.3" y="266.68" width="2.84" height="2.84" fill="#afafaf"/><rect x="180.3" y="271.43" width="2.84" height="2.84" fill="#afafaf"/><rect x="180.3" y="280.94" width="2.84" height="2.84" fill="#afafaf"/><rect x="180.3" y="285.7" width="2.84" height="2.84" fill="#afafaf"/><rect x="184.8" y="233.4" width="2.84" height="2.84" fill="#afafaf"/><rect x="184.8" y="238.16" width="2.84" height="2.84" fill="#afafaf"/><rect x="184.8" y="242.91" width="2.84" height="2.84" fill="#afafaf"/><rect x="184.8" y="247.66" width="2.84" height="2.84" fill="#afafaf"/><rect x="184.8" y="252.42" width="2.84" height="2.84" fill="#afafaf"/><rect x="184.8" y="257.17" width="2.84" height="2.84" fill="#afafaf"/><rect x="184.8" y="261.93" width="2.84" height="2.84" fill="#afafaf"/><rect x="184.8" y="266.68" width="2.84" height="2.84" fill="#afafaf"/><rect x="184.8" y="271.43" width="2.84" height="2.84" fill="#afafaf"/><rect x="184.8" y="276.19" width="2.84" height="2.84" fill="#afafaf"/><rect x="184.8" y="285.7" width="2.84" height="2.84" fill="#afafaf"/><rect x="189.3" y="233.4" width="2.84" height="2.84" fill="#afafaf"/><rect x="189.3" y="238.16" width="2.84" height="2.84" fill="#afafaf"/><rect x="189.3" y="242.91" width="2.84" height="2.84" fill="#afafaf"/><rect x="189.3" y="247.66" width="2.84" height="2.84" fill="#afafaf"/><rect x="189.3" y="252.42" width="2.84" height="2.84" fill="#afafaf"/><rect x="189.3" y="257.17" width="2.84" height="2.84" fill="#afafaf"/><rect x="189.3" y="261.93" width="2.84" height="2.84" fill="#afafaf"/><rect x="189.3" y="304.71" width="2.84" height="2.84" fill="#afafaf"/><rect x="193.81" y="233.4" width="2.84" height="2.84" fill="#afafaf"/><rect x="193.81" y="238.16" width="2.84" height="2.84" fill="#afafaf"/><rect x="193.81" y="242.91" width="2.84" height="2.84" fill="#afafaf"/><rect x="193.81" y="247.66" width="2.84" height="2.84" fill="#afafaf"/><rect x="193.81" y="252.42" width="2.84" height="2.84" fill="#afafaf"/><rect x="193.81" y="257.17" width="2.84" height="2.84" fill="#afafaf"/><rect x="193.81" y="261.93" width="2.84" height="2.84" fill="#afafaf"/><rect x="193.81" y="266.68" width="2.84" height="2.84" fill="#afafaf"/><rect x="193.81" y="295.2" width="2.84" height="2.84" fill="#afafaf"/><rect x="193.81" y="299.96" width="2.84" height="2.84" fill="#afafaf"/><rect x="193.81" y="304.71" width="2.84" height="2.84" fill="#afafaf"/><rect x="193.81" y="309.47" width="2.84" height="2.84" fill="#afafaf"/><rect x="193.81" y="328.48" width="2.84" height="2.84" fill="#afafaf"/><rect x="198.31" y="233.4" width="2.84" height="2.84" fill="#afafaf"/><rect x="198.31" y="238.16" width="2.84" height="2.84" fill="#afafaf"/><rect x="198.31" y="242.91" width="2.84" height="2.84" fill="#afafaf"/><rect x="198.31" y="247.66" width="2.84" height="2.84" fill="#afafaf"/><rect x="198.31" y="252.42" width="2.84" height="2.84" fill="#afafaf"/><rect x="198.31" y="257.17" width="2.84" height="2.84" fill="#afafaf"/><rect x="198.31" y="261.93" width="2.84" height="2.84" fill="#afafaf"/><rect x="198.31" y="266.68" width="2.84" height="2.84" fill="#afafaf"/><rect x="198.31" y="271.43" width="2.84" height="2.84" fill="#afafaf"/><rect x="198.31" y="276.19" width="2.84" height="2.84" fill="#afafaf"/><rect x="198.31" y="290.45" width="2.84" height="2.84" fill="#afafaf"/><rect x="198.31" y="295.2" width="2.84" height="2.84" fill="#afafaf"/><rect x="198.31" y="299.96" width="2.84" height="2.84" fill="#afafaf"/><rect x="198.31" y="304.71" width="2.84" height="2.84" fill="#afafaf"/><rect x="198.31" y="309.47" width="2.84" height="2.84" fill="#afafaf"/><rect x="198.31" y="328.48" width="2.84" height="2.84" fill="#afafaf"/><rect x="202.81" y="233.4" width="2.84" height="2.84" fill="#afafaf"/><rect x="202.81" y="238.16" width="2.84" height="2.84" fill="#afafaf"/><rect x="202.81" y="242.91" width="2.84" height="2.84" fill="#afafaf"/><rect x="202.81" y="247.66" width="2.84" height="2.84" fill="#afafaf"/><rect x="202.81" y="252.42" width="2.84" height="2.84" fill="#afafaf"/><rect x="202.81" y="257.17" width="2.84" height="2.84" fill="#afafaf"/><rect x="202.81" y="261.93" width="2.84" height="2.84" fill="#afafaf"/><rect x="202.81" y="266.68" width="2.84" height="2.84" fill="#afafaf"/><rect x="202.81" y="271.43" width="2.84" height="2.84" fill="#afafaf"/><rect x="202.81" y="276.19" width="2.84" height="2.84" fill="#afafaf"/><rect x="202.81" y="280.94" width="2.84" height="2.84" fill="#afafaf"/><rect x="202.81" y="285.7" width="2.84" height="2.84" fill="#afafaf"/><rect x="202.81" y="290.45" width="2.84" height="2.84" fill="#afafaf"/><rect x="202.81" y="295.2" width="2.84" height="2.84" fill="#afafaf"/><rect x="202.81" y="299.96" width="2.84" height="2.84" fill="#afafaf"/><rect x="202.81" y="304.71" width="2.84" height="2.84" fill="#afafaf"/><rect x="202.81" y="309.47" width="2.84" height="2.84" fill="#afafaf"/><rect x="202.81" y="314.22" width="2.84" height="2.84" fill="#afafaf"/><rect x="207.32" y="233.4" width="2.84" height="2.84" fill="#afafaf"/><rect x="207.32" y="238.16" width="2.84" height="2.84" fill="#afafaf"/><rect x="207.32" y="242.91" width="2.84" height="2.84" fill="#afafaf"/><rect x="207.32" y="247.66" width="2.84" height="2.84" fill="#afafaf"/><rect x="207.32" y="252.42" width="2.84" height="2.84" fill="#afafaf"/><rect x="207.32" y="257.17" width="2.84" height="2.84" fill="#afafaf"/><rect x="207.32" y="261.93" width="2.84" height="2.84" fill="#afafaf"/><rect x="207.32" y="266.68" width="2.84" height="2.84" fill="#afafaf"/><rect x="207.32" y="271.43" width="2.84" height="2.84" fill="#afafaf"/><rect x="207.32" y="276.19" width="2.84" height="2.84" fill="#afafaf"/><rect x="207.32" y="290.45" width="2.84" height="2.84" fill="#afafaf"/><rect x="207.32" y="295.2" width="2.84" height="2.84" fill="#afafaf"/><rect x="207.32" y="299.96" width="2.84" height="2.84" fill="#afafaf"/><rect x="207.32" y="304.71" width="2.84" height="2.84" fill="#afafaf"/><rect x="211.82" y="233.4" width="2.84" height="2.84" fill="#afafaf"/><rect x="211.82" y="238.16" width="2.84" height="2.84" fill="#afafaf"/><rect x="211.82" y="242.91" width="2.84" height="2.84" fill="#afafaf"/><rect x="211.82" y="247.66" width="2.84" height="2.84" fill="#afafaf"/><rect x="211.82" y="252.42" width="2.84" height="2.84" fill="#afafaf"/><rect x="211.82" y="257.17" width="2.84" height="2.84" fill="#afafaf"/><rect x="211.82" y="261.93" width="2.84" height="2.84" fill="#afafaf"/><rect x="211.82" y="266.68" width="2.84" height="2.84" fill="#afafaf"/><rect x="211.82" y="271.43" width="2.84" height="2.84" fill="#afafaf"/><rect x="211.82" y="276.19" width="2.84" height="2.84" fill="#afafaf"/><rect x="211.82" y="290.45" width="2.84" height="2.84" fill="#afafaf"/><rect x="211.82" y="295.2" width="2.84" height="2.84" fill="#afafaf"/><rect x="211.82" y="299.96" width="2.84" height="2.84" fill="#afafaf"/><rect x="262.53" y="221.06" width="2.84" height="2.84" fill="#afafaf"/><rect x="262.53" y="225.81" width="2.84" height="2.84" fill="#afafaf"/><rect x="262.53" y="230.57" width="2.84" height="2.84" fill="#afafaf"/><rect x="262.53" y="235.32" width="2.84" height="2.84" fill="#afafaf"/><rect x="262.53" y="240.07" width="2.84" height="2.84" fill="#afafaf"/><rect x="262.53" y="244.83" width="2.84" height="2.84" fill="#afafaf"/><rect x="262.53" y="249.58" width="2.84" height="2.84" fill="#afafaf"/><rect x="262.53" y="254.34" width="2.84" height="2.84" fill="#afafaf"/><rect x="262.53" y="268.6" width="2.84" height="2.84" fill="#afafaf"/><rect x="262.53" y="273.35" width="2.84" height="2.84" fill="#afafaf"/><rect x="267.04" y="221.06" width="2.84" height="2.84" fill="#afafaf"/><rect x="267.04" y="225.81" width="2.84" height="2.84" fill="#afafaf"/><rect x="267.04" y="230.57" width="2.84" height="2.84" fill="#afafaf"/><rect x="267.04" y="235.32" width="2.84" height="2.84" fill="#afafaf"/><rect x="267.04" y="240.07" width="2.84" height="2.84" fill="#afafaf"/><rect x="267.04" y="244.83" width="2.84" height="2.84" fill="#afafaf"/><rect x="267.04" y="249.58" width="2.84" height="2.84" fill="#afafaf"/><rect x="267.04" y="254.34" width="2.84" height="2.84" fill="#afafaf"/><rect x="267.04" y="273.35" width="2.84" height="2.84" fill="#afafaf"/><rect x="271.54" y="221.06" width="2.84" height="2.84" fill="#afafaf"/><rect x="271.54" y="225.81" width="2.84" height="2.84" fill="#afafaf"/><rect x="271.54" y="230.57" width="2.84" height="2.84" fill="#afafaf"/><rect x="271.54" y="235.32" width="2.84" height="2.84" fill="#afafaf"/><rect x="271.54" y="240.07" width="2.84" height="2.84" fill="#afafaf"/><rect x="271.54" y="244.83" width="2.84" height="2.84" fill="#afafaf"/><rect x="271.54" y="249.58" width="2.84" height="2.84" fill="#afafaf"/><rect x="271.54" y="254.34" width="2.84" height="2.84" fill="#afafaf"/><rect x="276.04" y="221.06" width="2.84" height="2.84" fill="#afafaf"/><rect x="276.04" y="225.81" width="2.84" height="2.84" fill="#afafaf"/><rect x="276.04" y="230.57" width="2.84" height="2.84" fill="#afafaf"/><rect x="276.04" y="235.32" width="2.84" height="2.84" fill="#afafaf"/><rect x="276.04" y="240.07" width="2.84" height="2.84" fill="#afafaf"/><rect x="276.04" y="244.83" width="2.84" height="2.84" fill="#afafaf"/><rect x="276.04" y="254.34" width="2.84" height="2.84" fill="#afafaf"/><rect x="276.04" y="259.09" width="2.84" height="2.84" fill="#afafaf"/><rect x="276.04" y="273.35" width="2.84" height="2.84" fill="#afafaf"/><rect x="276.04" y="278.11" width="2.84" height="2.84" fill="#afafaf"/><rect x="276.04" y="282.86" width="2.84" height="2.84" fill="#afafaf"/><rect x="276.04" y="287.61" width="2.84" height="2.84" fill="#afafaf"/><rect x="276.04" y="292.37" width="2.84" height="2.84" fill="#afafaf"/><rect x="276.04" y="297.12" width="2.84" height="2.84" fill="#afafaf"/><rect x="276.04" y="301.88" width="2.84" height="2.84" fill="#afafaf"/><rect x="280.55" y="221.06" width="2.84" height="2.84" fill="#afafaf"/><rect x="280.55" y="225.81" width="2.84" height="2.84" fill="#afafaf"/><rect x="280.55" y="230.57" width="2.84" height="2.84" fill="#afafaf"/><rect x="280.55" y="235.32" width="2.84" height="2.84" fill="#afafaf"/><rect x="280.55" y="240.07" width="2.84" height="2.84" fill="#afafaf"/><rect x="280.55" y="244.83" width="2.84" height="2.84" fill="#afafaf"/><rect x="280.55" y="259.09" width="2.84" height="2.84" fill="#afafaf"/><rect x="280.55" y="263.84" width="2.84" height="2.84" fill="#afafaf"/><rect x="280.55" y="268.6" width="2.84" height="2.84" fill="#afafaf"/><rect x="280.55" y="273.35" width="2.84" height="2.84" fill="#afafaf"/><rect x="280.55" y="278.11" width="2.84" height="2.84" fill="#afafaf"/><rect x="280.55" y="282.86" width="2.84" height="2.84" fill="#afafaf"/><rect x="280.55" y="287.61" width="2.84" height="2.84" fill="#afafaf"/><rect x="280.55" y="292.37" width="2.84" height="2.84" fill="#afafaf"/><rect x="280.55" y="297.12" width="2.84" height="2.84" fill="#afafaf"/><rect x="280.55" y="301.88" width="2.84" height="2.84" fill="#afafaf"/><rect x="280.55" y="306.63" width="2.84" height="2.84" fill="#afafaf"/><rect x="280.55" y="316.14" width="2.84" height="2.84" fill="#afafaf"/><rect x="285.05" y="221.06" width="2.84" height="2.84" fill="#afafaf"/><rect x="285.05" y="225.81" width="2.84" height="2.84" fill="#afafaf"/><rect x="285.05" y="230.57" width="2.84" height="2.84" fill="#afafaf"/><rect x="285.05" y="235.32" width="2.84" height="2.84" fill="#afafaf"/><rect x="285.05" y="240.07" width="2.84" height="2.84" fill="#afafaf"/><rect x="285.05" y="244.83" width="2.84" height="2.84" fill="#afafaf"/><rect x="285.05" y="259.09" width="2.84" height="2.84" fill="#afafaf"/><rect x="285.05" y="263.84" width="2.84" height="2.84" fill="#afafaf"/><rect x="285.05" y="268.6" width="2.84" height="2.84" fill="#afafaf"/><rect x="285.05" y="273.35" width="2.84" height="2.84" fill="#afafaf"/><rect x="285.05" y="287.61" width="2.84" height="2.84" fill="#afafaf"/><rect x="285.05" y="292.37" width="2.84" height="2.84" fill="#afafaf"/><rect x="285.05" y="297.12" width="2.84" height="2.84" fill="#afafaf"/><rect x="285.05" y="301.88" width="2.84" height="2.84" fill="#afafaf"/><rect x="285.05" y="306.63" width="2.84" height="2.84" fill="#afafaf"/><rect x="285.05" y="316.14" width="2.84" height="2.84" fill="#afafaf"/><rect x="285.05" y="320.89" width="2.84" height="2.84" fill="#afafaf"/><rect x="325.92" y="265.26" width="2.84" height="2.84" fill="#afafaf"/><rect x="325.92" y="270.02" width="2.84" height="2.84" fill="#afafaf"/><rect x="325.92" y="274.77" width="2.84" height="2.84" fill="#afafaf"/><rect x="325.92" y="279.52" width="2.84" height="2.84" fill="#afafaf"/><rect x="325.92" y="284.28" width="2.84" height="2.84" fill="#afafaf"/><rect x="325.92" y="289.03" width="2.84" height="2.84" fill="#afafaf"/><rect x="325.92" y="293.79" width="2.84" height="2.84" fill="#afafaf"/><rect x="325.92" y="308.05" width="2.84" height="2.84" fill="#afafaf"/><rect x="325.92" y="312.8" width="2.84" height="2.84" fill="#afafaf"/><rect x="325.92" y="317.56" width="2.84" height="2.84" fill="#afafaf"/><rect x="330.42" y="265.26" width="2.84" height="2.84" fill="#afafaf"/><rect x="330.42" y="270.02" width="2.84" height="2.84" fill="#afafaf"/><rect x="330.42" y="274.77" width="2.84" height="2.84" fill="#afafaf"/><rect x="330.42" y="279.52" width="2.84" height="2.84" fill="#afafaf"/><rect x="330.42" y="284.28" width="2.84" height="2.84" fill="#afafaf"/><rect x="330.42" y="289.03" width="2.84" height="2.84" fill="#afafaf"/><rect x="330.42" y="293.79" width="2.84" height="2.84" fill="#afafaf"/><rect x="334.93" y="265.26" width="2.84" height="2.84" fill="#afafaf"/><rect x="334.93" y="270.02" width="2.84" height="2.84" fill="#afafaf"/><rect x="334.93" y="274.77" width="2.84" height="2.84" fill="#afafaf"/><rect x="334.93" y="279.52" width="2.84" height="2.84" fill="#afafaf"/><rect x="334.93" y="284.28" width="2.84" height="2.84" fill="#afafaf"/><rect x="334.93" y="289.03" width="2.84" height="2.84" fill="#afafaf"/><rect x="334.93" y="293.79" width="2.84" height="2.84" fill="#afafaf"/><rect x="339.43" y="265.26" width="2.84" height="2.84" fill="#afafaf"/><rect x="339.43" y="270.02" width="2.84" height="2.84" fill="#afafaf"/><rect x="339.43" y="274.77" width="2.84" height="2.84" fill="#afafaf"/><rect x="339.43" y="279.52" width="2.84" height="2.84" fill="#afafaf"/><rect x="339.43" y="284.28" width="2.84" height="2.84" fill="#afafaf"/><rect x="339.43" y="289.03" width="2.84" height="2.84" fill="#afafaf"/><rect x="339.43" y="293.79" width="2.84" height="2.84" fill="#afafaf"/><rect x="339.43" y="298.54" width="2.84" height="2.84" fill="#afafaf"/><rect x="339.43" y="303.29" width="2.84" height="2.84" fill="#afafaf"/><rect x="339.43" y="308.05" width="2.84" height="2.84" fill="#afafaf"/><rect x="339.43" y="312.8" width="2.84" height="2.84" fill="#afafaf"/><rect x="343.93" y="265.26" width="2.84" height="2.84" fill="#afafaf"/><rect x="343.93" y="270.02" width="2.84" height="2.84" fill="#afafaf"/><rect x="343.93" y="274.77" width="2.84" height="2.84" fill="#afafaf"/><rect x="343.93" y="279.52" width="2.84" height="2.84" fill="#afafaf"/><rect x="343.93" y="284.28" width="2.84" height="2.84" fill="#afafaf"/><rect x="343.93" y="289.03" width="2.84" height="2.84" fill="#afafaf"/><rect x="343.93" y="293.79" width="2.84" height="2.84" fill="#afafaf"/><rect x="343.93" y="298.54" width="2.84" height="2.84" fill="#afafaf"/><rect x="343.93" y="303.29" width="2.84" height="2.84" fill="#afafaf"/><rect x="343.93" y="308.05" width="2.84" height="2.84" fill="#afafaf"/><rect x="343.93" y="312.8" width="2.84" height="2.84" fill="#afafaf"/><rect x="343.93" y="317.56" width="2.84" height="2.84" fill="#afafaf"/><rect x="343.93" y="331.82" width="2.84" height="2.84" fill="#afafaf"/><rect x="343.93" y="336.57" width="2.84" height="2.84" fill="#afafaf"/><rect x="348.44" y="265.26" width="2.84" height="2.84" fill="#afafaf"/><rect x="348.44" y="270.02" width="2.84" height="2.84" fill="#afafaf"/><rect x="348.44" y="274.77" width="2.84" height="2.84" fill="#afafaf"/><rect x="348.44" y="289.03" width="2.84" height="2.84" fill="#afafaf"/><rect x="348.44" y="293.79" width="2.84" height="2.84" fill="#afafaf"/><rect x="348.44" y="298.54" width="2.84" height="2.84" fill="#afafaf"/><rect x="348.44" y="303.29" width="2.84" height="2.84" fill="#afafaf"/><rect x="348.44" y="308.05" width="2.84" height="2.84" fill="#afafaf"/><rect x="348.44" y="312.8" width="2.84" height="2.84" fill="#afafaf"/><rect x="348.44" y="317.56" width="2.84" height="2.84" fill="#afafaf"/><rect x="348.44" y="331.82" width="2.84" height="2.84" fill="#afafaf"/><rect x="348.44" y="336.57" width="2.84" height="2.84" fill="#afafaf"/><rect x="348.44" y="341.33" width="2.84" height="2.84" fill="#afafaf"/><rect x="395.65" y="236.74" width="2.84" height="2.84" fill="#afafaf"/><rect x="395.65" y="241.49" width="2.84" height="2.84" fill="#afafaf"/><rect x="395.65" y="246.25" width="2.84" height="2.84" fill="#afafaf"/><rect x="395.65" y="251" width="2.84" height="2.84" fill="#afafaf"/><rect x="395.65" y="255.75" width="2.84" height="2.84" fill="#afafaf"/><rect x="395.65" y="260.51" width="2.84" height="2.84" fill="#afafaf"/><rect x="395.65" y="265.26" width="2.84" height="2.84" fill="#afafaf"/><rect x="395.65" y="270.02" width="2.84" height="2.84" fill="#afafaf"/><rect x="395.65" y="274.77" width="2.84" height="2.84" fill="#afafaf"/><rect x="395.65" y="279.52" width="2.84" height="2.84" fill="#afafaf"/><rect x="395.65" y="284.28" width="2.84" height="2.84" fill="#afafaf"/><rect x="395.65" y="289.03" width="2.84" height="2.84" fill="#afafaf"/><rect x="395.65" y="293.79" width="2.84" height="2.84" fill="#afafaf"/><rect x="395.65" y="298.54" width="2.84" height="2.84" fill="#afafaf"/><rect x="395.65" y="303.29" width="2.84" height="2.84" fill="#afafaf"/><rect x="395.65" y="308.05" width="2.84" height="2.84" fill="#afafaf"/><rect x="395.65" y="312.8" width="2.84" height="2.84" fill="#afafaf"/><rect x="395.65" y="317.56" width="2.84" height="2.84" fill="#afafaf"/><rect x="395.65" y="322.31" width="2.84" height="2.84" fill="#afafaf"/><rect x="395.65" y="327.06" width="2.84" height="2.84" fill="#afafaf"/><rect x="395.65" y="331.82" width="2.84" height="2.84" fill="#afafaf"/><rect x="395.65" y="336.57" width="2.84" height="2.84" fill="#afafaf"/><rect x="395.65" y="341.33" width="2.84" height="2.84" fill="#afafaf"/><rect x="400.15" y="236.74" width="2.84" height="2.84" fill="#afafaf"/><rect x="400.15" y="241.49" width="2.84" height="2.84" fill="#afafaf"/><rect x="400.15" y="246.25" width="2.84" height="2.84" fill="#afafaf"/><rect x="400.15" y="251" width="2.84" height="2.84" fill="#afafaf"/><rect x="400.15" y="255.75" width="2.84" height="2.84" fill="#afafaf"/><rect x="400.15" y="260.51" width="2.84" height="2.84" fill="#afafaf"/><rect x="400.15" y="265.26" width="2.84" height="2.84" fill="#afafaf"/><rect x="400.15" y="270.02" width="2.84" height="2.84" fill="#afafaf"/><rect x="400.15" y="274.77" width="2.84" height="2.84" fill="#afafaf"/><rect x="400.15" y="279.52" width="2.84" height="2.84" fill="#afafaf"/><rect x="400.15" y="284.28" width="2.84" height="2.84" fill="#afafaf"/><rect x="400.15" y="289.03" width="2.84" height="2.84" fill="#afafaf"/><rect x="400.15" y="293.79" width="2.84" height="2.84" fill="#afafaf"/><rect x="400.15" y="298.54" width="2.84" height="2.84" fill="#afafaf"/><rect x="400.15" y="303.29" width="2.84" height="2.84" fill="#afafaf"/><rect x="400.15" y="308.05" width="2.84" height="2.84" fill="#afafaf"/><rect x="400.15" y="312.8" width="2.84" height="2.84" fill="#afafaf"/><rect x="400.15" y="317.56" width="2.84" height="2.84" fill="#afafaf"/><rect x="400.15" y="322.31" width="2.84" height="2.84" fill="#afafaf"/><rect x="404.65" y="236.74" width="2.84" height="2.84" fill="#afafaf"/><rect x="404.65" y="241.49" width="2.84" height="2.84" fill="#afafaf"/><rect x="404.65" y="246.25" width="2.84" height="2.84" fill="#afafaf"/><rect x="404.65" y="251" width="2.84" height="2.84" fill="#afafaf"/><rect x="404.65" y="255.75" width="2.84" height="2.84" fill="#afafaf"/><rect x="404.65" y="260.51" width="2.84" height="2.84" fill="#afafaf"/><rect x="404.65" y="265.26" width="2.84" height="2.84" fill="#afafaf"/><rect x="404.65" y="270.02" width="2.84" height="2.84" fill="#afafaf"/><rect x="404.65" y="274.77" width="2.84" height="2.84" fill="#afafaf"/><rect x="404.65" y="279.52" width="2.84" height="2.84" fill="#afafaf"/><rect x="404.65" y="284.28" width="2.84" height="2.84" fill="#afafaf"/><rect x="404.65" y="289.03" width="2.84" height="2.84" fill="#afafaf"/><rect x="404.65" y="293.79" width="2.84" height="2.84" fill="#afafaf"/><rect x="404.65" y="298.54" width="2.84" height="2.84" fill="#afafaf"/><rect x="404.65" y="303.29" width="2.84" height="2.84" fill="#afafaf"/><rect x="404.65" y="308.05" width="2.84" height="2.84" fill="#afafaf"/><rect x="404.65" y="312.8" width="2.84" height="2.84" fill="#afafaf"/><rect x="404.65" y="317.56" width="2.84" height="2.84" fill="#afafaf"/><rect x="404.65" y="322.31" width="2.84" height="2.84" fill="#afafaf"/><rect x="409.16" y="236.74" width="2.84" height="2.84" fill="#afafaf"/><rect x="409.16" y="241.49" width="2.84" height="2.84" fill="#afafaf"/><rect x="409.16" y="246.25" width="2.84" height="2.84" fill="#afafaf"/><rect x="409.16" y="251" width="2.84" height="2.84" fill="#afafaf"/><rect x="409.16" y="255.75" width="2.84" height="2.84" fill="#afafaf"/><rect x="409.16" y="260.51" width="2.84" height="2.84" fill="#afafaf"/><rect x="409.16" y="265.26" width="2.84" height="2.84" fill="#afafaf"/><rect x="409.16" y="270.02" width="2.84" height="2.84" fill="#afafaf"/><rect x="409.16" y="274.77" width="2.84" height="2.84" fill="#afafaf"/><rect x="409.16" y="279.52" width="2.84" height="2.84" fill="#afafaf"/><rect x="409.16" y="284.28" width="2.84" height="2.84" fill="#afafaf"/><rect x="409.16" y="289.03" width="2.84" height="2.84" fill="#afafaf"/><rect x="409.16" y="293.79" width="2.84" height="2.84" fill="#afafaf"/><rect x="409.16" y="298.54" width="2.84" height="2.84" fill="#afafaf"/><rect x="409.16" y="303.29" width="2.84" height="2.84" fill="#afafaf"/><rect x="413.66" y="236.74" width="2.84" height="2.84" fill="#afafaf"/><rect x="413.66" y="241.49" width="2.84" height="2.84" fill="#afafaf"/><rect x="413.66" y="246.25" width="2.84" height="2.84" fill="#afafaf"/><rect x="413.66" y="251" width="2.84" height="2.84" fill="#afafaf"/><rect x="413.66" y="255.75" width="2.84" height="2.84" fill="#afafaf"/><rect x="413.66" y="260.51" width="2.84" height="2.84" fill="#afafaf"/><rect x="413.66" y="265.26" width="2.84" height="2.84" fill="#afafaf"/><rect x="413.66" y="270.02" width="2.84" height="2.84" fill="#afafaf"/><rect x="413.66" y="274.77" width="2.84" height="2.84" fill="#afafaf"/><rect x="413.66" y="279.52" width="2.84" height="2.84" fill="#afafaf"/><rect x="413.66" y="284.28" width="2.84" height="2.84" fill="#afafaf"/><rect x="413.66" y="289.03" width="2.84" height="2.84" fill="#afafaf"/><rect x="413.66" y="293.79" width="2.84" height="2.84" fill="#afafaf"/><rect x="418.16" y="236.74" width="2.84" height="2.84" fill="#afafaf"/><rect x="418.16" y="241.49" width="2.84" height="2.84" fill="#afafaf"/><rect x="418.16" y="246.25" width="2.84" height="2.84" fill="#afafaf"/><rect x="418.16" y="251" width="2.84" height="2.84" fill="#afafaf"/><rect x="418.16" y="255.75" width="2.84" height="2.84" fill="#afafaf"/><rect x="418.16" y="260.51" width="2.84" height="2.84" fill="#afafaf"/><rect x="418.16" y="265.26" width="2.84" height="2.84" fill="#afafaf"/><rect x="418.16" y="270.02" width="2.84" height="2.84" fill="#afafaf"/><rect x="418.16" y="274.77" width="2.84" height="2.84" fill="#afafaf"/><rect x="418.16" y="279.52" width="2.84" height="2.84" fill="#afafaf"/><rect x="418.16" y="284.28" width="2.84" height="2.84" fill="#afafaf"/><rect x="418.16" y="289.03" width="2.84" height="2.84" fill="#afafaf"/><rect x="87.22" y="271.43" width="2.84" height="2.84" fill="#afafaf"/><rect x="87.22" y="276.19" width="2.84" height="2.84" fill="#afafaf"/><rect x="87.22" y="280.94" width="2.84" height="2.84" fill="#afafaf"/><rect x="87.22" y="285.7" width="2.84" height="2.84" fill="#afafaf"/><rect x="87.22" y="290.45" width="2.84" height="2.84" fill="#afafaf"/><rect x="87.22" y="295.2" width="2.84" height="2.84" fill="#afafaf"/><rect x="87.22" y="299.96" width="2.84" height="2.84" fill="#afafaf"/><rect x="87.22" y="304.71" width="2.84" height="2.84" fill="#afafaf"/><rect x="87.22" y="309.47" width="2.84" height="2.84" fill="#afafaf"/><rect x="87.22" y="314.22" width="2.84" height="2.84" fill="#afafaf"/><rect x="87.22" y="318.97" width="2.84" height="2.84" fill="#afafaf"/><rect x="87.22" y="323.73" width="2.84" height="2.84" fill="#afafaf"/><rect x="87.22" y="328.48" width="2.84" height="2.84" fill="#afafaf"/><rect x="87.22" y="333.24" width="2.84" height="2.84" fill="#afafaf"/><rect x="87.22" y="337.99" width="2.84" height="2.84" fill="#afafaf"/><rect x="87.22" y="342.74" width="2.84" height="2.84" fill="#afafaf"/><rect x="87.22" y="347.5" width="2.84" height="2.84" fill="#afafaf"/><rect x="87.22" y="352.25" width="2.84" height="2.84" fill="#afafaf"/><rect x="87.22" y="357.01" width="2.84" height="2.84" fill="#afafaf"/><rect x="87.22" y="361.76" width="2.84" height="2.84" fill="#afafaf"/><rect x="91.72" y="271.43" width="2.84" height="2.84" fill="#afafaf"/><rect x="91.72" y="276.19" width="2.84" height="2.84" fill="#afafaf"/><rect x="91.72" y="280.94" width="2.84" height="2.84" fill="#afafaf"/><rect x="91.72" y="285.7" width="2.84" height="2.84" fill="#afafaf"/><rect x="91.72" y="290.45" width="2.84" height="2.84" fill="#afafaf"/><rect x="91.72" y="295.2" width="2.84" height="2.84" fill="#afafaf"/><rect x="91.72" y="299.96" width="2.84" height="2.84" fill="#afafaf"/><rect x="91.72" y="304.71" width="2.84" height="2.84" fill="#afafaf"/><rect x="91.72" y="309.47" width="2.84" height="2.84" fill="#afafaf"/><rect x="91.72" y="314.22" width="2.84" height="2.84" fill="#afafaf"/><rect x="91.72" y="318.97" width="2.84" height="2.84" fill="#afafaf"/><rect x="91.72" y="323.73" width="2.84" height="2.84" fill="#afafaf"/><rect x="91.72" y="328.48" width="2.84" height="2.84" fill="#afafaf"/><rect x="91.72" y="333.24" width="2.84" height="2.84" fill="#afafaf"/><rect x="91.72" y="337.99" width="2.84" height="2.84" fill="#afafaf"/><rect x="91.72" y="342.74" width="2.84" height="2.84" fill="#afafaf"/><rect x="91.72" y="347.5" width="2.84" height="2.84" fill="#afafaf"/><rect x="91.72" y="352.25" width="2.84" height="2.84" fill="#afafaf"/><rect x="96.22" y="271.43" width="2.84" height="2.84" fill="#afafaf"/><rect x="96.22" y="276.19" width="2.84" height="2.84" fill="#afafaf"/><rect x="96.22" y="280.94" width="2.84" height="2.84" fill="#afafaf"/><rect x="96.22" y="285.7" width="2.84" height="2.84" fill="#afafaf"/><rect x="96.22" y="290.45" width="2.84" height="2.84" fill="#afafaf"/><rect x="96.22" y="295.2" width="2.84" height="2.84" fill="#afafaf"/><rect x="96.22" y="299.96" width="2.84" height="2.84" fill="#afafaf"/><rect x="96.22" y="304.71" width="2.84" height="2.84" fill="#afafaf"/><rect x="96.22" y="309.47" width="2.84" height="2.84" fill="#afafaf"/><rect x="96.22" y="314.22" width="2.84" height="2.84" fill="#afafaf"/><rect x="96.22" y="318.97" width="2.84" height="2.84" fill="#afafaf"/><rect x="96.22" y="323.73" width="2.84" height="2.84" fill="#afafaf"/><rect x="96.22" y="328.48" width="2.84" height="2.84" fill="#afafaf"/><rect x="96.22" y="333.24" width="2.84" height="2.84" fill="#afafaf"/><rect x="96.22" y="337.99" width="2.84" height="2.84" fill="#afafaf"/><rect x="96.22" y="342.74" width="2.84" height="2.84" fill="#afafaf"/><rect x="96.22" y="347.5" width="2.84" height="2.84" fill="#afafaf"/><rect x="96.22" y="352.25" width="2.84" height="2.84" fill="#afafaf"/><rect x="70.37" y="306.13" width="2.84" height="2.84" fill="#afafaf"/><rect x="70.37" y="310.88" width="2.84" height="2.84" fill="#afafaf"/><rect x="70.37" y="315.64" width="2.84" height="2.84" fill="#afafaf"/><rect x="70.37" y="320.39" width="2.84" height="2.84" fill="#afafaf"/><rect x="70.37" y="325.15" width="2.84" height="2.84" fill="#afafaf"/><rect x="70.37" y="329.9" width="2.84" height="2.84" fill="#afafaf"/><rect x="70.37" y="334.65" width="2.84" height="2.84" fill="#afafaf"/><rect x="70.37" y="339.41" width="2.84" height="2.84" fill="#afafaf"/><rect x="70.37" y="344.16" width="2.84" height="2.84" fill="#afafaf"/><rect x="70.37" y="348.92" width="2.84" height="2.84" fill="#afafaf"/><rect x="70.37" y="353.67" width="2.84" height="2.84" fill="#afafaf"/><rect x="70.37" y="358.42" width="2.84" height="2.84" fill="#afafaf"/><rect x="70.37" y="363.18" width="2.84" height="2.84" fill="#afafaf"/><rect x="74.87" y="306.13" width="2.84" height="2.84" fill="#afafaf"/><rect x="74.87" y="310.88" width="2.84" height="2.84" fill="#afafaf"/><rect x="74.87" y="315.64" width="2.84" height="2.84" fill="#afafaf"/><rect x="74.87" y="320.39" width="2.84" height="2.84" fill="#afafaf"/><rect x="74.87" y="325.15" width="2.84" height="2.84" fill="#afafaf"/><rect x="74.87" y="329.9" width="2.84" height="2.84" fill="#afafaf"/><rect x="74.87" y="334.65" width="2.84" height="2.84" fill="#afafaf"/><rect x="74.87" y="339.41" width="2.84" height="2.84" fill="#afafaf"/><rect x="74.87" y="344.16" width="2.84" height="2.84" fill="#afafaf"/><rect x="74.87" y="348.92" width="2.84" height="2.84" fill="#afafaf"/><rect x="74.87" y="353.67" width="2.84" height="2.84" fill="#afafaf"/><rect x="74.87" y="358.42" width="2.84" height="2.84" fill="#afafaf"/><rect x="74.87" y="363.18" width="2.84" height="2.84" fill="#afafaf"/><rect x="79.38" y="306.13" width="2.84" height="2.84" fill="#afafaf"/><rect x="79.38" y="310.88" width="2.84" height="2.84" fill="#afafaf"/><rect x="79.38" y="315.64" width="2.84" height="2.84" fill="#afafaf"/><rect x="79.38" y="320.39" width="2.84" height="2.84" fill="#afafaf"/><rect x="79.38" y="325.15" width="2.84" height="2.84" fill="#afafaf"/><rect x="79.38" y="329.9" width="2.84" height="2.84" fill="#afafaf"/><rect x="79.38" y="334.65" width="2.84" height="2.84" fill="#afafaf"/><rect x="79.38" y="339.41" width="2.84" height="2.84" fill="#afafaf"/><rect x="79.38" y="344.16" width="2.84" height="2.84" fill="#afafaf"/><rect x="79.38" y="348.92" width="2.84" height="2.84" fill="#afafaf"/><rect x="79.38" y="353.67" width="2.84" height="2.84" fill="#afafaf"/><rect x="79.38" y="358.42" width="2.84" height="2.84" fill="#afafaf"/><rect x="79.38" y="363.18" width="2.84" height="2.84" fill="#afafaf"/><rect x="79.38" y="367.93" width="2.84" height="2.84" fill="#afafaf"/><rect x="104.4" y="307.55" width="2.84" height="2.84" fill="#afafaf"/><rect x="104.4" y="312.3" width="2.84" height="2.84" fill="#afafaf"/><rect x="104.4" y="317.06" width="2.84" height="2.84" fill="#afafaf"/><rect x="104.4" y="321.81" width="2.84" height="2.84" fill="#afafaf"/><rect x="104.4" y="326.56" width="2.84" height="2.84" fill="#afafaf"/><rect x="104.4" y="331.32" width="2.84" height="2.84" fill="#afafaf"/><rect x="104.4" y="336.07" width="2.84" height="2.84" fill="#afafaf"/><rect x="104.4" y="340.83" width="2.84" height="2.84" fill="#afafaf"/><rect x="104.4" y="345.58" width="2.84" height="2.84" fill="#afafaf"/><rect x="104.4" y="350.33" width="2.84" height="2.84" fill="#afafaf"/><rect x="104.4" y="364.6" width="2.84" height="2.84" fill="#afafaf"/><rect x="108.9" y="307.55" width="2.84" height="2.84" fill="#afafaf"/><rect x="108.9" y="312.3" width="2.84" height="2.84" fill="#afafaf"/><rect x="108.9" y="317.06" width="2.84" height="2.84" fill="#afafaf"/><rect x="108.9" y="321.81" width="2.84" height="2.84" fill="#afafaf"/><rect x="108.9" y="326.56" width="2.84" height="2.84" fill="#afafaf"/><rect x="108.9" y="331.32" width="2.84" height="2.84" fill="#afafaf"/><rect x="108.9" y="336.07" width="2.84" height="2.84" fill="#afafaf"/><rect x="108.9" y="340.83" width="2.84" height="2.84" fill="#afafaf"/><rect x="108.9" y="345.58" width="2.84" height="2.84" fill="#afafaf"/><rect x="108.9" y="359.84" width="2.84" height="2.84" fill="#afafaf"/><rect x="108.9" y="364.6" width="2.84" height="2.84" fill="#afafaf"/><rect x="113.4" y="307.55" width="2.84" height="2.84" fill="#afafaf"/><rect x="113.4" y="312.3" width="2.84" height="2.84" fill="#afafaf"/><rect x="113.4" y="317.06" width="2.84" height="2.84" fill="#afafaf"/><rect x="113.4" y="321.81" width="2.84" height="2.84" fill="#afafaf"/><rect x="113.4" y="326.56" width="2.84" height="2.84" fill="#afafaf"/><rect x="113.4" y="331.32" width="2.84" height="2.84" fill="#afafaf"/><rect x="113.4" y="336.07" width="2.84" height="2.84" fill="#afafaf"/><rect x="113.4" y="340.83" width="2.84" height="2.84" fill="#afafaf"/><rect x="113.4" y="355.09" width="2.84" height="2.84" fill="#afafaf"/><rect x="113.4" y="359.84" width="2.84" height="2.84" fill="#afafaf"/><rect x="113.4" y="364.6" width="2.84" height="2.84" fill="#afafaf"/><rect x="155.27" y="235.32" width="2.84" height="2.84" fill="#afafaf"/><rect x="155.27" y="240.07" width="2.84" height="2.84" fill="#afafaf"/><rect x="155.27" y="244.83" width="2.84" height="2.84" fill="#afafaf"/><rect x="155.27" y="249.58" width="2.84" height="2.84" fill="#afafaf"/><rect x="155.27" y="254.34" width="2.84" height="2.84" fill="#afafaf"/><rect x="155.27" y="259.09" width="2.84" height="2.84" fill="#afafaf"/><rect x="155.27" y="263.84" width="2.84" height="2.84" fill="#afafaf"/><rect x="155.27" y="268.6" width="2.84" height="2.84" fill="#afafaf"/><rect x="155.27" y="273.35" width="2.84" height="2.84" fill="#afafaf"/><rect x="155.27" y="278.11" width="2.84" height="2.84" fill="#afafaf"/><rect x="155.27" y="282.86" width="2.84" height="2.84" fill="#afafaf"/><rect x="155.27" y="287.61" width="2.84" height="2.84" fill="#afafaf"/><rect x="155.27" y="292.37" width="2.84" height="2.84" fill="#afafaf"/><rect x="155.27" y="297.12" width="2.84" height="2.84" fill="#afafaf"/><rect x="155.27" y="301.88" width="2.84" height="2.84" fill="#afafaf"/><rect x="155.27" y="306.63" width="2.84" height="2.84" fill="#afafaf"/><rect x="155.27" y="311.38" width="2.84" height="2.84" fill="#afafaf"/><rect x="155.27" y="320.89" width="2.84" height="2.84" fill="#afafaf"/><rect x="155.27" y="325.65" width="2.84" height="2.84" fill="#afafaf"/><rect x="155.27" y="330.4" width="2.84" height="2.84" fill="#afafaf"/><rect x="155.27" y="335.15" width="2.84" height="2.84" fill="#afafaf"/><rect x="155.27" y="339.91" width="2.84" height="2.84" fill="#afafaf"/><rect x="159.78" y="235.32" width="2.84" height="2.84" fill="#afafaf"/><rect x="159.78" y="240.07" width="2.84" height="2.84" fill="#afafaf"/><rect x="159.78" y="244.83" width="2.84" height="2.84" fill="#afafaf"/><rect x="159.78" y="249.58" width="2.84" height="2.84" fill="#afafaf"/><rect x="159.78" y="254.34" width="2.84" height="2.84" fill="#afafaf"/><rect x="159.78" y="259.09" width="2.84" height="2.84" fill="#afafaf"/><rect x="159.78" y="263.84" width="2.84" height="2.84" fill="#afafaf"/><rect x="159.78" y="268.6" width="2.84" height="2.84" fill="#afafaf"/><rect x="159.78" y="273.35" width="2.84" height="2.84" fill="#afafaf"/><rect x="159.78" y="278.11" width="2.84" height="2.84" fill="#afafaf"/><rect x="159.78" y="282.86" width="2.84" height="2.84" fill="#afafaf"/><rect x="159.78" y="287.61" width="2.84" height="2.84" fill="#afafaf"/><rect x="159.78" y="292.37" width="2.84" height="2.84" fill="#afafaf"/><rect x="159.78" y="297.12" width="2.84" height="2.84" fill="#afafaf"/><rect x="159.78" y="301.88" width="2.84" height="2.84" fill="#afafaf"/><rect x="159.78" y="306.63" width="2.84" height="2.84" fill="#afafaf"/><rect x="159.78" y="335.15" width="2.84" height="2.84" fill="#afafaf"/><rect x="159.78" y="339.91" width="2.84" height="2.84" fill="#afafaf"/><rect x="164.28" y="235.32" width="2.84" height="2.84" fill="#afafaf"/><rect x="164.28" y="240.07" width="2.84" height="2.84" fill="#afafaf"/><rect x="164.28" y="244.83" width="2.84" height="2.84" fill="#afafaf"/><rect x="164.28" y="249.58" width="2.84" height="2.84" fill="#afafaf"/><rect x="164.28" y="254.34" width="2.84" height="2.84" fill="#afafaf"/><rect x="164.28" y="259.09" width="2.84" height="2.84" fill="#afafaf"/><rect x="164.28" y="263.84" width="2.84" height="2.84" fill="#afafaf"/><rect x="164.28" y="268.6" width="2.84" height="2.84" fill="#afafaf"/><rect x="164.28" y="273.35" width="2.84" height="2.84" fill="#afafaf"/><rect x="164.28" y="278.11" width="2.84" height="2.84" fill="#afafaf"/><rect x="164.28" y="282.86" width="2.84" height="2.84" fill="#afafaf"/><rect x="164.28" y="287.61" width="2.84" height="2.84" fill="#afafaf"/><rect x="164.28" y="292.37" width="2.84" height="2.84" fill="#afafaf"/><rect x="164.28" y="297.12" width="2.84" height="2.84" fill="#afafaf"/><rect x="164.28" y="301.88" width="2.84" height="2.84" fill="#afafaf"/><rect x="164.28" y="306.63" width="2.84" height="2.84" fill="#afafaf"/><rect x="164.28" y="316.14" width="2.84" height="2.84" fill="#afafaf"/><rect x="164.28" y="320.89" width="2.84" height="2.84" fill="#afafaf"/><rect x="164.28" y="325.65" width="2.84" height="2.84" fill="#afafaf"/><rect x="164.28" y="330.4" width="2.84" height="2.84" fill="#afafaf"/><rect x="164.28" y="339.91" width="2.84" height="2.84" fill="#afafaf"/><rect x="138.93" y="295.2" width="2.84" height="2.84" fill="#afafaf"/><rect x="138.93" y="299.96" width="2.84" height="2.84" fill="#afafaf"/><rect x="138.93" y="304.71" width="2.84" height="2.84" fill="#afafaf"/><rect x="138.93" y="309.47" width="2.84" height="2.84" fill="#afafaf"/><rect x="138.93" y="314.22" width="2.84" height="2.84" fill="#afafaf"/><rect x="138.93" y="318.97" width="2.84" height="2.84" fill="#afafaf"/><rect x="138.93" y="323.73" width="2.84" height="2.84" fill="#afafaf"/><rect x="138.93" y="333.24" width="2.84" height="2.84" fill="#afafaf"/><rect x="138.93" y="337.99" width="2.84" height="2.84" fill="#afafaf"/><rect x="138.93" y="342.74" width="2.84" height="2.84" fill="#afafaf"/><rect x="138.93" y="347.5" width="2.84" height="2.84" fill="#afafaf"/><rect x="138.93" y="352.25" width="2.84" height="2.84" fill="#afafaf"/><rect x="138.93" y="357.01" width="2.84" height="2.84" fill="#afafaf"/><rect x="138.93" y="361.76" width="2.84" height="2.84" fill="#afafaf"/><rect x="138.93" y="366.51" width="2.84" height="2.84" fill="#afafaf"/><rect x="143.43" y="295.2" width="2.84" height="2.84" fill="#afafaf"/><rect x="143.43" y="299.96" width="2.84" height="2.84" fill="#afafaf"/><rect x="143.43" y="304.71" width="2.84" height="2.84" fill="#afafaf"/><rect x="143.43" y="309.47" width="2.84" height="2.84" fill="#afafaf"/><rect x="143.43" y="314.22" width="2.84" height="2.84" fill="#afafaf"/><rect x="143.43" y="318.97" width="2.84" height="2.84" fill="#afafaf"/><rect x="143.43" y="333.24" width="2.84" height="2.84" fill="#afafaf"/><rect x="143.43" y="337.99" width="2.84" height="2.84" fill="#afafaf"/><rect x="143.43" y="342.74" width="2.84" height="2.84" fill="#afafaf"/><rect x="143.43" y="347.5" width="2.84" height="2.84" fill="#afafaf"/><rect x="143.43" y="352.25" width="2.84" height="2.84" fill="#afafaf"/><rect x="143.43" y="357.01" width="2.84" height="2.84" fill="#afafaf"/><rect x="143.43" y="361.76" width="2.84" height="2.84" fill="#afafaf"/><rect x="143.43" y="366.51" width="2.84" height="2.84" fill="#afafaf"/><rect x="147.93" y="295.2" width="2.84" height="2.84" fill="#afafaf"/><rect x="147.93" y="299.96" width="2.84" height="2.84" fill="#afafaf"/><rect x="147.93" y="304.71" width="2.84" height="2.84" fill="#afafaf"/><rect x="147.93" y="309.47" width="2.84" height="2.84" fill="#afafaf"/><rect x="147.93" y="314.22" width="2.84" height="2.84" fill="#afafaf"/><rect x="147.93" y="318.97" width="2.84" height="2.84" fill="#afafaf"/><rect x="147.93" y="328.48" width="2.84" height="2.84" fill="#afafaf"/><rect x="147.93" y="333.24" width="2.84" height="2.84" fill="#afafaf"/><rect x="147.93" y="337.99" width="2.84" height="2.84" fill="#afafaf"/><rect x="147.93" y="342.74" width="2.84" height="2.84" fill="#afafaf"/><rect x="147.93" y="347.5" width="2.84" height="2.84" fill="#afafaf"/><rect x="147.93" y="352.25" width="2.84" height="2.84" fill="#afafaf"/><rect x="147.93" y="357.01" width="2.84" height="2.84" fill="#afafaf"/><rect x="147.93" y="361.76" width="2.84" height="2.84" fill="#afafaf"/><rect x="147.93" y="366.51" width="2.84" height="2.84" fill="#afafaf"/><rect x="242.85" y="268.6" width="2.84" height="2.84" fill="#afafaf"/><rect x="242.85" y="273.35" width="2.84" height="2.84" fill="#afafaf"/><rect x="242.85" y="278.11" width="2.84" height="2.84" fill="#afafaf"/><rect x="242.85" y="282.86" width="2.84" height="2.84" fill="#afafaf"/><rect x="242.85" y="287.61" width="2.84" height="2.84" fill="#afafaf"/><rect x="242.85" y="292.37" width="2.84" height="2.84" fill="#afafaf"/><rect x="242.85" y="297.12" width="2.84" height="2.84" fill="#afafaf"/><rect x="242.85" y="301.88" width="2.84" height="2.84" fill="#afafaf"/><rect x="242.85" y="306.63" width="2.84" height="2.84" fill="#afafaf"/><rect x="242.85" y="311.38" width="2.84" height="2.84" fill="#afafaf"/><rect x="242.85" y="316.14" width="2.84" height="2.84" fill="#afafaf"/><rect x="242.85" y="320.89" width="2.84" height="2.84" fill="#afafaf"/><rect x="242.85" y="325.65" width="2.84" height="2.84" fill="#afafaf"/><rect x="242.85" y="335.15" width="2.84" height="2.84" fill="#afafaf"/><rect x="242.85" y="339.91" width="2.84" height="2.84" fill="#afafaf"/><rect x="242.85" y="344.66" width="2.84" height="2.84" fill="#afafaf"/><rect x="242.85" y="349.42" width="2.84" height="2.84" fill="#afafaf"/><rect x="242.85" y="358.93" width="2.84" height="2.84" fill="#afafaf"/><rect x="242.85" y="363.68" width="2.84" height="2.84" fill="#afafaf"/><rect x="242.85" y="368.43" width="2.84" height="2.84" fill="#afafaf"/><rect x="247.35" y="268.6" width="2.84" height="2.84" fill="#afafaf"/><rect x="247.35" y="273.35" width="2.84" height="2.84" fill="#afafaf"/><rect x="247.35" y="278.11" width="2.84" height="2.84" fill="#afafaf"/><rect x="247.35" y="282.86" width="2.84" height="2.84" fill="#afafaf"/><rect x="247.35" y="287.61" width="2.84" height="2.84" fill="#afafaf"/><rect x="247.35" y="292.37" width="2.84" height="2.84" fill="#afafaf"/><rect x="247.35" y="297.12" width="2.84" height="2.84" fill="#afafaf"/><rect x="247.35" y="301.88" width="2.84" height="2.84" fill="#afafaf"/><rect x="247.35" y="306.63" width="2.84" height="2.84" fill="#afafaf"/><rect x="247.35" y="311.38" width="2.84" height="2.84" fill="#afafaf"/><rect x="247.35" y="316.14" width="2.84" height="2.84" fill="#afafaf"/><rect x="247.35" y="320.89" width="2.84" height="2.84" fill="#afafaf"/><rect x="247.35" y="325.65" width="2.84" height="2.84" fill="#afafaf"/><rect x="247.35" y="339.91" width="2.84" height="2.84" fill="#afafaf"/><rect x="247.35" y="344.66" width="2.84" height="2.84" fill="#afafaf"/><rect x="247.35" y="354.17" width="2.84" height="2.84" fill="#afafaf"/><rect x="247.35" y="358.93" width="2.84" height="2.84" fill="#afafaf"/><rect x="247.35" y="363.68" width="2.84" height="2.84" fill="#afafaf"/><rect x="247.35" y="368.43" width="2.84" height="2.84" fill="#afafaf"/><rect x="251.86" y="268.6" width="2.84" height="2.84" fill="#afafaf"/><rect x="251.86" y="273.35" width="2.84" height="2.84" fill="#afafaf"/><rect x="251.86" y="278.11" width="2.84" height="2.84" fill="#afafaf"/><rect x="251.86" y="282.86" width="2.84" height="2.84" fill="#afafaf"/><rect x="251.86" y="287.61" width="2.84" height="2.84" fill="#afafaf"/><rect x="251.86" y="292.37" width="2.84" height="2.84" fill="#afafaf"/><rect x="251.86" y="297.12" width="2.84" height="2.84" fill="#afafaf"/><rect x="251.86" y="301.88" width="2.84" height="2.84" fill="#afafaf"/><rect x="251.86" y="306.63" width="2.84" height="2.84" fill="#afafaf"/><rect x="251.86" y="311.38" width="2.84" height="2.84" fill="#afafaf"/><rect x="251.86" y="316.14" width="2.84" height="2.84" fill="#afafaf"/><rect x="251.86" y="320.89" width="2.84" height="2.84" fill="#afafaf"/><rect x="251.86" y="325.65" width="2.84" height="2.84" fill="#afafaf"/><rect x="251.86" y="330.4" width="2.84" height="2.84" fill="#afafaf"/><rect x="251.86" y="339.91" width="2.84" height="2.84" fill="#afafaf"/><rect x="251.86" y="349.42" width="2.84" height="2.84" fill="#afafaf"/><rect x="251.86" y="354.17" width="2.84" height="2.84" fill="#afafaf"/><rect x="251.86" y="358.93" width="2.84" height="2.84" fill="#afafaf"/><rect x="251.86" y="363.68" width="2.84" height="2.84" fill="#afafaf"/><rect x="251.86" y="368.43" width="2.84" height="2.84" fill="#afafaf"/><rect x="224.5" y="295.7" width="2.84" height="2.84" fill="#afafaf"/><rect x="224.5" y="300.46" width="2.84" height="2.84" fill="#afafaf"/><rect x="224.5" y="305.21" width="2.84" height="2.84" fill="#afafaf"/><rect x="224.5" y="309.97" width="2.84" height="2.84" fill="#afafaf"/><rect x="224.5" y="314.72" width="2.84" height="2.84" fill="#afafaf"/><rect x="224.5" y="319.48" width="2.84" height="2.84" fill="#afafaf"/><rect x="224.5" y="333.74" width="2.84" height="2.84" fill="#afafaf"/><rect x="224.5" y="338.49" width="2.84" height="2.84" fill="#afafaf"/><rect x="224.5" y="343.25" width="2.84" height="2.84" fill="#afafaf"/><rect x="224.5" y="348" width="2.84" height="2.84" fill="#afafaf"/><rect x="224.5" y="352.75" width="2.84" height="2.84" fill="#afafaf"/><rect x="224.5" y="357.51" width="2.84" height="2.84" fill="#afafaf"/><rect x="224.5" y="362.26" width="2.84" height="2.84" fill="#afafaf"/><rect x="229" y="295.7" width="2.84" height="2.84" fill="#afafaf"/><rect x="229" y="300.46" width="2.84" height="2.84" fill="#afafaf"/><rect x="229" y="305.21" width="2.84" height="2.84" fill="#afafaf"/><rect x="229" y="309.97" width="2.84" height="2.84" fill="#afafaf"/><rect x="229" y="314.72" width="2.84" height="2.84" fill="#afafaf"/><rect x="229" y="319.48" width="2.84" height="2.84" fill="#afafaf"/><rect x="229" y="333.74" width="2.84" height="2.84" fill="#afafaf"/><rect x="229" y="338.49" width="2.84" height="2.84" fill="#afafaf"/><rect x="229" y="343.25" width="2.84" height="2.84" fill="#afafaf"/><rect x="229" y="348" width="2.84" height="2.84" fill="#afafaf"/><rect x="229" y="352.75" width="2.84" height="2.84" fill="#afafaf"/><rect x="229" y="357.51" width="2.84" height="2.84" fill="#afafaf"/><rect x="229" y="367.02" width="2.84" height="2.84" fill="#afafaf"/><rect x="378.63" y="274.77" width="2.84" height="2.84" fill="#afafaf"/><rect x="378.63" y="279.52" width="2.84" height="2.84" fill="#afafaf"/><rect x="378.63" y="284.28" width="2.84" height="2.84" fill="#afafaf"/><rect x="378.63" y="289.03" width="2.84" height="2.84" fill="#afafaf"/><rect x="378.63" y="293.79" width="2.84" height="2.84" fill="#afafaf"/><rect x="378.63" y="298.54" width="2.84" height="2.84" fill="#afafaf"/><rect x="378.63" y="303.29" width="2.84" height="2.84" fill="#afafaf"/><rect x="378.63" y="308.05" width="2.84" height="2.84" fill="#afafaf"/><rect x="378.63" y="312.8" width="2.84" height="2.84" fill="#afafaf"/><rect x="378.63" y="317.56" width="2.84" height="2.84" fill="#afafaf"/><rect x="378.63" y="322.31" width="2.84" height="2.84" fill="#afafaf"/><rect x="378.63" y="331.82" width="2.84" height="2.84" fill="#afafaf"/><rect x="378.63" y="336.57" width="2.84" height="2.84" fill="#afafaf"/><rect x="378.63" y="341.33" width="2.84" height="2.84" fill="#afafaf"/><rect x="378.63" y="346.08" width="2.84" height="2.84" fill="#afafaf"/><rect x="378.63" y="350.84" width="2.84" height="2.84" fill="#afafaf"/><rect x="378.63" y="355.59" width="2.84" height="2.84" fill="#afafaf"/><rect x="378.63" y="360.34" width="2.84" height="2.84" fill="#afafaf"/><rect x="378.63" y="365.1" width="2.84" height="2.84" fill="#afafaf"/><rect x="383.13" y="274.77" width="2.84" height="2.84" fill="#afafaf"/><rect x="383.13" y="279.52" width="2.84" height="2.84" fill="#afafaf"/><rect x="383.13" y="284.28" width="2.84" height="2.84" fill="#afafaf"/><rect x="383.13" y="289.03" width="2.84" height="2.84" fill="#afafaf"/><rect x="383.13" y="293.79" width="2.84" height="2.84" fill="#afafaf"/><rect x="383.13" y="298.54" width="2.84" height="2.84" fill="#afafaf"/><rect x="383.13" y="303.29" width="2.84" height="2.84" fill="#afafaf"/><rect x="383.13" y="308.05" width="2.84" height="2.84" fill="#afafaf"/><rect x="383.13" y="312.8" width="2.84" height="2.84" fill="#afafaf"/><rect x="383.13" y="317.56" width="2.84" height="2.84" fill="#afafaf"/><rect x="383.13" y="322.31" width="2.84" height="2.84" fill="#afafaf"/><rect x="383.13" y="327.06" width="2.84" height="2.84" fill="#afafaf"/><rect x="383.13" y="331.82" width="2.84" height="2.84" fill="#afafaf"/><rect x="383.13" y="336.57" width="2.84" height="2.84" fill="#afafaf"/><rect x="383.13" y="341.33" width="2.84" height="2.84" fill="#afafaf"/><rect x="383.13" y="346.08" width="2.84" height="2.84" fill="#afafaf"/><rect x="383.13" y="350.84" width="2.84" height="2.84" fill="#afafaf"/><rect x="383.13" y="355.59" width="2.84" height="2.84" fill="#afafaf"/><rect x="383.13" y="360.34" width="2.84" height="2.84" fill="#afafaf"/><rect x="383.13" y="365.1" width="2.84" height="2.84" fill="#afafaf"/><rect x="356.45" y="293.29" width="2.84" height="2.84" fill="#afafaf"/><rect x="356.45" y="298.04" width="2.84" height="2.84" fill="#afafaf"/><rect x="356.45" y="302.79" width="2.84" height="2.84" fill="#afafaf"/><rect x="356.45" y="307.55" width="2.84" height="2.84" fill="#afafaf"/><rect x="356.45" y="312.3" width="2.84" height="2.84" fill="#afafaf"/><rect x="356.45" y="317.06" width="2.84" height="2.84" fill="#afafaf"/><rect x="356.45" y="321.81" width="2.84" height="2.84" fill="#afafaf"/><rect x="356.45" y="326.56" width="2.84" height="2.84" fill="#afafaf"/><rect x="356.45" y="331.32" width="2.84" height="2.84" fill="#afafaf"/><rect x="356.45" y="336.07" width="2.84" height="2.84" fill="#afafaf"/><rect x="360.95" y="293.29" width="2.84" height="2.84" fill="#afafaf"/><rect x="360.95" y="298.04" width="2.84" height="2.84" fill="#afafaf"/><rect x="360.95" y="302.79" width="2.84" height="2.84" fill="#afafaf"/><rect x="360.95" y="307.55" width="2.84" height="2.84" fill="#afafaf"/><rect x="360.95" y="312.3" width="2.84" height="2.84" fill="#afafaf"/><rect x="360.95" y="317.06" width="2.84" height="2.84" fill="#afafaf"/><rect x="360.95" y="321.81" width="2.84" height="2.84" fill="#afafaf"/><rect x="360.95" y="326.56" width="2.84" height="2.84" fill="#afafaf"/><rect x="360.95" y="331.32" width="2.84" height="2.84" fill="#afafaf"/></g><path d="M137,175.65a8.79,8.79,0,0,0-11.35-8.44,18.67,18.67,0,0,0-21.92-21.06,16.32,16.32,0,0,0-30.26,8.25h-.27a15,15,0,1,0,0,30.08h55.24v0A8.81,8.81,0,0,0,137,175.65Z" fill="#e6e6e6" opacity="0.3"/><path d="M369.66,156.26a5.63,5.63,0,0,1,5.63-5.63,5.7,5.7,0,0,1,1.61.23,12.22,12.22,0,0,1-.12-1.72,11.92,11.92,0,0,1,11.92-11.93,12.13,12.13,0,0,1,2.19.21,10.42,10.42,0,0,1,19.32,5.27h.18a9.6,9.6,0,1,1,0,19.2H375.13A5.63,5.63,0,0,1,369.66,156.26Z" fill="#e6e6e6" opacity="0.3"/><path d="M257.54,95.51A3.45,3.45,0,0,1,261,92.06a3.59,3.59,0,0,1,1,.15,7.45,7.45,0,0,1-.08-1.06,7.3,7.3,0,0,1,7.3-7.3,6.72,6.72,0,0,1,1.35.13,6.38,6.38,0,0,1,11.84,3.22h.1a5.88,5.88,0,0,1,0,11.76h-21.6A3.46,3.46,0,0,1,257.54,95.51Z" fill="#e6e6e6" opacity="0.3"/></g><g id="Shadow"><ellipse id="_Path_" data-name="&lt;Path&gt;" cx="250" cy="416.24" rx="193.89" ry="11.32" fill="#f5f5f5"/></g><g id="Street"><path d="M53.76,385.17v13.7h386v-13.7a4.08,4.08,0,0,0-4-4.3H57.8A4.08,4.08,0,0,0,53.76,385.17Z" fill="#afafaf"/><rect x="393.76" y="380.87" width="24" height="18" fill="#9e9e9e"/><rect x="348.76" y="380.87" width="23" height="18" fill="#9e9e9e"/><rect x="302.76" y="380.87" width="24" height="18" fill="#9e9e9e"/><rect x="257.76" y="380.87" width="23" height="18" fill="#9e9e9e"/><rect x="212.76" y="380.87" width="23" height="18" fill="#9e9e9e"/><rect x="166.76" y="380.87" width="24" height="18" fill="#9e9e9e"/><rect x="121.76" y="380.87" width="23" height="18" fill="#9e9e9e"/><rect x="75.76" y="380.87" width="24" height="18" fill="#9e9e9e"/></g><g id="Device"><path d="M189.22,320.61l29.88-.13c4.24-.78,8.5-.3,12.75-.27,2.83,0,4.22,1.5,4.29,4.37s-.29,5.51.5,8.2a9.15,9.15,0,0,1,.12,3.13c-1,10.87-.25,21.76-.44,32.64,0,1.5.29,3-.26,4.5-1.45,1.41-3.31,1.23-5.09,1.26-4.28.06-8.58.15-12.86,0-5.21-.2-9.67,1.49-14,4.33-5.61,3.69-11.68,3.15-17.75,1-.65-5.11-.19-10.24-.2-15.36,0-12.2.11-24.41,0-36.61C186.14,324.93,185.91,322,189.22,320.61Z" fill="#afafaf"/><path d="M189.22,320.61c-1.78,1.52-1.8,3.55-1.8,5.68q.06,24.29,0,48.57c0,1.63.34,3.35-.86,4.77a3,3,0,0,1-1.32,1,15.91,15.91,0,0,1-4.95.48c-14.16,0-28.32,0-42.49,0-2.15,0-4.5.46-6.23-1.49,1.59-2.94-.1-5.89,0-8.83.62-12.92-.79-25.88.68-38.79.23-2-.6-4.08-.65-6.13-.1-3.4,1.17-5.36,5.13-5.32C154.26,320.65,171.74,320.59,189.22,320.61Z" fill="#ebebeb"/><path d="M235.69,333.13c-1.19-2.79-.46-5.71-.52-8.57,0-2.47-1-3.28-3.48-3.38-4.19-.17-8.48,1-12.59-.7a112.45,112.45,0,0,1,5.73-14.14c2.84-3.25,7-3.81,10.76-4.93q22.08-6.62,44.32-12.69c4.82-1.33,7,.72,5.65,5.62-2.11,7.77-5.67,15-8.39,22.58-.88,2.44-1,5.21-3,7.22a3,3,0,0,1-1.42.25c-10.52-.16-21,0-31.54-.06-3,0-4.26,1.25-4.17,4.22C237.12,330.17,237.19,331.92,235.69,333.13Z" fill="#d7a126"/><path d="M232.2,287.94c2-7.17,5.47-13.74,7.91-20.73.68-1.92,1.85-3.7,1.71-5.86,1.73-1.61,3.89-1.19,5.91-1.2,14.9,0,29.79,0,44.88,0-1.25-1.68-3.29-2.39-4-4.29-.32-3,.38-5.21,4.11-4.7,3.33,2.14,6.56,4.47,10,6.34,2.27,1.21,2.5,2.43,1.59,4.62-2.72,6.5-5.19,13.11-7.9,19.61-1,2.44-1.33,4.23,1.53,5.7a72.13,72.13,0,0,1,7.09,4.78c-.94,2.72-2.81,3.58-5.46,2.59A14.56,14.56,0,0,0,296,294c-1.43-.11-2.66-1.07-4.14-1-4.1.3-4.89-.48-4.45-4.5.39-3.61,2.18-6.86,2.81-10.41.76-4.32.08-5.12-4.19-4-10.32,2.67-20.43,6.05-30.72,8.83-6.41,1.73-12.88,3.3-19.22,5.29C234.84,288.63,233.41,289.16,232.2,287.94Z" fill="#e8be2d"/><path d="M232.2,287.94c16-4.28,32-8.27,47.72-13.54,3-1,6.17-1.43,9.22-2.29,2-.57,2.45.39,2.56,2.05A20.81,20.81,0,0,1,290,283c-1.14,3-2.09,6-1.49,9.25,1.56.34,2.77-.4,4-.88.85,1.36.21,2.47-.59,3.56a7.21,7.21,0,0,0-2.19,3.43c-1.47,5.45-3.27,10.8-5.21,16.12-2.18,6-2,6,3.17,9.7,1.36,1,3.9,1.45,2.89,4.19a3.51,3.51,0,0,1-3.57,0c-3.5-1.87-7.37-2.14-11.18-2.69-.87-.31-1.85-.51-1.72-1.77,1.21-7.61,4.86-14.37,7.42-21.5,1.12-3.13,2.4-6.22,3.24-9.42s-.6-4.34-3.75-3.45c-15.15,4.28-30.32,8.51-45.44,12.89-3.68,1.06-7.22,2.59-10.82,3.91C227.08,300.12,228.88,293.72,232.2,287.94Z" fill="#e0b22b"/><path d="M131.58,379.57q24.42.06,48.85.12c1.79,0,3.58.1,5.37.15-.35,4.93-.85,9.85.07,14.79a3.59,3.59,0,0,1-1.47,3.66,2.59,2.59,0,0,1-2.58.13c-1.38-1.52.43-5.2-3.51-5.06-1.95.07-3.63.2-4,2.63a3.22,3.22,0,0,1-1.59,2.77c-.55.12.15.15-.4.14-10.5-.23-21,.21-31.51,0-.48-.25-1-.49-1.13-1.1-.29-2.15,0-4.37-3.43-4.48s-3.46,2.4-4.15,4.52c-2,2-.19,5.12-2.23,7.06-1.68-2.4-.67-5.09-.75-7.64-.14-4.44,0-8.89,0-13.33C129.06,381.88,129.6,380.35,131.58,379.57Z" fill="#6f6f6f"/><path d="M181.43,398l2.66.07.5.47c.41,4.64,2.86,6.6,7.55,6.1,1.07-.11,3.27-.28,2.52,2.23-3.74,1.57-7.67.62-11.5.81-2.63.13-5.27.07-7.89.21a11,11,0,0,0-9.26,2.22c-3.13,2.39-6.74,2.07-10-.2a16.81,16.81,0,0,0-2.3-1.75c-1-.47-2.18-1-3,.07s.06,1.84.55,2.63a12.22,12.22,0,0,0,5.31,5.05c1,.47,2.61.39,2.63,2.14a29.1,29.1,0,0,1-10-.7,12.12,12.12,0,0,1-8.12-7.67c-1.12-3.21-3-3.7-5.86-3.52-1.8.11-3.93.78-5.29-1.26,0-1.78.11-3.57,0-5.35-.09-1.59.67-1.87,2-1.61a7.47,7.47,0,0,1,7.92.09q16.88-.8,33.75-.07A7.46,7.46,0,0,1,181.43,398Z" fill="#585858"/><path d="M353.22,323.92l22.61,14.3c1,.52,2.16.57,3.1,1.21,4.5,2.07,7.87,5.07,8.55,10.3q0,18.33,0,36.67c-3.58,1.91-4.11-.67-4.26-3.14-.33-5.08-.1-10.17-.13-15.26s0-10.45,0-15.93c-1.47.67-1.92,2.17-3.11,2.78-2.32,1.08-4.14-.49-6.12-1.17-1.5-1.15-.73-2.38-.08-3.58.5-.94,1.29-1.79.82-3-4.06-4.25-9.33-6.77-14.15-9.91-1.52-1-1.82.48-2.26,1.45-2.07,5-3.9,10.06-5.89,15.07-.59,1.47-.85,3.3-2.86,3.74-1.64-1.19-3.69-1.55-5.39-2.64-.64-3.7,1.65-6.6,2.73-9.81,1.46-4.31,3.82-8.31,4.54-12.87-1.44-2.75-4.5-3.5-6.6-5.41-.95-.86-3-1.29-1.71-3.35C346.43,322.56,349.83,323.1,353.22,323.92Z" fill="#d69f27"/><path d="M353.22,323.92c-3.56,1.36-7.1-.29-10.65,0-1.56.73-2.63-.43-3.82-1-1.54-.78-1.95.23-2.35,1.36-1.27,1.88-.9,4.83-3.71,5.7-1.46-1.73-1.23-4.93-4.46-5.11-1.21-2.69,1.89-4.84.91-7.49-3.26-4-8-5.86-12.12-8.59-1.59-1.06-2.16.32-2.65,1.53-2.87,5.55-4.8,11.49-7.21,17.23-.58,1.37-.76,3-2.69,3.28a1.45,1.45,0,0,1-.76-1.74c.74-2.75-1-3.64-3.1-4.27-.91-1.52-.18-2.91.37-4.29,1.71-4.33,3.33-8.68,5.23-12.93.61-1.37,1.34-2.71,1-4.3-1.77-3.14-5.22-4.15-7.82-6.21-1.4-1.1-3.71-1.45-3.53-4,.95.07,2.17-.21,2.81.27,2.65,2,4.52.53,6.43-1.13C321.19,302.66,337.54,312.78,353.22,323.92Z" fill="#e0b22b"/><path d="M379.21,354.7l4.2-6.1c1.41.83.78,2.06.79,3,.07,10.47.13,20.95.05,31.42,0,2.38.53,3.76,3.19,3.37,0,.29-.07.59-.1.89-9,.82-18,.27-27,.3-3.16,0-3.68-2.84-4-5.42.49-2.1,2.55-1.52,3.84-2.26,1.53-.54,2.33-1.81,3.22-3.07,4.37-6.22,8.45-12.62,12.64-18.95A9.9,9.9,0,0,1,379.21,354.7Z" fill="#ad6519"/><path d="M346.79,417.4a22.1,22.1,0,0,1-7.64.6c-7.72-2.4-12.27-11.43-10.47-20,1.58-7.52,10-15.62,18.23-12.93a22.58,22.58,0,0,1,7,5.1,11.16,11.16,0,0,1,2.73,8.74C357.57,408.39,354.37,414.37,346.79,417.4Z" fill="#575857"/><path d="M289.17,255.47l7.38,5.88H241.82l-7.69-5.08c.57-2.23,2.51-2,4.06-2,15.7-.14,31.4-.12,47.1,0A5.49,5.49,0,0,1,289.17,255.47Z" fill="#c1791d"/><path d="M289.17,255.47q-25.37,0-50.73,0c-1.45,0-3.08-.62-4.31.76-.42-3.29,1.53-6.21,4.36-6.22,17.17-.11,34.35-.15,51.53-.21,1.11,0,2.29-.13,2.7,1.31C290.43,251.68,289.12,253,289.17,255.47Z" fill="#f4e171"/><path d="M356.92,381.41c.7,4.65,3.25,6.21,8,5.94,7.45-.41,14.95-.08,22.42-.07-2.55,1.51-5.34.61-8,.69-5.38.16-10.77.17-16.15,0-3.29-.1-3.36,1.06-2.18,3.63,2.79,6.11,2.71,6.15-4.17,6.64l-.23-.35c4.5-2.15,1.29-4.52.4-7.09-2.05-5.92-6.15-7.59-11.9-6.54-12.63.09-25.25.13-37.86,0-4-.05-6.4,1.46-8.18,5-1.62,3.2-2.44,7.24-6.67,8.45a1.51,1.51,0,0,1-1.07-2.25c2.28-5.56,3.94-11.42,7.91-16.16a10.79,10.79,0,0,1,4.3-1c15.66.36,31.33,0,47,.21C353,378.51,356.06,377.71,356.92,381.41Z" fill="#afadab"/><path d="M130,353.05c-5.82,2.63-7.46,1.67-7.46-4.38,0-1.38,0-2.76,0-4.14,0-6.13,1.31-7,7.39-4.8A54.46,54.46,0,0,1,130,353.05Z" fill="#707070"/><path d="M345.91,383.06c9.06-.05,10.58,1.32,15.21,13.67-1.14,1.31-3.4-.5-4.28,1.51a1.84,1.84,0,0,1-.17.69c-.84-6.26-5-10.08-9.83-13.43C346,384.91,345.31,384.22,345.91,383.06Z" fill="#858585"/><path d="M387.48,349.73c-1.16-1.23-3.65-1.63-2.16-4.4.56-1-1-1.77-2-2.16a10.87,10.87,0,0,1-5-3.38c.87-3,3.46-3.88,5.89-5,4.88,0,6.55,2.21,4.08,6.17C386.51,343.92,388.43,346.89,387.48,349.73Z" fill="#e5bb2e"/><path d="M384.28,334.79l-5.89,5a3.29,3.29,0,0,1-2.56-1.57C378.92,337.75,380.49,333.54,384.28,334.79Z" fill="#f3e174"/><path d="M130,353.05q0-6.66-.07-13.32A24,24,0,0,1,130,353.05Z" fill="#ebebeb"/><path d="M235.89,373c3.42,1.26,1.93,4.34,2.46,6.67,2.17,5.22,1.21,10.61.63,15.92-.22,1.93-2,2.93-4,3.08-1.79.13-2.78-1-3.44-2.51-.5-1.14-.88-2.33-1.46-3.44-2.85-5.42-7.08-9.12-13.42-9s-11.19,3.9-13.34,9.69c-1.82,4.88-4.65,6.41-9.38,5.83-3.24-.41-6.67.86-9.74-1.09l-.13-.13c2.08-3.86-.61-7.7-.06-11.62.33-2.32.44-4.58,1.77-6.58a3,3,0,0,1,.77-.21c2.08,0,4.15,0,6.22.08,4.57.18,8.81.05,12.7-3.35,3.12-2.73,7.41-3.46,11.72-3.37C223.43,373.11,229.66,373,235.89,373Z" fill="#585858"/><path d="M204.74,329.78c3.88,0,7.76.09,11.64,0,3-.1,4.38,1,4.32,4.09-.08,5.13,0,10.26,0,15.38,0,2.34-1,3.48-3.42,3.8-7.66,1-15.31,2.14-23,3.28-2.85.42-4.68.2-4.49-3.62.31-6.36.26-12.75,0-19.11-.13-3.31,1.16-4,4.11-3.84C197.52,330,201.13,329.78,204.74,329.78Z" fill="#51527e"/><path d="M251.65,345.54l-15.79-10.1c-.06-.77-.11-1.54-.17-2.31.47-10.08.47-10.08,10.85-10.08,7.5,0,15,0,22.51,0,1.46,0,3.09-.55,4.32.82a2.23,2.23,0,0,1-2.15,1.64c-4.1.12-6.15,3-8.48,5.77C258.9,335.93,255.69,341.06,251.65,345.54Z" fill="#c17a1d"/><path d="M184.88,336.37l0,2.52c-3.72.09-6.3,2.71-9.35,4.26-7,3.57-13.48,8.17-20.5,11.9,4.87.36,9.66.31,14.47.2,3.58,0,7.15-.22,10.72-.11,1.64.05,3.33,0,4.66,1.22-1,1.41-2.55.8-3.85.8-15.36,0-30.73.23-46.08-.78-1.2-3.12.15-4.37,3-5.87,8.34-4.34,16.36-9.3,24.62-13.83a10.15,10.15,0,0,1,2.62-1.24c5.41-.43,10.82-.15,16.23-.18A4.6,4.6,0,0,1,184.88,336.37Z" fill="#a0aadc"/><path d="M134.31,335.32c.11-6.24-.85-5.48,5.5-5.5,13.26,0,26.53,0,39.79,0,5.43,0,5.43,0,5.23,5.67-.24.15-.48.42-.71.41-15.65-.28-31.27,1.48-46.93.78a6.1,6.1,0,0,1-1.63-.31A3.31,3.31,0,0,1,134.31,335.32Z" fill="#51537e"/><path d="M134.31,335.32a1.74,1.74,0,0,1,.63.25c7.81.93,15.65.14,23.47.44,1.9.07,3.85-.45,5.7.4-4.86,4.33-11,6.58-16.5,9.8-3.74,2.18-7,5.28-11.5,6.23-2,.42-.86,2.58-1.18,3.94-1.66-3.79-.53-7.76-.74-11.64C134,341.61,134.26,338.46,134.31,335.32Z" fill="#b0bdeb"/><path d="M168.4,356.32H151.54c4.23-3.92,8.9-5.42,12.92-7.95,5.39-3.38,11-6.41,16.53-9.54,1.25-.71,2.61-1.92,3.86.06,0,3.89,0,7.77,0,11.66-4.07-1.82-6.76,1.3-9.67,3A21.86,21.86,0,0,1,168.4,356.32Z" fill="#8e96ca"/><path d="M159.61,366.54c4.57,0,9.15,0,13.72,0,1.06,0,2.43-.24,2.53,1.38s-1.22,1.93-2.55,1.93H145.87c-1.37,0-2.62-.29-2.53-2s1.52-1.31,2.54-1.32C150.46,366.52,155,366.54,159.61,366.54Z" fill="#737373"/><path d="M159.45,376.49H146.14c-1.3,0-2.66-.12-2.77-1.78-.14-2.08,1.58-1.52,2.67-1.53q13.52-.06,27,0c1.13,0,2.76-.46,2.77,1.51,0,1.76-1.39,1.81-2.67,1.81Z" fill="#727272"/><path d="M168.4,356.32c4.11-2.35,8.4-4.46,12.28-7.14,2.51-1.72,3.26-.57,4.15,1.37,0,1.94,0,3.88,0,5.81Z" fill="#787cb4"/><path d="M164.11,336.41c-8.28,0-16.57,0-24.85-.08-1.45,0-3.07.54-4.32-.76l49.89-.09c0,.3,0,.59,0,.89Z" fill="#8e96ca"/><path d="M251.65,345.54c5.73-8.73,9.58-19.35,21.72-21.66l.81,0a1.71,1.71,0,0,0,1.64.85c5.53,2.31,10.29,5.92,15.23,9.21a3.72,3.72,0,0,1,2,2.54c-.15,2.67-2.11,4.4-3.52,6.35-1.83,2.52-4.18,4.63-5.69,7.44-.74,1.4-2,2.24-3.78,1.39-1.41-1.57.37-3.38-.31-5.47-2.54,2.92-3.49,6.18-4.83,9.24-.67,1.52-.73,3.67-3.23,3.54C265.34,354,257.83,350.74,251.65,345.54Z" fill="#b86f1b"/><path d="M295.83,293.06c2.77,3.08,6.84,4.33,9.83,7.05.79.71,3,.78,1.86,2.85a2.13,2.13,0,0,1-1.62.86,30.69,30.69,0,0,1-14.16-9.13l.84-3.28C293.71,291.88,294.43,293.15,295.83,293.06Z" fill="#c17b1f"/><path d="M292.53,336.4a134.27,134.27,0,0,0-13.26-8.87c-1.23-.75-2.79-1.25-3.45-2.78,4.07.41,8.24.23,11.85,2.79.79.56,2.12.36,3.2.51,1.51-.68,2.52.47,3.71,1,.91.42,1.78,1.45,2.85.28,1.2-1.5.6-4.32,3.39-4.64,4.51-.83,4.94-.09,3.4,5.86,1.32,8.44,8.61,10.2,14.78,13.17,3.05-4.93,4.38-10.58,6.8-15.76.59-1.25.46-3.13,2.52-3.27,5.4-1.68,4,2.36,4.24,5,1,1.19.26,2.34-.13,3.46-1.45,4.14-2.86,8.32-4.68,12.31-1.19,2.6-1,4.31,1.52,5.86,1.26.77,3.12,1.49,2.31,3.69-3.08,1.52-6.32.09-9.46.54a9.49,9.49,0,0,1-3-1c-8.14-5-15.84-10.68-24-15.58A5.31,5.31,0,0,1,292.53,336.4Z" fill="#d7a126"/><path d="M298.34,330.5c-3.49,2.21-4.81-2.16-7.47-2.45-1.8-2.38-4.57-3.45-6.92-5.09-2-1.38-2.67-2.83-1.7-5.25a159.25,159.25,0,0,0,6.72-20.3c.41-1.64.71-3,2.77-2.72,4.83,2.7,9.05,6.41,14.18,8.62,0,4.43-2.34,8.12-3.87,12-1.25,3.2-2.38,6.46-3.65,9.65C297.73,326.69,297.05,328.66,298.34,330.5Z" fill="#e8bf2d"/><path d="M184.22,398.17c4.3,0,8.6-.17,12.89-.07,2.21,0,3.34-.39,4.06-2.85a17.19,17.19,0,0,1,9.92-11.51c10-4.22,18.07,2.41,21.2,10.84.56,1.51.28,3.67,2.75,3.27s3.4-1.93,3.32-4.46c-.14-4.57,0-9.14,0-13.72l24.67-.08c2.17-1.38,4.57-1.18,7-1.06,6.63.06,13.28-.56,19.89.37,2.45,1.17,1.43,3,.69,4.56-1.42,3-2.62,6.11-4.13,9.06-1.36,2.66-.92,3.86,2.21,3.69a4.44,4.44,0,0,1,3.12.93c2.05.71,2.26-1.13,2.88-2.2,1.87-3.23,3.65-6.52,5.4-9.82a3.56,3.56,0,0,1,3.5-2.3c14.13.14,28.25.18,42.37.24l.93,2.44c-10.37.54-15.8,4.52-17.25,14-1.25,8.12,2.43,14.39,9.56,18.54a22.54,22.54,0,0,1-8.22-.69c-3.93,0-6.36-2.06-7.75-5.58-.55-1.87.31-3.53.82-5.24,1.89-6.36.07-11.91-4.32-16.45-5.08-5.25-14.17-3.45-18.08,3.26a16.9,16.9,0,0,0,3.85,21.45c1.09.9,2.94,1.24,2.81,3.22a23.73,23.73,0,0,1-8.27-.59,46.24,46.24,0,0,0-8.32-.06c-2.18.45-4.36,1-6.62.67-4.16-.37-7-2.69-9.15-6.09-3.61-5.78-3.93-5.77-7.54.09-2.26,2.54-4,5.85-8.22,5.44-2,.13-3.9,1-5.94.55-3.83-.15-7.2-1.51-8.78-5.06-2-4.42-5.12-6.11-9.73-5.64a9.47,9.47,0,0,1-1.2-.26c-3.34-.2-5.41-1.31-5-5.33a13.33,13.33,0,0,0-1.4-6.46c-2.27-5.24-7.79-8.92-12.34-8.26-5.83.84-10.73,6.17-11.35,12.24-.7,6.74,1.09,12.36,7,16.28.86.57,2.07,1,1.81,2.49a26.4,26.4,0,0,1-8.36-.55,11,11,0,0,1-9.84-11.1c-1.06-1.3-2.53-.77-3.83-.79C184.07,405.43,184.07,405.45,184.22,398.17Z" fill="#363636"/><path d="M308.26,418c-9.71-6.41-12.57-15.16-8.1-24.38a13.24,13.24,0,0,1,11.47-7.79c4.7-.29,8.78,2,11.27,6.44,2.86,5.05,4.14,10.24,1.7,15.82a4.65,4.65,0,0,0-.5,3.56c-2.18,3.11-4.28,6.33-8.83,5.84A17.29,17.29,0,0,1,308.26,418Z" fill="#575757"/><path d="M213.21,418c-7.23-4-10.68-9.92-10-18.39.57-6.82,6.32-13.3,13.13-14,5.45-.53,12.47,5.62,13.64,11.93.17.95.73,1.94.57,2.81-.65,3.66,1,5.48,4.45,6a12.22,12.22,0,0,0-6.94,6.33c-1.59,3-4.14,5-7.9,4.72C217.87,417.78,215.58,418.42,213.21,418Z" fill="#575857"/><path d="M174.18,407.33a13.81,13.81,0,0,1-9.17,10.1c-2,.13-3.86,1-5.88.58a13.69,13.69,0,0,1-9.16-7c-.71-1.35-2.37-3.16-.68-4.24a5,5,0,0,1,5.46.37c6.31,4.87,6.86,4.86,13,.3A5,5,0,0,1,174.18,407.33Z" fill="#363636"/><path d="M244.88,417.45c-5.57-1.65-8.38-5.75-9.84-11.06a30.36,30.36,0,0,0,4.16,0c2.77-.38,4.33.69,5.39,3.29A13.77,13.77,0,0,0,254.2,418,30.69,30.69,0,0,1,244.88,417.45Z" fill="#585858"/><path d="M267.54,411.48a25.52,25.52,0,0,0,1.69-3.23c.59-1.64,1.8-1.83,3.26-1.86a2.41,2.41,0,0,1,2.71,1.86,15.85,15.85,0,0,0,9.85,9.74,27.27,27.27,0,0,1-9.27-.63C271.36,417.75,269.44,414.63,267.54,411.48Z" fill="#585858"/><path d="M181.43,398l-7.88,0c-.31-1.86-1.2-4.37.3-5.39,2-1.34,5.05-1.12,7.11-.22C183.38,393.37,182.38,395.94,181.43,398Z" fill="#f3f3f3"/><path d="M139.8,398l-7.92-.09c-.3-1.87-1.24-4.39.37-5.41a8,8,0,0,1,7.18-.19C141.79,393.4,140.89,396,139.8,398Z" fill="#eaeaea"/><path d="M156.93,396.47c-1.79,0-3.57,0-5.36,0a1.47,1.47,0,0,1-1.58-1.52,1.53,1.53,0,0,1,1.67-1.84c3.58,0,7.15,0,10.73,0a1.46,1.46,0,0,1,1.58,1.51,1.56,1.56,0,0,1-1.68,1.86C160.5,396.51,158.72,396.48,156.93,396.47Z" fill="#a8a8a8"/><path d="M177.89,388.91c-1.34,0-2.31,0-3.27,0s-1.39-.68-1.36-1.64a1.38,1.38,0,0,1,1.49-1.56,13.3,13.3,0,0,1,2.89,0c1.55.3,4.3-1.17,4.36,1.52C182.06,390.48,179,388.16,177.89,388.91Z" fill="#ebebeb"/><path d="M135.63,389.1a14.48,14.48,0,0,1-3.53-.59c-.83-.35-.64-1.49-.23-2.21.54-.94,7.61-.95,8.31,0a1.53,1.53,0,0,1,0,2.22C138.82,389.51,137.18,388.66,135.63,389.1Z" fill="#ebebeb"/><path d="M321.64,354.79c3.36-1,6.73.29,10.09-.07,2-.66,3.41.74,4.9,1.66,1.29.8,2.36,2,4,2.05,1.83-.62,1.59-3.29,3.64-3.69,2,.16,4.57-.79,5,2.52a2,2,0,0,1,.41,1.92c-.36,2-1.85,4.29.38,5.73,3.21,2.06,5.61,5.79,10.13,5.37a163.54,163.54,0,0,0,9.18-13.6c1-1.53,1.49-3.68,3.94-3.66,2.29-.56,3.87,1.35,5.91,1.69-5.26,8-10.54,16.06-15.76,24.13a3.17,3.17,0,0,1-2.58,1.77c-1.61.91-2.58-.44-3.66-1.12-10.84-6.84-21.41-14.1-32.3-20.88C323.49,357.73,321.52,357.09,321.64,354.79Z" fill="#ca8a21"/><path d="M360.89,371.42c-1.11,1.55-2.26.5-3.26-.06-1.44-.81-2.77-1.82-4.15-2.74-6.32-4.23-6.32-4.23-4.22-11.36,3.41-5.58,4.67-12.06,7.48-17.89a12.91,12.91,0,0,1,.87-1.35c1.3-.95,2.37-.1,3.35.56,4.18,2.81,8.48,5.44,12.55,8.43-.86,4.76-4.55,7.93-6.83,11.88-1.37,2.35-3,4.59-4.53,6.85C361,367.4,359.82,369.2,360.89,371.42Z" fill="#e8bf2d"/><path d="M344.27,354.74c-1.49,1.43-.72,4.35-3.36,5a5.21,5.21,0,0,1-.84-5.47c2.91-7.54,4.9-15.48,9.4-22.36.93-.76,1.89-1.37,3.09-.51-.21,4.71-3,8.54-4.4,12.86C347,347.81,345.58,351.25,344.27,354.74Z" fill="#f4e170"/><path d="M360.89,371.42c-2.94-1.18-1.55-3.11-.57-4.59,4.3-6.54,8.74-13,13.13-19.46a1.11,1.11,0,0,1,1.63-.24c1.11.18,1.31.62.65,1.62-.9,1.36-1.62,2.84-2.42,4.27Z" fill="#f4e170"/><path d="M375.08,347.13l-1.63.24c-4.47-1.57-7.92-4.84-11.92-7.2-1.27-.76-2.29-2-3.92-2.15.25-2.11.66-3.44,3.22-1.73,4.55,3,9.28,5.84,13.94,8.73C375.74,345.62,375.48,346.36,375.08,347.13Z" fill="#c07c1e"/><path d="M352.56,331.4l-2.51.87a2.13,2.13,0,0,1-2.67,0c-3.79-2.83-8.25-4.76-11.42-8.43-.34-2.7.36-3.84,3.07-2.1,1.16.75,2.36,1.45,3.53,2.17C345.57,326.83,349.78,328.16,352.56,331.4Z" fill="#c27b1e"/><path d="M336,323.82c3.71,1.6,6.83,4.13,10.08,6.44a9.62,9.62,0,0,0,4,2c-3.7,6.79-5.67,14.31-8.81,21.34-.78,1.75-.26,4.07-.33,6.13-3.66-.57-5.76-4-9.18-5-1.35-2.88-6.58-2.54-6.14-6.42.35-3.05,2.23-5.91,3.37-8.88,1.24-3.21,2.4-6.46,3.6-9.69C334.58,328.27,333.89,325.25,336,323.82Z" fill="#e8bf2d"/><path d="M319.31,345.49c-5.11-2.2-9.51-5.56-14.12-8.6-2.88-1.9-.85-4.2-1-6.33,2.55-3.13,3.19-7.13,4.84-10.67s2.05-7.54,5.22-10.22c5.78,1,10,4.52,13.77,8.62-.06,3.57-2,6.56-3.24,9.69C322.48,333.68,319.92,339.26,319.31,345.49Z" fill="#e8bf2d"/><path d="M319.31,345.49c-1.93-5.12,1.25-9.27,2.73-13.68,1.57-4.67,3.65-9.18,5.51-13.75.55-1.15,1.31-1.67,2.52-.85,1.27,2.93-1.52,4.91-1.75,7.49-2.46,6-5,12.06-7.35,18.13C320.57,343.87,320.41,344.94,319.31,345.49Z" fill="#f4e170"/><path d="M298.34,330.5c-3.13-1.24-1.84-3.79-1.18-5.54,2.74-7.28,5.81-14.45,8.76-21.65l1.6-.35c2.64,1.3.45,2.85,0,4-2.23,5.91-5.16,11.55-6.71,17.72C299.24,326.32,299,328.51,298.34,330.5Z" fill="#f4e171"/><path d="M330.07,317.21l-2.52.85-13.27-8.39c-.64-1.82-.77-4,1.88-2.58,4.67,2.49,9,5.66,13.41,8.62C329.91,315.94,329.91,316.69,330.07,317.21Z" fill="#c07c1f"/><path d="M321.64,354.79c4.49,4.38,10.28,6.85,15.36,10.35,7.81,5.38,15.9,10.33,23.87,15.47-1.1,1.32-2.62.6-3.95.8-1.06-2-2.91-1.71-4.71-1.7q-22.41,0-44.82,0c-1.65,0-3.33.18-4.86-.68a3.76,3.76,0,0,1-3.92-2.66c.1-3.7,3.64-5.37,5-8.4,2-4.45,5.21-8.18,8.37-11.88,1.91-2.23,4.19-3.68,7.3-2.23Z" fill="#9e5516"/><path d="M350.86,402c-.06,4.91-3.4,8.72-7.65,8.72-4.46,0-7.61-3.87-7.5-9.2.1-4.93,3.51-8.65,7.78-8.51S350.91,397.15,350.86,402Z" fill="#cbcbcb"/><path d="M290.78,379.87h8.36l-7.38,17.28c-8.48.45-8.49.45-5.32-7C287.88,386.69,289.34,383.28,290.78,379.87Z" fill="#858585"/><path d="M276.61,362.08c-1.71,6-5.14,11.43-6.46,17.6l-7.13-.09c2.58-6.79,4.45-13.88,8.62-20a3.51,3.51,0,0,1,4.18.21A2,2,0,0,1,276.61,362.08Z" fill="#4f4f4f"/><path d="M275.78,360.71a6.34,6.34,0,0,0-4.14-1.1,1.3,1.3,0,0,1,0-.62c2.95-3.23,3.41-7.66,5.43-11.35.82-1.49,1-4,3.46-2.85,2.29,1,.36,2.83.12,4.27a21.42,21.42,0,0,1-.66,2.34C279.64,355,278.9,358.38,275.78,360.71Z" fill="#d7d5d4"/><path d="M192.44,346.32a36.07,36.07,0,0,0,0-3.75c-.25-2.56.5-3.84,3.41-3.73,2.65.1,4.3.65,4.1,3.74a61.65,61.65,0,0,0,0,6.66c.13,2.82-.21,4.69-3.9,4.82-4.12.14-3.62-2.32-3.59-4.83C192.45,348.26,192.44,347.29,192.44,346.32Z" fill="#363637"/><path d="M275.78,360.71,280,351.4c1,0,2,.09,2.54-1,2.47-5.28,7.59-8.67,10-14,9.15,5.46,18.09,11.24,26.75,17.46-4-.28-6,2.4-8.34,5.18-4.52,5.43-7.55,11.81-11.77,17.4l-22.56-14.36Z" fill="#a96018"/><path d="M258,398.05c-3.19,0-6.38,0-9.57,0-1.77,0-2.39-.4-2-2.44a15.17,15.17,0,0,0,.11-6.6c-.74-3,.21-3.55,2.94-3.48q8.73.22,17.47,0c4.43-.11,4.86,2.53,4.78,6s.33,6.69-4.6,6.54C264.08,398,261,398.05,258,398.05Z" fill="#575757"/><path d="M263.21,405.79c-3.71,6.54-8.6,6.78-12.72.84C254.63,406,258.72,407,263.21,405.79Z" fill="#60605f"/><path d="M285.69,406.44c2.52-.1,5.17-.41,5.37,2.7.13,2-2,1.43-3.25,1.48-2.52.09-5.3-.68-5.6-3.2C282,405.49,284.69,407,285.69,406.44Z" fill="#5e5e5d"/><path d="M319.47,401.71c.08,5.09-3,8.91-7.23,9.06s-8-3.84-8-8.85c0-4.78,3.44-8.83,7.56-8.89C316.11,393,319.39,396.7,319.47,401.71Z" fill="#c8c8c8"/><path d="M224.31,402.09c-.05,4.93-3.3,8.7-7.52,8.69s-7.74-4-7.68-9c.06-4.83,3.43-8.68,7.6-8.7C221.09,393,224.36,396.92,224.31,402.09Z" fill="#c7c8c7"/><path d="M345.09,409c-3.27,1.91-5-.39-6.71-2.52a2.05,2.05,0,0,1,.44-.67c3.88-3.75,3.68-5.1-1.13-7.57,1-2,2.33-3.56,4.84-3.47,4.38,2.82,5.48,6.46,3.37,11.2C345.47,406.91,344.57,407.74,345.09,409Z" fill="#aeaeae"/><path d="M345.09,409c-.53-.46-3.2.72-1.42-1.45,3.93-4.77,2.38-8.8-1.14-12.78,3.63-.29,5.94,1.61,6.57,4.91C349.83,403.44,349.53,407.2,345.09,409Z" fill="#868686"/><path d="M337.69,398.2c2.17-.16,4.47-.68,4.89,2.6s-.87,5.2-4.2,5.64C336.58,403.82,336.14,401.1,337.69,398.2Z" fill="#878787"/><path d="M310.93,394.78c4.16-.63,6.19,1.67,7.16,5.29,1,3.91-.58,6.91-4.69,9-1.16.49-2.32,0-1.69-1.11C314.28,403.29,312.53,399.07,310.93,394.78Z" fill="#878787"/><path d="M310.93,394.78c3.89,4,4.8,8.25,1.49,13.07-.66,1,.42,1,1,1.18-2.8,1-4.85.38-5.86-2.62a1.55,1.55,0,0,1,.19-.36c3.93-4.5,3.88-4.9-1-7.94C307.73,396.5,308.77,394.93,310.93,394.78Z" fill="#afafaf"/><path d="M306.73,398.11c2.46-.28,4.52.33,4.89,3.09.4,2.95-1.38,4.52-4.08,5.21C304.68,403.9,305.64,401,306.73,398.11Z" fill="#868686"/><path d="M218.37,409c-3.24,1.6-5.06-.2-6.57-2.74,5-4,5-4.92-.17-8.22,1.06-1.54,2.08-3.13,4.22-3.28,4.33,2.67,5.59,6.79,3.52,11.33C218.94,407,217.61,407.67,218.37,409Z" fill="#afafaf"/><path d="M218.37,409c-.39-.48-2.64.56-1.33-1.15,3.7-4.85,2.68-9-1.19-13.09,4.31-.48,6.33,2,7,5.75S222.23,407.43,218.37,409Z" fill="#868686"/><path d="M211.63,398.05c2.56-.15,4.83.41,4.91,3.46s-1.53,4.8-4.74,4.76A6.92,6.92,0,0,1,211.63,398.05Z" fill="#878787"/></g></svg>