<svg id="Layer_1" data-name="Layer 1" xmlns="http://www.w3.org/2000/svg" viewBox="0 0 570 250.76"><g id="Layer_2" data-name="Layer 2"><rect x="0.76" y="-149.24" width="568.47" height="353.59" fill="#ffc010"/></g><polygon points="522.48 204.82 570 204.82 570 195.42 522.48 204.82" fill="#9d8f87"/><g id="Layer_2-2" data-name="Layer 2"><path d="M558.76,52.72c-.39-1.68-4.56-3-9.72-3a27,27,0,0,0-4.29.34c-.26-2.6-1.77-4.61-3.62-4.62a9.52,9.52,0,0,0-9-5.6,10.71,10.71,0,0,0-3.19.51c-1.25-3.3-3.62-5.56-6.37-5.56a5.32,5.32,0,0,0-2.36.62c-1.14-7.74-5.82-13.53-11.43-13.53s-10.24,5.73-11.42,13.39a14.87,14.87,0,0,0-3.17-.36,13.06,13.06,0,0,0-10.25,4.65,4.28,4.28,0,0,0-2.18-.64c-2,0-3.74,1.46-4.81,3.67a3.51,3.51,0,0,0-1.75-.5c-2.09,0-3.85,2-4.52,4.69A4.86,4.86,0,0,0,466.61,51c-3.54,0-6.52.74-7.67,1.72Z" fill="#fff" fill-rule="evenodd" opacity="0.5"/><path d="M30.84,81.57C33,78.85,37.61,77,42.92,77a19.72,19.72,0,0,1,7.28,1.31c1.43-6.89,6.48-12.05,12.61-12.43,1.77-10.51,9.54-18.43,18.86-18.43,8,0,14.78,5.77,17.71,14a25.31,25.31,0,0,1,3.17-.21c9.27,0,17.11,4.74,19.84,11.31A9,9,0,0,1,130,67.78c4,0,7.46,3.06,8.77,7.33,11.56.54,20.76,3.13,23.08,6.46Z" fill="#fff" fill-rule="evenodd" opacity="0.5"/><polygon points="568.72 205.36 569.24 105.11 545.5 96.92 464.13 111.71 423.14 82 391.18 103.95 370.51 91.51 353.59 105.66 328.37 92.55 251.35 111.72 182.39 88.98 158.37 106.42 154.75 89.93 120.85 108.37 74.98 72.83 28.19 99.96 0.5 120.14 0.5 202.78 568.72 205.36" fill="#f69a1d"/><polygon points="0.5 204.79 0.5 179.48 25.92 170.71 106.77 185.42 147.5 155.86 179.26 177.69 205.3 155.54 219.4 168.92 237.91 159.57 264.27 180.02 326.1 166.61 385.82 183.87 414.19 163.75 447.87 182.1 493.44 146.74 539.94 173.72 570 187.02 570.12 206.12 0.5 204.79" fill="#985705"/></g><rect x="0.5" y="201.88" width="570" height="48.88" fill="#522601"/><path d="M198,127l1.7,52.64a17.11,17.11,0,0,0,17.05,16.53l126,.75a12.37,12.37,0,0,0,12.32-10.52c2-13.29,4.48-37.07,1.65-59.4Z" fill="#202626"/><path d="M339.88,193.68a.12.12,0,0,1-.12-.11.12.12,0,0,1,.12-.12q.35,0,.69,0a.11.11,0,0,1,.12.11.11.11,0,0,1-.1.12c-.24,0-.47,0-.71,0Zm-1.63,0h-.7a.11.11,0,0,1-.11-.12.11.11,0,0,1,.11-.11h.7a.12.12,0,0,1,0,.24Zm-2.32,0h-.7a.12.12,0,0,1-.12-.12.12.12,0,0,1,.12-.11h.7a.11.11,0,0,1,.11.12A.11.11,0,0,1,335.93,193.66Zm-2.33,0h-.7a.11.11,0,0,1-.11-.11.11.11,0,0,1,.11-.12h.7a.11.11,0,0,1,.12.11A.12.12,0,0,1,333.6,193.65Zm-2.32,0h-.7a.12.12,0,0,1-.12-.12.11.11,0,0,1,.12-.11h.7a.11.11,0,0,1,.11.12A.11.11,0,0,1,331.28,193.63Zm-2.33,0h-.7a.12.12,0,0,1,0-.24h.7a.12.12,0,0,1,.12.12A.11.11,0,0,1,329,193.62Zm-2.32,0h-.7a.11.11,0,0,1-.12-.11.12.12,0,0,1,.12-.12h.7a.12.12,0,0,1,.11.12A.11.11,0,0,1,326.63,193.61Zm-2.33,0h-.7a.12.12,0,1,1,0-.23h.69a.12.12,0,0,1,.12.12A.11.11,0,0,1,324.3,193.59Zm-2.32,0h-.7a.12.12,0,1,1,0-.24h.7a.11.11,0,0,1,.11.11A.11.11,0,0,1,322,193.58Zm-2.33,0H319a.11.11,0,0,1-.11-.12.11.11,0,0,1,.11-.11h.7a.12.12,0,1,1,0,.24Zm-2.32,0h-.7a.12.12,0,0,1-.12-.12.12.12,0,0,1,.12-.11h.7a.11.11,0,0,1,.11.12A.11.11,0,0,1,317.33,193.55Zm-2.33,0h-.7a.11.11,0,0,1-.11-.11.11.11,0,0,1,.11-.12h.7a.11.11,0,0,1,.12.11A.12.12,0,0,1,315,193.54Zm-2.32,0H312a.12.12,0,0,1-.12-.12.12.12,0,0,1,.12-.11h.7a.11.11,0,0,1,.11.12A.11.11,0,0,1,312.68,193.52Zm-2.33,0h-.7a.12.12,0,0,1,0-.24h.7a.12.12,0,0,1,.12.12A.11.11,0,0,1,310.35,193.51Zm-2.32,0h-.7a.11.11,0,0,1-.12-.11.13.13,0,0,1,.12-.12h.7a.13.13,0,0,1,.11.12A.11.11,0,0,1,308,193.5Zm-2.33,0H305a.11.11,0,0,1-.11-.12.11.11,0,0,1,.11-.11h.7a.12.12,0,0,1,.12.12A.11.11,0,0,1,305.7,193.48Zm-2.32,0h-.7a.12.12,0,0,1,0-.24h.7a.11.11,0,0,1,.11.11A.11.11,0,0,1,303.38,193.47Zm-2.33,0h-.7a.11.11,0,0,1-.11-.11.11.11,0,0,1,.11-.12h.7a.12.12,0,0,1,0,.24Zm-2.32,0H298a.12.12,0,0,1-.12-.12.12.12,0,0,1,.12-.11h.7a.11.11,0,0,1,.11.12A.11.11,0,0,1,298.73,193.44Zm-2.33,0h-.7a.11.11,0,0,1-.11-.11.11.11,0,0,1,.11-.12h.7a.11.11,0,0,1,.12.11A.12.12,0,0,1,296.4,193.43Zm45.79,0a.12.12,0,0,1-.12-.09.12.12,0,0,1,.09-.14l.67-.16a.12.12,0,0,1,.15.08.12.12,0,0,1-.08.14l-.69.17Zm-48.11,0h-.7a.12.12,0,0,1-.12-.12.12.12,0,0,1,.12-.11h.7a.12.12,0,0,1,0,.24Zm-2.33,0h-.7a.12.12,0,0,1,0-.24h.7a.12.12,0,0,1,.12.12A.11.11,0,0,1,291.75,193.4Zm-2.32,0h-.7a.11.11,0,0,1-.12-.11.12.12,0,0,1,.12-.12h.7a.11.11,0,0,1,.11.11A.11.11,0,0,1,289.43,193.39Zm-2.33,0h-.7a.11.11,0,0,1-.11-.12.11.11,0,0,1,.11-.11h.7a.12.12,0,0,1,.12.12A.11.11,0,0,1,287.1,193.37Zm-2.32,0h-.7a.12.12,0,0,1,0-.24h.7a.11.11,0,0,1,.11.11A.11.11,0,0,1,284.78,193.36Zm-2.33,0h-.7a.11.11,0,0,1-.11-.11.11.11,0,0,1,.11-.12h.7a.12.12,0,1,1,0,.24Zm-2.32,0h-.7a.12.12,0,0,1-.12-.12.12.12,0,0,1,.12-.11h.7a.11.11,0,0,1,.11.12A.11.11,0,0,1,280.13,193.33Zm-2.33,0h-.7a.13.13,0,0,1-.11-.12.11.11,0,0,1,.11-.12h.7a.11.11,0,0,1,.12.11A.12.12,0,0,1,277.8,193.32Zm-2.32,0h-.7a.12.12,0,0,1-.12-.12.12.12,0,0,1,.12-.11h.7a.12.12,0,0,1,0,.24Zm-2.33,0h-.7a.11.11,0,0,1-.11-.12.11.11,0,0,1,.11-.11h.7a.12.12,0,0,1,.12.12A.11.11,0,0,1,273.15,193.29Zm-2.32,0h-.7a.11.11,0,0,1-.12-.11.13.13,0,0,1,.12-.12h.7a.11.11,0,0,1,.11.11A.11.11,0,0,1,270.83,193.28Zm-2.33,0h-.7a.11.11,0,0,1-.11-.12.11.11,0,0,1,.11-.11h.7a.12.12,0,0,1,.12.12A.11.11,0,0,1,268.5,193.26Zm-2.32,0h-.7a.12.12,0,0,1-.12-.12.13.13,0,0,1,.12-.12h.7a.11.11,0,0,1,.11.12A.11.11,0,0,1,266.18,193.25Zm-2.33,0h-.7a.11.11,0,0,1-.11-.11.11.11,0,0,1,.11-.12h.7a.12.12,0,0,1,.12.12A.12.12,0,0,1,263.85,193.24Zm-2.32,0h-.7a.12.12,0,0,1-.12-.12.12.12,0,0,1,.12-.11h.7a.11.11,0,0,1,.11.12A.11.11,0,0,1,261.53,193.22Zm-2.33,0h-.7a.12.12,0,0,1-.11-.12.11.11,0,0,1,.11-.12h.7a.11.11,0,0,1,.12.11A.12.12,0,0,1,259.2,193.21Zm-2.32,0h-.7a.12.12,0,0,1-.12-.12.12.12,0,0,1,.12-.11h.7a.12.12,0,0,1,0,.24Zm-2.33,0h-.7a.11.11,0,0,1-.11-.12.11.11,0,0,1,.11-.11h.7a.12.12,0,0,1,.12.12A.11.11,0,0,1,254.55,193.18Zm-2.32,0h-.7a.11.11,0,0,1-.12-.11.12.12,0,0,1,.12-.12h.7a.11.11,0,0,1,.11.11A.11.11,0,0,1,252.23,193.17Zm-2.33,0h-.7a.11.11,0,0,1-.11-.12.1.1,0,0,1,.11-.11h.7a.12.12,0,0,1,.12.12A.11.11,0,0,1,249.9,193.15Zm-2.32,0h-.7a.12.12,0,0,1-.12-.12.13.13,0,0,1,.12-.12h.7a.11.11,0,0,1,.11.12A.11.11,0,0,1,247.58,193.14Zm-2.33,0h-.7a.11.11,0,0,1-.11-.11.11.11,0,0,1,.11-.12h.7a.13.13,0,0,1,.12.12A.12.12,0,0,1,245.25,193.13Zm-2.32,0h-.7a.12.12,0,0,1-.12-.12.11.11,0,0,1,.12-.11h.7a.11.11,0,0,1,.11.12A.11.11,0,0,1,242.93,193.11Zm-2.33,0h-.7a.12.12,0,0,1-.11-.12.11.11,0,0,1,.11-.12h.7a.11.11,0,0,1,.12.11A.12.12,0,0,1,240.6,193.1Zm-2.32,0h-.7a.11.11,0,0,1-.12-.11.12.12,0,0,1,.12-.12h.7a.12.12,0,0,1,0,.24Zm-2.33,0h-.7a.11.11,0,0,1-.11-.12.11.11,0,0,1,.11-.11h.7a.12.12,0,0,1,.12.12A.11.11,0,0,1,236,193.07Zm-2.32,0h-.7a.11.11,0,0,1-.12-.11.12.12,0,0,1,.12-.12h.7a.11.11,0,0,1,.11.11A.11.11,0,0,1,233.63,193.06Zm-2.33,0h-.7a.11.11,0,0,1-.11-.12.11.11,0,0,1,.11-.11h.7a.12.12,0,0,1,.12.12A.13.13,0,0,1,231.3,193.05ZM229,193h-.7a.12.12,0,0,1,0-.24h.7a.11.11,0,0,1,.11.12A.11.11,0,0,1,229,193Zm-2.33,0H226a.11.11,0,0,1-.11-.11.11.11,0,0,1,.11-.12h.7a.11.11,0,0,1,.12.11A.12.12,0,0,1,226.65,193Zm-2.32,0h-.7a.12.12,0,0,1-.12-.12.11.11,0,0,1,.12-.11h.7a.11.11,0,0,1,.11.12A.11.11,0,0,1,224.33,193ZM222,193h-.7a.12.12,0,0,1,0-.24h.7a.11.11,0,0,1,.12.11A.12.12,0,0,1,222,193Zm-2.32,0h0l-.71,0a.13.13,0,0,1-.11-.12c0-.07.06-.12.12-.11h.7a.12.12,0,0,1,0,.24Zm-2.32-.18h0l-.69-.12a.12.12,0,0,1,0-.23c.23.05.46.08.69.12a.13.13,0,0,1,.1.13A.12.12,0,0,1,217.36,192.8Zm127-.09a.11.11,0,0,1-.11-.07.12.12,0,0,1,.06-.15l.63-.29a.11.11,0,0,1,.15.05.1.1,0,0,1-.05.15c-.21.11-.42.21-.64.3Zm-129.31-.41h0l-.67-.21a.12.12,0,0,1,.08-.22l.66.21a.12.12,0,0,1,0,.23Zm131.34-.72a.1.1,0,0,1-.1-.05.12.12,0,0,1,0-.16l.56-.41a.11.11,0,0,1,.16,0,.12.12,0,0,1,0,.17c-.18.14-.38.28-.57.41A.07.07,0,0,1,346.43,191.58Zm-133.51-.1h0l-.63-.31a.12.12,0,0,1-.05-.16.13.13,0,0,1,.16-.05l.62.31a.11.11,0,0,1,.06.15A.14.14,0,0,1,212.92,191.48Zm-2-1.12-.07,0-.58-.39a.12.12,0,0,1,0-.16.12.12,0,0,1,.17,0l.57.39a.11.11,0,0,1,0,.16A.12.12,0,0,1,210.89,190.36Zm137.31-.28a.11.11,0,0,1-.08,0,.12.12,0,0,1,0-.17c.16-.16.32-.33.47-.51a.12.12,0,0,1,.16,0,.12.12,0,0,1,0,.17l-.47.52A.11.11,0,0,1,348.2,190.08ZM209,189a.13.13,0,0,1-.08,0c-.17-.15-.35-.31-.51-.47a.11.11,0,0,1,.15-.17c.17.16.34.32.52.47a.11.11,0,0,1,0,.16A.11.11,0,0,1,209,189Zm140.6-.7a.07.07,0,0,1-.06,0,.11.11,0,0,1,0-.16c.12-.19.24-.39.35-.59a.12.12,0,0,1,.16,0,.11.11,0,0,1,0,.16q-.16.3-.36.6A.12.12,0,0,1,349.63,188.26Zm-142.24-.94a.18.18,0,0,1-.09,0l-.44-.54a.12.12,0,1,1,.18-.15l.44.54a.11.11,0,0,1,0,.16A.11.11,0,0,1,207.39,187.32Zm143.3-1.13h-.05a.11.11,0,0,1-.06-.15c.08-.22.16-.44.23-.66a.11.11,0,0,1,.14-.07.11.11,0,0,1,.08.15q-.11.33-.24.66A.1.1,0,0,1,350.69,186.19ZM206,185.46a.12.12,0,0,1-.1-.06c-.12-.19-.25-.39-.36-.6a.1.1,0,0,1,0-.15.11.11,0,0,1,.16,0c.11.2.23.39.36.59a.12.12,0,0,1,0,.16ZM351.31,184h0a.13.13,0,0,1-.1-.14c0-.09,0-.18.05-.28l.06-.41a.11.11,0,0,1,.13-.09.12.12,0,0,1,.1.13l-.06.41c0,.09,0,.19-.05.28A.12.12,0,0,1,351.31,184Zm-146.42-.54a.14.14,0,0,1-.11-.07c-.09-.21-.19-.43-.27-.65a.11.11,0,0,1,.06-.15.12.12,0,0,1,.15.07c.09.21.18.42.28.63a.13.13,0,0,1-.06.16Zm146.75-1.76h0a.12.12,0,0,1-.1-.14l.09-.69a.13.13,0,0,1,.13-.1.11.11,0,0,1,.1.13l-.09.7A.13.13,0,0,1,351.64,181.66Zm-147.56-.42a.13.13,0,0,1-.11-.09l-.18-.68a.12.12,0,0,1,.09-.14.13.13,0,0,1,.14.09c0,.22.11.45.18.67a.12.12,0,0,1-.08.14ZM352,179.35h0a.12.12,0,0,1-.1-.13l.09-.69a.12.12,0,0,1,.23,0l-.09.69A.12.12,0,0,1,352,179.35ZM203.6,179a.13.13,0,0,1-.12-.1c0-.24-.06-.47-.08-.7a.12.12,0,0,1,.11-.13.11.11,0,0,1,.12.11c0,.23.05.46.08.68a.1.1,0,0,1-.09.13ZM352.25,177h0a.11.11,0,0,1-.1-.13l.09-.69a.11.11,0,0,1,.13-.1.12.12,0,0,1,.1.13l-.09.69A.1.1,0,0,1,352.25,177Zm-148.82-.39a.11.11,0,0,1-.11-.11l0-.7a.12.12,0,0,1,.12-.12c.06,0,.11.05.12.11l0,.7a.12.12,0,0,1-.11.12Zm149.09-1.91h0a.1.1,0,0,1-.1-.12c0-.23,0-.46.07-.7a.12.12,0,0,1,.13-.1.11.11,0,0,1,.1.13c0,.23,0,.46-.07.69A.13.13,0,0,1,352.52,174.74Zm-149.16-.41a.12.12,0,0,1-.12-.12l0-.69a.11.11,0,0,1,.11-.12.1.1,0,0,1,.12.11l0,.7c0,.06,0,.11-.11.12Zm149.41-1.91h0a.11.11,0,0,1-.1-.12l.07-.7a.11.11,0,0,1,.13-.1.11.11,0,0,1,.1.13l-.07.69A.12.12,0,0,1,352.77,172.42ZM203.28,172a.11.11,0,0,1-.11-.11l0-.7a.12.12,0,0,1,.12-.12h0a.12.12,0,0,1,.12.11l0,.7a.11.11,0,0,1-.11.12ZM353,170.11h0a.12.12,0,0,1-.11-.13c0-.23.05-.46.07-.69a.11.11,0,0,1,.12-.11.13.13,0,0,1,.11.13c0,.23-.05.46-.07.69A.11.11,0,0,1,353,170.11Zm-149.8-.43a.12.12,0,0,1-.12-.12l0-.69a.11.11,0,0,1,.11-.12.11.11,0,0,1,.12.11l0,.7a.11.11,0,0,1-.11.12Zm150-1.89h0a.12.12,0,0,1-.11-.12l.06-.7a.12.12,0,0,1,.13-.1.11.11,0,0,1,.1.12c0,.24,0,.47-.05.7A.12.12,0,0,1,353.22,167.79Zm-150.09-.44a.11.11,0,0,1-.11-.11l0-.7c0-.06,0-.11.11-.12h0a.12.12,0,0,1,.12.12l0,.69a.11.11,0,0,1-.11.12Zm150.28-1.87h0a.11.11,0,0,1-.1-.13l.05-.69a.12.12,0,1,1,.23,0l-.05.7A.13.13,0,0,1,353.41,165.48ZM203.06,165a.13.13,0,0,1-.12-.11l0-.7a.12.12,0,0,1,.11-.12.11.11,0,0,1,.12.11l0,.7a.12.12,0,0,1-.12.12Zm150.52-1.87h0a.11.11,0,0,1-.1-.13c0-.23,0-.46,0-.69a.12.12,0,0,1,.13-.11.11.11,0,0,1,.1.12c0,.24,0,.47,0,.7A.13.13,0,0,1,353.58,163.16ZM203,162.71a.11.11,0,0,1-.11-.12l0-.69a.12.12,0,1,1,.23,0l0,.7a.13.13,0,0,1-.11.12Zm150.75-1.87h0a.13.13,0,0,1-.11-.13l0-.69a.12.12,0,0,1,.13-.11.12.12,0,0,1,.11.12l0,.7A.13.13,0,0,1,353.73,160.84Zm-150.82-.46a.13.13,0,0,1-.12-.11l0-.7a.12.12,0,1,1,.23,0l0,.7a.12.12,0,0,1-.12.12Zm151-1.87h0a.11.11,0,0,1-.11-.12l0-.69a.12.12,0,0,1,.13-.11.11.11,0,0,1,.11.12l0,.69A.1.1,0,0,1,353.86,158.51Zm-151-.45a.11.11,0,0,1-.12-.11l0-.7a.1.1,0,0,1,.11-.12.11.11,0,0,1,.12.11l0,.7a.12.12,0,0,1-.11.12ZM354,156.19h0a.12.12,0,0,1-.12-.12l0-.7a.12.12,0,0,1,.12-.11.11.11,0,0,1,.11.12l0,.7A.13.13,0,0,1,354,156.19Zm-151.2-.46a.13.13,0,0,1-.12-.11l0-.7a.13.13,0,0,1,.11-.12.12.12,0,0,1,.12.12l0,.69a.12.12,0,0,1-.12.12ZM354,153.87h0a.12.12,0,0,1-.12-.12c0-.23,0-.47,0-.7a.12.12,0,0,1,.12-.11.12.12,0,0,1,.12.12c0,.23,0,.46,0,.69A.13.13,0,0,1,354,153.87Zm-151.35-.46a.11.11,0,0,1-.12-.11l0-.7a.12.12,0,0,1,.11-.12h0a.11.11,0,0,1,.12.11l0,.7a.12.12,0,0,1-.11.12Zm151.41-1.87h0a.11.11,0,0,1-.11-.12v-.69a.12.12,0,0,1,.12-.12h0a.12.12,0,0,1,.11.12v.7A.11.11,0,0,1,354.1,151.54Zm-151.49-.45a.13.13,0,0,1-.12-.12l0-.69a.11.11,0,0,1,.11-.12.11.11,0,0,1,.12.11l0,.7a.13.13,0,0,1-.12.12Zm151.52-1.87h0a.12.12,0,0,1-.11-.12v-.7a.12.12,0,0,1,.12-.11h0a.12.12,0,0,1,.12.12c0,.23,0,.46,0,.69A.11.11,0,0,1,354.13,149.22Zm-151.59-.46a.11.11,0,0,1-.12-.11l0-.7a.13.13,0,0,1,.11-.12.12.12,0,0,1,.12.12l0,.69a.11.11,0,0,1-.11.12Zm151.59-1.87a.12.12,0,0,1-.12-.11v-.7a.12.12,0,0,1,.11-.12h0a.12.12,0,0,1,.11.12c0,.23,0,.46,0,.7a.12.12,0,0,1-.12.11Zm-151.67-.45a.11.11,0,0,1-.11-.11l0-.7a.12.12,0,0,1,.12-.12c.06,0,.11.05.12.11l0,.7a.12.12,0,0,1-.11.12Zm151.65-1.87a.11.11,0,0,1-.12-.11c0-.24,0-.47,0-.7a.12.12,0,1,1,.23,0c0,.24,0,.47,0,.7a.11.11,0,0,1-.11.12Zm-151.72-.45a.12.12,0,0,1-.12-.12l0-.69a.11.11,0,0,1,.11-.12.11.11,0,0,1,.12.11l0,.7a.1.1,0,0,1-.11.11Zm151.66-1.87a.11.11,0,0,1-.11-.12c0-.23,0-.46,0-.69a.1.1,0,0,1,.11-.12.11.11,0,0,1,.12.11c0,.23,0,.46,0,.7a.13.13,0,0,1-.11.12Zm-151.74-.46a.11.11,0,0,1-.11-.11l0-.7a.12.12,0,0,1,.12-.12.12.12,0,0,1,.12.11l0,.7a.11.11,0,0,1-.11.12ZM354,139.92a.11.11,0,0,1-.11-.11l0-.69a.12.12,0,1,1,.23,0l0,.69a.11.11,0,0,1-.11.12Zm-151.73-.45a.12.12,0,0,1-.12-.12l0-.69a.12.12,0,1,1,.23,0l0,.7a.11.11,0,0,1-.11.12Zm151.62-1.87a.13.13,0,0,1-.12-.11l0-.69a.13.13,0,0,1,.11-.13.14.14,0,0,1,.13.11l0,.7a.12.12,0,0,1-.11.12Zm-151.7-.46a.11.11,0,0,1-.11-.11l0-.7a.13.13,0,0,1,.12-.12.12.12,0,0,1,.12.12l0,.69a.11.11,0,0,1-.11.12Zm151.56-1.86a.12.12,0,0,1-.12-.11c0-.23,0-.46-.05-.69a.12.12,0,0,1,.11-.13.12.12,0,0,1,.12.11c0,.23,0,.46.05.7a.11.11,0,0,1-.11.12Zm-151.63-.46a.12.12,0,0,1-.12-.11l0-.7a.12.12,0,0,1,.11-.12.11.11,0,0,1,.12.11l0,.7a.11.11,0,0,1-.11.12ZM353.54,133a.12.12,0,0,1-.12-.1l-.06-.7a.11.11,0,0,1,.11-.12.11.11,0,0,1,.12.1l.06.7a.11.11,0,0,1-.1.12ZM202,132.5a.11.11,0,0,1-.11-.12l0-.69a.12.12,0,0,1,.12-.12h0a.13.13,0,0,1,.12.11l0,.7a.13.13,0,0,1-.11.12Zm151.31-1.85a.11.11,0,0,1-.11-.11c0-.23,0-.46-.07-.69a.11.11,0,0,1,.1-.13.12.12,0,0,1,.13.11c0,.23,0,.46.07.69a.13.13,0,0,1-.11.13Zm-151.38-.48a.12.12,0,0,1-.12-.11l0-.7a.12.12,0,0,1,.11-.12.11.11,0,0,1,.12.11l0,.7a.1.1,0,0,1-.11.12Zm151.13-1.83a.13.13,0,0,1-.12-.11c0-.23-.05-.46-.08-.69a.12.12,0,0,1,.1-.13.11.11,0,0,1,.13.1l.09.7a.11.11,0,0,1-.11.12Zm-151.21-.49a.11.11,0,0,1-.11-.11l0-.7a.1.1,0,0,1,.11-.12h0a.12.12,0,0,1,.12.11l0,.7a.12.12,0,0,1-.11.12Zm149.93-.7h-.69A.12.12,0,0,1,351,127a.11.11,0,0,1,.12-.11h.69a.11.11,0,0,1,.12.11A.12.12,0,0,1,351.79,127.15Zm-2.32,0h-.7a.11.11,0,0,1-.11-.12.11.11,0,0,1,.11-.11h.7a.12.12,0,0,1,.12.11A.12.12,0,0,1,349.47,127.15Zm-2.33,0h-.69a.12.12,0,0,1-.12-.12.11.11,0,0,1,.12-.11h.69a.11.11,0,0,1,.12.11A.12.12,0,0,1,347.14,127.15Zm-2.32,0h-.7A.12.12,0,0,1,344,127a.12.12,0,0,1,.12-.11h.7a.11.11,0,0,1,.11.11A.11.11,0,0,1,344.82,127.15Zm-2.33,0h-.69a.12.12,0,0,1-.12-.12.11.11,0,0,1,.12-.11h.69a.11.11,0,0,1,.12.11A.12.12,0,0,1,342.49,127.15Zm-2.32,0h-.7a.12.12,0,0,1-.12-.12.12.12,0,0,1,.12-.11h.7a.11.11,0,0,1,.11.11A.11.11,0,0,1,340.17,127.15Zm-2.33,0h-.69A.12.12,0,0,1,337,127a.11.11,0,0,1,.12-.11h.69a.11.11,0,0,1,.12.11A.12.12,0,0,1,337.84,127.15Zm-2.32,0h-.7a.12.12,0,0,1-.12-.12.12.12,0,0,1,.12-.11h.7a.11.11,0,0,1,.11.11A.11.11,0,0,1,335.52,127.15Zm-2.33,0h-.69a.12.12,0,0,1-.12-.12.11.11,0,0,1,.12-.11h.69a.11.11,0,0,1,.12.11A.12.12,0,0,1,333.19,127.15Zm-2.32,0h-.7a.12.12,0,0,1-.12-.12.12.12,0,0,1,.12-.11h.7a.11.11,0,0,1,.11.11A.11.11,0,0,1,330.87,127.15Zm-2.33,0h-.69a.12.12,0,0,1-.12-.12.11.11,0,0,1,.12-.11h.69a.11.11,0,0,1,.12.11A.12.12,0,0,1,328.54,127.15Zm-2.32,0h-.7a.12.12,0,0,1-.12-.12.12.12,0,0,1,.12-.11h.7a.11.11,0,0,1,.11.11A.11.11,0,0,1,326.22,127.15Zm-2.33,0h-.69a.12.12,0,0,1-.12-.12.11.11,0,0,1,.12-.11h.69a.11.11,0,0,1,.12.11A.12.12,0,0,1,323.89,127.15Zm-2.32,0h-.7a.12.12,0,0,1-.12-.12.12.12,0,0,1,.12-.11h.7a.11.11,0,0,1,.11.11A.11.11,0,0,1,321.57,127.15Zm-2.33,0h-.69a.12.12,0,0,1-.12-.12.11.11,0,0,1,.12-.11h.69a.11.11,0,0,1,.12.11A.12.12,0,0,1,319.24,127.15Zm-2.32,0h-.7a.12.12,0,0,1-.12-.12.12.12,0,0,1,.12-.11h.7a.11.11,0,0,1,.11.11A.11.11,0,0,1,316.92,127.15Zm-2.33,0h-.69a.12.12,0,0,1-.12-.12.11.11,0,0,1,.12-.11h.69a.11.11,0,0,1,.12.11A.12.12,0,0,1,314.59,127.15Zm-2.32,0h-.7a.12.12,0,0,1-.12-.12.12.12,0,0,1,.12-.11h.7a.11.11,0,0,1,.11.11A.11.11,0,0,1,312.27,127.15Zm-2.33,0h-.69a.12.12,0,0,1-.12-.12.11.11,0,0,1,.12-.11h.69a.11.11,0,0,1,.12.11A.12.12,0,0,1,309.94,127.15Zm-2.32,0h-.7a.12.12,0,0,1-.12-.12.12.12,0,0,1,.12-.11h.7a.11.11,0,0,1,.11.11A.11.11,0,0,1,307.62,127.15Zm-2.33,0h-.69a.12.12,0,0,1-.12-.12.11.11,0,0,1,.12-.11h.69a.11.11,0,0,1,.12.11A.12.12,0,0,1,305.29,127.15Zm-2.32,0h-.7a.12.12,0,0,1-.12-.12.12.12,0,0,1,.12-.11h.7a.11.11,0,0,1,.11.11A.11.11,0,0,1,303,127.15Zm-2.33,0h-.7a.11.11,0,0,1-.11-.12.11.11,0,0,1,.11-.11h.7a.11.11,0,0,1,.12.11A.12.12,0,0,1,300.64,127.15Zm-2.32,0h-.7a.12.12,0,0,1-.12-.12.12.12,0,0,1,.12-.11h.7a.11.11,0,0,1,.11.11A.11.11,0,0,1,298.32,127.15Zm-2.33,0h-.7a.11.11,0,0,1-.11-.12.11.11,0,0,1,.11-.11h.7a.11.11,0,0,1,.12.11A.12.12,0,0,1,296,127.15Zm-2.32,0H293a.12.12,0,0,1-.12-.12.12.12,0,0,1,.12-.11h.7a.11.11,0,0,1,.11.11A.11.11,0,0,1,293.67,127.15Zm-2.33,0h-.7a.11.11,0,0,1-.11-.12.11.11,0,0,1,.11-.11h.7a.11.11,0,0,1,.12.11A.12.12,0,0,1,291.34,127.15Zm-2.32,0h-.7a.12.12,0,0,1-.12-.12.12.12,0,0,1,.12-.11h.7a.11.11,0,0,1,.11.11A.11.11,0,0,1,289,127.15Zm-2.33,0H286a.11.11,0,0,1-.11-.12.11.11,0,0,1,.11-.11h.7a.11.11,0,0,1,.12.11A.12.12,0,0,1,286.69,127.15Zm-2.32,0h-.7a.12.12,0,0,1-.12-.12.12.12,0,0,1,.12-.11h.7a.11.11,0,0,1,.11.11A.11.11,0,0,1,284.37,127.15Zm-2.33,0h-.7a.11.11,0,0,1-.11-.12.11.11,0,0,1,.11-.11h.7a.11.11,0,0,1,.12.11A.12.12,0,0,1,282,127.15Zm-2.32,0H279a.12.12,0,0,1-.12-.12.12.12,0,0,1,.12-.11h.7a.11.11,0,0,1,.11.11A.11.11,0,0,1,279.72,127.15Zm-2.33,0h-.7a.11.11,0,0,1-.11-.12.11.11,0,0,1,.11-.11h.7a.11.11,0,0,1,.12.11A.12.12,0,0,1,277.39,127.15Zm-2.32,0h-.7a.12.12,0,0,1-.12-.12.11.11,0,0,1,.12-.11h.7a.11.11,0,0,1,.11.11A.11.11,0,0,1,275.07,127.15Zm-2.33,0H272a.11.11,0,0,1-.11-.12.11.11,0,0,1,.11-.11h.7a.11.11,0,0,1,.12.11A.12.12,0,0,1,272.74,127.15Zm-2.32,0h-.7a.12.12,0,0,1-.12-.12.11.11,0,0,1,.12-.11h.7a.11.11,0,0,1,.11.11A.11.11,0,0,1,270.42,127.15Zm-2.33,0h-.7a.11.11,0,0,1-.11-.12.11.11,0,0,1,.11-.11h.7a.11.11,0,0,1,.12.11A.12.12,0,0,1,268.09,127.15Zm-2.32,0h-.7A.12.12,0,0,1,265,127a.11.11,0,0,1,.12-.11h.7a.11.11,0,0,1,.11.11A.11.11,0,0,1,265.77,127.15Zm-2.33,0h-.7a.11.11,0,0,1-.11-.12.11.11,0,0,1,.11-.11h.7a.11.11,0,0,1,.12.11A.12.12,0,0,1,263.44,127.15Zm-2.32,0h-.7a.12.12,0,0,1-.12-.12.11.11,0,0,1,.12-.11h.7a.11.11,0,0,1,.11.11A.11.11,0,0,1,261.12,127.15Zm-2.33,0h-.7A.11.11,0,0,1,258,127a.11.11,0,0,1,.11-.11h.7a.11.11,0,0,1,.12.11A.12.12,0,0,1,258.79,127.15Zm-2.32,0h-.7a.12.12,0,0,1-.12-.12.11.11,0,0,1,.12-.11h.7a.11.11,0,0,1,.11.11A.11.11,0,0,1,256.47,127.15Zm-2.33,0h-.7a.11.11,0,0,1-.11-.12.11.11,0,0,1,.11-.11h.7a.11.11,0,0,1,.12.11A.12.12,0,0,1,254.14,127.15Zm-2.32,0h-.7A.12.12,0,0,1,251,127a.11.11,0,0,1,.12-.11h.7a.11.11,0,0,1,.11.11A.11.11,0,0,1,251.82,127.15Zm-2.33,0h-.7a.11.11,0,0,1-.11-.12.11.11,0,0,1,.11-.11h.7a.11.11,0,0,1,.12.11A.12.12,0,0,1,249.49,127.15Zm-2.32,0h-.7a.12.12,0,0,1-.12-.12.11.11,0,0,1,.12-.11h.7a.11.11,0,0,1,.11.11A.11.11,0,0,1,247.17,127.15Zm-2.33,0h-.7A.11.11,0,0,1,244,127a.11.11,0,0,1,.11-.11h.7a.11.11,0,0,1,.12.11A.12.12,0,0,1,244.84,127.15Zm-2.32,0h-.7a.12.12,0,0,1-.12-.12.11.11,0,0,1,.12-.11h.7a.11.11,0,0,1,.11.11A.11.11,0,0,1,242.52,127.15Zm-2.33,0h-.7a.11.11,0,0,1-.11-.12.11.11,0,0,1,.11-.11h.7a.12.12,0,0,1,.12.11A.12.12,0,0,1,240.19,127.15Zm-2.32,0h-.7a.12.12,0,0,1-.12-.12.11.11,0,0,1,.12-.11h.7a.11.11,0,0,1,.11.11A.11.11,0,0,1,237.87,127.15Zm-2.33,0h-.7a.11.11,0,0,1-.11-.12.11.11,0,0,1,.11-.11h.7a.12.12,0,0,1,.12.11A.12.12,0,0,1,235.54,127.15Zm-2.32,0h-.7a.12.12,0,0,1-.12-.12.11.11,0,0,1,.12-.11h.7a.11.11,0,0,1,.11.11A.11.11,0,0,1,233.22,127.15Zm-2.33,0h-.7a.11.11,0,0,1-.11-.12.11.11,0,0,1,.11-.11h.7a.12.12,0,0,1,.12.11A.12.12,0,0,1,230.89,127.15Zm-2.32,0h-.7a.12.12,0,0,1-.12-.12.11.11,0,0,1,.12-.11h.7a.11.11,0,0,1,.11.11A.11.11,0,0,1,228.57,127.15Zm-2.33,0h-.7a.11.11,0,0,1-.11-.12.11.11,0,0,1,.11-.11h.7a.12.12,0,0,1,.12.11A.12.12,0,0,1,226.24,127.15Zm-2.32,0h-.7a.12.12,0,0,1-.12-.12.11.11,0,0,1,.12-.11h.7a.11.11,0,0,1,.11.11A.11.11,0,0,1,223.92,127.15Zm-2.33,0h-.7a.11.11,0,0,1-.11-.12.11.11,0,0,1,.11-.11h.7a.12.12,0,0,1,.12.11A.12.12,0,0,1,221.59,127.15Zm-2.33,0h-.69a.12.12,0,0,1-.12-.12.11.11,0,0,1,.12-.11h.69a.11.11,0,0,1,.12.11A.12.12,0,0,1,219.26,127.15Zm-2.32,0h-.7a.11.11,0,0,1-.11-.12.11.11,0,0,1,.11-.11h.7a.12.12,0,0,1,.12.11A.12.12,0,0,1,216.94,127.15Zm-2.33,0h-.69a.12.12,0,0,1-.12-.12.11.11,0,0,1,.12-.11h.69a.11.11,0,0,1,.12.11A.12.12,0,0,1,214.61,127.15Zm-2.32,0h-.7a.11.11,0,0,1-.11-.12.11.11,0,0,1,.11-.11h.7a.12.12,0,0,1,.12.11A.12.12,0,0,1,212.29,127.15Zm-2.33,0h-.69a.12.12,0,0,1-.12-.12.11.11,0,0,1,.12-.11H210a.11.11,0,0,1,.12.11A.12.12,0,0,1,210,127.15Zm-2.32,0h-.7a.11.11,0,0,1-.11-.12.11.11,0,0,1,.11-.11h.7a.12.12,0,0,1,.12.11A.12.12,0,0,1,207.64,127.15Zm-2.33,0h-.69a.12.12,0,0,1-.12-.12.11.11,0,0,1,.12-.11h.69a.11.11,0,0,1,.12.11A.12.12,0,0,1,205.31,127.15Zm-2.32,0h-.7a.11.11,0,0,1-.11-.12.11.11,0,0,1,.11-.11h.7a.12.12,0,0,1,.12.11A.12.12,0,0,1,203,127.15Z" fill="#979aa0"/><path d="M234.91,88.83l.38-4.06a3.14,3.14,0,0,1,2.37-1.83c3.92-.62,13.66-1.72,18.35,1.78l.7,4.72Z" fill="#48494b"/><path d="M247.18,84.92a5.69,5.69,0,0,1-2.72,0,2.46,2.46,0,0,1-1.87-2.38V69.83h6.47v12.7A2.47,2.47,0,0,1,247.18,84.92Z" fill="#48494b"/><path d="M297.56,88.83l.38-4.06a3.14,3.14,0,0,1,2.37-1.83c3.93-.62,13.66-1.72,18.35,1.78l.7,4.72Z" fill="#48494b"/><path d="M309.83,84.92a5.69,5.69,0,0,1-2.72,0,2.46,2.46,0,0,1-1.87-2.38V68.49h6.47v14A2.47,2.47,0,0,1,309.83,84.92Z" fill="#48494b"/><path d="M241.93,72.94l69.57-2.3a3.34,3.34,0,0,0,3.2-2.75,28.41,28.41,0,0,0,.22-8.82,8,8,0,0,0-7.78-6.79c-13-.31-46-.3-64.22,6.9a6.38,6.38,0,0,0-3.85,4.42,15.44,15.44,0,0,0-.16,7.06A3,3,0,0,0,241.93,72.94Z" fill="#202626"/><path d="M240.73,69.26a.23.23,0,0,1-.23-.21,16.15,16.15,0,0,1,.41-5.22,5.71,5.71,0,0,1,3.9-4c3.87-1.14,11.27-3.07,17.31-3.24a.23.23,0,0,1,.24.23.23.23,0,0,1-.22.24c-6,.16-13.35,2.08-17.2,3.21A5.26,5.26,0,0,0,241.36,64a16,16,0,0,0-.4,5,.23.23,0,0,1-.21.25Z" fill="#979aa0"/><path d="M202.64,87.24c22.47-.28,119.69-1.3,147.93,2.1a5.75,5.75,0,0,1,4.94,4.46c1.67,7.54,5,25.06,4.63,42.44A5,5,0,0,1,356,141l-64.46,12.19h-22.9L200,139.58a5.37,5.37,0,0,1-4.33-5c-.45-8.74-1.14-29.24,1.22-42.44A5.94,5.94,0,0,1,202.64,87.24Z" fill="#444949"/><path d="M290.17,147.79h-.69a.11.11,0,0,1-.12-.11.12.12,0,0,1,.12-.12h.69a.12.12,0,0,1,.12.12A.11.11,0,0,1,290.17,147.79Zm-2.32,0h-.7a.11.11,0,0,1-.11-.11.11.11,0,0,1,.11-.12h.7a.12.12,0,0,1,.12.12A.12.12,0,0,1,287.85,147.79Zm-2.33,0h-.69a.11.11,0,0,1-.12-.11.12.12,0,0,1,.12-.12h.69a.12.12,0,0,1,.12.12A.11.11,0,0,1,285.52,147.79Zm-2.32,0h-.7a.11.11,0,0,1-.11-.11.11.11,0,0,1,.11-.12h.7a.12.12,0,0,1,.12.12A.12.12,0,0,1,283.2,147.79Zm-2.33,0h-.69a.11.11,0,0,1-.12-.11.12.12,0,0,1,.12-.12h.69a.12.12,0,0,1,.12.12A.11.11,0,0,1,280.87,147.79Zm-2.32,0h-.7a.11.11,0,0,1-.11-.11.11.11,0,0,1,.11-.12h.7a.12.12,0,0,1,.12.12A.12.12,0,0,1,278.55,147.79Zm-2.33,0h-.69a.11.11,0,0,1-.12-.11.12.12,0,0,1,.12-.12h.69a.12.12,0,0,1,.12.12A.11.11,0,0,1,276.22,147.79Zm-2.32,0h-.7a.12.12,0,0,1-.12-.11.12.12,0,0,1,.12-.12h.7a.11.11,0,0,1,.11.12A.11.11,0,0,1,273.9,147.79Zm-2.33,0h-.69a.11.11,0,0,1-.12-.11.12.12,0,0,1,.12-.12h.69a.12.12,0,0,1,.12.12A.11.11,0,0,1,271.57,147.79Zm-2.32,0h-.05l-.7-.13a.12.12,0,0,1-.09-.14.11.11,0,0,1,.13-.09l.69.13h0a.11.11,0,0,1,.11.12A.11.11,0,0,1,269.25,147.79Zm22.54-.14a.12.12,0,0,1-.12-.09.12.12,0,0,1,.1-.14l.68-.13a.12.12,0,0,1,.14.09.12.12,0,0,1-.09.14l-.69.13Zm-24.87-.31h0l-.68-.14a.1.1,0,0,1-.09-.13.11.11,0,0,1,.13-.1l.69.14a.12.12,0,0,1,.09.14A.12.12,0,0,1,266.92,147.34Zm27.15-.12a.12.12,0,0,1-.11-.1.11.11,0,0,1,.09-.13l.69-.13a.11.11,0,0,1,.13.09.12.12,0,0,1-.09.14l-.69.13Zm-29.43-.33h0l-.68-.13a.11.11,0,0,1-.09-.14.11.11,0,0,1,.13-.09l.69.14a.11.11,0,0,1,.09.13A.12.12,0,0,1,264.64,146.89Zm31.72-.1a.12.12,0,0,1-.12-.1.11.11,0,0,1,.1-.13l.68-.13a.12.12,0,0,1,.14.09.13.13,0,0,1-.1.14l-.68.13Zm-34-.36h0l-.68-.13a.12.12,0,0,1,0-.23l.69.13a.13.13,0,0,1,.09.14A.11.11,0,0,1,262.36,146.43Zm36.28-.08a.11.11,0,0,1-.11-.09.13.13,0,0,1,.09-.14l.69-.13a.12.12,0,0,1,0,.23l-.69.13ZM260.08,146h0l-.68-.14a.1.1,0,0,1-.09-.13.11.11,0,0,1,.13-.1l.69.14a.12.12,0,0,1,.09.14A.12.12,0,0,1,260.08,146Zm40.85-.06a.12.12,0,0,1-.12-.09.12.12,0,0,1,.1-.14l.68-.13a.13.13,0,0,1,.14.1.11.11,0,0,1-.1.13l-.68.13Zm-43.13-.39h0l-.68-.14a.12.12,0,0,1-.1-.14.13.13,0,0,1,.14-.09l.69.14a.11.11,0,0,1,.09.13A.12.12,0,0,1,257.8,145.53Zm45.41,0a.12.12,0,0,1-.11-.09.11.11,0,0,1,.09-.14l.69-.13a.11.11,0,0,1,.13.09.12.12,0,0,1-.09.14l-.69.13Zm-47.69-.42h0l-.68-.13a.13.13,0,0,1-.1-.14.13.13,0,0,1,.14-.09l.68.13a.13.13,0,0,1,.1.14A.11.11,0,0,1,255.52,145.07Zm50,0a.12.12,0,0,1-.12-.1.11.11,0,0,1,.09-.13l.69-.13a.13.13,0,0,1,.14.09.13.13,0,0,1-.1.14l-.68.13Zm2.28-.43a.12.12,0,0,1-.11-.1.11.11,0,0,1,.09-.13l.68-.13a.11.11,0,0,1,.14.09.11.11,0,0,1-.09.13l-.69.13Zm-54.54,0h0l-.69-.14a.11.11,0,0,1-.09-.13.13.13,0,0,1,.14-.1l.68.14a.12.12,0,0,1,.1.14A.13.13,0,0,1,253.24,144.62Zm56.82-.43a.11.11,0,0,1-.11-.09A.13.13,0,0,1,310,144l.69-.13a.11.11,0,0,1,.13.1.11.11,0,0,1-.09.13l-.68.13Zm-59.1,0h0l-.69-.14a.12.12,0,0,1-.09-.14.13.13,0,0,1,.14-.09l.68.14a.11.11,0,0,1,.1.13A.13.13,0,0,1,251,144.17Zm61.39-.41a.11.11,0,0,1-.11-.09.11.11,0,0,1,.09-.14l.68-.13a.12.12,0,1,1,.05.23l-.69.13Zm-63.67,0h0l-.69-.13a.13.13,0,0,1-.09-.14.12.12,0,0,1,.14-.09l.68.13a.11.11,0,0,1,.09.14A.1.1,0,0,1,248.68,143.71Zm65.95-.38a.12.12,0,0,1-.11-.1.11.11,0,0,1,.09-.13l.69-.13a.11.11,0,0,1,.13.09.11.11,0,0,1-.09.14l-.68.13Zm-68.23-.07h0l-.69-.14a.11.11,0,0,1-.09-.13.12.12,0,0,1,.14-.1l.68.14a.11.11,0,0,1,.09.14A.12.12,0,0,1,246.4,143.26Zm70.52-.36a.12.12,0,0,1-.12-.1.11.11,0,0,1,.1-.13l.68-.13a.12.12,0,0,1,.14.09.13.13,0,0,1-.09.14l-.69.13Zm-72.8-.09h0l-.69-.14a.12.12,0,0,1-.09-.14.12.12,0,0,1,.14-.09l.68.14a.1.1,0,0,1,.09.13A.12.12,0,0,1,244.12,142.81Zm75.08-.34a.12.12,0,0,1-.11-.1.13.13,0,0,1,.09-.14l.69-.13a.12.12,0,0,1,0,.23l-.69.13Zm-77.36-.12h0l-.69-.13a.13.13,0,0,1-.09-.14.12.12,0,0,1,.14-.09l.68.13a.11.11,0,0,1,.09.14A.11.11,0,0,1,241.84,142.35Zm79.65-.32a.12.12,0,0,1-.12-.09.12.12,0,0,1,.1-.14l.68-.13a.12.12,0,0,1,.14.1.11.11,0,0,1-.1.13l-.68.13Zm-81.93-.13h0l-.69-.14a.11.11,0,0,1-.09-.13.12.12,0,0,1,.14-.1l.68.14a.11.11,0,0,1,.09.14A.12.12,0,0,1,239.56,141.9Zm84.21-.3a.12.12,0,0,1,0-.23l.69-.13a.11.11,0,0,1,.13.09.12.12,0,0,1-.09.14l-.69.13Zm-86.49-.15h0l-.69-.14a.12.12,0,0,1-.09-.14.12.12,0,0,1,.14-.09l.68.14a.11.11,0,0,1,.09.13A.12.12,0,0,1,237.28,141.45Zm88.78-.28a.12.12,0,0,1-.12-.1.11.11,0,0,1,.09-.13l.69-.13a.13.13,0,0,1,.14.09.13.13,0,0,1-.1.14l-.68.13ZM235,141h0l-.69-.13a.13.13,0,0,1-.09-.14.11.11,0,0,1,.14-.09l.68.13a.13.13,0,0,1,.09.14A.11.11,0,0,1,235,141Zm93.34-.25a.12.12,0,0,1-.11-.1.11.11,0,0,1,.09-.13l.68-.13a.11.11,0,0,1,.14.09.11.11,0,0,1-.09.13l-.69.13Zm-95.62-.2h0l-.69-.14a.11.11,0,0,1-.09-.13.12.12,0,0,1,.14-.1l.68.14a.12.12,0,0,1,0,.23Zm97.91-.24a.11.11,0,0,1-.12-.09.13.13,0,0,1,.09-.14l.69-.13a.13.13,0,0,1,.14.1.11.11,0,0,1-.1.13l-.68.13Zm-100.19-.21h0l-.68-.14a.12.12,0,0,1,.05-.23l.68.14a.11.11,0,0,1,.09.13A.12.12,0,0,1,230.44,140.09Zm102.47-.22a.12.12,0,0,1-.11-.09.11.11,0,0,1,.09-.14l.68-.13a.12.12,0,1,1,.05.23l-.69.13Zm-104.75-.24h0l-.68-.13a.13.13,0,0,1-.09-.14.12.12,0,0,1,.14-.09l.68.13a.13.13,0,0,1,.09.14A.11.11,0,0,1,228.16,139.63Zm107-.19a.12.12,0,0,1-.11-.1.11.11,0,0,1,.09-.13l.69-.13a.11.11,0,0,1,.13.09.11.11,0,0,1-.09.14l-.68.13Zm-109.31-.26h0l-.68-.14a.11.11,0,0,1-.09-.13.1.1,0,0,1,.13-.09l.69.13a.12.12,0,0,1,0,.23Zm111.6-.17a.11.11,0,0,1-.11-.1.1.1,0,0,1,.09-.13l.68-.13a.12.12,0,0,1,.14.09.13.13,0,0,1-.09.14l-.69.13Zm-113.88-.28h0l-.68-.14a.12.12,0,0,1-.09-.14.11.11,0,0,1,.13-.09l.69.14a.11.11,0,0,1,.09.13A.12.12,0,0,1,223.6,138.73Zm116.16-.15a.12.12,0,0,1-.11-.1.13.13,0,0,1,.09-.14l.69-.12a.1.1,0,0,1,.13.09.11.11,0,0,1-.09.13l-.68.13Zm-118.44-.31h0l-.68-.13a.12.12,0,0,1-.09-.14.11.11,0,0,1,.13-.09l.69.13a.13.13,0,0,1,.09.14A.11.11,0,0,1,221.32,138.27Zm120.73-.13a.12.12,0,0,1-.12-.09.12.12,0,0,1,.1-.14l.68-.13a.12.12,0,0,1,.14.1.11.11,0,0,1-.09.13l-.69.13Zm-123-.32h0l-.68-.14a.11.11,0,0,1-.09-.13.1.1,0,0,1,.13-.09l.69.13a.12.12,0,0,1,0,.23Zm125.29-.11a.12.12,0,0,1,0-.23l.69-.13a.11.11,0,0,1,.13.09.12.12,0,0,1-.09.14l-.69.13Zm-127.58-.34h0l-.68-.14a.11.11,0,0,1-.09-.14.11.11,0,0,1,.13-.09l.69.14a.11.11,0,0,1,.09.13A.12.12,0,0,1,216.75,137.37Zm129.87-.09a.12.12,0,0,1-.12-.1.11.11,0,0,1,.1-.13l.68-.13a.13.13,0,0,1,.14.09.12.12,0,0,1-.1.14l-.68.13Zm-132.15-.37h0l-.68-.13a.12.12,0,0,1,0-.23l.69.13a.13.13,0,0,1,.09.14A.11.11,0,0,1,214.47,136.91Zm134.43-.06a.12.12,0,0,1-.11-.1.11.11,0,0,1,.09-.13l.69-.13a.11.11,0,0,1,.13.09.11.11,0,0,1-.09.13l-.69.13Zm-136.71-.39h0l-.68-.14a.11.11,0,0,1,0-.22l.69.13a.12.12,0,0,1,.09.14A.12.12,0,0,1,212.19,136.46Zm139-.05a.11.11,0,0,1-.12-.09.13.13,0,0,1,.09-.14l.69-.13a.13.13,0,0,1,.14.1.11.11,0,0,1-.1.13l-.68.13ZM209.91,136h0l-.68-.14a.11.11,0,0,1-.09-.14.11.11,0,0,1,.13-.09l.69.14a.11.11,0,0,1,.09.13A.12.12,0,0,1,209.91,136Zm143.56,0a.12.12,0,0,1-.11-.09.11.11,0,0,1,.09-.14l.68-.13a.12.12,0,1,1,.05.23l-.69.13Zm-145.84-.43h0l-.68-.13a.13.13,0,0,1-.1-.14.13.13,0,0,1,.14-.09l.69.13a.13.13,0,0,1,.09.14A.11.11,0,0,1,207.63,135.55Zm-2.28-.45h0l-.68-.14a.11.11,0,1,1,0-.22l.69.13a.12.12,0,0,1,.09.14A.12.12,0,0,1,205.35,135.1Zm-2.28-.45h0l-.69-.14a.12.12,0,0,1-.09-.14.13.13,0,0,1,.14-.09l.68.14a.11.11,0,0,1,.1.13A.13.13,0,0,1,203.07,134.65Zm151.54-.06h0a.11.11,0,0,1-.11-.12v-.69a.12.12,0,0,1,.12-.12h0a.11.11,0,0,1,.11.12v.7A.11.11,0,0,1,354.61,134.59Zm-153.45-.71a.13.13,0,0,1-.12-.11l0-.7a.11.11,0,0,1,.11-.12.1.1,0,0,1,.12.11l0,.69a.13.13,0,0,1-.11.13Zm153.45-1.61a.12.12,0,0,1-.11-.12c0-.23,0-.46,0-.7a.11.11,0,0,1,.11-.11h0a.11.11,0,0,1,.12.11c0,.23,0,.47,0,.7a.12.12,0,0,1-.12.12Zm-153.56-.72a.11.11,0,0,1-.11-.11l0-.7a.13.13,0,0,1,.11-.12.12.12,0,0,1,.12.11l0,.7a.11.11,0,0,1-.11.12Zm153.52-1.61a.13.13,0,0,1-.12-.11c0-.23,0-.46,0-.7a.13.13,0,0,1,.12-.12h0a.13.13,0,0,1,.12.12c0,.23,0,.46,0,.69a.12.12,0,0,1-.12.12ZM201,129.23a.11.11,0,0,1-.11-.11l0-.7a.12.12,0,0,1,.11-.12.11.11,0,0,1,.12.11l0,.7a.12.12,0,0,1-.11.12Zm153.53-1.61a.12.12,0,0,1-.12-.11l0-.69a.11.11,0,0,1,.11-.12.1.1,0,0,1,.12.11l0,.69a.1.1,0,0,1-.11.12Zm-153.6-.72a.11.11,0,0,1-.12-.11l0-.7a.13.13,0,0,1,.11-.12.12.12,0,0,1,.12.12l0,.7a.11.11,0,0,1-.11.11Zm153.48-1.6a.13.13,0,0,1-.12-.11c0-.23,0-.46,0-.69a.13.13,0,0,1,.11-.13.11.11,0,0,1,.12.11c0,.23,0,.47.05.7a.12.12,0,0,1-.11.12Zm-153.54-.72a.11.11,0,0,1-.12-.11l0-.7a.12.12,0,0,1,.12-.12.14.14,0,0,1,.12.11v.7a.11.11,0,0,1-.11.12ZM354.22,123a.12.12,0,0,1-.12-.11c0-.23,0-.46-.05-.69a.11.11,0,0,1,.1-.13.13.13,0,0,1,.13.11c0,.23,0,.46.05.7a.11.11,0,0,1-.11.12Zm-153.44-.72a.13.13,0,0,1-.12-.12v-.7a.13.13,0,0,1,.12-.12h0a.13.13,0,0,1,.12.12v.7a.13.13,0,0,1-.12.12ZM354,120.66a.12.12,0,0,1-.12-.1l-.06-.7a.11.11,0,0,1,.11-.12.11.11,0,0,1,.12.1c0,.23.05.46.07.7a.12.12,0,0,1-.11.12Zm-153.28-.73a.11.11,0,0,1-.11-.12v-.69a.12.12,0,0,1,.12-.12h0a.11.11,0,0,1,.11.12v.69a.12.12,0,0,1-.12.12Zm153.06-1.58a.11.11,0,0,1-.11-.11c0-.23-.05-.46-.07-.69a.11.11,0,0,1,.1-.13.13.13,0,0,1,.13.1c0,.24,0,.47.07.7a.13.13,0,0,1-.11.13Zm-153.07-.75a.12.12,0,0,1-.12-.11v-.7a.11.11,0,0,1,.11-.11h0a.11.11,0,0,1,.12.11v.7A.11.11,0,0,1,200.74,117.6ZM353.57,116a.12.12,0,0,1-.12-.1l-.08-.69a.12.12,0,1,1,.23,0l.08.69a.11.11,0,0,1-.1.13Zm-152.82-.75h0a.12.12,0,0,1-.12-.12v-.69a.12.12,0,0,1,.12-.12h0a.11.11,0,0,1,.11.12v.69A.13.13,0,0,1,200.75,115.28Zm152.54-1.56a.1.1,0,0,1-.11-.1l-.09-.69a.11.11,0,0,1,.1-.13.12.12,0,0,1,.13.1l.09.69c0,.07,0,.13-.1.13ZM200.78,113h0a.13.13,0,0,1-.12-.12v-.7c0-.06.07-.12.12-.11a.11.11,0,0,1,.12.11l0,.7A.12.12,0,0,1,200.78,113ZM353,111.42a.12.12,0,0,1-.12-.1l-.09-.69a.1.1,0,0,1,.1-.13.11.11,0,0,1,.13.09l.09.7a.11.11,0,0,1-.1.13Zm-152.16-.79h0a.12.12,0,0,1-.12-.12l0-.7a.13.13,0,0,1,.12-.11.12.12,0,0,1,.12.12l0,.7A.13.13,0,0,1,200.83,110.63Zm151.83-1.51a.13.13,0,0,1-.12-.1c0-.24-.06-.47-.1-.69a.12.12,0,0,1,.1-.14.12.12,0,0,1,.13.1c0,.23.07.46.1.69a.11.11,0,0,1-.09.13Zm-151.75-.81h0a.13.13,0,0,1-.11-.12l0-.7a.1.1,0,0,1,.12-.11.11.11,0,0,1,.11.12l0,.7A.11.11,0,0,1,200.91,108.31Zm151.39-1.49a.12.12,0,0,1-.11-.1c0-.23-.07-.46-.11-.69a.11.11,0,0,1,.09-.13.12.12,0,0,1,.14.09c0,.23.07.46.11.69a.11.11,0,0,1-.1.13ZM201,106h0a.12.12,0,0,1-.11-.12l0-.7a.12.12,0,0,1,.12-.11c.07,0,.12.06.11.12l0,.7A.13.13,0,0,1,201,106Zm150.91-1.46a.12.12,0,0,1-.11-.1l-.12-.68a.12.12,0,0,1,.1-.14.11.11,0,0,1,.13.1l.12.69a.11.11,0,0,1-.1.13Zm-150.77-.86h0a.12.12,0,0,1-.11-.12c0-.24,0-.47.05-.7a.11.11,0,0,1,.12-.11.12.12,0,0,1,.11.13c0,.23,0,.46-.05.69A.11.11,0,0,1,201.15,103.66Zm150.37-1.43a.12.12,0,0,1-.11-.1l-.13-.68a.12.12,0,0,1,.09-.14.12.12,0,0,1,.14.1l.12.68a.11.11,0,0,1-.09.14Zm-150.2-.89h0a.12.12,0,0,1-.11-.13l.06-.69a.12.12,0,0,1,.13-.11.12.12,0,0,1,.1.13l-.06.69A.11.11,0,0,1,201.32,101.34Zm149.77-1.4a.11.11,0,0,1-.11-.09c-.05-.23-.09-.46-.14-.68a.12.12,0,0,1,.23,0c.05.22.09.45.14.69a.11.11,0,0,1-.1.13ZM201.53,99h0a.11.11,0,0,1-.1-.12c0-.24.05-.47.07-.7a.12.12,0,0,1,.13-.1.11.11,0,0,1,.1.13c0,.23-.05.46-.07.69A.12.12,0,0,1,201.53,99Zm149.1-1.36a.12.12,0,0,1-.11-.09l-.14-.68a.12.12,0,0,1,.09-.14.13.13,0,0,1,.14.09l.14.68a.12.12,0,0,1-.09.14Zm-148.83-1h0a.12.12,0,0,1-.11-.13c0-.23.07-.46.1-.69a.11.11,0,0,1,.13-.1.12.12,0,0,1,.1.13c0,.23-.07.46-.09.69A.12.12,0,0,1,201.8,96.71Zm148.35-1.33a.11.11,0,0,1-.11-.09L350,95a.17.17,0,0,0-.09,0l-.17,0a.11.11,0,0,1-.1-.13.12.12,0,0,1,.13-.1l.17,0a.31.31,0,0,1,.28.23l.06.27a.11.11,0,0,1-.08.14Zm-2-.61h0l-.7-.07a.11.11,0,0,1-.1-.12.12.12,0,0,1,.13-.11l.69.07a.12.12,0,0,1,.1.13A.1.1,0,0,1,348.12,94.77Zm-2.32-.22h0l-.69-.06a.11.11,0,0,1-.11-.12.12.12,0,0,1,.13-.11l.69.06a.12.12,0,0,1,.11.13A.12.12,0,0,1,345.8,94.55Zm-143.67-.14h0a.12.12,0,0,1-.1-.13l.12-.69a.11.11,0,0,1,.13-.1.12.12,0,0,1,.1.14l-.12.68A.1.1,0,0,1,202.13,94.41Zm141.36,0h0l-.7,0a.12.12,0,1,1,0-.23l.69,0a.12.12,0,0,1,.11.13A.1.1,0,0,1,343.49,94.36Zm-2.32-.16h0l-.7,0a.12.12,0,0,1-.11-.12.13.13,0,0,1,.13-.11l.69,0a.12.12,0,0,1,.11.13A.11.11,0,0,1,341.17,94.2Zm-2.32-.15h0l-.7,0a.12.12,0,0,1,0-.24l.69,0a.1.1,0,0,1,.11.12A.11.11,0,0,1,338.85,94.05Zm-2.33-.13h0l-.7,0a.13.13,0,0,1-.11-.12c0-.07.06-.12.12-.11l.7,0a.13.13,0,0,1,.11.13A.11.11,0,0,1,336.52,93.92Zm-2.32-.13h0l-.7,0a.12.12,0,0,1-.11-.12.1.1,0,0,1,.12-.11l.7,0a.13.13,0,0,1,.11.12A.11.11,0,0,1,334.2,93.79Zm-2.32-.11h0l-.69,0a.1.1,0,0,1-.11-.12.11.11,0,0,1,.12-.11l.69,0a.13.13,0,0,1,.12.12A.12.12,0,0,1,331.88,93.68Zm-2.32-.1h0l-.7,0a.13.13,0,0,1-.11-.12.14.14,0,0,1,.12-.12l.7,0a.11.11,0,0,1,.11.12A.1.1,0,0,1,329.56,93.58Zm-2.33-.09h0l-.7,0a.13.13,0,0,1-.11-.12.12.12,0,0,1,.12-.12l.7,0a.12.12,0,0,1,.11.12A.11.11,0,0,1,327.23,93.49Zm-2.32-.08h0l-.7,0a.1.1,0,0,1-.11-.12.11.11,0,0,1,.12-.11l.69,0a.12.12,0,0,1,.12.12A.13.13,0,0,1,324.91,93.41Zm-2.32-.08h0l-.69,0a.12.12,0,0,1,0-.24l.7,0a.11.11,0,0,1,.11.12A.11.11,0,0,1,322.59,93.33Zm-2.33-.07h0l-.7,0a.13.13,0,0,1-.11-.12.12.12,0,0,1,.12-.12l.69,0a.13.13,0,0,1,.12.12A.12.12,0,0,1,320.26,93.26Zm-2.32-.07h0l-.69,0a.12.12,0,0,1-.12-.12.12.12,0,0,1,.12-.11l.7,0a.1.1,0,0,1,.11.12A.11.11,0,0,1,317.94,93.19Zm-2.33-.06h0l-.7,0a.11.11,0,0,1-.11-.12.11.11,0,0,1,.12-.11l.7,0a.12.12,0,0,1,0,.23Zm-2.32-.06h0l-.7,0a.1.1,0,0,1-.11-.11.11.11,0,0,1,.11-.12l.7,0a.12.12,0,0,1,.12.12A.13.13,0,0,1,313.29,93.07ZM311,93h0l-.7,0a.11.11,0,0,1-.11-.12.13.13,0,0,1,.12-.11l.7,0a.11.11,0,0,1,.11.11A.12.12,0,0,1,311,93Zm-2.32,0h0l-.7,0a.1.1,0,0,1-.11-.11.11.11,0,0,1,.11-.12l.7,0a.11.11,0,0,1,.12.11A.13.13,0,0,1,308.64,93Zm-2.33,0h-.7a.11.11,0,0,1-.11-.12.13.13,0,0,1,.12-.11h.7a.12.12,0,0,1,.11.12A.11.11,0,0,1,306.31,92.92Zm-103,0a.11.11,0,0,1-.11-.12c0-.06.05-.11.11-.12h.7a.13.13,0,0,1,.12.11.12.12,0,0,1-.12.12Zm100.69,0h-.7a.11.11,0,0,1-.11-.12c0-.06.06-.12.11-.11h.7a.12.12,0,0,1,.12.12A.12.12,0,0,1,304,92.88Zm-98.36,0a.12.12,0,0,1-.12-.12.11.11,0,0,1,.12-.11h.69a.11.11,0,0,1,.12.11.11.11,0,0,1-.11.12Zm2.32,0a.11.11,0,0,1-.11-.11.11.11,0,0,1,.11-.12h.7a.12.12,0,0,1,.12.12.11.11,0,0,1-.12.11H208Zm93.72,0H301a.12.12,0,0,1-.12-.12.12.12,0,0,1,.12-.11h.7a.11.11,0,0,1,.11.12A.11.11,0,0,1,301.67,92.84Zm-91.39,0a.14.14,0,0,1-.12-.12.13.13,0,0,1,.12-.12h.7a.11.11,0,0,1,.11.11.11.11,0,0,1-.11.12Zm89.06,0h-.7a.12.12,0,0,1-.11-.12.11.11,0,0,1,.11-.12h.7a.13.13,0,0,1,.12.12A.12.12,0,0,1,299.34,92.81Zm-86.73,0a.11.11,0,0,1-.12-.11.12.12,0,0,1,.12-.12h.69a.12.12,0,0,1,0,.23Zm2.32,0a.11.11,0,0,1-.11-.12.13.13,0,0,1,.11-.12h.7a.11.11,0,0,1,.12.11.12.12,0,0,1-.12.12Zm82.09,0h-.7a.11.11,0,0,1-.12-.11.12.12,0,0,1,.12-.12h.7a.12.12,0,0,1,.11.12A.11.11,0,0,1,297,92.77Zm-79.76,0a.11.11,0,0,1-.12-.11.12.12,0,0,1,.12-.12h.7a.12.12,0,0,1,.11.11.11.11,0,0,1-.11.12Zm77.43,0H294a.13.13,0,0,1-.11-.12.11.11,0,0,1,.11-.12h.7a.12.12,0,0,1,.12.12A.12.12,0,0,1,294.69,92.74Zm-75.11,0a.11.11,0,0,1-.11-.11.11.11,0,0,1,.11-.12h.7a.12.12,0,0,1,0,.24h-.7Zm72.79,0h-.7a.12.12,0,0,1-.12-.12.11.11,0,0,1,.12-.11h.7a.12.12,0,0,1,.11.12A.11.11,0,0,1,292.37,92.72Zm-70.46,0a.12.12,0,0,1-.12-.11.12.12,0,0,1,.12-.12h.7a.12.12,0,0,1,0,.24Zm2.33,0a.11.11,0,0,1-.12-.11.12.12,0,0,1,.12-.12h.69a.11.11,0,0,1,.12.11.12.12,0,0,1-.12.12Zm65.8,0h-.7a.11.11,0,0,1-.11-.11.11.11,0,0,1,.11-.12h.7a.12.12,0,0,1,.12.12A.12.12,0,0,1,290,92.69Zm-63.48,0a.12.12,0,0,1-.11-.12.11.11,0,0,1,.11-.12h.7a.12.12,0,0,1,.12.11.12.12,0,0,1-.12.12Zm61.16,0H287a.12.12,0,0,1-.12-.12.11.11,0,0,1,.12-.11h.7a.11.11,0,0,1,.11.11A.11.11,0,0,1,287.72,92.67Zm-58.83,0a.12.12,0,0,1-.12-.12.11.11,0,0,1,.12-.11h.69a.12.12,0,0,1,.12.12.11.11,0,0,1-.11.11Zm56.5,0h-.7a.11.11,0,0,1-.11-.11.11.11,0,0,1,.11-.12h.7a.11.11,0,0,1,.12.11A.12.12,0,0,1,285.39,92.65Zm-54.18,0a.11.11,0,0,1-.11-.11.11.11,0,0,1,.11-.12h.7a.12.12,0,0,1,.12.11.12.12,0,0,1-.12.12Zm51.86,0h-.7a.11.11,0,0,1-.12-.11.12.12,0,0,1,.12-.12h.7a.11.11,0,0,1,.11.11A.11.11,0,0,1,283.07,92.63Zm-49.53,0a.12.12,0,0,1-.12-.12.11.11,0,0,1,.12-.11h.7a.11.11,0,0,1,.11.12.11.11,0,0,1-.11.11Zm2.35,0a.13.13,0,0,1-.13-.12.11.11,0,0,1,.1-.12h.7a.11.11,0,0,1,.12.11.12.12,0,0,1-.12.12Zm44.85,0H280a.11.11,0,0,1-.11-.12.11.11,0,0,1,.11-.11h.7a.12.12,0,0,1,.12.12A.12.12,0,0,1,280.74,92.61Zm-42.53,0a.13.13,0,0,1-.13-.11.11.11,0,0,1,.11-.12h.7a.11.11,0,0,1,.11.11.11.11,0,0,1-.11.12Zm40.21,0h-.7a.13.13,0,0,1-.12-.12.12.12,0,0,1,.12-.12h.7a.11.11,0,0,1,.11.11A.11.11,0,0,1,278.42,92.6Zm-37.89,0a.11.11,0,0,1-.12-.11.11.11,0,0,1,.11-.12h.69a.11.11,0,0,1,.12.11.12.12,0,0,1-.12.12Zm35.56,0h-.7a.11.11,0,0,1-.11-.11.11.11,0,0,1,.11-.12h.7a.13.13,0,0,1,.12.12A.12.12,0,0,1,276.09,92.59Zm-33.24,0a.12.12,0,0,1-.12-.11.11.11,0,0,1,.11-.12h.7a.12.12,0,0,1,.12.11.12.12,0,0,1-.12.12Zm30.92,0h-.7a.11.11,0,0,1-.12-.11.12.12,0,0,1,.12-.12h.7a.12.12,0,0,1,0,.24Zm-28.59,0a.11.11,0,0,1-.12-.11.1.1,0,0,1,.11-.12h.69a.11.11,0,0,1,.12.11.12.12,0,0,1-.12.12Zm26.26,0h-.7a.11.11,0,0,1-.11-.11.11.11,0,0,1,.11-.12h.7a.14.14,0,0,1,.12.12A.12.12,0,0,1,271.44,92.57Zm-23.95,0a.12.12,0,0,1,0-.24h.7a.12.12,0,0,1,.12.12.12.12,0,0,1-.12.11Zm21.63,0h-.7a.12.12,0,0,1-.12-.12.11.11,0,0,1,.12-.11h.7a.11.11,0,0,1,.11.11A.11.11,0,0,1,269.12,92.56Zm-19.3,0a.12.12,0,0,1-.12-.12.11.11,0,0,1,.12-.11h.7a.12.12,0,0,1,0,.24Zm17,0h-.7a.11.11,0,0,1-.11-.11.11.11,0,0,1,.11-.12h.7a.12.12,0,0,1,.12.12A.12.12,0,0,1,266.79,92.55Zm-14.65,0a.11.11,0,0,1-.11-.11.11.11,0,0,1,.11-.12h.7a.12.12,0,0,1,.12.12.11.11,0,0,1-.12.11Zm12.32,0h-.69a.12.12,0,0,1-.12-.12.11.11,0,0,1,.12-.11h.7a.11.11,0,0,1,.11.11A.12.12,0,0,1,264.46,92.55Zm-10,0a.12.12,0,0,1-.12-.12.11.11,0,0,1,.12-.11h.7a.11.11,0,0,1,.11.11.11.11,0,0,1-.11.12Zm7.67,0h-.7a.11.11,0,0,1-.11-.12.11.11,0,0,1,.11-.11h.7a.12.12,0,0,1,.12.11A.12.12,0,0,1,262.14,92.55Zm-5.35,0a.11.11,0,0,1-.11-.12.11.11,0,0,1,.11-.11h.7a.12.12,0,0,1,.12.11.12.12,0,0,1-.12.12Zm3,0h-.69a.12.12,0,0,1-.12-.12.12.12,0,0,1,.12-.12h.69a.12.12,0,0,1,.12.12A.12.12,0,0,1,259.81,92.55Z" fill="#a8abb2"/><path d="M289.4,162.85H269.34a5.18,5.18,0,0,1-5.15-4.56L261.87,139a5.17,5.17,0,0,1,5.15-5.78h24.1a5.17,5.17,0,0,1,5.17,5.62l-1.72,19.31A5.19,5.19,0,0,1,289.4,162.85Z" fill="#888b8f"/><path d="M286.93,159.3H271.66a4,4,0,0,1-3.92-3.47L266,141.14a3.94,3.94,0,0,1,3.92-4.4h18.34a4,4,0,0,1,3.94,4.28l-1.31,14.69A4,4,0,0,1,286.93,159.3Z" fill="#202626"/><path d="M273.14,163.66s-1.58-4.16-3.42-3.78a12.59,12.59,0,0,0-3.87,1.8l-3,4s8.32,3.28,11.25,1.4a64,64,0,0,0,19.23-.29,42.06,42.06,0,0,1-3-9.12A44.72,44.72,0,0,1,273.14,163.66Z" fill="#d8a063"/><path d="M318.17,133.49S306,148.82,290.35,157.68a42.06,42.06,0,0,0,3,9.12c8.12-1.34,17.52-4.52,25.49-11.58Z" fill="#db9e05"/><path d="M227,135.52l.76,20.29a53.58,53.58,0,0,0,6.14,1.74,60.94,60.94,0,0,1,6.09-12.3A30.08,30.08,0,0,1,227,135.52Z" fill="#db9e05"/><path d="M267.21,135.17c-11.06,11.94-20,12.65-27.27,10.08a60.94,60.94,0,0,0-6.09,12.3c29.53,6.52,36.48-20.64,36.48-20.64Z" fill="#f49a5d"/><path d="M269.45,133.91a4,4,0,0,1,3.63-.94c2.36.43,4.46,1.25,5.93,0s2,.42,2,.42l-4.4,3.35Z" fill="#f49a5d"/><path d="M266.82,136.24s.87-3.65,3.5-3.15,8.6,3.75,10.14,3.15,3.51-2,4.52-1.52l-1.78,2.21s4.57-2.64,5.36-1L281,140.2S269.82,139.08,266.82,136.24Z" fill="#f49a5d"/><path d="M188.67,202.4s-3.78-53.87,23.73-70.63c0,0,7.7-5.07,17.28,4.76s6.5,20.05-1.55,29.62-16.23,26.68-14.28,36.25Z" fill="#ffc010"/><path d="M226.27,117.1c0,.64-9.17,13.65-9.17,13.65s1.65,3.24,9.5,5.87l6.77-13.93Z" fill="#f49a5d"/><path d="M222.67,161.77s17.38,14.56,36.14,8.21a4.47,4.47,0,0,1,3.53.26l5.39,2.85a4.83,4.83,0,0,0,6.39-1.78,10.06,10.06,0,0,0,1.51-4.06L265.08,163l.77-1.29s-5.15-.44-6.5,3.26c0,0-9.82,4.08-26.38-14.13C233,150.81,225.46,157.2,222.67,161.77Z" fill="#fcaa70"/><path d="M221.73,161.71a.33.33,0,0,1-.21-.07,33.46,33.46,0,0,1-10.83-13,.39.39,0,0,1,.2-.5.38.38,0,0,1,.51.2A32.65,32.65,0,0,0,222,161a.38.38,0,0,1-.22.7Z" fill="#f69a1d"/><path d="M232.63,150.65a.37.37,0,0,1-.32-.18s-2.26-3.51-6.52-11.14a8.49,8.49,0,0,0-5.06-4.37,9.94,9.94,0,0,0-6.75.89.38.38,0,0,1-.38-.66,10.51,10.51,0,0,1,7.33-1,9.25,9.25,0,0,1,5.53,4.74c4.25,7.61,6.47,11.07,6.49,11.11a.38.38,0,0,1-.11.53A.39.39,0,0,1,232.63,150.65Z" fill="#f69a1d"/><path d="M233.48,109.64s3.26,7.49,3.48,11.42,1.07,6.48-3.48,7.27A9.66,9.66,0,0,1,223,123s-3.25-6-2.52-8.51S233.48,109.64,233.48,109.64Z" fill="#fcaa70"/><path d="M224.59,120.13l.26-.11a.62.62,0,0,0,.3-.86c-.64-1.24-1.89-4.07-.27-4.74,2.08-.85,10.31-2.53,12.09-5.45s-.84-4.67-3.12-5.71a.32.32,0,0,0-.41.14l-.19.36a.31.31,0,0,1-.57-.06l-.18-.14c-.07-.26-.23-.17-.37.06-.55.87-1,.53-4.93,1.25-5.61,1-9.31,3.31-9.4,7.18a.32.32,0,0,1-.48.26c-.42-.26-1.08-.37-2,.37-1.54,1.29-.91,4.65,2.46,7.42a.3.3,0,0,1,0,.49c-.62.4-1.53,1.35.84,2.61a7.88,7.88,0,0,0,5,1.08.31.31,0,0,0,.25-.37l-.75-3.4a.31.31,0,0,1,.3-.38Z" fill="#333435"/><path d="M224.73,120.85s-1.24-4.78-3.39-3.44,1.11,5.36,2.84,5.54Z" fill="#ffbb8d"/><path d="M262.34,170.24s4.41,4.32,5.27,3.69a15,15,0,0,0,1.81-1.94,1.89,1.89,0,0,0,.13-2.23l-1-1.61a3,3,0,0,0-4.5-.65A5.49,5.49,0,0,0,262.34,170.24Z" fill="#d8a063"/><path d="M332.45,202.4a96.38,96.38,0,0,0-11.83-40.24,32.14,32.14,0,0,1-3.68-20.68l1.23-8a59.83,59.83,0,0,1,32.66-.22s23.8,18.88,7.89,69.13Z" fill="#ffc010"/><path d="M320.81,123.3l4,9.65a1.9,1.9,0,0,0,1.45,1.15c2.31.4,7.91,1,11.59-1.4a.93.93,0,0,0,.25-1.31l-7.42-10.65Z" fill="#d8a063"/><path d="M330.71,168.64a.9.9,0,0,0-.56,1.28l11.62,22.28a.9.9,0,0,0,1,.44l38-11a.89.89,0,0,0,.61-1.11l-6.54-22.66a.9.9,0,0,0-1.09-.62Z" fill="#d7d9e0"/><path d="M333.17,166a.93.93,0,0,0-.66,1.24l9.3,25.26a.92.92,0,0,0,1.13.57l37.89-10.94a.93.93,0,0,0,.66-1.09l-5.26-24.32a.93.93,0,0,0-1.12-.71Z" fill="#efeff4"/><path d="M336.47,163.47a1.15,1.15,0,0,0-1,1.41l6.31,27.27a1.16,1.16,0,0,0,1.45.85l37.31-10.78a1.15,1.15,0,0,0,.8-1.39l-5.74-22.27a1.15,1.15,0,0,0-1.29-.85Z" fill="#48494b"/><path d="M366.67,173.88c2.9-21.88-14-38.71-14-38.71l-10,11.7c7.61,9.49,11.23,18.19,12.89,25C357.76,171.25,363,170.24,366.67,173.88Z" fill="#ffc010"/><path d="M355.57,172.15a.26.26,0,0,1-.25-.2c-2.05-8.47-6.37-16.86-12.84-24.92a.26.26,0,1,1,.4-.32c6.51,8.12,10.87,16.57,12.94,25.12a.26.26,0,0,1-.19.31Z" fill="#f69a1d"/><path d="M355.57,171.89a40.49,40.49,0,0,1,1.14,13.35,1.76,1.76,0,0,1-1.63,1.58l-3.47.23a6.53,6.53,0,0,1-3.71-1.44.58.58,0,0,0-.85.74,10.13,10.13,0,0,0,3.8,3.39.6.6,0,0,1-.14,1.1l-5.38,1.53c8.84,8.33,14.68-1,14.68-1a42,42,0,0,0,6.66-17.5C363,170.24,357.76,171.25,355.57,171.89Z" fill="#d8a063"/><path d="M325,108.54c-.17.16-7.12,13.8-7.12,13.8l7.88,3.81,8.51-12S327.79,105.88,325,108.54Z" fill="#d8a063"/><path d="M330.65,115.63l-3.93,6.54a1.39,1.39,0,0,1-.21.27c-.47.44-2.07,1.7-3.31,0a11.15,11.15,0,0,0-3.1-3.36,1.27,1.27,0,0,0-1.7.56,48.6,48.6,0,0,0-2.69,6.38,1.26,1.26,0,0,0,.73,1.53,34.4,34.4,0,0,0,7.55,2.2,1.23,1.23,0,0,0,1.18-.5c1.21-1.65,4.6-6.26,5.76-7.41s3.06-.67,3.95-.41a1.28,1.28,0,0,0,1-.13,2.77,2.77,0,0,0,1-4.21,1.25,1.25,0,0,1,.39-1.71,2.79,2.79,0,0,0,1.06-4,3.91,3.91,0,0,0-4.24-2.07,1.31,1.31,0,0,1-1.37-.76.85.85,0,0,0-.65-.52,1.22,1.22,0,0,1-1-1.43,3.2,3.2,0,0,0-1.79-3.68c-3.4-1.87-6.38,1.17-7.13,3.74s3,4.39,5.43,4.69c1.75.22,2.72,2.14,3.1,3.14A1.28,1.28,0,0,1,330.65,115.63Z" fill="#333435"/><path d="M329.45,124.23S331,119.8,332.9,120s3.45,2.08,1.06,4.25C331,126.92,329.45,124.23,329.45,124.23Z" fill="#efbb86"/><path d="M214.1,115.91a12.9,12.9,0,0,0,2.13,4l4.91-4.29c2-.49,3.84-1,5.45-1.45,1.39-.41,2.63-.82,3.74-1.22l.19-.07.24-.09.19-.07c8-3,8.68-5.51,8.68-5.51a1.41,1.41,0,0,0-1.6-.72,1.91,1.91,0,0,0-.33.06,12.72,12.72,0,0,0-9.27-7.09,12.75,12.75,0,0,0-13,5.81A12.71,12.71,0,0,0,214.1,115.91Z" fill="#f69a1d"/><path d="M214.1,115.91a12.9,12.9,0,0,0,2.13,4l4.91-4.29c2-.49,3.84-1,5.45-1.45l-.16-2.28s-3.73,2-4.94-.49c-1-2-3.19-5.2-6.09-6.13A12.71,12.71,0,0,0,214.1,115.91Z" fill="#d17609"/><path d="M227.87,109.52s2.42,1.64,6.43-1.54c0,0-.41,2.1-5.36,3.14l-1.25.12c-1.63-4.18-9.21-9.41-9.21-9.41C222.9,103.4,226.25,107.31,227.87,109.52Z" fill="#d17609"/><path d="M223.27,100.54s6.85.94,10.15,7.17c0,0,.44,0,0-.93A12.91,12.91,0,0,0,223.27,100.54Z" fill="#ffb42e"/><path d="M231,112.68c8-3,8.68-5.51,8.68-5.51a1.41,1.41,0,0,0-1.6-.72c.08,0,1.22.42.93,1.12S234.81,111.19,231,112.68Z" fill="#f6d487"/></svg>