<svg xmlns="http://www.w3.org/2000/svg" xmlns:xlink="http://www.w3.org/1999/xlink" viewBox="0 0 570 250.76"><defs><linearGradient id="linear-gradient" x1="415.62" y1="190.37" x2="415.62" y2="175.65" gradientUnits="userSpaceOnUse"><stop offset="0" stop-color="#b6b8b9"/><stop offset="1" stop-color="#242626"/></linearGradient><radialGradient id="radial-gradient" cx="-4681.75" cy="590.83" r="1.08" gradientTransform="matrix(0.64, 0, 0, -1, 3307.33, 719.44)" gradientUnits="userSpaceOnUse"><stop offset="0" stop-color="#fff"/><stop offset="0.27" stop-color="#fff"/><stop offset="0.38" stop-color="#fdfcfd"/><stop offset="0.45" stop-color="#f5f4f5"/><stop offset="0.51" stop-color="#e7e5e9"/><stop offset="0.56" stop-color="#d5d1d7"/><stop offset="0.6" stop-color="#c0bac4"/><stop offset="0.62" stop-color="#c8c3cc"/><stop offset="0.68" stop-color="#e0dde2"/><stop offset="0.74" stop-color="#f1f0f2"/><stop offset="0.8" stop-color="#fcfbfc"/><stop offset="0.86" stop-color="#fff"/><stop offset="0.91" stop-color="#fdfcfd"/><stop offset="0.94" stop-color="#f5f4f5"/><stop offset="0.96" stop-color="#e7e5e9"/><stop offset="0.98" stop-color="#d4d0d7"/><stop offset="1" stop-color="#c0bac4"/></radialGradient><radialGradient id="radial-gradient-3" cx="355.45" cy="192.64" r="15.5" gradientUnits="userSpaceOnUse"><stop offset="0.39" stop-color="#1e211d"/><stop offset="0.47" stop-color="#232622"/><stop offset="0.56" stop-color="#323430"/><stop offset="0.66" stop-color="#4a4b47"/><stop offset="0.71" stop-color="#595956"/><stop offset="0.76" stop-color="#696866"/><stop offset="0.85" stop-color="#91918f"/><stop offset="0.92" stop-color="#b3b2b1"/></radialGradient><radialGradient id="radial-gradient-4" cx="481.77" cy="192.64" r="15.5" xlink:href="#radial-gradient-3"/><radialGradient id="radial-gradient-5" cx="442.02" cy="192.64" r="15.5" xlink:href="#radial-gradient-3"/></defs><g style="isolation:isolate"><g id="Layer_1" data-name="Layer 1"><rect x="0.5" y="201.88" width="570" height="48.88" fill="#292929"/><g id="Layer_2" data-name="Layer 2"><rect x="0.76" y="-149.24" width="568.47" height="353.59" fill="#ffc010"/></g><polygon points="522.48 204.82 570 204.82 570 195.42 522.48 204.82" fill="#9d8f87"/><g id="Layer_2-2" data-name="Layer 2"><path d="M558.76,52.72c-.39-1.68-4.56-3-9.72-3a27,27,0,0,0-4.29.34c-.26-2.6-1.77-4.61-3.62-4.62a9.52,9.52,0,0,0-9-5.6,10.71,10.71,0,0,0-3.19.51c-1.25-3.3-3.62-5.56-6.37-5.56a5.32,5.32,0,0,0-2.36.62c-1.14-7.74-5.82-13.53-11.43-13.53s-10.24,5.73-11.42,13.39a14.87,14.87,0,0,0-3.17-.36,13.06,13.06,0,0,0-10.25,4.65,4.28,4.28,0,0,0-2.18-.64c-2,0-3.74,1.46-4.81,3.67a3.51,3.51,0,0,0-1.75-.5c-2.09,0-3.85,2-4.52,4.69A4.86,4.86,0,0,0,466.61,51c-3.54,0-6.52.74-7.67,1.72Z" fill="#fff" fill-rule="evenodd" opacity="0.5"/><path d="M30.84,81.57C33,78.85,37.61,77,42.92,77a19.72,19.72,0,0,1,7.28,1.31c1.43-6.89,6.48-12.05,12.61-12.43,1.77-10.51,9.54-18.43,18.86-18.43,8,0,14.78,5.77,17.71,14a25.31,25.31,0,0,1,3.17-.21c9.27,0,17.11,4.74,19.84,11.31A9,9,0,0,1,130,67.78c4,0,7.46,3.06,8.77,7.33,11.56.54,20.76,3.13,23.08,6.46Z" fill="#fff" fill-rule="evenodd" opacity="0.5"/><polygon points="569.98 205.36 570.5 105.11 546.71 96.92 465.16 111.71 424.08 82 392.05 103.95 371.34 91.51 354.37 105.66 329.1 92.55 251.91 111.72 182.79 88.98 158.72 106.42 155.09 89.93 121.12 108.37 75.15 72.83 28.25 99.96 0.5 120.14 0.5 202.78 569.98 205.36" fill="#985705"/><polygon points="0.5 204.79 0.5 179.48 25.92 170.71 106.77 185.42 147.5 155.86 179.26 177.69 205.3 155.54 219.4 168.92 237.91 159.57 264.27 180.02 326.1 166.61 385.82 183.87 414.19 163.75 447.87 182.1 493.44 146.74 539.94 173.72 570 187.02 570.12 206.12 0.5 204.79" fill="#522601"/></g><path d="M506.74,171.26h-.54s-.39.26,0,.63h.47Z" fill="#727271"/><path d="M507.62,170.1h.14V173l-.14,0c-.65,0-1-.56-1.19-1.18v-.57A1.2,1.2,0,0,1,507.62,170.1Z"/><path d="M507.76,170.11s.68.22.68,1.46-.68,1.45-.68,1.45Z" fill="#ed3a0f"/><path d="M507.89,170.33a2.2,2.2,0,0,1,.44,1.6s-.09-.68-.44-.9Z" fill="#ffd4a8" style="mix-blend-mode:screen"/><path d="M506.74,175.12h-.54s-.39.27,0,.64h.47Z" fill="#727271"/><path d="M507.62,174l.14,0v2.9l-.14,0c-.65,0-1-.56-1.19-1.18v-.57A1.19,1.19,0,0,1,507.62,174Z"/><path d="M507.76,174s.68.21.68,1.45-.68,1.45-.68,1.45Z" fill="#ed3a0f"/><path d="M507.89,174.2a2.2,2.2,0,0,1,.44,1.6s-.09-.68-.44-.9Z" fill="#ffd4a8" style="mix-blend-mode:screen"/><polygon points="505.1 168.78 506.03 178.86 507.35 178.86 507.35 167.46 505.1 168.78" fill="#292929"/><polygon points="372.19 147.02 367.49 148.41 367.49 170.88 372.19 170.88 372.19 147.02" fill="#595959"/><path d="M371.53,149.54h.83s.6.41-.05,1h-.72Z" fill="#727271"/><path d="M370.21,147.79l-.23,0v4.43l.23,0c1,0,1.52-.85,1.8-1.8v-.87A1.81,1.81,0,0,0,370.21,147.79Z"/><path d="M370,147.81s-1,.33-1,2.21c0,2.09,1,2.22,1,2.22Z" fill="#ed3a0f"/><path d="M369.79,148.14a3.27,3.27,0,0,0-.65,2.44s.12-1,.65-1.38Z" fill="#ffd4a8" style="mix-blend-mode:screen"/><path d="M367.13,124h.55s.38.27,0,.64h-.47Z" fill="#727271"/><path d="M366.26,122.8h-.15v2.92h.15c.65,0,1-.56,1.18-1.19V124A1.18,1.18,0,0,0,366.26,122.8Z"/><path d="M366.11,122.81s-.69.21-.69,1.46.69,1.46.69,1.46Z" fill="#ed3a0f"/><path d="M366,123a2.2,2.2,0,0,0-.43,1.62s.07-.69.43-.92Z" fill="#ffd4a8" style="mix-blend-mode:screen"/><polygon points="372.19 122.13 367.49 123.52 367.49 145.98 372.19 145.98 372.19 122.13" fill="#595959"/><polygon points="372.13 122.13 367.43 123.52 367.43 145.98 372.13 145.98 372.13 122.13" fill="#595959"/><polygon points="370.56 122.61 370.56 145.98 372.19 145.98 372.19 122.13 370.56 122.61" fill="#595959" style="mix-blend-mode:multiply"/><polygon points="370.56 147.51 370.56 170.88 372.19 170.88 372.19 147.02 370.56 147.51" fill="#595959" style="mix-blend-mode:multiply"/><polygon points="494.14 115.06 383.65 115.06 383.65 105.48 364.24 105.48 366.63 109.05 371.88 109.05 371.88 176.91 494.14 176.91 511.85 166.21 494.14 115.06" fill="#636363"/><polygon points="386.46 115.06 383.65 115.06 383.89 176.91 386.46 176.91 386.46 115.06" fill="#939393" opacity="0.5" style="mix-blend-mode:multiply"/><polygon points="490.44 121.89 390.65 121.89 390.86 170.1 493.88 170.1 503.49 162.74 490.44 121.89" fill="#292929"/><polygon points="391.28 121.89 390.65 121.89 390.86 170.1 391.28 170.1 391.28 121.89" fill="#f08b00" style="mix-blend-mode:multiply"/><path d="M502.85,160.76l-1.15-3.63H479.56V140.6h16.86l-1.05-3.25H479.56V123h11.22l-.34-1.06H390.65V123h25.61v14.4H390.72v3.25h25.53v16.53H390.81v3.63h25.44v9.34H420v-9.34h25.92v9.34h3.75v-9.34H475v9.34h4.52v-9.34ZM475,123v14.4H449.69V123Zm-55,0h25.92v14.4H420Zm0,34.18V140.6h25.92v16.53Zm29.67,0V140.6H475v16.53Z" fill="#2e2d2c" style="mix-blend-mode:multiply"/><polygon points="496.14 139.73 494.18 133.59 390.7 133.59 390.73 139.73 496.14 139.73" fill="#636363"/><polygon points="502.61 160.01 500.5 153.37 390.8 153.37 390.82 160.01 502.61 160.01" fill="#636363"/><rect x="412.23" y="121.89" width="7" height="48.21" fill="#636363"/><rect x="442.02" y="121.89" width="7.01" height="48.21" fill="#636363"/><rect x="471.81" y="121.89" width="7" height="48.21" fill="#636363"/><path d="M377.86,106.61a.51.51,0,0,0-.47.56v3.7H372V112h5.36v7.34H372v1.12h5.36v7.34H372v1.13h5.36v7.33H372v1.13h5.36v7.34H372v1.12h5.36v7.34H372v1.13h5.36v7.33H372v1.13h5.36v7.33H372v1.13h5.36v3.15a.51.51,0,0,0,.47.56.52.52,0,0,0,.46-.56V107.17A.52.52,0,0,0,377.86,106.61Z" fill="#a1a1a1" style="mix-blend-mode:multiply"/><path d="M377.61,106.61a.52.52,0,0,0-.47.56v3.7h-6.36v-3.7a.53.53,0,0,0-.47-.56.52.52,0,0,0-.47.56v67.22a.52.52,0,0,0,.47.56.53.53,0,0,0,.47-.56v-3.15h6.36v3.15a.47.47,0,1,0,.93,0V107.17A.52.52,0,0,0,377.61,106.61Zm-6.83,38.12v-7.34h6.36v7.34Zm6.36,1.12v7.34h-6.36v-7.34Zm-6.36-9.59v-7.33h6.36v7.33Zm0-8.46v-7.34h6.36v7.34Zm0,26.52h6.36v7.33h-6.36ZM377.14,112v7.34h-6.36V112Zm-6.36,58.11v-7.33h6.36v7.33Z" fill="#292929"/><path d="M377.61,106.83a.18.18,0,0,0-.17.08.85.85,0,0,0-.14.54v2.15c0,1.85,0,4.5,0,7.67,0,6.35,0,14.81,0,23.27s0,16.93,0,23.28,0,10.57,0,10.57,0-4.23-.06-10.57,0-14.82,0-23.28,0-16.92,0-23.27c0-3.17,0-5.82,0-7.67,0-.93,0-1.66,0-2.15a.85.85,0,0,1,.14-.54A.16.16,0,0,1,377.61,106.83Z" fill="#fff" opacity="0.4" style="mix-blend-mode:screen"/><path d="M370.29,106.83s-.08,0-.16.09a1,1,0,0,0-.15.53c0,.5,0,1.22,0,2.15,0,1.85,0,4.5,0,7.67,0,6.35,0,14.81,0,23.28s0,16.92,0,23.27l0,10.57s0-4.23-.06-10.57,0-14.82,0-23.27,0-16.93,0-23.28c0-3.17,0-5.82,0-7.67,0-.93,0-1.65,0-2.15a1,1,0,0,1,.15-.54A.17.17,0,0,1,370.29,106.83Z" fill="#fff" opacity="0.4" style="mix-blend-mode:screen"/><path d="M371.09,111.11s.36,0,.89-.07l.9-.05,1,0,1,0,.91.05c.53,0,.88.07.88.07s-.35,0-.88.09l-.91,0c-.33,0-.68,0-1,0s-.71,0-1,0l-.9,0C371.45,111.16,371.09,111.11,371.09,111.11Z" fill="#fff" opacity="0.4" style="mix-blend-mode:screen"/><path d="M371.09,119.63l.89-.08.9,0c.33,0,.69,0,1,0s.71,0,1,0l.91,0,.88.08-.88.08c-.26,0-.58,0-.91,0l-1,0-1,0c-.33,0-.64,0-.9,0Z" fill="#fff" opacity="0.4" style="mix-blend-mode:screen"/><path d="M371.09,128.15s.36-.05.89-.08l.9,0,1,0,1,0,.91,0c.53,0,.88.09.88.09l-.88.08-.91,0h-2.08l-.9,0Z" fill="#fff" opacity="0.4" style="mix-blend-mode:screen"/><path d="M371.09,136.66s.36,0,.89-.08l.9-.05H375l.91.05c.53,0,.88.08.88.08l-.88.08-.91,0-1,0-1,0-.9,0Z" fill="#fff" opacity="0.4" style="mix-blend-mode:screen"/><path d="M371.09,145.08s.36-.05.89-.08l.9,0c.33,0,.69,0,1,0s.71,0,1,0,.65,0,.91,0c.53,0,.88.08.88.08l-.88.08c-.26,0-.58,0-.91,0l-1,0-1,0c-.33,0-.64,0-.9,0Z" fill="#fff" opacity="0.4" style="mix-blend-mode:screen"/><path d="M371.09,153.56l.89-.08.9,0,1,0,1,0,.91,0,.88.08s-.35.05-.88.08l-.91.05-1,0-1,0-.9-.05C371.45,153.61,371.09,153.56,371.09,153.56Z" fill="#fff" opacity="0.4" style="mix-blend-mode:screen"/><path d="M371.09,162.11s.36-.05.89-.08l.9-.05H375l.91.05c.53,0,.88.08.88.08l-.88.08c-.26,0-.58,0-.91,0l-1,0-1,0c-.33,0-.64,0-.9,0Z" fill="#fff" opacity="0.4" style="mix-blend-mode:screen"/><path d="M371.09,170.43s.36,0,.89-.07l.9-.05c.33,0,.69,0,1,0s.71,0,1,0l.91.05c.53,0,.88.07.88.07s-.35,0-.88.08l-.91.05-1,0-1,0-.9-.05C371.45,170.48,371.09,170.43,371.09,170.43Z" fill="#fff" opacity="0.4" style="mix-blend-mode:screen"/><polygon points="387.24 116.19 493.08 116.19 494.01 118.63 387.24 118.63 387.24 116.19" fill="#939393"/><rect x="390.7" y="133.59" width="21.53" height="0.46" fill="#939393"/><rect x="390.8" y="153.33" width="21.43" height="0.46" fill="#939393"/><rect x="390.86" y="170.1" width="21.36" height="0.47" fill="#939393"/><rect x="419.14" y="133.59" width="22.88" height="0.46" fill="#939393"/><rect x="419.24" y="153.33" width="22.78" height="0.46" fill="#939393"/><rect x="419.31" y="170.1" width="22.71" height="0.47" fill="#939393"/><rect x="449.03" y="133.59" width="22.79" height="0.46" fill="#939393"/><rect x="449.03" y="153.33" width="22.79" height="0.46" fill="#939393"/><rect x="449.03" y="170.1" width="22.79" height="0.47" fill="#939393"/><polygon points="494.33 134.05 478.81 134.05 478.81 133.59 494.18 133.59 494.33 134.05" fill="#939393"/><polygon points="500.7 153.79 478.81 153.79 478.81 153.33 500.49 153.33 500.7 153.79" fill="#939393"/><polygon points="494.55 170.1 503.65 163.05 503.49 162.74 493.88 170.1 478.81 170.1 478.81 170.57 493.98 170.57 494.55 170.1" fill="#939393"/><polygon points="366.93 108.61 364.93 105.86 383.02 105.86 366.93 106.3 366.93 108.61" fill="#939393"/><polygon points="325.97 167.96 331.48 173.89 325.19 173.89 325.97 167.96" fill="#0f0f0f"/><polygon points="332.55 147.43 331.79 151.03 332.17 151.58 333 148.03 332.55 147.43" fill="#2b2b2b"/><polygon points="337.02 153.36 333.36 152.9 332.96 152.37 336.6 152.74 337.02 153.36" fill="#2b2b2b"/><polygon points="324.84 172.65 356.33 172.65 356.33 177.24 327.32 177.24 324.84 172.65" fill="#23211f"/><polygon points="324.84 174.88 356.33 174.88 356.33 177.24 327.32 177.24 324.84 174.88" fill="#696969" style="mix-blend-mode:multiply"/><polygon points="327.8 154.02 333.8 149.53 335.17 151.24 329.87 156.65 327.8 154.02" fill="#525252"/><path d="M329.07,155.63l.8,1,5.3-5.41-.76-.94C333.36,151.33,329.79,154.88,329.07,155.63Z" fill="#525252" opacity="0.4" style="mix-blend-mode:multiply"/><path d="M334.73,151.69l.44-.45-1.37-1.71-.36.27Q334.06,150.76,334.73,151.69Z" fill="#525252" style="mix-blend-mode:multiply"/><path d="M330.32,152.13,327.8,154l2.07,2.63,2.25-2.3C331.5,153.63,330.9,152.88,330.32,152.13Z" fill="#525252" style="mix-blend-mode:multiply"/><polygon points="327.14 151.41 328.56 150.66 332.55 155.74 331.6 157.37 327.14 151.41" fill="#0f0f0f"/><path d="M337.7,152.35c.52.69.64,1.48.26,1.75h0c-.35.27-1.08-.07-1.6-.76l-4.09-5.51c-.51-.69-.63-1.47-.27-1.74h0c.37-.27,1.08.06,1.6.76Z" fill="#0f0f0f"/><path d="M322.36,154.6l.91-4.21,4,.27,4.67,6.05s.4.34,0,1.31-6.26,16.5-6.26,16.5l-5.92-3.18Z" fill="#914a17"/><path d="M322.36,154.6l.91-4.21,2.7.18-4.05,18.2s4.91,2.82,4.75,3.22l-.95,2.53-5.92-3.18Z" fill="#914a17" opacity="0.5" style="mix-blend-mode:multiply"/><path d="M359.85,162.17s-13.5,1-19.22,2a3.37,3.37,0,0,0-2.39,2.9c-.52,2.56-1.28,11.19-1.28,11.19h16Z" fill="#363432"/><path d="M356.53,169.86l3.32-7.69s-13.5,1-19.22,2a3.37,3.37,0,0,0-2.39,2.9c-.13.64-.28,1.66-.41,2.82Z" fill="#5c5c5c"/><path d="M354.18,163.53s-7.83.58-12.81,1.39a2.92,2.92,0,0,0-2.07,2.53c-.45,2.23-1,8.4-1,8.4h10.63l1.15-8.67,4-2.81Z" fill="#696969" style="mix-blend-mode:multiply"/><path d="M341.6,165.43c4.39-.72,11-1.25,12.49-1.36l.09-.54s-7.83.58-12.81,1.39a2.92,2.92,0,0,0-2.07,2.53c-.45,2.23-1,8.4-1,8.4h.28c.14-1.51.57-6,.94-7.89A2.94,2.94,0,0,1,341.6,165.43Z" fill="#696969" style="mix-blend-mode:multiply"/><polygon points="330.17 152.41 333.56 149.84 333.7 150.01 330.53 152.86 330.17 152.41" fill="#525252" style="mix-blend-mode:screen"/><path d="M341.49,160.52s-4.36.28-4.53,1.94,1.5,1.89,3.27,1.81l13.62-1.6a1.59,1.59,0,0,0,1.24-1.07,139.71,139.71,0,0,0,2.45-14.29s.12-2.51-1.42-2.56a3.65,3.65,0,0,0-3.59,2.68c-.57,1.76-1.65,11,.11,13,0,0-.94-.72-4.49-.52C345.59,160.1,341.49,160.52,341.49,160.52Z" fill="#303030"/><path d="M356.12,144.75a3.45,3.45,0,0,0-1.83.45h.13c.74,0,1.74.44,1.71,1.31a6,6,0,0,1-.44,1.77,17.38,17.38,0,0,0-.65,2.48,41.88,41.88,0,0,0-.39,5.36c0,.84.05,1.9-.67,2.49a1.45,1.45,0,0,1-1.84-.36,2.47,2.47,0,0,1-.35-.6,5.48,5.48,0,0,0,.85,2.83,4.6,4.6,0,0,0-2.25-.52c-.38.69-.53,1.48-1.33,1.84a13.23,13.23,0,0,1-3.36.64c-1.59.25-3.18.47-4.77.67-1.26.16-2.53.23-3.79.32.47.79,1.75.92,3.09.85l13.62-1.6a1.59,1.59,0,0,0,1.24-1.07,139.71,139.71,0,0,0,2.45-14.29S357.66,144.8,356.12,144.75Z" fill="#0f0f0f"/><path d="M356.33,162.46s-1.75-3.13-4.25-3.19-1.43,3.78-1.43,3.78Z" fill="#262626"/><path d="M354.63,145.37s-1.29.11-2,2.92-.86,8.78-.47,9.54C352.16,157.83,352.38,148.24,354.63,145.37Z" fill="#303030" style="mix-blend-mode:screen"/><path d="M353.46,161.3a.75.75,0,0,1-.76.75.75.75,0,0,1,0-1.5A.76.76,0,0,1,353.46,161.3Z"/><path d="M353.11,161.3a.41.41,0,0,1-.41.41.41.41,0,0,1,0-.81A.4.4,0,0,1,353.11,161.3Z" fill="#262626"/><path d="M337.14,162.82s-.26-1.6,4.13-2.14c0,0,7.2-.7,7.93-.6,0,0-8.16.74-9.72,1.22A5,5,0,0,0,337.14,162.82Z" fill="#303030" style="mix-blend-mode:screen"/><path d="M500.57,181.41h-.81s-.61.41,0,1h.72Z" fill="#727271"/><path d="M501.9,179.67l.24,0v4.43h-.24c-1,0-1.52-.83-1.79-1.79v-.87A1.79,1.79,0,0,1,501.9,179.67Z"/><path d="M502.14,179.69s1,.31,1,2.21c0,2.08-1,2.22-1,2.22Z" fill="#ed3a0f"/><path d="M502.33,180a3.39,3.39,0,0,1,.65,2.45s-.13-1-.65-1.38Z" fill="#ffd4a8" style="mix-blend-mode:screen"/><polygon points="442.02 193.06 482.17 193.06 482.17 180.78 442.11 180.78 442.02 193.06" fill="#121212"/><polygon points="337.46 193.06 377.61 193.06 366.86 176.48 341.51 176.53 337.46 193.06" fill="#292929"/><rect x="371.82" y="176.92" width="128.02" height="10.59" fill="#292929"/><rect x="371.82" y="176.92" width="128.02" height="3.89"/><path d="M417.72,176.92c-.35,1.92-.82,4.3-1.11,5.27-.51,1.74-.91,1.89-2.74,1.89h-4.14l0,3.4h5.53c1.51,0,2.9,0,3.71-2.36.53-1.61,1.77-5.69,2.53-8.2Z" fill="url(#linear-gradient)" style="mix-blend-mode:multiply"/><path d="M418.15,176.92c-.37,1.93-.95,4.85-1.26,5.87-.49,1.57-.87,1.73-2.6,1.73h-3.91l-.26,2.36h5.22c1.43,0,2.62,0,3.38-2.14.53-1.54,1.71-5.6,2.35-7.82Z" fill="#525252"/><polygon points="384.04 176.92 387.4 189.54 388.41 190.54 408.73 190.54 409.86 189.28 411.2 176.92 384.04 176.92" fill="#818080"/><polygon points="384.04 176.92 384.9 180.15 410.84 180.15 411.2 176.92 384.04 176.92" fill="#818080" opacity="0.4" style="mix-blend-mode:multiply"/><path d="M388.43,179a1.76,1.76,0,1,1-1.76-1.75A1.76,1.76,0,0,1,388.43,179Z"/><path d="M392.08,179a1.76,1.76,0,1,1-1.77-1.75A1.77,1.77,0,0,1,392.08,179Z"/><path d="M391.78,179a1.47,1.47,0,1,1-1.47-1.46A1.47,1.47,0,0,1,391.78,179Z" fill="#427724"/><path d="M388.13,179a1.47,1.47,0,1,1-1.46-1.46A1.46,1.46,0,0,1,388.13,179Z" fill="#be3324"/><polygon points="386 182.02 387.72 189.25 388.6 190.35 408.1 190.35 409.56 189.22 410.85 177.16 409.01 188.49 407.31 190.01 389.24 190.01 388.12 188.98 386 182.02" fill="#4b4b4b"/><path d="M331.16,125.66s-3.55.23-4.33,3.36L320,159.38a7.34,7.34,0,0,1-3,3.2,4.55,4.55,0,0,0-1.58,3.74v25.93h22.06l4.24-16.49h22.54v-50.1Zm14.11,32H324a6.24,6.24,0,0,1-.68-.35,3.42,3.42,0,0,1-1.4-2.68c1.77-5.78,6.13-23.51,6.13-23.51a5.07,5.07,0,0,1,4.75-3.44c1.86-.08,7.69-.08,12.47-.06Zm15.55,0H347.41v-30c4.17,0,7.61.06,7.61.06s5.49-.16,5.8,5.3Z" fill="#ffaf21"/><path d="M332.8,127.68a5.07,5.07,0,0,0-4.75,3.44s-4.36,17.73-6.13,23.51a3.42,3.42,0,0,0,1.4,2.68,6.24,6.24,0,0,0,.68.35h21.27v-30C340.49,127.6,334.66,127.6,332.8,127.68Z" fill="#00a8e3" opacity="0.3"/><path d="M325.5,141.33l-1.22,4.7c4.55-2.75,18.56-11.13,21-12.59v-3.93C338.65,133.39,332.16,137.51,325.5,141.33Z" fill="#9be9e3" opacity="0.3" style="mix-blend-mode:screen"/><path d="M345.27,154.27v-3.76q-6.28,3.56-12.54,7.15h7.37Z" fill="#9be9e3" opacity="0.3" style="mix-blend-mode:screen"/><path d="M355,127.68s-3.44,0-7.61-.06v30h13.41V133C360.51,127.52,355,127.68,355,127.68Z" fill="#00a8e3" opacity="0.3"/><path d="M360.82,144.77V141.7l-13.41,7.6v3.57C350,151.16,359,145.81,360.82,144.77Z" fill="#9be9e3" opacity="0.3" style="mix-blend-mode:screen"/><path d="M347.41,128.27v3.89l7.5-4.49-6.39,0Z" fill="#9be9e3" opacity="0.3" style="mix-blend-mode:screen"/><path d="M328,129.9c-.48,0-.86-.58-.86-1.29s.38-1.3.86-1.3.87.58.87,1.3S328.47,129.9,328,129.9Z" fill="#c0bac4" opacity="0.5" style="mix-blend-mode:multiply"/><path d="M321.72,148.12c0-.79.22-9.47.22-10.9,0-1.85.25-2.89,1.35-2.91,1.31,0,1.81.36,1.81,3.56v9.75c0,1.24-.41,2.5-1.6,2.5S321.72,150,321.72,148.12Z" fill="#262625"/><path d="M323.5,150.12a2,2,0,0,1-1.31-.3,3.72,3.72,0,0,0,.88.08c1.19,0,1.59-1.23,1.59-2.46v-9.53c0-3.12-.5-3.52-1.81-3.48h-.11a1.27,1.27,0,0,1,.55-.13c1.31,0,1.81.36,1.81,3.56v9.75C325.1,148.86,324.69,150.12,323.5,150.12Z" fill="#1d1d1b" opacity="0.5" style="mix-blend-mode:multiply"/><path d="M328.55,128.62c0-.61-.31-1.09-.69-1.09s-.68.48-.68,1.09.3,1.08.68,1.08S328.55,129.21,328.55,128.62Z" fill="url(#radial-gradient)" style="mix-blend-mode:multiply"/><path d="M328.5,128.62c0-.56-.28-1-.64-1s-.64.45-.64,1,.29,1,.64,1S328.5,129.17,328.5,128.62Z" fill="#262625"/><path d="M327.76,129.32c-.23,0-.42-.29-.42-.64s.19-.63.42-.63.44.28.44.63S328,129.32,327.76,129.32Z" fill="#c0bac4" opacity="0.5" style="mix-blend-mode:multiply"/><path d="M322.77,141.7c-.24,0-.43-.29-.43-.64s.19-.64.43-.64.42.28.42.64S323,141.7,322.77,141.7Z" fill="#c0bac4" opacity="0.5" style="mix-blend-mode:multiply"/><path d="M327.55,128.21h-4.7a2.76,2.76,0,0,0-2.05.66,3.07,3.07,0,0,0-.61,2.33v.27c0,.52,0,1.38,0,2.38,0,1.4-.05,3.15-.05,4.63,0,2.39,1.6,3,2.45,3h0a.5.5,0,0,0,.5-.49.49.49,0,0,0-.49-.5c-.16,0-1.48-.12-1.48-2.05,0-1.48,0-3.22.05-4.61,0-1,0-1.87,0-2.4v-.27a2.34,2.34,0,0,1,.32-1.62,1.87,1.87,0,0,1,1.34-.37h4.7a.5.5,0,0,0,0-1Z" fill="#2c2d2b"/><path d="M327.88,129.08a.54.54,0,0,1-.33.13h-4.7a3.91,3.91,0,0,0-.73.06,1.21,1.21,0,0,0-.61.31,2.34,2.34,0,0,0-.32,1.62v.27c0,.53,0,1.4,0,2.4,0,1.39-.05,3.13-.05,4.61,0,1.93,1.32,2,1.48,2.05a.49.49,0,0,1,.49.5.46.46,0,0,1-.11.3h0c-.85,0-2.46-.65-2.46-3,0-1.47,0-3.21.05-4.6,0-1,0-1.85,0-2.37v-.25a3.08,3.08,0,0,1,.62-2.34,1.86,1.86,0,0,1,.62-.41,3.7,3.7,0,0,1,1.05-.12h4.7a.5.5,0,0,1,.5.5A.52.52,0,0,1,327.88,129.08Z" fill="#686867"/><path d="M327.88,129.08a.52.52,0,0,1-.33.13h-4.7a3.91,3.91,0,0,0-.73.06,1.21,1.21,0,0,0-.61.31,2.34,2.34,0,0,0-.32,1.62v.27c0,.53,0,1.4,0,2.4,0,1.39-.05,3.13-.05,4.61s.79,1.89,1.23,2c-.36,0-1.38-.34-1.38-2,0-1.47,0-3.2.05-4.6,0-1,0-1.88,0-2.4a2.62,2.62,0,0,0,0-.28,2.32,2.32,0,0,1,.32-1.61,1.13,1.13,0,0,1,.62-.3,3,3,0,0,1,.72-.07h4.7C327.73,129.18,328,129,327.88,129.08Z" fill="#c0bac4" opacity="0.5" style="mix-blend-mode:multiply"/><path d="M327.88,129.08a.54.54,0,0,1-.33.13h-4.7a3.91,3.91,0,0,0-.73.06,2.52,2.52,0,0,1,1.11-.19Z" fill="#c0bac4" opacity="0.5" style="mix-blend-mode:multiply"/><path d="M328,129.9c-.48,0-.86-.58-.86-1.29s.38-1.3.86-1.3.87.58.87,1.3S328.47,129.9,328,129.9Z" fill="#c0bac4" opacity="0.5" style="mix-blend-mode:multiply"/><path d="M321.72,148.12c0-.79.22-9.47.22-10.9,0-1.85.25-2.89,1.35-2.91,1.31,0,1.81.36,1.81,3.56v9.75c0,1.24-.41,2.5-1.6,2.5S321.72,150,321.72,148.12Z" fill="#262625"/><path d="M323.5,150.12a2,2,0,0,1-1.31-.3,3.72,3.72,0,0,0,.88.08c1.19,0,1.59-1.23,1.59-2.46v-9.53c0-3.12-.5-3.52-1.81-3.48h-.11a1.27,1.27,0,0,1,.55-.13c1.31,0,1.81.36,1.81,3.56v9.75C325.1,148.86,324.69,150.12,323.5,150.12Z" fill="#1d1d1b" opacity="0.5" style="mix-blend-mode:multiply"/><path d="M328.55,128.62c0-.61-.31-1.09-.69-1.09s-.68.48-.68,1.09.3,1.08.68,1.08S328.55,129.21,328.55,128.62Z" fill="url(#radial-gradient)" style="mix-blend-mode:multiply"/><path d="M328.5,128.62c0-.56-.28-1-.64-1s-.64.45-.64,1,.29,1,.64,1S328.5,129.17,328.5,128.62Z" fill="#262625"/><path d="M327.76,129.32c-.23,0-.42-.29-.42-.64s.19-.63.42-.63.44.28.44.63S328,129.32,327.76,129.32Z" fill="#c0bac4" opacity="0.5" style="mix-blend-mode:multiply"/><path d="M322.77,141.7c-.24,0-.43-.29-.43-.64s.19-.64.43-.64.42.28.42.64S323,141.7,322.77,141.7Z" fill="#c0bac4" opacity="0.5" style="mix-blend-mode:multiply"/><path d="M327.55,128.21h-4.7a2.76,2.76,0,0,0-2.05.66,3.07,3.07,0,0,0-.61,2.33v.27c0,.52,0,1.38,0,2.38,0,1.4-.05,3.15-.05,4.63,0,2.39,1.6,3,2.45,3h0a.5.5,0,0,0,.5-.49.49.49,0,0,0-.49-.5c-.16,0-1.48-.12-1.48-2.05,0-1.48,0-3.22.05-4.61,0-1,0-1.87,0-2.4v-.27a2.34,2.34,0,0,1,.32-1.62,1.87,1.87,0,0,1,1.34-.37h4.7a.5.5,0,0,0,0-1Z" fill="#2c2d2b"/><path d="M327.88,129.08a.54.54,0,0,1-.33.13h-4.7a3.91,3.91,0,0,0-.73.06,1.21,1.21,0,0,0-.61.31,2.34,2.34,0,0,0-.32,1.62v.27c0,.53,0,1.4,0,2.4,0,1.39-.05,3.13-.05,4.61,0,1.93,1.32,2,1.48,2.05a.49.49,0,0,1,.49.5.46.46,0,0,1-.11.3h0c-.85,0-2.46-.65-2.46-3,0-1.47,0-3.21.05-4.6,0-1,0-1.85,0-2.37v-.25a3.08,3.08,0,0,1,.62-2.34,1.86,1.86,0,0,1,.62-.41,3.7,3.7,0,0,1,1.05-.12h4.7a.5.5,0,0,1,.5.5A.52.52,0,0,1,327.88,129.08Z" fill="#686867"/><path d="M327.88,129.08a.52.52,0,0,1-.33.13h-4.7a3.91,3.91,0,0,0-.73.06,1.21,1.21,0,0,0-.61.31,2.34,2.34,0,0,0-.32,1.62v.27c0,.53,0,1.4,0,2.4,0,1.39-.05,3.13-.05,4.61s.79,1.89,1.23,2c-.36,0-1.38-.34-1.38-2,0-1.47,0-3.2.05-4.6,0-1,0-1.88,0-2.4a2.62,2.62,0,0,0,0-.28,2.32,2.32,0,0,1,.32-1.61,1.13,1.13,0,0,1,.62-.3,3,3,0,0,1,.72-.07h4.7C327.73,129.18,328,129,327.88,129.08Z" fill="#c0bac4" opacity="0.5" style="mix-blend-mode:multiply"/><path d="M327.88,129.08a.54.54,0,0,1-.33.13h-4.7a3.91,3.91,0,0,0-.73.06,2.52,2.52,0,0,1,1.11-.19Z" fill="#c0bac4" opacity="0.5" style="mix-blend-mode:multiply"/><path d="M338.81,159.78h5.44c.91,0,1.22.22,1.22.76s0,2.59-4.27,2.55S336.7,159.78,338.81,159.78Z" fill="#f08b00" opacity="0.5" style="mix-blend-mode:multiply"/><g style="mix-blend-mode:multiply"><path d="M344.78,162.18a5.91,5.91,0,0,0-3.06-.76,4,4,0,0,0-3.07,1.07,5.09,5.09,0,0,0,2.55.6C343.15,163.09,344.21,162.69,344.78,162.18Z" fill="#f08a1d"/></g><polygon points="332.31 197.32 339.82 174.39 367.62 174.39 381.32 197.32 377 197.32 365.93 178.17 342.58 178.17 337.38 197.32 332.31 197.32" fill="#f08b00"/><polygon points="336.54 197.32 342.14 177.54 366.11 177.51 377.68 197.32 377 197.32 365.93 178.17 342.58 178.17 337.38 197.32 336.54 197.32" fill="#ba4d0b"/><path d="M328.65,186.41H316.81s-2.34-.43-2.44,1.45v7.69s-.09,2.76,2,2.9h20.57s1.32,0,1.6-1.74l1.31-7.83s0-2.41-1.94-2.51Z" fill="#f39e18"/><path d="M314.37,191.18v4.37s-.09,2.76,2,2.9h20.57s1.32,0,1.6-1.74l.92-5.53Z" fill="#f08b00"/><path d="M369.19,192.82a13.74,13.74,0,1,1-13.74-13.74A13.74,13.74,0,0,1,369.19,192.82Z" fill="#1d1d1b"/><g style="mix-blend-mode:screen"><path d="M355.54,180.66a13.34,13.34,0,0,1,13.23,11.75,13.32,13.32,0,0,0-26.63.23,13.77,13.77,0,0,0,.09,1.57c0-.08,0-.16,0-.23A13.32,13.32,0,0,1,355.54,180.66Z" opacity="0.5" fill="url(#radial-gradient-3)" style="mix-blend-mode:screen"/></g><g style="mix-blend-mode:multiply"><path d="M355.54,204.91a13.33,13.33,0,0,0,13.23-11.75,13.32,13.32,0,0,1-26.63-.23,13.47,13.47,0,0,1,.09-1.56c0,.07,0,.15,0,.22A13.32,13.32,0,0,0,355.54,204.91Z" fill="#1d1d1b" opacity="0.5" style="mix-blend-mode:screen"/></g><path d="M355.45,182.48a10.37,10.37,0,1,0,10.37,10.36A10.36,10.36,0,0,0,355.45,182.48Z" fill="#2e2d2c" style="mix-blend-mode:multiply"/><path d="M364.11,192.79a8.78,8.78,0,1,1-8.77-8.78A8.79,8.79,0,0,1,364.11,192.79Z" fill="#fff" opacity="0.5" style="mix-blend-mode:screen"/><path d="M363,192.79a7.67,7.67,0,1,1-7.66-7.66A7.66,7.66,0,0,1,363,192.79Z" fill="#2c2d2b"/><path d="M362.44,192.79a7.1,7.1,0,1,1-7.1-7.09A7.1,7.1,0,0,1,362.44,192.79Z" fill="#686867"/><path d="M357.87,192.76a2.42,2.42,0,1,1-2.42-2.42A2.41,2.41,0,0,1,357.87,192.76Z" fill="#2d2e2d"/><path d="M356.82,192.76a1.36,1.36,0,1,1-1.37-1.36A1.36,1.36,0,0,1,356.82,192.76Z" fill="#2d2e2d" style="mix-blend-mode:multiply"/><g opacity="0.8" style="mix-blend-mode:multiply"><path d="M346.74,192.15c0,.12,0,.22,0,.32a8.61,8.61,0,1,0,17.21,0c0-.11,0-.21,0-.33A27.67,27.67,0,0,1,346.74,192.15Z" fill="#bbbaba"/></g><path d="M355.46,186.78a.38.38,0,0,1-.39-.39.39.39,0,1,1,.77,0A.38.38,0,0,1,355.46,186.78Z"/><path d="M355.46,199.33a.39.39,0,1,1,0-.77.39.39,0,0,1,0,.77Z"/><path d="M361.34,192.67a.39.39,0,1,1,.39.39A.4.4,0,0,1,361.34,192.67Z"/><path d="M348.79,192.67a.39.39,0,1,1,.4.39A.39.39,0,0,1,348.79,192.67Z"/><path d="M359.62,188.51a.39.39,0,1,1,.55,0A.39.39,0,0,1,359.62,188.51Z"/><path d="M350.75,197.38a.38.38,0,0,1,0-.55.38.38,0,0,1,.54,0,.39.39,0,0,1,0,.55A.38.38,0,0,1,350.75,197.38Z"/><path d="M359.62,196.83a.39.39,0,1,1,0,.55A.39.39,0,0,1,359.62,196.83Z"/><path d="M350.75,188a.38.38,0,0,1,.54,0,.39.39,0,0,1,0,.55.38.38,0,0,1-.54,0A.38.38,0,0,1,350.75,188Z"/><path d="M340.68,128.74h3.47v27.79h-19.9a3.34,3.34,0,0,1-.33-.17,2,2,0,0,1-.85-1.63c1.77-5.9,5.81-22.27,6.07-23.31a3.92,3.92,0,0,1,3.71-2.62c1.11,0,3.81-.06,7.83-.06Zm0-1.13c-3.42,0-6.59,0-7.88.07a5.07,5.07,0,0,0-4.75,3.44s-4.36,17.73-6.13,23.51a3.42,3.42,0,0,0,1.4,2.68,6.24,6.24,0,0,0,.68.35h21.27v-30Z" fill="#292929"/><path d="M348.53,128.76l6.48,0h.06a5.91,5.91,0,0,1,2.46.6A4,4,0,0,1,359.7,133v23.52H348.53V128.76Zm-1.12-1.14v30h13.41V133c-.28-5.16-5.22-5.31-5.75-5.31H355s-3.44,0-7.61-.06Z" fill="#292929"/><rect x="380.57" y="177.07" width="1.43" height="18.9"/><rect x="420.07" y="177.07" width="1.42" height="18.9"/><rect x="375.85" y="186.25" width="50.36" height="3.2" fill="#e3e3e3"/><rect x="375.85" y="187.85" width="50.36" height="1.6" fill="#8f8f8f"/><path d="M376.62,186.25h-.77v3.2h3.67C378.55,188.37,377.61,187.29,376.62,186.25Z" fill="#3d3d3d" style="mix-blend-mode:multiply"/><path d="M393.36,186.25H384.9q1.46,1.63,3,3.2h8.85C395.6,188.39,394.48,187.33,393.36,186.25Z" fill="#3d3d3d" style="mix-blend-mode:multiply"/><path d="M423.48,187.79l1.82,1.66h.91v-3.2h-4.46C422.32,186.77,422.9,187.28,423.48,187.79Z" fill="#3d3d3d" style="mix-blend-mode:multiply"/><path d="M412.13,186.25h-8.92q1.8,1.6,3.63,3.2h9C414.64,188.34,413.41,187.26,412.13,186.25Z" fill="#3d3d3d" style="mix-blend-mode:multiply"/><rect x="375.85" y="193.57" width="50.36" height="3.2" fill="#e3e3e3"/><rect x="375.85" y="195.17" width="50.36" height="1.6" fill="#8f8f8f"/><path d="M376.62,193.57h-.77v3.21h3.67C378.55,195.7,377.61,194.62,376.62,193.57Z" fill="#3d3d3d" style="mix-blend-mode:multiply"/><path d="M393.36,193.57H384.9c1,1.1,2,2.16,3,3.21h8.85C395.6,195.72,394.48,194.65,393.36,193.57Z" fill="#3d3d3d" style="mix-blend-mode:multiply"/><path d="M423.48,195.12l1.82,1.66h.91v-3.21h-4.46Z" fill="#3d3d3d" style="mix-blend-mode:multiply"/><path d="M412.13,193.57h-8.92c1.2,1.07,2.41,2.15,3.63,3.21h9C414.64,195.67,413.41,194.59,412.13,193.57Z" fill="#3d3d3d" style="mix-blend-mode:multiply"/><path d="M495.51,192.82a13.74,13.74,0,1,1-13.73-13.74A13.74,13.74,0,0,1,495.51,192.82Z" fill="#1d1d1b"/><g style="mix-blend-mode:screen"><path d="M481.86,180.66a13.31,13.31,0,0,1,13.22,11.75,13.31,13.31,0,0,0-26.62.23,13.77,13.77,0,0,0,.09,1.57c0-.08,0-.16,0-.23A13.32,13.32,0,0,1,481.86,180.66Z" opacity="0.5" fill="url(#radial-gradient-4)" style="mix-blend-mode:screen"/></g><g style="mix-blend-mode:multiply"><path d="M481.86,204.91a13.3,13.3,0,0,0,13.22-11.75,13.31,13.31,0,0,1-26.62-.23,13.47,13.47,0,0,1,.09-1.56c0,.07,0,.15,0,.22A13.32,13.32,0,0,0,481.86,204.91Z" fill="#1d1d1b" opacity="0.5" style="mix-blend-mode:screen"/></g><path d="M481.78,182.48a10.37,10.37,0,1,0,10.36,10.36A10.36,10.36,0,0,0,481.78,182.48Z" fill="#2e2d2c" style="mix-blend-mode:multiply"/><path d="M490.44,192.79a8.79,8.79,0,1,1-8.78-8.78A8.79,8.79,0,0,1,490.44,192.79Z" fill="#fff" opacity="0.5" style="mix-blend-mode:screen"/><path d="M489.33,192.79a7.67,7.67,0,1,1-7.67-7.66A7.67,7.67,0,0,1,489.33,192.79Z" fill="#2c2d2b"/><path d="M488.75,192.79a7.1,7.1,0,1,1-7.09-7.09A7.1,7.1,0,0,1,488.75,192.79Z" fill="#686867"/><path d="M484.19,192.76a2.41,2.41,0,1,1-2.41-2.42A2.41,2.41,0,0,1,484.19,192.76Z" fill="#2d2e2d"/><path d="M483.13,192.76a1.36,1.36,0,1,1-1.35-1.36A1.35,1.35,0,0,1,483.13,192.76Z" fill="#2d2e2d" style="mix-blend-mode:multiply"/><g opacity="0.8" style="mix-blend-mode:multiply"><path d="M473.06,192.15c0,.12,0,.22,0,.32a8.61,8.61,0,1,0,17.21,0c0-.11,0-.21,0-.33A27.67,27.67,0,0,1,473.06,192.15Z" fill="#bbbaba"/></g><path d="M481.78,186.78a.38.38,0,0,1-.39-.39.39.39,0,0,1,.78,0A.38.38,0,0,1,481.78,186.78Z"/><path d="M481.78,199.33a.39.39,0,1,1,.39-.39A.38.38,0,0,1,481.78,199.33Z"/><path d="M487.67,192.67a.39.39,0,1,1,.38.39A.39.39,0,0,1,487.67,192.67Z"/><path d="M475.12,192.67a.38.38,0,0,1,.38-.39.39.39,0,0,1,0,.78A.38.38,0,0,1,475.12,192.67Z"/><path d="M485.94,188.51a.39.39,0,0,1,.55-.55.38.38,0,0,1,0,.55A.39.39,0,0,1,485.94,188.51Z"/><path d="M477.07,197.38a.39.39,0,0,1,0-.55.38.38,0,0,1,.54,0,.38.38,0,0,1,0,.55A.38.38,0,0,1,477.07,197.38Z"/><path d="M485.94,196.83a.39.39,0,1,1,0,.55A.39.39,0,0,1,485.94,196.83Z"/><path d="M477.07,188a.38.38,0,0,1,.54,0,.38.38,0,0,1,0,.55.38.38,0,0,1-.54,0A.39.39,0,0,1,477.07,188Z"/><path d="M455.76,192.82A13.74,13.74,0,1,1,442,179.08,13.74,13.74,0,0,1,455.76,192.82Z" fill="#1d1d1b"/><g style="mix-blend-mode:screen"><path d="M442.11,180.66a13.34,13.34,0,0,1,13.23,11.75,13.32,13.32,0,0,0-26.63.23,13.77,13.77,0,0,0,.09,1.57c0-.08,0-.16,0-.23A13.32,13.32,0,0,1,442.11,180.66Z" opacity="0.5" fill="url(#radial-gradient-5)" style="mix-blend-mode:screen"/></g><g style="mix-blend-mode:multiply"><path d="M442.11,204.91a13.33,13.33,0,0,0,13.23-11.75,13.32,13.32,0,0,1-26.63-.23,13.47,13.47,0,0,1,.09-1.56c0,.07,0,.15,0,.22A13.32,13.32,0,0,0,442.11,204.91Z" fill="#1d1d1b" opacity="0.5" style="mix-blend-mode:screen"/></g><path d="M442,182.48a10.37,10.37,0,1,0,10.36,10.36A10.36,10.36,0,0,0,442,182.48Z" fill="#2e2d2c" style="mix-blend-mode:multiply"/><path d="M450.69,192.79a8.79,8.79,0,1,1-8.78-8.78A8.79,8.79,0,0,1,450.69,192.79Z" fill="#fff" opacity="0.5" style="mix-blend-mode:screen"/><path d="M449.57,192.79a7.67,7.67,0,1,1-7.66-7.66A7.66,7.66,0,0,1,449.57,192.79Z" fill="#2c2d2b"/><path d="M449,192.79a7.1,7.1,0,1,1-7.09-7.09A7.1,7.1,0,0,1,449,192.79Z" fill="#686867"/><path d="M444.44,192.76a2.42,2.42,0,1,1-2.41-2.42A2.41,2.41,0,0,1,444.44,192.76Z" fill="#2d2e2d"/><path d="M443.38,192.76a1.35,1.35,0,0,1-1.35,1.36,1.36,1.36,0,1,1,0-2.72A1.35,1.35,0,0,1,443.38,192.76Z" fill="#2d2e2d" style="mix-blend-mode:multiply"/><g opacity="0.8" style="mix-blend-mode:multiply"><path d="M433.3,192.15v.32a8.61,8.61,0,1,0,17.21,0c0-.11,0-.21,0-.33A27.71,27.71,0,0,1,433.3,192.15Z" fill="#bbbaba"/></g><path d="M442,186.78a.4.4,0,0,1-.4-.39.41.41,0,0,1,.4-.39.39.39,0,0,1,.38.39A.38.38,0,0,1,442,186.78Z"/><path d="M442,199.33a.39.39,0,1,1,0-.77.39.39,0,0,1,0,.77Z"/><path d="M447.91,192.67a.4.4,0,0,1,.39-.39.39.39,0,1,1,0,.78A.4.4,0,0,1,447.91,192.67Z"/><path d="M435.36,192.67a.39.39,0,0,1,.39-.39.39.39,0,1,1,0,.78A.39.39,0,0,1,435.36,192.67Z"/><path d="M446.18,188.51a.41.41,0,0,1,0-.55.39.39,0,0,1,.55,0,.38.38,0,0,1,0,.55A.39.39,0,0,1,446.18,188.51Z"/><path d="M437.31,197.38a.39.39,0,1,1,.55,0A.39.39,0,0,1,437.31,197.38Z"/><path d="M446.18,196.83a.39.39,0,0,1,.55,0,.38.38,0,0,1,0,.55.39.39,0,0,1-.55,0A.41.41,0,0,1,446.18,196.83Z"/><path d="M437.31,188a.39.39,0,1,1,0,.55A.39.39,0,0,1,437.31,188Z"/><polygon points="427.33 183.76 433.3 176.92 494.14 176.92 501.33 189.45 498.24 189.45 492.14 178.86 434.8 178.86 429.31 185.13 427.33 183.76" fill="#818080"/><polygon points="427.33 183.76 433.3 176.92 494.14 176.92 501.33 189.45 499.84 189.45 493.26 178.07 434.24 177.89 428.24 184.05 427.33 183.76" fill="#818080" style="mix-blend-mode:multiply"/><path d="M321,177.89v-7a5.33,5.33,0,0,0-4.75-5.3v17.6A5.33,5.33,0,0,0,321,177.89Z"/><path d="M320.37,177.4v-6a4.57,4.57,0,0,0-4.08-4.55V182A4.59,4.59,0,0,0,320.37,177.4Z" fill="#ee7125"/><path d="M316.29,177.6V182a4.58,4.58,0,0,0,4.07-4.36Z" fill="#e63324"/><path d="M316.76,168.06v13.17A39.59,39.59,0,0,0,316.76,168.06Z" fill="#fff"/><path d="M315,196v-7.33s-.07-1.88,2.31-1.86H332.8l-15.52.7s-1.32.13-1.57,1.16Z" fill="#65b339" style="mix-blend-mode:screen"/><polygon points="364.27 168.34 346.68 168.34 346.68 125.66 345.93 125.66 345.93 174.39 346.68 174.39 346.68 169.09 364.27 169.09 364.27 168.34" fill="#dd8202"/><polygon points="336.95 185.7 340.58 174.95 366.78 174.73 340.85 175.62 336.95 185.7" fill="#65b339" style="mix-blend-mode:screen"/></g></g></svg>