<?xml version="1.0" encoding="utf-8"?>
<!-- Generator: Adobe Illustrator 25.2.0, SVG Export Plug-In . SVG Version: 6.00 Build 0)  -->
<svg version="1.1" baseProfile="tiny" id="Layer_1" xmlns="http://www.w3.org/2000/svg" xmlns:xlink="http://www.w3.org/1999/xlink"
	 x="0px" y="0px" viewBox="0 0 50 50" overflow="visible" xml:space="preserve">

<g>
	<path stroke="#000000" stroke-width="0.2" stroke-miterlimit="10" d="M12.3,17.9c0.1-0.1,0-0.2,0.1-0.2c0.3-1,1-1.6,1.9-1.9
		c0.3-0.1,0.7-0.2,1-0.2c0.6,0,1.3,0,1.9,0c0.1,0,0.1,0,0.1,0.1c0,0.4,0,0.8,0,1.3c0,0.1,0,0.1-0.1,0.1c-0.7,0-1.3,0-2,0
		c-0.2,0-0.5,0-0.7,0.2c-0.4,0.2-0.6,0.5-0.6,1c0,1.2,0,2.4,0,3.6c0,1.7,0,3.4,0,5.2c0,2.2,0,4.4,0,6.6c0,0.8,0.6,1.2,1.1,1.2
		c0,0,0.1,0,0.1,0c6.3,0,12.6,0,18.9,0c0.2,0,0.4,0,0.6-0.1c0.4-0.2,0.6-0.5,0.6-1c0-1.2,0-2.5,0-3.7c0-0.4,0.3-0.7,0.7-0.8
		c0.4-0.1,0.8,0.1,1,0.5c0,0.1,0.1,0.2,0.1,0.4c0,1.2,0,2.4,0,3.6c0,1.1-0.7,2-1.8,2.5c-0.4,0.2-0.8,0.2-1.3,0.2
		c-5.7,0-11.5,0-17.2,0c-0.6,0-1.2,0-1.8,0c-1.2-0.1-2.1-0.6-2.6-1.7c-0.1-0.2-0.1-0.4-0.2-0.6C12.3,28.6,12.3,23.2,12.3,17.9z"/>
	<path stroke="#000000" stroke-width="0.2" stroke-miterlimit="10" d="M32.1,30.2c-0.3,0-0.6-0.1-0.8-0.3c-0.8-0.8-1.6-1.6-2.3-2.3
		c-0.4-0.5-0.3-1.2,0.3-1.3c0.3-0.1,0.6,0,0.8,0.2c0.6,0.6,1.1,1.1,1.7,1.7c0.1,0.1,0.2,0.2,0.3,0.3c0,0,0.1,0,0.1,0
		c0,0,0.1-0.1,0.1-0.1c1.7-1.7,3.4-3.4,5-5c0.3-0.3,0.8-0.4,1.2,0c0.3,0.3,0.3,0.8,0,1.1c0,0-0.1,0.1-0.1,0.1
		c-1.8,1.8-3.6,3.6-5.5,5.5C32.7,30.1,32.4,30.2,32.1,30.2z"/>
	<path stroke="#000000" stroke-width="0.2" stroke-miterlimit="10" d="M30.9,16.4c0,0.8,0,1.6,0,2.5c0,0.6-0.4,1.1-1,1.2
		c-0.7,0.1-1.3-0.4-1.3-1.1c0-0.9,0-1.7,0-2.6c0-0.8,0-1.7,0-2.5c0-0.6,0.4-1,0.9-1.1c0.5-0.1,1.1,0.2,1.3,0.8
		c0,0.1,0.1,0.3,0.1,0.4C30.9,14.8,30.9,15.6,30.9,16.4z"/>
	<path stroke="#000000" stroke-width="0.2" stroke-miterlimit="10" d="M18.5,16.4c0-0.8,0-1.7,0-2.5c0-0.6,0.3-1,0.9-1.1
		c0.7-0.1,1.4,0.4,1.4,1.1c0,1.7,0,3.4,0,5.1c0,0.6-0.5,1.1-1.1,1.1c-0.6,0-1.1-0.4-1.1-1c0-0.6,0-1.3,0-1.9
		C18.5,16.9,18.5,16.6,18.5,16.4z"/>
	<path stroke="#000000" stroke-width="0.2" stroke-miterlimit="10" d="M37.1,19.6c0,0.5,0,1.1,0,1.6c0,0.4-0.4,0.8-0.9,0.8
		c-0.5,0-0.8-0.4-0.8-0.9c0-0.9,0-1.9,0-2.8c0-0.7-0.5-1.2-1.2-1.2c-0.7,0-1.4,0-2.1,0c-0.1,0-0.2,0-0.2-0.2c0-0.4,0-0.8,0-1.3
		c0-0.1,0-0.1,0.1-0.1c0.7,0,1.4,0,2.1,0c1.1,0.1,2,0.5,2.5,1.5c0.2,0.4,0.3,0.7,0.3,1.1C37.1,18.7,37.1,19.2,37.1,19.6
		C37.1,19.6,37.1,19.6,37.1,19.6z"/>
	<path stroke="#000000" stroke-width="0.2" stroke-miterlimit="10" d="M24.7,17.2c-0.9,0-1.8,0-2.7,0c-0.1,0-0.1,0-0.1-0.1
		c0-0.5,0-1,0-1.4c0-0.1,0-0.1,0.1-0.1c1.8,0,3.6,0,5.4,0c0.1,0,0.1,0,0.1,0.1c0,0.5,0,1,0,1.5c0,0.1,0,0.1-0.1,0.1
		C26.5,17.2,25.6,17.2,24.7,17.2z"/>
	<path stroke="#000000" stroke-width="0.2" stroke-miterlimit="10" d="M18.7,25.8c-0.9,0-1.6-0.7-1.6-1.6c0-0.9,0.7-1.6,1.6-1.6
		c0.9,0,1.6,0.7,1.6,1.6C20.3,25.1,19.5,25.8,18.7,25.8z"/>
	<path stroke="#000000" stroke-width="0.2" stroke-miterlimit="10" d="M20.3,29.7c0,0.9-0.7,1.6-1.6,1.6c-0.9,0-1.6-0.7-1.6-1.6
		c0-0.9,0.7-1.6,1.6-1.6C19.5,28.1,20.3,28.8,20.3,29.7z"/>
	<path stroke="#000000" stroke-width="0.2" stroke-miterlimit="10" d="M22.8,24.2c0-0.9,0.7-1.6,1.6-1.6c0.9,0,1.6,0.7,1.6,1.6
		c0,0.9-0.7,1.6-1.6,1.6C23.6,25.8,22.8,25.1,22.8,24.2z"/>
	<path stroke="#000000" stroke-width="0.2" stroke-miterlimit="10" d="M22.8,29.7c0-0.9,0.7-1.6,1.6-1.6c0.9,0,1.6,0.7,1.6,1.6
		c0,0.9-0.7,1.6-1.6,1.6C23.6,31.3,22.8,30.5,22.8,29.7z"/>
</g>
</svg>
