<?xml version="1.0" encoding="utf-8"?>
<!-- Generator: Adobe Illustrator 25.2.0, SVG Export Plug-In . SVG Version: 6.00 Build 0)  -->
<svg version="1.1" baseProfile="tiny" id="Layer_1" xmlns="http://www.w3.org/2000/svg" xmlns:xlink="http://www.w3.org/1999/xlink"
	 x="0px" y="0px" viewBox="0 0 50 50" overflow="visible" xml:space="preserve">
<g>
	<g>
		<circle fill="#FFC101" cx="25" cy="25" r="24.5"/>
	</g>
</g>
<g>
	<path d="M27.8,27.1c0,0-0.1,0-0.1,0h-0.9c-0.1-0.3-0.2-0.6-0.3-0.8h1.2c0,0,0.1,0,0.1,0c0,0,0-0.1,0-0.1v-0.5c0,0,0-0.1,0-0.1
		c0,0-0.1,0-0.1,0h-4.4c0,0-0.1,0-0.1,0c0,0,0,0.1,0,0.1v0.7c0,0,0,0.1,0.1,0.1c0,0,0.1,0.1,0.1,0.1H24c0.7,0,1.2,0.2,1.4,0.6h-2.2
		c0,0-0.1,0-0.1,0c0,0,0,0.1,0,0.1v0.5c0,0,0,0.1,0,0.1c0,0,0.1,0,0.1,0h2.3c-0.1,0.3-0.3,0.5-0.5,0.7c-0.3,0.2-0.7,0.2-1.1,0.2
		h-0.6c0,0-0.1,0-0.1,0.1c0,0-0.1,0.1-0.1,0.1v0.7c0,0,0,0.1,0,0.1c0.7,0.7,1.6,1.7,2.7,3c0,0,0.1,0.1,0.1,0.1h1
		c0.1,0,0.1,0,0.2-0.1c0-0.1,0-0.1,0-0.2c-1-1.3-1.9-2.2-2.4-2.9c0.6-0.1,1.1-0.3,1.5-0.6c0.4-0.3,0.6-0.7,0.7-1.2h0.9
		c0,0,0.1,0,0.1,0c0,0,0-0.1,0-0.1v-0.5C27.8,27.2,27.8,27.1,27.8,27.1z"/>
</g>
<g>
	<g>
		<g>
			<g>
				<path d="M26.6,13.9L26.6,13.9C26.7,13.9,26.7,13.8,26.6,13.9z"/>
				<path d="M15.3,13.9L15.3,13.9C15.4,13.8,15.3,13.9,15.3,13.9z"/>
			</g>
		</g>
	</g>
	<g>
		<g>
			<path stroke="#020202" stroke-width="0.4" stroke-miterlimit="10" d="M37.1,19.2c-0.2-0.3-0.5-0.5-0.8-0.6l-1.7-0.4l0.8-0.2
				c0.7-0.2,1.1-0.9,0.9-1.6c-0.2-0.7-0.9-1.1-1.6-0.9l-3.7,1c-0.1-0.2-0.2-0.3-0.4-0.4c0.8-1.4,1.9-3.8,1.9-4.9
				c0-0.3-0.2-0.4-0.5-0.4c-1.5,0.3-2.9,0.4-4.2,0.4c-1.4,0-3.1-0.2-4.2-0.4c-0.3-0.1-0.6,0.3-0.4,0.6c0.3,0.4,0.4,0.9,0.5,1.4
				c-1.4,0-2.8-0.1-3.9-0.7c-0.3-0.1-0.6,0.1-0.6,0.4c0.3,2,1,3.2,1.7,4.1h0c-0.7,0-1.3,0.6-1.3,1.3c0,0.6,0.5,1.2,1.1,1.3
				c-0.5,0.8-1.1,1.5-1.8,2.2c-1.4,1.6-3.1,3.4-3.6,6.4c-0.3,1.4-0.3,2.7,0,3.9c0.3,1.1,0.8,2.1,1.5,3c1,1.2,2.3,2.1,3.9,2.7
				c1.5,0.6,3.2,0.8,4.9,0.8c1.7,0,3.4-0.3,4.9-0.8c1.6-0.6,3-1.5,3.9-2.7c0.7-0.9,1.2-1.9,1.5-3c0.3-1.2,0.3-2.5,0-3.9
				c-0.6-2.9-2.2-4.8-3.6-6.4c-0.5-0.5-1-1.1-1.4-1.6l4.9,1.1c0.5,0.1,1.1-0.1,1.4-0.6C37.3,20.2,37.3,19.7,37.1,19.2z M27.6,12.2
				c1.2,0,2.5-0.1,3.8-0.3c-0.2,1-1,2.8-1.8,4.1c-0.5,0-0.9,0.4-1.1,0.9h-1.1c0-0.1-0.1-0.1-0.1-0.2c-0.3-0.7-1.1-2.3-1.1-3.6
				c0-0.3-0.2-0.4-0.5-0.4c-0.5,0.1-1,0.2-1.5,0.2c-0.1-0.3-0.1-0.7-0.3-1C25.1,12.1,26.5,12.2,27.6,12.2z M30.2,17.3V19
				c0,0.3-0.2,0.5-0.5,0.5s-0.5-0.2-0.5-0.5v-1.7c0-0.3,0.2-0.5,0.5-0.5S30.2,17,30.2,17.3z M19.9,13.3c1,0.3,2.3,0.5,3.6,0.5
				l0.8-0.1c0.4,0,0.8-0.1,1.2-0.2c0.1,1.3,0.7,2.5,1,3.3h-2.7H23h-1.3c0,0,0,0,0,0C21,16,20.4,15.1,19.9,13.3z M31.6,22.2
				c1.4,1.5,2.9,3.3,3.4,6c0.5,2.5,0,4.6-1.3,6.2c-1.7,2-4.7,3.2-8.2,3.2s-6.5-1.2-8.2-3.2c-1.4-1.6-1.8-3.7-1.3-6.2
				c0.5-2.7,2.1-4.5,3.4-6c0.8-0.9,1.6-1.8,2.1-2.8h1c0.2,0,0.4-0.2,0.4-0.4c0-0.2-0.2-0.4-0.4-0.4h-1.7c-0.3,0-0.5-0.2-0.5-0.5
				s0.2-0.5,0.5-0.5h7.8v0.9h-4.1c-0.2,0-0.4,0.2-0.4,0.4s0.2,0.4,0.4,0.4h4.2c0.2,0.5,0.6,0.9,1.2,0.9c0.1,0,0.1,0,0.2,0
				C30.4,20.9,31,21.5,31.6,22.2z M31,17.5l3.8-1.1c0.2-0.1,0.5,0.1,0.6,0.3c0.1,0.2-0.1,0.5-0.3,0.6l-2.2,0.6c0,0,0,0-0.1,0
				L31,17.5L31,17.5L31,17.5z M36.4,20c-0.1,0.2-0.3,0.4-0.6,0.3L31,19.3c0-0.1,0-0.2,0-0.3v-0.7l5,1.2C36.3,19.5,36.5,19.8,36.4,20
				z"/>
		</g>
	</g>
	<path stroke="#FFC101" stroke-width="0.4" stroke-miterlimit="10" d="M21.7,24h-5.4c-0.3,0-0.6-0.3-0.6-0.6v0
		c0-0.3,0.3-0.6,0.6-0.6h5.4c0.3,0,0.6,0.3,0.6,0.6v0C22.3,23.7,22,24,21.7,24z"/>
	<path stroke="#FFC101" stroke-width="0.2" stroke-miterlimit="10" d="M14,23.9h-0.7c-0.3,0-0.5-0.2-0.5-0.5v0
		c0-0.3,0.2-0.5,0.5-0.5H14c0.3,0,0.5,0.2,0.5,0.5v0C14.5,23.7,14.3,23.9,14,23.9z"/>
	<path stroke="#FFC101" stroke-width="0.4" stroke-miterlimit="10" d="M19.3,26.9h-4.1c-0.3,0-0.6-0.3-0.6-0.6l0,0
		c0-0.3,0.3-0.6,0.6-0.6h4.1c0.3,0,0.6,0.3,0.6,0.6l0,0C19.9,26.6,19.6,26.9,19.3,26.9z"/>
	<path stroke="#FFC101" stroke-width="0.2" stroke-miterlimit="10" d="M13.1,26.8h-1.5c-0.3,0-0.5-0.2-0.5-0.5l0,0
		c0-0.3,0.2-0.5,0.5-0.5h1.5c0.3,0,0.5,0.2,0.5,0.5l0,0C13.6,26.6,13.4,26.8,13.1,26.8z"/>
	<path stroke="#FFC101" stroke-width="0.4" stroke-miterlimit="10" d="M17.1,30.8h-6.4c-0.3,0-0.6-0.3-0.6-0.6l0,0
		c0-0.3,0.3-0.6,0.6-0.6h6.4c0.3,0,0.6,0.3,0.6,0.6l0,0C17.7,30.5,17.5,30.8,17.1,30.8z"/>
	<path stroke="#FFC101" stroke-width="0.2" stroke-miterlimit="10" d="M8.8,30.7H7.9c-0.3,0-0.5-0.2-0.5-0.5l0,0
		c0-0.3,0.2-0.5,0.5-0.5h0.9c0.3,0,0.5,0.2,0.5,0.5l0,0C9.3,30.5,9.1,30.7,8.8,30.7z"/>
	<path stroke="#FFC101" stroke-width="0.4" stroke-miterlimit="10" d="M16.6,35h-2.2c-0.3,0-0.6-0.3-0.6-0.6l0,0
		c0-0.3,0.3-0.6,0.6-0.6h2.2c0.3,0,0.6,0.3,0.6,0.6l0,0C17.3,34.8,17,35,16.6,35z"/>
	<path stroke="#FFC101" stroke-width="0.2" stroke-miterlimit="10" d="M12.6,34.9h-1.3c-0.3,0-0.5-0.2-0.5-0.5l0,0
		c0-0.3,0.2-0.5,0.5-0.5h1.3c0.3,0,0.5,0.2,0.5,0.5l0,0C13.1,34.7,12.9,34.9,12.6,34.9z"/>
</g>
</svg>
