<?xml version="1.0" encoding="utf-8"?>
<!-- Generator: Adobe Illustrator 25.2.0, SVG Export Plug-In . SVG Version: 6.00 Build 0)  -->
<svg version="1.1" baseProfile="tiny" id="Layer_1" xmlns="http://www.w3.org/2000/svg" xmlns:xlink="http://www.w3.org/1999/xlink"
	 x="0px" y="0px" viewBox="0 0 50 50" overflow="visible" xml:space="preserve">

<g>
	<g>
		<path stroke="#020202" stroke-width="0.4" stroke-miterlimit="10" d="M38.3,31c-0.5-0.8-1.4-1-2.4-0.5l-0.5,0.2
			c0.8-1.7,0.9-3.6,0.5-5.4c-0.5-2.1-1.6-4.1-3.3-6c-0.2-0.2-0.4-0.2-0.6,0c-0.2,0.2-0.2,0.4,0,0.6c1.6,1.8,2.7,3.7,3.1,5.6
			c0.5,2,0.2,4.1-1,5.8L29,33.6l0-0.6c0,0,0,0,0,0c-0.1-1.2-1-2.1-2.2-2.3c0,0,0,0,0,0l-4.5-0.5c-1.7-0.2-2.2-1.3-4.6-1.9
			c-0.2-1.4,0.1-2.9,0.7-4.3c0.9-2.2,2.7-4.4,5.1-6.3c0.9,0.6,5,0.7,5.9-0.1c0.5,0.4,0.9,0.7,1.3,1.1c0.1,0.1,0.2,0.1,0.3,0.1
			c0.1,0,0.2,0,0.3-0.1c0.2-0.2,0.1-0.4,0-0.6c-0.5-0.4-0.9-0.8-1.5-1.2c0.1-0.5,0-1.1-0.5-1.5c1.3-1.9,1.7-3.2,1.1-3.9
			c-0.4-0.5-0.8-0.2-1-0.2c-0.3,0.2-0.5,0.2-0.8,0c-0.6-0.4-1.1-0.4-1.7,0c-0.3,0.2-0.5,0.2-0.8,0c-0.6-0.4-1.1-0.4-1.7,0
			c-0.3,0.2-0.5,0.2-0.8,0c-0.2-0.1-0.6-0.3-1,0.1c-0.5,0.6-0.2,1.9,1,3.8c-0.1,0-0.1,0.1-0.2,0.1c-0.5-0.5-1.3-1-2.4-0.9
			c-0.9,0.1-1.6-0.2-2-0.5c-0.2-0.1-0.4-0.1-0.6,0.1c-0.1,0.2-0.1,0.4,0.1,0.6c0.5,0.4,1.4,0.7,2.6,0.6c0.9-0.1,1.5,0.3,1.8,0.8
			c0,0,0,0,0,0.1c-0.3,0-0.8,0-1.3,0.1c-1.2,0.3-2.2,0.9-2.7,1.7c-0.1,0.2,0,0.4,0.1,0.6c0.2,0.1,0.4,0,0.6-0.1
			c0.7-1.3,2.6-1.4,3.3-1.4c0,0,0,0,0,0c-2.6,2-4.4,4.2-5.4,6.6c-0.6,1.5-0.9,3-0.7,4.5C16.5,28,16.1,28,15.7,28v-0.2
			c0-0.7-0.5-1.2-1.2-1.2h-1.9c-0.7,0-1.2,0.5-1.2,1.2v9.6c0,0.7,0.5,1.2,1.2,1.2h1.9c0.7,0,1.2-0.5,1.2-1.2v-0.1l4.1,1.5
			c0.6,0.2,1.1,0.3,1.7,0.3h6.1c0.9,0,1.8-0.3,2.6-0.8c8.2-5.2,7.7-4.9,7.7-4.9C38.7,32.8,38.8,31.8,38.3,31L38.3,31z M28.6,17
			c-1.5,0.4-3,0.4-4.5,0c-0.6-0.2-0.5-1.3,0.2-1.1c1.3,0.3,2.6,0.3,4,0C29,15.7,29.2,16.9,28.6,17z M23.2,12
			C23.2,12,23.2,12,23.2,12c0.6,0.3,1.1,0.3,1.6-0.1c0.7-0.5,0.8,0.3,1.7,0.3c0.4,0,0.7-0.2,0.9-0.3c0.3-0.2,0.5-0.2,0.8,0
			c0.6,0.4,1,0.3,1.6,0.1c0.1,0.3-0.1,1.2-1.3,3c-0.6,0-1.5,0.6-4,0C23.3,13.2,23.1,12.3,23.2,12L23.2,12z M37.5,32.7l-7.6,4.8
			c-0.7,0.4-1.4,0.6-2.2,0.6h-6.1c-0.5,0-1-0.1-1.4-0.3l-4.4-1.6v-4.4c0-0.2-0.2-0.4-0.4-0.4c-0.2,0-0.4,0.2-0.4,0.4v5.4
			c0,0.2-0.2,0.4-0.4,0.4h-1.9c-0.2,0-0.4-0.2-0.4-0.4v-9.6c0-0.2,0.2-0.4,0.4-0.4h1.9c0.2,0,0.4,0.2,0.4,0.4V30
			c0,0.2,0.2,0.4,0.4,0.4c0.2,0,0.4-0.2,0.4-0.4v-1.2c3.4,0,4.2,1.8,6.5,2.1c0,0,0,0,0,0l4.5,0.5c0.8,0.1,1.4,0.7,1.5,1.5l0,0.8H24
			c-0.2,0-0.4,0.2-0.4,0.4s0.2,0.4,0.4,0.4h4.6c0.1,0,0.1,0,0.2,0c0,0,7.5-3.3,7.5-3.3c0.5-0.2,1-0.3,1.4,0.2
			C37.9,31.9,37.8,32.4,37.5,32.7z"/>
	</g>
</g>
<g>
	<path d="M28.9,23c0,0-0.1,0-0.1,0h-0.9c-0.1-0.3-0.2-0.6-0.3-0.8h1.2c0,0,0.1,0,0.1,0c0,0,0-0.1,0-0.1v-0.5c0,0,0-0.1,0-0.1
		c0,0-0.1,0-0.1,0h-4.4c0,0-0.1,0-0.1,0c0,0,0,0.1,0,0.1v0.7c0,0,0,0.1,0.1,0.1s0.1,0.1,0.1,0.1h0.8c0.7,0,1.2,0.2,1.4,0.6h-2.2
		c0,0-0.1,0-0.1,0c0,0,0,0.1,0,0.1v0.5c0,0,0,0.1,0,0.1c0,0,0.1,0,0.1,0h2.3c-0.1,0.3-0.3,0.5-0.5,0.7c-0.3,0.2-0.7,0.2-1.1,0.2
		h-0.6c0,0-0.1,0-0.1,0.1c0,0-0.1,0.1-0.1,0.1v0.7c0,0,0,0.1,0,0.1c0.7,0.7,1.6,1.7,2.7,3c0,0,0.1,0.1,0.1,0.1h1
		c0.1,0,0.1,0,0.2-0.1c0-0.1,0-0.1,0-0.2c-1-1.3-1.9-2.2-2.4-2.9c0.6-0.1,1.1-0.3,1.5-0.6c0.4-0.3,0.6-0.7,0.7-1.2h0.9
		c0,0,0.1,0,0.1,0c0,0,0-0.1,0-0.1v-0.5C29,23,28.9,23,28.9,23z"/>
</g>
</svg>
