<?xml version="1.0" encoding="utf-8"?>
<!-- Generator: Adobe Illustrator 25.2.0, SVG Export Plug-In . SVG Version: 6.00 Build 0)  -->
<svg version="1.1" baseProfile="tiny" id="Layer_1" xmlns="http://www.w3.org/2000/svg" xmlns:xlink="http://www.w3.org/1999/xlink"
	 x="0px" y="0px" viewBox="0 0 50 50" overflow="visible" xml:space="preserve">
<g>
	<g>
		<circle fill="#FFC101" cx="25" cy="25" r="24.5"/>
	</g>
</g>
<g>
	<path stroke="#020202" stroke-width="0.6" stroke-miterlimit="10" d="M20.6,9.4c-0.2,0-0.3,0.1-0.4,0.3c-0.1,0.2-0.1,0.4,0.1,0.5
		c0.3,0.3,0.6,0.7,1,1c0.2,0.2,0.4,0.3,0.7,0c0.3-0.2,0.2-0.5,0-0.7c-0.3-0.3-0.6-0.6-0.9-0.9C20.9,9.5,20.8,9.4,20.6,9.4z
		 M28.5,11.4c0.3,0,1.4-1.2,1.4-1.5c0-0.4-0.3-0.6-0.6-0.5c-0.5,0.3-0.9,0.7-1.2,1.3C27.8,11,28.1,11.4,28.5,11.4z M25.5,8.7
		C25.5,8.7,25.5,8.7,25.5,8.7c0-0.2,0-0.4,0-0.6c0-0.3-0.2-0.5-0.5-0.5c-0.3,0-0.5,0.2-0.5,0.6c0,0.4,0,0.9,0,1.3
		c0,0.3,0.2,0.5,0.5,0.5c0.3,0,0.5-0.2,0.5-0.5C25.5,9.1,25.5,8.9,25.5,8.7z"/>
	<path stroke="#020202" stroke-width="0.3" stroke-miterlimit="10" d="M25.5,37.5c0,0.4,0,0.7,0,1.1c0,0.3,0,0.5-0.5,0.5
		c-0.4,0-0.6-0.2-0.5-0.6c0,0,0-0.1,0-0.1c0.3-1.8-0.3-3.1-1.7-4.2c-0.9-0.7-1.6-1.6-2.4-2.4c-0.2-0.2-0.3-0.3-0.6-0.2
		c-1.8,0.5-3.5,1.3-4.9,2.7c-1.1,1.2-1.7,2.6-1.8,4.2c0,0.5-0.2,0.5-0.6,0.5c-0.5,0-0.4-0.3-0.4-0.6c0.3-3.5,2.3-5.7,5.3-7.1
		c0.7-0.3,1.4-0.6,2.1-0.7c0.3-0.1,0.4-0.2,0.5-0.5c0.2-0.5,0.3-1,0.4-1.5c0.1-0.6,0-1.1-0.4-1.6c-0.9-1.1-1.3-2.4-1.4-3.8
		c0-0.5-0.2-0.6-0.6-0.7c-0.3,0-0.5-0.1-0.8-0.2c-0.5-0.2-0.8-0.6-0.9-1.1c0-0.6,0.3-1,0.8-1.2c0.6-0.2,0.7-0.5,0.8-1.1
		c0.1-2.6,1.4-4.4,3.6-5.7c0.3-0.2,0.5-0.3,0.7-0.7c1.2-2.1,4.2-2,5.4,0c0.2,0.3,0.4,0.4,0.6,0.6c2.5,1.3,3.7,3.3,3.8,6.1
		c0,0.4,0.1,0.5,0.5,0.6c0.6,0.2,1.1,0.6,1.1,1.3c0,0.6-0.4,1.1-1.2,1.3c-0.8,0.1-1.1,0.4-1.1,1.3c-0.1,1.2-0.5,2.3-1.3,3.3
		c-0.4,0.5-0.5,1-0.4,1.6c0,0.2,0,0.3,0.1,0.5c0.2,0.9,0.5,1.4,1.5,1.7c2.5,0.7,4.6,2.1,5.9,4.5c0.5,1,0.8,2.1,0.8,3.2
		c0,0.3,0,0.5-0.4,0.4c-0.3,0-0.6,0.1-0.6-0.4c-0.2-4.2-3.6-6.3-6.7-7.1c-0.3-0.1-0.4,0-0.6,0.2c-1.3,1.3-2.6,2.6-3.9,3.9
		c-0.2,0.2-0.2,0.4-0.2,0.6C25.5,36.8,25.5,37.2,25.5,37.5z M25,20.4c-1.3,0-2.6-0.1-3.9,0.3c-1.1,0.3-1.5,0.9-1.6,2
		c0,0.6,0,1.2,0.2,1.8c0.6,2.7,3,4.6,5.6,4.4c3.2-0.2,5.3-3.4,5.1-6.4c-0.1-0.9-0.7-1.4-1.5-1.7C27.6,20.3,26.3,20.4,25,20.4z
		 M28.2,14.3c0,0.1,0,0.2,0,0.2c-0.3,1.8-1.5,2.9-3.1,2.9c-1.6,0-2.8-1-3.1-2.8c-0.1-0.5-0.3-0.3-0.5-0.1c-1.6,1.1-2.4,2.6-2.5,4.5
		c0,0.5,0.1,0.6,0.6,0.6c2.6-0.2,5.1-0.3,7.7-0.2c1.2,0,2.3,0,3.5,0.2c0.3,0,0.5,0,0.5-0.4C31.2,17.3,29.9,15.2,28.2,14.3z
		 M28.5,28.6c-0.5,0.2-0.9,0.5-1.4,0.7c-1.8,0.7-3.5,0.5-5.2-0.4c-0.4-0.2-0.5-0.2-0.6,0.3c0,0.5-0.2,1-0.4,1.4
		c-0.1,0.3-0.1,0.5,0.1,0.8c1.2,1.2,2.4,2.3,3.5,3.5c0.3,0.3,0.4,0.3,0.7,0c1.1-1.1,2.1-2.2,3.2-3.2c0.5-0.4,0.6-0.8,0.3-1.3
		C28.7,29.7,28.6,29.2,28.5,28.6z M25,16.4c1.2,0,2.2-0.9,2.2-2.2c0-1.2-1-2.2-2.2-2.2c-1.2,0-2.2,1-2.2,2.2
		C22.8,15.4,23.8,16.4,25,16.4z M30.8,20.6c0.1,0.2,0.2,0.4,0.3,0.5c0.3,0.7,0.6,0.8,1.3,0.4c0.2-0.1,0.3-0.1,0.3-0.4
		c0-0.2-0.2-0.3-0.3-0.3C31.9,20.8,31.4,20.6,30.8,20.6z M19.2,20.6c-0.6,0-1.2,0.1-1.7,0.4c-0.3,0.2-0.3,0.4,0,0.5
		c0.3,0.2,0.6,0.3,1,0.2c0.3,0,0.2-0.4,0.4-0.6C19,21,19.1,20.8,19.2,20.6z"/>
	<path stroke="#020202" stroke-width="0.3" stroke-miterlimit="10" d="M20.6,9.4c0.2,0,0.3,0.1,0.4,0.2c0.3,0.3,0.6,0.6,0.9,0.9
		c0.2,0.2,0.3,0.5,0,0.7c-0.2,0.2-0.5,0.2-0.7,0c-0.3-0.3-0.7-0.7-1-1c-0.1-0.2-0.2-0.3-0.1-0.5C20.3,9.5,20.4,9.5,20.6,9.4z"/>
	<path stroke="#020202" stroke-width="0.3" stroke-miterlimit="10" d="M28.5,11.4c-0.3,0-0.6-0.4-0.4-0.7c0.3-0.5,0.7-0.9,1.2-1.3
		c0.3-0.2,0.7,0.1,0.6,0.5C29.9,10.2,28.7,11.4,28.5,11.4z"/>
	<path stroke="#020202" stroke-width="0.3" stroke-miterlimit="10" d="M25.5,8.7c0,0.2,0,0.5,0,0.7c0,0.3-0.2,0.5-0.5,0.5
		c-0.3,0-0.5-0.2-0.5-0.5c0-0.4,0-0.9,0-1.3c0-0.3,0.1-0.6,0.5-0.6c0.3,0,0.5,0.2,0.5,0.5C25.5,8.3,25.5,8.5,25.5,8.7
		C25.5,8.7,25.5,8.7,25.5,8.7z"/>
	<path d="M23.4,14.2c0-0.8,0.8-1.6,1.6-1.6c0.3,0,0.5,0.1,0.6,0.4c0,0.3-0.1,0.5-0.4,0.5c-0.5,0.1-0.7,0.3-0.8,0.8
		c0,0.3-0.2,0.4-0.5,0.4C23.5,14.7,23.4,14.5,23.4,14.2z"/>
</g>
<path stroke="#020202" stroke-width="0.6" stroke-miterlimit="10" d="M22.4,22.6c0-0.2,0-0.5,0.3-0.5c0.3,0,0.3,0.3,0.3,0.5
	c0,0.2,0,0.5-0.3,0.5C22.3,23.1,22.4,22.8,22.4,22.6z"/>
<path stroke="#020202" stroke-width="0.6" stroke-miterlimit="10" d="M27.6,22.6c0,0.2,0,0.5-0.3,0.5c-0.3,0-0.3-0.3-0.3-0.5
	c0-0.1,0-0.2,0-0.2c0-0.2,0.1-0.3,0.3-0.3c0.2,0,0.3,0.1,0.3,0.3C27.6,22.5,27.6,22.5,27.6,22.6z"/>
<circle fill="#FFC101" cx="35.5" cy="35.5" r="4.7"/>
<path d="M36.7,35.5h-1.5c0,0-0.1,0-0.1-0.1v-1.5c0-0.2-0.2-0.4-0.4-0.4c-0.2,0-0.4,0.2-0.4,0.4v1.5c0,0,0,0.1-0.1,0.1h-1.5
	c-0.2,0-0.4,0.2-0.4,0.4c0,0.2,0.2,0.4,0.4,0.4h1.5c0,0,0.1,0,0.1,0.1V38c0,0.2,0.2,0.4,0.4,0.4c0.2,0,0.4-0.2,0.4-0.4v-1.5
	c0,0,0-0.1,0.1-0.1h1.5c0.2,0,0.4-0.2,0.4-0.4C37.2,35.7,37,35.5,36.7,35.5z"/>
</svg>
