<?xml version="1.0" encoding="utf-8"?>
<!-- Generator: Adobe Illustrator 25.2.0, SVG Export Plug-In . SVG Version: 6.00 Build 0)  -->
<svg version="1.1" baseProfile="tiny" id="Layer_1" xmlns="http://www.w3.org/2000/svg" xmlns:xlink="http://www.w3.org/1999/xlink"
	 x="0px" y="0px" viewBox="0 0 50 50" overflow="visible" xml:space="preserve">
<g>
	<g>
		<circle fill="#FFC101" cx="25" cy="25" r="24.5"/>
	</g>
</g>
<g>
	<path stroke="#020202" stroke-width="0.3" stroke-miterlimit="10" d="M12,34.6c0.2-0.5,0.5-0.7,1-0.7c0.1,0,0.1-0.1,0.1-0.2
		c0-0.6,0-1.1,0-1.7c0-0.2,0-0.3,0.2-0.4c0.3-0.2,0.6,0,0.6,0.4c0,0.5,0,1.1,0,1.6c0,0.2,0,0.3,0.3,0.3c0.3,0,0.6,0,0.9,0
		c0.2,0,0.2-0.1,0.2-0.2c0-1.5,0-3.1,0-4.6c0-0.2,0-0.4,0-0.6c0.1-0.4,0.4-0.7,0.9-0.7c1,0,1.9,0,2.9,0c0.5,0,0.9,0.5,0.9,1.1
		c0,1.6,0,3.1,0,4.7c0,0.4,0,0.4,0.4,0.4c5.2,0,10.3,0,15.5,0c0.2,0,0.3,0,0.3-0.3c0-2.2,0-4.3,0-6.5c0-0.2,0-0.4,0.2-0.5
		c0.2-0.1,0.5,0,0.6,0.3c0,0.1,0,0.2,0,0.2c0,2.2,0,4.3,0,6.5c0,0.2,0,0.3,0.2,0.3c0.5,0,0.9,0.4,0.9,0.9c0,0.7,0,1.5,0,2.2
		c0,0.5-0.3,0.7-0.8,0.9c-0.6,0-1.1,0-1.7,0c-0.1-0.1-0.2-0.1-0.3-0.1c-5.9,0-11.7,0-17.6,0c-0.1,0-0.2,0-0.3,0.1
		c-0.9,0-1.8,0-2.6,0c0-0.1-0.1-0.1-0.2-0.1c-0.6,0-1.2,0-1.8,0c-0.4,0-0.6-0.4-0.8-0.7C12,36.3,12,35.4,12,34.6z M25,34.7
		C25,34.7,25,34.7,25,34.7c-4,0-7.9,0-11.9,0c-0.3,0-0.3,0-0.3,0.3c0,0.6,0,1.2,0,1.8c0,0.3,0.1,0.3,0.3,0.3c3.9,0,7.9,0,11.8,0
		c4,0,8,0,12,0c0.3,0,0.3-0.1,0.3-0.3c0-0.6,0-1.1,0-1.7c0-0.4,0-0.4-0.4-0.4C32.9,34.7,29,34.7,25,34.7z M19.2,31.2
		c0-0.8,0-1.6,0-2.4c0-0.2-0.1-0.3-0.3-0.3c-0.8,0-1.7,0-2.5,0c-0.2,0-0.3,0.1-0.3,0.3c0,1.6,0,3.3,0,4.9c0,0.2,0.1,0.2,0.2,0.2
		c0.9,0,1.8,0,2.7,0c0.2,0,0.2-0.1,0.2-0.2C19.2,32.9,19.2,32.1,19.2,31.2z M16.9,37.8c-0.1-0.1-0.3-0.1-0.4,0
		C16.6,37.8,16.7,37.8,16.9,37.8z"/>
	<path stroke="#020202" stroke-width="0.3" stroke-miterlimit="10" d="M17.4,37.9c0.1-0.1,0.2-0.1,0.3-0.1c5.9,0,11.7,0,17.6,0
		c0.1,0,0.2,0,0.3,0.1C29.5,37.9,23.4,37.9,17.4,37.9z"/>
	<path stroke="#020202" stroke-width="0.3" stroke-miterlimit="10" d="M12.8,37.9C12.8,37.8,12.8,37.8,12.8,37.9
		c0.6,0,1.2-0.1,1.8-0.1c0.1,0,0.1,0,0.2,0.1C14.1,37.9,13.4,37.9,12.8,37.9z"/>
	<path stroke="#020202" stroke-width="0.3" stroke-miterlimit="10" d="M25.8,23c0.5-0.4,1-0.7,1.5-1.1c0.1,0,0.1-0.1,0.1-0.2
		c0.3-1.5,0.5-2.9,0.7-4.4c0.1-0.5,0.1-1.1,0.2-1.6c0.1-0.6,0.6-1.1,1.2-1.1c0.9,0,1.9,0,2.8,0c0.8,0,1.4,0.5,1.5,1.4
		c0.1,0.8,0.2,1.6,0.3,2.4c0.1,1,0.3,2,0.5,3.1c0,0.2,0,0.4,0.1,0.6c0.2-0.1,0.4-0.3,0.5-0.4c0.3-0.3,0.7-0.3,1.1-0.1
		c0.4,0.2,0.6,0.5,0.6,0.9c0,0.9,0,4,0,4.9c0,0.3-0.1,0.5-0.4,0.5c-0.2,0-0.4-0.2-0.4-0.5c0-0.9,0-3.9,0-4.8c0-0.1,0-0.3-0.1-0.4
		c-0.1-0.1-0.2,0-0.3,0.1c-2.1,1.5-4.3,3.1-6.4,4.6c-0.1,0.1-0.3,0.2-0.5,0.1c-0.2-0.1-0.2-0.3-0.2-0.5c0-1.3,0-2.6,0-3.9
		c0-0.1,0-0.3-0.1-0.4c-0.2-0.1-0.3,0-0.4,0.1c-2,1.4-4,2.9-6,4.3c-0.2,0.1-0.3,0.2-0.5,0.3c-0.3,0.2-0.6,0-0.6-0.3
		c0-0.4,0-0.8,0-1.2c0-1,0-1.9,0-2.9c0-0.1,0-0.2-0.1-0.3c-0.1-0.1-0.2,0-0.4,0.1c-1.9,1.3-3.7,2.7-5.6,4c-0.6,0.4-0.8,0.9-0.8,1.6
		c0,0.8,0,3.4,0,4.2c0,0.3-0.1,0.5-0.4,0.5c-0.2,0-0.4-0.1-0.4-0.3c0-1-0.1-3.9,0-4.9c0.1-0.7,0.5-1.2,1.1-1.6
		c1.2-0.8,2.4-1.7,3.5-2.5c0.1-0.1,0.2-0.2,0.2-0.3c0.1-0.7,0.2-1.3,0.2-2c0.1-1.1,0.3-2.2,0.4-3.3c0.1-0.8,0.2-1.7,0.3-2.5
		c0.1-0.7,0.1-1.3,0.3-2c0.1-0.6,0.6-1,1.2-1c1,0,2,0,3,0c0.7,0,1.2,0.4,1.3,1.2c0.2,1.4,0.3,2.7,0.5,4.1c0.2,1.4,0.3,2.8,0.5,4.1
		C25.7,22,25.7,22.5,25.8,23z M21.5,26.1c0.1-0.1,0.2-0.2,0.3-0.2c1-0.7,1.9-1.4,2.9-2.1c0.3-0.2,0.3-0.4,0.3-0.7
		c-0.1-0.8-0.2-1.5-0.3-2.3c-0.1-1.3-0.3-2.5-0.4-3.8c0-0.2-0.1-0.2-0.3-0.2c-1.1,0-2.3,0-3.4,0c-0.3,0-0.6,0-1,0
		c-0.1,0-0.2,0-0.2,0.1c-0.1,0.6-0.1,1.2-0.2,1.8c-0.1,0.8-0.2,1.6-0.3,2.5c0,0.4-0.1,0.9-0.1,1.4c0.4-0.3,0.7-0.5,1.1-0.8
		c0.3-0.2,0.7-0.3,1.1-0.1c0.3,0.2,0.5,0.5,0.5,0.9c0,0.3,0,0.5,0,0.8C21.5,24.2,21.5,25.1,21.5,26.1z M30.9,19.3
		C30.9,19.3,30.9,19.3,30.9,19.3c-0.7,0-1.4,0-2.2,0c-0.2,0-0.2,0-0.2,0.2c-0.1,0.6-0.2,1.3-0.3,1.9c0,0.1,0,0.1,0.1,0.1
		c0.7,0.2,0.9,0.5,0.9,1.2c0,1,0,2,0,3c0,0.1,0,0.1,0,0.2c0.1,0.1,0.1,0,0.2-0.1c1.5-1,2.9-2.1,4.4-3.1c0.1-0.1,0.1-0.1,0.1-0.2
		c-0.2-1-0.3-2-0.5-3c0-0.2-0.1-0.3-0.3-0.3C32.4,19.3,31.7,19.3,30.9,19.3z M31,18.5c0.7,0,1.3,0,2,0c0.2,0,0.3,0,0.3-0.3
		c-0.1-0.8-0.2-1.6-0.3-2.3c0-0.3-0.2-0.5-0.5-0.5c-1,0-2,0-2.9,0c-0.3,0-0.5,0.2-0.5,0.5c-0.1,0.8-0.2,1.6-0.3,2.4
		c0,0.2,0.1,0.2,0.2,0.2C29.6,18.5,30.3,18.5,31,18.5z M21.9,16C21.9,16,21.9,16,21.9,16c0.7,0,1.3,0,2,0c0.4,0,0.4,0,0.3-0.4
		c-0.1-0.7-0.2-1.3-0.2-2c0-0.6-0.2-0.7-0.8-0.7c-0.8,0-1.6,0-2.5,0c-0.6,0-0.8,0.2-0.8,0.8c-0.1,0.7-0.1,1.4-0.2,2.1
		c0,0.2,0,0.2,0.2,0.2C20.5,16,21.2,16,21.9,16z"/>
	<path stroke="#020202" stroke-width="0.3" stroke-miterlimit="10" d="M23.7,31.8c-0.3,0-0.5,0-0.8,0c-0.5,0-1-0.4-1-1
		c0-0.5,0-1,0-1.5c0-0.5,0.5-1,1-1c0.4,0,0.9,0,1.3,0c0.6,0,1.1,0.4,1.1,1.1c0,0.5,0,0.9,0,1.4c0,0.6-0.4,1-1,1
		C24.1,31.8,23.9,31.8,23.7,31.8C23.7,31.8,23.7,31.8,23.7,31.8z M22.7,30.1c0,0.2,0,0.4,0,0.6c0,0.3,0.1,0.3,0.3,0.3
		c0.4,0,0.8,0,1.3,0c0.2,0,0.3-0.1,0.3-0.3c0-0.4,0-0.9,0-1.3c0-0.2-0.1-0.3-0.3-0.3c-0.5,0-0.9,0-1.4,0c-0.2,0-0.3,0.1-0.3,0.3
		C22.7,29.6,22.7,29.8,22.7,30.1z"/>
	<path stroke="#020202" stroke-width="0.3" stroke-miterlimit="10" d="M28.4,31.8c-0.2,0-0.4,0-0.7,0c-0.6,0-1-0.4-1-1
		c0-0.5,0-0.9,0-1.4c0-0.6,0.3-1,0.9-1c0.6,0,1.1-0.1,1.7,0c0.5,0.1,0.9,0.4,0.9,0.9c0,0.5,0,1,0,1.5c0,0.6-0.4,1-1,1
		C28.8,31.8,28.6,31.8,28.4,31.8z M28.4,31C28.4,31,28.4,31,28.4,31c0.2,0,0.4,0,0.7,0c0.2,0,0.3-0.1,0.3-0.3c0-0.5,0-0.9,0-1.4
		c0-0.2-0.1-0.3-0.3-0.3c-0.5,0-0.9,0-1.4,0c-0.2,0-0.3,0.1-0.3,0.3c0,0.4,0,0.9,0,1.3c0,0.2,0.1,0.3,0.3,0.3
		C27.9,31,28.1,31,28.4,31z"/>
	<path stroke="#020202" stroke-width="0.3" stroke-miterlimit="10" d="M31.4,30c0-0.2,0-0.4,0-0.6c0-0.6,0.4-1,1-1c0.5,0,1,0,1.5,0
		c0.6,0,0.9,0.4,0.9,1c0,0.5,0,1,0,1.5c0,0.5-0.4,0.9-1,0.9c-0.5,0-1,0-1.5,0c-0.5,0-1-0.4-1-1C31.4,30.6,31.4,30.3,31.4,30z
		 M33.1,31C33.1,31,33.1,31,33.1,31c0.2,0,0.4,0,0.6,0c0.3,0,0.3-0.1,0.4-0.3c0-0.4,0-0.8,0-1.3c0-0.2-0.1-0.3-0.3-0.3
		c-0.5,0-0.9,0-1.4,0c-0.2,0-0.2,0.1-0.2,0.2c0,0.5,0,1,0,1.4c0,0.2,0.1,0.2,0.3,0.2C32.6,31,32.9,31,33.1,31z"/>
	<path stroke="#020202" stroke-width="0.3" stroke-miterlimit="10" d="M16.9,37.8c-0.1,0-0.3,0-0.4,0C16.6,37.7,16.7,37.7,16.9,37.8
		z"/>
</g>
</svg>
