<?xml version="1.0" encoding="utf-8"?>
<!-- Generator: Adobe Illustrator 25.2.0, SVG Export Plug-In . SVG Version: 6.00 Build 0)  -->
<svg version="1.1" baseProfile="tiny" id="Layer_1" xmlns="http://www.w3.org/2000/svg" xmlns:xlink="http://www.w3.org/1999/xlink"
	 x="0px" y="0px" viewBox="0 0 50 50" overflow="visible" xml:space="preserve">
<g>
	<g>
		<circle fill="#FFC101" cx="25" cy="25" r="24.5"/>
	</g>
</g>
<g>
	<path stroke="#020202" stroke-width="0.2" stroke-miterlimit="10" d="M13.7,38c-0.2-0.3-0.4-0.5-0.6-0.8c-0.2-0.3-0.2-0.6,0-0.8
		c0.2-0.2,0.6-0.2,0.7,0c0.2,0.2,0.4,0.1,0.6,0c0.6-0.4,1.3-0.9,1.9-1.3c0.3-0.2,0.3-0.3,0.2-0.6c-1.2-1.8-2.4-3.7-3.6-5.5
		c-0.2-0.2-0.3-0.3-0.5-0.1c-0.7,0.5-1.3,0.9-2,1.3c-0.3,0.2-0.3,0.3-0.1,0.6c0.7,1.1,1.4,2.2,2.1,3.3c0.1,0.2,0.2,0.3,0.2,0.5
		c0,0.2,0,0.5-0.3,0.5c-0.3,0.1-0.5,0-0.7-0.3c-0.4-0.7-0.9-1.3-1.3-2c-0.5-0.7-0.9-1.5-1.4-2.2c-0.3-0.4-0.2-0.7,0.2-1
		c1.1-0.7,2.2-1.4,3.3-2.1c0.4-0.2,0.7-0.3,1,0.2c0.2,0.4,0.4,0.3,0.7,0.1c1-0.6,1.9-1.2,2.9-1.9c1-0.7,2.1-0.8,3.2-0.4
		c2.6,0.8,5.1,1.7,7.7,2.5c1.4,0.5,1.7,1.5,1.4,2.7c-0.3,1.1-1.5,1.7-2.7,1.4c-1.2-0.3-2.4-0.7-3.7-1c-0.4-0.1-0.7-0.2-0.6-0.7
		c0.1-0.5,0.5-0.4,0.8-0.4c1.3,0.3,2.5,0.6,3.7,1c0.6,0.2,0.9-0.1,1.2-0.4c0.3-0.4,0.3-0.8,0-1.2c-0.2-0.2-0.4-0.3-0.6-0.4
		c-2.6-0.9-5.2-1.7-7.8-2.6c-0.7-0.2-1.3-0.1-1.8,0.2c-1.1,0.7-2.2,1.4-3.3,2.1c-0.2,0.2-0.3,0.3-0.1,0.5c0.8,1.2,1.6,2.5,2.4,3.7
		c0.2,0.2,0.3,0.3,0.5,0.1c0.7-0.5,1.4-0.5,2.2-0.3c2.2,0.7,4.5,1.3,6.7,2c0.5,0.1,0.9,0.1,1.3-0.2c2.5-1.6,5-3.3,7.5-4.9
		c0.7-0.5,0.9-1,0.5-1.6c-0.4-0.6-1-0.6-1.7-0.2c-0.8,0.5-1.5,1-2.3,1.5c-0.3,0.2-0.6,0.3-0.9-0.1c-0.2-0.4,0-0.6,0.3-0.8
		c0.8-0.5,1.6-1.1,2.4-1.6c1-0.7,2.3-0.4,3,0.6c0.6,1,0.4,2.3-0.6,3c-2.6,1.7-5.2,3.4-7.8,5.1c-0.6,0.4-1.2,0.4-1.9,0.2
		c-2.3-0.7-4.5-1.3-6.8-2c-0.3-0.1-0.6-0.2-1-0.1c-0.6,0.3-0.6,0.3-0.4,0.9c0.2,0.4,0,0.6-0.3,0.8c-1.2,0.8-2.5,1.6-3.7,2.4
		C13.9,38,13.8,38,13.7,38z"/>
	<g>
		<g>
			<path stroke="#020202" stroke-width="0.2" stroke-miterlimit="10" d="M32.5,19.6c-0.9-0.9-1.9-1.5-3-1.9c1.2-0.8,2-2.2,2-3.8
				c0-2.5-2.1-4.6-4.6-4.6s-4.6,2.1-4.6,4.6c0,1.6,0.8,2.9,2,3.8c-1.1,0.4-2.1,1-3,1.9c-1.5,1.5-2.3,3-2.3,5.1h1.2
				c0-3.7,3-6.2,6.7-6.2s6.7,2.5,6.7,6.2h1.2C34.8,22.6,33.9,21.1,32.5,19.6z M26.9,17.3c-1.8,0-3.3-1.5-3.3-3.3s1.5-3.3,3.3-3.3
				c1.8,0,3.3,1.5,3.3,3.3S28.7,17.3,26.9,17.3z"/>
		</g>
	</g>
	<path stroke="#020202" stroke-width="0.2" stroke-miterlimit="10" d="M23.6,25.2L23.6,25.2c-0.3,0-0.5-0.2-0.5-0.4v-1.1
		c0-0.2,0.2-0.4,0.4-0.4h0.1c0.2,0,0.4,0.2,0.4,0.4v1.1C24,25,23.8,25.2,23.6,25.2z"/>
	<path stroke="#020202" stroke-width="0.2" stroke-miterlimit="10" d="M30.2,26.1L30.2,26.1c-0.2,0-0.4-0.2-0.4-0.4v-1.9
		c0-0.2,0.2-0.4,0.4-0.4l0,0c0.2,0,0.4,0.2,0.4,0.4v1.9C30.6,25.9,30.4,26.1,30.2,26.1z"/>
</g>
</svg>
