<?xml version="1.0" encoding="utf-8"?>
<!-- Generator: Adobe Illustrator 25.2.0, SVG Export Plug-In . SVG Version: 6.00 Build 0)  -->
<svg version="1.1" baseProfile="tiny" id="Layer_1" xmlns="http://www.w3.org/2000/svg" xmlns:xlink="http://www.w3.org/1999/xlink"
	 x="0px" y="0px" viewBox="0 0 50 50" overflow="visible" xml:space="preserve">

<g>
	<path stroke="#020202" stroke-width="0.3" stroke-miterlimit="10" d="M31.3,35.6c1.4,0,2.8,0,4.1,0c0.3,0,0.6,0,0.6,0.5
		c0,0.5-0.3,0.4-0.6,0.4c-6.9,0-13.9,0-20.8,0c-0.3,0-0.5,0-0.5-0.4c0-0.4,0.2-0.5,0.5-0.4c1.1,0,2.3,0,3.4,0c0.2,0,0.4,0,0.7,0
		c-0.9-0.7-1.4-1.4-1.6-2.4C17,33,16.9,33,16.7,33c-0.6,0-1.1,0-1.7,0c-0.9,0-1.4-0.5-1.5-1.4c-0.4-3.5-0.9-7-1.3-10.6
		c-0.1-0.8,0.1-1.2,0.8-1.6c0.3-0.1,0.3-0.3,0.4-0.5c0.3-2,1.9-3.3,3.9-3.3c0.3,0,0.5-0.1,0.7-0.4c0.8-1.4,2.4-1.9,3.9-1.4
		c0.3,0.1,0.6,0.1,0.9,0c1.1-0.4,2.2-0.4,3.4,0c0.3,0.1,0.5,0.1,0.8,0c1.7-0.7,3.6-0.2,4.8,1.2c0.2,0.3,0.4,0.3,0.7,0.3
		c2.3-0.3,4.2,1.3,4.3,3.7c0,0.3,0.1,0.4,0.3,0.5c0.6,0.3,0.9,0.9,0.8,1.6c-0.4,3.5-0.9,7-1.3,10.4c-0.1,1-0.7,1.4-1.6,1.4
		c-0.5,0-1,0-1.6,0c-0.2,0-0.3,0-0.4,0.2C32.4,34.6,32.4,34.6,31.3,35.6z M34.1,32.1c0.2,0,0.3,0,0.5,0c1,0,1,0,1.1-1
		c0.4-3.2,0.8-6.5,1.2-9.7c0.1-1,0-1.2-1-1.2c-7.2,0-14.3,0-21.5,0c-1.2,0-1.6-0.2-1.3,1.5c0.5,3.2,0.8,6.5,1.2,9.7
		c0.1,0.5,0.3,0.8,0.8,0.7c0.4,0,0.9,0,1.3,0c0.4,0,0.6-0.1,0.7-0.5c0.4-1.4,1.6-2.4,3.1-2.5c1.5-0.1,3,0.7,3.5,2.1
		c0.3,0.9,0.7,1.1,1.5,1c0,0,0.1,0,0.1,0c0.4,0.1,0.6-0.1,0.7-0.5c0.4-1.4,1.7-2.5,3.1-2.6c1.6-0.1,2.9,0.8,3.5,2.2
		c0.4,0.9,0.4,0.9,1.3,0.9C34,32.1,34.1,32.1,34.1,32.1z M25,19.4c3.4,0,6.9,0,10.3,0c0.5,0,0.6-0.2,0.6-0.6c-0.2-1.8-1.9-3-3.7-2.5
		c-0.5,0.1-0.7,0-1-0.4c-1-1.5-2.7-1.9-4.3-1.2c-0.3,0.2-0.6,0.1-0.9,0c-1.1-0.5-2.2-0.5-3.3,0c-0.4,0.2-0.6,0.2-1,0
		c-1.3-0.6-2.7,0-3.2,1.3c-0.2,0.5-0.4,0.6-0.9,0.5c-1.5-0.2-2.9,0.7-3.4,2.2c-0.1,0.5-0.1,0.6,0.4,0.6C18.1,19.4,21.5,19.4,25,19.4
		z M32.1,32.5c0-1.5-1.2-2.6-2.7-2.6c-1.4,0-2.6,1.2-2.6,2.7c0,1.4,1.2,2.6,2.6,2.6C30.9,35.2,32.1,34,32.1,32.5z M17.9,32.6
		c0,1.4,1.2,2.6,2.6,2.6c1.4,0,2.7-1.2,2.7-2.7c0-1.4-1.2-2.6-2.6-2.6C19.1,29.9,17.9,31.1,17.9,32.6z M22.4,35.6c1.8,0,3.5,0,5.2,0
		c-0.9-0.6-1.4-1.3-1.6-2.3C26,33,25.8,33,25.6,33c-0.5,0.1-1.3-0.3-1.5,0.2C23.7,34.1,23.3,35,22.4,35.6z"/>
</g>
</svg>
