<?xml version="1.0" encoding="utf-8"?>
<!-- Generator: Adobe Illustrator 25.2.0, SVG Export Plug-In . SVG Version: 6.00 Build 0)  -->
<svg version="1.1" baseProfile="tiny" id="Layer_1" xmlns="http://www.w3.org/2000/svg" xmlns:xlink="http://www.w3.org/1999/xlink"
	 x="0px" y="0px" viewBox="0 0 50 50" overflow="visible" xml:space="preserve">
<g>
	<g>
		<circle fill="#FFC101" cx="25" cy="25" r="24.5"/>
	</g>
</g>
<g>
	<path stroke="#020202" stroke-width="0.3" stroke-miterlimit="10" d="M25.2,10c0.4,0,0.8,0,1.3,0c0.4,0,0.9-0.1,1,0.5
		c0,0.2,0.3,0.2,0.4,0.2c2.9,1.1,4.7,3.6,4.7,6.7c0,0.4,0.1,0.5,0.5,0.7c0.8,0.3,1.2,0.7,1.1,1.3c0,0.6-0.4,1.2-1.2,1.3
		c-1,0.1-1.2,0.6-1.3,1.5c-0.1,1.3-0.6,2.4-1.4,3.4c-0.4,0.5-0.5,0.9-0.4,1.5c0,0.2,0.1,0.5,0.1,0.7c0.2,0.9,0.5,1.5,1.6,1.8
		c2.2,0.6,4.1,1.7,5.5,3.6c1,1.3,1.5,2.8,1.6,4.5c0,0.3,0,0.5-0.4,0.4c-0.2,0-0.6,0.1-0.6-0.4c-0.1-3.4-2.1-5.4-5-6.8
		c-2.1-1-2.2-1-3.8,0.7c-0.9,0.9-1.9,1.9-2.8,2.8c-0.3,0.3-0.4,0.5-0.4,0.9c0,0.8,0,1.5,0,2.3c0,0.4-0.1,0.5-0.5,0.5
		c-0.3,0-0.5-0.1-0.5-0.4c0-0.8,0-1.5,0-2.3c0-0.4-0.1-0.6-0.4-0.9c-1.3-1.3-2.6-2.6-4-4c-0.3-0.3-0.5-0.3-0.8-0.2
		c-2.2,0.6-4.1,1.6-5.5,3.4c-0.9,1.1-1.3,2.4-1.3,3.8c0,0.5-0.3,0.5-0.6,0.5c-0.5,0-0.3-0.3-0.3-0.6c0.2-2.7,1.4-4.7,3.5-6.3
		c1.3-0.9,2.7-1.5,4.1-1.9c0.3-0.1,0.6-0.3,0.6-0.6c0.1-0.4,0.3-0.9,0.4-1.3c0.2-0.7,0-1.3-0.5-2c-0.9-1.1-1.3-2.5-1.4-3.9
		c0-0.4-0.1-0.6-0.6-0.7c-0.3,0-0.6-0.1-0.9-0.3c-0.5-0.2-0.9-0.6-0.9-1.2c0-0.6,0.3-1,0.8-1.2c0.7-0.2,0.8-0.6,0.8-1.2
		c0.2-2.9,1.7-5,4.4-6.1c0.3-0.1,0.7-0.1,0.8-0.6c0-0.2,0.3-0.2,0.5-0.2C24.1,10,24.6,10,25.2,10z M25.2,18.4c-1.2,0-2.4,0-3.6,0.2
		c-1.6,0.3-2.2,1-2.1,2.6c0,0.6,0.1,1.1,0.3,1.7c0.9,3.3,4.1,5.2,7.1,4.1c2.4-0.9,3.6-2.8,3.9-5.3c0.2-2-0.4-2.8-2.4-3.1
		C27.4,18.3,26.3,18.4,25.2,18.4z M23.9,12.6c0,1.2-0.2,2.3-0.4,3.5c-0.1,0.3-0.1,0.5-0.5,0.4c-0.3-0.1-0.5-0.2-0.4-0.6
		c0.3-1.2,0.4-2.5,0.4-3.8c0-0.5-0.1-0.6-0.5-0.4c-2.3,1-3.5,2.8-3.7,5.3c0,0.5,0.1,0.7,0.6,0.6c0.4-0.1,0.8-0.1,1.2-0.1
		c3.5-0.2,7-0.2,10.5,0.1c0.4,0,0.5-0.1,0.5-0.4c0-2.3-1.6-4.6-3.7-5.5c-0.3-0.1-0.5-0.2-0.5,0.3c0,1.3,0.1,2.6,0.4,3.9
		c0.1,0.4,0,0.5-0.4,0.6c-0.5,0.1-0.5-0.2-0.5-0.5c-0.2-1.2-0.3-2.3-0.4-3.5c0-0.5,0.2-1.3-0.1-1.6c-0.4-0.3-1.1-0.1-1.6-0.1
		c-0.6-0.1-0.9,0.1-0.7,0.7C24,11.9,23.9,12.3,23.9,12.6z M21.5,26.9c-0.1,0.8-0.3,1.5-0.6,2.2c-0.1,0.2-0.1,0.4,0.1,0.6
		c1.3,1.3,2.6,2.6,3.9,3.9c0.2,0.2,0.3,0.2,0.5,0c1.3-1.3,2.6-2.6,3.9-3.9c0.1-0.1,0.2-0.2,0.1-0.4c-0.3-0.7-0.5-1.5-0.6-2.3
		C26.4,28.5,24,28.5,21.5,26.9z M31.1,18.6c0.2,0.4,0.4,0.7,0.5,1c0.1,0.3,0.2,0.4,0.5,0.3c0.2-0.1,0.5-0.1,0.7-0.2
		c0.2-0.1,0.4-0.1,0.4-0.4c0-0.3-0.2-0.4-0.4-0.4C32.3,18.8,31.8,18.6,31.1,18.6z M18.6,18.7c-0.4,0.1-0.8,0.1-1.2,0.3
		c-0.4,0.2-0.4,0.4,0,0.6c0.3,0.2,0.7,0.3,1.1,0.3c0.3,0,0.2-0.4,0.4-0.7c0-0.1,0.1-0.1,0.1-0.2C19.2,18.7,19,18.6,18.6,18.7z"/>
</g>
<path stroke="#020202" stroke-width="0.6" stroke-miterlimit="10" d="M22.6,21.3c0-0.2,0-0.5,0.3-0.5s0.3,0.3,0.3,0.5s0,0.5-0.3,0.5
	C22.5,21.8,22.6,21.5,22.6,21.3z"/>
<path stroke="#020202" stroke-width="0.6" stroke-miterlimit="10" d="M27.8,21.3c0,0.2,0,0.5-0.3,0.5s-0.3-0.3-0.3-0.5
	c0-0.1,0-0.2,0-0.2c0-0.2,0.1-0.3,0.3-0.3c0.2,0,0.3,0.1,0.3,0.3C27.8,21.2,27.8,21.2,27.8,21.3z"/>
</svg>
