<?xml version="1.0" encoding="utf-8"?>
<!-- Generator: Adobe Illustrator 25.2.0, SVG Export Plug-In . SVG Version: 6.00 Build 0)  -->
<svg version="1.1" baseProfile="tiny" id="Layer_1" xmlns="http://www.w3.org/2000/svg" xmlns:xlink="http://www.w3.org/1999/xlink"
	 x="0px" y="0px" viewBox="0 0 50 50" overflow="visible" xml:space="preserve">
<g>
	<g>
		<circle fill="#FFC101" cx="25" cy="25" r="24.5"/>
	</g>
</g>
<g>
	<path stroke="#020202" stroke-width="0.3" stroke-miterlimit="10" d="M36.6,33.2c-2,0-4,0-5.9,0c-0.3,0-0.6,0.1-0.8,0.3
		c-0.7,0.6-1.6,0.9-2.5,0.9c-4.5,0-9,0-13.4,0c-1.8,0-3.3-1.1-3.9-2.8c-0.6-1.7,0-3.5,1.4-4.6c0.3-0.2,0.4-0.5,0.4-0.8
		c-0.2-1.4,0.1-2.7,0.9-3.8c0.5-0.8,0.7-1.6,0.6-2.6c-0.1-0.9,0-1.9,0-2.8c0-1.6,1-2.5,2.5-2.5c1.9,0,3.8,0,5.7,0
		c1.5,0,2.5,1,2.5,2.5c0,1.1,0,2.2,0,3.3c0,0.4,0.1,0.5,0.5,0.5c0.4,0,1,0.1,1.3-0.1c0.3-0.3,0.1-0.9,0.1-1.3c0-0.3-0.2-0.7,0.4-0.7
		c0.4,0,0.4,0.1,0.4,0.5c0,0.5-0.2,1.2,0.1,1.5c0.2,0.3,0.9,0.1,1.4,0.1c1.2,0.1,1.9,0.9,2,2.1c0,1.3,0,2.7,0,4
		c0,0.5,0.4,0.8,0.6,1.2c0,0.1,0.1,0.1,0.2,0c0.1-0.1,0.1-0.2,0.1-0.3c0-1,0-2,0-2.9c0-0.8,0-1.6,0-2.3c0-0.4,0.2-0.6,0.6-0.6
		c0.7,0,1.5,0,2.2,0c0.3,0,0.6,0.1,0.6,0.4c0.1,0.9,0.6,1.4,1.4,1.7c1,0.4,1.7,1.3,2,2.4c0.1,0.3,0.2,0.5,0.5,0.5
		c1.2,0.3,2.1,1.1,2.7,2.2c0.1,0.2,0.3,0.4,0.5,0.5c1.1,0.6,1.5,1.5,1.6,2.7c0,0.5-0.1,0.7-0.6,0.7C40.7,33.2,38.7,33.2,36.6,33.2z
		 M20.7,26.1C20.7,26.1,20.7,26.1,20.7,26.1c2.1,0,4.3,0,6.4,0c0.7,0,1.4,0.1,2,0.4c0.3,0.2,0.4,0.1,0.4-0.2c0-1,0-2,0-3
		c0-1.2-0.4-1.6-1.6-1.6c-1.3,0-2.6,0-3.9,0c-0.7,0-0.7-0.1-0.7-0.7c0-1.3,0-2.7,0-4c0-1-0.6-1.7-1.7-1.7c-1.9,0-3.8,0-5.7,0
		c-1.1,0-1.7,0.6-1.7,1.7c0,1-0.1,2,0,2.9c0.1,1-0.2,1.9-0.7,2.8c-0.6,1-1,2-0.9,3.2c0,0.3,0,0.5,0.4,0.4c0.3-0.1,0.6-0.1,0.9-0.1
		C16.2,26.1,18.4,26.1,20.7,26.1z M20.6,26.9C20.6,26.9,20.6,26.9,20.6,26.9c-2.2,0-4.4,0-6.5,0c-2,0-3.4,1.4-3.4,3.3
		c0,1.9,1.5,3.3,3.4,3.3c4.4,0,8.8,0,13.2,0c0.4,0,0.8,0,1.1-0.2c1.5-0.5,2.5-2.1,2.2-3.6c-0.3-1.7-1.6-2.8-3.3-2.8
		C25.1,26.9,22.9,26.9,20.6,26.9z M37.9,32.3c-0.4-0.3-0.6-0.5-0.9-0.6c-0.6-0.3-0.8-0.8-1-1.4c-0.6-2.1-1.2-4.2-1.8-6.3
		c-0.3-1.2-0.4-1.2-1.6-1.2c-0.4,0-0.6,0.1-0.6,0.5c0,1.7,0,3.3,0,5c0,0.3,0,0.6-0.5,0.7c-0.3,0-0.2,0.2-0.2,0.4
		c0.1,0.9,0.1,1.8-0.3,2.6c-0.1,0.2-0.1,0.3,0.2,0.3C33.4,32.3,35.6,32.3,37.9,32.3z M35.3,24.6c0.6,2.1,1.2,4,1.7,5.9
		c0,0.2,0.2,0.2,0.3,0.3c0.6,0.4,1.2,0.9,1.8,1.3c0.2,0.1,0.3,0.2,0.6,0.2c0.8,0,1.7,0,2.5,0c0.3,0,0.4-0.1,0.3-0.4
		c-0.2-0.7-0.6-1.2-1.3-1.5c-0.3-0.1-0.4-0.3-0.6-0.6c-0.5-1.2-1.3-2-2.6-2.1c-0.4-0.1-0.6-0.2-0.6-0.6
		C37.1,26.1,36.5,25.2,35.3,24.6z"/>
	<path stroke="#020202" stroke-width="0.3" stroke-miterlimit="10" d="M18.8,16.5c0.8,0,1.6,0,2.3,0c0.6,0,0.8,0.2,0.8,0.8
		c0,1.3,0,2.6,0,3.9c0,0.6-0.2,0.8-0.8,0.8c-1.6,0-3.1,0-4.7,0c-0.6,0-0.8-0.2-0.8-0.8c0-1.3,0-2.5,0-3.8c0-0.7,0.2-0.8,0.9-0.8
		C17.2,16.5,18,16.5,18.8,16.5z M18.8,21.1c0.6,0,1.3,0,1.9,0c0.3,0,0.4,0,0.4-0.4c0-1,0-2,0-3.1c0-0.3-0.1-0.4-0.4-0.4
		c-1.3,0-2.6,0-3.9,0c-0.3,0-0.4,0.1-0.4,0.4c0,1,0,2,0,3.1c0,0.3,0.1,0.3,0.4,0.3C17.4,21.1,18.1,21.1,18.8,21.1z"/>
	<path stroke="#020202" stroke-width="0.3" stroke-miterlimit="10" d="M26.8,32.3c-1.2,0-2.1-1-2-2.1c0-1.1,1-2.1,2.2-2
		c1.1,0.1,2,1,2,2.1C29,31.4,28,32.3,26.8,32.3z M26.9,28.9c-0.7,0-1.2,0.6-1.2,1.3c0,0.7,0.6,1.2,1.3,1.2c0.7,0,1.2-0.6,1.2-1.3
		C28.1,29.5,27.6,28.9,26.9,28.9z"/>
	<path stroke="#020202" stroke-width="0.3" stroke-miterlimit="10" d="M18.5,30.2c0-1.2,0.9-2.1,2.1-2.1c1.1,0,2,0.9,2.1,2.1
		c0,1.1-0.9,2.1-2.1,2.1C19.4,32.3,18.5,31.3,18.5,30.2z M20.6,28.9c-0.7,0-1.2,0.6-1.2,1.2c0,0.7,0.6,1.2,1.3,1.2
		c0.7,0,1.2-0.6,1.2-1.2C21.8,29.5,21.3,28.9,20.6,28.9z"/>
	<path stroke="#020202" stroke-width="0.3" stroke-miterlimit="10" d="M16.5,30.2c0,1.2-1,2.1-2.1,2c-1.1,0-2-1-2-2.1
		c0-1.1,1-2.1,2.1-2.1C15.6,28.1,16.5,29.1,16.5,30.2z M14.4,31.4c0.7,0,1.3-0.5,1.3-1.2c0-0.7-0.5-1.2-1.2-1.3
		c-0.7,0-1.3,0.5-1.3,1.2C13.1,30.8,13.7,31.4,14.4,31.4z"/>
</g>
</svg>
